<svg id="Layer_1" data-name="Layer 1" xmlns="http://www.w3.org/2000/svg" xmlns:xlink="http://www.w3.org/1999/xlink" viewBox="0 0 202.16 161.67"><defs><style>.cls-1,.cls-16,.cls-17,.cls-4,.cls-7{fill:#fff;}.cls-1,.cls-16,.cls-17,.cls-7{stroke:#fff;}.cls-1,.cls-16,.cls-2{stroke-linecap:round;}.cls-1,.cls-2{stroke-linejoin:round;}.cls-1{stroke-width:4.22px;}.cls-2{stroke-width:0.84px;fill:url(#linear-gradient);stroke:url(#linear-gradient-2);}.cls-3{fill:url(#linear-gradient-3);}.cls-5{fill:url(#linear-gradient-4);}.cls-6{fill:url(#linear-gradient-5);}.cls-7{stroke-miterlimit:10;stroke-width:0.25px;}.cls-8,.cls-9{fill:none;}.cls-14,.cls-8{fill-rule:evenodd;}.cls-9{stroke:#384c89;stroke-width:0.15px;}.cls-10{fill:#384c89;}.cls-11{fill:#b92025;}.cls-12{fill:#fbb832;}.cls-13{fill:#73bf44;}.cls-14,.cls-15{fill:#1f4598;}.cls-16,.cls-17,.cls-19{stroke-miterlimit:3;}.cls-16{stroke-width:4.07px;}.cls-17{stroke-width:3.76px;}.cls-18{fill:#58b948;}.cls-19{fill:#00a3d8;stroke:#00a3d8;stroke-width:0.7px;}</style><linearGradient id="linear-gradient" x1="180.92" y1="-77.16" x2="95.35" y2="25.63" gradientTransform="translate(-53.28 105.05) rotate(-4.04)" gradientUnits="userSpaceOnUse"><stop offset="0" stop-color="#fcef42"/><stop offset="0.04" stop-color="#fce536"/><stop offset="0.12" stop-color="#fdd423"/><stop offset="0.2" stop-color="#fdca18"/><stop offset="0.28" stop-color="#fdc714"/><stop offset="0.67" stop-color="#f29040"/><stop offset="0.89" stop-color="#ed693c"/><stop offset="1" stop-color="#e74039"/></linearGradient><linearGradient id="linear-gradient-2" x1="120.85" y1="20.74" x2="43.65" y2="130.99" gradientTransform="matrix(1, 0.01, -0.01, 1, 1.42, -7.3)" xlink:href="#linear-gradient"/><linearGradient id="linear-gradient-3" x1="148.85" y1="18.81" x2="99.13" y2="74.22" gradientTransform="translate(-41.3 23.1)" gradientUnits="userSpaceOnUse"><stop offset="0" stop-color="#fcef42"/><stop offset="0.04" stop-color="#fce536"/><stop offset="0.12" stop-color="#fdd423"/><stop offset="0.2" stop-color="#fdca18"/><stop offset="0.28" stop-color="#fdc714"/><stop offset="0.67" stop-color="#f29040"/><stop offset="1" stop-color="#ed693c"/></linearGradient><linearGradient id="linear-gradient-4" x1="-9.32" y1="83.74" x2="164.98" y2="90.3" gradientTransform="matrix(1, 0.01, -0.01, 1, 1.42, -7.3)" gradientUnits="userSpaceOnUse"><stop offset="0.01" stop-color="#58b948"/><stop offset="0.07" stop-color="#58b948"/><stop offset="0.15" stop-color="#4db65a"/><stop offset="0.49" stop-color="#24ac9e"/><stop offset="0.73" stop-color="#0aa5c8"/><stop offset="0.86" stop-color="#00a3d8"/><stop offset="1" stop-color="#00a3d8"/></linearGradient><linearGradient id="linear-gradient-5" x1="122.89" y1="188.84" x2="140.97" y2="109.54" gradientTransform="translate(1.85 -28.39) rotate(2.89)" gradientUnits="userSpaceOnUse"><stop offset="0.37" stop-color="#fff" stop-opacity="0"/><stop offset="0.5" stop-color="#fff" stop-opacity="0.31"/><stop offset="0.77" stop-color="#fff"/></linearGradient></defs><title>acg2017-logo</title><path class="cls-1" d="M168.69,104.23l-19-39.35c-33.57-2.31-34.83-6.68-7.11-25.7-31.71,11.19-34.44,7.73-15.86-20.28C101.6,41.23,97.79,39,104.4,6,89.51,36.1,85,35.53,78,2.85c1.12-.1,2.11-0.17,3-0.23l3.51-.11L81,2.23c-1.15,0-2.57-.1-4.24-0.12s-3.6,0-5.76.24a74.28,74.28,0,0,0-15.4,2.91A75.22,75.22,0,0,0,36.93,14a78.61,78.61,0,0,0-9.47,7.23A76.69,76.69,0,0,0,5.6,55.4L4.58,59,3.73,62.65,3,66.53,2.57,70.06l0,0.22v0.11a1.63,1.63,0,0,0,0,.27l0,0.48-0.07,1L2.24,74c-0.1,1.29-.09,2.59-0.13,3.89,0,2.61.08,5.23,0.32,7.87a79.49,79.49,0,0,0,9.35,30.79,82.41,82.41,0,0,0,50,39.82l1.93,0.54,1.94,0.45,1.94,0.44c0.63,0.15,1.37.25,2.06,0.38l2.09,0.35c0.33,0.05.74,0.13,1,.16l0.83,0.11L75.25,159l0.82,0.11h0.1l0.42,0,0.24,0,0.48,0a86.13,86.13,0,0,0,42.5-7.14,100.55,100.55,0,0,0,17.49-10.24C148.57,133.91,160.83,122.06,168.69,104.23Z"/><path class="cls-2" d="M149.68,64.88c-32.91,7-33.54,11.51-3.42,26.45-33-6.62-35.18-2.81-12.85,22.31-28-18.57-31.46-15.85-20.28,15.86-19-27.72-23.39-26.46-25.7,7.11-7-32.91-11.51-33.54-26.45-3.42,6.62-33,2.81-35.18-22.31-12.85,18.57-28,15.85-31.46-15.86-20.28,27.72-19,26.46-23.39-7.11-25.7,32.91-7,33.54-11.51,3.42-26.45,33,6.62,35.18,2.81,12.85-22.31C60,44.17,63.44,41.44,52.25,9.73,71.27,37.45,75.65,36.2,78,2.63,85,35.54,89.47,36.17,104.4,6c-6.62,33-2.81,35.18,22.31,12.85-18.57,28-15.85,31.46,15.86,20.28C114.85,58.2,116.11,62.57,149.68,64.88Z"/><circle class="cls-3" cx="82.69" cy="69.61" r="37.22" transform="translate(-7 9.28) rotate(-6.17)"/><path class="cls-4" d="M119.7,65.61l0.16,2.62c0,0.43.08,0.9,0.06,1.43l-0.07,1.72c0,0.62,0,1.29-.1,2l-0.32,2.25a37.59,37.59,0,0,1-3.5,11,39,39,0,0,1-9.15,11.83A38.61,38.61,0,0,1,91,106.58c-0.77.22-1.57,0.31-2.37,0.47l-1.2.21-0.6.11-0.64.05A39.19,39.19,0,0,1,71,106.06l-2.52-.84c-0.84-.29-1.64-0.7-2.46-1.06l-1.23-.55L63.64,103c-0.78-.46-1.59-0.87-2.35-1.37A41.13,41.13,0,0,1,53,94.3a39.61,39.61,0,0,1-5.93-9.55,42.33,42.33,0,0,1-2.9-11L44,71a20.25,20.25,0,0,1,0-2.84l0.07-1.45,0-.72,0.1-.7,0.42-2.81a39.56,39.56,0,0,1,3.75-10.6A40.85,40.85,0,0,1,55,43c0.64-.65,1.34-1.23,2-1.84l1-.9,1.09-.8c0.73-.52,1.42-1.09,2.18-1.56l2.28-1.36a39.22,39.22,0,0,1,14.54-4.57c0.22,0,.37-0.06.65-0.08l0.6,0,1.2,0c0.8,0,1.57-.1,2.38,0a38.55,38.55,0,0,1,17.2,4.6,39,39,0,0,1,11.46,9.6,37.57,37.57,0,0,1,5.76,10L118.09,58c0.22,0.68.36,1.33,0.53,1.93l0.43,1.67c0.13,0.51.17,1,.24,1.41Zm0,0L119.28,63c-0.08-.42-0.12-0.9-0.26-1.41L118.57,60c-0.17-.6-0.31-1.25-0.54-1.92l-0.8-2.12a34.89,34.89,0,0,0-5.87-9.83,36.62,36.62,0,0,0-11.58-9.16,37.63,37.63,0,0,0-16.83-3.84c-0.76,0-1.56.1-2.35,0.14l-1.19.09-0.6,0-0.55.1a37.44,37.44,0,0,0-13.67,4.87l-2.1,1.36c-0.7.46-1.32,1-2,1.54l-1,.79-0.92.88c-0.6.6-1.24,1.16-1.81,1.79a39.59,39.59,0,0,0-5.88,8.43l-1.08,2.37a25,25,0,0,0-.9,2.45l-0.43,1.23c-0.13.41-.21,0.84-0.32,1.27-0.19.85-.44,1.69-0.59,2.55l-0.37,2.6-0.09.65,0,0.64L47,68.16a17.24,17.24,0,0,0,0,2.63l0.16,2.66a39.75,39.75,0,0,0,2.6,10.14,40.28,40.28,0,0,0,5.35,8.92,39.3,39.3,0,0,0,7.55,7c0.69,0.49,1.44.91,2.15,1.36l1.08,0.66,1.14,0.56c0.76,0.36,1.5.78,2.27,1.08L71.68,104a37.37,37.37,0,0,0,14.42,1.84l0.56,0,0.58-.08,1.16-.16c0.77-.13,1.55-0.17,2.3-0.36a37.6,37.6,0,0,0,15.65-7.35,36.6,36.6,0,0,0,9.36-11.42,34.87,34.87,0,0,0,3.64-10.86l0.33-2.24c0.08-.71.08-1.37,0.12-2l0.08-1.72c0-.53,0-1-0.05-1.43Z"/><path class="cls-5" d="M163.6,112.31s-11.73,25.11-43.78,39.79a86.13,86.13,0,0,1-42.5,7.14l-0.48,0-0.24,0-0.42,0h-0.1L75.25,159l-1.66-.22-0.83-.11c-0.25,0-.67-0.1-1-0.16l-2.09-.35c-0.68-.13-1.42-0.23-2.06-0.38l-1.94-.44-1.94-.45-1.93-.54a82.41,82.41,0,0,1-50-39.82A79.49,79.49,0,0,1,2.43,85.78c-0.24-2.64-.34-5.26-0.32-7.87,0-1.3,0-2.6.13-3.89L2.39,72.1l0.07-1,0-.48a1.63,1.63,0,0,1,0-.27V70.28l0-.22L3,66.53l0.69-3.88L4.58,59l1-3.58A76.69,76.69,0,0,1,27.46,21.19,78.61,78.61,0,0,1,36.93,14,75.22,75.22,0,0,1,55.57,5.27,74.28,74.28,0,0,1,71,2.35c2.16-.19,4.08-0.21,5.76-0.24s3.09,0.07,4.24.12l3.51,0.28L81,2.62C79.82,2.7,78.42,2.8,76.77,3s-3.52.44-5.6,0.86a72,72,0,0,0-14.5,4.44A70.92,70.92,0,0,0,40.11,18.35a72.56,72.56,0,0,0-7.92,7.58,68.91,68.91,0,0,0-7,9.31,67.12,67.12,0,0,0-9,22.87l-0.53,3.14-0.37,3.18-0.2,3.07c0,1.11-.05,2.33-0.08,3.5l0.1,3.12c0,1.08.18,2.16,0.25,3.24q0.34,3.24,1,6.44a63.28,63.28,0,0,0,28.5,41.12,60.5,60.5,0,0,0,22.26,8.38l1.41,0.23L70,133.68l1.41,0.16c0.48,0.06.86,0.05,1.3,0.08L74,134c0.23,0,.37,0,0.67,0l0.84,0,1.67,0,0.83,0h0.1c-0.11,0,.39,0-0.22,0H78l0.34,0a60,60,0,0,0,10.55-1.24A57.85,57.85,0,0,0,106.66,126,56.44,56.44,0,0,0,119,116.08a52.76,52.76,0,0,0,7.25-9.54c0.41-.7.87-1.39,1.18-2s0.52-1.09.76-1.56l0.69-1.31,0.76-1.74,1.4-3.23Z"/><path class="cls-6" d="M89,133c19.67-4.14,34.64-18.16,42.62-36.56l27.95-2.06,9.15,9.81c-9.66,21.93-26,34.8-38.89,42.51s-25.07,12-39.46,12.63C86.44,159.56,86,133.66,89,133Z"/><path class="cls-7" d="M14.36,101.1a2.81,2.81,0,0,1,1-.1,1.63,1.63,0,0,1,.86.36,2.94,2.94,0,0,1,.86,2.14,1.61,1.61,0,0,1-.36.85,2.75,2.75,0,0,1-.83.65,11.27,11.27,0,0,1-1.17.54,11.72,11.72,0,0,1-1.22.42,2.8,2.8,0,0,1-1,.1,1.54,1.54,0,0,1-.84-0.37,3.09,3.09,0,0,1-.86-2.14,1.53,1.53,0,0,1,.35-0.85,2.73,2.73,0,0,1,.82-0.65,11.49,11.49,0,0,1,1.17-.54A11.74,11.74,0,0,1,14.36,101.1Zm-1.7,2a2.73,2.73,0,0,0-.61.38,0.69,0.69,0,0,0-.21.87,0.69,0.69,0,0,0,.76.48,2.83,2.83,0,0,0,.7-0.15q0.41-.13,1-0.37c0.38-.15.7-0.29,1-0.42a2.86,2.86,0,0,0,.61-0.38,0.81,0.81,0,0,0-.08-1.25,0.77,0.77,0,0,0-.47-0.1,2.78,2.78,0,0,0-.7.15q-0.41.13-1,.36T12.66,103.14Z"/><path class="cls-7" d="M18.9,107a1.84,1.84,0,0,1,.2,1.3,1.5,1.5,0,0,1-.87.93,1.79,1.79,0,0,1-1,.21,1.2,1.2,0,0,1-.81-0.5h0a1.19,1.19,0,0,1,0,.77,1.25,1.25,0,0,1-.55.58l-0.32.19-0.4.22c-0.29.15-.5,0.28-0.65,0.38a0.48,0.48,0,0,0-.21.36l0,0-0.62-1.25a0.63,0.63,0,0,1,.21-0.24l0.3-.19,1-.55a1,1,0,0,0,.43-0.42,0.7,0.7,0,0,0-.07-0.61l-0.3-.62-2.33,1.15-0.57-1.15,5.51-2.72Zm-2.65.69a1.07,1.07,0,0,0,.51.55,0.88,0.88,0,0,0,.75-0.09,0.77,0.77,0,0,0,.37-1.18l-0.27-.55-1.59.78Z"/><path class="cls-7" d="M20,109.2l0.64,1.12-4.44,2.56,1.14,2-0.88.51-1.79-3.09Z"/><path class="cls-7" d="M23.58,115l-4.18,4.8-0.74-1.12,0.92-1-0.94-1.42-1.25.47-0.74-1.12,6.05-2Zm-3.28,2,2-2h0l-2.64,1Z"/><path class="cls-7" d="M23.2,121.6h0l3.34-2.56L27.27,120l-4.88,3.73-0.89-1.16L24,118.7h0l-3.42,2.61-0.72-.94,4.88-3.73,0.9,1.18Z"/><path class="cls-7" d="M29.15,122.18a2.39,2.39,0,0,1,.56,1,1.53,1.53,0,0,1,0,.88,2.61,2.61,0,0,1-.5.85,8.62,8.62,0,0,1-.87.87,8.44,8.44,0,0,1-1.12.85,2.61,2.61,0,0,1-1,.38,1.53,1.53,0,0,1-.88-0.12,2.62,2.62,0,0,1-.84-0.68l-1.34-1.53,4.62-4Zm-4.1,3.26a1.14,1.14,0,0,0,.44.34,0.78,0.78,0,0,0,.49,0,2.11,2.11,0,0,0,.62-0.33q0.34-.25.82-0.66t0.67-.63a2.19,2.19,0,0,0,.4-0.54,0.83,0.83,0,0,0,.08-0.51,1.12,1.12,0,0,0-.29-0.53l-0.36-.41L24.67,125Z"/><path class="cls-7" d="M29.71,125.49a2.8,2.8,0,0,1,.92-0.51,1.63,1.63,0,0,1,.93,0,2.42,2.42,0,0,1,1,.65,2.4,2.4,0,0,1,.65,1,1.61,1.61,0,0,1,0,.93,2.78,2.78,0,0,1-.51.92,12.64,12.64,0,0,1-1.82,1.82,2.78,2.78,0,0,1-.92.5,1.54,1.54,0,0,1-.92,0,3.09,3.09,0,0,1-1.63-1.63,1.53,1.53,0,0,1,0-.92,2.73,2.73,0,0,1,.5-0.92A12.39,12.39,0,0,1,29.71,125.49ZM28.94,128a2.81,2.81,0,0,0-.41.59,0.76,0.76,0,0,0,1,1,2.81,2.81,0,0,0,.59-0.41q0.33-.29.77-0.72t0.72-.76a2.89,2.89,0,0,0,.41-0.59,0.79,0.79,0,0,0,.09-0.47,0.92,0.92,0,0,0-.65-0.65,0.79,0.79,0,0,0-.47.09,2.93,2.93,0,0,0-.59.41q-0.33.28-.76,0.72C29.37,127.55,29.13,127.81,28.94,128Z"/><path class="cls-7" d="M31.41,132.87a3.58,3.58,0,0,1-.44.42,1.34,1.34,0,0,1-.47.25,1.05,1.05,0,0,1-.5,0,1.41,1.41,0,0,1-.55-0.27l0.41-.44a0.49,0.49,0,0,0,.42.06,0.86,0.86,0,0,0,.38-0.25l0.08-.08-0.34-.31,0.9-1L32.16,132Z"/><path class="cls-7" d="M40.19,132.48l-0.63.79-1.78-1.42L36.87,133l1.68,1.34-0.63.79-1.68-1.34-1.66,2.08-1-.8,3.83-4.8Z"/><path class="cls-7" d="M40.55,132.74l1,0.75-3,4.18L40.49,139l-0.59.83L37,137.75Z"/><path class="cls-7" d="M42.82,136.54a2.77,2.77,0,0,1,.78-0.7,1.62,1.62,0,0,1,.91-0.21,2.93,2.93,0,0,1,2,1.22,1.63,1.63,0,0,1,.21.91,2.78,2.78,0,0,1-.28,1A12.39,12.39,0,0,1,45,140.95a2.74,2.74,0,0,1-.78.7,1.54,1.54,0,0,1-.9.2,3.09,3.09,0,0,1-2-1.22,1.53,1.53,0,0,1-.22-0.89,2.74,2.74,0,0,1,.28-1A12.47,12.47,0,0,1,42.82,136.54Zm-0.17,2.65a2.77,2.77,0,0,0-.27.67,0.76,0.76,0,0,0,1.24.77,2.78,2.78,0,0,0,.48-0.53q0.26-.35.58-0.88c0.22-.35.39-0.65,0.53-0.91a2.87,2.87,0,0,0,.27-0.67,0.78,0.78,0,0,0,0-.48,0.91,0.91,0,0,0-.78-0.49,0.79,0.79,0,0,0-.44.2,2.88,2.88,0,0,0-.48.53q-0.25.35-.58,0.87T42.65,139.18Z"/><path class="cls-7" d="M50,138.67a1.84,1.84,0,0,1,.93.93,1.5,1.5,0,0,1-.16,1.26,1.8,1.8,0,0,1-.7.77,1.21,1.21,0,0,1-.95.07h0a1.19,1.19,0,0,1,.48.6,1.24,1.24,0,0,1-.1.79l-0.15.34-0.19.41c-0.14.29-.24,0.52-0.3,0.69a0.48,0.48,0,0,0,0,.42l0,0-1.23-.65a0.66,0.66,0,0,1,0-.32,3.38,3.38,0,0,1,.13-0.32l0.52-1.06a1,1,0,0,0,.1-0.59,0.7,0.7,0,0,0-.41-0.45l-0.61-.32-1.21,2.3L45,143l2.86-5.43Zm-1.74,2.11a1.08,1.08,0,0,0,.73.15,0.88,0.88,0,0,0,.55-0.51,0.77,0.77,0,0,0-.4-1.17L48.61,139l-0.83,1.57Z"/><path class="cls-7" d="M52.26,139.79l1.17,0.54-2.56,5.58-1.17-.54Z"/><path class="cls-7" d="M56.2,141.48a2.39,2.39,0,0,1,.93.59,1.53,1.53,0,0,1,.38.79,2.6,2.6,0,0,1-.06,1,8.58,8.58,0,0,1-.37,1.17,8.38,8.38,0,0,1-.61,1.27,2.59,2.59,0,0,1-.69.79,1.52,1.52,0,0,1-.83.29,2.6,2.6,0,0,1-1.06-.21L52,146.43l2.24-5.72Zm-2.14,4.78a1.15,1.15,0,0,0,.55.09,0.79,0.79,0,0,0,.44-0.23,2.08,2.08,0,0,0,.4-0.58q0.19-.38.42-1t0.3-.87a2.18,2.18,0,0,0,.1-0.67,0.83,0.83,0,0,0-.16-0.49,1.12,1.12,0,0,0-.5-0.34L55.1,142l-1.57,4Z"/><path class="cls-7" d="M61.47,143.27l-0.14,6.37L60,149.25l0.09-1.33-1.63-.49-0.66,1.16-1.29-.39,3.38-5.4Zm-1.26,3.62,0.2-2.82h0L59,146.52Z"/><path class="cls-7" d="M65.22,146.73a1.54,1.54,0,0,1,.42-0.42,1.66,1.66,0,0,1,1.78,0,1.62,1.62,0,0,1,.44.41,1.54,1.54,0,0,1,.25.54,1.49,1.49,0,0,1-.2,1.18,1.54,1.54,0,0,1-.42.42,1.62,1.62,0,0,1-1.19.25,1.6,1.6,0,0,1-.59-0.22,1.63,1.63,0,0,1-.44-0.41,1.56,1.56,0,0,1-.25-0.54A1.49,1.49,0,0,1,65.22,146.73Z"/><path class="cls-7" d="M71.39,146.93a2.76,2.76,0,0,1,.35-1,1.61,1.61,0,0,1,.69-0.62,2.93,2.93,0,0,1,2.31.12,1.63,1.63,0,0,1,.62.69,2.76,2.76,0,0,1,.24,1,11.21,11.21,0,0,1,0,1.29,11.34,11.34,0,0,1-.14,1.28,2.8,2.8,0,0,1-.35,1,1.55,1.55,0,0,1-.69.61,2.54,2.54,0,0,1-1.17.16,2.5,2.5,0,0,1-1.14-.29,1.54,1.54,0,0,1-.62-0.68,2.76,2.76,0,0,1-.24-1A12.39,12.39,0,0,1,71.39,146.93Zm1.13,2.4a2.84,2.84,0,0,0,.09.71,0.78,0.78,0,0,0,.25.41,0.77,0.77,0,0,0,.45.15,0.69,0.69,0,0,0,.76-0.48,2.85,2.85,0,0,0,.16-0.7c0-.29.07-0.64,0.09-1.05s0-.76,0-1a2.86,2.86,0,0,0-.09-0.71,0.68,0.68,0,0,0-.7-0.56,0.68,0.68,0,0,0-.76.48,2.88,2.88,0,0,0-.16.7c0,0.29-.06.63-0.09,1S72.51,149,72.52,149.34Z"/><path class="cls-7" d="M79,146.46a0.73,0.73,0,0,0-1-.17,0.82,0.82,0,0,0-.24.41,3.3,3.3,0,0,0-.12.73q0,0.45,0,1.1a10.33,10.33,0,0,0,.06,1.13,2.4,2.4,0,0,0,.16.67,0.61,0.61,0,0,0,.26.32,0.77,0.77,0,0,0,.36.08,0.92,0.92,0,0,0,.32-0.06,0.53,0.53,0,0,0,.25-0.23,1.4,1.4,0,0,0,.17-0.47,4.13,4.13,0,0,0,.06-0.8H80.5a5.42,5.42,0,0,1-.07.95,2.11,2.11,0,0,1-.29.79,1.48,1.48,0,0,1-.61.53,2.42,2.42,0,0,1-1,.2,2.5,2.5,0,0,1-1.16-.21,1.54,1.54,0,0,1-.66-0.64,2.76,2.76,0,0,1-.3-1,12.39,12.39,0,0,1,0-2.58,2.75,2.75,0,0,1,.29-1,1.63,1.63,0,0,1,.65-0.67,2.41,2.41,0,0,1,1.15-.25,2.31,2.31,0,0,1,1.09.21,1.5,1.5,0,0,1,.6.54,1.85,1.85,0,0,1,.25.71,5.63,5.63,0,0,1,.06.72H79.14A2.16,2.16,0,0,0,79,146.46Z"/><path class="cls-7" d="M84.86,146.1l-1.39.09,0.32,5.11-1.29.08-0.32-5.12-1.39.09-0.06-1,4.07-.26Z"/><path class="cls-7" d="M85.36,146.83a2.78,2.78,0,0,1,.18-1,1.61,1.61,0,0,1,.58-0.73,2.92,2.92,0,0,1,2.29-.27,1.61,1.61,0,0,1,.73.58,2.76,2.76,0,0,1,.41,1,12.29,12.29,0,0,1,.3,2.56,2.76,2.76,0,0,1-.18,1,1.55,1.55,0,0,1-.58.72,3.1,3.1,0,0,1-2.29.27,1.55,1.55,0,0,1-.73-0.56,2.78,2.78,0,0,1-.41-1,11.23,11.23,0,0,1-.22-1.27A11.44,11.44,0,0,1,85.36,146.83ZM86.88,149a2.79,2.79,0,0,0,.21.69,0.68,0.68,0,0,0,.79.43,0.69,0.69,0,0,0,.66-0.6,2.78,2.78,0,0,0,0-.71q0-.44-0.09-1.05c0-.41-0.1-0.76-0.15-1a2.88,2.88,0,0,0-.21-0.69,0.76,0.76,0,0,0-1.45.17,2.87,2.87,0,0,0,0,.71c0,0.29,0,.64.09,1S86.83,148.72,86.88,149Z"/><path class="cls-7" d="M92.15,144.08a3.24,3.24,0,0,1,.73-0.05,1.53,1.53,0,0,1,.61.15,1.19,1.19,0,0,1,.45.41,1.81,1.81,0,0,1,.26.71,1.49,1.49,0,0,1-.09.88,1.22,1.22,0,0,1-.63.6v0a1.28,1.28,0,0,1,.91.28,1.48,1.48,0,0,1,.48.92,2.38,2.38,0,0,1,0,.69,1.39,1.39,0,0,1-.23.62,1.69,1.69,0,0,1-.54.49,2.64,2.64,0,0,1-.9.31l-2.14.38-1.07-6Zm-0.06,2.57a1.33,1.33,0,0,0,.74-0.32,0.73,0.73,0,0,0,.13-0.66,0.76,0.76,0,0,0-.33-0.57,1.13,1.13,0,0,0-.73-0.05l-0.46.08,0.28,1.58Zm0.6,2.64A1.3,1.3,0,0,0,93.4,149a0.83,0.83,0,0,0,.15-0.77,1.14,1.14,0,0,0-.15-0.42,0.71,0.71,0,0,0-.58-0.34,1.59,1.59,0,0,0-.4,0l-0.55.1,0.32,1.82Z"/><path class="cls-7" d="M98.51,143.76l-2.22.51,0.33,1.41,2.09-.48,0.23,1-2.09.48,0.37,1.61,2.31-.53,0.23,1-3.57.83-1.38-6,3.48-.81Z"/><path class="cls-7" d="M101.16,142a1.84,1.84,0,0,1,1.31,0,1.5,1.5,0,0,1,.76,1,1.8,1.8,0,0,1,0,1,1.2,1.2,0,0,1-.63.71v0a1.19,1.19,0,0,1,.76.09,1.25,1.25,0,0,1,.47.64l0.13,0.35,0.14,0.43q0.15,0.47.26,0.7a0.48,0.48,0,0,0,.32.27v0l-1.34.39a0.66,0.66,0,0,1-.2-0.25,3,3,0,0,1-.13-0.32L102.7,146a0.94,0.94,0,0,0-.34-0.49,0.71,0.71,0,0,0-.61,0l-0.66.19,0.72,2.5-1.24.35-1.69-5.9Zm0.21,2.73a1.09,1.09,0,0,0,.63-0.4,0.88,0.88,0,0,0,0-.75A0.77,0.77,0,0,0,101,143l-0.58.17,0.49,1.7Z"/><path class="cls-7" d="M107.31,141.89l-1.18.44-0.28-.76,0.11,0a1.91,1.91,0,0,0,.87-0.57,1.07,1.07,0,0,0,.18-0.87l0.89-.33,2.13,5.71-1.21.45Z"/><path class="cls-7" d="M112.56,143.4a0.56,0.56,0,0,0,.63,0,0.75,0.75,0,0,0,.31-0.22,0.54,0.54,0,0,0,.11-0.28,0.83,0.83,0,0,0,0-.33,3.14,3.14,0,0,0-.13-0.36,2.37,2.37,0,0,0-.18-0.35,0.93,0.93,0,0,0-.24-0.26,0.63,0.63,0,0,0-.32-0.11,0.91,0.91,0,0,0-.43.09l-0.39.17-0.32-.74,0.39-.17a0.67,0.67,0,0,0,.28-0.21,0.66,0.66,0,0,0,.12-0.29,1,1,0,0,0,0-.33,1.65,1.65,0,0,0-.11-0.35,1,1,0,0,0-.38-0.51,0.57,0.57,0,0,0-.5,0,0.68,0.68,0,0,0-.28.2,0.5,0.5,0,0,0-.1.27,0.88,0.88,0,0,0,0,.33,3.07,3.07,0,0,0,.14.37l-1.08.47a1.77,1.77,0,0,1-.1-1.43,2,2,0,0,1,1.1-1,2.12,2.12,0,0,1,1.39-.18,1.42,1.42,0,0,1,.91.9,1.49,1.49,0,0,1,.12.93,1.13,1.13,0,0,1-.48.69v0a1.2,1.2,0,0,1,1,.09,1.7,1.7,0,0,1,.61.78,2.65,2.65,0,0,1,.18.62,1.39,1.39,0,0,1-.05.67,1.62,1.62,0,0,1-.42.65,2.94,2.94,0,0,1-.92.57,1.82,1.82,0,0,1-1.46.1,1.91,1.91,0,0,1-1-1.08v0l1.13-.49A2,2,0,0,0,112.56,143.4Z"/><path class="cls-7" d="M118.71,138.29l0.43,0.86-4,2-0.43-.86Z"/><path class="cls-7" d="M119.15,136.51l-1.1.62-0.39-.71,0.1-.06a1.92,1.92,0,0,0,.77-0.7,1.06,1.06,0,0,0,0-.88l0.83-.46,3,5.31-1.12.63Z"/><path class="cls-7" d="M122.64,136.36a1.18,1.18,0,0,1,.4-0.87h0a1.16,1.16,0,0,1-.47.07,1.12,1.12,0,0,1-.39-0.1,1.08,1.08,0,0,1-.31-0.21,1.42,1.42,0,0,1-.22-0.27,1.54,1.54,0,0,1-.27-1.35,2.58,2.58,0,0,1,2.31-1.46,1.54,1.54,0,0,1,1.11.82,1.37,1.37,0,0,1,.14.32,1.18,1.18,0,0,1,.05.37,1.13,1.13,0,0,1-.08.4,1.16,1.16,0,0,1-.26.39h0a1.18,1.18,0,0,1,1,0,1.77,1.77,0,0,1,.76.69,2.82,2.82,0,0,1,.26.53,1.45,1.45,0,0,1,.08.65,1.58,1.58,0,0,1-.27.71,2.58,2.58,0,0,1-.8.72,2.61,2.61,0,0,1-1,.42,1.59,1.59,0,0,1-.76-0.06,1.44,1.44,0,0,1-.55-0.35,2.91,2.91,0,0,1-.37-0.46A1.78,1.78,0,0,1,122.64,136.36Zm0.51-1.62a0.61,0.61,0,0,0,.77-0.49,1,1,0,0,0-.2-0.64q-0.45-.7-1-0.37t-0.08,1A1,1,0,0,0,123.15,134.74Zm1.11,2.22a0.93,0.93,0,0,0,.28.22,0.63,0.63,0,0,0,.31.07,0.73,0.73,0,0,0,.35-0.12,0.7,0.7,0,0,0,.26-0.26,0.62,0.62,0,0,0,.07-0.31,0.94,0.94,0,0,0-.08-0.35,2.61,2.61,0,0,0-.19-0.36,2.52,2.52,0,0,0-.25-0.33,0.93,0.93,0,0,0-.28-0.22,0.62,0.62,0,0,0-.31-0.07,0.73,0.73,0,0,0-.35.12,0.74,0.74,0,0,0-.26.26,0.62,0.62,0,0,0-.07.31,0.94,0.94,0,0,0,.08.34,2.47,2.47,0,0,0,.19.37A2.69,2.69,0,0,0,124.26,137Z"/><path class="cls-7" d="M128.77,135.3a3.65,3.65,0,0,1,.31.53,1.35,1.35,0,0,1,.13.51,1.07,1.07,0,0,1-.1.49,1.44,1.44,0,0,1-.39.47l-0.34-.5a0.49,0.49,0,0,0,.15-0.4,0.86,0.86,0,0,0-.15-0.43l-0.06-.09-0.38.27-0.76-1.1,1-.67Z"/><path class="cls-7" d="M131.15,133.87a3.19,3.19,0,0,1-.41-0.64,2.68,2.68,0,0,1-.22-0.69,3.62,3.62,0,0,1,0-.76,6.67,6.67,0,0,1,.09-0.86l0.11-.69a2.82,2.82,0,0,0,.06-0.48,1.45,1.45,0,0,0,0-.37,1.16,1.16,0,0,0-.14-0.32,3.33,3.33,0,0,0-.24-0.34,0.62,0.62,0,0,0-1-.2,0.67,0.67,0,0,0-.24.31,0.62,0.62,0,0,0,0,.33,1.17,1.17,0,0,0,.16.36,4.4,4.4,0,0,0,.27.37l-1,.77-0.15-.18a1.73,1.73,0,0,1-.45-1.32,2.1,2.1,0,0,1,.88-1.29,2.06,2.06,0,0,1,1.39-.56,1.59,1.59,0,0,1,1.13.67,2.66,2.66,0,0,1,.3.46,2,2,0,0,1,.17.49,2.22,2.22,0,0,1,0,.54,4.38,4.38,0,0,1-.07.64l-0.16.94a2.53,2.53,0,0,0,0,.66,1.35,1.35,0,0,0,.09.45l1.86-1.49,0.6,0.75Z"/><path class="cls-7" d="M132,128a3.18,3.18,0,0,1-.52-0.93,1.66,1.66,0,0,1,0-.94,2,2,0,0,1,.64-0.94,2.51,2.51,0,0,1,.82-0.53,1.3,1.3,0,0,1,.79,0,2.39,2.39,0,0,1,.85.46,8.47,8.47,0,0,1,1,1c0.29,0.31.55,0.63,0.79,0.93a3.22,3.22,0,0,1,.52.93,1.58,1.58,0,0,1,0,.92,2,2,0,0,1-.64.94,2.72,2.72,0,0,1-.81.54,1.24,1.24,0,0,1-.79,0,2.42,2.42,0,0,1-.85-0.46,8.4,8.4,0,0,1-1-1Q132.33,128.45,132,128Zm2.58,0.94a2.23,2.23,0,0,0,.47.35,0.54,0.54,0,0,0,.35.07,0.67,0.67,0,0,0,.3-0.17,0.58,0.58,0,0,0,.19-0.31,0.65,0.65,0,0,0-.07-0.39,2.8,2.8,0,0,0-.35-0.54q-0.24-.31-0.64-0.75l-0.45-.49q-0.39-.43-0.66-0.67a2.16,2.16,0,0,0-.47-0.35,0.53,0.53,0,0,0-.35-0.07,0.66,0.66,0,0,0-.3.17,0.57,0.57,0,0,0-.19.31,0.65,0.65,0,0,0,.07.39,2.92,2.92,0,0,0,.35.54c0.16,0.21.37,0.46,0.64,0.75l0.45,0.49Q134.28,128.68,134.55,128.93Z"/><path class="cls-7" d="M135.93,123.92l-0.87.91-0.58-.56,0.08-.08a1.9,1.9,0,0,0,.54-0.89,1.07,1.07,0,0,0-.21-0.86l0.66-.68,4.39,4.22-0.89.93Z"/><path class="cls-7" d="M139.82,118.44a8,8,0,0,0,.43,1.27,11.42,11.42,0,0,0,.62,1.22,11.29,11.29,0,0,0,.76,1.14c0.28,0.36.56,0.7,0.86,1l-0.87,1a11.36,11.36,0,0,1-.75-0.91,9.84,9.84,0,0,1-.7-1.08,10.71,10.71,0,0,1-.6-1.25,9.13,9.13,0,0,1-.44-1.42l-1.71,2-0.82-.68,2.5-3Z"/><path class="cls-8" d="M134.27,82.14"/><path class="cls-8" d="M107.41,81.29"/><polygon class="cls-4" points="181.18 86.42 175.5 82.95 169.28 86.39 160.18 77.64 136.24 91.24 166.45 97.09 181.18 86.42"/><path class="cls-4" d="M189.48,97.74c0,6.92-5.44,12.88-12.09,13.33s-11.89-4.72-11.89-11.52a13.4,13.4,0,0,1,11.89-13.31c6.65-.56,12.09,4.59,12.09,11.5"/><path class="cls-4" d="M187.9,97.86a11.6,11.6,0,0,1-10.49,11.56,9.69,9.69,0,0,1-10.31-10,11.62,11.62,0,0,1,10.31-11.55,9.68,9.68,0,0,1,10.49,10"/><path class="cls-9" d="M187.9,97.86a11.6,11.6,0,0,1-10.49,11.56,9.69,9.69,0,0,1-10.31-10,11.62,11.62,0,0,1,10.31-11.55A9.68,9.68,0,0,1,187.9,97.86Z"/><path class="cls-10" d="M170.51,105.67l-0.11-.13h0l0.41-.57,0.07-.1-0.09,0-0.65.33-0.12-.14h0l0.3-.46,0.16-.22-0.11.06-0.6.33h0l-0.1-.12h0l1-.49,0.1,0.12h0l-0.46.69,0,0,0,0,0.73-.37,0.1,0.13h0Zm-0.06-.14,0.06,0.07,0.59-.86-0.06-.08-0.7.36-0.11.06,0,0,0.07-.1,0.45-.67-0.06-.07-0.9.46,0.06,0.07,0.58-.32,0.2-.11,0,0a2.91,2.91,0,0,0-.22.3l-0.3.45,0.08,0.1,0.62-.31,0.17-.09,0,0-0.13.17Z"/><path class="cls-10" d="M171.12,104.74l-0.61.89-0.08-.1,0.41-.57,0.13-.17-0.17.09-0.64.32-0.1-.12,0.3-.46a3,3,0,0,1,.23-0.3l-0.2.11-0.59.32-0.08-.1,0.94-.48,0.08,0.1-0.46.69-0.07.1,0.11-.06,0.72-.36Z"/><path class="cls-10" d="M169.61,104.11h-0.08a0.43,0.43,0,0,1-.3-0.23,0.5,0.5,0,0,1,0-.52,0.7,0.7,0,0,1,.21-0.2,0.62,0.62,0,0,1,.27-0.1h0a0.39,0.39,0,0,1,.2.05,0.47,0.47,0,0,1,.17.18,0.5,0.5,0,0,1,.06.27,0.5,0.5,0,0,1-.08.26,0.65,0.65,0,0,1-.19.19h0A0.62,0.62,0,0,1,169.61,104.11Zm0.17-1h0a0.58,0.58,0,0,0-.25.09,0.65,0.65,0,0,0-.2.19,0.47,0.47,0,0,0,0,.48,0.39,0.39,0,0,0,.27.21,0.52,0.52,0,0,0,.38-0.1h0a0.6,0.6,0,0,0,.18-0.18,0.46,0.46,0,0,0,.08-0.24,0.45,0.45,0,0,0-.06-0.25,0.43,0.43,0,0,0-.16-0.17A0.36,0.36,0,0,0,169.77,103.08Zm-0.17.9h-0.07a0.32,0.32,0,0,1-.21-0.16,0.36,0.36,0,0,1,0-.19,0.39,0.39,0,0,1,.07-0.19,0.6,0.6,0,0,1,.17-0.16,0.45,0.45,0,0,1,.32-0.08,0.31,0.31,0,0,1,.22.16,0.36,0.36,0,0,1,0,.28,0.48,0.48,0,0,1-.21.25h0A0.53,0.53,0,0,1,169.6,104Zm0.18-.77a0.45,0.45,0,0,0-.24.08,0.55,0.55,0,0,0-.16.15,0.33,0.33,0,0,0-.06.17,0.31,0.31,0,0,0,0,.17,0.28,0.28,0,0,0,.18.15,0.42,0.42,0,0,0,.31-0.09,0.42,0.42,0,0,0,.19-0.23,0.32,0.32,0,0,0,0-.25,0.26,0.26,0,0,0-.19-0.14h0Z"/><path class="cls-10" d="M169.92,104a0.54,0.54,0,0,1-.4.1,0.41,0.41,0,0,1-.28-0.22,0.48,0.48,0,0,1,0-.5,0.66,0.66,0,0,1,.2-0.2,0.6,0.6,0,0,1,.26-0.1,0.38,0.38,0,0,1,.24,0,0.45,0.45,0,0,1,.17.18,0.48,0.48,0,0,1,.06.26,0.49,0.49,0,0,1-.08.25,0.63,0.63,0,0,1-.19.19m-0.06-.12a0.45,0.45,0,0,0,.2-0.24,0.33,0.33,0,0,0,0-.27,0.29,0.29,0,0,0-.21-0.15,0.42,0.42,0,0,0-.3.08,0.56,0.56,0,0,0-.16.15,0.36,0.36,0,0,0-.06.18,0.33,0.33,0,0,0,0,.18,0.3,0.3,0,0,0,.2.15,0.43,0.43,0,0,0,.32-0.09"/><path class="cls-10" d="M168.8,103v0l-0.15-.41a0.62,0.62,0,0,1,0-.21,0.27,0.27,0,0,1,.05-0.16,0.32,0.32,0,0,1,.13-0.11,0.26,0.26,0,0,1,.2,0,0.29,0.29,0,0,1,.14.12v0a0.7,0.7,0,0,1,.09-0.16l0.21-.31,0.07,0.2-0.15.22-0.09.15a0.33,0.33,0,0,0,0,.09,0.2,0.2,0,0,0,0,.06,0.37,0.37,0,0,0,0,.07l0,0.12,0.41-.19v0l0.05,0.14h0Zm0.1-.89-0.1,0a0.28,0.28,0,0,0-.12.1,0.23,0.23,0,0,0,0,.13,0.57,0.57,0,0,0,0,.19l0.14,0.39,0.88-.4,0-.09-0.41.19v0l-0.05-.14a0.38,0.38,0,0,1,0-.08,0.23,0.23,0,0,1,0-.07,0.34,0.34,0,0,1,0-.1l0.1-.15,0.14-.2,0-.11-0.17.25a0.67,0.67,0,0,0-.08.15,0.35,0.35,0,0,0,0,.09v0.06l0-.06a0.3,0.3,0,0,0-.15-0.15h-0.07Zm0,0.72v0l-0.11-.3a0.27,0.27,0,0,1,0-.18,0.19,0.19,0,0,1,.1-0.11,0.16,0.16,0,0,1,.1,0,0.15,0.15,0,0,1,.09.05,0.41,0.41,0,0,1,.07.13l0.1,0.28Zm0-.59h-0.06a0.15,0.15,0,0,0-.08.09,0.24,0.24,0,0,0,0,.16l0.1,0.28,0.27-.12-0.09-.25a0.4,0.4,0,0,0-.06-0.12,0.11,0.11,0,0,0-.07,0h0Z"/><path class="cls-10" d="M169.74,102.52l-0.92.42-0.15-.41a0.59,0.59,0,0,1,0-.2,0.25,0.25,0,0,1,.05-0.14,0.31,0.31,0,0,1,.12-0.1,0.24,0.24,0,0,1,.19,0,0.31,0.31,0,0,1,.16.16,0.4,0.4,0,0,1,0-.1,0.76,0.76,0,0,1,.09-0.16l0.19-.28,0.06,0.16-0.15.21-0.09.15a0.34,0.34,0,0,0,0,.09,0.21,0.21,0,0,0,0,.07l0,0.07,0.05,0.14,0.41-.19Zm-0.56.11-0.1-.27a0.4,0.4,0,0,0-.07-0.12,0.13,0.13,0,0,0-.08,0h-0.09a0.17,0.17,0,0,0-.09.1,0.25,0.25,0,0,0,0,.17l0.11,0.3Z"/><path class="cls-10" d="M168.39,101.68l0-.17h0l0.83-.25-0.1-.48,0.15,0v0l0.14,0.63h0Zm0-.14,0,0.09,0.92-.28-0.12-.58-0.07,0,0.1,0.48h0Z"/><polygon class="cls-10" points="169.36 101.36 168.4 101.65 168.37 101.52 169.22 101.27 169.11 100.78 169.22 100.75 169.36 101.36"/><path class="cls-10" d="M168.17,100.55l0-.37a0.94,0.94,0,0,1,0-.19,0.41,0.41,0,0,1,.06-0.17,0.48,0.48,0,0,1,.16-0.15,0.71,0.71,0,0,1,.23-0.08h0.21l0.15,0a0.35,0.35,0,0,1,.1.08,0.37,0.37,0,0,1,.06.12,0.78,0.78,0,0,1,0,.16l0,0.38h0Zm0.56-.93h-0.12a0.65,0.65,0,0,0-.22.07,0.43,0.43,0,0,0-.15.14,0.36,0.36,0,0,0-.06.15,0.93,0.93,0,0,0,0,.18l0,0.33,0.94-.15,0-.35a0.65,0.65,0,0,0,0-.15,0.34,0.34,0,0,0-.05-0.11l-0.09-.07-0.14,0h-0.07Zm-0.45.78,0-.23a0.59,0.59,0,0,1,0-.18,0.31,0.31,0,0,1,.11-0.15,0.5,0.5,0,0,1,.24-0.1,0.59,0.59,0,0,1,.2,0,0.3,0.3,0,0,1,.14.06,0.23,0.23,0,0,1,.06.09,0.53,0.53,0,0,1,0,.16l0,0.23h0Zm0.45-.64h-0.11a0.46,0.46,0,0,0-.22.09,0.27,0.27,0,0,0-.09.13,0.54,0.54,0,0,0,0,.17l0,0.19,0.71-.11,0-.2a0.48,0.48,0,0,0,0-.15,0.2,0.2,0,0,0-.05-0.07,0.26,0.26,0,0,0-.12,0h-0.07Z"/><path class="cls-10" d="M169.17,100.37l-1,.16,0-.35a0.88,0.88,0,0,1,0-.18,0.38,0.38,0,0,1,.06-0.16,0.45,0.45,0,0,1,.16-0.15,0.67,0.67,0,0,1,.23-0.08,0.65,0.65,0,0,1,.2,0l0.15,0a0.33,0.33,0,0,1,.1.08,0.35,0.35,0,0,1,.06.11,0.69,0.69,0,0,1,0,.16Zm-0.13-.12,0-.22a0.52,0.52,0,0,0,0-.15,0.21,0.21,0,0,0-.06-0.08,0.28,0.28,0,0,0-.13-0.05,0.59,0.59,0,0,0-.19,0,0.48,0.48,0,0,0-.23.09,0.29,0.29,0,0,0-.1.14,0.55,0.55,0,0,0,0,.18l0,0.21Z"/><path class="cls-10" d="M168.68,98.51h0a0.56,0.56,0,0,1-.27-0.08,0.38,0.38,0,0,1-.17-0.2,0.57,0.57,0,0,1,0-.28,0.59,0.59,0,0,1,.06-0.2,0.38,0.38,0,0,1,.12-0.14,0.47,0.47,0,0,1,.18-0.07h0l0,0.16h0l-0.12,0a0.24,0.24,0,0,0-.07.09,0.37,0.37,0,0,0,0,.13,0.4,0.4,0,0,0,0,.15,0.25,0.25,0,0,0,.05.11l0.08,0.07a0.46,0.46,0,0,0,.18.05h0a0.42,0.42,0,0,0,.17,0,0.3,0.3,0,0,0,.14-0.12,0.43,0.43,0,0,0,.06-0.18,0.44,0.44,0,0,0,0-.17,0.42,0.42,0,0,0,0-.12h-0.15l0,0.3h-0.15v0l0.06-.45,0.39,0h0a0.71,0.71,0,0,1,.09.22,0.66,0.66,0,0,1,0,.23,0.67,0.67,0,0,1-.1.28,0.48,0.48,0,0,1-.21.18A0.57,0.57,0,0,1,168.68,98.51Zm-0.16-.94a0.41,0.41,0,0,0-.14.06,0.35,0.35,0,0,0-.11.13,0.56,0.56,0,0,0-.06.19,0.55,0.55,0,0,0,0,.26,0.35,0.35,0,0,0,.15.18,0.53,0.53,0,0,0,.25.08,0.57,0.57,0,0,0,.26,0,0.44,0.44,0,0,0,.19-0.17,0.64,0.64,0,0,0,.09-0.47,0.69,0.69,0,0,0-.08-0.2l-0.33,0-0.05.39h0.07l0-.3H169a0.46,0.46,0,0,1,.05.14,0.5,0.5,0,0,1-.06.38,0.33,0.33,0,0,1-.16.14,0.54,0.54,0,0,1-.43,0l-0.09-.08a0.29,0.29,0,0,1-.06-0.12,0.44,0.44,0,0,1,0-.17,0.43,0.43,0,0,1,0-.15,0.28,0.28,0,0,1,.09-0.1l0.11,0V97.57Z"/><path class="cls-10" d="M168.81,98h-0.11l0.06-.43,0.36,0a0.73,0.73,0,0,1,.09.21,0.66,0.66,0,0,1-.09.49,0.46,0.46,0,0,1-.2.17,0.58,0.58,0,0,1-.52,0,0.37,0.37,0,0,1-.16-0.19,0.57,0.57,0,0,1,0-.27,0.59,0.59,0,0,1,.06-0.2,0.37,0.37,0,0,1,.11-0.13,0.45,0.45,0,0,1,.17-0.07l0,0.12-0.12,0a0.26,0.26,0,0,0-.08.09,0.39,0.39,0,0,0,0,.14,0.43,0.43,0,0,0,0,.16,0.28,0.28,0,0,0,.06.11l0.09,0.07a0.52,0.52,0,0,0,.41,0,0.32,0.32,0,0,0,.15-0.13,0.47,0.47,0,0,0,.06-0.36A0.42,0.42,0,0,0,169,97.7h-0.18Z"/><path class="cls-10" d="M169.32,97.29l0,0-0.85-.61h0l0-.15h0l1.08-.2-0.05.19-0.32.05-0.11.39,0.25,0.17h0Zm-0.82-.64,0.8,0.57,0-.1L169.07,97h0l0.12-.43,0.32-.05,0-.11-1,.19ZM169,96.92l-0.27-.19-0.16-.09v0l0.21,0,0.32-.05v0Zm-0.35-.29,0.11,0.07L169,96.85l0.08-.28-0.26,0Z"/><path class="cls-10" d="M169.31,97.26l-0.83-.6,0-.14,1.05-.2,0,0.15-0.32.05-0.11.42,0.25,0.17ZM169,96.89l0.09-.34-0.29,0-0.21,0,0.16,0.09Z"/><path class="cls-10" d="M169.48,96l-0.11,0h0l0.05-.16h0a0.2,0.2,0,0,0,.22-0.06,0.43,0.43,0,0,0,.08-0.13,0.39,0.39,0,0,0,0-.13,0.17,0.17,0,0,0,0-.09,0.11,0.11,0,0,0-.06,0h-0.07a0.21,0.21,0,0,0-.08.06l-0.11.15a1.06,1.06,0,0,1-.14.17,0.3,0.3,0,0,1-.14.07,0.23,0.23,0,0,1-.14,0,0.24,0.24,0,0,1-.12-0.1,0.29,0.29,0,0,1,0-.17,0.55,0.55,0,0,1,0-.2,0.57,0.57,0,0,1,.11-0.18,0.32,0.32,0,0,1,.16-0.09,0.29,0.29,0,0,1,.17,0h0v0l0,0.14h0a0.18,0.18,0,0,0-.14,0,0.38,0.38,0,0,0-.13.31,0.1,0.1,0,0,0,.06.08,0.09,0.09,0,0,0,.08,0,0.55,0.55,0,0,0,.14-0.16,1.55,1.55,0,0,1,.15-0.19,0.35,0.35,0,0,1,.15-0.09,0.24,0.24,0,0,1,.16,0,0.26,0.26,0,0,1,.13.1,0.32,0.32,0,0,1,0,.18,0.55,0.55,0,0,1,0,.21,0.69,0.69,0,0,1-.13.21,0.36,0.36,0,0,1-.17.1h-0.08Zm-0.08-.05a0.29,0.29,0,0,0,.15,0,0.32,0.32,0,0,0,.16-0.09,0.64,0.64,0,0,0,.12-0.2,0.51,0.51,0,0,0,0-.19,0.28,0.28,0,0,0,0-.15,0.22,0.22,0,0,0-.11-0.09,0.21,0.21,0,0,0-.13,0,0.3,0.3,0,0,0-.13.08,1.43,1.43,0,0,0-.14.19,0.59,0.59,0,0,1-.15.17,0.13,0.13,0,0,1-.11,0,0.14,0.14,0,0,1-.08-0.1,0.41,0.41,0,0,1,.15-0.36,0.21,0.21,0,0,1,.15,0l0-.09a0.25,0.25,0,0,0-.13,0,0.29,0.29,0,0,0-.14.08,0.56,0.56,0,0,0-.11.17,0.51,0.51,0,0,0,0,.18,0.25,0.25,0,0,0,0,.14,0.2,0.2,0,0,0,.1.08,0.19,0.19,0,0,0,.11,0,0.26,0.26,0,0,0,.12-0.07,1.06,1.06,0,0,0,.13-0.16l0.12-.16a0.25,0.25,0,0,1,.1-0.07,0.15,0.15,0,0,1,.1,0,0.15,0.15,0,0,1,.07.07,0.22,0.22,0,0,1,0,.12,0.42,0.42,0,0,1,0,.14,0.47,0.47,0,0,1-.09.14,0.26,0.26,0,0,1-.12.08h-0.12Z"/><path class="cls-10" d="M169.38,95.93l0-.12a0.26,0.26,0,0,0,.13,0,0.24,0.24,0,0,0,.11-0.07,0.44,0.44,0,0,0,.09-0.14,0.41,0.41,0,0,0,0-.14,0.19,0.19,0,0,0,0-.1,0.13,0.13,0,0,0-.07-0.06,0.12,0.12,0,0,0-.08,0,0.22,0.22,0,0,0-.09.07l-0.12.15a1,1,0,0,1-.13.16,0.28,0.28,0,0,1-.13.07,0.21,0.21,0,0,1-.13,0,0.22,0.22,0,0,1-.11-0.09,0.27,0.27,0,0,1,0-.16,0.53,0.53,0,0,1,0-.19,0.57,0.57,0,0,1,.11-0.18,0.3,0.3,0,0,1,.15-0.09,0.28,0.28,0,0,1,.16,0l0,0.13a0.2,0.2,0,0,0-.16,0,0.4,0.4,0,0,0-.14.34,0.12,0.12,0,0,0,.07.09,0.11,0.11,0,0,0,.09,0,0.59,0.59,0,0,0,.14-0.17,1.5,1.5,0,0,1,.15-0.19,0.32,0.32,0,0,1,.14-0.09,0.23,0.23,0,0,1,.14,0,0.24,0.24,0,0,1,.12.1,0.3,0.3,0,0,1,0,.17,0.52,0.52,0,0,1,0,.2,0.65,0.65,0,0,1-.13.21,0.34,0.34,0,0,1-.16.1,0.31,0.31,0,0,1-.18,0"/><path class="cls-10" d="M170.31,94.69h0l-0.72-.41-0.17.3-0.13-.08v0l0.42-.74,0.13,0.07v0l-0.16.28,0.74,0.42v0Zm-0.75-.47h0l0.72,0.41,0-.09-0.74-.42v0l0.16-.28-0.06,0-0.39.69,0.06,0Z"/><polygon class="cls-10" points="170.31 94.67 169.57 94.25 169.4 94.55 169.3 94.49 169.71 93.77 169.81 93.83 169.64 94.13 170.37 94.55 170.31 94.67"/><path class="cls-10" d="M170.75,94h0l-0.77-.6v0l0.28-.37a0.67,0.67,0,0,1,.15-0.16,0.24,0.24,0,0,1,.14,0h0a0.27,0.27,0,0,1,.15.06,0.26,0.26,0,0,1,.1.18,0.37,0.37,0,0,1,0,.19H171l0.35,0-0.13.18H170.8l-0.09,0-0.05,0,0,0.06-0.08.11,0.34,0.26ZM170,93.33l0.73,0.57,0.06-.08-0.34-.26,0.11-.14,0.05-.06,0.06,0,0.1,0h0.4l0.08-.1h-0.44l-0.08,0-0.06,0,0-.06a0.37,0.37,0,0,0,.06-0.22,0.21,0.21,0,0,0-.09-0.15,0.23,0.23,0,0,0-.13-0.05h0a0.2,0.2,0,0,0-.11,0,0.64,0.64,0,0,0-.14.15Zm0.39,0.18-0.28-.22,0.21-.28a0.28,0.28,0,0,1,.15-0.12,0.15,0.15,0,0,1,.14,0,0.18,0.18,0,0,1,.06.09,0.19,0.19,0,0,1,0,.11,0.54,0.54,0,0,1-.08.14Zm-0.23-.23,0.22,0.17,0.17-.22a0.5,0.5,0,0,0,.07-0.12,0.15,0.15,0,0,0,0-.09,0.13,0.13,0,0,0,0-.07,0.11,0.11,0,0,0-.1,0,0.24,0.24,0,0,0-.13.1Z"/><path class="cls-10" d="M170.75,93.93L170,93.34l0.28-.37a0.66,0.66,0,0,1,.15-0.15,0.22,0.22,0,0,1,.14,0,0.25,0.25,0,0,1,.14.05,0.23,0.23,0,0,1,.09.16,0.39,0.39,0,0,1-.06.23l0.09,0H171l0.32,0-0.1.14h-0.4l-0.09,0-0.06,0,0,0.06-0.1.13,0.34,0.26Zm-0.34-.44,0.18-.24a0.49,0.49,0,0,0,.07-0.13,0.16,0.16,0,0,0,0-.1,0.15,0.15,0,0,0-.05-0.08,0.13,0.13,0,0,0-.12,0,0.26,0.26,0,0,0-.14.11l-0.2.27Z"/><path class="cls-10" d="M171.54,92.77l-0.14,0a0.51,0.51,0,0,1-.21-0.14h0a0.54,0.54,0,0,1-.16-0.39,0.58,0.58,0,0,1,.4-0.51,0.42,0.42,0,0,1,.26,0,0.55,0.55,0,0,1,.23.15,0.57,0.57,0,0,1,.14.25,0.48,0.48,0,0,1,0,.27,0.59,0.59,0,0,1-.14.23,0.53,0.53,0,0,1-.24.14Zm-0.33-.19a0.48,0.48,0,0,0,.2.13,0.39,0.39,0,0,0,.23,0,0.49,0.49,0,0,0,.22-0.13,0.55,0.55,0,0,0,.13-0.22,0.43,0.43,0,0,0,0-.25,0.54,0.54,0,0,0-.13-0.23,0.51,0.51,0,0,0-.21-0.14,0.38,0.38,0,0,0-.23,0,0.5,0.5,0,0,0-.22.13,0.49,0.49,0,0,0-.16.34,0.51,0.51,0,0,0,.15.36h0Zm0.35,0.06h0a0.37,0.37,0,0,1-.27-0.14,0.44,0.44,0,0,1-.14-0.32,0.41,0.41,0,0,1,.12-0.26,0.37,0.37,0,0,1,.17-0.1,0.32,0.32,0,0,1,.19,0,0.46,0.46,0,0,1,.18.13,0.43,0.43,0,0,1,.13.3,0.38,0.38,0,0,1-.12.27A0.36,0.36,0,0,1,171.56,92.65Zm0-.79h-0.07a0.32,0.32,0,0,0-.15.09,0.36,0.36,0,0,0-.11.24,0.4,0.4,0,0,0,.13.29h0a0.33,0.33,0,0,0,.24.12h0a0.31,0.31,0,0,0,.23-0.1,0.34,0.34,0,0,0,.11-0.24,0.39,0.39,0,0,0-.12-0.27,0.44,0.44,0,0,0-.16-0.12Z"/><path class="cls-10" d="M171.2,92.6a0.52,0.52,0,0,1-.16-0.38,0.56,0.56,0,0,1,.39-0.49,0.4,0.4,0,0,1,.25,0,0.53,0.53,0,0,1,.22.15,0.55,0.55,0,0,1,.13.24,0.45,0.45,0,0,1,0,.26,0.57,0.57,0,0,1-.14.22,0.5,0.5,0,0,1-.23.14,0.41,0.41,0,0,1-.25,0,0.5,0.5,0,0,1-.21-0.14m0.1-.1a0.35,0.35,0,0,0,.26.13,0.33,0.33,0,0,0,.25-0.11,0.36,0.36,0,0,0,.11-0.26,0.41,0.41,0,0,0-.12-0.28,0.45,0.45,0,0,0-.17-0.12,0.29,0.29,0,0,0-.18,0,0.35,0.35,0,0,0-.16.1,0.38,0.38,0,0,0-.11.25,0.42,0.42,0,0,0,.14.3"/><path class="cls-10" d="M172.53,92L172,91.15h0l0.61-.47,0.09,0.13h0l-0.47.36,0.15,0.22,0.45-.35,0.08,0.13h0l-0.44.34,0.16,0.24,0.51-.39,0.09,0.13h0ZM172,91.16l0.52,0.78,0.58-.45,0-.06-0.51.39-0.21-.31h0l0.44-.34,0-.06-0.45.35-0.19-.28h0l0.47-.36,0-.06Z"/><polygon class="cls-10" points="172.54 91.97 171.99 91.16 172.59 90.7 172.65 90.8 172.17 91.17 172.33 91.42 172.79 91.07 172.85 91.16 172.4 91.51 172.58 91.79 173.09 91.4 173.15 91.5 172.54 91.97"/><path class="cls-10" d="M173.49,91.29v0l-0.43-.91,0.15-.08h0l0.75,0.4L173.64,90l0.15-.08v0l0.43,0.91-0.15.08h0l-0.75-.4,0.31,0.66Zm-0.39-.91,0.41,0.86,0.08,0-0.35-.74,0.05,0,0.79,0.43,0.1-.05-0.4-.86-0.08,0L174,90.78l-0.84-.45Z"/><polygon class="cls-10" points="173.5 91.26 173.08 90.37 173.2 90.3 174 90.73 173.66 90.03 173.78 89.97 174.2 90.86 174.08 90.93 173.28 90.5 173.61 91.2 173.5 91.26"/><path class="cls-10" d="M174.84,90.59v0l-0.25-.82-0.31.13,0-.15h0l0.77-.31,0,0.15h0l-0.3.12L175,90.53Zm-0.24-.89v0l0.25,0.82,0.09,0-0.26-.84h0l0.3-.12,0-.07-0.71.29,0,0.07Z"/><polygon class="cls-10" points="174.85 90.57 174.59 89.72 174.28 89.85 174.25 89.74 175 89.43 175.03 89.55 174.72 89.67 174.98 90.52 174.85 90.57"/><path class="cls-10" d="M175.63,90.3v0l-0.17-1,0.74-.19,0,0.16-0.58.15,0,0.27,0.54-.14,0,0.16-0.54.14,0.05,0.3,0.6-.16,0,0.16Zm-0.13-1,0.16,1,0.69-.18V90l-0.6.16v0l-0.06-.36,0.54-.14V89.55l-0.54.14v0l-0.06-.32,0.58-.15V89.12Z"/><polygon class="cls-10" points="175.64 90.27 175.47 89.28 176.18 89.09 176.2 89.21 175.62 89.36 175.67 89.67 176.21 89.52 176.23 89.64 175.69 89.78 175.75 90.12 176.35 89.97 176.37 90.08 175.64 90.27"/><path class="cls-10" d="M176.76,90v0l0-1,0.46-.05a0.59,0.59,0,0,1,.21,0,0.22,0.22,0,0,1,.12.09,0.3,0.3,0,0,1,0,.16,0.31,0.31,0,0,1-.07.2,0.37,0.37,0,0,1-.17.11l0,0a0.67,0.67,0,0,1,.12.13l0.2,0.29-0.21,0h0l-0.14-.2-0.1-.13-0.06-.06-0.05,0H177l-0.14,0V90Zm0-1,0,1h0.09V89.52l0.17,0h0.08l0.07,0,0.07,0.07,0.1,0.13,0.13,0.19h0.12l-0.16-.23a0.66,0.66,0,0,0-.11-0.12l-0.07,0-0.06,0,0.06,0a0.37,0.37,0,0,0,.2-0.11,0.27,0.27,0,0,0,.06-0.18,0.26,0.26,0,0,0,0-.14,0.18,0.18,0,0,0-.1-0.08,0.54,0.54,0,0,0-.19,0Zm0.1,0.44V89.06l0.33,0a0.24,0.24,0,0,1,.18,0,0.16,0.16,0,0,1,.06.13,0.21,0.21,0,0,1,0,.1,0.19,0.19,0,0,1-.08.08l-0.15,0Zm0-.34v0.3l0.26,0,0.13,0a0.15,0.15,0,0,0,.07-0.06,0.16,0.16,0,0,0,0-.08,0.12,0.12,0,0,0,0-.1,0.2,0.2,0,0,0-.15,0Z"/><path class="cls-10" d="M176.77,90l0-1,0.44-.05a0.56,0.56,0,0,1,.2,0,0.2,0.2,0,0,1,.11.09,0.28,0.28,0,0,1,0,.15,0.28,0.28,0,0,1-.06.19,0.38,0.38,0,0,1-.21.12l0.08,0a0.63,0.63,0,0,1,.11.12l0.18,0.26-0.17,0-0.14-.2-0.1-.13-0.07-.06-0.06,0H177l-0.15,0V90h-0.13Zm0.11-.59,0.28,0,0.14,0a0.17,0.17,0,0,0,.08-0.07,0.18,0.18,0,0,0,0-.09,0.14,0.14,0,0,0-.05-0.11,0.22,0.22,0,0,0-.16,0l-0.31,0v0.34Z"/><path class="cls-10" d="M178.45,90h0a0.44,0.44,0,0,1-.25-0.08,0.42,0.42,0,0,1-.15-0.21,0.6,0.6,0,0,1,0-.27h0a0.64,0.64,0,0,1,.19-0.41,0.49,0.49,0,0,1,.35-0.14h0a0.45,0.45,0,0,1,.25.08,0.42,0.42,0,0,1,.15.21,0.64,0.64,0,0,1,0,.29,0.68,0.68,0,0,1-.1.29,0.49,0.49,0,0,1-.2.19A0.53,0.53,0,0,1,178.45,90Zm0.08-1.07a0.46,0.46,0,0,0-.32.13,0.6,0.6,0,0,0-.17.38h0a0.57,0.57,0,0,0,0,.25,0.38,0.38,0,0,0,.14.19,0.4,0.4,0,0,0,.23.08,0.49,0.49,0,0,0,.24-0.05,0.45,0.45,0,0,0,.19-0.17,0.63,0.63,0,0,0,.09-0.27,0.6,0.6,0,0,0,0-.27,0.37,0.37,0,0,0-.14-0.19,0.42,0.42,0,0,0-.23-0.08h0Zm-0.07,1h0a0.3,0.3,0,0,1-.24-0.13,0.42,0.42,0,0,1-.07-0.31h0a0.51,0.51,0,0,1,.15-0.34,0.37,0.37,0,0,1,.25-0.09h0a0.32,0.32,0,0,1,.18.06,0.32,0.32,0,0,1,.11.16,0.58,0.58,0,0,1,0,.23,0.51,0.51,0,0,1-.14.31A0.35,0.35,0,0,1,178.46,89.84Zm0.07-.83a0.34,0.34,0,0,0-.22.08,0.48,0.48,0,0,0-.13.32h0a0.38,0.38,0,0,0,.06.28,0.26,0.26,0,0,0,.21.11h0a0.31,0.31,0,0,0,.22-0.09,0.47,0.47,0,0,0,.13-0.29,0.51,0.51,0,0,0,0-.21,0.27,0.27,0,0,0-.09-0.14,0.28,0.28,0,0,0-.16-0.06h0Z"/><path class="cls-10" d="M178,89.4a0.62,0.62,0,0,1,.18-0.4,0.47,0.47,0,0,1,.36-0.13,0.43,0.43,0,0,1,.24.08,0.4,0.4,0,0,1,.15.2,0.62,0.62,0,0,1,0,.28,0.67,0.67,0,0,1-.09.28,0.47,0.47,0,0,1-.19.18,0.5,0.5,0,0,1-.25.05,0.43,0.43,0,0,1-.24-0.08,0.4,0.4,0,0,1-.14-0.2,0.58,0.58,0,0,1,0-.26m0.13,0a0.4,0.4,0,0,0,.06.3,0.29,0.29,0,0,0,.23.12,0.33,0.33,0,0,0,.26-0.1,0.48,0.48,0,0,0,.13-0.3,0.54,0.54,0,0,0,0-.22,0.29,0.29,0,0,0-.27-0.21,0.35,0.35,0,0,0-.25.09,0.49,0.49,0,0,0-.14.33"/><path class="cls-10" d="M179.9,90.13h0L179.26,90,179.52,89l0.17,0-0.22.9L179.94,90ZM179.3,90l0.56,0.11,0-.08-0.47-.09,0.22-.9-0.09,0Z"/><polygon class="cls-10" points="179.28 90 179.53 88.98 179.66 89 179.44 89.9 179.91 89.99 179.88 90.11 179.28 90"/><path class="cls-10" d="M181.26,89.47a0.45,0.45,0,0,0-.21-0.15,0.47,0.47,0,0,0-.39,0,0.72,0.72,0,0,0-.33.62,0.45,0.45,0,0,0,.09.25,0.44,0.44,0,0,0,.22.15l0.16,0h0.1a0.47,0.47,0,0,0,.24-0.13A0.69,0.69,0,0,0,181.3,90a0.69,0.69,0,0,0,.05-0.29A0.44,0.44,0,0,0,181.26,89.47Zm-0.08.26a0.54,0.54,0,0,1,0,.22,0.48,0.48,0,0,1-.2.25,0.29,0.29,0,0,1-.25,0,0.27,0.27,0,0,1-.17-0.17,0.42,0.42,0,0,1,0-.3,0.48,0.48,0,0,1,.21-0.27,0.31,0.31,0,0,1,.25,0,0.28,0.28,0,0,1,.14.1A0.29,0.29,0,0,1,181.18,89.74Z"/><path class="cls-10" d="M182.53,90a0.49,0.49,0,0,0-.16-0.13,0.53,0.53,0,0,0-.26-0.07h0a0.44,0.44,0,0,0-.26.09,0.72,0.72,0,0,0-.2.23,0.67,0.67,0,0,0-.09.28,0.44,0.44,0,0,0,.06.27,0.53,0.53,0,0,0,.2.19A0.55,0.55,0,0,0,182,91h0.08l0.16,0h0l0.2-.35v0l-0.4-.22-0.08.14,0.25,0.14-0.08.15h-0.13a0.39,0.39,0,0,1-.15,0,0.36,0.36,0,0,1-.13-0.12,0.27,0.27,0,0,1,0-.17,0.52,0.52,0,0,1,.07-0.22,0.58,0.58,0,0,1,.13-0.16L182,90l0.12,0a0.36,0.36,0,0,1,.14,0,0.3,0.3,0,0,1,.1.08,0.2,0.2,0,0,1,0,.1,0.37,0.37,0,0,1,0,.13v0l0.16,0v0a0.51,0.51,0,0,0,0-.19A0.35,0.35,0,0,0,182.53,90Z"/><path class="cls-10" d="M183.69,90.84l-0.35.14-0.16.07c0-.05,0-0.11,0-0.17l0-.37h0l-0.16-.13-0.08.75-0.28.37,0.13,0.1,0.28-.37,0.67-.24h0Z"/><path class="cls-10" d="M184.9,92.06a0.43,0.43,0,0,0-.34-0.17h0a0.61,0.61,0,0,0-.39.17,0.7,0.7,0,0,0-.17.22,0.51,0.51,0,0,0,0,.27,0.48,0.48,0,0,0,.1.25,0.47,0.47,0,0,0,.21.15l0.14,0,0.12,0a0.67,0.67,0,0,0,.26-0.15,0.75,0.75,0,0,0,.18-0.24,0.51,0.51,0,0,0,0-.27A0.49,0.49,0,0,0,184.9,92.06Zm-0.06.27a0.33,0.33,0,0,1,0,.18,0.58,0.58,0,0,1-.14.17,0.44,0.44,0,0,1-.28.13h0a0.27,0.27,0,0,1-.22-0.11,0.3,0.3,0,0,1-.06-0.25,0.45,0.45,0,0,1,.16-0.26,0.46,0.46,0,0,1,.29-0.14h0A0.3,0.3,0,0,1,184.85,92.32Z"/><path class="cls-10" d="M185.7,93.27l-0.22-.38v0l-0.9.59h0l0.08,0.15,0.39-.25,0.06,0.11,0,0.06a0.2,0.2,0,0,1,0,.06,0.3,0.3,0,0,1,0,.09l-0.07.16-0.12.23h0l0.1,0.19,0.17-.34a0.78,0.78,0,0,0,.07-0.18,0.28,0.28,0,0,0,0,0,0.3,0.3,0,0,0,.16.1,0.27,0.27,0,0,0,.21,0,0.34,0.34,0,0,0,.12-0.13,0.27,0.27,0,0,0,0-.16A0.61,0.61,0,0,0,185.7,93.27Zm-0.24.37h0a0.12,0.12,0,0,1-.08,0,0.37,0.37,0,0,1-.08-0.11l-0.13-.23,0.26-.17,0.14,0.26a0.23,0.23,0,0,1,0,.15,0.15,0.15,0,0,1-.07.1Z"/><path class="cls-10" d="M186.3,94.55a0.53,0.53,0,0,0-.16-0.23,0.39,0.39,0,0,0-.25-0.09h0a0.66,0.66,0,0,0-.28.06,0.67,0.67,0,0,0-.24.18,0.51,0.51,0,0,0-.11.26,0.61,0.61,0,0,0,0,.29,0.58,0.58,0,0,0,.12.19,0.7,0.7,0,0,0,.19.14h0l0.36-.17h0l-0.16-.42v0l-0.15.07,0.1,0.28-0.15.07-0.1-.08a0.41,0.41,0,0,1-.11-0.32,0.31,0.31,0,0,1,.07-0.17,0.54,0.54,0,0,1,.19-0.14,0.53,0.53,0,0,1,.2,0h0l0.1,0a0.26,0.26,0,0,1,.1.06,0.36,0.36,0,0,1,.08.13,0.35,0.35,0,0,1,0,.13,0.24,0.24,0,0,1,0,.11,0.4,0.4,0,0,1-.09.1h0l0.1,0.13h0a0.53,0.53,0,0,0,.13-0.15,0.39,0.39,0,0,0,0-.18A0.55,0.55,0,0,0,186.3,94.55Z"/><path class="cls-10" d="M186.65,95.78h0l-1.08-.09h0l0,0.18,0.32,0L186,96.27l-0.27.2,0,0.19,0.92-.72h0Zm-0.18.13-0.13.09-0.23.17-0.06-.28,0.29,0h0.13Z"/><polygon class="cls-10" points="186.87 97.47 186.12 97.58 186.83 96.97 186.83 96.97 186.82 96.8 185.8 96.94 185.78 96.95 185.79 97.12 186.53 97.01 185.83 97.62 185.82 97.63 185.83 97.8 186.86 97.65 186.88 97.64 186.87 97.47"/><polygon class="cls-10" points="185.84 98.24 185.82 98.24 185.81 98.42 186.84 98.39 186.86 98.39 186.87 98.21 185.84 98.24"/><path class="cls-10" d="M186.78,99.11a0.27,0.27,0,0,0-.09-0.15,0.24,0.24,0,0,0-.15-0.06,0.25,0.25,0,0,0-.14,0,0.33,0.33,0,0,0-.12.11,1.09,1.09,0,0,0-.09.2l-0.07.18a0.21,0.21,0,0,1-.07.08l-0.07,0-0.07,0a0.16,0.16,0,0,1,0-.08,0.4,0.4,0,0,1,0-.13,0.41,0.41,0,0,1,.05-0.15A0.24,0.24,0,0,1,186,99a0.27,0.27,0,0,1,.12,0h0V98.83h0a0.36,0.36,0,0,0-.18,0,0.38,0.38,0,0,0-.15.15,0.67,0.67,0,0,0-.07.24,0.5,0.5,0,0,0,0,.21,0.3,0.3,0,0,0,.1.15,0.27,0.27,0,0,0,.15.06h0a0.27,0.27,0,0,0,.14,0,0.35,0.35,0,0,0,.13-0.13,1.39,1.39,0,0,0,.1-0.23,0.58,0.58,0,0,1,.1-0.19,0.1,0.1,0,0,1,.07,0h0a0.1,0.1,0,0,1,.08.06,0.28,0.28,0,0,1,0,.17,0.29,0.29,0,0,1-.07.17,0.2,0.2,0,0,1-.14.06h0v0.17h0a0.33,0.33,0,0,0,.16,0,0.35,0.35,0,0,0,.13-0.13,0.58,0.58,0,0,0,.07-0.21A0.51,0.51,0,0,0,186.78,99.11Z"/><path class="cls-10" d="M185.65,99.94l0,0,0,0.17h0l0.26,0.18-0.11.4-0.33.05-0.05.19,1.11-.2h0l0-.16h0Zm0.24,0.72,0.08-.29,0.23,0.16,0.11,0.07-0.15,0Z"/><polygon class="cls-10" points="186.13 101.33 186 101.65 185.2 101.36 185.18 101.35 185.12 101.52 185.93 101.82 185.81 102.12 185.8 102.14 185.95 102.2 186.27 101.4 186.28 101.38 186.13 101.33"/><polygon class="cls-10" points="184.84 102.18 184.82 102.17 184.74 102.33 185.64 102.77 185.66 102.78 185.74 102.62 184.84 102.18"/><path class="cls-10" d="M185,103a0.55,0.55,0,0,0-.25-0.09h0a0.47,0.47,0,0,0-.22.05,0.55,0.55,0,0,0-.21.19,0.6,0.6,0,0,0-.09.26,0.45,0.45,0,0,0,.05.26,0.61,0.61,0,0,0,.46.31h0a0.46,0.46,0,0,0,.22-0.05,0.56,0.56,0,0,0,.21-0.19,0.52,0.52,0,0,0,.09-0.4A0.53,0.53,0,0,0,185,103Zm-0.28.81a0.46,0.46,0,0,1-.19-0.08,0.38,0.38,0,0,1-.18-0.23,0.36,0.36,0,0,1,.27-0.41h0.06a0.38,0.38,0,0,1,.21.07,0.39,0.39,0,0,1,.2.25,0.36,0.36,0,0,1-.06.25,0.35,0.35,0,0,1-.14.12A0.3,0.3,0,0,1,184.7,103.77Z"/><polygon class="cls-10" points="184.5 104.55 183.76 103.87 183.75 103.86 183.63 103.99 184.17 104.49 183.29 104.38 183.17 104.51 183.91 105.19 183.92 105.21 184.04 105.08 183.5 104.58 184.38 104.68 184.5 104.55"/><polygon class="cls-10" points="175.61 106.02 174.87 107.3 175 105.85 175 105.84 174.52 105.69 174.51 105.69 173.72 106.93 173.89 105.52 173.9 105.5 173.48 105.38 173.46 105.37 173.23 107.58 173.23 107.6 173.67 107.73 173.68 107.74 174.54 106.37 174.42 107.94 174.42 107.96 174.86 108.09 176.03 106.17 176.04 106.15 175.61 106.02"/><path class="cls-10" d="M177.38,107.13v0.4l0.47,0v0.24a1,1,0,0,1-.22.13,0.7,0.7,0,0,1-.26.06h0a0.53,0.53,0,0,1-.2,0,0.46,0.46,0,0,1-.18-0.13,1,1,0,0,1,0-1.07,0.57,0.57,0,0,1,.42-0.19h0a0.42,0.42,0,0,1,.26.07,0.4,0.4,0,0,1,.15.23v0l0.43-.1h0v0a0.68,0.68,0,0,0-.54-0.58,1.2,1.2,0,0,0-.34,0l-0.28,0a0.94,0.94,0,0,0-.23.09,1.05,1.05,0,0,0-.41.42,1.37,1.37,0,0,0-.15.61,1.39,1.39,0,0,0,0,.3,1.27,1.27,0,0,0,.08.27,0.87,0.87,0,0,0,.15.23,0.79,0.79,0,0,0,.21.17,1,1,0,0,0,.51.12h0.06l0.26,0,0.25-.09a1.38,1.38,0,0,0,.31-0.19l0,0,0.05,0h0l0-.86v0Z"/><path class="cls-10" d="M181,106.14a1,1,0,0,0-.56-0.62,1,1,0,0,0-.8.07,1.26,1.26,0,0,0-.39.28,0.94,0.94,0,0,0-.18.3,1.13,1.13,0,0,0-.07.36,1.36,1.36,0,0,0,.11.54,1,1,0,0,0,.55.61,0.84,0.84,0,0,0,.31.06,1.13,1.13,0,0,0,.49-0.13A1.1,1.1,0,0,0,181,107,1.16,1.16,0,0,0,181,106.14Zm-0.39.76a0.57,0.57,0,0,1-.3.34,0.5,0.5,0,0,1-.43,0,0.71,0.71,0,0,1-.34-0.41,0.81,0.81,0,0,1-.05-0.56,0.58,0.58,0,0,1,.31-0.34,0.58,0.58,0,0,1,.25-0.06,0.44,0.44,0,0,1,.18,0,0.71,0.71,0,0,1,.33.41A0.81,0.81,0,0,1,180.62,106.9Z"/><path class="cls-10" d="M172.15,105.78a0.18,0.18,0,0,0-.13,0h0a0.22,0.22,0,0,0-.2.22,0.2,0.2,0,0,0,.06.14,0.18,0.18,0,0,0,.13,0h0a0.22,0.22,0,0,0,.2-0.22A0.2,0.2,0,0,0,172.15,105.78Z"/><path class="cls-10" d="M182.46,105.46a0.19,0.19,0,0,0-.13-0.05h0a0.22,0.22,0,0,0-.2.22,0.2,0.2,0,0,0,.06.15,0.19,0.19,0,0,0,.13,0h0a0.22,0.22,0,0,0,.2-0.22A0.2,0.2,0,0,0,182.46,105.46Z"/><path class="cls-11" d="M177.54,92.77h0a0.71,0.71,0,0,0,.21,0,1.74,1.74,0,0,1,.45.39l0,0.08a5.18,5.18,0,0,0,1.11.84c0.17,0,.24.22,0.41,0.25s0.3,0.18.46,0.24a1.09,1.09,0,0,0,.35.16l0.09,0,0,0a0.06,0.06,0,0,0,0-.07s0,0,.05,0a0.33,0.33,0,0,0,.23.17h0a0.28,0.28,0,0,1-.05-0.11,0.67,0.67,0,0,1-.07-0.1c0.09-.13-0.07-0.21-0.1-0.31l0.07,0c0.06-.08,0-0.13-0.06-0.19a0.69,0.69,0,0,0,.23.18c0.13,0,0-.16.05-0.23a0.26,0.26,0,0,0-.14-0.24,0.24,0.24,0,0,1-.1-0.16,0.31,0.31,0,0,1-.13-0.09,3.49,3.49,0,0,0-.2-0.32,0.49,0.49,0,0,0-.22-0.2s0,0.07,0,.07a0.56,0.56,0,0,0-.19-0.17,6.87,6.87,0,0,0-.75-0.36s0-.07-0.08-0.05a1.25,1.25,0,0,0-.18,0,4,4,0,0,0-1-.14,2.41,2.41,0,0,0-.61,0,2,2,0,0,0-.39,0h0l0.43,0.51"/><path class="cls-12" d="M182,95a4.65,4.65,0,0,1-.74-0.12L181,94.81h0a0.33,0.33,0,0,1-.23-0.17s0,0-.05,0a0.06,0.06,0,0,1,0,.07l0,0-0.09,0a1.09,1.09,0,0,1-.35-0.16c-0.15-.06-0.29-0.19-0.46-0.24s-0.24-.21-0.41-0.25a5.16,5.16,0,0,1-1.11-.84l0-.08a1.74,1.74,0,0,0-.45-0.39,0.72,0.72,0,0,1-.21,0l0,0h0l0,0,0.15,0.23s0.1,0.26.11,0.27,0.12,0.24.17,0.35h0.05a2.19,2.19,0,0,0,.15.16,0.59,0.59,0,0,0,.13.14,0.08,0.08,0,0,1,0,.12,0,0,0,0,0,0,0h0l0,0,0.06,0v0c0.19,0.08.81,0.39,1,.52a2.13,2.13,0,0,0,.73.27,1.27,1.27,0,0,1,.42,0,1.46,1.46,0,0,0,.6.21A2,2,0,0,0,182,95"/><path class="cls-13" d="M173.15,99.31a2.5,2.5,0,0,0,.08.34,2.14,2.14,0,0,1,0,.4c0,0.07,0,0,.1.06a0.86,0.86,0,0,1,0,.32,0.34,0.34,0,0,1,0,.24c0,0.09,0,.08.06,0.11s0,0.07,0,.16,0.11,0,.13-0.05,0-.06,0,0,0-.05.08-0.13,0.12,0,.21,0h0.16a0.21,0.21,0,0,1,.09.22c0,0.08.11,0,.25,0l0.06,0a0,0,0,0,0,0,0,0.67,0.67,0,0,0,.13.3l0,0,0,0,0,0,0,0,0,0,0,0h0a0.78,0.78,0,0,0,.22-0.21,2.47,2.47,0,0,1,.07-0.39,1.05,1.05,0,0,0,0-.36c0-.19.09-0.35,0.07-0.19a0.66,0.66,0,0,0,.34.46,0.32,0.32,0,0,0,.21-0.1s0.23-.43.27-0.48a0.71,0.71,0,0,1,.26,0,0.32,0.32,0,0,0,.17-0.19,0.4,0.4,0,0,1,.09-0.12l0,0h0a0.25,0.25,0,0,1-.11-0.07l0,0c0.07,0,.15-0.07.1-0.12a1.12,1.12,0,0,1,0-.44c0-.11,0-0.08,0-0.1a0.07,0.07,0,0,1-.06-0.06s0.05,0,.06,0v0c0-.06,0,0-0.07-0.07s0,0,0-.12,0-.13-0.11-0.12a0.9,0.9,0,0,1-.15.1c-0.07,0,0,0-.09-0.1s-0.11,0-.19,0-0.33.49-.34,0.46a3.82,3.82,0,0,0-.2-0.47s0,0,0-.17l-0.06,0a0.69,0.69,0,0,0-.38.06,0.18,0.18,0,0,0-.08.11s-0.13,0-.17,0l-0.13-.06s0,0.06-.1,0a1.43,1.43,0,0,0-.43-0.08,0.46,0.46,0,0,0-.21.23s-0.14,0-.21,0,0,0-.09.09,0,0-.06,0a0.07,0.07,0,0,0-.06,0c0-.08-0.07,0-0.16,0s-0.11.14-.08,0.22a0.4,0.4,0,0,1,.05.1h0c0,0.07,0,.15,0,0.19"/><path class="cls-11" d="M181,100.21l0,0c-0.08,0-.21,0-0.17,0h0l0.32,0.14,0.08,0,0.19,0.08h0l0,0a0.27,0.27,0,0,1,0,.15c0,0.06,0,.06,0,0.05s0,0,.07,0,0,0.12-.05.16-0.07.08,0,.12l0,0,0.07,0v0h0v0.09c0,0.16-.15,0-0.1,0h0l0,0a0.58,0.58,0,0,0-.09,0,0.2,0.2,0,0,0-.13-0.05,0.45,0.45,0,0,0-.23,0h-0.13a0.27,0.27,0,0,1-.06.08,1.24,1.24,0,0,0-.22.22l0,0-0.11.09h0v0h0l0,0h0a1.31,1.31,0,0,1,.15.19,0.09,0.09,0,0,1,0,0,1.13,1.13,0,0,0,0,.12h0l0.08,0,0.06,0.06H181a0.06,0.06,0,0,1,.06,0h0a2.16,2.16,0,0,0,0,.22h0l0.06,0,0.09,0.05h0s0,0.06-.07.08h-0.14l0,0h0a0.79,0.79,0,0,0-.2-0.17,0.15,0.15,0,0,0,0,.12,0.13,0.13,0,0,0,0,.12s0,0,0,0a0.12,0.12,0,0,1,.1,0h0l0,0a0.15,0.15,0,0,1,0,.14,0.26,0.26,0,0,1-.15,0,0.29,0.29,0,0,1-.13-0.06,0.35,0.35,0,0,0-.09,0h0a0.42,0.42,0,0,0-.17,0,0.21,0.21,0,0,1-.16,0h0l-0.06,0,0,0,0,0,0,0h0a0.33,0.33,0,0,0-.15-0.05,1.18,1.18,0,0,1-.15,0l0,0-0.15-.17a0.31,0.31,0,0,0-.14,0,0.58,0.58,0,0,0-.15,0h0c-0.06,0-.15,0-0.21,0a0.13,0.13,0,0,0-.11-0.06,0.21,0.21,0,0,1-.15,0,3.18,3.18,0,0,1-.62.12l-0.63.08h-0.06l0,0,0.1,0.06a0.57,0.57,0,0,0,.28.09,0.59,0.59,0,0,1,.34.16,1.23,1.23,0,0,0,.48.2,0.89,0.89,0,0,1,.24.11,0.67,0.67,0,0,0,.29.1,1.7,1.7,0,0,1,.44.23c0.11,0,.14.12,0.21,0.14l0,0h0l0,0a0,0,0,0,0,0-.05,0.29,0.29,0,0,1,.14-0.1,0.58,0.58,0,0,0,.22-0.12l0.28-.2a0.7,0.7,0,0,0,.29-0.21c0.06,0,.07,0,0.11-0.08l0.5-.31a1.3,1.3,0,0,0,.23-0.2c0.24-.19.47-0.4,0.69-0.6s0.11-.17.19-0.23a2.17,2.17,0,0,0,.36-0.43,0,0,0,0,0,0,0c-0.05.09-.15,0.13-0.21,0.21a2.1,2.1,0,0,0-.27.28,0.27,0.27,0,0,1-.17.1c0-.07.13-0.12,0.15-0.21a0.62,0.62,0,0,0,.18-0.26,0.06,0.06,0,0,0,.05-0.06s-0.06,0-.08,0,0-.07,0-0.09a0.11,0.11,0,0,0-.09,0,2.92,2.92,0,0,1-.57.73,4.84,4.84,0,0,1-.65.57s0,0,0,0c0.27-.28.56-0.53,0.83-0.79a1.19,1.19,0,0,1,.36-0.51c0-.11.17-0.17,0.19-0.28a0.93,0.93,0,0,1,.29-0.31,0.09,0.09,0,0,0,0-.09,0.41,0.41,0,0,1,.1-0.15,0.1,0.1,0,0,0,.11,0c0-.08-0.06-0.06-0.07-0.1a3.13,3.13,0,0,0,.22-0.71,0.57,0.57,0,0,1,0-.18,0.31,0.31,0,0,0,.15-0.29c-0.14,0,0-.18-0.06-0.26s-0.08,0-.11,0V98.42a1.28,1.28,0,0,1,0-.32,0.14,0.14,0,0,0-.06-0.09,0.6,0.6,0,0,1-.14.38,3.78,3.78,0,0,1,0,.5,0.64,0.64,0,0,1-.08.35,0.19,0.19,0,0,0-.1,0c0,0.14-.1.27-0.15,0.41a0.25,0.25,0,0,0-.13.13c-0.13,0,0-.13-0.06-0.22a1.38,1.38,0,0,0,.06-0.32,0.8,0.8,0,0,1,0-.25,4.62,4.62,0,0,0-.05-0.9,0.4,0.4,0,0,1-.11-0.3,0.19,0.19,0,0,0,0-.15h0a0.53,0.53,0,0,0,0,.22,1.63,1.63,0,0,0,0,.32,4.7,4.7,0,0,1,0,.7,1.65,1.65,0,0,0,0,.36,1.92,1.92,0,0,0-.08.23s0-.09,0-0.14a1.29,1.29,0,0,0,0-.39l0-.06c-0.14,0,0,.17-0.09.24h0a0.05,0.05,0,0,0,0,0,0.13,0.13,0,0,0-.08,0,0.2,0.2,0,0,0,0,.16,0.72,0.72,0,0,0,0,.29c0,0.16,0,.33-0.09.49a0.78,0.78,0,0,0-.16.42,1.27,1.27,0,0,1-.23.33h0a0.19,0.19,0,0,1-.07-0.1,1.71,1.71,0,0,0,.21-0.28,1.18,1.18,0,0,1,.06-0.14c0-.13,0-0.26.08-0.39s0-.06,0-0.07,0,0.16-.14.22a0.29,0.29,0,0,1-.12.21c-0.08,0-.08.09-0.12,0.13s0,0.13-.08.13Z"/><path class="cls-11" d="M179,104.12h0L179,104v0h0a0.23,0.23,0,0,0-.11,0h0a0.43,0.43,0,0,1-.17-0.07,0.81,0.81,0,0,0-.08,0l0,0h-0.26l-0.07,0h-0.05a0.05,0.05,0,0,0,0-.05v0h0s0,0,0,0,0,0-.08,0h0v0h-0.08l0,0,0,0h-0.17a0.65,0.65,0,0,0-.18.06h-0.61l-0.09,0h0a0.27,0.27,0,0,0,0-.11l0,0a1.87,1.87,0,0,1-.32,0h-0.06c-0.05,0,0-.21-0.06-0.25h0l-0.43-.29h0a0.72,0.72,0,0,1-.07-0.41c0-.08-0.16-0.43-0.05-0.34h0l-0.24-.19a3.85,3.85,0,0,1-.41-0.27h0l-0.24-.28h0l0,0,0,0,0,0,0,0,0,0,0,0a0.67,0.67,0,0,1-.13-0.3,0,0,0,0,1,0,0l-0.06,0c-0.14,0-.25.08-0.25,0a0.21,0.21,0,0,0-.09-0.22H173.9c-0.09,0-.17,0-0.21,0s0,0.15-.08.13,0,0,0,0-0.09.15-.13,0.05,0-.14,0-0.16-0.11,0-.06-0.11a0.34,0.34,0,0,0,0-.24,0.85,0.85,0,0,0,0-.32c-0.06,0-.1,0-0.1-0.06a2.12,2.12,0,0,0,0-.4,2.57,2.57,0,0,1-.08-0.34s0-.12,0-0.19H173c-0.08-.07-0.16-0.53-0.22-0.59v0h0v0h0v0h0V98.32s0,0,0,0V98.14h0V98.06h0v-0.3h0c-0.09-.13.11-0.13,0.2-0.26a0.35,0.35,0,0,1,.14-0.14l0.06,0h0a0.41,0.41,0,0,0,.09-0.14,0.23,0.23,0,0,0,0-.16v0h0a2.52,2.52,0,0,1,.27-0.43v0a0.29,0.29,0,0,1,.08-0.11,0.05,0.05,0,0,0,0,0h0a0.06,0.06,0,0,0,0,0,0.94,0.94,0,0,0,.29-0.28,1.39,1.39,0,0,1,.23-0.26,1.2,1.2,0,0,1,.21-0.19,4.77,4.77,0,0,1,.71-0.53c0.17-.1.34-0.17,0.51-0.27l0.08,0a2.09,2.09,0,0,1,.53-0.29,2,2,0,0,1,.5-0.08,0.67,0.67,0,0,1,.26,0h0.05v0a1.64,1.64,0,0,0-.14-0.39v0h0l0,0h0l0-.1-0.09-.18,0,0h0l-0.11-.21c0-.09-0.3-0.41-0.4-0.55h0l0-.05a0.26,0.26,0,0,0-.13,0h0l0,0a0.5,0.5,0,0,1,0-.18h0a0.81,0.81,0,0,0-.24,0v0h-0.06a4.8,4.8,0,0,1-.86.3,0.67,0.67,0,0,1-.36.18c-0.09.1-.24,0.06-0.34,0.15a0.72,0.72,0,0,1-.26.27c-0.2.08-.35,0.25-0.54,0.34a1.11,1.11,0,0,0-.23.27,1.13,1.13,0,0,0-.3.3c-0.11,0,0,.09-0.1.12a1.2,1.2,0,0,0-.3.25,2.51,2.51,0,0,0-.18.19,1.93,1.93,0,0,1-.21.34,0.91,0.91,0,0,1-.22.32,0.15,0.15,0,0,1,0,.1,1.66,1.66,0,0,0-.12.32,0.41,0.41,0,0,0-.08.24,0.76,0.76,0,0,1-.1.27c0,0.08-.06.14,0,0.23s-0.09,0-.11.1a1.06,1.06,0,0,0,0,.33c0.06,0,.06.07,0.05,0.11-0.09.25,0,.5,0,0.76a0.43,0.43,0,0,0,0,.29,3.56,3.56,0,0,0,.09.88,3,3,0,0,1,.07.4c0,0.06.06,0,.1,0a0.18,0.18,0,0,1,0,.09,0.9,0.9,0,0,0,0,.35,0.22,0.22,0,0,1,.13.17,0.21,0.21,0,0,0-.06.1c0,0.06.07,0.05,0.11,0a0.43,0.43,0,0,1,.06.28,0.79,0.79,0,0,0,.12.21,0.81,0.81,0,0,0,.23.31,0.18,0.18,0,0,0,.07.11,5.18,5.18,0,0,0,.63.82c0,0.06.12,0,.11,0.11a4.85,4.85,0,0,0,.55.52,1.06,1.06,0,0,1,.18.13,5,5,0,0,0,1.15.63l0.61,0.25a1.66,1.66,0,0,1,.43.12,0.72,0.72,0,0,1,.43.06c0.31,0,.56.14,0.87,0.13a3.3,3.3,0,0,0,.54,0,0.71,0.71,0,0,1,.31,0c0.13-.07.27,0,0.4,0a0.24,0.24,0,0,0,.15,0h0.25a0.14,0.14,0,0,0,.12,0,0,0,0,0,0,0,0h0"/><path class="cls-10" d="M183.83,96.57c-0.13,0-.14,0,0-0.09s0.47-.1.27-0.14-0.87-.12-1-0.12-0.35,0-.29,0,0-.07-0.1-0.07a6.11,6.11,0,0,0-.75,0,3.83,3.83,0,0,1-.64.07c-0.09,0,.09,0,0.14-0.07s-0.06-.08-0.22-0.06a3.37,3.37,0,0,1-.41.08,0.75,0.75,0,0,0-.33,0,0.24,0.24,0,0,1-.25,0,1.46,1.46,0,0,0-.64,0,1.25,1.25,0,0,1-.46.15,0.52,0.52,0,0,1-.15,0,4,4,0,0,1,0-.47,0.31,0.31,0,0,1,0-.07,0.57,0.57,0,0,1,0-.11,6.22,6.22,0,0,0-.21-0.7,1,1,0,0,0,0-.3,3.76,3.76,0,0,1-.19-0.45v0l-0.06,0,0,0h0a0,0,0,0,1,0,0,0.08,0.08,0,0,0,0-.12,0.59,0.59,0,0,1-.13-0.14s-0.11-.11-0.15-0.16h-0.05c0-.1-0.15-0.33-0.17-0.35s-0.09-.24-0.11-0.27l-0.15-.23,0,0h0l0,0h0l-0.43-.51h0L177,92.2,176.81,92a0.63,0.63,0,0,1-.11-0.1,0.76,0.76,0,0,0-.42-0.09,5.7,5.7,0,0,0-.65.28,0.37,0.37,0,0,1-.07.1,1.44,1.44,0,0,1-.14.07c-0.09.07,0,.15,0.05,0.18l0.21,0.1h0a0.81,0.81,0,0,1,.24,0h0a0.51,0.51,0,0,0,0,.18l0,0h0a0.26,0.26,0,0,1,.13,0h0l0,0c0.1,0.13.35,0.46,0.4,0.55l0.11,0.21h0l0,0,0.09,0.18,0,0.1h0l0,0h0v0a1.64,1.64,0,0,1,.14.39v0h0v0h0v0l0,0c0.08,0.2.23,0.53,0.24,0.56s0,0.12,0,.14,0.1,0.19.12,0.23,0,0.13.06,0.18,0.12,1,.14,1a5,5,0,0,0-.51.14,0.32,0.32,0,0,1,0,.07,1.46,1.46,0,0,1-.3.06,0.19,0.19,0,0,0-.1,0,0.59,0.59,0,0,0-.18,0,0.6,0.6,0,0,1-.23.06l-0.57.09-0.18.07a0.42,0.42,0,0,1-.16,0l-0.41.09-0.53.06h0a0.24,0.24,0,0,1-.07-0.07h0c-0.06,0-.14,0-0.12.06s0.1,0.06,0,.08a0.13,0.13,0,0,1-.1,0h0s0,0,0,0h0c-0.08,0-.09,0-0.12,0a0.44,0.44,0,0,1,0,.09,0.05,0.05,0,0,1-.05,0l0,0h0a0.09,0.09,0,0,0-.12,0s0,0.08-.06.09a0.29,0.29,0,0,1-.11,0h0a0.8,0.8,0,0,0-.34-0.1h0l-0.06,0a0.35,0.35,0,0,0-.14.14c-0.09.13-.28,0.13-0.2,0.26h0V98h0v0.07h0v0.14s0,0,0,0v0.11h0v0h0v0h0v0c0.06,0.06.14,0.52,0.22,0.59h0.08a0.4,0.4,0,0,0-.05-0.1c0-.08,0-0.22.08-0.22s0.12-.07.16,0a0.07,0.07,0,0,1,.06,0s0,0.07.06,0,0-.08.09-0.09,0.16,0.05.21,0a0.46,0.46,0,0,1,.21-0.23,1.43,1.43,0,0,1,.43.08c0.11,0,.1,0,0.1,0l0.13,0.06s0.14,0.08.17,0a0.18,0.18,0,0,1,.08-0.11,0.69,0.69,0,0,1,.38-0.06l0.06,0,0.65-.26C176,98.15,177,98,177,98a0.35,0.35,0,0,1,.24,0,0.12,0.12,0,0,0,.17,0l0,0h0a0.45,0.45,0,0,0,.2,0,2.76,2.76,0,0,1,0,.8,3.06,3.06,0,0,1-.72-0.17,0.2,0.2,0,0,0-.23,0c-0.05.07,0,0,0,.08a2.93,2.93,0,0,1-.23.19v0s0,0-.06,0a0.07,0.07,0,0,0,.06.06c0.07,0,0,0,0,.1a1.13,1.13,0,0,0,0,.44c0,0.05,0,.08-0.1.12l0,0a0.25,0.25,0,0,0,.11.07h0l0,0a0.49,0.49,0,0,0,.19.06s0-.08.09,0a0.11,0.11,0,0,1,.05.07,0.23,0.23,0,0,0,.16.08,0.05,0.05,0,0,0,.05-0.05c0.06,0.1,0,.11,0,0.11a0.17,0.17,0,0,0,.13,0s0-.11.09-0.05,0,0,0,.09a0.84,0.84,0,0,1,0,.24s0,0.19-.1.18a1.76,1.76,0,0,0-.36-0.09c-0.07,0-.17-0.1-0.26-0.09s-0.12,0-.05.11,0,0-.06,0a0.16,0.16,0,0,0-.16.17,1.23,1.23,0,0,1-.19.34,0.84,0.84,0,0,0-.06.18s0.06,0.18.06,0.21a0.46,0.46,0,0,0,.23.18,0.88,0.88,0,0,1,.45.15,1.37,1.37,0,0,1-.19.48,1,1,0,0,1-.24-0.06,3.87,3.87,0,0,0-.47-0.15s0,0.07-.07.1-0.12,0-.12.07v0.06h0a0.09,0.09,0,0,1,0,0h-0.07c-0.11-.08.07,0.27,0.05,0.34a0.72,0.72,0,0,0,.07.41h0l0.43,0.29h0s0,0.22.06,0.25h0.06a1.9,1.9,0,0,0,.32,0l0,0a0.26,0.26,0,0,1,0,.11h0l0.09,0h0.61a0.63,0.63,0,0,1,.18-0.06h0.17l0,0,0,0H178v0h0c0.06,0,.06,0,0.08,0s0,0,0,0h0v0a0.05,0.05,0,0,1,0,.05h0.05l0.07,0h0.26l0,0a0.81,0.81,0,0,1,.08,0,0.43,0.43,0,0,0,.17.07h0a0.23,0.23,0,0,1,.11,0h0v0l0.07,0.1h0c0.06,0,.36.16,0.39,0.2a0.07,0.07,0,0,0,.1,0s0.77,0.26.82,0.28a0.15,0.15,0,0,0,.11,0s0.12-.07,0-0.1a0.4,0.4,0,0,1-.14-0.15,1.39,1.39,0,0,0,.32.06,0.06,0.06,0,0,0,0-.1s-0.09-.12,0-0.14,0.09-.09,0-0.11a5.32,5.32,0,0,1-.46-0.31l0,0h0l-0.06-.07h0l0,0h0l0,0c-0.07,0-.1-0.09-0.21-0.14a1.71,1.71,0,0,0-.44-0.23,0.67,0.67,0,0,1-.29-0.1,0.89,0.89,0,0,0-.24-0.11,1.22,1.22,0,0,1-.48-0.2,0.59,0.59,0,0,0-.34-0.16,0.57,0.57,0,0,1-.28-0.09l-0.1-.06,0,0h0a0.61,0.61,0,0,1,.13-0.24l0,0h0a0.7,0.7,0,0,0,.07-0.14,0.08,0.08,0,0,0,0,0s0.1,0,.11-0.06a0.11,0.11,0,0,0,0-.07,0.1,0.1,0,0,1,.07,0,0.09,0.09,0,0,0,.06-0.07,0.12,0.12,0,0,1,.1,0s0,0,0,0a0.18,0.18,0,0,1,0,.1,0.13,0.13,0,0,0,.07-0.05l0.09-.05,0.16,0.05a0.81,0.81,0,0,1,.28.06s0,0.07.1,0.06,0.06-.05.1,0,0,0,.07,0a0.23,0.23,0,0,1,.13,0,0.36,0.36,0,0,0,.19.09h0a0.59,0.59,0,0,1,.15,0,0.21,0.21,0,0,1,.17,0h0l0.15,0.17,0,0a1.2,1.2,0,0,0,.15,0,0.33,0.33,0,0,1,.15.05h0l0,0,0,0,0,0,0.05,0h0a0.21,0.21,0,0,0,.16,0,0.42,0.42,0,0,1,.17,0h0a0.35,0.35,0,0,1,.09,0,0.29,0.29,0,0,0,.13.06,0.26,0.26,0,0,0,.15,0,0.15,0.15,0,0,0,0-.14l0,0h0a0.12,0.12,0,0,0-.1,0s0,0,0,0a0.13,0.13,0,0,1,0-.12,0.15,0.15,0,0,1,0-.12,0.8,0.8,0,0,1,.2.17h0l0,0h0.14c0.05,0,.09-0.06.07-0.08h0l-0.09-.05-0.06,0h0a2.11,2.11,0,0,1,0-.22h0a0.06,0.06,0,0,0-.06,0h-0.14l-0.06-.06-0.08,0h0a1.22,1.22,0,0,1,0-.12,0.09,0.09,0,0,0,0,0,1.31,1.31,0,0,0-.15-0.19h0l0,0h0l0,0h-0.05l0,0h0l0,0,0,0h0L180,101.4a1.66,1.66,0,0,0-.26-0.13,4.32,4.32,0,0,1-.46-0.18c-0.1,0-.7-0.17-0.79-0.21a0.12,0.12,0,0,1-.08-0.1,0.14,0.14,0,0,1-.07-0.08s0-.08,0-0.08,0,0,.07,0l0,0c0,0.05,0,.12,0,0.08s0-.08.08-0.09,0,0,.06,0,0.07,0,.09-0.08v0l0.06,0,0.24,0.06c0.12,0,.38.15,0.42,0.15a0.5,0.5,0,0,0,.15,0,0.23,0.23,0,0,1,.12,0c0.06,0-.08,0-0.06.05a0.14,0.14,0,0,0,.12.08,0.31,0.31,0,0,1,.1-0.08,0.6,0.6,0,0,1,.28.05c0.06,0,0,.05,0,0.11s0,0.07.08,0.06a0.13,0.13,0,0,1,.08,0c0.05,0-.06-0.11,0-0.09s0.1,0,.06,0a0.21,0.21,0,0,1,0,.12c-0.05,0,.08,0,0.14,0a0.76,0.76,0,0,0,.18,0s-0.07-.11-0.1-0.12l0.21,0.05a0.07,0.07,0,0,1,.11,0l0,0H181a0.45,0.45,0,0,1,.23,0,0.2,0.2,0,0,1,.13.05,0.6,0.6,0,0,1,.09,0l0,0h0s0.12,0.17.1,0v-0.09h0v0l-0.07,0,0,0c-0.06,0-.07-0.08,0-0.12s0.1-.09.05-0.16-0.07,0-.07,0,0,0,0-.05a0.27,0.27,0,0,0,0-.15l0,0h0l-0.16-.07-0.08,0-0.32-.14h0s0.08,0,.17,0l0,0h0a1.7,1.7,0,0,0-.26-0.11c-0.06,0-1.12-.37-1.15-0.38a4,4,0,0,1-.6-0.31,0.57,0.57,0,0,0-.11-0.08,0.13,0.13,0,0,1,0-.15c0-.06,0,0,0,0s0-.09,0-0.14a0.08,0.08,0,0,1,0-.1c0-.07.1-0.18,0-0.11s-0.08.21-.08,0.1a0.3,0.3,0,0,1,.05-0.21c0-.07,0-0.1.07-0.11s0.06,0,.06,0,0-.1,0-0.1-0.1,0-.06-0.07-0.07,0,0-.12a1.16,1.16,0,0,0,.06-0.18c0.05-.06.13,0.05,0.07,0a0.85,0.85,0,0,1-.05-0.22c0-.06-0.06-0.2,0-0.23a0.3,0.3,0,0,1,.19-0.06,0.25,0.25,0,0,0,.25,0c0-.07,0-0.16,0-0.07a0.5,0.5,0,0,0,.38,0c0.11,0,.17,0,0.12-0.07s0-.09.1-0.07,0,0,.08.08a0.13,0.13,0,0,0,.17,0c0.05-.05,0-0.08.15-0.08a0.43,0.43,0,0,1,.21,0s-0.22.07-.17,0.12a0.39,0.39,0,0,0,.31,0c0.08,0-.12-0.13,0-0.1a0.3,0.3,0,0,0,.2,0s-0.14.11,0,.08,0,0,.08-0.08,0,0,.06-0.06,0-.1.07,0a0.08,0.08,0,0,0,.15,0,0.07,0.07,0,0,1,.12,0,0.82,0.82,0,0,0,.23,0l0.42,0s0,0,.09-0.06l1-.16a0.1,0.1,0,0,1,.05-0.07,0.26,0.26,0,0,1,.19-0.07c0.16,0,.8-0.17.84-0.2a0.86,0.86,0,0,0-.45-0.17"/><path class="cls-4" d="M166.69,100.51c0,7.51-5.79,14-12.88,14.45s-12.66-5.15-12.66-12.53S146.79,88.6,153.81,88,166.69,93,166.69,100.51Z"/><path class="cls-4" d="M164.94,101.27c0,6.48-5,12.07-11.12,12.48s-10.93-4.44-10.93-10.82,4.87-12,10.93-12.46S164.94,94.79,164.94,101.27Z"/><path class="cls-14" d="M154.76,94c0,0.67,0,1.48,0,2.18a1.22,1.22,0,0,0,.38-0.28,1.37,1.37,0,0,1,.35-0.35,0.72,0.72,0,0,1,.47.67,2,2,0,0,1-.45.54,2.67,2.67,0,0,0-.93,2,2.58,2.58,0,0,1,1.34.32,2.24,2.24,0,0,1-.21.29,1.46,1.46,0,0,1,0,2,3.05,3.05,0,0,1-1.22.55c0,0.35,0,.65,0,1a1.45,1.45,0,0,1,1.22.87c0.09-.06.31-0.18,0.32,0a0.44,0.44,0,0,1-.24.25c0.06,1.08-.65,1.41-1.49,1.61,0,0.31,0,.59,0,0.9,0.17,0.11.36,0.13,0.51,0.23a1,1,0,0,1,.08,1.36,2.35,2.35,0,0,1-.66.44c0,0.25,0,.61,0,0.88s0,0.67-.38.62-0.18-.8-0.22-1.2a2.72,2.72,0,0,0-.45.39,0.28,0.28,0,0,1-.37-0.35,2,2,0,0,1,.8-0.81v-0.91a1.13,1.13,0,0,1-1-1.33,1.24,1.24,0,0,1,1-.88,2.33,2.33,0,0,1-1.5-1,2.91,2.91,0,0,1-.18-0.32,3.56,3.56,0,0,1-.12-0.36,4.08,4.08,0,0,1,.08-2.16,3.66,3.66,0,0,1,1-1.47c-0.59-.16-1.26-0.29-1.85-0.46a1.52,1.52,0,0,1-1.11-1.66,2.43,2.43,0,0,1,1-1.58,4.5,4.5,0,0,1,.57-0.3c0.14-.07.26-0.23,0.4-0.32a2.1,2.1,0,0,1,1.71,0c0-.43,0-0.9,0-1.3A1.2,1.2,0,0,1,154.76,94Zm-1.15.23c0,0.42,0,.87,0,1.27a0.61,0.61,0,0,1,.49.43,0.63,0.63,0,0,1-.49.61c0,0.72,0,1.45,0,2.19a1.45,1.45,0,0,0,.83.07c-0.07-1.38.81-1.84,1.36-2.62a0.93,0.93,0,0,0-.3-0.5,2.61,2.61,0,0,1-.88.71c0-.78,0-1.53,0-2.3A1.22,1.22,0,0,0,153.61,94.2Zm-0.3,1.34a4.09,4.09,0,0,0-.85-0.19,1.67,1.67,0,0,0-1,.49,3.48,3.48,0,0,0-.89.58,2.49,2.49,0,0,0-.59.87,1.46,1.46,0,0,0,.91,1.85,9.82,9.82,0,0,0,1,.24l1,0.24a5.21,5.21,0,0,1,1-.7c-0.56-.1-1.34-0.31-1.95-0.45s-1.13-.18-1-1a1.16,1.16,0,0,1,1-.85c0.07,0,.12,0,0.19.05a1.9,1.9,0,0,0,.56,0,3.44,3.44,0,0,0,1.13-.41c-0.36,0-.8.11-1.13,0.16a0.34,0.34,0,0,1-.34,0c0.47-.12,1-0.14,1.53-0.24C154.18,95.77,153.62,95.62,153.31,95.54Zm0.19,1s0,0,0,0a3.6,3.6,0,0,1-1.39.28,1.45,1.45,0,0,0-.25-0.06c-0.52,0-1.14.92-.61,1.34a1.39,1.39,0,0,0,.53.18l1.74,0.4V96.57Zm-0.26,3.16c0.33,0.06.74,0.19,1.09,0.27a2.34,2.34,0,0,1,.38.07,0.49,0.49,0,0,1-.22.88c0,0.29,0,.54,0,0.83a2.64,2.64,0,0,0,1.15-.51,1.31,1.31,0,0,0,0-1.81,2,2,0,0,1-.3.36A2.37,2.37,0,0,0,153.24,99.73Zm-0.19.1a2.24,2.24,0,0,0-.75,2,1.6,1.6,0,0,1,1.16-.8v-0.17c-0.23-.09-0.48-0.15-0.7-0.25a3.72,3.72,0,0,1,.3-0.46l0.43,0.1V99.93C153.34,99.9,153.21,99.85,153.05,99.83Zm0.54,0.55-0.48-.13-0.16.28a4.48,4.48,0,0,1,.62.22c0,0.66,0,1.31,0,2l0.72,0.18c0-.94,0-1.84,0-2.79l-0.77-.18A2.24,2.24,0,0,1,153.59,100.38Zm0.9,0.4c0.38,0,.4-0.66,0-0.61C154.52,100.39,154.48,100.57,154.49,100.78Zm-2.19,1.62a2,2,0,0,0,.54,1.07,4.2,4.2,0,0,0,.89.25,2.5,2.5,0,0,1,1.09.43,2.47,2.47,0,0,0,.75-0.26c-0.21-.68-0.94-0.76-1.63-0.94-0.35-.09-1-0.15-0.73-0.7a1.72,1.72,0,0,1,.27-0.26c0-.22,0-0.49,0-0.67s0-.19,0-0.18A1.28,1.28,0,0,0,152.3,102.4Zm1.2,0.28c0-.17,0-0.29,0-0.47C153.26,102.25,153.24,102.7,153.5,102.68Zm-0.43,1a1.7,1.7,0,0,0,.41.26v-0.15A3.34,3.34,0,0,0,153.07,103.69Zm0.54,0.31a1.71,1.71,0,0,0,.64.15V104c-0.21-.07-0.41-0.14-0.64-0.19V104Zm0.75,0.16a0.52,0.52,0,0,0,.29,0,0.8,0.8,0,0,0-.27-0.1A0.31,0.31,0,0,0,154.36,104.16Zm0,0.81a4,4,0,0,1,0,.56,1.37,1.37,0,0,0,1.34-1.38A3.82,3.82,0,0,1,154.31,105Zm-0.7,1.33c0.16,0.07.32,0.14,0.49,0.2,0-.53.07-1,0.08-1.52a2.85,2.85,0,0,1-.57,0v1.32Zm-1-.32a1.08,1.08,0,0,0,.35.87,2.88,2.88,0,0,0,.65.26,0.93,0.93,0,0,1,.75.42,0.53,0.53,0,0,1-.27.46,2.54,2.54,0,0,0,0,.47,1.94,1.94,0,0,0,.59-0.39,0.83,0.83,0,0,0-.06-1.14,4.24,4.24,0,0,0-.75-0.33,1.14,1.14,0,0,1-.69-0.4,0.47,0.47,0,0,1,.27-0.49,2,2,0,0,0,0-.57A1.12,1.12,0,0,0,152.64,106Zm0.86,0.27a1,1,0,0,0,0-.4C153.3,105.94,153.3,106.25,153.5,106.27Zm0.11,1v0.05c0,0.68,0,1.45,0,2.16,0,0.27,0,.55.19,0.53s0.18-.29.18-0.52c0-.71,0-1.39,0-2.06A3.17,3.17,0,0,0,153.61,107.24Zm0.56,0.55c0.1-.07.13-0.29,0-0.34C154.18,107.57,154.15,107.72,154.17,107.79Zm-0.69.49a1.74,1.74,0,0,0-.67.74,0.17,0.17,0,0,0,.18.16,1.18,1.18,0,0,0,.32-0.29,1,1,0,0,0,.21-0.17A1.12,1.12,0,0,0,153.48,108.27Z"/><path class="cls-14" d="M153,95.79c0.18-.11.19,0.2,0,0.22A0.12,0.12,0,0,1,153,95.79Z"/><path class="cls-14" d="M149.08,99.09a2.5,2.5,0,0,1,.14.36c0.68,1.77,1.38,3.59,2.06,5.39l-0.92.25c-0.23-.67-0.46-1.34-0.7-2l-1.76.13c-0.25.65-.42,1.38-0.66,2a4.22,4.22,0,0,1-.55.07c0.6-1.79,1.16-3.63,1.75-5.43-0.06-.18-0.17-0.32-0.22-0.5Zm-1,3.57c0.47,0,1-.05,1.44-0.13-0.27-.69-0.51-1.41-0.79-2.09C148.49,101.2,148.24,101.9,148,102.67Z"/><path class="cls-14" d="M160.93,98.8a6.3,6.3,0,0,1-.56.74c-0.65-.51-2.31-0.56-2.82.27a3.07,3.07,0,0,0-.29.6,3.32,3.32,0,0,0,.08,2.14,2.16,2.16,0,0,0,2.64,1.23,15.48,15.48,0,0,0,.08-2l-1.26.09c-0.05-.06.06-0.11,0.1-0.14l0.15-.16a1.56,1.56,0,0,1,.27-0.33,1.65,1.65,0,0,1,.66,0c0.3,0,.61-0.06.9-0.07v1.81a2.63,2.63,0,0,1,0,.59,1.52,1.52,0,0,1-.39.33,2.88,2.88,0,0,1-1.89.78c-1.43,0-2.29-1.26-2.17-2.87a3.81,3.81,0,0,1,1.83-3,2.36,2.36,0,0,1,1.09-.46A2.25,2.25,0,0,1,160.93,98.8Z"/><path class="cls-15" d="M164.51,101.31c0,6.23-4.81,11.61-10.69,12s-10.52-4.27-10.52-10.4,4.69-11.5,10.52-12S164.51,95.07,164.51,101.31Zm-10.69-8.15a9.58,9.58,0,0,0-8.43,9.59c0,4.91,3.76,8.64,8.43,8.32a9.56,9.56,0,0,0,8.54-9.6C162.36,96.49,158.52,92.77,153.82,93.16Z"/><path class="cls-4" d="M144.8,97.94l0.13-.27,1.32,0.07-0.13.28-0.29,0-0.22.46,0.2,0.21-0.13.27Zm0.67,0.35,0.15-.32-0.48,0h0Z"/><path class="cls-4" d="M145.38,96.8l0.23-.34,0.86,0.24h0L146,95.95l0.23-.34,1,0.72-0.16.23-0.7-.51h0l0.52,0.78-0.13.19-0.88-.23h0l0.69,0.51-0.16.23Z"/><path class="cls-4" d="M146.59,95.12l0.68-.73,0.16,0.17-0.48.52,0.18,0.19,0.44-.47,0.15,0.15-0.44.47,0.21,0.22,0.49-.53,0.16,0.17-0.69.74Z"/><path class="cls-4" d="M147.68,94l0.56-.45a0.32,0.32,0,0,1,.5,0,0.34,0.34,0,0,1,0,.39h0a0.26,0.26,0,0,1,.31.12,0.63,0.63,0,0,0,.21.21l-0.23.18a1.27,1.27,0,0,1-.2-0.22,0.17,0.17,0,0,0-.28,0l-0.23.18,0.28,0.4-0.23.18Zm0.55,0.29,0.25-.2a0.18,0.18,0,0,0,.06-0.27,0.15,0.15,0,0,0-.25,0L148,94Z"/><path class="cls-4" d="M149,93l0.24-.16L149.82,94l-0.24.16Z"/><path class="cls-4" d="M150.67,92.58a0.25,0.25,0,0,0-.33-0.09,0.42,0.42,0,0,0-.17.57,0.33,0.33,0,0,0,.47.25,0.33,0.33,0,0,0,.17-0.4l0.25-.12a0.62,0.62,0,0,1-.34.74,0.56,0.56,0,0,1-.81-0.35,0.7,0.7,0,0,1,.34-0.92,0.47,0.47,0,0,1,.67.19Z"/><path class="cls-4" d="M151.63,91.76l0.28-.08,0.71,1.15-0.28.08-0.15-.26-0.46.14,0,0.31-0.27.08Zm0.13,0.8,0.32-.1L151.83,92h0Z"/><path class="cls-4" d="M152.79,91.46l0.27,0,0.57,0.82h0l0-.89,0.26,0,0.06,1.33-0.28,0-0.56-.82h0l0,0.89-0.26,0Z"/><path class="cls-4" d="M156,91.86a0.26,0.26,0,0,0-.23-0.27,0.41,0.41,0,0,0-.42.41,0.36,0.36,0,0,0,.26.49,0.31,0.31,0,0,0,.34-0.26l0.27,0A0.59,0.59,0,1,1,155,92a0.68,0.68,0,0,1,.74-0.63,0.48,0.48,0,0,1,.45.54Z"/><path class="cls-4" d="M157.37,91.7a0.62,0.62,0,0,1,.35.86,0.66,0.66,0,0,1-.82.48,0.61,0.61,0,0,1-.35-0.85A0.66,0.66,0,0,1,157.37,91.7ZM157,92.81a0.4,0.4,0,0,0,.47-0.33,0.38,0.38,0,0,0-.17-0.54,0.4,0.4,0,0,0-.48.34A0.37,0.37,0,0,0,157,92.81Z"/><path class="cls-4" d="M158.37,92.1l0.24,0.12-0.5,1,0.54,0.27-0.11.23-0.79-.4Z"/><path class="cls-4" d="M159.59,92.77l0.22,0.16-0.63.92,0.5,0.35-0.14.21-0.72-.51Z"/><path class="cls-4" d="M160.7,93.62l0.67,0.66-0.17.19L160.73,94l-0.19.22L161,94.65l-0.16.17-0.43-.43-0.22.25,0.48,0.48-0.17.19-0.68-.67Z"/><path class="cls-4" d="M161.34,96.2A0.39,0.39,0,0,1,161,96a0.69,0.69,0,0,1,.17-1,0.59,0.59,0,0,1,.91.05,0.57,0.57,0,0,1-.05.74l-0.16-.22a0.29,0.29,0,0,0,0-.36,0.36,0.36,0,0,0-.56,0,0.42,0.42,0,0,0-.15.57,0.26,0.26,0,0,0,.4.06l-0.16-.23,0.17-.14L161.91,96l-0.56.47-0.1-.15Z"/><path class="cls-4" d="M162.67,96.09l0.43,0.86-0.21.13-0.3-.61-0.24.15,0.28,0.56-0.19.12-0.28-.56-0.28.17,0.31,0.62-0.21.13-0.43-.87Z"/><path class="cls-4" d="M145.32,105.58a0.69,0.69,0,0,1-.44.86,0.56,0.56,0,0,1-.8-0.35,0.69,0.69,0,0,1,.43-0.86A0.56,0.56,0,0,1,145.32,105.58Zm-1,.42a0.33,0.33,0,0,0,.5.17,0.42,0.42,0,0,0,.31-0.5,0.34,0.34,0,0,0-.51-0.17A0.41,0.41,0,0,0,144.3,106Z"/><path class="cls-4" d="M145.59,106.43l0.38,0.81-0.21.12-0.26-.56-0.26.15,0.23,0.48-0.19.11-0.23-.48-0.46.27-0.12-.25Z"/><path class="cls-4" d="M146.09,109.47a0.38,0.38,0,0,1-.34-0.15,0.68,0.68,0,0,1,.14-0.94,0.58,0.58,0,0,1,.9,0,0.56,0.56,0,0,1,0,.73l-0.16-.21a0.28,0.28,0,0,0,0-.36,0.35,0.35,0,0,0-.55,0,0.41,0.41,0,0,0-.12.56,0.25,0.25,0,0,0,.39,0l-0.17-.22,0.16-.14,0.32,0.41-0.53.47-0.11-.14Z"/><path class="cls-4" d="M147.54,109.31l0.2,0.19-0.52,1.33-0.21-.19,0.12-.29L146.8,110l-0.26.16-0.2-.19Zm-0.55.61,0.23,0.22,0.2-.48h0Z"/><path class="cls-4" d="M147.89,110.77a0.25,0.25,0,0,0,.09.36,0.19,0.19,0,0,0,.29,0,0.39,0.39,0,0,0-.18-0.39,0.41,0.41,0,0,1-.09-0.53,0.41,0.41,0,0,1,.6-0.08,0.45,0.45,0,0,1,.17.64l-0.22-.15a0.21,0.21,0,0,0-.09-0.31,0.16,0.16,0,0,0-.24,0c-0.06.09,0,.13,0.19,0.38a0.42,0.42,0,1,1-.57.61,0.49,0.49,0,0,1-.17-0.7Z"/><path class="cls-4" d="M149.37,110.92l-0.33-.16,0.11-.22,0.9,0.45-0.11.22-0.33-.16-0.48,1-0.24-.12Z"/><path class="cls-4" d="M150.29,111.09l0.63,0.2a0.35,0.35,0,0,1,.23.46,0.34,0.34,0,0,1-.29.26h0a0.3,0.3,0,0,1,.07.35,0.78,0.78,0,0,0-.05.32l-0.26-.08a1.57,1.57,0,0,1,.06-0.32,0.18,0.18,0,0,0-.13-0.25l-0.26-.08-0.16.5-0.26-.08Zm0.07,0.66,0.28,0.09a0.17,0.17,0,0,0,.24-0.13,0.16,0.16,0,0,0-.12-0.23l-0.28-.09Z"/><path class="cls-4" d="M152.08,111.49a0.6,0.6,0,0,1,.48.78,0.66,0.66,0,0,1-.73.6,0.6,0.6,0,0,1-.48-0.77A0.66,0.66,0,0,1,152.08,111.49Zm-0.21,1.14a0.4,0.4,0,0,0,.42-0.4,0.37,0.37,0,0,0-.25-0.5,0.4,0.4,0,0,0-.42.41A0.36,0.36,0,0,0,151.87,112.63Z"/><path class="cls-4" d="M152.93,111.61l0.94,0v0.25H153.2v0.29h0.61v0.23h-0.61v0.33h0.68v0.25l-1,0Z"/><path class="cls-4" d="M154.16,111.56l0.27,0,0.61,0.8h0l-0.08-.89,0.26,0,0.13,1.32-0.28,0-0.6-.79h0l0.08,0.88-0.26,0Z"/><path class="cls-4" d="M155.87,111.44l-0.36.12-0.06-.24,1-.33,0.06,0.23-0.37.12,0.25,1-0.27.09Z"/><path class="cls-4" d="M156.66,110.9l0.88-.43,0.09,0.22L157,111l0.1,0.26,0.57-.28,0.08,0.21-0.57.28,0.11,0.3,0.63-.31,0.09,0.22-0.89.43Z"/><path class="cls-4" d="M157.79,110.33l0.59-.4a0.33,0.33,0,0,1,.5.09,0.34,0.34,0,0,1,0,.4h0a0.27,0.27,0,0,1,.31.15,0.65,0.65,0,0,0,.2.23l-0.24.16a1.32,1.32,0,0,1-.19-0.24,0.18,0.18,0,0,0-.28,0l-0.24.16,0.25,0.44-0.24.16Zm0.53,0.34,0.26-.18a0.18,0.18,0,0,0,.07-0.27,0.15,0.15,0,0,0-.25,0l-0.26.18Z"/><path class="cls-4" d="M159.37,109.11a0.58,0.58,0,0,1,.9.08,0.68,0.68,0,0,1-.07,1,0.58,0.58,0,0,1-.9-0.07A0.68,0.68,0,0,1,159.37,109.11Zm0.68,0.85a0.4,0.4,0,0,0,0-.58,0.35,0.35,0,0,0-.54-0.1,0.4,0.4,0,0,0,0,.58A0.34,0.34,0,0,0,160.06,110Z"/><path class="cls-4" d="M160,108.5l0.19-.23L161,109l0.43-.5,0.17,0.16-0.62.73Z"/><path class="cls-4" d="M161.12,107a0.61,0.61,0,0,1,.91-0.19,0.65,0.65,0,0,1,.18.93,0.61,0.61,0,0,1-.9.19A0.65,0.65,0,0,1,161.12,107Zm0.9,0.61a0.38,0.38,0,0,0-.15-0.55,0.36,0.36,0,0,0-.56.07,0.38,0.38,0,0,0,.16.55A0.36,0.36,0,0,0,162,107.65Z"/><path class="cls-4" d="M163.06,105.82a0.47,0.47,0,0,1,0,.41,0.63,0.63,0,0,1-.87.34,0.62,0.62,0,0,1-.32-0.88,0.54,0.54,0,0,1,.64-0.34l-0.12.26a0.28,0.28,0,0,0-.31.17,0.37,0.37,0,0,0,.24.51,0.37,0.37,0,0,0,.54-0.16,0.28,0.28,0,0,0-.11-0.4l-0.13.27-0.19-.08,0.24-.52,0.62,0.28-0.08.17Z"/><path class="cls-4" d="M163.1,104.71l-0.89.28,0.1-.32,0.57-.18-0.39-.43,0.1-.32,0.6,0.68,0.47,0.12-0.09.29Z"/><path class="cls-16" d="M7.5,72.5l2.58-.24,1.73,4.67c0.28,0.77.59,2,.63,2.12a15.33,15.33,0,0,1,.73-2.24l2.29-5.14,0.24,0L18,76.37a14.51,14.51,0,0,1,.73,2.11c0-.07.33-1.39,0.63-2.23l1.71-5L23.48,71,19.17,83.57l-0.24,0L16.25,78a17.42,17.42,0,0,1-.66-1.71c0,0.05-.38,1.15-0.68,1.83l-2.78,6.05-0.24,0Z"/><path class="cls-16" d="M24.08,77a6.76,6.76,0,0,1,6.15-6.73,5.44,5.44,0,0,1,6.15,5.61,6.76,6.76,0,0,1-6.15,6.73A5.44,5.44,0,0,1,24.08,77Zm9.78-.89c0-2.25-1.47-3.83-3.63-3.63a4.1,4.1,0,0,0-3.63,4.29c0,2.25,1.47,3.83,3.63,3.63A4.1,4.1,0,0,0,33.85,76.12Z"/><path class="cls-16" d="M38.62,69.67l4.4-.4c2.43-.22,4.42.75,4.42,3.56a4,4,0,0,1-2.32,3.73l2.71,4.3L45,81.11l-2.41-4-1.55.14v4.17l-2.45.22v-12ZM43,75a1.85,1.85,0,0,0,2-2c0-1.34-.8-1.71-2-1.61l-1.89.17v3.59Z"/><path class="cls-16" d="M49.78,68.65l2.45-.22v9.85l5.38-.49V80l-7.82.71v-12Z"/><path class="cls-16" d="M59.76,67.74l3.65-.33c3.65-.33,6.25,1.89,6.25,5.44a6.55,6.55,0,0,1-6.25,6.58l-3.65.33v-12Zm3.53,9.53a3.88,3.88,0,0,0,3.84-4.19c0-2.25-1.2-3.73-3.84-3.49l-1.08.1v7.68Z"/><path class="cls-16" d="M75.53,72.32a6.72,6.72,0,0,1,6.11-6.71,4.69,4.69,0,0,1,4.75,2l-1.87,1.51a2.92,2.92,0,0,0-2.88-1.31A4,4,0,0,0,78,72.09c0,2.25,1.45,3.83,3.6,3.63a3.78,3.78,0,0,0,3.06-2l1.9,1.15a6.22,6.22,0,0,1-5,3.11A5.42,5.42,0,0,1,75.53,72.32Z"/><path class="cls-16" d="M88,71.18a6.76,6.76,0,0,1,6.15-6.73,5.44,5.44,0,0,1,6.15,5.61,6.76,6.76,0,0,1-6.15,6.73A5.44,5.44,0,0,1,88,71.18Zm9.78-.89c0-2.25-1.47-3.83-3.63-3.63A4.1,4.1,0,0,0,90.53,71c0,2.25,1.47,3.83,3.63,3.63A4.1,4.1,0,0,0,97.8,70.29Z"/><path class="cls-16" d="M106.09,70a15.52,15.52,0,0,1-1.41-1.52,21,21,0,0,1,.17,2.18v5l-2.29.21V63.73l0.24,0,6,5.15a14.85,14.85,0,0,1,1.4,1.52S110,69,110,68.2v-5l2.29-.21V75.08l-0.24,0Z"/><path class="cls-16" d="M114.58,68.76a6.55,6.55,0,0,1,6.06-6.71A4.91,4.91,0,0,1,125,63.32l-1.66,1.81a3,3,0,0,0-2.65-.85,4,4,0,0,0-3.55,4.25,3.36,3.36,0,0,0,3.93,3.6,6.16,6.16,0,0,0,2.32-.65V69.53l-2.86.26V67.62l5.1-.46v5.38A8.35,8.35,0,0,1,121,74.34C117.15,74.7,114.58,72.31,114.58,68.76Z"/><path class="cls-16" d="M128.07,61.52l4.4-.4c2.43-.22,4.42.75,4.42,3.56a4,4,0,0,1-2.32,3.73l2.71,4.3-2.79.25-2.41-4-1.55.14v4.17l-2.45.22v-12Zm4.33,5.37a1.85,1.85,0,0,0,2-2c0-1.34-.8-1.71-2-1.61l-1.89.17v3.59Z"/><path class="cls-16" d="M139.23,60.5l7.86-.72V62l-5.41.49v2.76l4.77-.43V66.9l-4.77.43v2.79l5.66-.52v2.18l-8.1.74v-12Z"/><path class="cls-16" d="M148.83,69.28l2-1.35a2.39,2.39,0,0,0,2.41,1.28,1.57,1.57,0,0,0,1.66-1.37c0-.85-0.66-1.09-1.78-1.48l-0.61-.21c-1.76-.6-2.93-1.45-2.93-3.46a3.66,3.66,0,0,1,3.58-3.6,3.26,3.26,0,0,1,3.47,1.66l-1.9,1.41a1.5,1.5,0,0,0-1.57-.92A1.19,1.19,0,0,0,152,62.41c0,0.74.45,1,1.5,1.37L154.09,64c2.08,0.71,3.25,1.53,3.25,3.6,0,2.23-1.73,3.61-4.05,3.82A4.23,4.23,0,0,1,148.83,69.28Z"/><path class="cls-16" d="M158.39,68.41l2-1.35a2.39,2.39,0,0,0,2.41,1.28A1.57,1.57,0,0,0,164.45,67c0-.85-0.66-1.09-1.78-1.48l-0.61-.21c-1.76-.6-2.93-1.45-2.93-3.46a3.66,3.66,0,0,1,3.58-3.6,3.26,3.26,0,0,1,3.47,1.66l-1.9,1.41a1.5,1.5,0,0,0-1.57-.92,1.19,1.19,0,0,0-1.17,1.17c0,0.74.45,1,1.5,1.37l0.61,0.21c2.08,0.71,3.25,1.53,3.25,3.6,0,2.23-1.73,3.61-4.05,3.82A4.23,4.23,0,0,1,158.39,68.41Z"/><path class="cls-16" d="M170.76,66a4.38,4.38,0,0,1,4-4.38A3.3,3.3,0,0,1,178.54,65a4.35,4.35,0,0,1-4,4.36A3.31,3.31,0,0,1,170.76,66Zm6-.83a1.81,1.81,0,0,0-2-2,2.53,2.53,0,0,0-2.18,2.73,1.81,1.81,0,0,0,2,2A2.51,2.51,0,0,0,176.75,65.17Z"/><path class="cls-16" d="M180.11,62.76l0.26-1.49,1.19-.11,0.52-3.11c0.3-1.71,1.12-2.61,2.57-2.75a2.12,2.12,0,0,1,2,.77l-1.12,1.15a0.87,0.87,0,0,0-.82-0.35,1,1,0,0,0-.93,1.09l-0.52,3,1.9-.17-0.24,1.49L183,62.5l-1.33,7.8c-0.3,1.8-1,2.12-2.34,2.25l-1,.09,0.26-1.39,0.61-.06a0.79,0.79,0,0,0,.73-0.86l1.31-7.67Z"/><path class="cls-4" d="M196,71.77l-2.31,4.1-1.46-5.8L182,70.94l3.2-9.85-5.17.77c-5.09-5.27-10.43-.09-10.43-0.09-5.05-11.24-11.94-2.08-11.94-2.08-5.13-4.09-9,1.31-9,1.31l-1.09-1.34-7.2.66L128.2,61.44l-1.85,1.84C118.84,57.14,115,64.37,115,64.37l-5.74-1.48v4.49l-7.12-4.85-0.91,4.77-2.77-2.8-5.25-1-5.45,3.15-5.59-3c-6-.12-9.51,6.67-9.51,6.67-4.19-5.64-8.7-5-8.7-5L53.15,66.28l-4.63,1.59-0.7,2.37-4.83-3-7.21.66v3.23l-1.21-.87s-3.5-2.88-8.35.5a8.7,8.7,0,0,1-.81-1.52l-5.05.33-1.68,4.24-2.14-3.88-2.11.32-1.8,3.36-1.49-2.92H4.68l5.87,15.95,3-.3,2-4.22,2,3.83,5.55-.5,0.81,16.08,8.5-.93,1-2.63,2.94-.26,1.07,1.83,4.29-.28,0.62,1.34c-7,1.9-5.26,12.43.23,13.26S52.31,110,52.31,110l-3.87,8.33,7.12-.73,0.79-1.39,2.91-.54L61,116.84l5.91-.46,0.93-1.23a8.53,8.53,0,0,0,10.35-2.39c8.36,6.08,15-.3,15-0.3l0.78,1,12.5-.32v-2.43l1.64-.7c7.15,7.53,15-2.34,15-2.34V111l14-.59,8.44-19.32a9,9,0,0,0,7-3.94L163.07,85c6.34,7.76,13.76-2.35,13.76-2.35,4.73,9.38,14.45.67,14.45,0.67L196,84.42l0.16-4.66,3.91-8.31Z"/><path class="cls-17" d="M17.54,94a6.61,6.61,0,0,1,6.12-6.77A5,5,0,0,1,28,88.5l-1.67,1.83a3,3,0,0,0-2.68-.86,4,4,0,0,0-3.58,4.29,3.39,3.39,0,0,0,4,3.64,6.21,6.21,0,0,0,2.34-.66v-2L23.5,95v-2.2l5.15-.47V97.8A8.42,8.42,0,0,1,24,99.63C20.13,100,17.54,97.58,17.54,94Z"/><path class="cls-17" d="M34.83,86.24l0.21,0L40.52,98l-2.59.24-0.67-1.58L32.61,97l-0.67,1.7L29.56,99Zm1.55,8.37-0.76-1.77a21.92,21.92,0,0,1-.72-2.09c0,0.05-.37,1.35-0.7,2.22l-0.76,1.91Z"/><path class="cls-17" d="M40.93,95.53l2-1.36a2.41,2.41,0,0,0,2.43,1.3A1.59,1.59,0,0,0,47,94.08c0-.86-0.67-1.1-1.8-1.5l-0.62-.21c-1.78-.61-3-1.46-3-3.5a3.7,3.7,0,0,1,3.61-3.63,3.29,3.29,0,0,1,3.51,1.68l-1.92,1.42a1.51,1.51,0,0,0-1.59-.93,1.2,1.2,0,0,0-1.18,1.18c0,0.75.46,1,1.52,1.38l0.62,0.21c2.1,0.72,3.28,1.54,3.28,3.63,0,2.25-1.74,3.64-4.09,3.85A4.28,4.28,0,0,1,40.93,95.53Z"/><path class="cls-17" d="M54,86.79l-3.42.31v-2.2l9.31-.85v2.2l-3.42.31v9.94L54,96.74V86.79Z"/><path class="cls-17" d="M61.51,83.91l4.44-.4c2.45-.22,4.46.75,4.46,3.59a4,4,0,0,1-2.34,3.77L70.8,95.2,68,95.46l-2.43-4L64,91.61v4.21l-2.47.22V83.91Zm4.37,5.42a1.86,1.86,0,0,0,2-2c0-1.36-.81-1.73-2-1.62l-1.9.17v3.62Z"/><path class="cls-17" d="M72,89a6.82,6.82,0,0,1,6.2-6.79,5.49,5.49,0,0,1,6.2,5.66,6.82,6.82,0,0,1-6.2,6.79A5.49,5.49,0,0,1,72,89Zm9.87-.9c0-2.27-1.48-3.86-3.67-3.66a4.14,4.14,0,0,0-3.67,4.33c0,2.27,1.48,3.86,3.67,3.66A4.14,4.14,0,0,0,81.89,88.12Z"/><path class="cls-17" d="M86.35,81.65l7.93-.72v2.2l-5.46.5V86.4L93.63,86v2.14l-4.81.44v2.82l5.71-.52V93l-8.18.75V81.65Z"/><path class="cls-17" d="M100.2,86.88a15.62,15.62,0,0,1-1.43-1.53,21.09,21.09,0,0,1,.18,2.2v5.09l-2.31.21V80.6l0.25,0,6,5.2a15,15,0,0,1,1.41,1.53s-0.16-1.36-.16-2.2V80l2.31-.21V92.06l-0.25,0Z"/><path class="cls-17" d="M111.55,81.55l-3.42.31v-2.2l9.31-.85V81l-3.42.31v9.94l-2.47.22V81.55Z"/><path class="cls-17" d="M119.08,78.67l7.93-.72v2.2l-5.46.5v2.78l4.81-.44v2.14l-4.81.44v2.82l5.71-.52v2.2l-8.18.75V78.67Z"/><path class="cls-17" d="M129.37,77.73l4.44-.4c2.45-.22,4.46.75,4.46,3.59a4,4,0,0,1-2.34,3.77L138.66,89l-2.82.26-2.43-4-1.57.14v4.21l-2.47.22V77.73Zm4.37,5.42a1.86,1.86,0,0,0,2-2c0-1.36-.81-1.73-2-1.62l-1.9.17v3.62Z"/><path class="cls-17" d="M139.88,82.84a6.82,6.82,0,0,1,6.2-6.79,5.49,5.49,0,0,1,6.2,5.66,6.82,6.82,0,0,1-6.2,6.79A5.49,5.49,0,0,1,139.88,82.84Zm9.87-.9c0-2.27-1.48-3.86-3.67-3.66a4.14,4.14,0,0,0-3.67,4.33c0,2.27,1.48,3.86,3.67,3.66A4.14,4.14,0,0,0,149.75,81.94Z"/><path class="cls-17" d="M154.21,75.47l2.47-.22v9.94l5.43-.49v2.2l-7.9.72V75.47Z"/><path class="cls-17" d="M163.07,80.73a6.82,6.82,0,0,1,6.2-6.79,5.49,5.49,0,0,1,6.2,5.66,6.82,6.82,0,0,1-6.2,6.79A5.49,5.49,0,0,1,163.07,80.73Zm9.87-.9c0-2.27-1.48-3.86-3.67-3.66a4.14,4.14,0,0,0-3.67,4.33c0,2.27,1.48,3.86,3.67,3.66A4.14,4.14,0,0,0,172.94,79.83Z"/><path class="cls-17" d="M177,79.46a6.61,6.61,0,0,1,6.12-6.77A5,5,0,0,1,187.46,74l-1.67,1.83a3,3,0,0,0-2.68-.86,4,4,0,0,0-3.58,4.29,3.39,3.39,0,0,0,4,3.64,6.21,6.21,0,0,0,2.34-.66v-2L183,80.5v-2.2l5.15-.47v5.43a8.42,8.42,0,0,1-4.6,1.83C179.59,85.45,177,83,177,79.46Z"/><path class="cls-17" d="M192.63,79.66l-4.16-7.31,2.77-.25,1.69,3.15c0.44,0.82,1,2.2,1,2.2s0.49-1.44.93-2.37l1.62-3.45,2.54-.23-3.88,7.87v4.62l-2.48.23V79.66Z"/><path class="cls-17" d="M54.92,116l-3.75.34,7-15.42c0.06-.16.19-0.17,0.25,0l7,14.15-4,.36-0.55-1.19-5.4.49Zm3.19-7.81-1.43,3.51,2.91-.27Z"/><path class="cls-17" d="M71.87,114.69a6.61,6.61,0,0,1-7.47-6.77,8.14,8.14,0,0,1,7.26-8.1c3.1-.28,5,0.87,6.2,2.55L75,104.62a3.2,3.2,0,0,0-3.25-1.43c-2.11.19-3.4,2.08-3.4,4.37s1.33,4,3.52,3.76A3.85,3.85,0,0,0,75.22,109l3,1.65A7.37,7.37,0,0,1,71.87,114.69Z"/><path class="cls-17" d="M88.76,108.07l-2.85.26v-3l6.26-.57v6.07a9.72,9.72,0,0,1-6.24,2.58c-4.22.38-7.72-2.37-7.72-6.75a8.29,8.29,0,0,1,7.64-8.13,6.37,6.37,0,0,1,5.76,2.06l-2.68,2.59a3.44,3.44,0,0,0-3.16-1.27c-2.34.21-3.63,2.1-3.63,4.39s1.31,4.07,3.84,3.84a6.26,6.26,0,0,0,2.78-.83v-1.24Z"/><path class="cls-17" d="M94.56,112.13l6.2-7.27a4.82,4.82,0,0,0,1.46-2.89,1.42,1.42,0,0,0-1.71-1.47,2.62,2.62,0,0,0-2.17,2.44l-3.44-.71a6.15,6.15,0,0,1,5.72-5c3.06-.28,5.34,1.29,5.34,4.13,0,1.84-.95,3.33-2.34,5l-2,2.34,4.26-.39v3.18l-11.24,1C94.43,112.44,94.39,112.32,94.56,112.13Z"/><path class="cls-17" d="M106.91,104a8.35,8.35,0,0,1,7.7-8.14c4.13-.38,7.7,2.35,7.7,6.73a8.37,8.37,0,0,1-7.7,8.16C110.48,111.17,106.91,108.42,106.91,104Zm11.47-1c0-2.29-1.37-3.93-3.77-3.71a4.13,4.13,0,0,0-3.77,4.4c0,2.29,1.37,4,3.77,3.74A4.15,4.15,0,0,0,118.39,103Z"/><path class="cls-17" d="M124.61,98.43l-2,.19V95.35l5.88-.54v14.53l-3.84.35V98.43Z"/><path class="cls-17" d="M136.67,97.33l-6.29.57V94.64L142,93.58c0.11,0,.15,0,0.06.23l-6.48,14.88-4,.37Z"/><path class="cls-17" d="M38.9,106.85a6.33,6.33,0,0,1,5.76-6.22c3.3-.3,5.61,1.66,5.61,4.72,0,2.18-.93,3.34-2.37,3.47a1.47,1.47,0,0,1-1.77-1,2.28,2.28,0,0,1-4.38-1.09,2.87,2.87,0,0,1,2.42-3,1.61,1.61,0,0,1,1.68.89l0-.9,1.36-.12v3.23c0,0.7.19,1,.75,1S49,107,49,105.47c0-2.61-1.68-4-4.38-3.74a4.84,4.84,0,0,0-4.45,5,3.81,3.81,0,0,0,4.49,4.11,6,6,0,0,0,2.25-.67l0.46,1a6.31,6.31,0,0,1-2.7.82C41.43,112.25,38.9,110.3,38.9,106.85Zm7-.54a1.31,1.31,0,0,0-1.31-1.49,1.59,1.59,0,0,0-1.35,1.73A1.27,1.27,0,0,0,44.55,108,1.61,1.61,0,0,0,45.86,106.31Z"/><path class="cls-18" d="M54.92,116l-3.75.34,7-15.42c0.06-.16.19-0.17,0.25,0l7,14.15-4,.36-0.55-1.19-5.4.49Zm3.19-7.81-1.43,3.51,2.91-.27Z"/><path class="cls-18" d="M71.87,114.69a6.61,6.61,0,0,1-7.47-6.77,8.14,8.14,0,0,1,7.26-8.1c3.1-.28,5,0.87,6.2,2.55L75,104.62a3.2,3.2,0,0,0-3.25-1.43c-2.11.19-3.4,2.08-3.4,4.37s1.33,4,3.52,3.76A3.85,3.85,0,0,0,75.22,109l3,1.65A7.37,7.37,0,0,1,71.87,114.69Z"/><path class="cls-18" d="M88.76,108.07l-2.85.26v-3l6.26-.57v6.07a9.72,9.72,0,0,1-6.24,2.58c-4.22.38-7.72-2.37-7.72-6.75a8.29,8.29,0,0,1,7.64-8.13,6.37,6.37,0,0,1,5.76,2.06l-2.68,2.59a3.44,3.44,0,0,0-3.16-1.27c-2.34.21-3.63,2.1-3.63,4.39s1.31,4.07,3.84,3.84a6.26,6.26,0,0,0,2.78-.83v-1.24Z"/><path class="cls-18" d="M94.56,112.13l6.2-7.27a4.82,4.82,0,0,0,1.46-2.89,1.42,1.42,0,0,0-1.71-1.47,2.62,2.62,0,0,0-2.17,2.44l-3.44-.71a6.15,6.15,0,0,1,5.72-5c3.06-.28,5.34,1.29,5.34,4.13,0,1.84-.95,3.33-2.34,5l-2,2.34,4.26-.39v3.18l-11.24,1C94.43,112.44,94.39,112.32,94.56,112.13Z"/><path class="cls-18" d="M106.91,104a8.35,8.35,0,0,1,7.7-8.14c4.13-.38,7.7,2.35,7.7,6.73a8.37,8.37,0,0,1-7.7,8.16C110.48,111.17,106.91,108.42,106.91,104Zm11.47-1c0-2.29-1.37-3.93-3.77-3.71a4.13,4.13,0,0,0-3.77,4.4c0,2.29,1.37,4,3.77,3.74A4.15,4.15,0,0,0,118.39,103Z"/><path class="cls-18" d="M124.61,98.43l-2,.19V95.35l5.88-.54v14.53l-3.84.35V98.43Z"/><path class="cls-18" d="M136.67,97.33l-6.29.57V94.64L142,93.58c0.11,0,.15,0,0.06.23l-6.48,14.88-4,.37Z"/><path class="cls-18" d="M38.9,106.85a6.33,6.33,0,0,1,5.76-6.22c3.3-.3,5.61,1.66,5.61,4.72,0,2.18-.93,3.34-2.37,3.47a1.47,1.47,0,0,1-1.77-1,2.28,2.28,0,0,1-4.38-1.09,2.87,2.87,0,0,1,2.42-3,1.61,1.61,0,0,1,1.68.89l0-.9,1.36-.12v3.23c0,0.7.19,1,.75,1S49,107,49,105.47c0-2.61-1.68-4-4.38-3.74a4.84,4.84,0,0,0-4.45,5,3.81,3.81,0,0,0,4.49,4.11,6,6,0,0,0,2.25-.67l0.46,1a6.31,6.31,0,0,1-2.7.82C41.43,112.25,38.9,110.3,38.9,106.85Zm7-.54a1.31,1.31,0,0,0-1.31-1.49,1.59,1.59,0,0,0-1.35,1.73A1.27,1.27,0,0,0,44.55,108,1.61,1.61,0,0,0,45.86,106.31Z"/><path class="cls-19" d="M17.54,94a6.61,6.61,0,0,1,6.12-6.77A5,5,0,0,1,28,88.5l-1.67,1.83a3,3,0,0,0-2.68-.86,4,4,0,0,0-3.58,4.29,3.39,3.39,0,0,0,4,3.64,6.21,6.21,0,0,0,2.34-.66v-2L23.5,95v-2.2l5.15-.47V97.8A8.42,8.42,0,0,1,24,99.63C20.13,100,17.54,97.58,17.54,94Z"/><path class="cls-19" d="M34.83,86.24l0.21,0L40.52,98l-2.59.24-0.67-1.58L32.61,97l-0.67,1.7L29.56,99Zm1.55,8.37-0.76-1.77a21.92,21.92,0,0,1-.72-2.09c0,0.05-.37,1.35-0.7,2.22l-0.76,1.91Z"/><path class="cls-19" d="M40.93,95.53l2-1.36a2.41,2.41,0,0,0,2.43,1.3A1.59,1.59,0,0,0,47,94.08c0-.86-0.67-1.1-1.8-1.5l-0.62-.21c-1.78-.61-3-1.46-3-3.5a3.7,3.7,0,0,1,3.61-3.63,3.29,3.29,0,0,1,3.51,1.68l-1.92,1.42a1.51,1.51,0,0,0-1.59-.93,1.2,1.2,0,0,0-1.18,1.18c0,0.75.46,1,1.52,1.38l0.62,0.21c2.1,0.72,3.28,1.54,3.28,3.63,0,2.25-1.74,3.64-4.09,3.85A4.28,4.28,0,0,1,40.93,95.53Z"/><path class="cls-19" d="M54,86.79l-3.42.31v-2.2l9.31-.85v2.2l-3.42.31v9.94L54,96.74V86.79Z"/><path class="cls-19" d="M61.51,83.91l4.44-.4c2.45-.22,4.46.75,4.46,3.59a4,4,0,0,1-2.34,3.77L70.8,95.2,68,95.46l-2.43-4L64,91.61v4.21l-2.47.22V83.91Zm4.37,5.42a1.86,1.86,0,0,0,2-2c0-1.36-.81-1.73-2-1.62l-1.9.17v3.62Z"/><path class="cls-19" d="M72,89a6.82,6.82,0,0,1,6.2-6.79,5.49,5.49,0,0,1,6.2,5.66,6.82,6.82,0,0,1-6.2,6.79A5.49,5.49,0,0,1,72,89Zm9.87-.9c0-2.27-1.48-3.86-3.67-3.66a4.14,4.14,0,0,0-3.67,4.33c0,2.27,1.48,3.86,3.67,3.66A4.14,4.14,0,0,0,81.89,88.12Z"/><path class="cls-19" d="M86.35,81.65l7.93-.72v2.2l-5.46.5V86.4L93.63,86v2.14l-4.81.44v2.82l5.71-.52V93l-8.18.75V81.65Z"/><path class="cls-19" d="M100.2,86.88a15.62,15.62,0,0,1-1.43-1.53,21.09,21.09,0,0,1,.18,2.2v5.09l-2.31.21V80.6l0.25,0,6,5.2a15,15,0,0,1,1.41,1.53s-0.16-1.36-.16-2.2V80l2.31-.21V92.06l-0.25,0Z"/><path class="cls-19" d="M111.55,81.55l-3.42.31v-2.2l9.31-.85V81l-3.42.31v9.94l-2.47.22V81.55Z"/><path class="cls-19" d="M119.08,78.67l7.93-.72v2.2l-5.46.5v2.78l4.81-.44v2.14l-4.81.44v2.82l5.71-.52v2.2l-8.18.75V78.67Z"/><path class="cls-19" d="M129.37,77.73l4.44-.4c2.45-.22,4.46.75,4.46,3.59a4,4,0,0,1-2.34,3.77L138.66,89l-2.82.26-2.43-4-1.57.14v4.21l-2.47.22V77.73Zm4.37,5.42a1.86,1.86,0,0,0,2-2c0-1.36-.81-1.73-2-1.62l-1.9.17v3.62Z"/><path class="cls-19" d="M139.88,82.84a6.82,6.82,0,0,1,6.2-6.79,5.49,5.49,0,0,1,6.2,5.66,6.82,6.82,0,0,1-6.2,6.79A5.49,5.49,0,0,1,139.88,82.84Zm9.87-.9c0-2.27-1.48-3.86-3.67-3.66a4.14,4.14,0,0,0-3.67,4.33c0,2.27,1.48,3.86,3.67,3.66A4.14,4.14,0,0,0,149.75,81.94Z"/><path class="cls-19" d="M154.21,75.47l2.47-.22v9.94l5.43-.49v2.2l-7.9.72V75.47Z"/><path class="cls-19" d="M163.07,80.73a6.82,6.82,0,0,1,6.2-6.79,5.49,5.49,0,0,1,6.2,5.66,6.82,6.82,0,0,1-6.2,6.79A5.49,5.49,0,0,1,163.07,80.73Zm9.87-.9c0-2.27-1.48-3.86-3.67-3.66a4.14,4.14,0,0,0-3.67,4.33c0,2.27,1.48,3.86,3.67,3.66A4.14,4.14,0,0,0,172.94,79.83Z"/><path class="cls-19" d="M177,79.46a6.61,6.61,0,0,1,6.12-6.77A5,5,0,0,1,187.46,74l-1.67,1.83a3,3,0,0,0-2.68-.86,4,4,0,0,0-3.58,4.29,3.39,3.39,0,0,0,4,3.64,6.21,6.21,0,0,0,2.34-.66v-2L183,80.5v-2.2l5.15-.47v5.43a8.42,8.42,0,0,1-4.6,1.83C179.59,85.45,177,83,177,79.46Z"/><path class="cls-19" d="M192.63,79.66l-4.16-7.31,2.77-.25,1.69,3.15c0.44,0.82,1,2.2,1,2.2s0.49-1.44.93-2.37l1.62-3.45,2.54-.23-3.88,7.87v4.62l-2.48.23V79.66Z"/><path class="cls-19" d="M7.47,72.53l2.61-.24L11.83,77c0.28,0.78.6,2,.63,2.14a15.52,15.52,0,0,1,.74-2.26l2.31-5.19,0.25,0,2.34,4.77a14.59,14.59,0,0,1,.74,2.13c0-.07.34-1.41,0.64-2.25l1.73-5,2.4-.22L19.25,83.7l-0.25,0-2.7-5.61a17.55,17.55,0,0,1-.67-1.72c0,0.05-.39,1.16-0.69,1.85l-2.8,6.11-0.25,0Z"/><path class="cls-19" d="M24.2,77.07a6.82,6.82,0,0,1,6.2-6.79,5.49,5.49,0,0,1,6.2,5.66,6.82,6.82,0,0,1-6.2,6.79A5.49,5.49,0,0,1,24.2,77.07Zm9.87-.9c0-2.27-1.48-3.86-3.67-3.66a4.14,4.14,0,0,0-3.67,4.33c0,2.27,1.48,3.86,3.67,3.66A4.14,4.14,0,0,0,34.07,76.17Z"/><path class="cls-19" d="M37.94,69.67l4.44-.4c2.45-.22,4.46.75,4.46,3.59a4,4,0,0,1-2.34,3.77L47.23,81l-2.82.26-2.43-4-1.57.14v4.21l-2.47.22V69.67Zm4.37,5.42a1.86,1.86,0,0,0,2-2c0-1.36-.81-1.73-2-1.62l-1.9.17v3.62Z"/><path class="cls-19" d="M49.2,68.64l2.47-.22v9.94l5.43-.49v2.2l-7.9.72V68.64Z"/><path class="cls-19" d="M59.27,67.72L63,67.39c3.68-.34,6.31,1.91,6.31,5.49A6.61,6.61,0,0,1,63,79.52l-3.68.34V67.72Zm3.56,9.62a3.91,3.91,0,0,0,3.88-4.23c0-2.27-1.22-3.76-3.88-3.52l-1.09.1v7.75Z"/><path class="cls-19" d="M75.19,72.34a6.78,6.78,0,0,1,6.17-6.77,4.74,4.74,0,0,1,4.79,2l-1.89,1.53a3,3,0,0,0-2.91-1.32,4.08,4.08,0,0,0-3.63,4.29c0,2.27,1.46,3.86,3.63,3.67a3.82,3.82,0,0,0,3.08-2.07l1.92,1.16a6.27,6.27,0,0,1-5,3.13A5.47,5.47,0,0,1,75.19,72.34Z"/><path class="cls-19" d="M87.79,71.19A6.82,6.82,0,0,1,94,64.4a5.49,5.49,0,0,1,6.2,5.66A6.82,6.82,0,0,1,94,76.86,5.49,5.49,0,0,1,87.79,71.19Zm9.87-.9c0-2.27-1.48-3.86-3.67-3.66A4.14,4.14,0,0,0,90.33,71c0,2.27,1.48,3.86,3.67,3.66A4.14,4.14,0,0,0,97.66,70.29Z"/><path class="cls-19" d="M106,70a15.62,15.62,0,0,1-1.43-1.53,21.09,21.09,0,0,1,.18,2.2v5.09l-2.31.21V63.68l0.25,0,6,5.2a15,15,0,0,1,1.41,1.53S110,69,110,68.19V63.1l2.31-.21V75.13l-0.25,0Z"/><path class="cls-19" d="M114.6,68.75A6.61,6.61,0,0,1,120.71,62a5,5,0,0,1,4.35,1.28l-1.67,1.83a3,3,0,0,0-2.68-.86,4,4,0,0,0-3.58,4.29,3.39,3.39,0,0,0,4,3.64,6.21,6.21,0,0,0,2.34-.66v-2l-2.89.26V67.6l5.15-.47v5.43a8.42,8.42,0,0,1-4.6,1.83C117.19,74.74,114.6,72.34,114.6,68.75Z"/><path class="cls-19" d="M128.2,61.44l4.44-.4c2.45-.22,4.46.75,4.46,3.59a4,4,0,0,1-2.34,3.77l2.73,4.34-2.82.26-2.43-4-1.57.14v4.21l-2.47.22V61.44Zm4.37,5.42a1.86,1.86,0,0,0,2-2c0-1.36-.81-1.73-2-1.62l-1.9.17V67Z"/><path class="cls-19" d="M139.47,60.41l7.93-.72v2.2l-5.46.5v2.78l4.81-.44v2.14l-4.81.44v2.82l5.71-.52v2.2l-8.18.75V60.41Z"/><path class="cls-19" d="M149.16,69.28l2-1.36a2.41,2.41,0,0,0,2.43,1.3,1.59,1.59,0,0,0,1.67-1.38c0-.86-0.67-1.1-1.8-1.5l-0.62-.21c-1.78-.61-3-1.46-3-3.5A3.7,3.7,0,0,1,153.51,59,3.29,3.29,0,0,1,157,60.67l-1.92,1.42a1.51,1.51,0,0,0-1.59-.93,1.2,1.2,0,0,0-1.18,1.18c0,0.75.46,1,1.52,1.38l0.62,0.21c2.1,0.72,3.28,1.54,3.28,3.63,0,2.25-1.74,3.64-4.09,3.85A4.28,4.28,0,0,1,149.16,69.28Z"/><path class="cls-19" d="M158.51,68.4l2-1.36a2.41,2.41,0,0,0,2.43,1.3,1.59,1.59,0,0,0,1.67-1.38c0-.86-0.67-1.1-1.8-1.5l-0.62-.21c-1.78-.61-3-1.46-3-3.5a3.7,3.7,0,0,1,3.61-3.63,3.29,3.29,0,0,1,3.51,1.68l-1.92,1.42a1.51,1.51,0,0,0-1.59-.93,1.2,1.2,0,0,0-1.18,1.18c0,0.75.46,1,1.52,1.38l0.62,0.21c2.1,0.72,3.28,1.54,3.28,3.63,0,2.25-1.74,3.64-4.09,3.85A4.28,4.28,0,0,1,158.51,68.4Z"/><path class="cls-19" d="M170.7,66a4.42,4.42,0,0,1,4.05-4.42A3.33,3.33,0,0,1,178.54,65a4.39,4.39,0,0,1-4.05,4.4A3.34,3.34,0,0,1,170.7,66Zm6-.84a1.82,1.82,0,0,0-2-2,2.55,2.55,0,0,0-2.2,2.75,1.82,1.82,0,0,0,2,2A2.53,2.53,0,0,0,176.74,65.13Z"/><path class="cls-19" d="M180.08,62.7l0.26-1.51,1.2-.11,0.53-3.14c0.3-1.72,1.13-2.64,2.59-2.77a2.14,2.14,0,0,1,2,.78l-1.13,1.16a0.88,0.88,0,0,0-.83-0.35,1,1,0,0,0-.93,1.1l-0.53,3.06,1.92-.18-0.25,1.5-1.94.18-1.34,7.87c-0.3,1.81-1,2.14-2.36,2.27l-1,.09,0.26-1.4,0.62-.06a0.8,0.8,0,0,0,.74-0.87l1.32-7.74Z"/></svg>