<svg id="Layer_1" data-name="Layer 1" xmlns="http://www.w3.org/2000/svg" viewBox="0 0 91.35 80.7"><defs><style>.cls-1{fill:#64665d;}.cls-2{fill:#a1a19e;}.cls-3{fill:#c6c6c4;}.cls-4{fill:#41413c;}</style></defs><title>icons-3</title><path class="cls-1" d="M290.5,275.5a1.15,1.15,0,0,0-1.7,0l-5,5a1.2,1.2,0,0,0,1.7,1.7l2.9-2.9v7.3a38.13,38.13,0,0,1-38.1,38,1.2,1.2,0,0,0,0,2.4,40.5,40.5,0,0,0,40.5-40.4v-7.4l3,3a1.49,1.49,0,0,0,.9.4,1.22,1.22,0,0,0,.9-0.4,1.15,1.15,0,0,0,0-1.7Zm-5.1.8,4.2-4.2,4.2,4.2a1.49,1.49,0,0,0,.9.4,1.22,1.22,0,0,0,.9-0.4,1.15,1.15,0,0,0,0-1.7l-5-5a1.15,1.15,0,0,0-1.7,0l-5,5a1.15,1.15,0,0,0,0,1.7A0.94,0.94,0,0,0,285.4,276.3Zm-70.3,14.8-2.9,2.9v-7.3a38.13,38.13,0,0,1,38.1-38,1.2,1.2,0,1,0,0-2.4,40.5,40.5,0,0,0-40.5,40.4v7.4l-3-3a1.2,1.2,0,1,0-1.7,1.7l5,5a1.49,1.49,0,0,0,.9.4,1.22,1.22,0,0,0,.9-0.4l5-5a1.15,1.15,0,0,0,0-1.7A1.27,1.27,0,0,0,215.1,291.1Zm0,6-4.2,4.2-4.2-4.2a1.2,1.2,0,1,0-1.7,1.7l5,5a1.49,1.49,0,0,0,.9.4,1.22,1.22,0,0,0,.9-0.4l5-5A1.2,1.2,0,1,0,215.1,297.1Zm37.7,20.1h0a31,31,0,0,0,21.7-11.7,0.53,0.53,0,0,0,.2-0.3h0a30.29,30.29,0,0,0,6.2-18.5,30.69,30.69,0,0,0-30.7-30.6,19.27,19.27,0,0,0-2.4.1h-0.6a30.22,30.22,0,0,0-21,11.5,1.21,1.21,0,0,0-.5.5,0.35,0.35,0,0,1-.1.2,30.58,30.58,0,0,0,24.6,48.9A21.76,21.76,0,0,0,252.8,317.2Zm4.6-3.3a34.9,34.9,0,0,0,8.3-11.4,53.59,53.59,0,0,1,6,2.4A27.46,27.46,0,0,1,257.4,313.9ZM273.2,303a38.09,38.09,0,0,0-6.6-2.7,36.45,36.45,0,0,0,2.4-12.4h9.4A27.45,27.45,0,0,1,273.2,303Zm0-32.6a27.45,27.45,0,0,1,5.2,15.1H269a36.93,36.93,0,0,0-2.4-12.4A38.09,38.09,0,0,0,273.2,270.4Zm-1.5-2a53.58,53.58,0,0,1-6,2.4,35.42,35.42,0,0,0-8.1-11.3A29.18,29.18,0,0,1,271.7,268.4Zm-20.2-9.8a4.1,4.1,0,0,1,1.1.1,31.66,31.66,0,0,1,10.7,12.8,50.88,50.88,0,0,1-11.8,1.6V258.6h0Zm0,17a54.16,54.16,0,0,0,12.8-1.8,34.79,34.79,0,0,1,2.3,11.7H251.5v-9.9h0Zm0,12.3h15.1a35.37,35.37,0,0,1-2.4,11.7,52.6,52.6,0,0,0-12.7-1.8v-9.9h0Zm0,12.4a50,50,0,0,1,11.7,1.6,33.14,33.14,0,0,1-10.8,12.9,2.77,2.77,0,0,0-.9.1V300.3h0ZM243,259.5a35.7,35.7,0,0,0-8.2,11.3,53.59,53.59,0,0,1-6-2.4A29,29,0,0,1,243,259.5Zm-15.7,10.9a38.09,38.09,0,0,0,6.6,2.7,36.93,36.93,0,0,0-2.4,12.4h-9.4A27.45,27.45,0,0,1,227.3,270.4Zm0,32.6a27.45,27.45,0,0,1-5.2-15.1h9.4a39.57,39.57,0,0,0,2.4,12.4A65,65,0,0,0,227.3,303Zm1.6,2a39.52,39.52,0,0,1,6-2.4,36,36,0,0,0,8.3,11.4A28.35,28.35,0,0,1,228.9,305Zm20.2,9.8a2.77,2.77,0,0,1-.9-0.1,31.53,31.53,0,0,1-10.8-12.9,50,50,0,0,1,11.7-1.6v14.6Zm0-17a53.32,53.32,0,0,0-12.7,1.8,38.09,38.09,0,0,1-2.4-11.7h15.1v9.9h0Zm0-12.3H234a34.79,34.79,0,0,1,2.3-11.7,54.15,54.15,0,0,0,12.8,1.8v9.9Zm0-12.3a50.88,50.88,0,0,1-11.8-1.6,31.25,31.25,0,0,1,10.8-12.8c0.4,0,.7-0.1,1.1-0.1v14.5h-0.1Z" transform="translate(-204.63 -246.3)"/><circle class="cls-2" cx="36.27" cy="31.7" r="2.2"/><path class="cls-3" d="M239.3,291c-0.3,0-.5.1-0.7,0.1a2.17,2.17,0,0,0-2-1.4,2.2,2.2,0,0,0,0,4.4c0.3,0,.5-0.1.7-0.1a2.17,2.17,0,0,0,2,1.4,2.22,2.22,0,0,0,2.2-2.2A2.29,2.29,0,0,0,239.3,291Z" transform="translate(-204.63 -246.3)"/><ellipse class="cls-2" cx="69.77" cy="32.5" rx="2.1" ry="2.2"/><circle class="cls-3" cx="23.87" cy="34.5" r="2.2"/><circle class="cls-4" cx="253.51" cy="261.57" r="2.2" transform="translate(-239.01 238.45) rotate(-83.68)"/><circle class="cls-2" cx="52.27" cy="54.9" r="2.2"/><circle class="cls-2" cx="34.67" cy="46.9" r="2.2"/><circle class="cls-3" cx="69.47" cy="46.5" r="2.2"/><circle class="cls-4" cx="263.95" cy="298.2" r="2.2" transform="matrix(0.11, -0.99, 0.99, 0.11, -266.1, 281.45)"/><circle class="cls-3" cx="53.47" cy="22.5" r="2.2"/><circle class="cls-3" cx="52.67" cy="36.1" r="2.2"/></svg>