<svg id="Layer_1" data-name="Layer 1" xmlns="http://www.w3.org/2000/svg" viewBox="0 0 78.1 62"><defs><style>.cls-1{fill:#64665d;}</style></defs><title>icons-4</title><path class="cls-1" d="M279,122.1H211.3a5.23,5.23,0,0,0-5.2,5.2v41.9a5.23,5.23,0,0,0,5.2,5.2h32.2v6.5H232.1a1.6,1.6,0,1,0,0,3.2h26a1.6,1.6,0,1,0,0-3.2H246.7v-6.5H279a5.23,5.23,0,0,0,5.2-5.2V127.3A5.23,5.23,0,0,0,279,122.1Zm2,47.1a2,2,0,0,1-2,2H211.3a2,2,0,0,1-2-2v-3.8H281v3.8Zm0-7H209.4V127.3a2,2,0,0,1,2-2H279a2,2,0,0,1,2,2v34.9Zm-35.6,8a2,2,0,1,0-2-2A2,2,0,0,0,245.4,170.2ZM245.2,130a13.7,13.7,0,1,0,13.7,13.7A13.72,13.72,0,0,0,245.2,130Zm0,24.2a10.5,10.5,0,1,1,10.5-10.5A10.5,10.5,0,0,1,245.2,154.2Zm4.3-15.9-7.1,8.1-1.5-1.9a1.57,1.57,0,1,0-2.5,1.9l2.7,3.4a1.43,1.43,0,0,0,1.2.6h0a1.66,1.66,0,0,0,1.2-.5l8.3-9.5A1.56,1.56,0,0,0,249.5,138.3Z" transform="translate(-206.1 -122.1)"/></svg>