<svg id="Layer_1" data-name="Layer 1" xmlns="http://www.w3.org/2000/svg" viewBox="0 0 80.8 75.3"><defs><style>.cls-1{fill:#64665d;}</style></defs><title>icons-5</title><path class="cls-1" d="M385.2,170.1l5.1,5,1.8-1.7-5.1-5,3.3-2.1-10.6-3.4,3.4,10.5Zm26.7,12.7h-3.3V155.2a3,3,0,0,0-3-3H366.1a3,3,0,0,0-3,3v27.6h-3.3a1.11,1.11,0,0,0-1.1,1.1,6.64,6.64,0,0,0,6.3,6.8h41.8a6.71,6.71,0,0,0,6.3-6.8A1.28,1.28,0,0,0,411.9,182.8Zm-46.6-27.6a0.86,0.86,0,0,1,.8-0.8h39.5a0.86,0.86,0,0,1,.8.8v27.5H365.3V155.2h0Zm41.5,33.3H365a4.52,4.52,0,0,1-4-3.5h49.8A4.48,4.48,0,0,1,406.8,188.5Zm-4.7-30.8H369.6a1.11,1.11,0,0,0-1.1,1.1v19.8a1.11,1.11,0,0,0,1.1,1.1h32.5a1.11,1.11,0,0,0,1.1-1.1V158.8A1,1,0,0,0,402.1,157.7ZM401,177.4H370.7V159.8H401v17.6Zm-42.9-32.3a3.92,3.92,0,0,0-.8-1,2.6,2.6,0,0,0-1.5-.4h-12a2.42,2.42,0,0,0-2.5,1.8,2,2,0,0,0-.1.8v6.1a4.16,4.16,0,0,0,.3,1.3,3.92,3.92,0,0,0,.8,1,2.41,2.41,0,0,0,1.5.4h6.3l3.8,3.8a0.52,0.52,0,0,0,.4.2h0.2a0.55,0.55,0,0,0,.3-0.5v-3.5h0.4a4.39,4.39,0,0,0,1.9-.3,2.84,2.84,0,0,0,1-.9,2.6,2.6,0,0,0,.4-1.5v-6.1A8.33,8.33,0,0,0,358.1,145.1Zm63.6-16a3.63,3.63,0,0,0-1.3-1.9,3.17,3.17,0,0,0-2-.6H402.9a3.61,3.61,0,0,0-2,.6,2.85,2.85,0,0,0-1.1,1.3,3.41,3.41,0,0,0-.4,1.6V138a3.61,3.61,0,0,0,.6,2,2.85,2.85,0,0,0,1.3,1.1,5.14,5.14,0,0,0,2.5.4h0.5V146a0.68,0.68,0,0,0,.4.6c0.1,0,.2.1,0.3,0.1a1.06,1.06,0,0,0,.5-0.2l4.9-5h8.1a3.61,3.61,0,0,0,2-.6,2.85,2.85,0,0,0,1.1-1.3,3.41,3.41,0,0,0,.4-1.6v-7.9A2.24,2.24,0,0,1,421.7,129.1Zm-47.6,9.2,7.6,7.6a1.08,1.08,0,0,0,.7.3,0.6,0.6,0,0,0,.4-0.1,1,1,0,0,0,.6-0.9v-6.9h0.8a9.3,9.3,0,0,0,3.9-.6A4.51,4.51,0,0,0,390,136a5.38,5.38,0,0,0,.9-3.1V120.7a7,7,0,0,0-.6-2.5,4.51,4.51,0,0,0-1.7-1.9,5.07,5.07,0,0,0-3-.9H361.7a5.07,5.07,0,0,0-3,.9,5,5,0,0,0-2,2.9c-0.1.4-.2,1-0.3,1.6V133a7,7,0,0,0,.6,2.5,4.51,4.51,0,0,0,1.7,1.9,5.89,5.89,0,0,0,3,.9h12.4Zm-14.4-2.6a3.6,3.6,0,0,1-1.4-2.9V120.7a3.59,3.59,0,0,1,.2-1.1,2.91,2.91,0,0,1,1.2-1.8,3.83,3.83,0,0,1,1.9-.5h24a3.83,3.83,0,0,1,1.9.5,2.81,2.81,0,0,1,1,1.2,3.53,3.53,0,0,1,.4,1.7v12.1a3.83,3.83,0,0,1-.5,1.9,3.33,3.33,0,0,1-1.1,1,7.22,7.22,0,0,1-3.1.4h-1.7a1,1,0,0,0-1,1v5.5l-6.1-6.2a1.08,1.08,0,0,0-.7-0.3h-13A2.26,2.26,0,0,1,359.7,135.7Z" transform="translate(-341.2 -115.4)"/></svg>