<svg id="Layer_1" data-name="Layer 1" xmlns="http://www.w3.org/2000/svg" viewBox="0 0 79.79 101.2"><defs><style>.cls-1{fill:#64665d;}</style></defs><title>icons-1</title><path class="cls-1" d="M113,126.3a9.17,9.17,0,0,0,3.8.7v5.4a2.43,2.43,0,0,0,1.4,2.1h0a2.92,2.92,0,0,0,.9.2,2,2,0,0,0,1.6-.7l7-7h11.8a6.41,6.41,0,0,0,3.6-1.1,6.11,6.11,0,0,0,2.1-2.4,6.94,6.94,0,0,0,.7-3V108.8a7.52,7.52,0,0,0-.3-1.9,6,6,0,0,0-2.5-3.5,7,7,0,0,0-3.7-1.1H116a6.47,6.47,0,0,0-3.7,1.1,6.11,6.11,0,0,0-2.1,2.4,6.94,6.94,0,0,0-.7,3v11.7a6.71,6.71,0,0,0,1.1,3.7A6,6,0,0,0,113,126.3ZM112.2,109a4.34,4.34,0,0,1,.5-1.9,4.07,4.07,0,0,1,1.2-1.4,4.14,4.14,0,0,1,2.3-.6h23.6a3.7,3.7,0,0,1,2.1.6,4.08,4.08,0,0,1,1.5,2.1,3.73,3.73,0,0,1,.2,1.2v11.6a4.34,4.34,0,0,1-.5,1.9,4.07,4.07,0,0,1-1.2,1.4,3.92,3.92,0,0,1-2.3.6H127.3a1.09,1.09,0,0,0-.9.4l-6.9,6.8v-5.9a1.32,1.32,0,0,0-1.3-1.3h-0.7c-2.1,0-2.9-.3-3.2-0.5a3.33,3.33,0,0,1-1.4-1.2,4,4,0,0,1-.6-2.2Zm4.3,45.8a1.83,1.83,0,0,0-1.7-1.3,61.84,61.84,0,0,0-13.6,0,2.1,2.1,0,0,0-1.7,1.3l-6.7,17.4a1.3,1.3,0,0,0,.8,1.7,0.9,0.9,0,0,0,.5.1,1.3,1.3,0,0,0,1.2-.8l6.6-17.2a63.19,63.19,0,0,1,12.3,0l6.6,17.2a1.25,1.25,0,0,0,1.7.7,1.38,1.38,0,0,0,.8-1.7Zm8.5-6.7a6.68,6.68,0,0,1-1.7-2c-0.3-.5-0.5-1.1-0.8-1.7a8.86,8.86,0,0,0-.8-1.7,7.49,7.49,0,0,0-3-3.1,7.73,7.73,0,0,0-5.3-.6,7.32,7.32,0,1,0-5.3,12.3,7.53,7.53,0,0,0,7.2-5.4,8,8,0,0,0,1.6,3.2,6.67,6.67,0,0,0,4.9,2.2,6.94,6.94,0,0,0,3.5-1,1.22,1.22,0,0,0,.6-1.2A2.19,2.19,0,0,0,125,148.1Zm-17,.7a4.74,4.74,0,0,1-4.8-4.8,4.87,4.87,0,0,1,4.8-4.8,4.8,4.8,0,0,1,4.5,3.1,2.39,2.39,0,0,0,.2.9c0,0.2.1,0.5,0.1,0.7A4.76,4.76,0,0,1,108,148.8Zm10.7-1.3a6.14,6.14,0,0,1-1.1-2.3c-0.4-1.3-.9-2.9-2.6-3.6a0.35,0.35,0,0,0-.1-0.2,5.08,5.08,0,0,1,2.5.4,4.54,4.54,0,0,1,2,2.1c0.2,0.5.5,1,.7,1.5s0.5,1.3.9,2a9.9,9.9,0,0,0,1.1,1.5A4.5,4.5,0,0,1,118.7,147.5Zm-2.2,21.1a1.16,1.16,0,0,0-1.6-.8,1.28,1.28,0,0,0-.9,1.6l4.8,15.5h-3.4a1,1,0,0,0-.9.4,1.8,1.8,0,0,0-.4.9l0.6,14.8h-2.1l-1.4-15a1.3,1.3,0,0,0-1.3-1.2H106a1.31,1.31,0,0,0-1.3,1.2l-1.4,15h-2.1l0.6-14.8a1.37,1.37,0,0,0-1.3-1.3H97.1l4.9-15.5a1.28,1.28,0,0,0-.9-1.6,1.31,1.31,0,0,0-1.6.8l-5.4,17.2a1.39,1.39,0,0,0,.2,1.1,1.23,1.23,0,0,0,1,.5h3.8l-0.6,14.8a1.37,1.37,0,0,0,1.3,1.3h4.7a1.31,1.31,0,0,0,1.3-1.2l1.4-15h1.5l1.4,15a1.3,1.3,0,0,0,1.3,1.2h4.7a1,1,0,0,0,.9-0.4,1.8,1.8,0,0,0,.4-0.9l-0.6-14.8h3.8a1.23,1.23,0,0,0,1-.5,1.39,1.39,0,0,0,.2-1.1ZM86.2,146.8a1.63,1.63,0,0,0-1.3-1.1,50.25,50.25,0,0,0-9.5,0,1.55,1.55,0,0,0-1.3,1L69.4,159a1.08,1.08,0,1,0,2,.8L76,147.9a39.31,39.31,0,0,1,8.4,0L89,159.8a1.2,1.2,0,0,0,1,.7,0.6,0.6,0,0,0,.4-0.1A1,1,0,0,0,91,159Zm0,9.7a1,1,0,0,0-2,.6l3.3,10.6H85.4a1,1,0,0,0-1.1,1.1L84.7,179H83.5l-0.9-10.4a1,1,0,0,0-1.1-1H78.8a1.09,1.09,0,0,0-1.1,1L76.8,179H75.6L76,168.8a1,1,0,0,0-1.1-1.1H72.8l3.3-10.6a1,1,0,0,0-2-.6l-3.8,12a1,1,0,0,0,.2.9,1,1,0,0,0,.9.4h2.5L73.5,180a1,1,0,0,0,1.1,1.1h3.3a1.09,1.09,0,0,0,1.1-1l0.9-10.4h0.7l0.9,10.4a1,1,0,0,0,1.1,1h3.3A1,1,0,0,0,87,180l-0.4-10.2h2.5a1.49,1.49,0,0,0,.9-0.4,1,1,0,0,0,.2-0.9ZM92.1,142a7.41,7.41,0,0,1-1.2-1.3l-0.6-1.2a6.72,6.72,0,0,0-.6-1.2,5.19,5.19,0,0,0-2.2-2.2,5.08,5.08,0,0,0-3.7-.4,5.29,5.29,0,0,0-3.8-1.6,5.3,5.3,0,1,0,5,7.2,5.42,5.42,0,0,0,1,1.8,4.88,4.88,0,0,0,3.6,1.6,4.75,4.75,0,0,0,2.5-.7,1,1,0,0,0,.5-1A0.94,0.94,0,0,0,92.1,142Zm-12,.5a3.16,3.16,0,0,1-3.2-3.2,3.22,3.22,0,0,1,3.2-3.2,3.26,3.26,0,0,1,3,2.1,0.73,0.73,0,0,0,.2.6v0.5A3.16,3.16,0,0,1,80.1,142.5Zm7.6-.8a3.9,3.9,0,0,1-.7-1.6,4.33,4.33,0,0,0-1.6-2.5,2.66,2.66,0,0,1,1.2.3,2.56,2.56,0,0,1,1.3,1.4c0.2,0.3.3,0.7,0.5,1a9.14,9.14,0,0,0,.7,1.4,5,5,0,0,0,.6.8A2.88,2.88,0,0,1,87.7,141.7Zm55.1,14.8a1,1,0,0,0-2,.6l3.3,10.6H142a1,1,0,0,0-1.1,1.1l0.4,10.2H140l-0.9-10.4a1,1,0,0,0-1.1-1h-2.7a1.09,1.09,0,0,0-1.1,1L133.3,179h-1.2l0.4-10.2a1,1,0,0,0-1.1-1.1h-2.1l3.3-10.6a1,1,0,0,0-2-.6l-3.8,12a1,1,0,0,0,.2.9,1,1,0,0,0,.9.4h2.5L130,180a1,1,0,0,0,1.1,1.1h3.3a1.09,1.09,0,0,0,1.1-1l0.9-10.4h0.7l0.9,10.4a1,1,0,0,0,1.1,1h3.3a1,1,0,0,0,1.1-1.1l-0.4-10.2h2.5a1.49,1.49,0,0,0,.9-0.4,1,1,0,0,0,.2-0.9Zm5.8-14.5a7.41,7.41,0,0,1-1.2-1.3l-0.6-1.2a6.72,6.72,0,0,0-.6-1.2,5.19,5.19,0,0,0-2.2-2.2,5.08,5.08,0,0,0-3.7-.4,5.29,5.29,0,0,0-3.8-1.6,5.3,5.3,0,1,0,5,7.2,5.42,5.42,0,0,0,1,1.8,4.88,4.88,0,0,0,3.6,1.6,4.75,4.75,0,0,0,2.5-.7,1,1,0,0,0,.5-1A0.83,0.83,0,0,0,148.6,142Zm-11.9.5a3.16,3.16,0,0,1-3.2-3.2,3.22,3.22,0,0,1,3.2-3.2,3.26,3.26,0,0,1,3,2.1,0.73,0.73,0,0,0,.2.6v0.5A3.22,3.22,0,0,1,136.7,142.5Zm7.6-.8a3.9,3.9,0,0,1-.7-1.6,4.33,4.33,0,0,0-1.6-2.5,2.66,2.66,0,0,1,1.2.3,2.56,2.56,0,0,1,1.3,1.4c0.2,0.3.3,0.7,0.5,1a9.14,9.14,0,0,0,.7,1.4,5,5,0,0,0,.6.8A2.88,2.88,0,0,1,144.3,141.7Zm-1.5,5.1a1.63,1.63,0,0,0-1.3-1.1,50.25,50.25,0,0,0-9.5,0,1.55,1.55,0,0,0-1.3,1L126,158.9a1.11,1.11,0,0,0,.6,1.4c0.1,0,.3.1,0.4,0.1a1.2,1.2,0,0,0,1-.7l4.6-11.9a39.31,39.31,0,0,1,8.4,0l4.6,11.9a1.08,1.08,0,1,0,2-.8Z" transform="translate(-69.34 -102.3)"/></svg>