<svg id="Layer_1" data-name="Layer 1" xmlns="http://www.w3.org/2000/svg" viewBox="0 0 104.1 90.93"><defs><style>.cls-1{fill:#64665d;}</style></defs><title>icons-6</title><path class="cls-1" d="M402.2,278.4a4.44,4.44,0,0,0,4.4-4.4,4.39,4.39,0,0,0,3.1-1.3,4.77,4.77,0,0,0,1.2-2.2l2.1-2.1a15.93,15.93,0,0,0-21.8-23.2,15.93,15.93,0,0,0-21.8,23.2l2.3,2.3a4.21,4.21,0,0,0,1.1,4.6,4.39,4.39,0,0,0,3.1,1.3,4.57,4.57,0,0,0,1.3,3.1,4.39,4.39,0,0,0,3.1,1.3,4.57,4.57,0,0,0,1.3,3.1,4.39,4.39,0,0,0,3.1,1.3,4.57,4.57,0,0,0,1.3,3.1,4.63,4.63,0,0,0,3.2,1.3,4.82,4.82,0,0,0,3.2-1.3l4.1-4.1a3.91,3.91,0,0,0,1-1.6,4.29,4.29,0,0,0,3.7-1.3A6.68,6.68,0,0,0,402.2,278.4Zm-9.9-30.6a13,13,0,0,1,9.3-3.8,13.25,13.25,0,0,1,9.3,3.8,13,13,0,0,1,0,18.6l-0.7.7c-0.2-.3-0.4-0.5-0.6-0.8l-13.6-14a1.45,1.45,0,0,0-2,0l-4.5,4.4c-1.7,1.7-4.4.7-6-.2ZM377,273.3a1.69,1.69,0,0,1-2.4,0,1.68,1.68,0,0,1-.2-2.2l4.3-4.3a1.82,1.82,0,0,1,2.4,0,1.63,1.63,0,0,1,0,2.4Zm2,4.4a1.68,1.68,0,0,1-.2-2.2l4.3-4.3a1.82,1.82,0,0,1,2.4,0,1.63,1.63,0,0,1,0,2.4l-4.1,4.1A1.63,1.63,0,0,1,379,277.7Zm4.4,4.4a1.66,1.66,0,0,1-.5-1.2,1.69,1.69,0,0,1,.3-1l4.3-4.3a1.69,1.69,0,0,1,2.4,0,1.72,1.72,0,0,1,0,2.4l-4.1,4.1A1.82,1.82,0,0,1,383.4,282.1Zm10.8,0.3-4.1,4.1a1.7,1.7,0,0,1-2.9-1.2,1.69,1.69,0,0,1,.3-1l4.3-4.3a1.7,1.7,0,0,1,2.9,1.2A1.84,1.84,0,0,1,394.2,282.4Zm-4.3-14.2,9,8.9a1.69,1.69,0,0,1,0,2.4,1.56,1.56,0,0,1-1.6.4,4.53,4.53,0,0,0-1.1-1.9,4.39,4.39,0,0,0-3.1-1.3,4.44,4.44,0,0,0-4.4-4.4,4.57,4.57,0,0,0-1.3-3.1,4.39,4.39,0,0,0-3.1-1.3,4.39,4.39,0,0,0-1.3-3.1,4.53,4.53,0,0,0-6.3,0l-3.5,3.5-2-2a13,13,0,0,1,0-18.6,13.33,13.33,0,0,1,17.8-.8l-8.7,8.7a1.5,1.5,0,0,0-.4,1.1,1.23,1.23,0,0,0,.5,1c0.3,0.2,6.7,5.2,11.1.8l3.5-3.4,12.7,13.1a1.66,1.66,0,0,1,.5,1.2,2.1,2.1,0,0,1-.4,1.1l-0.1.1a1.69,1.69,0,0,1-2.4,0l-8.7-8.7a0.35,0.35,0,0,0-.2-0.1l-0.1-.1a1.28,1.28,0,0,0-1-.4h0a1.41,1.41,0,0,0-1,2.4l9,8.9a1.7,1.7,0,0,1-2.4,2.4l-8.7-8.7-0.1-.1-0.1-.1a1.52,1.52,0,0,0-2,0,1.28,1.28,0,0,0-.4,1A1.43,1.43,0,0,0,389.9,268.2Zm-30.8,21.4a21.3,21.3,0,1,0,21.4,21.3A21.4,21.4,0,0,0,359.1,289.6Zm0,39.7a18.4,18.4,0,1,1,18.5-18.4A18.5,18.5,0,0,1,359.1,329.3Zm1.9-19.5-3-.7h0a7.46,7.46,0,0,1-3-1.2,2.17,2.17,0,0,1-.7-1.8,3.47,3.47,0,0,1,1.1-2.6,5.34,5.34,0,0,1,3.6-1.1,5.15,5.15,0,0,1,4.1,1.5,5.37,5.37,0,0,1,1,2.3,1.47,1.47,0,0,0,2.9-.5,7,7,0,0,0-1.7-3.8,7.12,7.12,0,0,0-4.6-2.4v-2.2a1.5,1.5,0,0,0-3,0v2.1a7.9,7.9,0,0,0-4.2,1.6,6.09,6.09,0,0,0-2.2,4.8,4.77,4.77,0,0,0,1.8,4,9.14,9.14,0,0,0,4.2,1.8l3.1,0.7a7.46,7.46,0,0,1,3,1.2,2.17,2.17,0,0,1,.7,1.8,3.47,3.47,0,0,1-1.1,2.6,5.34,5.34,0,0,1-3.6,1,5.15,5.15,0,0,1-4.1-1.5,5.37,5.37,0,0,1-1-2.3,1.48,1.48,0,0,0-1.7-1.2,1.46,1.46,0,0,0-.9.6,1.39,1.39,0,0,0-.2,1.1,7.36,7.36,0,0,0,1.6,3.7,7.12,7.12,0,0,0,4.6,2.4v2.2a1.5,1.5,0,0,0,3,0v-2.1a7.9,7.9,0,0,0,4.2-1.6,6.09,6.09,0,0,0,2.2-4.8,4.77,4.77,0,0,0-1.8-4A13.87,13.87,0,0,0,361,309.8Zm59.4-2a1.4,1.4,0,1,0,0,2.8,6.7,6.7,0,0,1,6.7,6.7,1.5,1.5,0,0,0,3,0A9.73,9.73,0,0,0,420.4,307.8Zm0,16.2a6.7,6.7,0,0,1-6.7-6.7,1.5,1.5,0,0,0-3,0,9.6,9.6,0,0,0,9.6,9.6A1.45,1.45,0,0,0,420.4,324Zm21.3-29.8a2.26,2.26,0,0,0-2.3-2.3H401.3a2.26,2.26,0,0,0-2.3,2.3v5.7c0,0.1,0,.1.1,0.1l9.8,9.8a13.51,13.51,0,0,0-2.3,7.5,13.8,13.8,0,0,0,27.6,0,13.27,13.27,0,0,0-2.3-7.5l9.2-9.1a2.23,2.23,0,0,0,.7-1.9c-0.1-1.8-.1-4.4-0.1-4.6h0Zm-40.2,4.7v-4.5h0.9l11.1,11a11.33,11.33,0,0,0-3,2.4Zm10.8,1.9h16.1l-3.6,3.6a13.06,13.06,0,0,0-9,0Zm8.1,27.4a10.9,10.9,0,1,1,10.9-10.9A10.93,10.93,0,0,1,420.4,328.2Zm9.9-20.4a17.55,17.55,0,0,0-3-2.4l4.7-4.7h5.4Zm8.9-9.6H409.8l-3.8-3.8h33.3v3.8h-0.1Z" transform="translate(-337.7 -241.27)"/></svg>