<svg id="Layer_1" data-name="Layer 1" xmlns="http://www.w3.org/2000/svg" viewBox="0 0 99.95 73.1"><defs><style>.cls-1{fill:#64665d;}</style></defs><title>icons-2</title><path class="cls-1" d="M141.3,286.4a1.22,1.22,0,0,0,1.3,1.1h0.2a1.29,1.29,0,0,0,1.1-1.5,29.07,29.07,0,0,0-7.5-16,1.39,1.39,0,0,0-1.9-.1,1.19,1.19,0,0,0-.1,1.8A26.48,26.48,0,0,1,141.3,286.4ZM87,285.2h0.3a1.38,1.38,0,0,0,1.3-1A26.49,26.49,0,0,1,94.9,272a1.27,1.27,0,0,0-.1-1.8,1.4,1.4,0,0,0-1.9.1A29.68,29.68,0,0,0,86,283.7,1.29,1.29,0,0,0,87,285.2Zm39.4,28.6a27,27,0,0,1-12.8,2.6,1.3,1.3,0,1,0-.1,2.6h1.3a29.94,29.94,0,0,0,12.8-2.9,1.23,1.23,0,0,0,.6-1.7A1.48,1.48,0,0,0,126.4,313.8ZM98.9,269.4a5.74,5.74,0,0,0,1.9,2.2,6.76,6.76,0,0,0,3.3,1h10.6l6.4,6.3a2,2,0,0,0,1.5.6,2.35,2.35,0,0,0,.8-0.2,2.05,2.05,0,0,0,1.3-1.9v-4.9a9.75,9.75,0,0,0,3.5-.7,5.74,5.74,0,0,0,2.2-1.9,6.11,6.11,0,0,0,1-3.3V255.9a6.24,6.24,0,0,0-.7-2.7,4.84,4.84,0,0,0-1.9-2.1,6.11,6.11,0,0,0-3.3-1H104.3a5.89,5.89,0,0,0-3.4,1,5.48,5.48,0,0,0-2.3,3.2,5.66,5.66,0,0,0-.3,1.8v10.7A5.86,5.86,0,0,0,98.9,269.4Zm1.8-14.4a3.28,3.28,0,0,1,1.3-1.9,3.61,3.61,0,0,1,2-.6h21.2a3.5,3.5,0,0,1,3.1,1.8,3.87,3.87,0,0,1,.4,1.7v10.6a3.17,3.17,0,0,1-.6,2,2.85,2.85,0,0,1-1.3,1.1,8.14,8.14,0,0,1-2.9.4h-0.7a1.22,1.22,0,0,0-1.2,1.2v5.4l-6.2-6.2a1.14,1.14,0,0,0-.8-0.3H103.9a3.28,3.28,0,0,1-2.1-.6,3.18,3.18,0,0,1-1.1-1.2,3.87,3.87,0,0,1-.4-1.7V256.1A2.46,2.46,0,0,0,100.7,255Zm58.9,38a11.09,11.09,0,0,0-15-.6,11,11,0,0,0-15,16.2l1.5,1.5a2.8,2.8,0,0,0,.8,3.2,2.88,2.88,0,0,0,2.1.9,4,4,0,0,0,.9,2.1,2.88,2.88,0,0,0,2.1.9,4,4,0,0,0,.9,2.1,2.88,2.88,0,0,0,2.1.9,4.35,4.35,0,0,0,.9,2.1,3.39,3.39,0,0,0,4.6,0l2.8-2.8a4.13,4.13,0,0,0,.7-1.1h0.2a3.34,3.34,0,0,0,2.3-.9,2.88,2.88,0,0,0,.9-2.1,4,4,0,0,0,2.1-.9,2.88,2.88,0,0,0,.9-2.1,4,4,0,0,0,2.1-.9,4.62,4.62,0,0,0,.9-1.5l1.4-1.4A11.23,11.23,0,0,0,159.6,293Zm-26.3,18.8a0.91,0.91,0,0,1-.3-0.7,0.76,0.76,0,0,1,.2-0.5l2.9-2.9a1,1,0,0,1,1.4,0,1,1,0,0,1,0,1.4h0l-0.1.1-2.7,2.7A1.42,1.42,0,0,1,133.3,311.8Zm3,2.9a0.91,0.91,0,0,1-.3-0.7,0.76,0.76,0,0,1,.2-0.5l2.9-2.9a1,1,0,0,1,1.4,0,1,1,0,0,1,0,1.4h0l-0.1.1-2.7,2.7A1.08,1.08,0,0,1,136.3,314.7Zm3,3a0.91,0.91,0,0,1-.3-0.7,0.76,0.76,0,0,1,.2-0.5l2.9-2.9a1,1,0,1,1,1.4,1.4h0l-0.1.1-2.7,2.7A1.08,1.08,0,0,1,139.3,317.7Zm7.2,0.2-2.8,2.8a1,1,0,0,1-1.4,0,0.92,0.92,0,0,1-.1-1.2l2.9-2.9a1,1,0,0,1,1.4,0,0.91,0.91,0,0,1,.3.7A0.86,0.86,0,0,1,146.5,317.9Zm9.2-7.9a1,1,0,0,1-1.4,0l-6-5.9a0.1,0.1,0,0,1-.1-0.1l-0.1-.1a1.13,1.13,0,0,0-1.6,1.6l6.1,6.1a1,1,0,0,1-1.4,1.4l-6-5.9a0.1,0.1,0,0,1-.1-0.1l-0.1-.1a1.13,1.13,0,1,0-1.6,1.6l6.1,6.1a1,1,0,0,1,0,1.4,1.14,1.14,0,0,1-.8.3,3.53,3.53,0,0,0-.8-1.3,2.88,2.88,0,0,0-2.1-.9,4,4,0,0,0-.9-2.1,2.88,2.88,0,0,0-2.1-.9,4.35,4.35,0,0,0-.9-2.1,2.88,2.88,0,0,0-2.1-.9,4,4,0,0,0-.9-2.1,3.2,3.2,0,0,0-4.6,0l-2.2,2.3-1.2-1.2a8.75,8.75,0,0,1,0-12.5,8.87,8.87,0,0,1,11.8-.6l-5.9,5.8a1.2,1.2,0,0,0,.1,1.7c1.7,1.4,5.4,3,7.8.6l2.2-2.2,8.5,8.8A0.75,0.75,0,0,1,155.7,310Zm2.3-3-0.3.3c-0.1-.1-0.2-0.3-0.3-0.4l-9.3-9.6a1.14,1.14,0,0,0-.8-0.3h0a1.14,1.14,0,0,0-.8.3l-3,3c-1,1-2.6.5-3.7-.1l5.8-5.8a8.93,8.93,0,0,1,12.5,0A9.15,9.15,0,0,1,158,307Zm-75.9,2.7,4.3-4.2,1.8,2.8,2.9-8.9-9,2.9,2.8,1.8-4.3,4.2ZM100.4,295H71.2a1,1,0,0,0-1,1v17.1a1,1,0,0,0,1,1h29.1a1,1,0,0,0,1-1V296A0.92,0.92,0,0,0,100.4,295Zm-1,17.1H72.2V297H99.4v15.1Zm8.4,4.4h-1.3V294.3a4.4,4.4,0,0,0-4.5-4.4H69.6a4.46,4.46,0,0,0-4.5,4.4v22.2H63.8a0.9,0.9,0,0,0-.9.9,5.61,5.61,0,0,0,5.3,5.7h35.3a5.61,5.61,0,0,0,5.3-5.7A0.92,0.92,0,0,0,107.8,316.5ZM67.1,294.3a2.48,2.48,0,0,1,2.5-2.5H102a2.48,2.48,0,0,1,2.5,2.5v22.2H67.1V294.3Zm36.4,26.9H68.1a3.56,3.56,0,0,1-3.2-2.7h41.7A3.6,3.6,0,0,1,103.5,321.2Z" transform="translate(-62.9 -250.1)"/></svg>