<?xml version="1.0" encoding="UTF-8" standalone="no"?>
<svg width="174px" height="43px" viewBox="0 0 174 43" version="1.1" xmlns="http://www.w3.org/2000/svg" xmlns:xlink="http://www.w3.org/1999/xlink">
    <!-- Generator: Sketch 39.1 (31720) - http://www.bohemiancoding.com/sketch -->
    <title>Logo_horizontal</title>
    <desc>Created with Sketch.</desc>
    <defs>
        <polygon id="path-1" points="2.33188178 0.0366557377 0.453808907 0.0366557377 0.453808907 6.06751148 2.33188178 6.06751148 2.33188178 0.0366557377"></polygon>
        <polygon id="path-3" points="123.221587 13.4525852 123.221587 0.681585246 0.665173103 0.681585246 0.665173103 13.4525852 123.221587 13.4525852"></polygon>
    </defs>
    <g id="A" stroke="none" stroke-width="1" fill="none" fill-rule="evenodd">
        <g id="3_Form-Elements" transform="translate(-45.000000, -994.000000)">
            <g id="Group-25" transform="translate(0.000000, 954.000000)">
                <g id="Logo_horizontal" transform="translate(45.000000, 40.000000)">
                    <path d="M40.4080834,13.4640754 C38.5948202,14.224682 37.0577028,14.998682 35.2528931,15.7557639 C34.982383,15.7762066 34.8816462,15.3786328 34.6984883,15.1946492 C34.6674923,15.0233541 34.5230794,14.8337311 34.626634,14.6835836 C36.1912251,13.6473541 38.0030794,12.6216984 39.5958486,11.7694525 L39.7282858,11.8286656 C39.9720267,12.2438623 40.2587393,12.8169607 40.4503506,13.2941902 L40.4080834,13.4640754 Z" id="Fill-1" fill="#E5C71E"></path>
                    <g id="Group-5" transform="translate(19.724696, 0.668333)">
                        <mask id="mask-2" fill="white">
                            <use xlink:href="#path-1"></use>
                        </mask>
                        <g id="Clip-4"></g>
                        <path d="M2.33188178,0.173691803 C2.22057814,2.13829836 2.24171174,3.8597082 2.1304081,5.8144459 C2.02967126,6.06751148 1.62883725,5.98292131 1.38368745,6.06751148 C1.21602753,6.02028197 0.982148988,6.06751148 0.892683401,5.9082 C0.647533603,4.04651148 0.520731984,1.96700328 0.453808907,0.161708197 L0.565112551,0.0679540984 C1.04484534,0.0305934426 1.68519352,0.0242491803 2.19803563,0.0616098361 L2.33188178,0.173691803 Z" id="Fill-3" fill="#E5C71E" mask="url(#mask-2)"></path>
                    </g>
                    <path d="M19.1107652,0.909485246 C19.2734939,2.87056721 19.5341417,4.57223934 19.6954615,6.52345246 C19.6313563,6.78779672 19.2220688,6.76030492 18.9910081,6.87802623 C18.8191215,6.85476393 18.5936964,6.93371475 18.4830972,6.78850164 C17.9815263,4.97897705 17.5666032,2.93753443 17.2495992,1.15902623 L17.3468138,1.05117377 C17.8159798,0.946845902 18.4499879,0.850977049 18.96283,0.817140984 L19.1107652,0.909485246 Z" id="Fill-6" fill="#E5C71E"></path>
                    <path d="M16.218702,1.38558689 C16.6526453,3.30437377 17.1471717,4.95388197 17.5790016,6.86350492 C17.5522324,7.13419344 17.1429449,7.1638 16.9302,7.3125377 C16.7569045,7.31324262 16.544864,7.42320984 16.4152445,7.29491475 C15.6664105,5.5728 14.9718194,3.60889836 14.41037,1.89242295 L14.4913822,1.77117705 C14.9422324,1.60340656 15.5558113,1.42012787 16.0594955,1.31439016 L16.218702,1.38558689 Z" id="Fill-8" fill="#E5C71E"></path>
                    <path d="M13.4220219,2.26053115 C14.1187263,4.10036721 14.8379733,5.66458033 15.530451,7.49595738 C15.5417223,7.76735082 15.1408883,7.85405574 14.9513903,8.03028525 C14.7795036,8.0556623 14.58437,8.19382623 14.4385482,8.08456393 C13.457949,6.4844 12.49637,4.63610492 11.7017466,3.01408852 L11.7651474,2.88297377 C12.1878194,2.65387541 12.7704024,2.38671148 13.2543619,2.21259672 L13.4220219,2.26053115 Z" id="Fill-10" fill="#E5C71E"></path>
                    <path d="M10.7753903,3.51704754 C11.7214713,5.24198197 12.6506453,6.69058852 13.5917951,8.40776885 C13.6404024,8.67493279 13.2557709,8.81662131 13.0923377,9.01822787 C12.9253822,9.06686721 12.7520866,9.2304082 12.5921757,9.14299836 C11.3981271,7.6943918 10.189285,5.99835902 9.17628097,4.50252295 L9.22136599,4.36435902 C9.60811093,4.0781623 10.1477223,3.73275246 10.6027992,3.49237541 L10.7753903,3.51704754 Z" id="Fill-12" fill="#E5C71E"></path>
                    <path d="M8.33044372,5.13060492 C9.50688097,6.70680164 10.6290753,8.01230984 11.7991725,9.58145738 C11.8851158,9.83945738 11.5237312,10.0333098 11.389885,10.255359 C11.231383,10.3272607 11.0820389,10.513359 10.9115611,10.4492115 C9.52801457,9.18106393 8.09515628,7.66971967 6.88420081,6.32967049 L6.90956113,6.18586721 C7.25262996,5.84891639 7.73870283,5.43160492 8.15573927,5.13060492 L8.33044372,5.13060492 Z" id="Fill-14" fill="#E5C71E"></path>
                    <path d="M6.13466235,7.06786066 C7.51891336,8.4650082 8.81158543,9.60133607 10.1887919,10.9921393 C10.3092534,11.236041 9.97816032,11.4778279 9.87671903,11.7167951 C9.73019271,11.8098443 9.60832227,12.0149754 9.4308,11.9747951 C7.88382024,10.9117787 6.25441943,9.61472951 4.86946397,8.45654918 L4.87439514,8.31063115 C5.16744777,7.92927049 5.59082429,7.44851639 5.96207126,7.09253279 L6.13466235,7.06786066 Z" id="Fill-16" fill="#E5C71E"></path>
                    <path d="M4.2297498,9.2931459 C5.79504534,10.4844574 7.23283482,11.4290475 8.79038138,12.6147197 C8.94395223,12.8388836 8.64949069,13.1250803 8.58186316,13.3753262 C8.45013036,13.4881131 8.35784696,13.7087525 8.17609798,13.6932443 C6.49668097,12.8558016 4.70314251,11.7984246 3.16954737,10.8446705 L3.15475385,10.6994574 C3.3914502,10.2807361 3.74438138,9.74570328 4.06208988,9.34108033 L4.2297498,9.2931459 Z" id="Fill-18" fill="#E5C71E"></path>
                    <path d="M2.65367611,11.7627557 C4.36902024,12.7242639 5.92515789,13.4594934 7.63204858,14.4167721 C7.81520648,14.6176738 7.56301215,14.9419361 7.53131174,15.1992311 C7.41648583,15.329641 7.35519838,15.5601492 7.17344939,15.570723 C5.394,14.9750672 3.47084211,14.1778049 1.81960324,13.4468049 L1.78438057,13.3051164 C1.96119838,12.8574934 2.23593522,12.2787557 2.49446964,11.8339525 L2.65367611,11.7627557 Z" id="Fill-20" fill="#E5C71E"></path>
                    <path d="M1.43743725,14.4287557 C3.26972065,15.1421328 4.91250607,15.6531984 6.73633603,16.3637557 C6.9455587,16.5371656 6.74126721,16.8931492 6.74549393,17.152559 C6.64968826,17.2970672 6.62151012,17.5346246 6.4432834,17.5705754 C4.59761538,17.2286902 2.58217409,16.7063459 0.845696356,16.2121984 L0.791453441,16.077559 C0.903461538,15.6094934 1.09507287,14.9976246 1.28950202,14.5211 L1.43743725,14.4287557 Z" id="Fill-22" fill="#E5C71E"></path>
                    <path d="M0.604984615,17.238982 C2.51898462,17.6901295 4.21671741,17.9678672 6.12155951,18.4169 C6.35262024,18.5599984 6.2004583,18.9406541 6.24061215,19.1972443 C6.16523563,19.3537361 6.17087126,19.5927033 5.99898462,19.6526213 C4.12443401,19.5715557 2.05545425,19.3354082 0.266846964,19.087982 L0.194288259,18.9618016 C0.240782186,18.4824574 0.345745749,17.8501459 0.471138462,17.3510639 L0.604984615,17.238982 Z" id="Fill-24" fill="#E5C71E"></path>
                    <path d="M0.175620243,20.1563557 C2.13400081,20.3361098 3.85357166,20.3748803 5.80208988,20.5546344 C6.0514664,20.6638967 5.95284291,21.0621754 6.02821943,21.3103066 C5.97608988,21.4759623 6.01483482,21.7121098 5.85281053,21.7952902 C3.9846,21.9757492 1.90364453,22.0300279 0.0981303644,22.0342574 L0.00866477733,21.9193557 C-0.0117643725,21.4386016 0.00373360324,20.7978311 0.0586809717,20.2860607 L0.175620243,20.1563557 Z" id="Fill-26" fill="#E5C71E"></path>
                    <path d="M0.143074494,23.1192672 C2.10709069,23.0248082 3.81609474,22.8239066 5.77024858,22.7301525 C6.03230526,22.8034639 5.99003806,23.2116115 6.09922834,23.4470541 C6.07034575,23.6183492 6.14149555,23.8467426 5.99285587,23.9517754 C4.16832146,24.3902344 2.11483968,24.7342344 0.327641296,24.9894148 L0.222677733,24.8886115 C0.135325506,24.4149066 0.0620623482,23.7783656 0.0451554656,23.2637754 L0.143074494,23.1192672 Z" id="Fill-28" fill="#E5C71E"></path>
                    <path d="M0.51685749,26.028323 C2.44846883,25.6610607 4.11238785,25.2240115 6.03554575,24.8595689 C6.30464696,24.8955197 6.32014494,25.305782 6.46103563,25.5236016 C6.45610445,25.6970115 6.5582502,25.9134213 6.4251085,26.0381918 C4.67947287,26.7268967 2.69432308,27.3528639 0.959254251,27.8547656 L0.841610526,27.7687656 C0.689448583,27.3126836 0.528128745,26.6923557 0.440072065,26.1855197 L0.51685749,26.028323 Z" id="Fill-30" fill="#E5C71E"></path>
                    <path d="M1.2928834,28.8558902 C3.15475385,28.2235787 4.74188745,27.558841 6.59530445,26.9300541 C6.86651903,26.9279393 6.93907773,27.3318574 7.10885101,27.5278246 C7.12857571,27.7005295 7.25960405,27.9007262 7.14548259,28.0424148 C5.51255951,28.9679721 3.63307773,29.8646279 1.98536113,30.602677 L1.85715061,30.5343 C1.64229231,30.1035951 1.39643806,29.5121689 1.23864049,29.0222508 L1.2928834,28.8558902 Z" id="Fill-32" fill="#E5C71E"></path>
                    <path d="M2.45530202,31.5467033 C4.21150445,30.6613262 5.69015223,29.7815885 7.43790121,28.9011459 C7.70700243,28.8616705 7.8345085,29.2514902 8.03034656,29.4220803 C8.07331822,29.5905557 8.23111579,29.7696049 8.13742348,29.9268016 C6.64961781,31.0694738 4.91314008,32.2199 3.38377166,33.1799984 L3.24710769,33.1306541 C2.97518866,32.7337852 2.64902672,32.1818344 2.42501053,31.7187033 L2.45530202,31.5467033 Z" id="Fill-34" fill="#E5C71E"></path>
                    <path d="M3.98121862,34.0485279 C5.59653036,32.9270033 6.93921862,31.8505934 8.54748583,30.7347082 C8.8081336,30.6578721 8.98917814,31.0265443 9.2061498,31.1682328 C9.27236842,31.3289541 9.45341296,31.484741 9.38296761,31.6525115 C8.06775304,32.9918557 6.50879757,34.3727902 5.12806883,35.5366098 L4.98576923,35.5062984 C4.66101619,35.1517246 4.26159109,34.6505279 3.97487854,34.2233475 L3.98121862,34.0485279 Z" id="Fill-36" fill="#E5C71E"></path>
                    <path d="M5.83963725,36.3123016 C7.2837668,34.976482 8.46302186,33.7238426 9.90081134,32.3943672 C10.1480745,32.2829902 10.3784308,32.6220557 10.6130138,32.732023 C10.7010704,32.8821705 10.9018397,33.0111705 10.8553457,33.1874 C9.7394915,34.6973344 8.38764534,36.2812852 7.18232551,37.6262689 L7.0372081,37.6164 C6.66666559,37.3097607 6.20102186,36.8691869 5.85795304,36.4857115 L5.83963725,36.3123016 Z" id="Fill-38" fill="#E5C71E"></path>
                    <path d="M7.99533522,38.2948131 C9.2394,36.7714852 10.2333838,35.3658787 11.471813,33.8496 C11.7014648,33.7043869 11.9769061,34.0089115 12.2248737,34.0850426 C12.3326551,34.2210918 12.5489223,34.3204852 12.5277887,34.5016492 C11.6331328,36.1518623 10.5137563,37.909223 9.50779676,39.4092885 L9.36267935,39.4191574 C8.95268745,39.1675016 8.43068745,38.7960098 8.03760243,38.4639934 L7.99533522,38.2948131 Z" id="Fill-40" fill="#E5C71E"></path>
                    <path d="M10.4066794,39.9574328 C11.4267279,38.2754984 12.2157158,36.7451213 13.2308332,35.0716459 C13.4379425,34.8954164 13.7528332,35.1583508 14.0092543,35.1992361 C14.134647,35.3190721 14.3635943,35.3881541 14.3678211,35.570023 C13.710566,37.3287934 12.8469061,39.225023 12.0593271,40.8505639 L11.9170275,40.8801705 C11.4760397,40.6884328 10.9075457,40.3930721 10.4721935,40.1195639 L10.4066794,39.9574328 Z" id="Fill-42" fill="#E5C71E"></path>
                    <path d="M13.0266121,41.2670295 C13.8029198,39.4589148 14.3714138,37.8340787 15.1441992,36.0351279 C15.3245393,35.8321115 15.6732437,36.0485213 15.9324826,36.0534557 C16.0733733,36.1549639 16.3093652,36.1909148 16.3389522,36.3706689 C15.933187,38.2041607 15.3414462,40.2018984 14.7870413,41.9211934 L14.6503773,41.9705377 C14.1875514,41.8422426 13.5831304,41.6286525 13.1139644,41.4185869 L13.0266121,41.2670295 Z" id="Fill-44" fill="#E5C71E"></path>
                    <path d="M15.8040607,42.1978738 C16.3211296,40.2995295 16.6578583,38.6112508 17.1735182,36.7220705 C17.3235668,36.4957918 17.6990405,36.6614475 17.956166,36.6304311 C18.1104413,36.7107918 18.3485466,36.7143164 18.4027895,36.8884311 C18.2562632,38.7599885 17.948417,40.8204639 17.6384575,42.600382 L17.510247,42.668759 C17.033332,42.6053164 16.405664,42.4791361 15.9118421,42.3353328 L15.8040607,42.1978738 Z" id="Fill-46" fill="#E5C71E"></path>
                    <path d="M18.6909814,42.7291 C18.938949,40.777182 19.0375725,39.0585918 19.2855401,37.1158377 C19.4031838,36.8712311 19.7976777,36.9833131 20.0477587,36.9163459 C20.2118964,36.9741492 20.4485927,36.9445426 20.5260826,37.1087885 C20.6409085,38.9831656 20.6225927,41.0661984 20.5634186,42.8721984 L20.4457749,42.9574934 C19.9653377,42.961723 19.3256939,42.9236574 18.8163741,42.8503459 L18.6909814,42.7291 Z" id="Fill-48" fill="#E5C71E"></path>
                    <g id="Group-52" transform="translate(21.133603, 36.619152)" fill="#E5C71E">
                        <path d="M0.526508502,6.24134426 C0.500443725,4.27391803 0.359553036,2.55814754 0.334192713,0.599885246 C0.416613765,0.341180328 0.823083401,0.396868852 1.06189312,0.296065574 C1.2316664,0.331311475 1.46202267,0.267868852 1.56205506,0.420131148 C1.93682429,2.25996721 2.20803887,4.32608197 2.40105911,6.12221311 L2.29609555,6.22372131 C1.82058947,6.29421311 1.1816502,6.34567213 0.668103644,6.3442623 L0.526508502,6.24134426 Z" id="Fill-50"></path>
                    </g>
                    <path d="M24.5788032,42.5890328 C24.2794105,40.6441639 23.901119,38.9650492 23.6038397,37.0293443 C23.6496291,36.7614754 24.0596211,36.7600656 24.2822283,36.6268361 C24.4555239,36.6381148 24.6746089,36.5436557 24.7950704,36.6804098 C25.4213296,38.450459 25.9778478,40.4580656 26.4181312,42.2097869 L26.3286656,42.3246885 C25.8672486,42.4607377 25.2423984,42.6010164 24.7330785,42.6708033 L24.5788032,42.5890328 Z" id="Fill-53" fill="#E5C71E"></path>
                    <path d="M27.4300785,41.9117475 C26.863698,40.0275016 26.2550502,38.4174689 25.6914874,36.541682 C25.6992364,36.2702885 26.1050016,36.2117803 26.3071798,36.0489443 C26.4797709,36.0355508 26.6840623,35.9114852 26.8221352,36.0306164 C27.6893174,37.6956328 28.5191636,39.6066656 29.1989611,41.280141 L29.1264024,41.4063213 C28.6882324,41.6058131 28.0887425,41.8313869 27.5942162,41.9716656 L27.4300785,41.9117475 Z" id="Fill-55" fill="#E5C71E"></path>
                    <path d="M30.1584267,40.8435148 C29.3349206,39.0565475 28.5085968,37.5466131 27.6900219,35.7681049 C27.6597304,35.4981213 28.0542243,35.3839246 28.2310421,35.1943016 C28.4001109,35.156941 28.5853822,35.0060885 28.7382486,35.1040721 C29.8287425,36.6323344 30.9164186,38.4094328 31.8223457,39.9715311 L31.7673984,40.1068754 C31.3623377,40.3648754 30.7994794,40.6722197 30.3289045,40.8794656 L30.1584267,40.8435148 Z" id="Fill-57" fill="#E5C71E"></path>
                    <path d="M32.7104502,39.4049885 C31.6467255,37.749841 30.6182235,36.3703164 29.5601344,34.722923 C29.4932113,34.4592836 29.8672761,34.2915131 30.0159158,34.0793328 C30.1786445,34.0187098 30.3406688,33.8431852 30.5062154,33.9193164 C31.798183,35.281218 33.1225555,36.8884311 34.2370008,38.3102508 L34.2017781,38.4512344 C33.8361668,38.7635131 33.3212113,39.1455787 32.8844502,39.4169721 L32.7104502,39.4049885 Z" id="Fill-59" fill="#E5C71E"></path>
                    <path d="M35.0365555,37.6250705 C33.7530413,36.1341689 32.5427903,34.9111361 31.2656162,33.4272836 C31.1620615,33.1756279 31.5093571,32.9571033 31.6277053,32.7265951 C31.7805717,32.6441197 31.9158267,32.4474475 32.0905312,32.4996115 C33.5593166,33.6683656 35.0943206,35.0760869 36.3961506,36.3280213 L36.3806526,36.4732344 C36.0615352,36.8334475 35.6057538,37.2831852 35.2105555,37.6130869 L35.0365555,37.6250705 Z" id="Fill-61" fill="#E5C71E"></path>
                    <path d="M37.0916575,35.5388656 C35.6130097,34.2418164 34.2442567,33.1985377 32.7733579,31.9071279 C32.6366939,31.6723902 32.9501757,31.4080459 33.0347101,31.1627344 C33.1741919,31.0598164 33.2812688,30.8462262 33.4616089,30.873718 C35.079034,31.8260623 36.7943781,33.0068 38.2575279,34.0655869 L38.2624591,34.2108 C37.9968802,34.6118984 37.6073174,35.1215541 37.2621352,35.5022098 L37.0916575,35.5388656 Z" id="Fill-63" fill="#E5C71E"></path>
                    <path d="M38.8365887,33.1856377 C37.1923943,32.1064082 35.6919085,31.2647361 34.0554632,30.190441 C33.8870988,29.9768508 34.1604267,29.6716213 34.2104429,29.4171459 C34.3344267,29.2951951 34.4112121,29.0689164 34.5929611,29.0710311 C36.3266211,29.7893426 38.1899004,30.7191295 39.7861919,31.5643262 L39.8115522,31.7074246 C39.6037385,32.1416541 39.2895522,32.6999492 39.0007263,33.1257197 L38.8365887,33.1856377 Z" id="Fill-65" fill="#E5C71E"></path>
                    <path d="M40.2361968,30.611559 C38.4581563,29.7720016 36.8548202,29.1474443 35.0852332,28.3114115 C34.8886907,28.1239033 35.1169336,27.782723 35.1310227,27.524018 C35.2366907,27.3858541 35.2810713,27.1518213 35.4621158,27.128559 C37.2789012,27.5980344 39.2527798,28.2592475 40.951217,28.8739361 L40.9955976,29.0121 C40.8511846,29.4710016 40.6173061,30.0680672 40.3904721,30.5297885 L40.2361968,30.611559 Z" id="Fill-67" fill="#E5C71E"></path>
                    <path d="M41.2630785,27.8665377 C39.3850057,27.2828656 37.7112243,26.8874066 35.8423093,26.3058492 C35.6218154,26.1479475 35.8000421,25.7785705 35.778204,25.5198656 C35.8634429,25.3690131 35.8747142,25.1300459 36.0508275,25.0821115 C37.9148113,25.2942918 39.961953,25.6742426 41.7287223,26.0457344 L41.7928275,26.1768492 C41.7132243,26.651259 41.5645846,27.2751115 41.4046737,27.7636197 L41.2630785,27.8665377 Z" id="Fill-69" fill="#E5C71E"></path>
                    <path d="M41.8956073,25.0036541 C39.9548381,24.6871459 38.2416073,24.5285393 36.309996,24.213441 C36.0697773,24.0872607 36.19517,23.6967361 36.1374049,23.4436705 C36.2015101,23.2822443 36.1789676,23.0446869 36.3466275,22.9720803 C38.222587,22.9227361 40.3021336,23.0136705 42.1041255,23.1356213 L42.1851377,23.2568672 C42.1724575,23.7376213 42.1118745,24.3755721 42.021,24.8824082 L41.8956073,25.0036541 Z" id="Fill-71" fill="#E5C71E"></path>
                    <path d="M42.1252591,22.0350328 C40.1591296,21.9920328 38.4409676,22.0738033 36.4847004,22.0300984 C36.2289838,21.9391639 36.2987247,21.534541 36.2064413,21.2920492 C36.2472996,21.1235738 36.1923522,20.8909508 36.3480364,20.7964918 C38.1986356,20.485623 40.2711377,20.2861311 42.0717206,20.1564262 L42.1689352,20.2649836 C42.2231781,20.742918 42.2520607,21.3829836 42.232336,21.8975738 L42.1252591,22.0350328 Z" id="Fill-73" fill="#E5C71E"></path>
                    <path d="M41.9563312,19.1054639 C40.0035862,19.336677 38.312898,19.6567098 36.3693109,19.8865131 C36.103732,19.8315295 36.1171166,19.4212672 35.9917239,19.1942836 C36.0086308,19.0215787 35.921983,18.7988246 36.0628737,18.683218 C37.8521854,18.1185787 39.8767846,17.6321852 41.6421449,17.2529393 L41.7534486,17.3459885 C41.8732057,17.8119393 41.9915538,18.4421361 42.0436834,18.9539066 L41.9563312,19.1054639 Z" id="Fill-75" fill="#E5C71E"></path>
                    <path d="M41.3796656,16.2301033 C39.4783457,16.7313 37.8489449,17.2832508 35.9560785,17.7816279 C35.684864,17.7640049 35.6411879,17.3558574 35.4847992,17.1486115 C35.4777547,16.9752016 35.3608154,16.7665459 35.4847992,16.6326115 C37.1783053,15.8240705 39.1155522,15.0606443 40.8104672,14.4389066 L40.9337466,14.5164475 C41.1176089,14.9605459 41.3219004,15.5688902 41.4451798,16.0679721 L41.3796656,16.2301033 Z" id="Fill-77" fill="#E5C71E"></path>
                    <path d="M39.0606049,10.861518 C37.3706211,11.8674361 35.956783,12.847977 34.2745482,13.8489607 C34.0089692,13.9067639 33.8546939,13.5268131 33.6475846,13.3703213 C33.5926372,13.2053705 33.422864,13.0376 33.505285,12.8747639 C34.9099652,11.6298787 36.5619085,10.3617311 38.0201271,9.2966 L38.1603134,9.33678033 C38.4590016,9.71391148 38.823204,10.2411902 39.0789206,10.6874033 L39.0606049,10.861518 Z" id="Fill-79" fill="#E5C71E"></path>
                    <path d="M37.3640696,8.47297377 C35.8304745,9.70446557 34.566685,10.8725148 33.0401344,12.0976623 C32.7851223,12.1921213 32.5794219,11.8375475 32.3525879,11.7113672 C32.275098,11.5555803 32.0841911,11.412482 32.1426607,11.239777 C33.3606607,9.81231803 34.8202883,8.32635082 36.1164826,7.06807213 L36.2601911,7.08851475 C36.6088955,7.41982623 37.0428389,7.89212131 37.3577296,8.2981541 L37.3640696,8.47297377 Z" id="Fill-81" fill="#E5C71E"></path>
                    <path d="M35.3523619,6.34496721 C34.0047425,7.77806557 32.9156575,9.11036066 31.5743781,10.5364098 C31.3355684,10.6654098 31.0819652,10.3425574 30.8403377,10.2495082 C30.7417142,10.1064098 30.5324915,9.9915082 30.5663053,9.81245902 C31.5743781,8.2285082 32.8128073,6.55362295 33.921617,5.12757377 L34.0667344,5.12757377 C34.4584105,5.40742623 34.9529368,5.81416393 35.3220704,6.17296721 L35.3523619,6.34496721 Z" id="Fill-83" fill="#E5C71E"></path>
                    <path d="M33.0632405,4.5176082 C31.928366,6.12411639 31.035119,7.59528033 29.9051757,9.19473934 C29.6860907,9.35546066 29.3902202,9.07137869 29.1380259,9.01287049 C29.0210866,8.88457541 28.7977749,8.79998525 28.8062283,8.61741148 C29.5839449,6.90869016 30.5772243,5.07801803 31.4768113,3.51169016 L31.6212243,3.49124754 C32.0474186,3.71400164 32.5940745,4.04813279 33.0089976,4.35124754 L33.0632405,4.5176082 Z" id="Fill-85" fill="#E5C71E"></path>
                    <path d="M30.5414381,3.02783443 C29.6411466,4.77673607 28.9606445,6.35857213 28.0645798,8.09901475 C27.8701506,8.2886377 27.5376486,8.04896557 27.2791142,8.02570328 C27.1459725,7.91503115 26.9127984,7.8621623 26.8958915,7.68099836 C27.4284583,5.8806377 28.1575676,3.92942459 28.8303206,2.25242459 L28.9705069,2.21224426 C29.4234704,2.37367049 30.0116891,2.6281459 30.4646526,2.8706377 L30.5414381,3.02783443 Z" id="Fill-87" fill="#E5C71E"></path>
                    <path d="M27.8361255,1.90475902 C27.1880283,3.76221803 26.7343603,5.42300492 26.0883765,7.27200492 C25.92283,7.48700492 25.5600364,7.29526721 25.3007976,7.30866066 C25.1528623,7.21702131 24.9154615,7.19798852 24.8731943,7.02034918 C25.1500445,5.16289016 25.6008947,3.12920164 26.0341336,1.37536557 L26.1672753,1.31615246 C26.6378502,1.41202131 27.2556559,1.58261148 27.7382065,1.76025082 L27.8361255,1.90475902 Z" id="Fill-89" fill="#E5C71E"></path>
                    <path d="M25.0001368,1.17108033 C24.6162097,3.1011459 24.3985336,4.80845738 24.0160154,6.72935902 C23.8814648,6.96480164 23.4961287,6.82593279 23.2411166,6.87527705 C23.0819101,6.80549016 22.8438049,6.81958852 22.7775862,6.64899836 C22.7937887,4.77180164 22.9572219,2.69511311 23.1417887,0.897572131 L23.265068,0.820736066 C23.7455053,0.850342623 24.3809223,0.932818033 24.8831976,1.04137541 L25.0001368,1.17108033 Z" id="Fill-91" fill="#E5C71E"></path>
                    <path d="M20.1168656,35.9903656 C20.2204202,34.7877754 20.2824121,33.2151033 20.3803312,32.0837098 C20.4430275,31.9392016 20.6740883,31.9941852 20.8177968,31.9497754 C20.9136024,31.9800869 21.0502664,31.9568246 21.0995781,32.0505787 C21.2094729,33.1333328 21.2594891,34.9238246 21.2679425,36.0312508 L21.1982016,36.0869393 C20.9037401,36.1010377 20.5106551,36.0939885 20.1971733,36.0615623 L20.1168656,35.9903656 Z" id="Fill-93" fill="#69BEA5"></path>
                    <path d="M22.1120186,35.9944541 C22.0472089,34.7897492 21.8901158,33.2227164 21.8295328,32.0892082 C21.8710955,31.9369459 22.1077919,31.9602082 22.2437514,31.8960607 C22.3430794,31.9122738 22.4755166,31.8699787 22.536804,31.9559787 C22.7967474,33.0133557 23.0954356,34.7791754 23.2574599,35.874618 L23.1961725,35.9394705 C22.9066421,35.9944541 22.5163749,36.0423885 22.2007798,36.0536672 L22.1120186,35.9944541 Z" id="Fill-95" fill="#69BEA5"></path>
                    <path d="M32.8137935,14.0067918 C31.8029028,14.6651852 30.5264332,15.5858082 29.5754211,16.2054311 C29.4225547,16.2449066 29.3246356,16.0284967 29.2006518,15.9424967 C29.1654291,15.8487426 29.0632834,15.7549885 29.1062551,15.6584148 C29.8917206,14.9048574 31.270336,13.7628902 32.1375182,13.0734803 L32.224166,13.0946279 C32.4164818,13.3180869 32.6524737,13.6324803 32.8208381,13.8996443 L32.8137935,14.0067918 Z" id="Fill-97" fill="#69BEA5"></path>
                    <path d="M19.1571182,7.94597705 C19.3057579,9.14363279 19.5727457,10.6958623 19.7115231,11.8223213 C19.6805271,11.9774033 19.4431263,11.971059 19.312098,12.0443705 C19.2113611,12.0352066 19.0831506,12.0859607 19.0155231,12.0048951 C18.6823166,10.9679607 18.2610534,9.22751803 18.0222437,8.14546885 L18.0793045,8.07638689 C18.3646081,8.00096066 18.7506486,7.92694426 19.0641304,7.8931082 L19.1571182,7.94597705 Z" id="Fill-99" fill="#69BEA5"></path>
                    <path d="M17.2341717,8.34820328 C17.5476534,9.51343279 18.0280907,11.0134984 18.3225522,12.1096459 C18.3133943,12.2675475 18.0774024,12.2943344 17.9576453,12.3852689 C17.8569085,12.3902033 17.736447,12.4585803 17.6582526,12.3873836 C17.1848599,11.4068426 16.524787,9.74182623 16.1380421,8.70348197 L16.1852405,8.62735082 C16.4571595,8.5131541 16.8291109,8.38556393 17.1348437,8.30872787 L17.2341717,8.34820328 Z" id="Fill-101" fill="#69BEA5"></path>
                    <path d="M15.3894194,9.01428033 C15.8621077,10.1245262 16.546132,11.5428213 16.9906421,12.5875098 C17.0033223,12.7447066 16.772966,12.8046246 16.667298,12.9110672 C16.5686745,12.9301 16.4587798,13.0146902 16.3714275,12.9547721 C15.7655976,12.0503623 14.880804,10.4931984 14.3538729,9.51829672 L14.3898,9.43652623 C14.6426988,9.28567377 14.9935166,9.10803443 15.2851603,8.98890328 L15.3894194,9.01428033 Z" id="Fill-103" fill="#69BEA5"></path>
                    <path d="M13.6566753,9.9313082 C14.2794121,10.964718 15.1536389,12.2744557 15.7390397,13.2472426 C15.7735579,13.4009148 15.5537684,13.4918492 15.4643028,13.6123902 C15.3684972,13.6448164 15.271987,13.7442098 15.1768858,13.6969803 C14.4512988,12.8856197 13.3586915,11.4666197 12.7014364,10.5748984 L12.7253879,10.4888984 C12.9550397,10.3042098 13.2776794,10.079341 13.5503028,9.92073443 L13.6566753,9.9313082 Z" id="Fill-105" fill="#69BEA5"></path>
                    <path d="M12.0696826,11.0811705 C12.8297879,12.0180066 13.8780146,13.1931049 14.5930348,14.0749574 C14.6486866,14.2222852 14.4436907,14.3428262 14.371132,14.4753508 C14.2816664,14.5204656 14.1992453,14.6318426 14.099213,14.5987115 C13.2672534,13.8959082 11.987966,12.6432689 11.2130672,11.8516459 L11.2250429,11.7635311 C11.4265166,11.5485311 11.7146381,11.2806623 11.9626057,11.0854 L12.0696826,11.0811705 Z" id="Fill-107" fill="#69BEA5"></path>
                    <path d="M10.6592259,12.4404639 C11.5426105,13.2623984 12.7437036,14.2795951 13.5742543,15.0535951 C13.6496308,15.191759 13.4636551,15.3397918 13.4101166,15.4807754 C13.3276955,15.5378738 13.2621814,15.6598246 13.1579223,15.6407918 C12.2372016,15.0613492 10.7958899,13.9983328 9.91814089,13.3230213 L9.91743644,13.2334967 C10.0879142,12.9924148 10.3351773,12.6871852 10.5535579,12.4594967 L10.6592259,12.4404639 Z" id="Fill-109" fill="#69BEA5"></path>
                    <path d="M9.45151093,13.983882 C10.4405636,14.6747016 11.7712761,15.5149639 12.7018591,16.1656033 C12.7955514,16.2924885 12.6321182,16.4644885 12.5990089,16.6118164 C12.5250413,16.6801934 12.476434,16.8098984 12.370766,16.8049639 C11.3781911,16.3594557 9.80373765,15.5072098 8.84004534,14.9608984 L8.82736518,14.8727836 C8.96262024,14.6098492 9.16479838,14.2736033 9.35006964,14.017718 L9.45151093,13.983882 Z" id="Fill-111" fill="#69BEA5"></path>
                    <path d="M8.47133441,15.6813246 C9.54633036,16.228341 10.9820065,16.8747508 11.9936016,17.389341 C12.1042008,17.501423 11.9661279,17.6952754 11.9534478,17.845423 C11.8893425,17.9229639 11.8597555,18.0583082 11.7547919,18.068882 C10.709383,17.7657672 9.03207935,17.1412098 8.00216842,16.7337672 L7.9768081,16.6484721 C8.07402267,16.3693246 8.22829798,16.0077016 8.37552874,15.729259 L8.47133441,15.6813246 Z" id="Fill-113" fill="#69BEA5"></path>
                    <path d="M7.73799838,17.4998016 C8.8785085,17.8917361 10.3895611,18.3323098 11.4631482,18.700982 C11.5885409,18.7968508 11.4786462,19.0076213 11.4870996,19.1577689 C11.43497,19.2437689 11.4244032,19.3819328 11.321553,19.4066049 C10.2444437,19.2522279 8.49599028,18.8673426 7.41958543,18.6079328 L7.38295385,18.5261623 C7.44001457,18.236441 7.54286478,17.8571951 7.6499417,17.5604246 L7.73799838,17.4998016 Z" id="Fill-115" fill="#69BEA5"></path>
                    <path d="M7.26657814,19.4039262 C8.45076437,19.6330246 10.0083109,19.8585984 11.1227563,20.0743033 C11.2601247,20.1518443 11.1805215,20.3760082 11.209404,20.524041 C11.1699547,20.6163852 11.1784081,20.7545492 11.0804891,20.7933197 C9.9921085,20.7897951 8.20772794,20.6523361 7.1052583,20.5451885 L7.05735547,20.4697623 C7.07426235,20.1751066 7.12286964,19.784582 7.18767935,19.4758279 L7.26657814,19.4039262 Z" id="Fill-117" fill="#69BEA5"></path>
                    <path d="M7.06665425,21.3925 C8.27126964,21.4545328 9.84501862,21.461582 10.9784842,21.5193852 C11.1250105,21.5771885 11.0771077,21.8105164 11.1271239,21.9522049 C11.1003547,22.0494836 11.1285328,22.1855328 11.0362494,22.2376967 C9.95843563,22.3857295 8.1719417,22.4978115 7.0659498,22.545041 L7.00818462,22.4773689 C6.98352874,22.1827131 6.97718866,21.7900738 6.99832227,21.4749754 L7.06665425,21.3925 Z" id="Fill-119" fill="#69BEA5"></path>
                    <path d="M7.12942105,23.3733902 C8.33051417,23.2669475 9.89017409,23.0547672 11.0201174,22.9546689 C11.1736883,22.9906197 11.1588947,23.228177 11.2279312,23.3621115 C11.215251,23.4622098 11.2617449,23.5926197 11.177915,23.6574721 C10.1310972,23.9542426 8.37771255,24.3144557 7.28862753,24.5146525 L7.22240891,24.4554393 C7.15689474,24.1678328 7.09631174,23.779423 7.07306478,23.4643246 L7.12942105,23.3733902 Z" id="Fill-121" fill="#69BEA5"></path>
                    <path d="M7.46452955,25.3129721 C8.63955789,25.0401689 10.1541328,24.6129885 11.2594202,24.3563984 C11.4165134,24.3712016 11.4348291,24.6080541 11.5214769,24.7307098 C11.5228858,24.8315131 11.5869911,24.9541689 11.5130235,25.0303 C10.5176308,25.4701689 8.83187368,26.070759 7.78082915,26.4211033 L7.70686154,26.371759 C7.60189798,26.0954311 7.48777652,25.7197098 7.42155789,25.4109557 L7.46452955,25.3129721 Z" id="Fill-123" fill="#69BEA5"></path>
                    <path d="M8.06507611,27.1813574 C9.19079271,26.7478328 10.6306955,26.1134066 11.6901935,25.705259 C11.8472866,25.6982098 11.8987117,25.9301279 12.0015619,26.0400951 C12.0170599,26.1394885 12.0973676,26.2522754 12.0346713,26.3375705 C11.1104283,26.9113738 9.52399919,27.7410623 8.5328332,28.2345049 L8.45252551,28.1964393 C8.31022591,27.9377344 8.14467935,27.5810459 8.03619352,27.2842754 L8.06507611,27.1813574 Z" id="Fill-125" fill="#69BEA5"></path>
                    <path d="M8.92035304,28.9465426 C9.97421538,28.3600508 11.3126769,27.5317721 12.3045474,26.9805262 C12.4595271,26.9509197 12.5426526,27.1736738 12.6602964,27.2681328 C12.6891789,27.3647066 12.7842802,27.4648049 12.734264,27.5578541 C11.8987822,28.255018 10.4433814,29.2975918 9.52970526,29.9242639 L9.44517085,29.897477 C9.26835304,29.6613295 9.05490364,29.330723 8.90626397,29.0529852 L8.92035304,28.9465426 Z" id="Fill-127" fill="#69BEA5"></path>
                    <path d="M10.0135239,30.5741279 C10.9758073,29.8466525 12.1860583,28.8400295 13.091281,28.1555541 C13.2406251,28.1055049 13.3540421,28.3141607 13.4829571,28.3909967 C13.5252243,28.4826361 13.6337101,28.5686361 13.5970785,28.6680295 C12.8665603,29.4751607 11.570366,30.710177 10.7532,31.4580951 L10.6651433,31.4425869 C10.4573296,31.2332262 10.200204,30.9364557 10.0142283,30.6812754 L10.0135239,30.5741279 Z" id="Fill-129" fill="#69BEA5"></path>
                    <path d="M11.3216235,32.0322508 C12.1733077,31.1778902 13.2313968,30.0126607 14.0330648,29.2090541 C14.1739555,29.1378574 14.3155506,29.3295951 14.4543279,29.3873984 C14.5085709,29.4719885 14.6276235,29.5424803 14.605081,29.6453984 C13.9943198,30.5462836 12.8819879,31.9497754 12.17683,32.8041361 L12.0880688,32.8013164 C11.8527814,32.6229721 11.5569109,32.3649721 11.3371215,32.1379885 L11.3216235,32.0322508 Z" id="Fill-131" fill="#69BEA5"></path>
                    <path d="M12.82063,33.2939836 C13.5455126,32.3296557 14.4310105,31.0276721 15.1129215,30.1204426 C15.2425409,30.030918 15.4094964,30.2008033 15.5546138,30.2388689 C15.6201279,30.315 15.7483385,30.3678689 15.7405895,30.4736066 C15.2601522,31.450623 14.3549296,32.9950984 13.7751644,33.9396885 L13.6864032,33.9488525 C13.4292777,33.8050492 13.0995935,33.5907541 12.8509215,33.3969016 L12.82063,33.2939836 Z" id="Fill-133" fill="#69BEA5"></path>
                    <path d="M14.4815903,34.3336672 C15.0648777,33.2777 15.7608777,31.8650443 16.3103514,30.8718148 C16.4265862,30.7646672 16.6146753,30.9098803 16.7640194,30.9275033 C16.8401004,30.9937656 16.9739466,31.0283066 16.9802866,31.1340443 C16.6414445,32.1688639 15.9588291,33.8240115 15.5164324,34.8397984 L15.4297846,34.8616508 C15.1550478,34.7552082 14.7992988,34.5881426 14.5259709,34.4309459 L14.4815903,34.3336672 Z" id="Fill-135" fill="#69BEA5"></path>
                    <path d="M16.2719587,35.130718 C16.7030842,34.0035541 17.1954972,32.508423 17.6012623,31.4475213 C17.7012947,31.3262754 17.908404,31.4432918 18.0584526,31.4397672 C18.142987,31.4954557 18.2803555,31.5109639 18.3014891,31.613882 C18.1091733,32.6860623 17.6639587,34.4201607 17.3673838,35.4881115 L17.2842583,35.5219475 C16.9975457,35.4542754 16.6220721,35.3386689 16.3290194,35.2216525 L16.2719587,35.130718 Z" id="Fill-137" fill="#69BEA5"></path>
                    <path d="M18.1567239,35.6694869 C18.4265296,34.4929787 18.706902,32.9442738 18.9612097,31.8375525 C19.0429263,31.7029131 19.2641247,31.790323 19.4127644,31.7656508 C19.5036389,31.8086508 19.6424162,31.8051262 19.6776389,31.9045197 C19.6360761,32.9929131 19.4367158,34.7721262 19.2908939,35.8703885 L19.2141085,35.9155033 C18.9203514,35.8887164 18.5321976,35.8266836 18.2257603,35.7512574 L18.1567239,35.6694869 Z" id="Fill-139" fill="#69BEA5"></path>
                    <path d="M24.0649045,35.6725885 C23.8331393,34.4883262 23.4590745,32.959359 23.2421028,31.8448836 C23.2618275,31.6883918 23.4992283,31.677818 23.6253255,31.5953426 C23.7260623,31.5981623 23.8507506,31.5382443 23.9233093,31.6143754 C24.32837,32.6252279 24.8693903,34.3318344 25.1828721,35.3948508 L25.1307425,35.4674574 C24.8517789,35.5619164 24.4720785,35.6634246 24.1614146,35.7191131 L24.0649045,35.6725885 Z" id="Fill-141" fill="#69BEA5"></path>
                    <path d="M25.9522057,35.1376262 C25.5584162,33.9970689 24.9751287,32.5350689 24.6045862,31.4614787 C24.6031773,31.304282 24.8363514,31.260577 24.9497684,31.1611836 C25.0498008,31.1499049 25.1653312,31.0730689 25.2477522,31.1386262 C25.7887725,32.0832164 26.5622623,33.6981836 27.0208615,34.7069213 L26.9792988,34.7858721 C26.7158332,34.9191016 26.3537441,35.0720689 26.0543514,35.1700525 L25.9522057,35.1376262 Z" id="Fill-143" fill="#69BEA5"></path>
                    <path d="M27.7453919,34.3441 C27.1966227,33.2691 26.4153838,31.9029689 25.8997239,30.8914115 C25.8757725,30.7356246 26.1011976,30.6601984 26.1998211,30.5460016 C26.2970356,30.5206246 26.4005903,30.4289852 26.4914648,30.4818541 C27.1592866,31.342559 28.1490437,32.8334607 28.7436024,33.7688869 L28.7133109,33.8527721 C28.4709789,34.0212475 28.1342502,34.2228541 27.8510599,34.3624279 L27.7453919,34.3441 Z" id="Fill-145" fill="#69BEA5"></path>
                    <path d="M29.4093109,33.3078705 C28.7161287,32.3202803 27.7531409,31.0753951 27.1015215,30.1456082 C27.0564364,29.9947557 27.2691814,29.889018 27.3501935,29.7621328 C27.4431814,29.7233623 27.532647,29.6176246 27.630566,29.6585098 C28.4111004,30.4170016 29.5995134,31.755641 30.3173514,32.598723 L30.2997401,32.6861328 C30.0827684,32.8870344 29.7770356,33.1337557 29.5163879,33.3106902 L29.4093109,33.3078705 Z" id="Fill-147" fill="#69BEA5"></path>
                    <path d="M30.9116283,32.0504377 C30.0881223,31.1685852 28.9609968,30.070323 28.186098,29.2406344 C28.1205838,29.0975361 28.3164219,28.9628967 28.3798227,28.8261426 C28.4664704,28.7746836 28.5404381,28.6576672 28.6425838,28.6837492 C29.5210372,29.3266344 30.8841547,30.4869295 31.7125919,31.222159 L31.7069563,31.3109787 C31.5202761,31.5393721 31.2518794,31.8269787 31.0180008,32.0384541 L30.9116283,32.0504377 Z" id="Fill-149" fill="#69BEA5"></path>
                    <path d="M32.2239547,30.5956279 C31.2856227,29.8371361 30.016902,28.9066443 29.1342219,28.1925623 C29.048983,28.0600377 29.2243919,27.8993164 29.268068,27.7555131 C29.3462623,27.6920705 29.4040275,27.5658902 29.5089911,27.5778738 C30.4677522,28.091759 31.9788049,29.0511525 32.9016389,29.6637262 L32.9086834,29.7525459 C32.755817,30.0049066 32.5296874,30.3270541 32.3275093,30.568841 L32.2239547,30.5956279 Z" id="Fill-151" fill="#69BEA5"></path>
                    <path d="M33.3205773,28.9711443 C32.2857352,28.3508164 30.9000753,27.605718 29.9265206,27.0220459 C29.8243749,26.9022098 29.9758324,26.7189311 29.9983749,26.5701934 C30.0674113,26.496882 30.1068607,26.3636525 30.2118243,26.3608328 C31.2332818,26.7365541 32.863387,27.4760131 33.862302,27.9539475 L33.8813223,28.0413574 C33.7650874,28.3120459 33.5861563,28.6623902 33.4199053,28.930259 L33.3205773,28.9711443 Z" id="Fill-153" fill="#69BEA5"></path>
                    <path d="M34.179447,27.2088492 C33.0685239,26.7386689 31.5926939,26.1937672 30.547285,25.7510787 C30.4296413,25.6467508 30.5536251,25.4444393 30.5557385,25.2935869 C30.6135036,25.2118164 30.6339328,25.0743574 30.7381919,25.0567344 C31.8019166,25.2865377 33.5186696,25.7919639 34.5746453,26.1260951 L34.6049368,26.2099803 C34.5281514,26.4947672 34.3992364,26.866259 34.2717304,27.1545705 L34.179447,27.2088492 Z" id="Fill-155" fill="#69BEA5"></path>
                    <path d="M34.7835862,25.3430016 C33.6184202,25.0321328 32.0805984,24.6980016 30.9844688,24.4054607 C30.852736,24.3187557 30.9478372,24.1002311 30.928817,23.9514934 C30.9746065,23.8619689 30.9760154,23.7231 31.0767522,23.6913787 C32.1616105,23.7703295 33.931902,24.0318541 35.0238049,24.2158377 L35.0660721,24.2940836 C35.0294405,24.5873295 34.9533595,24.9729197 34.8674162,25.2767393 L34.7835862,25.3430016 Z" id="Fill-157" fill="#69BEA5"></path>
                    <path d="M35.1184834,23.4037016 C33.9209126,23.2577836 32.3520947,23.1414721 31.2256737,23.0040131 C31.0833741,22.9370459 31.1467749,22.7072426 31.1073255,22.5627344 C31.1411393,22.4675705 31.1228235,22.3301115 31.2179247,22.2842918 C32.3034874,22.2116852 34.0927992,22.2236689 35.1994955,22.2539803 L35.2523296,22.325882 C35.2565563,22.6212426 35.2354227,23.013882 35.192451,23.3261607 L35.1184834,23.4037016 Z" id="Fill-159" fill="#69BEA5"></path>
                    <path d="M35.1880834,21.3959541 C33.9820591,21.4185115 32.4125368,21.5221344 31.2776623,21.542577 C31.1276138,21.4953475 31.1586097,21.2599049 31.0994356,21.121741 C31.1191603,21.0223475 31.0818243,20.889118 31.169881,20.8306098 C32.2350146,20.6078557 34.0081239,20.3702984 35.1084802,20.2462328 L35.1711765,20.3096754 C35.2162615,20.6015115 35.2500753,20.9934459 35.2507798,21.3092492 L35.1880834,21.3959541 Z" id="Fill-161" fill="#69BEA5"></path>
                    <path d="M34.9884413,19.4352246 C33.7972105,19.6255525 32.2572753,19.9469951 31.1364899,20.1253393 C30.9815101,20.0999623 30.9793968,19.8617 30.9012024,19.7334049 C30.9068381,19.6326016 30.8518907,19.5057164 30.9307895,19.4352246 C31.9543603,19.0658475 33.6774534,18.5836836 34.7496316,18.3073557 L34.8207814,18.3623393 C34.9060202,18.6443066 34.9933725,19.027782 35.0384575,19.3400607 L34.9884413,19.4352246 Z" id="Fill-163" fill="#69BEA5"></path>
                    <path d="M34.5201911,17.5287033 C33.3670008,17.883277 31.8869441,18.4154902 30.8013814,18.7489164 C30.6442883,18.7446869 30.6090656,18.5092443 30.5139644,18.3929328 C30.5055109,18.2928344 30.4329522,18.1744082 30.5019887,18.0940475 C31.4642721,17.5858016 33.1035352,16.8681951 34.1271061,16.4452443 L34.204596,16.4896541 C34.3278753,16.757523 34.468766,17.1247852 34.5561182,17.4279 L34.5201911,17.5287033 Z" id="Fill-165" fill="#69BEA5"></path>
                    <path d="M33.7904478,15.7074066 C32.6978405,16.2184721 31.3058405,16.9522918 30.2780429,17.4330459 C30.1216543,17.4513738 30.0540267,17.2229803 29.9434275,17.1214721 C29.9215895,17.0227836 29.8328283,16.916341 29.8898891,16.8268164 C30.7718648,16.1895705 32.2955976,15.2506197 33.250132,14.6895049 L33.3332575,14.7219311 C33.4931684,14.9700623 33.6833709,15.3147672 33.8122858,15.6023738 L33.7904478,15.7074066 Z" id="Fill-167" fill="#69BEA5"></path>
                    <path d="M31.6102348,12.4602721 C30.7007854,13.2533049 29.564502,14.3424033 28.7085911,15.0882066 C28.5634737,15.1488295 28.4359676,14.9479279 28.301417,14.8802557 C28.2535142,14.792141 28.1386883,14.7138951 28.1689798,14.6123869 C28.8410283,13.7566164 30.0477571,12.4334852 30.8106802,11.6305836 L30.8994413,11.6390426 C31.1213441,11.8336 31.3988988,12.1120426 31.6017814,12.3531246 L31.6102348,12.4602721 Z" id="Fill-169" fill="#69BEA5"></path>
                    <path d="M30.20323,11.0971721 C29.4128332,12.0086311 28.4392785,13.2457623 27.6953757,14.1036475 C27.5601206,14.1840082 27.4058453,14.0028443 27.2635457,13.9549098 C27.2029628,13.8738443 27.0789789,13.8125164 27.0944769,13.7074836 C27.6411328,12.766418 28.6520235,11.2882049 29.2958939,10.3866148 L29.3853595,10.3830902 C29.6319182,10.5452213 29.9454,10.7820738 30.179983,10.9928443 L30.20323,11.0971721 Z" id="Fill-171" fill="#69BEA5"></path>
                    <path d="M28.6194073,9.94357377 C27.9635611,10.956541 27.1717555,12.3170328 26.5539498,13.270082 C26.4313749,13.3687705 26.2531482,13.2108689 26.105213,13.1826721 C26.0347676,13.1107705 25.9030348,13.0670656 25.9037393,12.9613279 C26.3144356,11.9532951 27.1097636,10.3489016 27.6226057,9.3662459 L27.7099579,9.3507377 C27.9769457,9.47621311 28.3200146,9.6672459 28.5820713,9.84277049 L28.6194073,9.94357377 Z" id="Fill-173" fill="#69BEA5"></path>
                    <path d="M26.8895514,9.02280984 C26.380936,10.1175475 25.7856729,11.5746131 25.307349,12.6044984 C25.1988632,12.7194 25.0009117,12.5875803 24.8508632,12.5805311 C24.7705555,12.5192033 24.634596,12.4945311 24.6205069,12.3894984 C24.8867903,11.3342361 25.4510575,9.63397377 25.8216,8.58999016 L25.9068389,8.56179344 C26.1886202,8.64920328 26.554936,8.7908918 26.8388308,8.92835082 L26.8895514,9.02280984 Z" id="Fill-175" fill="#69BEA5"></path>
                    <path d="M25.0474761,8.35327869 C24.6959538,9.50793443 24.3092089,11.034082 23.9781158,12.1203607 C23.8872413,12.2493607 23.672383,12.1464426 23.5230389,12.160541 C23.4349822,12.1111967 23.2969093,12.1055574 23.2687312,12.0033443 C23.3856704,10.9205902 23.7083101,9.159 23.930213,8.07342623 L24.0098162,8.03395082 C24.3007555,8.08118033 24.6839781,8.17 24.9840753,8.26727869 L25.0474761,8.35327869 Z" id="Fill-177" fill="#69BEA5"></path>
                    <path d="M23.1280518,7.94950164 C22.9406672,9.14151803 22.7701895,10.707141 22.5933717,11.8293705 C22.520813,11.9689443 22.2939789,11.8970426 22.1481571,11.9315836 C22.0537603,11.8949279 21.9163919,11.9090262 21.8741247,11.8117475 C21.838902,10.7233541 21.9135741,8.93427213 21.9826105,7.82825574 L22.0565781,7.77750164 C22.3510397,7.7838459 22.7427158,7.8190918 23.0533798,7.87266557 L23.1280518,7.94950164 Z" id="Fill-179" fill="#69BEA5"></path>
                    <path d="M21.121064,7.81507377 C21.1013393,9.02189344 21.1499466,10.5959754 21.1309263,11.7308934 C21.0787968,11.8796311 20.8442138,11.8408607 20.7040275,11.8951393 C20.6061085,11.871877 20.4715579,11.9043033 20.4166105,11.8147787 C20.2306348,10.7418934 20.0552259,8.95915574 19.969987,7.85454918 L20.0355012,7.79392623 C20.3285538,7.75938525 20.7209344,7.73964754 21.0365296,7.74951639 L21.121064,7.81507377 Z" id="Fill-181" fill="#69BEA5"></path>
                    <path d="M20.6295668,30.8580689 C20.7119879,29.9395607 20.70283,29.3883148 20.7880688,28.4423148 C20.8437206,28.3203639 21.0522389,28.3654787 21.1811538,28.3274131 C21.2678016,28.3520852 21.3903765,28.3316426 21.4347571,28.4098885 C21.5369028,29.3150033 21.5664899,30.0368393 21.5756478,30.8834459 L21.5178826,30.925741 C21.2762551,30.9384295 20.9536154,30.9349049 20.6957854,30.9123475 L20.6295668,30.8580689 Z" id="Fill-183" fill="#961E23"></path>
                    <path d="M26.059353,14.2582361 C25.5288996,15.0124984 25.2619117,15.4946623 24.7145514,16.271482 C24.6060656,16.348318 24.448268,16.2052197 24.3172397,16.1734984 C24.2545433,16.1093508 24.1383085,16.064941 24.139013,15.9754164 C24.5025109,15.1407934 24.8378308,14.5007279 25.2527538,13.7633836 L25.3239036,13.7549246 C25.5394664,13.8655967 25.8170211,14.0298426 26.0290615,14.1785803 L26.059353,14.2582361 Z" id="Fill-185" fill="#961E23"></path>
                    <path d="M24.6713684,13.5172967 C24.2796923,14.3519197 24.1007611,14.873559 23.6964049,15.733559 C23.6027126,15.828723 23.4223725,15.7145262 23.2878219,15.7060672 C23.2152632,15.6539033 23.0926883,15.630641 23.0778947,15.5425262 C23.2913441,14.6571492 23.5104291,13.9684443 23.7908016,13.1697721 L23.8598381,13.1493295 C24.0916032,13.2205262 24.3931093,13.334018 24.6276923,13.4439852 L24.6713684,13.5172967 Z" id="Fill-187" fill="#961E23"></path>
                    <path d="M23.1753911,13.0296344 C22.934468,13.9199459 22.8485247,14.4641426 22.5998526,15.381241 C22.5237717,15.4912082 22.3272291,15.4108475 22.193383,15.4256508 C22.1123709,15.3868803 21.9876826,15.3854705 21.9573911,15.3008803 C22.0144518,14.3915361 22.1102575,13.6753393 22.2483304,12.8407164 L22.3124356,12.8082902 C22.5526543,12.8378967 22.8696583,12.8978148 23.1197393,12.964782 L23.1753911,13.0296344 Z" id="Fill-189" fill="#961E23"></path>
                    <path d="M21.6091798,12.8109689 C21.5267587,13.729477 21.5359166,14.280723 21.4506777,15.226723 C21.3950259,15.3486738 21.1865077,15.303559 21.0575927,15.3416246 C20.9709449,15.3169525 20.84837,15.3373951 20.8039895,15.2591492 C20.7018437,14.3540344 20.6722567,13.6321984 20.6630988,12.7855918 L20.720864,12.7432967 C20.9624915,12.7306082 21.2851312,12.7341328 21.5429611,12.7566902 L21.6091798,12.8109689 Z" id="Fill-191" fill="#961E23"></path>
                    <path d="M20.0265547,12.861159 C20.104749,13.7803721 20.2097126,14.3210443 20.2900202,15.2677492 C20.255502,15.3974541 20.0427571,15.3889951 19.9222955,15.4489131 C19.83283,15.4397492 19.7158907,15.4813393 19.65883,15.4122574 C19.401,14.5388639 19.2467247,13.8325361 19.090336,13.0007328 L19.1396478,12.9485689 C19.3756397,12.8942902 19.6947571,12.8421262 19.952587,12.8195689 L20.0265547,12.861159 Z" id="Fill-193" fill="#961E23"></path>
                    <path d="M18.485915,13.184223 C18.7219069,14.0759443 18.9198583,14.5905344 19.1628947,15.5090426 C19.1516235,15.6422721 18.9409919,15.6711738 18.8325061,15.7508295 C18.7430405,15.7578787 18.6345547,15.8185016 18.5662227,15.7599934 C18.1611619,14.9451082 17.8864251,14.276141 17.5884413,13.484518 L17.6278907,13.4246 C17.8512024,13.330141 18.1555263,13.2229934 18.4056073,13.1560262 L18.485915,13.184223 Z" id="Fill-195" fill="#961E23"></path>
                    <path d="M17.0253717,13.7705738 C17.4128211,14.6073115 17.6967158,15.0796066 18.0954364,15.9424262 C18.1074121,16.0749508 17.9045296,16.1405082 17.8122462,16.2377869 C17.7248939,16.2603443 17.6290883,16.3392951 17.5515984,16.2934754 C17.0112826,15.5610656 16.6245377,14.9499016 16.1934121,14.2224262 L16.2222947,14.1568689 C16.4251773,14.0243443 16.7069587,13.8657377 16.9415417,13.7571803 L17.0253717,13.7705738 Z" id="Fill-197" fill="#961E23"></path>
                    <path d="M15.6893757,14.6019541 C16.2163069,15.3590361 16.5776915,15.7749377 17.1201206,16.554577 C17.1553433,16.683577 16.9665498,16.7829705 16.8925822,16.8950525 C16.8101611,16.9324131 16.729149,17.0268721 16.645319,16.9951508 C15.9859506,16.3677738 15.4991733,15.8334459 14.9489951,15.1912656 L14.9651976,15.1214787 C15.1427198,14.9565279 15.3920964,14.7513967 15.6041368,14.602659 L15.6893757,14.6019541 Z" id="Fill-199" fill="#961E23"></path>
                    <path d="M14.5185741,15.6527049 C15.1687846,16.3068689 15.5970923,16.6529836 16.2663231,17.3268852 C16.3233838,17.4481311 16.1550194,17.578541 16.101481,17.7019016 C16.0268089,17.7526557 15.9634081,17.8598033 15.8753514,17.8435902 C15.1166551,17.3395738 14.5446389,16.8982951 13.8916105,16.3618525 L13.8958372,16.2899508 C14.0416591,16.0968033 14.2515862,15.8514918 14.4347441,15.6682131 L14.5185741,15.6527049 Z" id="Fill-201" fill="#961E23"></path>
                    <path d="M13.548119,16.8912459 C14.3018842,17.4220492 14.7837304,17.6892131 15.5600381,18.2369344 C15.6368235,18.3454918 15.4938194,18.5033934 15.462119,18.6345082 C15.3980138,18.6972459 15.3543377,18.8135574 15.2641676,18.8128525 C14.4300947,18.4491148 13.790451,18.1135738 13.0535927,17.698377 L13.0451393,17.6271803 C13.155034,17.4114754 13.3198761,17.1337377 13.4685158,16.9215574 L13.548119,16.8912459 Z" id="Fill-203" fill="#961E23"></path>
                    <path d="M12.8077385,18.2802164 C13.6418113,18.6721508 14.1631069,18.8512 15.0225401,19.255823 C15.1169368,19.349577 15.0035198,19.5300361 14.9950664,19.6646754 C14.9429368,19.737282 14.9196899,19.8599377 14.8316332,19.874741 C13.9468397,19.6611508 13.2578842,19.4419213 12.4604429,19.1613639 L12.4400138,19.092282 C12.5111636,18.8603639 12.6245806,18.558659 12.7344753,18.3239213 L12.8077385,18.2802164 Z" id="Fill-205" fill="#961E23"></path>
                    <path d="M12.3202567,19.7771098 C13.2099814,20.0181918 13.7538194,20.1041918 14.6703134,20.3530279 C14.7802081,20.429159 14.6999004,20.6265361 14.7146939,20.7597656 C14.675949,20.8408311 14.6745401,20.9656016 14.5900057,20.9959131 C13.6812607,20.9388148 12.965536,20.8429459 12.1314632,20.704782 L12.0990583,20.6406344 C12.1293498,20.4002574 12.1885239,20.0830443 12.255447,19.8327984 L12.3202567,19.7771098 Z" id="Fill-207" fill="#961E23"></path>
                    <path d="M12.1018057,21.3443541 C13.0197085,21.4268295 13.5705911,21.4176656 14.5166721,21.5029607 C14.6378381,21.5586492 14.592753,21.7673049 14.6307935,21.8963049 C14.6061377,21.9830098 14.6265668,22.1056656 14.5483725,22.1500754 C13.6438543,22.2515836 12.9224939,22.2818951 12.0764453,22.291059 L12.0341781,22.2332557 C12.021498,21.9914689 12.0250202,21.6679115 12.0475628,21.4106164 L12.1018057,21.3443541 Z" id="Fill-209" fill="#961E23"></path>
                    <path d="M12.1519628,22.928023 C13.07057,22.849777 13.6108858,22.7447443 14.5569668,22.6643836 C14.6865862,22.6989246 14.6781328,22.9118098 14.7380113,23.0323508 C14.7288534,23.1218754 14.7704162,23.2388918 14.7013798,23.2959902 C13.8278575,23.5539902 13.1226996,23.7083672 12.2914445,23.864859 L12.239315,23.8155148 C12.1850721,23.5793672 12.1329425,23.2600393 12.1104,23.0020393 L12.1519628,22.928023 Z" id="Fill-211" fill="#961E23"></path>
                    <path d="M12.4748842,24.4697492 C13.3660178,24.2336016 13.8795644,24.0355197 14.7981717,23.792323 C14.9313134,23.8036016 14.9594915,24.0143721 15.0397992,24.1229295 C15.0461393,24.2124541 15.1074267,24.3210115 15.0489571,24.3893885 C14.2339045,24.7947164 13.5660826,25.0696344 12.7749814,25.3678148 L12.7151028,25.3283393 C12.6207061,25.1048803 12.5136291,24.8003557 12.4467061,24.5501098 L12.4748842,24.4697492 Z" id="Fill-213" fill="#961E23"></path>
                    <path d="M13.0607781,25.9311852 C13.8969644,25.5434803 14.3689482,25.2593984 15.2311992,24.8604148 C15.3643409,24.8484311 15.4291506,25.0514475 15.5263652,25.1437918 C15.5489077,25.2312016 15.6278065,25.3277754 15.582017,25.4046115 C14.8500899,25.9452836 14.2393287,26.3322836 13.5123328,26.7636934 L13.4461142,26.7347918 C13.3143814,26.5317754 13.1558794,26.2498082 13.0466891,26.0150705 L13.0607781,25.9311852 Z" id="Fill-215" fill="#961E23"></path>
                    <path d="M13.891681,27.2680623 C14.648264,26.7407836 15.0638915,26.3791607 15.843017,25.8363738 C15.971932,25.8011279 16.0712599,25.9900459 16.183268,26.0640623 C16.220604,26.1465377 16.3150008,26.2276033 16.2833004,26.3114885 C15.6563368,26.9712918 15.1223611,27.4583902 14.480604,28.0096361 L14.4108632,27.992718 C14.2460211,27.8150787 14.0410251,27.5655377 13.8923854,27.3533574 L13.891681,27.2680623 Z" id="Fill-217" fill="#961E23"></path>
                    <path d="M14.9415984,28.4396361 C15.5953312,27.7889967 15.9412178,27.3611115 16.6146753,26.6907344 C16.7358413,26.6336361 16.8661652,26.8021115 16.9894445,26.8556852 C17.0401652,26.9304066 17.1472421,26.9938492 17.1310397,27.0819639 C16.6273555,27.8411607 16.1863676,28.4135541 15.6502785,29.0670131 L15.5784243,29.0627836 C15.385404,28.9168656 15.1402543,28.7068 14.9570964,28.5235213 L14.9415984,28.4396361 Z" id="Fill-219" fill="#961E23"></path>
                    <path d="M16.179464,29.4108016 C16.7099174,28.6565393 16.9769053,28.1743754 17.5235611,27.3975557 C17.6327514,27.3207197 17.790549,27.463818 17.9215773,27.4955393 C17.9842737,27.5596869 18.1005085,27.6040967 18.099804,27.6936213 C17.7356016,28.5282443 17.4009862,29.1683098 16.9860632,29.9056541 L16.9149134,29.9141131 C16.6993506,29.8041459 16.4210915,29.6391951 16.2097555,29.4904574 L16.179464,29.4108016 Z" id="Fill-221" fill="#961E23"></path>
                    <path d="M17.5674486,30.151741 C17.9591247,29.3164131 18.1380559,28.7954787 18.5424121,27.9354787 C18.6361045,27.8403148 18.8164445,27.9545115 18.9509951,27.9622656 C19.0235538,28.0151344 19.1461287,28.0383967 19.1609223,28.1265115 C18.9474729,29.0118885 18.7283879,29.7005934 18.4480154,30.4992656 L18.3789789,30.5197082 C18.1472138,30.4485115 17.8457077,30.3343148 17.6111247,30.2250525 L17.5674486,30.151741 Z" id="Fill-223" fill="#961E23"></path>
                    <path d="M19.0633555,30.6394738 C19.3042785,29.7491623 19.3902219,29.2049656 19.6388939,28.2878672 C19.7149749,28.1779 19.9122219,28.2582607 20.046068,28.2434574 C20.1263757,28.2822279 20.251064,28.2836377 20.2813555,28.3682279 C20.2242947,29.2775721 20.1284891,29.9937689 19.9904162,30.8283918 L19.9263109,30.860818 C19.6860923,30.8312115 19.3690883,30.7712934 19.1190073,30.7043262 L19.0633555,30.6394738 Z" id="Fill-225" fill="#961E23"></path>
                    <path d="M22.2121919,30.8078787 C22.1339976,29.8886656 22.029034,29.3479934 21.9487263,28.4012885 C21.9832445,28.2715836 22.1959895,28.2800426 22.316451,28.2201246 C22.4059166,28.2292885 22.5228559,28.1876984 22.5806211,28.2567803 C22.8377466,29.1301738 22.9920219,29.8365016 23.1484105,30.6683049 L23.0990988,30.7204689 C22.8631069,30.7747475 22.5446939,30.8269115 22.2861595,30.8494689 L22.2121919,30.8078787 Z" id="Fill-227" fill="#961E23"></path>
                    <path d="M23.7528316,30.4847443 C23.5168397,29.593023 23.3188883,29.0784328 23.0758518,28.1599246 C23.0871231,28.0266951 23.2977547,27.9977934 23.4062405,27.9181377 C23.4957061,27.9110885 23.6041919,27.8504656 23.6725239,27.9089738 C24.0775846,28.7245639 24.3523215,29.3928262 24.6503053,30.1844492 L24.6108559,30.2443672 C24.3875441,30.3388262 24.0832202,30.4459738 23.8331393,30.512941 L23.7528316,30.4847443 Z" id="Fill-229" fill="#961E23"></path>
                    <path d="M25.2133749,29.8983934 C24.8259255,29.0616557 24.5420308,28.5893607 24.1433101,27.726541 C24.1313344,27.5933115 24.334217,27.528459 24.4265004,27.4311803 C24.5138526,27.408623 24.6103628,27.330377 24.6871482,27.3754918 C25.2281684,28.1079016 25.6142089,28.7190656 26.0453344,29.446541 L26.0164518,29.5128033 C25.8135692,29.644623 25.5324923,29.8032295 25.2972049,29.9124918 L25.2133749,29.8983934 Z" id="Fill-231" fill="#961E23"></path>
                    <path d="M26.5493709,29.0670131 C26.0224397,28.3099311 25.6610551,27.8940295 25.1186259,27.1143902 C25.0834032,26.9853902 25.2721968,26.8859967 25.3461644,26.7739148 C25.4285854,26.7365541 25.5095976,26.6420951 25.5934275,26.6738164 C26.252796,27.3011934 26.7395733,27.8355213 27.2904559,28.4777016 L27.273549,28.5474885 C27.0960267,28.7124393 26.8466502,28.9175705 26.6346097,29.0656033 L26.5493709,29.0670131 Z" id="Fill-233" fill="#961E23"></path>
                    <path d="M27.7201725,28.0162623 C27.0699619,27.3620984 26.6423587,27.0159836 25.9724235,26.342082 C25.9153628,26.2208361 26.0837271,26.0904262 26.1372656,25.9670656 C26.2119377,25.9163115 26.2753385,25.8091639 26.3633951,25.825377 C27.1220915,26.3293934 27.6941077,26.7706721 28.3478405,27.3071148 L28.3429093,27.3790164 C28.1970874,27.5721639 27.9871603,27.8174754 27.8040024,28.0007541 L27.7201725,28.0162623 Z" id="Fill-235" fill="#961E23"></path>
                    <path d="M28.690698,26.7777918 C27.9369328,26.2469885 27.4550866,25.9798246 26.6787789,25.4321033 C26.6019935,25.3235459 26.7449976,25.1656443 26.776698,25.0345295 C26.8408032,24.9717918 26.8844794,24.8554803 26.9746494,24.8561852 C27.8087223,25.219923 28.448366,25.5554639 29.1852243,25.9706607 L29.1936777,26.0418574 C29.0830785,26.2575623 28.9189409,26.5353 28.7703012,26.7474803 L28.690698,26.7777918 Z" id="Fill-237" fill="#961E23"></path>
                    <path d="M29.4310785,25.3887508 C28.5970057,24.9968164 28.0757101,24.8177672 27.2162769,24.4131443 C27.1211757,24.3193902 27.2352972,24.1389311 27.2437506,24.0049967 C27.2958802,23.9316852 27.3191271,23.8090295 27.4071838,23.7942262 C28.2919773,24.0078164 28.9802283,24.2270459 29.7783741,24.5076033 L29.7988032,24.5766852 C29.7276534,24.8086033 29.613532,25.1110131 29.5043417,25.3450459 L29.4310785,25.3887508 Z" id="Fill-239" fill="#961E23"></path>
                    <path d="M29.9184899,23.8919279 C29.0287652,23.6508459 28.4849271,23.5648459 27.5684332,23.3160098 C27.4585385,23.2398787 27.5388462,23.0425016 27.5240526,22.9092721 C27.5627976,22.8282066 27.5642065,22.7034361 27.6487409,22.6731246 C28.5574858,22.730223 29.2732105,22.8260918 30.1072834,22.9642557 L30.1396883,23.0276984 C30.1101012,23.2687803 30.0502227,23.5859934 29.9832996,23.8362393 L29.9184899,23.8919279 Z" id="Fill-241" fill="#961E23"></path>
                    <path d="M30.1370113,22.3246836 C29.2191085,22.2415033 28.6682259,22.2513721 27.7228494,22.166077 C27.6009789,22.1103885 27.646064,21.9017328 27.6080235,21.7727328 C27.6326794,21.6860279 27.6122502,21.5633721 27.6904445,21.5189623 C28.5949628,21.4167492 29.3163231,21.3871426 30.1623717,21.3779787 L30.2046389,21.435782 C30.217319,21.6775689 30.2137968,22.0004213 30.1905498,22.2584213 L30.1370113,22.3246836 Z" id="Fill-243" fill="#961E23"></path>
                    <path d="M30.0868543,20.7409443 C29.168247,20.8191902 28.6279312,20.924223 27.6818502,21.0045836 C27.5522308,20.9700426 27.5606842,20.7571574 27.5008057,20.6366164 C27.5099636,20.5470918 27.4684008,20.4300754 27.5374372,20.3722721 C28.4109595,20.114977 29.1161174,19.9606 29.9473725,19.8041082 L29.999502,19.8534525 C30.0537449,20.0896 30.1065789,20.4089279 30.128417,20.6669279 L30.0868543,20.7409443 Z" id="Fill-245" fill="#961E23"></path>
                    <path d="M29.7639328,19.1992885 C28.8727992,19.4354361 28.3585482,19.633518 27.4406453,19.8767148 C27.3075036,19.8654361 27.2786211,19.6546656 27.1990178,19.5461082 C27.1919733,19.4565836 27.1313903,19.3480262 27.1898599,19.2796492 C28.0049126,18.8743213 28.6727344,18.5994033 29.4638356,18.301223 L29.5237142,18.3406984 C29.6181109,18.5641574 29.7251879,18.868682 29.7921109,19.1189279 L29.7639328,19.1992885 Z" id="Fill-247" fill="#961E23"></path>
                    <path d="M29.1780389,17.737782 C28.3418526,18.1254869 27.8698688,18.4095689 27.0076178,18.8085525 C26.8751806,18.8205361 26.8096664,18.6175197 26.7124518,18.5251754 C26.6899093,18.4377656 26.6110105,18.3411918 26.6568,18.2643557 C27.3887271,17.7229787 27.9994883,17.3366836 28.7264842,16.9052738 L28.7927028,16.9341754 C28.9244356,17.1371918 29.0829377,17.419159 29.1921279,17.6538967 L29.1780389,17.737782 Z" id="Fill-249" fill="#961E23"></path>
                    <path d="M28.347136,16.4009049 C27.590553,16.9281836 27.1749255,17.2898066 26.3958,17.8325934 C26.266885,17.8678393 26.1675571,17.6789213 26.055549,17.6049049 C26.018213,17.5224295 25.9245206,17.4413639 25.9555166,17.3574787 C26.5824802,16.6976754 27.1164559,16.210577 27.758213,15.6593311 L27.8279538,15.6762492 C27.992796,15.8538885 28.1977919,16.1034295 28.3464316,16.3156098 L28.347136,16.4009049 Z" id="Fill-251" fill="#961E23"></path>
                    <path d="M27.2971482,15.2294016 C26.6434154,15.880041 26.2975287,16.3079262 25.6240713,16.9783033 C25.5029053,17.0354016 25.3725814,16.8669262 25.249302,16.8133525 C25.1985814,16.7386311 25.0915045,16.6751885 25.1077069,16.5870738 C25.6113911,15.827877 26.0523789,15.2554836 26.588468,14.6013197 L26.6603223,14.6062541 C26.8533425,14.7521721 27.0984923,14.9622377 27.2816502,15.1455164 L27.2971482,15.2294016 Z" id="Fill-253" fill="#961E23"></path>
                    <g id="Group-257" transform="translate(50.720648, 14.766693)">
                        <mask id="mask-4" fill="white">
                            <use xlink:href="#path-3"></use>
                        </mask>
                        <g id="Clip-256"></g>
                        <path d="M18.9205628,0.98822459 C18.8768866,0.926896721 18.8057368,0.890945902 18.7310648,0.890945902 L16.216166,0.890945902 C16.1140202,0.890945902 16.0238502,0.957208197 15.9935587,1.0551918 L13.621664,8.59006066 L11.0405466,1.04955246 C11.0081417,0.955093443 10.9193806,0.890945902 10.8193482,0.890945902 L8.81095142,0.890945902 C8.71162348,0.890945902 8.62215789,0.955093443 8.58975304,1.04955246 L6.00863563,8.59006066 L3.63674089,1.0551918 C3.60644939,0.957208197 3.51627935,0.890945902 3.4141336,0.890945902 L0.899234818,0.890945902 C0.824562753,0.890945902 0.753412955,0.926896721 0.709736842,0.98822459 C0.666060729,1.04884754 0.653380567,1.12638852 0.67662753,1.19829016 L4.58916194,13.1529951 C4.62086235,13.248159 4.71032794,13.3137164 4.81106478,13.3137164 L7.15125911,13.3137164 C7.25058704,13.3137164 7.33934818,13.2502738 7.37245749,13.1572246 L9.82325101,6.11932295 L12.2578421,13.1565197 C12.290247,13.2502738 12.3790081,13.3137164 12.478336,13.3137164 L14.8192348,13.3137164 C14.9199717,13.3137164 15.0094372,13.248159 15.0411377,13.1529951 L18.9536721,1.19829016 C18.976919,1.12638852 18.9642389,1.04884754 18.9205628,0.98822459 L18.9205628,0.98822459 Z M25.097915,0.681585246 C21.5601498,0.681585246 18.681753,3.54637213 18.681753,7.06673279 C18.681753,10.5885033 21.5601498,13.4525852 25.097915,13.4525852 C28.6363846,13.4525852 31.5147814,10.5885033 31.5147814,7.06673279 C31.5147814,3.54637213 28.6363846,0.681585246 25.097915,0.681585246 L25.097915,0.681585246 Z M25.097915,10.7654377 C23.1134696,10.7654377 21.5594453,9.14130656 21.5594453,7.06673279 C21.5594453,4.99356885 23.1134696,3.3694377 25.097915,3.3694377 C27.0830648,3.3694377 28.6370891,4.99356885 28.6370891,7.06673279 C28.6370891,9.14130656 27.0830648,10.7654377 25.097915,10.7654377 L25.097915,10.7654377 Z M40.167583,8.84947049 C41.5722632,8.10507705 42.3718178,6.78335574 42.3718178,5.17966721 C42.3718178,2.65465082 40.36483,0.890945902 37.4920688,0.890945902 L32.9969514,0.890945902 C32.867332,0.890945902 32.7630729,0.995978689 32.7630729,1.12497869 L32.7630729,13.0091918 C32.7630729,13.1388967 32.867332,13.2432246 32.9969514,13.2432246 L35.3723684,13.2432246 C35.5012834,13.2432246 35.6055425,13.1388967 35.6055425,13.0091918 L35.6055425,9.46838852 L37.1807004,9.46838852 L39.835081,13.1466508 C39.8787571,13.2065689 39.9492024,13.2432246 40.0245789,13.2432246 L42.906498,13.2432246 C42.9938502,13.2432246 43.0748623,13.1945852 43.1143117,13.1156344 C43.1544656,13.0366836 43.1467166,12.9429295 43.0952915,12.8717328 L40.167583,8.84947049 Z M37.4047166,6.79886393 L35.6055425,6.79886393 L35.6055425,3.56117541 L37.4047166,3.56117541 C38.4775992,3.56117541 39.5638664,4.11665082 39.5638664,5.17966721 C39.5638664,6.24268361 38.4775992,6.79886393 37.4047166,6.79886393 L37.4047166,6.79886393 Z M52.846336,10.5737 L47.467834,10.5737 L47.467834,1.12497869 C47.467834,0.995978689 47.3628704,0.890945902 47.2339555,0.890945902 L44.8585385,0.890945902 C44.7296235,0.890945902 44.6246599,0.995978689 44.6246599,1.12497869 L44.6246599,13.0091918 C44.6246599,13.1388967 44.7296235,13.2432246 44.8585385,13.2432246 L52.846336,13.2432246 C52.9759555,13.2432246 53.0802146,13.1388967 53.0802146,13.0091918 L53.0802146,10.8077328 C53.0802146,10.6780279 52.9759555,10.5737 52.846336,10.5737 L52.846336,10.5737 Z M58.8095344,0.890945902 L54.7687895,0.890945902 C54.6398745,0.890945902 54.5349109,0.995978689 54.5349109,1.12497869 L54.5349109,13.0091918 C54.5349109,13.1388967 54.6398745,13.2432246 54.7687895,13.2432246 L58.8095344,13.2432246 C62.5670891,13.2432246 65.4004008,10.5659459 65.4004008,7.01527377 C65.4004008,3.52381475 62.5670891,0.890945902 58.8095344,0.890945902 L58.8095344,0.890945902 Z M58.8095344,10.5737 L57.378085,10.5737 L57.378085,3.56117541 L58.8095344,3.56117541 C60.8573806,3.56117541 62.523413,5.11058525 62.523413,7.01527377 C62.523413,8.97706066 60.8573806,10.5737 58.8095344,10.5737 L58.8095344,10.5737 Z M74.6329676,0.890945902 L70.5753158,0.890945902 C70.4464008,0.890945902 70.3414372,0.995978689 70.3414372,1.12497869 L70.3414372,13.0091918 C70.3414372,13.1388967 70.4464008,13.2432246 70.5753158,13.2432246 L72.9507328,13.2432246 C73.0796478,13.2432246 73.1846113,13.1388967 73.1846113,13.0091918 L73.1846113,9.92306066 L74.2842632,9.92306066 C77.4634615,9.92306066 79.6000688,8.05925738 79.6000688,5.2847 C79.6000688,2.65676557 77.6036478,0.890945902 74.6329676,0.890945902 L74.6329676,0.890945902 Z M74.5456154,7.26974918 L73.1846113,7.26974918 L73.1846113,3.54355246 L74.5456154,3.54355246 C75.8897126,3.54355246 76.7921174,4.24353607 76.7921174,5.2847 C76.7921174,6.49081475 75.9101417,7.26974918 74.5456154,7.26974918 L74.5456154,7.26974918 Z M91.9477287,0.890945902 L89.5730162,0.890945902 C89.4433968,0.890945902 89.3391377,0.995978689 89.3391377,1.12497869 L89.3391377,7.66168361 C89.3391377,9.54733934 88.2725951,10.7654377 86.6206518,10.7654377 C84.9806842,10.7654377 83.9204818,9.54733934 83.9204818,7.66168361 L83.9204818,1.12497869 C83.9204818,0.995978689 83.8162227,0.890945902 83.6866032,0.890945902 L81.3111862,0.890945902 C81.1822713,0.890945902 81.0780121,0.995978689 81.0780121,1.12497869 L81.0780121,7.66168361 C81.0780121,11.1792246 83.2533644,13.4525852 86.6206518,13.4525852 C89.9992105,13.4525852 92.1816073,11.1792246 92.1816073,7.66168361 L92.1816073,1.12497869 C92.1816073,0.995978689 92.0773482,0.890945902 91.9477287,0.890945902 L91.9477287,0.890945902 Z M102.173575,10.5737 L96.7943684,10.5737 L96.7943684,1.12497869 C96.7943684,0.995978689 96.6894049,0.890945902 96.5604899,0.890945902 L94.1850729,0.890945902 C94.0561579,0.890945902 93.9511943,0.995978689 93.9511943,1.12497869 L93.9511943,13.0091918 C93.9511943,13.1388967 94.0561579,13.2432246 94.1850729,13.2432246 L102.173575,13.2432246 C102.303194,13.2432246 102.407453,13.1388967 102.407453,13.0091918 L102.407453,10.8077328 C102.407453,10.6780279 102.303194,10.5737 102.173575,10.5737 L102.173575,10.5737 Z M122.988061,3.56117541 C123.11768,3.56117541 123.221939,3.45614262 123.221939,3.32714262 L123.221939,1.12497869 C123.221939,0.995978689 123.11768,0.890945902 122.988061,0.890945902 L114.773429,0.890945902 C114.644514,0.890945902 114.539551,0.995978689 114.539551,1.12497869 L114.539551,13.0091918 C114.539551,13.1388967 114.644514,13.2432246 114.773429,13.2432246 L122.988061,13.2432246 C123.11768,13.2432246 123.221939,13.1388967 123.221939,13.0091918 L123.221939,10.8077328 C123.221939,10.6780279 123.11768,10.5737 122.988061,10.5737 L117.382725,10.5737 L117.382725,8.4899623 L122.289947,8.4899623 C122.418862,8.4899623 122.523826,8.38492951 122.523826,8.25592951 L122.523826,6.05376557 C122.523826,5.92476557 122.418862,5.81973279 122.289947,5.81973279 L117.382725,5.81973279 L117.382725,3.56117541 L122.988061,3.56117541 Z M109.312506,5.94732295 L109.311802,5.94732295 L107.914166,5.66747049 C106.765907,5.4369623 106.339008,5.10565082 106.339008,4.44584754 C106.339008,3.31586393 107.689445,3.19461803 108.271324,3.19461803 C109.547089,3.19461803 110.240976,3.7092082 110.395955,4.76799508 C110.405818,4.83778197 110.446676,4.89910984 110.506555,4.93506066 C110.567842,4.97171639 110.64181,4.97806066 110.706619,4.95409344 L112.917194,4.14907705 C113.030611,4.10748689 113.094012,3.98624098 113.062312,3.86851967 C112.293049,0.992454098 109.332935,0.681585246 108.095915,0.681585246 C105.261194,0.681585246 103.356352,2.27892951 103.356352,4.65591311 C103.356352,6.65788033 104.560263,7.90558525 106.934976,8.36307705 L108.858838,8.73104426 C110.095154,8.95168361 110.238158,9.44301148 110.238158,9.79406066 C110.238158,10.7308967 109.093421,10.8711754 108.410806,10.8711754 C106.896935,10.8711754 105.887453,10.1958639 105.709931,9.06517541 C105.69866,8.99609344 105.657802,8.93617541 105.597219,8.90022459 C105.538045,8.86638852 105.465486,8.85933934 105.398563,8.88189672 L103.169672,9.69325738 C103.05696,9.73484754 102.993559,9.85327377 103.022441,9.97029016 C103.569097,12.1513066 105.531,13.4525852 108.271324,13.4525852 C111.18917,13.4525852 113.150368,11.8629951 113.150368,9.49658525 C113.150368,7.04206066 111.099,6.31035574 109.312506,5.94732295 L109.312506,5.94732295 Z" id="Fill-255" fill="#961E23" mask="url(#mask-4)"></path>
                    </g>
                </g>
            </g>
        </g>
    </g>
</svg>