<svg id="Layer_1" data-name="Layer 1" xmlns="http://www.w3.org/2000/svg" viewBox="0 0 21.2 21.17"><defs><style>.cls-1{fill:#e6c81e;}</style></defs><title>pattern</title><path class="cls-1" d="M11.23,5.07c-3.1,2.7-4.8,4.5-7.8,7.1v0.4a20.61,20.61,0,0,0,2.5,2.6h0.3c2.5-2.7,4.6-5,7.1-8.2a1.82,1.82,0,0,0-.5-1.1C12.33,5.67,11.83,4.87,11.23,5.07Z" transform="translate(-3.43)"/><path class="cls-1" d="M12.83,15.17c-0.5-.2-1-1-1.6-0.8-3,2.59-4.67,4.36-7.46,6.8H9.24c1.33-1.5,2.65-3,4.09-4.9A1.82,1.82,0,0,0,12.83,15.17Z" transform="translate(-3.43)"/><path class="cls-1" d="M15.23,0.87a1.61,1.61,0,0,0-.5,1.1,82,82,0,0,0,7.1,8.2h0.3a31.29,31.29,0,0,0,2.5-2.6V7.17c-3-2.6-4.7-4.4-7.8-7.1C16.23-.23,15.73.57,15.23,0.87Z" transform="translate(-3.43)"/><path class="cls-1" d="M15.23,10.07a1.61,1.61,0,0,0-.5,1.1,82,82,0,0,0,7.1,8.2h0.3a31.29,31.29,0,0,0,2.5-2.6v-0.4c-3-2.6-4.7-4.4-7.8-7.1C16.23,9.07,15.73,9.87,15.23,10.07Z" transform="translate(-3.43)"/><path class="cls-1" d="M16.83,18.57c-0.6-.3-1.1.5-1.6,0.8a1.61,1.61,0,0,0-.5,1.1l0.54,0.7h4.44C18.85,20.36,17.93,19.52,16.83,18.57Z" transform="translate(-3.43)"/></svg>