<svg id="Layer_1" data-name="Layer 1" xmlns="http://www.w3.org/2000/svg" viewBox="0 0 29.23 29.22"><defs><style>.cls-1,.cls-2{fill:#005387;}.cls-2,.cls-3,.cls-4{stroke:#005387;}.cls-2{stroke-width:0.04px;}.cls-3{fill:none;}.cls-3,.cls-4{stroke-width:0.3px;}.cls-4{fill:#231f20;}</style></defs><title>logo</title><polygon class="cls-1" points="2.73 9.27 2.84 9.02 2.21 8.88 2.73 9.27"/><path class="cls-1" d="M21.25,25.66l-0.18.1,0.18,0.3L21.4,26c0.11-.07.15-0.14,0.09-0.25A0.16,0.16,0,0,0,21.25,25.66Z"/><path class="cls-1" d="M2.46,18.74c-0.06-.19-0.33-0.16-0.54-0.09s-0.46.21-.4,0.4,0.29,0.18.56,0.09S2.53,18.91,2.46,18.74Z"/><path class="cls-1" d="M12.44,27.29c-0.19,0-.29.22-0.33,0.44s0,0.51.17,0.54,0.29-.16.34-0.45A0.4,0.4,0,0,0,12.44,27.29Z"/><path class="cls-1" d="M10.63,26.87l-0.19-.07-0.11.33,0.16,0.05c0.13,0,.21,0,0.25-0.09A0.16,0.16,0,0,0,10.63,26.87Z"/><polygon class="cls-1" points="5.59 24.83 5.91 24.27 5.39 24.64 5.59 24.83"/><path class="cls-1" d="M22.75,24.56c-0.15.12,0,.37,0.11,0.54s0.36,0.36.52,0.22,0.06-.33-0.12-0.56A0.41,0.41,0,0,0,22.75,24.56Z"/><polygon class="cls-1" points="10.89 2.15 10.57 1.59 10.63 2.23 10.89 2.15"/><path class="cls-1" d="M19.59,2.82c0.17,0.07.32-.1,0.43-0.36A0.41,0.41,0,0,0,20,1.91a0.42,0.42,0,0,0-.43.35C19.46,2.46,19.39,2.74,19.59,2.82Z"/><path class="cls-1" d="M5.94,3.92l-0.16.13L6,4.32l0.13-.11A0.16,0.16,0,0,0,6.2,4,0.17,0.17,0,0,0,5.94,3.92Z"/><path class="cls-1" d="M25.73,22c-0.2-.13-0.45-0.22-0.55-0.06s0.08,0.36.26,0.49,0.45,0.24.56,0.07S26,22.14,25.73,22Z"/><path class="cls-1" d="M14.61,0A14.61,14.61,0,1,0,29.23,14.61,14.61,14.61,0,0,0,14.61,0ZM27.5,8.64l-0.37.19-0.29-.57-0.22.12,0.25,0.48L26.5,9l-0.25-.48L26,8.69l0.3,0.6-0.37.19-0.5-1L27,7.68ZM26.2,6.36a0.64,0.64,0,0,1-.16.89L25.8,6.91a0.23,0.23,0,0,0,.05-0.31c-0.1-.14-0.31-0.09-0.56.09s-0.35.33-.23,0.5a0.25,0.25,0,0,0,.29.06l-0.11-.15,0.31-.23L25.9,7.37l-0.79.56L24.95,7.7l0.13-.11a0.45,0.45,0,0,1-.41-0.2,0.75,0.75,0,0,1,.36-1A0.8,0.8,0,0,1,26.2,6.36Zm-1-1.16-0.3.28L24.48,5l-0.18.17,0.38,0.39-0.29.28L24,5.48l-0.2.19,0.47,0.48L24,6.43l-0.76-.79,1.26-1.22Zm-2.16-2L23.4,3.49,22.56,4.55,23,4.92l-0.25.32L22,4.61Zm-1.55-1,0.37,0.22L21.19,3.6l0.51,0.3-0.21.35-0.88-.53Zm-2.37-.14a0.77,0.77,0,0,1,1-.57,0.79,0.79,0,0,1,.29,1.11,0.78,0.78,0,0,1-1,.59A0.78,0.78,0,0,1,19.15,2.08Zm-1.91-.52A0.78,0.78,0,0,1,18.1.83a0.66,0.66,0,0,1,.47.86l-0.4-.1A0.26,0.26,0,0,0,18,1.26c-0.15,0-.28.11-0.36,0.44s-0.08.47,0.14,0.53A0.27,0.27,0,0,0,18.08,2l0.4,0.1a0.67,0.67,0,0,1-.79.55A0.78,0.78,0,0,1,17.24,1.57Zm9.45,13A12.07,12.07,0,1,1,14.61,2.54,12.08,12.08,0,0,1,26.69,14.61Zm-14.42-14,0.61,0.88-0.08-.39-0.08-.55,0.41-.06,0.26,1.74L13,2.31l-0.61-.88,0.08,0.39,0.08,0.55-0.41.06L11.87,0.7ZM10.63,1l1,1.54-0.41.13-0.12-.21-0.41.13,0,0.24L10.28,3,10.21,1.14ZM8.46,1.8a0.65,0.65,0,0,1,.91.36L9,2.34a0.25,0.25,0,0,0-.34-0.16c-0.14.07-.15,0.26,0,0.57S8.9,3.16,9.1,3.07A0.27,0.27,0,0,0,9.18,2.7l0.37-.18a0.68,0.68,0,0,1-.25.93,0.78,0.78,0,0,1-1-.53A0.78,0.78,0,0,1,8.46,1.8ZM7.2,2.53L8.14,4l-0.37.23L6.84,2.76ZM5.68,3.61c0.34-.28.55-0.25,0.77,0a0.42,0.42,0,0,1,.1.48c0.15,0,.24-0.05.47,0.22s0.19,0.24.23,0.21l0,0-0.34.28a1.35,1.35,0,0,1-.21-0.22C6.58,4.45,6.51,4.41,6.35,4.54l-0.1.08L6.64,5.1,6.3,5.37,5.19,4Zm-1.11,1,0.3,0.28-0.44.47L4.62,5.52,5,5.12,5.29,5.4l-0.37.4L5.12,6,5.58,5.5l0.3,0.28-0.75.81L3.84,5.39ZM2.7,6.9l1,0.42L3,6.51l0.29-.43,1.46,1L4.5,7.39l-0.44-.3L3.83,6.93l-0.25-.2h0l0.8,0.83-0.17.25L3.14,7.38h0L3.36,7.52,3.6,7.66,4.09,8l-0.21.32-1.46-1ZM1.83,8.46L3.62,8.77l-0.18.39L3.21,9.11,3,9.5,3.21,9.64,3,10,1.64,8.86ZM1.11,19.19a0.78,0.78,0,0,1,.67-1,0.77,0.77,0,0,1,1.08.36,0.79,0.79,0,0,1-.65.95A0.79,0.79,0,0,1,1.11,19.19Zm2,1.18-0.29.15L3,20.94l-0.37.18L2.46,20.7,1.9,21l-0.19-.39,1.57-.79,0.46,0.91-0.37.18ZM4,24.16l-0.18-.22L4,23.82a0.44,0.44,0,0,1-.42-0.17,0.74,0.74,0,0,1,.29-1.07A0.79,0.79,0,0,1,5,22.52a0.64,0.64,0,0,1-.11.9L4.67,23.1a0.23,0.23,0,0,0,0-.31c-0.11-.13-0.32-0.06-0.56.13s-0.33.35-.19,0.52a0.25,0.25,0,0,0,.3,0l-0.12-.15,0.3-.24,0.37,0.46Zm1.24,1.2,0.12-.21-0.32-.29L4.89,25l-0.31-.28,1.53-1L6.43,24,5.61,25.65ZM7.82,25.7l-0.34-.23a0.14,0.14,0,0,0,0-.13,0.17,0.17,0,0,0-.07-0.09c-0.08-.05-0.13-0.05-0.17,0-0.15.22,0.57,0.51,0.21,1a0.55,0.55,0,0,1-.85.15,0.58,0.58,0,0,1-.15-0.81l0.34,0.24a0.21,0.21,0,0,0,0,.15,0.18,0.18,0,0,0,.08.1,0.15,0.15,0,0,0,.22,0c0.15-.22-0.58-0.49-0.21-1a0.53,0.53,0,0,1,.79-0.15A0.55,0.55,0,0,1,7.82,25.7ZM9.1,26.32L8.52,27.48l-0.38-.19,0.58-1.16L8.36,26l0.2-.41,1.09,0.53-0.21.42Zm2,0.81a0.41,0.41,0,0,1-.34.34c0.11,0.11.18,0.18,0.07,0.51s-0.1.29-.05,0.31v0.05l-0.42-.14a1.73,1.73,0,0,1,.07-0.3c0.08-.22.07-0.3-0.12-0.36l-0.12,0L10,28.09,9.6,28l0.55-1.67,0.59,0.19C11.16,26.62,11.25,26.81,11.14,27.14ZM13,27.89a0.78,0.78,0,0,1-.84.8,0.78,0.78,0,0,1-.53-1,0.78,0.78,0,0,1,.84-0.78A0.79,0.79,0,0,1,13,27.89Zm1.69-.13v0.41l-0.55,0v0.28h0.67v0.41l-1.1,0,0-1.76,1.07,0v0.41l-0.64,0v0.25h0.55Zm1.79,1-0.58-.9L16,28.23l0.06,0.55-0.41,0-0.21-1.75,0.4,0,0.58,0.9-0.06-.4L16.31,27l0.41-.05,0.21,1.75Zm2-.41-0.42.11-0.34-1.25-0.37.1-0.12-.44,1.17-.31L18.55,27l-0.37.1Zm1.14-.37L19,26.32l1-.42,0.16,0.38-0.59.25,0.1,0.23,0.5-.21,0.16,0.38-0.5.21,0.11,0.26,0.61-.26,0.16,0.37Zm2.44-1.22a1.24,1.24,0,0,1-.18-0.25c-0.12-.2-0.18-0.25-0.35-0.14l-0.11.07,0.32,0.52-0.37.22-0.91-1.5L21,25.31c0.38-.23.58-0.17,0.75,0.13a0.41,0.41,0,0,1,0,.48c0.16,0,.25,0,0.43.28s0.16,0.27.2,0.24l0,0Zm1.56-1.06a1,1,0,0,1-1.17-1.43A1,1,0,0,1,23.66,25.66Zm1.1-1.06-1.29-1.19,0.29-.31,1,0.91,0.4-.44,0.3,0.28Zm1.6-1.88a1,1,0,0,1-1.53-1A1,1,0,0,1,26.35,22.72Zm1.21-2.21-0.17-.06a0.45,0.45,0,0,1,0,.45,0.75,0.75,0,0,1-1.09.18,0.79,0.79,0,0,1-.55-1,0.64,0.64,0,0,1,.86-0.28l-0.18.37a0.24,0.24,0,0,0-.3.1c-0.07.16,0.08,0.32,0.36,0.45s0.45,0.15.55,0A0.25,0.25,0,0,0,27,20.36l-0.09.17-0.34-.17,0.25-.54,0.87,0.43ZM27.5,18.89L26.28,19l0.14-.46,0.64,0-0.5-.39,0.14-.46,0.91,0.8,0.62,0.2-0.13.41Z"/><path class="cls-2" d="M6.57,17.76H5.87A1.62,1.62,0,0,0,6.28,17C6.68,16,8,12.36,8,12.36a1.48,1.48,0,0,0,.18-0.76c-0.24-.24-0.29-0.18-0.29-0.18a1,1,0,0,0,.64-0.2,0.46,0.46,0,0,1,.46-0.14l2.56,6.1a1,1,0,0,0,.26.35,0.58,0.58,0,0,1,.2.23H10.58L9.65,15.56H7.5ZM7.7,15H9.39L8.63,12.79H8.54Z"/><path class="cls-2" d="M17.25,16.58a2.7,2.7,0,0,1-2.44,1.49,3.17,3.17,0,0,1-3-3.35,3.71,3.71,0,0,1,3.41-3.52,3.27,3.27,0,0,1,1.86.49l-0.79.75-0.67-.32c-1-.18-1.25-0.29-1.8,0a2,2,0,0,0-1,1.54,2.89,2.89,0,0,0,.23,2.06,2.32,2.32,0,0,0,2.38,1.37,2.53,2.53,0,0,0,1.45-.43,1.41,1.41,0,0,1,.35-0.27C17.33,16.46,17.25,16.58,17.25,16.58Z"/><path class="cls-2" d="M22.3,17a5.2,5.2,0,0,1-.79.13,2.32,2.32,0,0,1-2.38-1.36,2.88,2.88,0,0,1-.23-2.06,2,2,0,0,1,1-1.54c0.56-.32.76-0.2,1.8,0l0.67,0.32,0.79-.75a3.28,3.28,0,0,0-1.86-.49,3.72,3.72,0,0,0-3.41,3.53,3.17,3.17,0,0,0,3,3.35,3.05,3.05,0,0,0,2.4-1.25V14.16H21.42l-0.89.61V15h1.74Z"/><path class="cls-3" d="M15,11a12,12,0,0,1-2.56-.52C11.28,10,11,9.68,11,9a0.86,0.86,0,0,1,.87-0.93,2,2,0,0,0,.64.17,3.91,3.91,0,0,1,.81-0.12,0.94,0.94,0,0,0,.82-0.06v2.67"/><path class="cls-3" d="M14.48,7.83H13.55a7.23,7.23,0,0,0-1-.06"/><path class="cls-3" d="M14.19,8.11a0.59,0.59,0,0,0,.46-0.47c0.08-.31-0.07-0.46-0.54-0.57a4.89,4.89,0,0,1-1-.36,1.54,1.54,0,0,0-.65-0.12,1.51,1.51,0,0,0-.81.18A3.12,3.12,0,0,0,9.82,8.4a2,2,0,0,0,.35,1.92,4.72,4.72,0,0,0,2.91,1.45"/><circle class="cls-4" cx="13.48" cy="7.4" r="0.12"/><path class="cls-3" d="M14.24,7.05V5.57a0.46,0.46,0,0,1,.41-0.37C15.07,5.07,15.44,5,15.44,5s0.11-.2.11,0.09V8h0.08l0.79-.74s0.22-.3.35-0.11,0.28,0.46.28,0.46a0.43,0.43,0,0,1-.15.56c-0.33.33-1.2,1.31-1.2,1.31a0.9,0.9,0,0,0-.35.57c0,0.33,0,1,0,1"/><path class="cls-3" d="M14.18,12.16s0.72,0.13.94,0.2,1,0.06.94,0.52a0.55,0.55,0,0,1-.37.57,2.37,2.37,0,0,1-.44.15"/><line class="cls-3" x1="14.33" y1="12.24" x2="14.33" y2="15.51"/><line class="cls-3" x1="15.2" y1="12.41" x2="15.2" y2="15.75"/><path class="cls-3" d="M16.95,11.89a0.86,0.86,0,0,1,.54.85,1.22,1.22,0,0,1-.66,1.13,7.23,7.23,0,0,1-1.59.66"/><path class="cls-3" d="M14.26,13.81a2.91,2.91,0,0,0-1.18.59"/><line class="cls-3" x1="14.22" y1="18" x2="14.22" y2="19.81"/><line class="cls-3" x1="15.03" y1="18.13" x2="14.98" y2="20.09"/><path class="cls-3" d="M14.24,14.77s-0.42,0-.39.33a0.64,0.64,0,0,0,.57.5c0.39,0.16.8,0.2,1.13,0.33a1.82,1.82,0,0,1,1.17.83"/><path class="cls-3" d="M13.5,16.47a2.82,2.82,0,0,1,1.18.13,0.81,0.81,0,0,1,.59.48"/><path class="cls-3" d="M17,17.21a1.26,1.26,0,0,1-.17.85,1.44,1.44,0,0,1-.85.68,7.69,7.69,0,0,1-.85.09"/><path class="cls-3" d="M14.2,19.26a0.37,0.37,0,0,0-.28.28c0,0.24.24,0.26,0.57,0.4a11.11,11.11,0,0,1,1.29.52,0.85,0.85,0,0,1,.44.74,1.36,1.36,0,0,1-.59.93c-0.28.13-.59,0.24-0.59,0.24"/><path class="cls-3" d="M14.16,18.26a3.31,3.31,0,0,0-.59.39,1.55,1.55,0,0,0-.46.79,0.85,0.85,0,0,0,.46.89,3.41,3.41,0,0,0,.92.44,1.22,1.22,0,0,1,.89.37,0.63,0.63,0,0,1-.32.48"/><path class="cls-3" d="M15,20.9l0,3s0,0.35-.17.35H14.46s-0.13,0-.13-0.32,0-3.18,0-3.18"/><path class="cls-3" d="M14.24,21.88a1.74,1.74,0,0,0-.65.54,1.44,1.44,0,0,0-.24.59,0.2,0.2,0,0,0,.31.24A1.19,1.19,0,0,0,14,22.9l0.26-.31"/></svg>