<?xml version="1.0" encoding="utf-8"?>
<!-- Generated by IcoMoon.io -->
<!DOCTYPE svg PUBLIC "-//W3C//DTD SVG 1.1//EN" "http://www.w3.org/Graphics/SVG/1.1/DTD/svg11.dtd">
<svg version="1.1" xmlns="http://www.w3.org/2000/svg" xmlns:xlink="http://www.w3.org/1999/xlink" width="16" height="16" viewBox="0 0 16 16">
<path d="M10.656 9c0.563 0 1-0.438 1-1s-0.438-1-1-1-1 0.438-1 1 0.438 1 1 1zM8 10.656v-5.313h6.656v5.313h-6.656zM14 12v0.656c0 0.719-0.625 1.344-1.344 1.344h-9.313c-0.75 0-1.344-0.625-1.344-1.344v-9.313c0-0.719 0.594-1.344 1.344-1.344h9.313c0.719 0 1.344 0.625 1.344 1.344v0.656h-6c-0.75 0-1.344 0.625-1.344 1.344v5.313c0 0.719 0.594 1.344 1.344 1.344h6z"></path>
</svg>
