<?xml version="1.0" encoding="utf-8"?>
<!-- Generated by IcoMoon.io -->
<!DOCTYPE svg PUBLIC "-//W3C//DTD SVG 1.1//EN" "http://www.w3.org/Graphics/SVG/1.1/DTD/svg11.dtd">
<svg version="1.1" xmlns="http://www.w3.org/2000/svg" xmlns:xlink="http://www.w3.org/1999/xlink" width="16" height="16" viewBox="0 0 16 16">
<path d="M8 12.813c1.656 0 3.125-0.875 4-2.156-0.031-1.313-2.688-2.063-4-2.063-1.344 0-3.969 0.75-4 2.063 0.875 1.281 2.344 2.156 4 2.156zM8 3.344c-1.094 0-2 0.906-2 2s0.906 2 2 2 2-0.906 2-2-0.906-2-2-2zM8 1.344c3.688 0 6.656 2.969 6.656 6.656s-2.969 6.656-6.656 6.656-6.656-2.969-6.656-6.656 2.969-6.656 6.656-6.656z"></path>
</svg>
