<?xml version="1.0" encoding="utf-8"?>
<!-- Generated by IcoMoon.io -->
<!DOCTYPE svg PUBLIC "-//W3C//DTD SVG 1.1//EN" "http://www.w3.org/Graphics/SVG/1.1/DTD/svg11.dtd">
<svg version="1.1" xmlns="http://www.w3.org/2000/svg" xmlns:xlink="http://www.w3.org/1999/xlink" width="16" height="16" viewBox="0 0 16 16">
<path d="M10 6c0.375 0 0.656-0.281 0.656-0.656s-0.281-0.688-0.656-0.688-0.656 0.313-0.656 0.688 0.281 0.656 0.656 0.656zM6 6c0.375 0 0.656-0.281 0.656-0.656s-0.281-0.688-0.656-0.688-0.656 0.313-0.656 0.688 0.281 0.656 0.656 0.656zM10.75 2.906c1.156 0.844 1.906 2.219 1.906 3.75v0.688h-9.313v-0.688c0-1.531 0.75-2.906 1.906-3.75l-1.406-1.406 0.563-0.531 1.531 1.531c0.625-0.313 1.313-0.5 2.063-0.5s1.438 0.188 2.063 0.5l1.531-1.531 0.563 0.531zM3.344 10.656v-2.656h9.313v2.656c0 2.594-2.063 4.688-4.656 4.688s-4.656-2.094-4.656-4.688z"></path>
</svg>
