<?xml version="1.0" encoding="utf-8"?>
<!-- Generated by IcoMoon.io -->
<!DOCTYPE svg PUBLIC "-//W3C//DTD SVG 1.1//EN" "http://www.w3.org/Graphics/SVG/1.1/DTD/svg11.dtd">
<svg version="1.1" xmlns="http://www.w3.org/2000/svg" xmlns:xlink="http://www.w3.org/1999/xlink" width="16" height="16" viewBox="0 0 16 16">
<path d="M15.52 7.2h-2.72v-2.72c0-0.48-0.32-0.48-0.8-0.48s-0.8 0-0.8 0.48v2.72h-2.72c-0.48 0-0.48 0.32-0.48 0.8s0 0.8 0.48 0.8h2.72v2.72c0 0.48 0.32 0.48 0.8 0.48s0.8 0 0.8-0.48v-2.72h2.72c0.48 0 0.48-0.32 0.48-0.8s0-0.8-0.48-0.8zM5.92 7.2h-5.44c-0.48 0-0.48 0.32-0.48 0.8s0 0.8 0.48 0.8h5.44c0.48 0 0.48-0.32 0.48-0.8s0-0.8-0.48-0.8zM5.92 11.2h-5.44c-0.48 0-0.48 0.32-0.48 0.8s0 0.8 0.48 0.8h5.44c0.48 0 0.48-0.32 0.48-0.8s0-0.8-0.48-0.8zM5.92 3.2h-5.44c-0.48 0-0.48 0.32-0.48 0.8s0 0.8 0.48 0.8h5.44c0.48 0 0.48-0.32 0.48-0.8s0-0.8-0.48-0.8z"></path>
</svg>
