<?xml version="1.0" encoding="utf-8"?>
<!-- Generated by IcoMoon.io -->
<!DOCTYPE svg PUBLIC "-//W3C//DTD SVG 1.1//EN" "http://www.w3.org/Graphics/SVG/1.1/DTD/svg11.dtd">
<svg version="1.1" xmlns="http://www.w3.org/2000/svg" xmlns:xlink="http://www.w3.org/1999/xlink" width="16" height="16" viewBox="0 0 16 16">
<path d="M6.531 9.344c0-1.188 0.938-2.156 2.125-2.156s2.156 0.969 2.156 2.156-0.969 2.125-2.156 2.125-2.125-0.938-2.125-2.125zM8.656 12.656c1.844 0 3.344-1.469 3.344-3.313s-1.5-3.344-3.344-3.344-3.313 1.5-3.313 3.344 1.469 3.313 3.313 3.313zM4 6.656v-2h2v-2h4.656l1.219 1.344h2.125c0.719 0 1.344 0.625 1.344 1.344v8c0 0.719-0.625 1.313-1.344 1.313h-10.656c-0.719 0-1.344-0.594-1.344-1.313v-6.688h2zM2 2.656v-2h1.344v2h2v1.344h-2v2h-1.344v-2h-2v-1.344h2z"></path>
</svg>
