<?xml version="1.0" encoding="utf-8"?>
<!-- Generated by IcoMoon.io -->
<!DOCTYPE svg PUBLIC "-//W3C//DTD SVG 1.1//EN" "http://www.w3.org/Graphics/SVG/1.1/DTD/svg11.dtd">
<svg version="1.1" xmlns="http://www.w3.org/2000/svg" xmlns:xlink="http://www.w3.org/1999/xlink" width="16" height="16" viewBox="0 0 16 16">
<path d="M10.656 8.688v-1.344h-2v-2h-1.313v2h-2v1.344h2v2h1.313v-2h2zM12.594 11.219l1.406 1.406v0.719h-12v-0.719l1.406-1.406v-3.875c0-2.156 1.5-4 3.531-4.469v-0.469c0-0.594 0.469-1.063 1.063-1.063s1.063 0.469 1.063 1.063v0.469c2.031 0.469 3.531 2.313 3.531 4.469v3.875zM6.688 14h2.625c0 0.719-0.594 1.344-1.313 1.344s-1.313-0.625-1.313-1.344z"></path>
</svg>
