<?xml version="1.0" encoding="utf-8"?>
<!-- Generated by IcoMoon.io -->
<!DOCTYPE svg PUBLIC "-//W3C//DTD SVG 1.1//EN" "http://www.w3.org/Graphics/SVG/1.1/DTD/svg11.dtd">
<svg version="1.1" xmlns="http://www.w3.org/2000/svg" xmlns:xlink="http://www.w3.org/1999/xlink" width="16" height="16" viewBox="0 0 16 16">
<path d="M4.781 9.844c0 0.094 0.063 0.156 0.156 0.156h7.719v1.344h-8c-0.719 0-1.313-0.625-1.313-1.344 0-0.219 0.063-0.438 0.156-0.625l0.906-1.656-2.406-5.063h-1.344v-1.313h2.188c0.422 0.88 0.839 1.766 1.25 2.656 0.532 1.114 1.056 2.235 1.594 3.344h4.688c0.856-1.561 1.727-3.106 2.563-4.688l1.156 0.656-2.563 4.656c-0.219 0.406-0.656 0.688-1.156 0.688h-4.969l-0.594 1.094zM11.344 12c0.719 0 1.313 0.625 1.313 1.344s-0.594 1.313-1.313 1.313-1.344-0.594-1.344-1.313 0.625-1.344 1.344-1.344zM4.656 12c0.719 0 1.344 0.625 1.344 1.344s-0.625 1.313-1.344 1.313-1.313-0.594-1.313-1.313 0.594-1.344 1.313-1.344zM7.344 6v-2h-2v-1.344h2v-2h1.313v2h2v1.344h-2v2h-1.313z"></path>
</svg>
