<?xml version="1.0" encoding="utf-8"?>
<!-- Generated by IcoMoon.io -->
<!DOCTYPE svg PUBLIC "-//W3C//DTD SVG 1.1//EN" "http://www.w3.org/Graphics/SVG/1.1/DTD/svg11.dtd">
<svg version="1.1" xmlns="http://www.w3.org/2000/svg" xmlns:xlink="http://www.w3.org/1999/xlink" width="16" height="16" viewBox="0 0 16 16">
<path d="M15.839 4.132l-1.9-1.464c-0.108-0.074-0.259-0.141-0.417-0.19s-0.322-0.078-0.454-0.078h-5.469l0.641 4h4.828c0.131 0 0.295-0.030 0.453-0.078s0.31-0.116 0.417-0.189l1.9-1.466c0.108-0.073 0.162-0.17 0.162-0.267s-0.054-0.194-0.161-0.268zM6.8 0.8h-0.8c-0.221 0-0.4 0.179-0.4 0.4v2.8h-2.669c-0.133 0-0.296 0.030-0.454 0.079-0.158 0.048-0.31 0.114-0.417 0.189l-1.9 1.464c-0.108 0.073-0.161 0.17-0.161 0.268s0.053 0.194 0.161 0.268l1.9 1.466c0.107 0.073 0.258 0.14 0.417 0.188s0.321 0.078 0.454 0.078h2.669v6.8c0 0.221 0.179 0.4 0.4 0.4h0.8c0.221 0 0.4-0.179 0.4-0.4v-13.6c0-0.221-0.179-0.4-0.4-0.4z"></path>
</svg>
