<?xml version="1.0" encoding="utf-8"?>
<!-- Generated by IcoMoon.io -->
<!DOCTYPE svg PUBLIC "-//W3C//DTD SVG 1.1//EN" "http://www.w3.org/Graphics/SVG/1.1/DTD/svg11.dtd">
<svg version="1.1" xmlns="http://www.w3.org/2000/svg" xmlns:xlink="http://www.w3.org/1999/xlink" width="16" height="16" viewBox="0 0 16 16">
<path d="M2.114 5.086c1.398-1.2 2.502-2.149 5.498-0.456 1.439 0.813 2.6 1.12 3.566 1.118 1.692 0 2.789-0.941 3.737-1.754 0.338-0.29 0.382-0.806 0.098-1.151-0.286-0.346-0.79-0.39-1.128-0.1-1.397 1.202-2.502 2.15-5.498 0.456-3.958-2.234-5.813-0.642-7.302 0.638-0.338 0.29-0.381 0.805-0.097 1.151 0.285 0.344 0.789 0.39 1.127 0.098zM13.884 6.828c-1.397 1.2-2.502 2.15-5.498 0.456-3.958-2.236-5.813-0.643-7.302 0.636-0.338 0.29-0.382 0.806-0.097 1.151s0.789 0.39 1.127 0.1c1.398-1.201 2.502-2.15 5.498-0.458 1.439 0.814 2.6 1.12 3.566 1.12 1.692 0 2.789-0.941 3.737-1.756 0.338-0.29 0.382-0.806 0.098-1.15-0.285-0.346-0.79-0.39-1.128-0.099zM13.884 10.913c-1.397 1.202-2.502 2.15-5.498 0.458-3.958-2.236-5.813-0.644-7.302 0.636-0.338 0.29-0.382 0.806-0.097 1.151s0.789 0.389 1.127 0.098c1.398-1.2 2.502-2.148 5.498-0.456 1.439 0.813 2.6 1.12 3.566 1.12 1.692 0 2.789-0.942 3.737-1.756 0.338-0.29 0.382-0.806 0.098-1.151s-0.79-0.39-1.128-0.1z"></path>
</svg>
