<?xml version="1.0" encoding="utf-8"?>
<!-- Generated by IcoMoon.io -->
<!DOCTYPE svg PUBLIC "-//W3C//DTD SVG 1.1//EN" "http://www.w3.org/Graphics/SVG/1.1/DTD/svg11.dtd">
<svg version="1.1" xmlns="http://www.w3.org/2000/svg" xmlns:xlink="http://www.w3.org/1999/xlink" width="16" height="16" viewBox="0 0 16 16">
<path d="M9.997 13.931c-0.315-0.877-1.444-3.82-1.912-5.038-0.882 0.59-1.867 1.148-2.81 1.542-0.293 1.024-0.875 2.967-1.157 3.226-0.483 0.446-0.666 0.388-0.74-0.223s-0.388-2.589-0.388-2.589-1.73-0.975-2.272-1.254-0.534-0.473 0.046-0.779c0.338-0.178 2.342-0.068 3.394 0.004 0.689-0.761 1.545-1.506 2.394-2.143-0.972-0.861-3.32-2.94-4.027-3.539-0.621-0.526 0.063-0.638 0.063-0.638 0.312-0.056 0.978-0.106 1.302-0.007 2.019 0.61 5.154 1.654 5.89 1.901 0.282-0.199 0.59-0.416 0.93-0.657 3.762-2.664 4.71-2.074 4.889-1.816s0.402 1.361-3.359 4.026c-0.34 0.241-0.646 0.458-0.928 0.658-0.023 0.784-0.126 4.121-0.249 6.249-0.020 0.342-0.294 0.958-0.452 1.235-0.001 0-0.338 0.612-0.614-0.158z"></path>
</svg>
