<?xml version="1.0" encoding="utf-8"?>
<!-- Generated by IcoMoon.io -->
<!DOCTYPE svg PUBLIC "-//W3C//DTD SVG 1.1//EN" "http://www.w3.org/Graphics/SVG/1.1/DTD/svg11.dtd">
<svg version="1.1" xmlns="http://www.w3.org/2000/svg" xmlns:xlink="http://www.w3.org/1999/xlink" width="16" height="16" viewBox="0 0 16 16">
<path d="M15.002 12.83c-0.078 0.213-0.658 0.802-4.823-0.702l-4.084-1.474c-1.422-0.513-3.422-1.319-4.206-1.774-0.549-0.318-0.669-1.026-0.669-1.026s-0.13-2.365-0.21-2.947c-0.080-0.582 0.076-0.682 0.637-0.394 0.349 0.18 1.492 2.050 1.971 2.854 1.21 0.305 2.29 0.609 2.794 0.759-0.206-1.374-0.592-3.942-0.73-4.746-0.133-0.77 0.44-0.428 0.44-0.428 0.265 0.152 0.786 0.529 0.965 0.802 1.218 1.861 2.938 5.28 3.069 5.542 0.717 0.224 1.822 0.586 2.482 0.824 1.725 0.623 2.47 2.427 2.366 2.71z"></path>
</svg>
