<?xml version="1.0" encoding="utf-8"?>
<!-- Generated by IcoMoon.io -->
<!DOCTYPE svg PUBLIC "-//W3C//DTD SVG 1.1//EN" "http://www.w3.org/Graphics/SVG/1.1/DTD/svg11.dtd">
<svg version="1.1" xmlns="http://www.w3.org/2000/svg" xmlns:xlink="http://www.w3.org/1999/xlink" width="16" height="16" viewBox="0 0 16 16">
<path d="M15.896 5.162c0.095 0.206 0.102 1.032-3.907 2.914l-3.93 1.845c-1.368 0.642-3.353 1.487-4.228 1.721-0.613 0.163-1.198-0.253-1.198-0.253s-1.765-1.58-2.234-1.935c-0.468-0.355-0.428-0.536 0.172-0.728 0.374-0.119 2.504 0.394 3.412 0.624 1.071-0.64 2.050-1.189 2.513-1.438-1.117-0.826-3.206-2.37-3.873-2.84-0.639-0.452 0.008-0.614 0.008-0.614 0.294-0.079 0.93-0.182 1.25-0.115 2.177 0.455 5.81 1.657 6.089 1.749 0.666-0.349 1.702-0.874 2.338-1.172 1.66-0.779 3.462-0.030 3.589 0.244z"></path>
</svg>
