<?xml version="1.0" encoding="utf-8"?>
<!-- Generated by IcoMoon.io -->
<!DOCTYPE svg PUBLIC "-//W3C//DTD SVG 1.1//EN" "http://www.w3.org/Graphics/SVG/1.1/DTD/svg11.dtd">
<svg version="1.1" xmlns="http://www.w3.org/2000/svg" xmlns:xlink="http://www.w3.org/1999/xlink" width="16" height="16" viewBox="0 0 16 16">
<path d="M10 7.344h3.344l-2.688-2.688h-0.656v2.688zM11.656 11.656c0.563 0 1-0.438 1-1s-0.438-1-1-1-1 0.438-1 1 0.438 1 1 1zM8.656 7.344v-2.688h-2.656v2.688h2.656zM4 11.656c0.563 0 1-0.438 1-1s-0.438-1-1-1-1 0.438-1 1 0.438 1 1 1zM2 7.344h2.656v-2.688h-2.656v2.688zM11.344 3.344l4 4v3.313h-1.688c0 1.094-0.906 2-2 2s-2-0.906-2-2h-3.656c0 1.094-0.906 2-2 2s-2-0.906-2-2h-1.344v-6c0-0.75 0.625-1.313 1.344-1.313h9.344z"></path>
</svg>
