<?xml version="1.0" encoding="utf-8"?>
<!-- Generated by IcoMoon.io -->
<!DOCTYPE svg PUBLIC "-//W3C//DTD SVG 1.1//EN" "http://www.w3.org/Graphics/SVG/1.1/DTD/svg11.dtd">
<svg version="1.1" xmlns="http://www.w3.org/2000/svg" xmlns:xlink="http://www.w3.org/1999/xlink" width="16" height="16" viewBox="0 0 16 16">
<path d="M5.344 2.188l-0.563 0.469-0.969-0.938 0.594-0.469zM10.969 12.25l-6.563-6.563c-0.656 0.813-1.063 1.844-1.063 2.969 0 2.594 2.063 4.688 4.656 4.688 1.125 0 2.156-0.438 2.969-1.094zM1.938 1.531c4.102 4.096 8.209 8.187 12.313 12.281l-0.844 0.844-1.469-1.469c-1.063 0.906-2.438 1.469-3.938 1.469-3.313 0-6-2.688-6-6 0-1.5 0.563-2.844 1.469-3.906l-0.531-0.531-0.75 0.625-0.938-0.969 0.75-0.594-0.906-0.906zM14.656 3.813l-0.844 1.031-3.063-2.594 0.844-1zM8 4c-0.563 0-1.094 0.094-1.594 0.281l-1.031-1c0.781-0.375 1.688-0.625 2.625-0.625 3.313 0 6 2.688 6 6 0 0.938-0.219 1.844-0.594 2.625l-1.031-1c0.188-0.5 0.281-1.063 0.281-1.625 0-2.594-2.063-4.656-4.656-4.656z"></path>
</svg>
