<?xml version="1.0" encoding="utf-8"?>
<!-- Generated by IcoMoon.io -->
<!DOCTYPE svg PUBLIC "-//W3C//DTD SVG 1.1//EN" "http://www.w3.org/Graphics/SVG/1.1/DTD/svg11.dtd">
<svg version="1.1" xmlns="http://www.w3.org/2000/svg" xmlns:xlink="http://www.w3.org/1999/xlink" width="16" height="16" viewBox="0 0 16 16">
<path d="M8.656 6v2h2v1.344h-2v2h-1.313v-2h-2v-1.344h2v-2h1.313zM8 13.344c2.594 0 4.656-2.094 4.656-4.688s-2.063-4.656-4.656-4.656-4.656 2.063-4.656 4.656 2.063 4.688 4.656 4.688zM8 2.656c3.313 0 6 2.688 6 6s-2.688 6-6 6-6-2.688-6-6 2.688-6 6-6zM14.656 3.813l-0.844 1.031-3.063-2.594 0.844-1zM5.25 2.25l-3.063 2.563-0.844-1 3.063-2.563z"></path>
</svg>
