<?xml version="1.0" encoding="utf-8"?>
<!-- Generated by IcoMoon.io -->
<!DOCTYPE svg PUBLIC "-//W3C//DTD SVG 1.1//EN" "http://www.w3.org/Graphics/SVG/1.1/DTD/svg11.dtd">
<svg version="1.1" xmlns="http://www.w3.org/2000/svg" xmlns:xlink="http://www.w3.org/1999/xlink" width="16" height="16" viewBox="0 0 16 16">
<path d="M8 7.344c0.375 0 0.656 0.281 0.656 0.656s-0.281 0.656-0.656 0.656-0.656-0.281-0.656-0.656 0.281-0.656 0.656-0.656zM8 11c1.656 0 3-1.344 3-3s-1.344-3-3-3-3 1.344-3 3 1.344 3 3 3zM8 1.344c3.688 0 6.656 2.969 6.656 6.656s-2.969 6.656-6.656 6.656-6.656-2.969-6.656-6.656 2.969-6.656 6.656-6.656z"></path>
</svg>
