<?xml version="1.0" encoding="utf-8"?>
<!-- Generated by IcoMoon.io -->
<!DOCTYPE svg PUBLIC "-//W3C//DTD SVG 1.1//EN" "http://www.w3.org/Graphics/SVG/1.1/DTD/svg11.dtd">
<svg version="1.1" xmlns="http://www.w3.org/2000/svg" xmlns:xlink="http://www.w3.org/1999/xlink" width="16" height="16" viewBox="0 0 16 16">
<path d="M12.406 4.406c2 0 3.594 1.625 3.594 3.594s-1.594 3.594-3.594 3.594c-0.969 0-1.875-0.375-2.563-1.063l-0.844-0.75 1-0.875 0.781 0.656c0.469 0.469 1.031 0.688 1.625 0.688 1.25 0 2.25-1 2.25-2.25s-1-2.25-2.25-2.25c-0.594 0-1.156 0.219-1.594 0.656-0.942 0.829-1.89 1.652-2.813 2.5l-1.875 1.656c-0.656 0.656-1.563 1.031-2.531 1.031-2 0-3.594-1.625-3.594-3.594s1.594-3.594 3.594-3.594c0.969 0 1.875 0.375 2.563 1.063l0.844 0.75-1.031 0.875-0.75-0.656c-0.469-0.469-1.031-0.688-1.625-0.688-1.25 0-2.25 1-2.25 2.25s1 2.25 2.25 2.25c0.594 0 1.156-0.219 1.594-0.656 0.942-0.829 1.89-1.652 2.813-2.5l1.875-1.656c0.656-0.656 1.563-1.031 2.531-1.031z"></path>
</svg>
