<?xml version="1.0" encoding="utf-8"?>
<!-- Generated by IcoMoon.io -->
<!DOCTYPE svg PUBLIC "-//W3C//DTD SVG 1.1//EN" "http://www.w3.org/Graphics/SVG/1.1/DTD/svg11.dtd">
<svg version="1.1" xmlns="http://www.w3.org/2000/svg" xmlns:xlink="http://www.w3.org/1999/xlink" width="16" height="16" viewBox="0 0 16 16">
<path d="M10 3.344v-0.688h-0.656v0.688h0.656zM6.656 3.344v-0.688h-0.656v0.688h0.656zM10.344 1.438c1 0.719 1.656 1.906 1.656 3.219h-8c0-1.313 0.625-2.5 1.625-3.219l-0.875-0.875c-0.125-0.125-0.125-0.344 0-0.469s0.344-0.125 0.469 0l1 1c0.531-0.281 1.156-0.438 1.781-0.438s1.219 0.156 1.75 0.438l1-1c0.125-0.125 0.344-0.125 0.469 0s0.125 0.344 0 0.469zM13.656 5.344c0.563 0 1 0.438 1 1v4.656c0 0.563-0.438 1-1 1s-1-0.438-1-1v-4.656c0-0.563 0.438-1 1-1zM2.344 5.344c0.563 0 1 0.438 1 1v4.656c0 0.563-0.438 1-1 1s-1-0.438-1-1v-4.656c0-0.563 0.438-1 1-1zM4 12v-6.656h8v6.656c0 0.375-0.281 0.656-0.656 0.656h-0.688v2.344c0 0.563-0.438 1-1 1s-1-0.438-1-1v-2.344h-1.313v2.344c0 0.563-0.438 1-1 1s-1-0.438-1-1v-2.344h-0.688c-0.375 0-0.656-0.281-0.656-0.656z"></path>
</svg>
