<?xml version="1.0" encoding="utf-8"?>
<!-- Generated by IcoMoon.io -->
<!DOCTYPE svg PUBLIC "-//W3C//DTD SVG 1.1//EN" "http://www.w3.org/Graphics/SVG/1.1/DTD/svg11.dtd">
<svg version="1.1" xmlns="http://www.w3.org/2000/svg" xmlns:xlink="http://www.w3.org/1999/xlink" width="16" height="16" viewBox="0 0 16 16">
<path d="M14 7.333v-4.667h-2v-2h-10.667v6.667h-0.667v1.333h0.667v7.333h13.333v-7.333h0.667v-1.333h-1.333zM12.667 4v3.333h-8v-3.333h8zM2.667 2h8v0.667h-7.333v4.667h-0.667v-5.333zM13.333 14.667h-10.667v-6h10.667v6zM12 9.333h-8v4.667h8v-4.667zM11.333 13.333h-6.667v-3.333h6.667v3.333zM10.667 10.667h-5.333v0.667h5.333v-0.667zM8.667 12h-3.333v0.667h3.333v-0.667z"></path>
</svg>
