<?xml version="1.0" encoding="utf-8"?>
<!-- Generated by IcoMoon.io -->
<!DOCTYPE svg PUBLIC "-//W3C//DTD SVG 1.1//EN" "http://www.w3.org/Graphics/SVG/1.1/DTD/svg11.dtd">
<svg version="1.1" xmlns="http://www.w3.org/2000/svg" xmlns:xlink="http://www.w3.org/1999/xlink" width="16" height="16" viewBox="0 0 16 16">
<path d="M11.185 1.6h-6.37c0 0-0.797 0-0.797 0.8h7.964c0-0.8-0.797-0.8-0.797-0.8zM13.574 4c0-0.8-0.796-0.8-0.796-0.8h-9.557c0 0-0.796 0-0.796 0.8v0.8h11.149v-0.8zM15.166 4.8c-0.47-0.474-0.47-0.474-0.47-0.474v1.274h-13.392v-1.274c0 0 0 0-0.471 0.474s-0.809 0.6-0.619 1.6c0.189 0.997 1.103 6.461 1.239 7.2 0.149 0.811 0.974 0.8 0.974 0.8h11.149c0 0 0.824 0.011 0.974-0.8 0.136-0.739 1.050-6.203 1.239-7.2 0.188-1-0.15-1.126-0.622-1.6zM11.2 9.598c0 0.443-0.359 0.802-0.802 0.802h-4.795c-0.443 0-0.802-0.359-0.802-0.802v-1.598h0.8v1.6h4.8v-1.6h0.8v1.598z"></path>
</svg>
