<?xml version="1.0" encoding="utf-8"?>
<!-- Generated by IcoMoon.io -->
<!DOCTYPE svg PUBLIC "-//W3C//DTD SVG 1.1//EN" "http://www.w3.org/Graphics/SVG/1.1/DTD/svg11.dtd">
<svg version="1.1" xmlns="http://www.w3.org/2000/svg" xmlns:xlink="http://www.w3.org/1999/xlink" width="16" height="16" viewBox="0 0 16 16">
<path d="M3.406 3.344h9.188l-0.625-0.688h-8zM8 11.656l3.656-3.656h-2.313v-1.344h-2.688v1.344h-2.313zM13.688 3.5c0.188 0.219 0.313 0.531 0.313 0.844v8.313c0 0.719-0.625 1.344-1.344 1.344h-9.313c-0.719 0-1.344-0.625-1.344-1.344v-8.313c0-0.313 0.125-0.625 0.313-0.844l0.906-1.125c0.188-0.219 0.469-0.375 0.781-0.375h8c0.313 0 0.594 0.156 0.781 0.375z"></path>
</svg>
