<?xml version="1.0" encoding="utf-8"?>
<!-- Generated by IcoMoon.io -->
<!DOCTYPE svg PUBLIC "-//W3C//DTD SVG 1.1//EN" "http://www.w3.org/Graphics/SVG/1.1/DTD/svg11.dtd">
<svg version="1.1" xmlns="http://www.w3.org/2000/svg" xmlns:xlink="http://www.w3.org/1999/xlink" width="16" height="16" viewBox="0 0 16 16">
<path d="M7 10l-1.5-2-1.156 1.5-0.844-1-1.156 1.5h4.656zM8 6v4c0 0.719-0.625 1.344-1.344 1.344h-4c-0.719 0-1.313-0.625-1.313-1.344v-4c0-0.719 0.594-1.344 1.313-1.344h4c0.719 0 1.344 0.625 1.344 1.344zM9.344 11.344v-1.344h5.313v1.344h-5.313zM14.656 4.656v1.344h-5.313v-1.344h5.313zM14.656 8.656h-5.313v-1.313h5.313v1.313z"></path>
</svg>
