<?xml version="1.0" encoding="utf-8"?>
<!-- Generated by IcoMoon.io -->
<!DOCTYPE svg PUBLIC "-//W3C//DTD SVG 1.1//EN" "http://www.w3.org/Graphics/SVG/1.1/DTD/svg11.dtd">
<svg version="1.1" xmlns="http://www.w3.org/2000/svg" xmlns:xlink="http://www.w3.org/1999/xlink" width="16" height="16" viewBox="0 0 16 16">
<path d="M8 3.344c0.375 0 0.656-0.313 0.656-0.688s-0.281-0.656-0.656-0.656-0.656 0.281-0.656 0.656 0.281 0.688 0.656 0.688zM8.656 9.344v-4h-1.313v4h1.313zM8.656 12v-1.344h-1.313v1.344h1.313zM12.656 2c0.719 0 1.344 0.625 1.344 1.344v9.313c0 0.719-0.625 1.344-1.344 1.344h-9.313c-0.719 0-1.344-0.625-1.344-1.344v-9.313c0-0.719 0.625-1.344 1.344-1.344h2.781c0.281-0.781 1-1.344 1.875-1.344s1.594 0.563 1.875 1.344h2.781z"></path>
</svg>
