<?xml version="1.0" encoding="utf-8"?>
<!-- Generated by IcoMoon.io -->
<!DOCTYPE svg PUBLIC "-//W3C//DTD SVG 1.1//EN" "http://www.w3.org/Graphics/SVG/1.1/DTD/svg11.dtd">
<svg version="1.1" xmlns="http://www.w3.org/2000/svg" xmlns:xlink="http://www.w3.org/1999/xlink" width="16" height="16" viewBox="0 0 16 16">
<path d="M12 12.656v-0.938c0-1.344-2.656-2.063-4-2.063s-4 0.719-4 2.063v0.938h8zM8 4.656c-1.094 0-2 0.906-2 2s0.906 2 2 2 2-0.906 2-2-0.906-2-2-2zM8 2c-0.375 0-0.656 0.281-0.656 0.656s0.281 0.688 0.656 0.688 0.656-0.313 0.656-0.688-0.281-0.656-0.656-0.656zM12.656 2c0.719 0 1.344 0.625 1.344 1.344v9.313c0 0.719-0.625 1.344-1.344 1.344h-9.313c-0.719 0-1.344-0.625-1.344-1.344v-9.313c0-0.719 0.625-1.344 1.344-1.344h2.781c0.281-0.781 1-1.344 1.875-1.344s1.594 0.563 1.875 1.344h2.781z"></path>
</svg>
