<?xml version="1.0" encoding="utf-8"?>
<!-- Generated by IcoMoon.io -->
<!DOCTYPE svg PUBLIC "-//W3C//DTD SVG 1.1//EN" "http://www.w3.org/Graphics/SVG/1.1/DTD/svg11.dtd">
<svg version="1.1" xmlns="http://www.w3.org/2000/svg" xmlns:xlink="http://www.w3.org/1999/xlink" width="16" height="16" viewBox="0 0 16 16">
<path d="M8 5.999c-1.104 0-2 0.896-2 2s0.896 2 2 2 2-0.896 2-2-0.896-2-2-2zM14.154 6.243c-0.217-0.070-0.412-0.181-0.579-0.329-0.269 0.496-0.601 1.005-0.959 1.515-0.557-0.715-1.192-1.437-1.901-2.146-0.703-0.703-1.428-1.341-2.151-1.903 1.718-1.211 3.369-1.939 4.545-1.939 0.477 0 0.843 0.123 1.085 0.366 0.264 0.264 0.381 0.679 0.36 1.204 0.038-0.003 0.073-0.012 0.112-0.012 0.192 0 0.375 0.039 0.546 0.099 0.041-0.747-0.136-1.351-0.547-1.763-0.373-0.373-0.896-0.561-1.557-0.561-1.362 0-3.208 0.813-5.108 2.185-1.9-1.372-3.746-2.185-5.108-2.185-0.141 0-0.274 0.013-0.403 0.031 0.182 0.176 0.319 0.393 0.407 0.637 1.175 0.001 2.825 0.73 4.542 1.94-0.724 0.563-1.449 1.201-2.152 1.904-0.7 0.701-1.338 1.427-1.904 2.156-0.57-0.807-1.040-1.608-1.377-2.369-0.231-0.519-0.385-0.996-0.475-1.427-0.066 0.009-0.13 0.021-0.198 0.021-0.172 0-0.335-0.034-0.491-0.082 0.089 0.531 0.27 1.119 0.554 1.759 0.378 0.854 0.91 1.755 1.563 2.659-0.653 0.903-1.183 1.803-1.562 2.657-0.806 1.818-0.827 3.241-0.061 4.007 0.373 0.373 0.896 0.561 1.557 0.561 2.013 0 5.084-1.771 7.823-4.511 0.702-0.703 1.341-1.431 1.906-2.162 1.847 2.609 2.376 4.833 1.57 5.639-0.243 0.243-0.608 0.366-1.085 0.366-0.629 0-1.397-0.212-2.236-0.591-0.089 0.213-0.22 0.403-0.383 0.561 0.972 0.45 1.869 0.697 2.619 0.697 0.661 0 1.184-0.189 1.557-0.561 1.159-1.159 0.427-3.821-1.633-6.674 0.423-0.587 0.81-1.174 1.122-1.747zM2.894 14.56c-0.477 0-0.843-0.123-1.085-0.366-0.55-0.55-0.478-1.74 0.199-3.265 0.337-0.76 0.806-1.559 1.375-2.367 0.566 0.729 1.203 1.455 1.903 2.153 0.707 0.707 1.436 1.334 2.164 1.897-1.722 1.216-3.378 1.947-4.555 1.947zM10.246 10.244c-0.729 0.729-1.488 1.388-2.243 1.961-0.757-0.575-1.516-1.231-2.247-1.961-0.729-0.729-1.386-1.486-1.962-2.243 0.576-0.758 1.235-1.515 1.964-2.245s1.488-1.388 2.243-1.963c0.755 0.574 1.513 1.233 2.242 1.961 0.757 0.757 1.409 1.51 1.968 2.24-0.576 0.76-1.234 1.518-1.965 2.249zM14.667 3.999c-0.369 0-0.667 0.298-0.667 0.667s0.298 0.667 0.667 0.667 0.667-0.298 0.667-0.667-0.298-0.667-0.667-0.667zM9.333 12.666c-0.369 0-0.667 0.298-0.667 0.667s0.298 0.667 0.667 0.667 0.667-0.298 0.667-0.667-0.298-0.667-0.667-0.667zM1.333 2.666c0.369 0 0.667-0.298 0.667-0.667s-0.298-0.667-0.667-0.667-0.667 0.298-0.667 0.667 0.298 0.667 0.667 0.667z"></path>
</svg>
