<?xml version="1.0" encoding="utf-8"?>
<!-- Generated by IcoMoon.io -->
<!DOCTYPE svg PUBLIC "-//W3C//DTD SVG 1.1//EN" "http://www.w3.org/Graphics/SVG/1.1/DTD/svg11.dtd">
<svg version="1.1" xmlns="http://www.w3.org/2000/svg" xmlns:xlink="http://www.w3.org/1999/xlink" width="16" height="16" viewBox="0 0 16 16">
<path d="M1.344 8.344c0-2.031 1.625-3.688 3.656-3.688h7c1.469 0 2.656 1.219 2.656 2.688s-1.188 2.656-2.656 2.656h-5.656c-0.906 0-1.688-0.75-1.688-1.656s0.781-1.688 1.688-1.688h5v1.344h-5.063c-0.375 0-0.375 0.656 0 0.656h5.719c0.719 0 1.344-0.594 1.344-1.313s-0.625-1.344-1.344-1.344h-7c-1.281 0-2.344 1.063-2.344 2.344s1.063 2.313 2.344 2.313h6.344v1.344h-6.344c-2.031 0-3.656-1.625-3.656-3.656z"></path>
</svg>
