<?xml version="1.0" encoding="utf-8"?>
<!-- Generated by IcoMoon.io -->
<!DOCTYPE svg PUBLIC "-//W3C//DTD SVG 1.1//EN" "http://www.w3.org/Graphics/SVG/1.1/DTD/svg11.dtd">
<svg version="1.1" xmlns="http://www.w3.org/2000/svg" xmlns:xlink="http://www.w3.org/1999/xlink" width="16" height="16" viewBox="0 0 16 16">
<path d="M4.482 15.84c-1.034 0-2.003-0.444-2.702-1.152-1.356-1.373-1.734-3.769 0.167-5.693 1.113-1.126 5.573-5.642 7.798-7.896 0.79-0.8 1.796-1.11 2.758-0.848 0.946 0.256 1.721 1.041 1.974 1.998 0.258 0.976-0.047 1.994-0.837 2.794l-7.458 7.552c-0.426 0.431-0.907 0.686-1.39 0.738-0.479 0.051-0.936-0.104-1.256-0.428-0.579-0.589-0.662-1.694 0.302-2.67l5.238-5.304c0.215-0.218 0.564-0.218 0.779 0s0.215 0.571 0 0.789l-5.239 5.305c-0.453 0.458-0.494 0.895-0.302 1.091 0.085 0.085 0.213 0.124 0.361 0.107 0.226-0.023 0.485-0.173 0.727-0.417l7.458-7.551c0.512-0.518 0.708-1.128 0.552-1.716-0.154-0.58-0.622-1.054-1.194-1.21-0.581-0.158-1.184 0.042-1.696 0.56-2.226 2.254-6.685 6.77-7.798 7.896-1.453 1.471-1.105 3.165-0.167 4.114s2.61 1.303 4.063-0.17l7.798-7.896c0.215-0.218 0.564-0.218 0.779 0s0.215 0.571 0 0.79l-7.798 7.896c-0.919 0.93-1.949 1.32-2.918 1.32z"></path>
</svg>
