<?xml version="1.0" encoding="utf-8"?>
<!-- Generated by IcoMoon.io -->
<!DOCTYPE svg PUBLIC "-//W3C//DTD SVG 1.1//EN" "http://www.w3.org/Graphics/SVG/1.1/DTD/svg11.dtd">
<svg version="1.1" xmlns="http://www.w3.org/2000/svg" xmlns:xlink="http://www.w3.org/1999/xlink" width="16" height="16" viewBox="0 0 16 16">
<path d="M11 4h1v7.656c0 2.031-1.625 3.688-3.656 3.688s-3.688-1.656-3.688-3.688v-8.313c0-1.469 1.219-2.688 2.688-2.688s2.656 1.219 2.656 2.688v7c0 0.906-0.75 1.656-1.656 1.656s-1.688-0.75-1.688-1.656v-6.344h1v6.344c0 0.375 0.313 0.656 0.688 0.656s0.656-0.281 0.656-0.656v-7c0-0.906-0.75-1.688-1.656-1.688s-1.688 0.781-1.688 1.688v8.313c0 1.469 1.219 2.688 2.688 2.688s2.656-1.219 2.656-2.688v-7.656z"></path>
</svg>
