<?xml version="1.0" encoding="utf-8"?>
<!-- Generated by IcoMoon.io -->
<!DOCTYPE svg PUBLIC "-//W3C//DTD SVG 1.1//EN" "http://www.w3.org/Graphics/SVG/1.1/DTD/svg11.dtd">
<svg version="1.1" xmlns="http://www.w3.org/2000/svg" xmlns:xlink="http://www.w3.org/1999/xlink" width="16" height="16" viewBox="0 0 16 16">
<path d="M7.875 7.281c1.5 0.406 3.125 1 3.125 2.906 0 1.375-1.031 2.125-2.344 2.375v1.438h-2v-1.438c-1.281-0.281-2.344-1.094-2.438-2.563h1.469c0.063 0.781 0.594 1.406 1.969 1.406 1.469 0 1.813-0.719 1.813-1.188 0-0.625-0.344-1.219-2-1.625-1.875-0.438-3.125-1.219-3.125-2.75 0-1.281 1.031-2.125 2.313-2.406v-1.438h2v1.469c1.406 0.344 2.125 1.375 2.156 2.531h-1.469c-0.031-0.844-0.5-1.406-1.688-1.406-1.125 0-1.781 0.531-1.781 1.25 0 0.625 0.5 1.031 2 1.438z"></path>
</svg>
