<?xml version="1.0" encoding="utf-8"?>
<!-- Generated by IcoMoon.io -->
<!DOCTYPE svg PUBLIC "-//W3C//DTD SVG 1.1//EN" "http://www.w3.org/Graphics/SVG/1.1/DTD/svg11.dtd">
<svg version="1.1" xmlns="http://www.w3.org/2000/svg" xmlns:xlink="http://www.w3.org/1999/xlink" width="16" height="16" viewBox="0 0 16 16">
<path d="M12.5 5.156c0.531 0.813 0.844 1.813 0.844 2.844 0 2.938-2.406 5.344-5.344 5.344v2l-2.656-2.688 2.656-2.656v2c2.219 0 4-1.781 4-4 0-0.688-0.188-1.313-0.469-1.875zM8 4c-2.219 0-4 1.781-4 4 0 0.688 0.156 1.313 0.469 1.875l-0.969 0.969c-0.531-0.813-0.844-1.813-0.844-2.844 0-2.938 2.406-5.344 5.344-5.344v-2l2.656 2.688-2.656 2.656v-2z"></path>
</svg>
