<?xml version="1.0" encoding="utf-8"?>
<!-- Generated by IcoMoon.io -->
<!DOCTYPE svg PUBLIC "-//W3C//DTD SVG 1.1//EN" "http://www.w3.org/Graphics/SVG/1.1/DTD/svg11.dtd">
<svg version="1.1" xmlns="http://www.w3.org/2000/svg" xmlns:xlink="http://www.w3.org/1999/xlink" width="16" height="16" viewBox="0 0 16 16">
<path d="M4 8c0-0.375 0.281-0.656 0.656-0.656s0.688 0.281 0.688 0.656-0.313 0.656-0.688 0.656-0.656-0.281-0.656-0.656zM12 8c0 0.375-0.281 0.656-0.656 0.656s-0.688-0.281-0.688-0.656 0.313-0.656 0.688-0.656 0.656 0.281 0.656 0.656zM7.344 2h0.656c3.313 0 6 2.688 6 6s-2.688 6-6 6-6-2.688-6-6c0-1.969 0.938-3.688 2.406-4.781v-0.031l4.531 4.531-0.938 0.938-3.625-3.594c-0.656 0.813-1.031 1.813-1.031 2.938 0 2.594 2.063 4.656 4.656 4.656s4.656-2.063 4.656-4.656c0-2.344-1.75-4.313-4-4.625v1.281h-1.313v-2.656zM7.344 11.344c0-0.375 0.281-0.688 0.656-0.688s0.656 0.313 0.656 0.688-0.281 0.656-0.656 0.656-0.656-0.281-0.656-0.656z"></path>
</svg>
