<?xml version="1.0" encoding="utf-8"?>
<!-- Generated by IcoMoon.io -->
<!DOCTYPE svg PUBLIC "-//W3C//DTD SVG 1.1//EN" "http://www.w3.org/Graphics/SVG/1.1/DTD/svg11.dtd">
<svg version="1.1" xmlns="http://www.w3.org/2000/svg" xmlns:xlink="http://www.w3.org/1999/xlink" width="16" height="16" viewBox="0 0 16 16">
<path d="M13.259 13.070c-0.606-0.841-2.281-3.059-3.656-4.885 0.557-0.799 1.001-1.452 1.204-1.794 1.236-2.075 0.699-3.408 0.018-4.536-0.683-1.129-0.791-1.781-2.825-1.781s-2.142 0.652-2.825 1.782c-0.683 1.128-1.219 2.461 0.017 4.536 0.203 0.341 0.647 0.994 1.205 1.794-1.376 1.825-3.051 4.044-3.657 4.885-0.141 0.195-0.128 0.531 0.007 0.866 0.104 0.258 0.504 1.41 0.602 1.651 0.125 0.311 0.531 0.536 0.866 0.074 0.193-0.267 2.066-2.82 3.786-5.218 1.719 2.397 3.593 4.95 3.786 5.218 0.334 0.462 0.741 0.238 0.866-0.074 0.098-0.242 0.498-1.394 0.602-1.651 0.134-0.335 0.147-0.671 0.006-0.866zM7.707 5.65c-0.854-1.187-1.466-2.569-1.466-2.569s0.336-0.606 1.758-0.606c1.422 0 1.758 0.606 1.758 0.606s-0.613 1.382-1.466 2.569c-0.070 0.097-0.174 0.238-0.292 0.398-0.119-0.16-0.223-0.301-0.293-0.398z"></path>
</svg>
