<?xml version="1.0" encoding="utf-8"?>
<!-- Generated by IcoMoon.io -->
<!DOCTYPE svg PUBLIC "-//W3C//DTD SVG 1.1//EN" "http://www.w3.org/Graphics/SVG/1.1/DTD/svg11.dtd">
<svg version="1.1" xmlns="http://www.w3.org/2000/svg" xmlns:xlink="http://www.w3.org/1999/xlink" width="16" height="16" viewBox="0 0 16 16">
<path d="M8.8 1.439c-3.556 0-6.449 2.85-6.535 6.397v0.164h-1.898l2.875 3.115 2.795-3.115h-2.138v-0.164c0.086-2.642 2.246-4.756 4.9-4.756 2.709 0 4.905 2.203 4.905 4.92s-2.196 4.92-4.905 4.92c-1.086 0-2.089-0.356-2.902-0.954l-1.125 1.203c1.11 0.87 2.508 1.39 4.026 1.39 3.612 0 6.539-2.936 6.539-6.559s-2.927-6.561-6.539-6.561zM8 4v4c0 0.104 0.022 0.208 0.062 0.306s0.099 0.186 0.173 0.26l2.56 2.56c0.226-0.146 0.44-0.311 0.63-0.502l-1.824-1.823v-4.8h-1.6z"></path>
</svg>
