<?xml version="1.0" encoding="utf-8"?>
<!-- Generated by IcoMoon.io -->
<!DOCTYPE svg PUBLIC "-//W3C//DTD SVG 1.1//EN" "http://www.w3.org/Graphics/SVG/1.1/DTD/svg11.dtd">
<svg version="1.1" xmlns="http://www.w3.org/2000/svg" xmlns:xlink="http://www.w3.org/1999/xlink" width="16" height="16" viewBox="0 0 16 16">
<path d="M14.511 6c-0.367 0-0.511 0.6-0.511 1.333v1.333c0 0.733 0.145 1.333 0.511 1.333s0.511-0.6 0.511-1.333h0.977v-1.333h-0.978c0-0.733-0.145-1.333-0.511-1.333zM12 4c-0.667 0-0.667 0.6-0.667 1.333v2h-6.667v-2c0-0.733 0-1.333-0.667-1.333-0.733 0-1.333 0.6-1.333 1.333v5.333c0 0.733 0.6 1.333 1.333 1.333 0.667 0 0.667-0.6 0.667-1.333v-2h6.667v2c0 0.733 0 1.333 0.667 1.333 0.733 0 1.333-0.6 1.333-1.333v-5.333c0-0.733-0.6-1.333-1.333-1.333zM1.489 6c0.367 0 0.511 0.6 0.511 1.333v1.333c0 0.733-0.145 1.333-0.511 1.333s-0.511-0.6-0.511-1.333h-0.977v-1.333h0.978c0-0.733 0.145-1.333 0.511-1.333z"></path>
</svg>
