<?xml version="1.0" encoding="utf-8"?>
<!-- Generated by IcoMoon.io -->
<!DOCTYPE svg PUBLIC "-//W3C//DTD SVG 1.1//EN" "http://www.w3.org/Graphics/SVG/1.1/DTD/svg11.dtd">
<svg version="1.1" xmlns="http://www.w3.org/2000/svg" xmlns:xlink="http://www.w3.org/1999/xlink" width="16" height="16" viewBox="0 0 16 16">
<path d="M15.333 14.667v-0.667h-0.667v0.667h-0.667v-6.667h-3.333v6.667h-0.667v-13.333h-3.333v13.333h-0.667v-8h-0.667v-0.667h-0.667v0.667h-1.333v-0.667h-0.667v8.667h-1.333v-14.667h-1.333v16h16v-1.333h-0.667zM4.667 14.667h-0.667v-6.667h0.667v6.667zM8.667 14.667h-0.667v-12h0.667v12zM12.667 14.667h-0.667v-5.333h0.667v5.333zM2.667 0h0.667v0.667h-0.667zM4.667 0h0.667v0.667h-0.667zM6.667 0h0.667v0.667h-0.667zM8.667 0h0.667v0.667h-0.667zM10.667 0h0.667v0.667h-0.667zM12.667 0h0.667v0.667h-0.667zM14.667 0h0.667v0.667h-0.667zM14.667 2h0.667v0.667h-0.667zM12.667 2h0.667v0.667h-0.667zM10.667 2h0.667v0.667h-0.667zM10.667 4h0.667v0.667h-0.667zM12.667 4h0.667v0.667h-0.667zM14.667 4h0.667v0.667h-0.667zM14.667 6.001h0.667v0.667h-0.667zM12.667 6h0.667v0.667h-0.667zM10.667 6h0.667v0.667h-0.667zM14.667 8h0.667v0.667h-0.667zM14.667 10h0.667v0.667h-0.667zM14.667 12h0.667v0.667h-0.667zM4.667 2h0.667v0.667h-0.667zM4.667 4h0.667v0.667h-0.667zM2.667 4h0.667v0.667h-0.667zM2.667 2h0.667v0.667h-0.667z"></path>
</svg>
