<?xml version="1.0" encoding="utf-8"?>
<!-- Generated by IcoMoon.io -->
<!DOCTYPE svg PUBLIC "-//W3C//DTD SVG 1.1//EN" "http://www.w3.org/Graphics/SVG/1.1/DTD/svg11.dtd">
<svg version="1.1" xmlns="http://www.w3.org/2000/svg" xmlns:xlink="http://www.w3.org/1999/xlink" width="16" height="16" viewBox="0 0 16 16">
<path d="M8 1.6c-3.738 0-7.44 5.185-7.44 9.938 0 1.102 3.627 2.862 7.44 2.862s7.44-1.761 7.44-2.862c0-4.753-3.702-9.938-7.44-9.938zM8.005 12.492c-4.158 0-5.338-1.654-5.338-2.178 0-1.030 1.704-3.588 2.325-3.588 0.575 0 1.234 1.449 1.851 1.449 0.993 0 2.054-3.163 2.863-3.163s3.681 4.142 3.681 5.399c0 0.217-0.867 2.081-5.382 2.081z"></path>
</svg>
