<?xml version="1.0" encoding="utf-8"?>
<!-- Generated by IcoMoon.io -->
<!DOCTYPE svg PUBLIC "-//W3C//DTD SVG 1.1//EN" "http://www.w3.org/Graphics/SVG/1.1/DTD/svg11.dtd">
<svg version="1.1" xmlns="http://www.w3.org/2000/svg" xmlns:xlink="http://www.w3.org/1999/xlink" width="16" height="16" viewBox="0 0 16 16">
<path d="M12.326 8c0-2.213 1.022-3.456 1.822-3.456 0.29 0 1.052 0 1.052 0-0.534-0.847-0.977-1.344-2.926-1.344h-8.006c-2.987 0-4.267 2.753-4.267 4.8s1.28 4.8 4.267 4.8h8.006c1.95 0 2.392-0.497 2.926-1.344 0 0-0.252 0-1.052 0s-1.822-1.243-1.822-3.456zM10.15 9.436c-0.131 0.2-0.541 0.013-0.541 0.013l-2.366-1.070c0 0-0.211 0.536-0.374 0.913-0.164 0.377-0.289 0.803-0.967 0.326-0.679-0.478-2.865-2.6-2.865-2.6s-0.276-0.227-0.138-0.441c0.13-0.202 0.541-0.013 0.541-0.013l2.365 1.069c0 0 0.212-0.534 0.374-0.911 0.164-0.376 0.289-0.805 0.967-0.326 0.679 0.477 2.864 2.6 2.864 2.6s0.276 0.226 0.139 0.441zM15.099 6.342h-0.599c-0.447 0-0.884 0.603-0.884 1.583 0 0.982 0.438 1.584 0.884 1.584h0.599c0.448 0 0.901-0.603 0.901-1.584s-0.453-1.583-0.901-1.583z"></path>
</svg>
