<?xml version="1.0" encoding="utf-8"?>
<!-- Generated by IcoMoon.io -->
<!DOCTYPE svg PUBLIC "-//W3C//DTD SVG 1.1//EN" "http://www.w3.org/Graphics/SVG/1.1/DTD/svg11.dtd">
<svg version="1.1" xmlns="http://www.w3.org/2000/svg" xmlns:xlink="http://www.w3.org/1999/xlink" width="16" height="16" viewBox="0 0 16 16">
<path d="M9.531 8.469c0.281-0.281 0.469-0.688 0.469-1.125 0-1.094-0.906-2-2-2s-2 0.906-2 2h1c0-0.563 0.438-1 1-1s1 0.438 1 1c0 0.281-0.094 0.5-0.281 0.688l-0.625 0.625c-0.313 0.313-0.625 0.781-0.625 1.344h1.063c0-0.313 0.25-0.75 0.563-1.063 0.188-0.188 0.438-0.469 0.438-0.469zM8.625 11.969v-1.281h-1.25v1.281h1.25zM10.438 2.656c0.5 0 0.906 0.406 0.906 0.906v10.219c0 0.5-0.406 0.875-0.906 0.875h-4.875c-0.5 0-0.906-0.375-0.906-0.875v-10.219c0-0.5 0.406-0.906 0.906-0.906h1.094v-1.313h2.688v1.313h1.094z"></path>
</svg>
