<?xml version="1.0" encoding="utf-8"?>
<!-- Generated by IcoMoon.io -->
<!DOCTYPE svg PUBLIC "-//W3C//DTD SVG 1.1//EN" "http://www.w3.org/Graphics/SVG/1.1/DTD/svg11.dtd">
<svg version="1.1" xmlns="http://www.w3.org/2000/svg" xmlns:xlink="http://www.w3.org/1999/xlink" width="16" height="16" viewBox="0 0 16 16">
<path d="M13.6 0.8l-0.002 10.4c0 0.994-1.041 2.4-2.998 2.4-0.994 0-1.8-0.522-1.8-1.5 0-1.271 1.156-2.040 2.4-2.040 0.346 0 0.603 0.047 0.8 0.098v-5.867l-5.6 1.018v7.49h-0.002c0 0.994-1.041 2.4-2.998 2.4-0.994 0-1.8-0.522-1.8-1.5 0-1.271 1.156-2.040 2.4-2.040 0.346 0 0.603 0.047 0.8 0.098v-9.358l8.8-1.6z"></path>
</svg>
