<?xml version="1.0" encoding="utf-8"?>
<!-- Generated by IcoMoon.io -->
<!DOCTYPE svg PUBLIC "-//W3C//DTD SVG 1.1//EN" "http://www.w3.org/Graphics/SVG/1.1/DTD/svg11.dtd">
<svg version="1.1" xmlns="http://www.w3.org/2000/svg" xmlns:xlink="http://www.w3.org/1999/xlink" width="16" height="16" viewBox="0 0 16 16">
<path d="M6.458 7.441c0 0 1.514-0.118 1.514-1.967 0-1.852-1.238-2.753-2.808-2.753h-5.163v10.341h5.163c0 0 3.153 0.103 3.153-3.053-0.001-0.001 0.137-2.568-1.858-2.568zM2.275 4.558h2.888c0 0 0.702 0 0.702 1.075 0 1.077-0.413 1.233-0.882 1.233h-2.709v-2.308zM5.017 11.223h-2.742v-2.764h2.888c0 0 1.046-0.014 1.046 1.42 0 1.21-0.782 1.335-1.193 1.344zM12.519 5.35c-3.817 0-3.814 3.974-3.814 3.974s-0.261 3.953 3.814 3.953c0 0 3.394 0.203 3.394-2.75h-1.746c0 0 0.058 1.113-1.59 1.113 0 0-1.747 0.122-1.747-1.8h5.138c0.001-0.001 0.567-4.49-3.45-4.49zM14.072 8.459h-3.259c0 0 0.213-1.594 1.746-1.594s1.514 1.594 1.514 1.594zM14.478 3.328h-4.094v1.275h4.094v-1.275z"></path>
</svg>
