<?xml version="1.0" encoding="utf-8"?>
<!-- Generated by IcoMoon.io -->
<!DOCTYPE svg PUBLIC "-//W3C//DTD SVG 1.1//EN" "http://www.w3.org/Graphics/SVG/1.1/DTD/svg11.dtd">
<svg version="1.1" xmlns="http://www.w3.org/2000/svg" xmlns:xlink="http://www.w3.org/1999/xlink" width="16" height="16" viewBox="0 0 16 16">
<path d="M11.72 6.81c-1.824-3.926-2.773-5.417-5.753-5.354-1.062 0.022-0.807-0.77-1.617-0.47-0.808 0.3-0.114 0.739-0.942 1.418-2.322 1.906-2.108 3.67-1.031 7.872 0.454 1.77-1.094 1.857-0.482 3.572 0.447 1.251 3.743 1.775 7.22 0.486s5.669-3.851 5.222-5.102c-0.612-1.716-1.849-0.769-2.618-2.422zM8.739 13.276c-3.106 1.152-5.658 0.475-5.766 0.174-0.186-0.52 1.002-2.253 4.553-3.57s5.532-0.829 5.739-0.249c0.122 0.343-1.42 2.493-4.526 3.646zM7.741 10.481c-1.623 0.602-2.751 1.291-3.482 1.911 0.514 0.467 1.478 0.581 2.437 0.225 1.222-0.452 1.973-1.493 1.676-2.323-0.004-0.010-0.009-0.018-0.013-0.029-0.201 0.066-0.406 0.137-0.618 0.216z"></path>
</svg>
