<?xml version="1.0" encoding="utf-8"?>
<!-- Generated by IcoMoon.io -->
<!DOCTYPE svg PUBLIC "-//W3C//DTD SVG 1.1//EN" "http://www.w3.org/Graphics/SVG/1.1/DTD/svg11.dtd">
<svg version="1.1" xmlns="http://www.w3.org/2000/svg" xmlns:xlink="http://www.w3.org/1999/xlink" width="16" height="16" viewBox="0 0 16 16">
<path d="M13.333 5.333v-2h-13.333v8h2v2h13.333v-8h-2zM2 10h-0.667v-5.333h10.667v0.667h-10v4.667zM14 12h-10.667v-5.333h10.667v5.333zM4 7.333v4h9.333v-4h-9.333zM4.667 10.667v-2.667h2.187c-0.115 0.197-0.186 0.423-0.186 0.667v1.333c0 0.243 0.071 0.469 0.187 0.667h-2.188zM10 9.667c0 0.552-0.448 1-1 1h-0.667c-0.552 0-1-0.448-1-1v-0.667c0-0.552 0.448-1 1-1h0.667c0.552 0 1 0.448 1 1v0.667zM12.667 10.667h-2.185c0.115-0.197 0.186-0.423 0.186-0.667v-1.333c0-0.243-0.071-0.47-0.186-0.667h2.185v2.667z"></path>
</svg>
