<?xml version="1.0" encoding="utf-8"?>
<!-- Generated by IcoMoon.io -->
<!DOCTYPE svg PUBLIC "-//W3C//DTD SVG 1.1//EN" "http://www.w3.org/Graphics/SVG/1.1/DTD/svg11.dtd">
<svg version="1.1" xmlns="http://www.w3.org/2000/svg" xmlns:xlink="http://www.w3.org/1999/xlink" width="16" height="16" viewBox="0 0 16 16">
<path d="M8 0.32c-4.242 0-7.681 3.438-7.681 7.68s3.438 7.681 7.681 7.681c4.241 0 7.68-3.438 7.68-7.681s-3.439-7.68-7.68-7.68zM1.919 8c0-3.358 2.722-6.080 6.080-6.080 1.463 0 2.805 0.518 3.854 1.378l-8.555 8.555c-0.861-1.050-1.378-2.39-1.378-3.854zM7.999 14.079c-1.462 0-2.804-0.517-3.852-1.378l8.555-8.554c0.86 1.050 1.378 2.39 1.378 3.853 0 3.358-2.723 6.079-6.081 6.079z"></path>
</svg>
