<?xml version="1.0" encoding="utf-8"?>
<!-- Generated by IcoMoon.io -->
<!DOCTYPE svg PUBLIC "-//W3C//DTD SVG 1.1//EN" "http://www.w3.org/Graphics/SVG/1.1/DTD/svg11.dtd">
<svg version="1.1" xmlns="http://www.w3.org/2000/svg" xmlns:xlink="http://www.w3.org/1999/xlink" width="16" height="16" viewBox="0 0 16 16">
<path d="M8 13.344c2.938 0 5.344-2.406 5.344-5.344 0-1.219-0.406-2.375-1.125-3.281l-7.5 7.5c0.906 0.719 2.063 1.125 3.281 1.125zM2.656 8c0 1.219 0.406 2.375 1.125 3.281l7.5-7.5c-0.906-0.719-2.063-1.125-3.281-1.125-2.938 0-5.344 2.406-5.344 5.344zM8 1.344c3.688 0 6.656 2.969 6.656 6.656s-2.969 6.656-6.656 6.656-6.656-2.969-6.656-6.656 2.969-6.656 6.656-6.656z"></path>
</svg>
