<?xml version="1.0" encoding="utf-8"?>
<!-- Generated by IcoMoon.io -->
<!DOCTYPE svg PUBLIC "-//W3C//DTD SVG 1.1//EN" "http://www.w3.org/Graphics/SVG/1.1/DTD/svg11.dtd">
<svg version="1.1" xmlns="http://www.w3.org/2000/svg" xmlns:xlink="http://www.w3.org/1999/xlink" width="16" height="16" viewBox="0 0 16 16">
<path d="M14.549 9.857c-0.053-0.031-0.108-0.060-0.165-0.089l-0.124-0.081-2.718-1.909 0.789-0.589c0.746 0.317 1.737-0.31 2.165-0.579 1.089-0.687 1.414-2.131 0.727-3.219-0.627-0.992-1.883-1.351-2.925-0.885l-0.011-0.020c-0.589-0.932-1.827-1.212-2.759-0.624-0.612 0.387-1.060 1.486-0.571 2.727l-0.947 0.709-1.083-0.761c0.449-1.255-0.031-2.34-0.655-2.708-0.951-0.56-2.18-0.242-2.738 0.708l-0.013 0.019c-1.055-0.431-2.3-0.034-2.896 0.977-0.653 1.108-0.283 2.541 0.825 3.195 0.437 0.257 1.448 0.851 2.183 0.512l0.922 0.646-2.772 2.075-0.121 0.084c-0.055 0.030-0.108 0.060-0.16 0.094-1.089 0.686-1.414 2.131-0.728 3.219 0.687 1.087 2.131 1.414 3.219 0.727 0.521-0.328 0.88-0.839 1.019-1.432l3.075-2.295 3.029 2.12c0.158 0.589 0.533 1.087 1.063 1.4 1.108 0.653 2.543 0.283 3.195-0.825 0.655-1.109 0.283-2.543-0.825-3.197zM9.233 6.157l1.512-1.12-0.355-0.564c-0.501-0.793-0.255-1.396-0.149-1.483 0.31-0.197 0.723-0.103 0.919 0.207l0.712 1.127 0.845-0.534c0.465-0.294 1.085-0.155 1.38 0.311 0.294 0.466 0.153 1.086-0.313 1.38-0.511 0.323-0.768 0.429-0.898 0.451l-0.303-0.479-2.375 1.727-1.241-0.825 0.265-0.197zM6.195 10.099l-2.429 1.765-0.028 0.329c-0.026 0.32-0.193 0.599-0.456 0.764-0.466 0.294-1.086 0.155-1.38-0.311s-0.155-1.085 0.311-1.379c0.057-0.037 0.117-0.067 0.18-0.090l0.667-0.445 2.973-2.203 1.209 0.807-1.047 0.763zM14.227 12.375c-0.28 0.475-0.895 0.634-1.371 0.354-0.268-0.159-0.442-0.431-0.479-0.75l-0.039-0.329-9.010-6.136-0.289 0.491c-0.131-0.018-0.391-0.117-0.912-0.423-0.475-0.281-0.633-0.895-0.354-1.37 0.281-0.475 0.895-0.634 1.369-0.354l1.54-0.641c0.186-0.318 0.597-0.422 0.913-0.236 0.107 0.083 0.373 0.68-0.103 1.487l-0.339 0.575 7.857 5.455 0.68 0.425c0.064 0.021 0.125 0.051 0.181 0.083 0.476 0.282 0.634 0.895 0.355 1.37z"></path>
</svg>
