<?xml version="1.0" encoding="utf-8"?>
<!-- Generated by IcoMoon.io -->
<!DOCTYPE svg PUBLIC "-//W3C//DTD SVG 1.1//EN" "http://www.w3.org/Graphics/SVG/1.1/DTD/svg11.dtd">
<svg version="1.1" xmlns="http://www.w3.org/2000/svg" xmlns:xlink="http://www.w3.org/1999/xlink" width="16" height="16" viewBox="0 0 16 16">
<path d="M13.6 4.76v8.281c0 0.418-0.362 0.617-0.8 0.928-0.352 0.25-0.8-0.060-0.8-0.47 0 0 0-7.924 0-8.091 0-0.169-0.059-0.33-0.251-0.428s-6.19-3.252-6.19-3.252c-0.097-0.036-0.519-0.302-1.082-0.013-0.535 0.275-0.826 0.574-0.901 0.715l6.544 3.586c0.174 0.091 0.281 0.232 0.281 0.413v8.642c0 0.184-0.114 0.381-0.295 0.468-0.083 0.042-0.175 0.062-0.266 0.062-0.108 0-0.217-0.026-0.309-0.083-0.172-0.105-6.219-3.813-6.618-4.054-0.192-0.115-0.417-0.351-0.422-0.526l-0.090-8.229c0-0.158-0.018-0.438 0.231-0.826 0.558-0.867 2.503-1.854 3.488-1.342l7.199 3.644c0.174 0.090 0.282 0.269 0.282 0.576z"></path>
</svg>
