<?xml version="1.0" encoding="utf-8"?>
<!-- Generated by IcoMoon.io -->
<!DOCTYPE svg PUBLIC "-//W3C//DTD SVG 1.1//EN" "http://www.w3.org/Graphics/SVG/1.1/DTD/svg11.dtd">
<svg version="1.1" xmlns="http://www.w3.org/2000/svg" xmlns:xlink="http://www.w3.org/1999/xlink" width="16" height="16" viewBox="0 0 16 16">
<path d="M6.631 6.242c-1.129-0.873-2.503-1.797-4.667-1.973l4.667 1.973zM6.631 8.242c-1.129-0.873-2.503-1.797-4.667-1.973l4.667 1.973zM4.63 8.967c-0.743-0.349-1.611-0.613-2.666-0.698l2.666 0.698zM8.703 6.242l4.667-1.973c-2.163 0.175-3.538 1.101-4.667 1.973zM8.703 8.242l4.667-1.973c-2.163 0.175-3.538 1.101-4.667 1.973zM13.369 8.269c-1.055 0.085-1.923 0.349-2.666 0.698l2.666-0.698zM14.703 0.242c-2.92 0-5.593 1.363-6.943 2.443h-0.185c-1.351-1.079-4.024-2.443-6.944-2.443h-0.631v12.667h0.631c2.157 0 4.549 0.831 5.612 1.633 0.316 0.239 0.605 0.489 0.859 0.744l0.534 0.49h0.063l0.534-0.49c0.254-0.255 0.543-0.505 0.859-0.744 1.063-0.802 3.455-1.633 5.612-1.633h0.631v-12.667h-0.631zM7.333 13.681c0-0.068-0.163-0.137-0.251-0.203-1.115-0.841-3.749-1.731-5.749-1.88v-9.995c2.667 0.204 4.842 1.499 5.787 2.441l0.181 0.198h0.032v9.439zM14 11.597c-2 0.149-4.634 1.039-5.749 1.88-0.088 0.067-0.251 0.136-0.251 0.203v-9.439h0.033l0.181-0.198c0.945-0.942 3.12-2.237 5.787-2.441v9.995z"></path>
</svg>
