<?xml version="1.0" encoding="utf-8"?>
<!-- Generated by IcoMoon.io -->
<!DOCTYPE svg PUBLIC "-//W3C//DTD SVG 1.1//EN" "http://www.w3.org/Graphics/SVG/1.1/DTD/svg11.dtd">
<svg version="1.1" xmlns="http://www.w3.org/2000/svg" xmlns:xlink="http://www.w3.org/1999/xlink" width="16" height="16" viewBox="0 0 16 16">
<path d="M13.559 5.978c-1.741 2.322-3.276 2.402-5.637 2.522h-0.081c-2.873-0.002-4.91-1.069-4.91-1.466-0.002-0.377 1.838-1.358 4.484-1.455l0.472-1.178c-0.015 0-0.030-0.002-0.046-0.002-3.926 0-6.233 1.25-6.233 2.441v1.6c0 0.734 0.466 7.159 6.066 7.159s6.4-6.425 6.4-7.159v-1.6c0-0.313-0.161-0.63-0.467-0.926l-0.048 0.065zM14.071 2.162c-0.353-0.264-0.855-0.194-1.119 0.161l-2.886 3.847 1.869-4.67c0.165-0.41-0.035-0.875-0.446-1.041-0.406-0.164-0.877 0.034-1.040 0.447l-2.607 6.514c2.306-0.118 3.422-0.182 4.854-2.089 1.431-1.91 1.535-2.049 1.535-2.049 0.266-0.353 0.194-0.854-0.159-1.12z"></path>
</svg>
