<?xml version="1.0" encoding="utf-8"?>
<!-- Generated by IcoMoon.io -->
<!DOCTYPE svg PUBLIC "-//W3C//DTD SVG 1.1//EN" "http://www.w3.org/Graphics/SVG/1.1/DTD/svg11.dtd">
<svg version="1.1" xmlns="http://www.w3.org/2000/svg" xmlns:xlink="http://www.w3.org/1999/xlink" width="16" height="16" viewBox="0 0 16 16">
<path d="M7.2 8h1.6v1.6h7.2c0 0-0.119-3.567-0.16-4.683-0.040-1.061-0.42-1.717-1.6-1.717h-2.566c-0.398-0.75-0.826-1.556-0.958-1.805-0.265-0.498-0.355-0.595-0.943-0.595h-3.546c-0.588 0-0.678 0.097-0.943 0.595-0.132 0.249-0.56 1.054-0.957 1.805h-2.567c-1.181 0-1.556 0.656-1.6 1.717s-0.159 4.683-0.159 4.683h7.2v-1.6zM6.119 2.333c0.184-0.346 0.246-0.413 0.654-0.413h2.454c0.407 0 0.47 0.067 0.653 0.413 0.069 0.128 0.254 0.48 0.46 0.867h-4.68c0.206-0.387 0.391-0.739 0.46-0.867zM8.8 12h-1.6v-1.6h-6.8c0 0 0.099 1.438 0.159 2.658 0.025 0.506 0.174 1.342 1.44 1.342h12.001c1.266 0 1.412-0.838 1.44-1.342 0.070-1.254 0.16-2.658 0.16-2.658h-6.8v1.6z"></path>
</svg>
