<?xml version="1.0" encoding="utf-8"?>
<!-- Generated by IcoMoon.io -->
<!DOCTYPE svg PUBLIC "-//W3C//DTD SVG 1.1//EN" "http://www.w3.org/Graphics/SVG/1.1/DTD/svg11.dtd">
<svg version="1.1" xmlns="http://www.w3.org/2000/svg" xmlns:xlink="http://www.w3.org/1999/xlink" width="16" height="16" viewBox="0 0 16 16">
<path d="M14.4 1.6h-12.8c-0.88 0-1.6 0.72-1.6 1.6v9.6c0 0.88 0.72 1.6 1.6 1.6h12.8c0.88 0 1.6-0.72 1.6-1.6v-9.6c0-0.88-0.72-1.6-1.6-1.6zM3.6 3c0.331 0 0.6 0.269 0.6 0.6s-0.269 0.6-0.6 0.6c-0.331 0-0.6-0.269-0.6-0.6s0.269-0.6 0.6-0.6zM1.4 3.6c0-0.331 0.269-0.6 0.6-0.6s0.6 0.269 0.6 0.6c0 0.331-0.269 0.6-0.6 0.6s-0.6-0.269-0.6-0.6zM14.4 12.8h-12.8v-7.2h12.8v7.2zM14.4 4h-9.6v-0.8h9.615l-0.015 0.8z"></path>
</svg>
