<?xml version="1.0" encoding="utf-8"?>
<!-- Generated by IcoMoon.io -->
<!DOCTYPE svg PUBLIC "-//W3C//DTD SVG 1.1//EN" "http://www.w3.org/Graphics/SVG/1.1/DTD/svg11.dtd">
<svg version="1.1" xmlns="http://www.w3.org/2000/svg" xmlns:xlink="http://www.w3.org/1999/xlink" width="16" height="16" viewBox="0 0 16 16">
<path d="M2.21 10.85c-1.212 1.19-0.188 2.413-1.798 4.223-0.726 0.818 2.99 0.569 4.831-1.241 0.782-0.769 0.561-1.887-0.277-2.711-0.838-0.822-1.976-1.040-2.757-0.271zM15.631 0.527c-0.621-0.611-7.503 4.903-9.551 6.917-1.017 1-1.356 1.536-1.667 1.936-0.136 0.175 0.044 0.228 0.123 0.269 0.403 0.206 0.685 0.397 1.049 0.754s0.559 0.634 0.767 1.031c0.042 0.078 0.097 0.254 0.274 0.122 0.408-0.306 0.953-0.641 1.97-1.639 2.049-2.013 7.658-8.779 7.036-9.39z"></path>
</svg>
