<?xml version="1.0" encoding="utf-8"?>
<!-- Generated by IcoMoon.io -->
<!DOCTYPE svg PUBLIC "-//W3C//DTD SVG 1.1//EN" "http://www.w3.org/Graphics/SVG/1.1/DTD/svg11.dtd">
<svg version="1.1" xmlns="http://www.w3.org/2000/svg" xmlns:xlink="http://www.w3.org/1999/xlink" width="16" height="16" viewBox="0 0 16 16">
<path d="M8.8 0.8c-3.926 0-6.398 1.274-6.232 2.36 0.048 0.311 0.18 1.556 0.347 2.618-1.924 0.747-2.562 1.959-2.476 2.947 0.102 1.169 1.153 2.42 3.462 2.636 1.318 0.123 2.905-0.6 3.933-1.836-0.098-0.166-0.154-0.36-0.154-0.566 0-0.619 0.502-1.12 1.12-1.12s1.12 0.502 1.12 1.12c0 0.61-0.488 1.105-1.095 1.118-1.223 1.578-3.086 2.531-4.851 2.42 0.041 0.259 0.056 0.758 0.077 0.89 0.072 0.463 1.878 1.808 4.75 1.811 2.872-0.003 4.678-1.348 4.75-1.81 0.070-0.462 1.313-9.127 1.482-10.23 0.166-1.086-2.306-2.36-6.232-2.36zM1.554 8.628c-0.044-0.514 0.364-1.198 1.539-1.711 0.169 1.072 0.353 2.238 0.514 3.259-1.283-0.25-1.998-0.919-2.054-1.548zM8.8 4.819c-2.872-0.002-4.91-1.067-4.91-1.466-0.002-0.395 2.038-1.432 4.91-1.43 2.872-0.002 4.911 1.035 4.91 1.43 0 0.398-2.038 1.464-4.91 1.466z"></path>
</svg>
