<?xml version="1.0" encoding="utf-8"?>
<!-- Generated by IcoMoon.io -->
<!DOCTYPE svg PUBLIC "-//W3C//DTD SVG 1.1//EN" "http://www.w3.org/Graphics/SVG/1.1/DTD/svg11.dtd">
<svg version="1.1" xmlns="http://www.w3.org/2000/svg" xmlns:xlink="http://www.w3.org/1999/xlink" width="16" height="16" viewBox="0 0 16 16">
<path d="M14 4.655v-1.333h-9.383l-0.771-2.186c-0.125-0.346-0.507-0.546-0.853-0.421s-0.527 0.535-0.402 0.882l0.609 1.726h-1.867v1.333h-1.333v6h2v5.333h11.333v-5.333h2v-6h-1.333zM2 9.989h-1.333v-4.667h0.667v2h0.667v2.667zM12 14.655h-8.667v-4h2.064c0.138 0.667 0.505 0.667 0.939 0.667h2.667c0.433 0 0.801 0 0.939-0.667h2.059v4zM6 10.335v-0.001c0-0.183 0.15-0.333 0.333-0.333h2.669c0.183 0 0.333 0.15 0.333 0.333v0.001c0 0.183-0.15 0.333-0.333 0.333h-2.669c-0.183 0-0.333-0.15-0.333-0.333zM12 9.989h-2.059c-0.138-0.667-0.505-0.667-0.939-0.667h-2.667c-0.433 0-0.801 0-0.939 0.667h-2.064v-3.333h8.667v3.333zM12.667 5.989h-10v-1.333h10v1.333zM14.667 9.989h-1.333v-2.667h0.667v-2h0.667v4.667z"></path>
</svg>
