<?xml version="1.0" encoding="utf-8"?>
<!-- Generated by IcoMoon.io -->
<!DOCTYPE svg PUBLIC "-//W3C//DTD SVG 1.1//EN" "http://www.w3.org/Graphics/SVG/1.1/DTD/svg11.dtd">
<svg version="1.1" xmlns="http://www.w3.org/2000/svg" xmlns:xlink="http://www.w3.org/1999/xlink" width="16" height="16" viewBox="0 0 16 16">
<path d="M9.344 8v-1.344h-2.688v1.344h2.688zM9.344 10.656v-1.313h-2.688v1.313h2.688zM13.344 5.344v1.313h-1.406c0.031 0.219 0.063 0.469 0.063 0.688v0.656h1.344v1.344h-1.344v0.656c0 0.219-0.031 0.438-0.063 0.656h1.406v1.344h-1.875c-0.688 1.188-2 2-3.469 2s-2.781-0.813-3.469-2h-1.875v-1.344h1.406c-0.031-0.219-0.063-0.438-0.063-0.656v-0.656h-1.344v-1.344h1.344v-0.656c0-0.219 0.031-0.469 0.063-0.688h-1.406v-1.313h1.875c0.313-0.531 0.719-0.969 1.219-1.313l-1.094-1.094 0.938-0.938 1.469 1.438c0.313-0.063 0.625-0.094 0.938-0.094s0.625 0.031 0.938 0.094l1.469-1.438 0.938 0.938-1.094 1.094c0.5 0.344 0.906 0.781 1.219 1.313h1.875z"></path>
</svg>
