<?xml version="1.0" encoding="utf-8"?>
<!-- Generated by IcoMoon.io -->
<!DOCTYPE svg PUBLIC "-//W3C//DTD SVG 1.1//EN" "http://www.w3.org/Graphics/SVG/1.1/DTD/svg11.dtd">
<svg version="1.1" xmlns="http://www.w3.org/2000/svg" xmlns:xlink="http://www.w3.org/1999/xlink" width="16" height="16" viewBox="0 0 16 16">
<path d="M5.16 11.333l8.173 2.667v-12l-8.173 2.667h-2.493c-1.103 0-2 0.897-2 2v2.667c0 1.103 0.897 2 2 2h0.285c-0.001 0.017-0.002 0.031-0.002 0.048-0.001 0.426 0.043 1.009 0.244 1.607 0.108 0.295 0.243 0.597 0.427 0.862 0.092 0.133 0.181 0.264 0.29 0.373 0.105 0.112 0.201 0.225 0.31 0.306 0.208 0.181 0.401 0.309 0.544 0.381 0.143 0.079 0.223 0.126 0.223 0.126l0.025 0.014c0.125 0.069 0.266 0.116 0.418 0.133 0.613 0.069 1.166-0.373 1.235-0.986s-0.373-1.165-0.986-1.236c0 0-0.039-0.003-0.105-0.011-0.073 0-0.169-0.015-0.285-0.051-0.065-0.009-0.12-0.044-0.189-0.070-0.071-0.023-0.136-0.070-0.209-0.116-0.147-0.090-0.291-0.228-0.433-0.384-0.251-0.295-0.449-0.675-0.579-0.996h1.279zM11.333 3.814l0.667-0.223v8.818l-0.667-0.202v-8.393zM6 5.599l4.667-1.561v7.969l-4.667-1.605v-4.803zM2.667 10c-0.368 0-0.667-0.299-0.667-0.667v-2.667c0-0.367 0.299-0.667 0.667-0.667h2.667v4h-2.667zM14 6h0.667v4h-0.667z"></path>
</svg>
