<?xml version="1.0" encoding="utf-8"?>
<!-- Generated by IcoMoon.io -->
<!DOCTYPE svg PUBLIC "-//W3C//DTD SVG 1.1//EN" "http://www.w3.org/Graphics/SVG/1.1/DTD/svg11.dtd">
<svg version="1.1" xmlns="http://www.w3.org/2000/svg" xmlns:xlink="http://www.w3.org/1999/xlink" width="16" height="16" viewBox="0 0 16 16">
<path d="M9.344 4.656v-1.313h-2.688v1.313h2.688zM13.344 4.656c0.719 0 1.313 0.625 1.313 1.344v2c0 0.719-0.594 1.344-1.313 1.344h-4v-1.344h-2.688v1.344h-4c-0.75 0-1.313-0.594-1.313-1.344v-2c0-0.719 0.594-1.344 1.313-1.344h2.656v-1.313l1.344-1.344h2.656l1.344 1.344v1.313h2.688zM6.656 10.656h2.688v-0.656h4.656v2.656c0 0.75-0.594 1.344-1.344 1.344h-9.313c-0.75 0-1.344-0.594-1.344-1.344v-2.656h4.656v0.656z"></path>
</svg>
