<?xml version="1.0" encoding="utf-8"?>
<!-- Generated by IcoMoon.io -->
<!DOCTYPE svg PUBLIC "-//W3C//DTD SVG 1.1//EN" "http://www.w3.org/Graphics/SVG/1.1/DTD/svg11.dtd">
<svg version="1.1" xmlns="http://www.w3.org/2000/svg" xmlns:xlink="http://www.w3.org/1999/xlink" width="16" height="16" viewBox="0 0 16 16">
<path d="M4 8h2l-2.656 2.656-2.688-2.656h2c0-2.938 2.406-5.344 5.344-5.344 1.031 0 2.031 0.313 2.844 0.844l-0.969 0.969c-0.563-0.313-1.188-0.469-1.875-0.469-2.219 0-4 1.781-4 4zM12.656 5.344l2.688 2.656h-2c0 2.938-2.406 5.344-5.344 5.344-1.031 0-2.031-0.313-2.844-0.844l0.969-0.969c0.563 0.313 1.188 0.469 1.875 0.469 2.219 0 4-1.781 4-4h-2z"></path>
</svg>
