<?xml version="1.0" encoding="utf-8"?>
<!-- Generated by IcoMoon.io -->
<!DOCTYPE svg PUBLIC "-//W3C//DTD SVG 1.1//EN" "http://www.w3.org/Graphics/SVG/1.1/DTD/svg11.dtd">
<svg version="1.1" xmlns="http://www.w3.org/2000/svg" xmlns:xlink="http://www.w3.org/1999/xlink" width="16" height="16" viewBox="0 0 16 16">
<path d="M7.667 4.829c1.562 0 2.073-1.105 1.471-2.274-0.697-1.354 1.516-2.524 0.417-2.524-1.041 0-2.989 1.134-3.352 2.546-0.271 1.059 0.237 2.252 1.464 2.252zM11.837 11.99l-0.355-0.306c-0.39-0.336-1-0.334-1.388 0l-0.354 0.306c-0.496 0.427-1.118 0.641-1.739 0.641s-1.243-0.214-1.738-0.64l-0.355-0.307c-0.39-0.334-0.999-0.335-1.387 0.001l-0.355 0.306c-0.954 0.822-2.374 0.845-3.363 0.080v3.13c0 0.442 0.358 0.8 0.8 0.8h12.8c0.442 0 0.8-0.358 0.8-0.8v-3.13c-0.99 0.763-2.409 0.743-3.365-0.081zM8 5.6c-6.059 0-7.2 2.689-7.2 4v0.375l0.931 0.802c0.389 0.337 0.999 0.334 1.388 0l0.355-0.306c0.99-0.852 2.484-0.853 3.476 0l0.355 0.307c0.387 0.334 0.996 0.336 1.388-0.001l0.354-0.306c0.992-0.854 2.486-0.854 3.477-0.001l0.355 0.306c0.39 0.337 1 0.334 1.388 0l0.933-0.802v-0.375c0-1.311-1.141-4-7.2-4z"></path>
</svg>
