<?xml version="1.0" encoding="utf-8"?>
<!-- Generated by IcoMoon.io -->
<!DOCTYPE svg PUBLIC "-//W3C//DTD SVG 1.1//EN" "http://www.w3.org/Graphics/SVG/1.1/DTD/svg11.dtd">
<svg version="1.1" xmlns="http://www.w3.org/2000/svg" xmlns:xlink="http://www.w3.org/1999/xlink" width="16" height="16" viewBox="0 0 16 16">
<path d="M12 6c1.094 0 2 0.906 2 2v1.031c0 0.719-0.594 1.313-1.313 1.313-0.344 0-0.656-0.125-0.906-0.375l-1.438-1.438-1.438 1.438c-0.5 0.5-1.344 0.5-1.844 0l-1.406-1.438-1.438 1.438c-0.25 0.25-0.563 0.375-0.906 0.375-0.719 0-1.313-0.594-1.313-1.313v-1.031c0-1.094 0.906-2 2-2h3.344v-1.344h1.313v1.344h3.344zM11.063 10.656c0.438 0.438 1 0.688 1.625 0.688 0.5 0 0.938-0.156 1.313-0.406v3.063c0 0.375-0.281 0.656-0.656 0.656h-10.688c-0.375 0-0.656-0.281-0.656-0.656v-3.063c0.375 0.25 0.813 0.406 1.313 0.406 0.625 0 1.188-0.25 1.625-0.688l0.719-0.719 0.719 0.719c0.875 0.875 2.375 0.875 3.25 0l0.719-0.719zM8 4c-0.719 0-1.344-0.625-1.344-1.344 0-0.25 0.094-0.5 0.219-0.688l1.125-1.969 1.125 1.969c0.125 0.188 0.219 0.438 0.219 0.688 0 0.719-0.594 1.344-1.344 1.344z"></path>
</svg>
