<?xml version="1.0" encoding="utf-8"?>
<!-- Generated by IcoMoon.io -->
<!DOCTYPE svg PUBLIC "-//W3C//DTD SVG 1.1//EN" "http://www.w3.org/Graphics/SVG/1.1/DTD/svg11.dtd">
<svg version="1.1" xmlns="http://www.w3.org/2000/svg" xmlns:xlink="http://www.w3.org/1999/xlink" width="16" height="16" viewBox="0 0 16 16">
<path d="M11.68 0.8h-7.362c-0.615 0-1.118 0.503-1.118 1.12v12.16c0 0.616 0.503 1.12 1.118 1.12h7.362c0.615 0 1.12-0.505 1.12-1.12v-12.16c0-0.617-0.505-1.12-1.12-1.12zM5.6 9.6c0.551 0 1 0.358 1 0.8s-0.449 0.8-1 0.8c-0.552 0-1-0.358-1-0.8s0.448-0.8 1-0.8zM4.6 8c0-0.442 0.448-0.8 1-0.8s1 0.358 1 0.8-0.449 0.8-1 0.8c-0.552 0-1-0.358-1-0.8zM5.6 12c0.551 0 1 0.358 1 0.8s-0.449 0.8-1 0.8c-0.552 0-1-0.358-1-0.8s0.448-0.8 1-0.8zM8 9.6c0.551 0 1 0.358 1 0.8s-0.449 0.8-1 0.8c-0.552 0-1-0.358-1-0.8s0.448-0.8 1-0.8zM7 8c0-0.442 0.448-0.8 1-0.8s1 0.358 1 0.8-0.449 0.8-1 0.8c-0.552 0-1-0.358-1-0.8zM8 12c0.551 0 1 0.358 1 0.8s-0.449 0.8-1 0.8c-0.552 0-1-0.358-1-0.8s0.448-0.8 1-0.8zM10.4 9.6c0.551 0 1 0.358 1 0.8s-0.449 0.8-1 0.8c-0.552 0-1-0.358-1-0.8s0.448-0.8 1-0.8zM9.4 8c0-0.442 0.448-0.8 1-0.8s1 0.358 1 0.8-0.449 0.8-1 0.8c-0.552 0-1-0.358-1-0.8zM10.4 12c0.551 0 1 0.358 1 0.8s-0.449 0.8-1 0.8c-0.552 0-1-0.358-1-0.8s0.448-0.8 1-0.8zM4 5.6v-2.4h8v2.4h-8z"></path>
</svg>
