<?xml version="1.0" encoding="utf-8"?>
<!-- Generated by IcoMoon.io -->
<!DOCTYPE svg PUBLIC "-//W3C//DTD SVG 1.1//EN" "http://www.w3.org/Graphics/SVG/1.1/DTD/svg11.dtd">
<svg version="1.1" xmlns="http://www.w3.org/2000/svg" xmlns:xlink="http://www.w3.org/1999/xlink" width="16" height="16" viewBox="0 0 16 16">
<path d="M2.667 10.667h2v-2h-2v2zM3.333 9.333h0.667v0.667h-0.667v-0.667zM5.333 10.667h2v-2h-2v2zM6 9.333h0.667v0.667h-0.667v-0.667zM5.333 13.333h2v-2h-2v2zM6 12h0.667v0.667h-0.667v-0.667zM2.667 13.333h2v-2h-2v2zM3.333 12h0.667v0.667h-0.667v-0.667zM8 10.667h2v-2h-2v2zM8.667 9.333h0.667v0.667h-0.667v-0.667zM6.667 6.667h0.667v-0.667h-0.667v0.667zM5.333 6.667h0.667v-0.667h-0.667v0.667zM2.667 8h10.667v-6h-10.667v6zM3.333 2.667h9.333v4.667h-9.333v-4.667zM13.333 0h-10.667c-1.105 0-2 0.895-2 2v12c0 1.105 0.895 2 2 2h10.667c1.105 0 2-0.895 2-2v-12c0-1.105-0.895-2-2-2zM14 14c0 0.369-0.298 0.667-0.667 0.667h-10.667c-0.369 0-0.667-0.298-0.667-0.667v-12c0-0.369 0.298-0.667 0.667-0.667h10.667c0.369 0 0.667 0.298 0.667 0.667v12zM8 13.333h2v-2h-2v2zM8.667 12h0.667v0.667h-0.667v-0.667zM10.667 13.333h2.667v-4.667h-2.667v4.667zM11.333 9.333h1.333v3.333h-1.333v-3.333zM4 6.667h0.667v-0.667h-0.667v0.667z"></path>
</svg>
