<?xml version="1.0" encoding="utf-8"?>
<!-- Generated by IcoMoon.io -->
<!DOCTYPE svg PUBLIC "-//W3C//DTD SVG 1.1//EN" "http://www.w3.org/Graphics/SVG/1.1/DTD/svg11.dtd">
<svg version="1.1" xmlns="http://www.w3.org/2000/svg" xmlns:xlink="http://www.w3.org/1999/xlink" width="16" height="16" viewBox="0 0 16 16">
<path d="M13.333 2.667v-2.667h-4v2.667h-2.667v-2.667h-4v2.667h-2.667v12.667h16v-12.667h-2.667zM10.667 1.333h1.333v2.667h-1.333v-2.667zM4 1.333h1.333v2.667h-1.333v-2.667zM14.667 14h-13.333v-7.333h13.333v7.333zM14.667 6h-13.333v-2h1.333v1.333h4v-1.333h2.667v1.333h4v-1.333h1.333v2zM3.334 8.666h1.332v1.333h-1.332zM5.334 8.666h1.332v1.333h-1.332zM7.332 8.666h1.332v1.333h-1.332zM9.332 8.666h1.332v1.333h-1.332zM11.334 8.666h1.332v1.333h-1.332zM3.334 10.665h1.332v1.333h-1.332zM5.334 10.665h1.332v1.333h-1.332zM7.332 10.665h1.332v1.333h-1.332z"></path>
</svg>
