<?xml version="1.0" encoding="utf-8"?>
<!-- Generated by IcoMoon.io -->
<!DOCTYPE svg PUBLIC "-//W3C//DTD SVG 1.1//EN" "http://www.w3.org/Graphics/SVG/1.1/DTD/svg11.dtd">
<svg version="1.1" xmlns="http://www.w3.org/2000/svg" xmlns:xlink="http://www.w3.org/1999/xlink" width="16" height="16" viewBox="0 0 16 16">
<path d="M8.333 6c-1.657 0-2.999 1.343-2.999 3s1.343 3 2.999 3c1.656 0 2.999-1.343 2.999-3s-1.343-3-2.999-3zM7.171 6.989c0.343-0.199 0.737-0.322 1.162-0.322 1.194 0 2.171 0.905 2.306 2.065-1.153-0.888-2.517-1.436-3.468-1.743zM15 3.333h-3.223l-0.444-1.333h-6.667l-0.444 1.333h-2.556c-0.736 0-1.667 0.597-1.667 1.333v8c0 0.736 0.931 1.333 1.667 1.333h13.333c0.736 0 1-0.597 1-1.333v-8c0-0.736-0.264-1.333-1-1.333zM8.333 13.333c-2.393 0-4.333-1.94-4.333-4.333s1.94-4.333 4.333-4.333 4.333 1.94 4.333 4.333-1.94 4.333-4.333 4.333zM14.667 6h-1.333v-1.333h1.333v1.333z"></path>
</svg>
