<?xml version="1.0" encoding="utf-8"?>
<!-- Generated by IcoMoon.io -->
<!DOCTYPE svg PUBLIC "-//W3C//DTD SVG 1.1//EN" "http://www.w3.org/Graphics/SVG/1.1/DTD/svg11.dtd">
<svg version="1.1" xmlns="http://www.w3.org/2000/svg" xmlns:xlink="http://www.w3.org/1999/xlink" width="16" height="16" viewBox="0 0 16 16">
<path d="M8 6.4c-1.326 0-2.4 1.075-2.4 2.4s1.074 2.4 2.4 2.4c1.325 0 2.4-1.075 2.4-2.4s-1.075-2.4-2.4-2.4zM14.4 4h-1.92c-0.264 0-0.549-0.205-0.631-0.456l-0.497-1.489c-0.084-0.25-0.367-0.455-0.632-0.455h-5.44c-0.264 0-0.549 0.205-0.631 0.454l-0.498 1.49c-0.083 0.251-0.367 0.456-0.631 0.456h-1.92c-0.88 0-1.6 0.72-1.6 1.6v7.2c0 0.88 0.72 1.6 1.6 1.6h12.8c0.88 0 1.6-0.72 1.6-1.6v-7.2c0-0.88-0.72-1.6-1.6-1.6zM8 12.8c-2.21 0-4-1.79-4-4s1.79-4 4-4c2.209 0 4 1.79 4 4s-1.791 4-4 4zM14 6.56c-0.31 0-0.56-0.251-0.56-0.561 0-0.308 0.25-0.56 0.56-0.56s0.56 0.251 0.56 0.56c0 0.31-0.25 0.561-0.56 0.561z"></path>
</svg>
