<?xml version="1.0" encoding="utf-8"?>
<!-- Generated by IcoMoon.io -->
<!DOCTYPE svg PUBLIC "-//W3C//DTD SVG 1.1//EN" "http://www.w3.org/Graphics/SVG/1.1/DTD/svg11.dtd">
<svg version="1.1" xmlns="http://www.w3.org/2000/svg" xmlns:xlink="http://www.w3.org/1999/xlink" width="16" height="16" viewBox="0 0 16 16">
<path d="M6.563 14.5c1.074-1.854 2.133-3.721 3.219-5.563l2.438 4.219c-1.156 0.938-2.625 1.5-4.219 1.5-0.5 0-0.969-0.063-1.438-0.156zM1.625 10h6.469l-2.469 4.219c-1.906-0.719-3.375-2.281-4-4.219zM3.094 3.5c1.125 1.948 2.244 3.902 3.375 5.844h-5c-0.094-0.438-0.125-0.875-0.125-1.344 0-1.75 0.656-3.313 1.75-4.5zM14.531 6.656c0.094 0.438 0.125 0.875 0.125 1.344 0 1.75-0.656 3.313-1.75 4.5l-3.188-5.5-0.188-0.344h5zM14.375 6h-6.469l2.469-4.219c1.906 0.719 3.375 2.281 4 4.219zM6.281 7l-0.063 0.063-2.438-4.219c1.156-0.938 2.625-1.5 4.219-1.5 0.5 0 0.969 0.063 1.438 0.156z"></path>
</svg>
