<?xml version="1.0" encoding="utf-8"?>
<!-- Generated by IcoMoon.io -->
<!DOCTYPE svg PUBLIC "-//W3C//DTD SVG 1.1//EN" "http://www.w3.org/Graphics/SVG/1.1/DTD/svg11.dtd">
<svg version="1.1" xmlns="http://www.w3.org/2000/svg" xmlns:xlink="http://www.w3.org/1999/xlink" width="16" height="16" viewBox="0 0 16 16">
<path d="M8 4c0.719 0 1.313-0.625 1.313-1.344s-0.594-1.313-1.313-1.313-1.344 0.594-1.344 1.313 0.594 1.344 1.344 1.344zM11.344 0c0.719 0 1.313 0.625 1.313 1.344v9.313c0 0.719-0.594 1.344-1.313 1.344h-4.688l2 2-2 2v-1.344h-3.313v-1.313h3.313v-1.344h-2c-0.719 0-1.313-0.625-1.313-1.344v-9.313c0-0.719 0.594-1.344 1.313-1.344h6.688zM9.344 13.344h3.313v1.313h-3.313v-1.313z"></path>
</svg>
