<?xml version="1.0" encoding="utf-8"?>
<!-- Generated by IcoMoon.io -->
<!DOCTYPE svg PUBLIC "-//W3C//DTD SVG 1.1//EN" "http://www.w3.org/Graphics/SVG/1.1/DTD/svg11.dtd">
<svg version="1.1" xmlns="http://www.w3.org/2000/svg" xmlns:xlink="http://www.w3.org/1999/xlink" width="16" height="16" viewBox="0 0 16 16">
<path d="M13.344 6v-1.344h-1.344v1.344h1.344zM13.344 12v-1.344h-1.344v1.344h1.344zM10.656 6v-1.344h-1.313v1.344h1.313zM10.656 12v-1.344h-1.313v1.344h1.313zM8 6v-1.344h-1.344v1.344h1.344zM8 12v-1.344h-1.344v1.344h1.344zM9.344 3.344h5.313v10h-5.313c0 0.719-0.625 1.313-1.344 1.313h-5.344c-0.719 0-1.313-0.594-1.313-1.313v-10c0-0.719 0.594-1.344 1.313-1.344h0.688v-0.656c0-0.375 0.281-0.688 0.656-0.688h2.656c0.375 0 0.688 0.313 0.688 0.688v0.656h0.656c0.719 0 1.344 0.625 1.344 1.344z"></path>
</svg>
