<?xml version="1.0" encoding="utf-8"?>
<!-- Generated by IcoMoon.io -->
<!DOCTYPE svg PUBLIC "-//W3C//DTD SVG 1.1//EN" "http://www.w3.org/Graphics/SVG/1.1/DTD/svg11.dtd">
<svg version="1.1" xmlns="http://www.w3.org/2000/svg" xmlns:xlink="http://www.w3.org/1999/xlink" width="16" height="16" viewBox="0 0 16 16">
<path d="M13.344 9.344v-4h-2v1.313h-1.344v-1.313h-4v1.313h-1.344v-1.313h-2v4h10.688zM13.344 12.656v-1.313h-10.688v1.313h10.688zM6 2.656v1.344h4v-1.344h-4zM13.344 4c0.75 0 1.313 0.594 1.313 1.344v7.313c0 0.75-0.563 1.344-1.313 1.344h-10.688c-0.75 0-1.313-0.594-1.313-1.344v-7.313c0-0.75 0.563-1.344 1.313-1.344h2v-1.344c0-0.75 0.594-1.313 1.344-1.313h4c0.75 0 1.344 0.563 1.344 1.313v1.344h2z"></path>
</svg>
