<?xml version="1.0" encoding="utf-8"?>
<!-- Generated by IcoMoon.io -->
<!DOCTYPE svg PUBLIC "-//W3C//DTD SVG 1.1//EN" "http://www.w3.org/Graphics/SVG/1.1/DTD/svg11.dtd">
<svg version="1.1" xmlns="http://www.w3.org/2000/svg" xmlns:xlink="http://www.w3.org/1999/xlink" width="16" height="16" viewBox="0 0 16 16">
<path d="M14 2c0.719 0 1.344 0.625 1.344 1.344v9.313c0 0.719-0.625 1.344-1.344 1.344h-4.656v-1.344h4.656v-9.313h-12v2h-1.344v-2c0-0.719 0.625-1.344 1.344-1.344h12zM0.656 6.656c4.031 0 7.344 3.281 7.344 7.344h-1.344c0-3.313-2.688-6-6-6v-1.344zM12.656 4.656v6.688h-3.75c-0.844-2.625-2.938-4.75-5.563-5.594v-1.094h9.313zM0.656 9.344c2.594 0 4.688 2.063 4.688 4.656h-1.344c0-1.844-1.5-3.344-3.344-3.344v-1.313zM0.656 12c1.094 0 2 0.906 2 2h-2v-2z"></path>
</svg>
