<?xml version="1.0" encoding="utf-8"?>
<!-- Generated by IcoMoon.io -->
<!DOCTYPE svg PUBLIC "-//W3C//DTD SVG 1.1//EN" "http://www.w3.org/Graphics/SVG/1.1/DTD/svg11.dtd">
<svg version="1.1" xmlns="http://www.w3.org/2000/svg" xmlns:xlink="http://www.w3.org/1999/xlink" width="16" height="16" viewBox="0 0 16 16">
<path d="M12.656 12.656v-2.656h1.344v2.656c0 0.719-0.625 1.344-1.344 1.344h-2.656v-1.344h2.656zM12.656 2c0.719 0 1.344 0.625 1.344 1.344v2.656h-1.344v-2.656h-2.656v-1.344h2.656zM3.344 3.344v2.656h-1.344v-2.656c0-0.719 0.625-1.344 1.344-1.344h2.656v1.344h-2.656zM3.344 10v2.656h2.656v1.344h-2.656c-0.719 0-1.344-0.625-1.344-1.344v-2.656h1.344zM8 5.344c1.469 0 2.656 1.188 2.656 2.656s-1.188 2.656-2.656 2.656-2.656-1.188-2.656-2.656 1.188-2.656 2.656-2.656z"></path>
</svg>
