<?xml version="1.0" encoding="utf-8"?>
<!-- Generated by IcoMoon.io -->
<!DOCTYPE svg PUBLIC "-//W3C//DTD SVG 1.1//EN" "http://www.w3.org/Graphics/SVG/1.1/DTD/svg11.dtd">
<svg version="1.1" xmlns="http://www.w3.org/2000/svg" xmlns:xlink="http://www.w3.org/1999/xlink" width="16" height="16" viewBox="0 0 16 16">
<path d="M2.611 2.431c-1.526 1.097-2.525 2.883-2.525 4.902 0 0.738 0.139 1.442 0.383 2.097l5.657-2.097-3.515-4.902zM1.045 7.165c-0.024-1.251 0.451-2.455 1.314-3.351l2.798 3.106-3.967 1.323c-0.089-0.351-0.138-0.712-0.145-1.078zM8.875 1c-1.685 0-3.313 0.607-4.585 1.711l0.017 0.019-0.266 0.233 4.249 4.874-6.183 1.964 0.091 0.285-0.007 0.002c0.019 0.062 0.043 0.121 0.065 0.181l0.053 0.169 0.006-0.002c1.014 2.745 3.603 4.567 6.56 4.567 3.86 0 7-3.141 7-7s-3.14-7.001-7-7.001zM14.069 5.743l-4.219 1.545 2.754-3.543c0.623 0.548 1.129 1.227 1.465 1.999zM5.411 3.521c0.99-0.765 2.205-1.187 3.463-1.187 1.189 0 2.293 0.37 3.205 0.999l-3.22 4.143-3.449-3.955zM3.599 10.026l4.85-1.541-0.895 5.010c-1.798-0.427-3.279-1.702-3.955-3.469zM8.875 13.667c-0.226 0-0.445-0.027-0.665-0.053l0.959-5.366 5.131-1.879c0.155 0.517 0.241 1.065 0.241 1.631 0.001 3.125-2.542 5.667-5.666 5.667z"></path>
</svg>
