<?xml version="1.0" encoding="utf-8"?>
<!-- Generated by IcoMoon.io -->
<!DOCTYPE svg PUBLIC "-//W3C//DTD SVG 1.1//EN" "http://www.w3.org/Graphics/SVG/1.1/DTD/svg11.dtd">
<svg version="1.1" xmlns="http://www.w3.org/2000/svg" xmlns:xlink="http://www.w3.org/1999/xlink" width="16" height="16" viewBox="0 0 16 16">
<path d="M4.333 6c0.552 0 1 0.447 1 1s-0.448 1-1 1-1-0.447-1-1 0.448-1 1-1zM7.667 6c0.552 0 1 0.447 1 1s-0.448 1-1 1-1-0.447-1-1 0.448-1 1-1zM11 6c0.552 0 1 0.447 1 1s-0.448 1-1 1-1-0.447-1-1 0.448-1 1-1zM13.333 0.667h-11.333c-1.103 0-2 0.897-2 2v8c0 1.103 1.333 1.333 2 1.333v4l6-4h5.333c1.103 0 2-0.897 2-2v-7.333c0-1.103-0.897-2-2-2zM14 10c0 0.367-0.299 0.667-0.667 0.667h-6l-4 3.333v-3.333h-1.333c-0.367 0-0.667-0.299-0.667-0.667v-7.333c0-0.367 0.299-0.667 0.667-0.667h11.333c0.367 0 0.667 0.299 0.667 0.667v7.333z"></path>
</svg>
