<?xml version="1.0" encoding="utf-8"?>
<!-- Generated by IcoMoon.io -->
<!DOCTYPE svg PUBLIC "-//W3C//DTD SVG 1.1//EN" "http://www.w3.org/Graphics/SVG/1.1/DTD/svg11.dtd">
<svg version="1.1" xmlns="http://www.w3.org/2000/svg" xmlns:xlink="http://www.w3.org/1999/xlink" width="16" height="16" viewBox="0 0 16 16">
<path d="M4.64 9.76v-4.96h-3.040c-0.88 0-1.6 0.72-1.6 1.6v4.8c0 0.88 0.72 1.6 1.6 1.6h0.8v2.4l2.4-2.4h4c0.88 0 1.6-0.72 1.6-1.6v-1.456c-0.051 0.011-0.106 0.017-0.16 0.017l-5.6-0.001zM14.4 0.8h-7.2c-0.88 0-1.6 0.72-1.6 1.6v6.4h5.6l2.4 2.4v-2.4h0.8c0.88 0 1.6-0.719 1.6-1.6v-4.8c0-0.88-0.72-1.6-1.6-1.6z"></path>
</svg>
