<?xml version="1.0" encoding="utf-8"?>
<!-- Generated by IcoMoon.io -->
<!DOCTYPE svg PUBLIC "-//W3C//DTD SVG 1.1//EN" "http://www.w3.org/Graphics/SVG/1.1/DTD/svg11.dtd">
<svg version="1.1" xmlns="http://www.w3.org/2000/svg" xmlns:xlink="http://www.w3.org/1999/xlink" width="16" height="16" viewBox="0 0 16 16">
<path d="M2.667 4l6.435 0.009 0.785-1.333-8.553-0.009v6.667l1.333-1.333v-4zM2.667 13.333c-0.026-0.045 0.015-1.602 0.015-2.004-0.706-1.044-1.349-1.996-1.349-1.996v5.333l3.825 0.009c0 0-0.389-0.577-0.895-1.324-0.521-0.001-1.332-0.019-1.597-0.019zM12.667 13.333l-3.961 0.009-0.785 1.333 6.079-0.009v-9.333l-1.333 1.333v6.667zM12.009 1l-5.5 9.35-1.526-2.669-2.315 1.323 3.807 6.663 7.832-13.315-2.298-1.351z"></path>
</svg>
