<?xml version="1.0" encoding="utf-8"?>
<!-- Generated by IcoMoon.io -->
<!DOCTYPE svg PUBLIC "-//W3C//DTD SVG 1.1//EN" "http://www.w3.org/Graphics/SVG/1.1/DTD/svg11.dtd">
<svg version="1.1" xmlns="http://www.w3.org/2000/svg" xmlns:xlink="http://www.w3.org/1999/xlink" width="16" height="16" viewBox="0 0 16 16">
<path d="M9.042 5.421c-0.157-0.158-0.412-0.158-0.568 0l-2.246 2.292c-0.157 0.159-0.157 0.416 0 0.574l2.246 2.291c0.156 0.159 0.411 0.158 0.568 0s0.157-0.414 0-0.574l-1.842-2.004 1.842-2.005c0.157-0.158 0.157-0.414 0-0.574zM8 0.32c-4.242 0-7.68 3.438-7.68 7.68s3.438 7.68 7.68 7.68 7.68-3.438 7.68-7.68c0-4.242-3.438-7.68-7.68-7.68zM8 14.683c-3.692 0-6.683-2.992-6.683-6.683s2.991-6.683 6.683-6.683c3.69 0 6.683 2.992 6.683 6.683s-2.993 6.683-6.683 6.683z"></path>
</svg>
