<?xml version="1.0" encoding="utf-8"?>
<!-- Generated by IcoMoon.io -->
<!DOCTYPE svg PUBLIC "-//W3C//DTD SVG 1.1//EN" "http://www.w3.org/Graphics/SVG/1.1/DTD/svg11.dtd">
<svg version="1.1" xmlns="http://www.w3.org/2000/svg" xmlns:xlink="http://www.w3.org/1999/xlink" width="16" height="16" viewBox="0 0 16 16">
<path d="M5 9.344h6c-0.5 1.188-1.656 2-3 2s-2.5-0.813-3-2zM8 12.656c2.125 0 3.913-1.4 4.469-3.344 0.063 0 0.125 0.031 0.188 0.031 0.719 0 1.344-0.625 1.344-1.344s-0.625-1.344-1.344-1.344c-0.063 0-0.125 0.031-0.188 0.031-0.555-1.943-2.344-3.344-4.469-3.344s-3.913 1.4-4.469 3.344c-0.063 0-0.125-0.031-0.188-0.031-0.719 0-1.344 0.625-1.344 1.344s0.625 1.344 1.344 1.344c0.063 0 0.125-0.031 0.188-0.031 0.555 1.943 2.344 3.344 4.469 3.344zM15.281 8.438c-0.156 1-0.875 1.844-1.844 2.125-0.883 1.847-2.964 3.438-5.438 3.438-2.465 0-4.548-1.564-5.406-3.438-0.969-0.281-1.719-1.125-1.875-2.125-0.031-0.125-0.063-0.281-0.063-0.438s0.031-0.313 0.063-0.438c0.156-1 0.906-1.844 1.875-2.125 0.344-0.75 0.813-1.406 1.438-1.938 1.063-0.938 2.438-1.5 3.969-1.5 2.509 0 4.535 1.536 5.406 3.438 0.969 0.281 1.719 1.125 1.875 2.125 0.031 0.125 0.063 0.281 0.063 0.438s-0.031 0.313-0.063 0.438zM5.5 7c0-0.469 0.375-0.844 0.844-0.844s0.813 0.375 0.813 0.844-0.344 0.844-0.813 0.844-0.844-0.375-0.844-0.844zM8.844 7c0-0.469 0.344-0.844 0.813-0.844s0.844 0.375 0.844 0.844-0.375 0.844-0.844 0.844-0.813-0.375-0.813-0.844z"></path>
</svg>
