<?xml version="1.0" encoding="utf-8"?>
<!-- Generated by IcoMoon.io -->
<!DOCTYPE svg PUBLIC "-//W3C//DTD SVG 1.1//EN" "http://www.w3.org/Graphics/SVG/1.1/DTD/svg11.dtd">
<svg version="1.1" xmlns="http://www.w3.org/2000/svg" xmlns:xlink="http://www.w3.org/1999/xlink" width="16" height="16" viewBox="0 0 16 16">
<path d="M11.344 13.344c0.563 0 1-0.438 1-1s-0.438-1-1-1-1 0.438-1 1 0.438 1 1 1zM5.344 13.344c0.563 0 1-0.438 1-1s-0.438-1-1-1-1 0.438-1 1 0.438 1 1 1zM12.875 10.594c0.469 0.438 0.781 1.063 0.781 1.75 0 1.281-1.031 2.313-2.313 2.313-1.188 0-2.156-0.875-2.313-2h-1.406c-0.156 1.125-1.094 2-2.281 2-1.281 0-2.344-1.031-2.344-2.313 0-0.875 0.5-1.656 1.219-2.063-0.156-0.219-1.406-2.938-1.406-2.938h-1.469v-1.344h2.313l0.625 1.344h9.719c0 1.219-0.438 2.344-1.125 3.25zM8.656 1.344c2.938 0 5.344 2.375 5.344 5.313h-5.344v-5.313z"></path>
</svg>
