<?xml version="1.0" encoding="utf-8"?>
<!-- Generated by IcoMoon.io -->
<!DOCTYPE svg PUBLIC "-//W3C//DTD SVG 1.1//EN" "http://www.w3.org/Graphics/SVG/1.1/DTD/svg11.dtd">
<svg version="1.1" xmlns="http://www.w3.org/2000/svg" xmlns:xlink="http://www.w3.org/1999/xlink" width="16" height="16" viewBox="0 0 16 16">
<path d="M14.067 7.498h1.6c-0.052-0.839-0.234-1.642-0.534-2.387l-1.405 0.811c0.179 0.498 0.297 1.026 0.339 1.576zM11.281 1.036c-0.764-0.361-1.592-0.606-2.469-0.696v1.617c0.586 0.078 1.146 0.236 1.667 0.468l0.802-1.389zM12.994 4.498l1.393-0.804c-0.473-0.702-1.064-1.316-1.738-1.828l-0.805 1.394c0.439 0.357 0.825 0.774 1.15 1.238zM8.011 14.057c-3.358 0-6.080-2.722-6.080-6.080 0-3.086 2.302-5.629 5.281-6.021v-1.617c-3.866 0.4-6.881 3.666-6.881 7.638 0 4.242 3.438 7.681 7.681 7.681 3.859 0 7.046-2.85 7.589-6.56h-1.617c-0.526 2.822-2.998 4.959-5.973 4.959z"></path>
</svg>
