<?xml version="1.0" encoding="utf-8"?>
<!-- Generated by IcoMoon.io -->
<!DOCTYPE svg PUBLIC "-//W3C//DTD SVG 1.1//EN" "http://www.w3.org/Graphics/SVG/1.1/DTD/svg11.dtd">
<svg version="1.1" xmlns="http://www.w3.org/2000/svg" xmlns:xlink="http://www.w3.org/1999/xlink" width="16" height="16" viewBox="0 0 16 16">
<path d="M1.333 0v16h13.333v-16h-13.333zM13.333 14.667h-10.667v-13.333h10.667v13.333zM12.667 2.667h-2v-0.667h-5.333v0.667h-2v11.333h9.333v-11.333zM6 2.667h4v0.667h-4v-0.667zM12 13.333h-8v-10h1.333v0.667h5.333v-0.667h1.333v10zM4.667 6h6v-1.333h-6v1.333zM4.667 7.333h6v-0.667h-6v0.667zM4.667 8.667h6v-0.667h-6v0.667zM4.667 10h6v-0.667h-6v0.667zM4.667 11.333h2.667v-0.667h-2.667v0.667z"></path>
</svg>
