<?xml version="1.0" encoding="utf-8"?>
<!-- Generated by IcoMoon.io -->
<!DOCTYPE svg PUBLIC "-//W3C//DTD SVG 1.1//EN" "http://www.w3.org/Graphics/SVG/1.1/DTD/svg11.dtd">
<svg version="1.1" xmlns="http://www.w3.org/2000/svg" xmlns:xlink="http://www.w3.org/1999/xlink" width="16" height="16" viewBox="0 0 16 16">
<path d="M8 0.32c-4.242 0-7.681 3.438-7.681 7.68s3.438 7.681 7.681 7.681c4.241 0 7.68-3.438 7.68-7.681s-3.439-7.68-7.68-7.68zM7.999 14.080c-3.358 0-6.080-2.722-6.080-6.080s2.722-6.080 6.080-6.080c3.358 0 6.081 2.722 6.081 6.080s-2.723 6.080-6.081 6.080zM8.8 7.464v-4.264h-1.6v4.996l-2.837 1.638 0.8 1.386 3.292-1.902c0.19-0.11 0.345-0.378 0.345-0.598v-0.134l3.392-3.333c-0.158-0.217-0.329-0.423-0.518-0.613l-2.874 2.824z"></path>
</svg>
