<?xml version="1.0" encoding="utf-8"?>
<!-- Generated by IcoMoon.io -->
<!DOCTYPE svg PUBLIC "-//W3C//DTD SVG 1.1//EN" "http://www.w3.org/Graphics/SVG/1.1/DTD/svg11.dtd">
<svg version="1.1" xmlns="http://www.w3.org/2000/svg" xmlns:xlink="http://www.w3.org/1999/xlink" width="16" height="16" viewBox="0 0 16 16">
<path d="M8 0c-4.418 0-8 3.582-8 8s3.582 8 8 8 8-3.582 8-8-3.582-8-8-8zM8 14.667c-3.676 0-6.667-2.991-6.667-6.667s2.991-6.667 6.667-6.667 6.667 2.991 6.667 6.667-2.991 6.667-6.667 6.667zM10.965 3.403c-0.329-0.164-0.73-0.031-0.895 0.298l-2.253 4.506-1.347-1.346c-0.261-0.261-0.682-0.261-0.943 0s-0.261 0.682 0 0.943l2 2c0.127 0.127 0.296 0.196 0.472 0.196 0.035 0 0.071-0.003 0.107-0.009 0.211-0.035 0.393-0.169 0.489-0.36l2.667-5.333c0.165-0.329 0.031-0.729-0.298-0.895zM7.335 12.665h1.333v0.668h-1.333zM7.335 2h1.333v0.668h-1.333zM2 7.332h1.333v0.668h-1.333zM12.665 7.332h1.333v0.668h-1.333z"></path>
</svg>
