<?xml version="1.0" encoding="utf-8"?>
<!-- Generated by IcoMoon.io -->
<!DOCTYPE svg PUBLIC "-//W3C//DTD SVG 1.1//EN" "http://www.w3.org/Graphics/SVG/1.1/DTD/svg11.dtd">
<svg version="1.1" xmlns="http://www.w3.org/2000/svg" xmlns:xlink="http://www.w3.org/1999/xlink" width="16" height="16" viewBox="0 0 16 16">
<path d="M12 7.344v-0.688c0-0.375-0.281-0.656-0.656-0.656h-2c-0.375 0-0.688 0.281-0.688 0.656v2.688c0 0.375 0.313 0.656 0.688 0.656h2c0.375 0 0.656-0.281 0.656-0.656v-0.688h-1v0.344h-1.344v-2h1.344v0.344h1zM7.344 7.344v-0.688c0-0.375-0.313-0.656-0.688-0.656h-2c-0.375 0-0.656 0.281-0.656 0.656v2.688c0 0.375 0.281 0.656 0.656 0.656h2c0.375 0 0.688-0.281 0.688-0.656v-0.688h-1v0.344h-1.344v-2h1.344v0.344h1zM12.656 2.656c0.719 0 1.344 0.625 1.344 1.344v8c0 0.719-0.625 1.344-1.344 1.344h-9.313c-0.75 0-1.344-0.625-1.344-1.344v-8c0-0.719 0.594-1.344 1.344-1.344h9.313z"></path>
</svg>
