<?xml version="1.0" encoding="utf-8"?>
<!-- Generated by IcoMoon.io -->
<!DOCTYPE svg PUBLIC "-//W3C//DTD SVG 1.1//EN" "http://www.w3.org/Graphics/SVG/1.1/DTD/svg11.dtd">
<svg version="1.1" xmlns="http://www.w3.org/2000/svg" xmlns:xlink="http://www.w3.org/1999/xlink" width="16" height="16" viewBox="0 0 16 16">
<path d="M12.751 14c1.909 0 3.171-2.107 3.171-4.25 0-1.841-1.52-3.474-3.356-3.719l-0.305-0.813c-0.739-1.955-2.541-3.219-4.591-3.219-2.735 0-4.959 2.243-4.959 5 0 0.121 0.006 0.239 0.017 0.353-1.489 0.173-2.649 1.443-2.649 2.98 0 1.427 1.109 3.462 2.672 3.667h10zM9.31 8.517v0c0.592-0.852 1.783-0.939 2.315-1.197l0.005 0.013h0.461c1.307 0 2.496 1 2.496 2.265 0 1.228-0.814 3.068-2.129 3.068h-9.631c-0.733 0-1.415-1.582-1.415-2.485 0.001-1.029 0.911-1.775 1.985-1.557l1.034 0.247-0.254-1.005c-0.067-0.265-0.133-0.569-0.133-0.876 0-2.022 1.626-3.662 3.625-3.662 1.513 0 2.794 0.905 3.344 2.357-1.349 0.797-1.763 2.69-1.763 2.69"></path>
</svg>
