<?xml version="1.0" encoding="utf-8"?>
<!-- Generated by IcoMoon.io -->
<!DOCTYPE svg PUBLIC "-//W3C//DTD SVG 1.1//EN" "http://www.w3.org/Graphics/SVG/1.1/DTD/svg11.dtd">
<svg version="1.1" xmlns="http://www.w3.org/2000/svg" xmlns:xlink="http://www.w3.org/1999/xlink" width="16" height="16" viewBox="0 0 16 16">
<path d="M5.156 6.656h-1.156c-1.469 0-2.656 1.219-2.656 2.688s1.188 2.656 2.656 2.656h6.5zM2 3.5l0.844-0.844 11.156 11.156-0.844 0.844-1.344-1.313h-7.813c-2.219 0-4-1.781-4-4 0-2.156 1.719-3.906 3.844-4zM12.906 6.688c1.719 0.125 3.094 1.563 3.094 3.313 0 1.125-0.563 2.125-1.406 2.719l-0.969-0.969c0.625-0.344 1.031-1 1.031-1.75 0-1.094-0.906-2-2-2h-1v-0.344c0-2.031-1.625-3.656-3.656-3.656-0.625 0-1.188 0.125-1.688 0.406l-1-0.969c0.781-0.5 1.688-0.781 2.688-0.781 2.438 0 4.438 1.719 4.906 4.031z"></path>
</svg>
