<?xml version="1.0" encoding="utf-8"?>
<!-- Generated by IcoMoon.io -->
<!DOCTYPE svg PUBLIC "-//W3C//DTD SVG 1.1//EN" "http://www.w3.org/Graphics/SVG/1.1/DTD/svg11.dtd">
<svg version="1.1" xmlns="http://www.w3.org/2000/svg" xmlns:xlink="http://www.w3.org/1999/xlink" width="16" height="16" viewBox="0 0 16 16">
<path d="M12.656 12c1.094 0 2-0.906 2-2s-0.906-2-2-2h-1v-0.344c0-2.031-1.625-3.656-3.656-3.656-1.688 0-3.094 1.125-3.531 2.656h-0.469c-1.469 0-2.656 1.219-2.656 2.688s1.188 2.656 2.656 2.656h8.656zM12.906 6.688c1.719 0.125 3.094 1.563 3.094 3.313 0 1.844-1.5 3.344-3.344 3.344h-8.656c-2.219 0-4-1.781-4-4 0-2.063 1.563-3.75 3.563-3.969 0.844-1.594 2.5-2.719 4.438-2.719 2.438 0 4.438 1.719 4.906 4.031z"></path>
</svg>
