<?xml version="1.0" encoding="utf-8"?>
<!-- Generated by IcoMoon.io -->
<!DOCTYPE svg PUBLIC "-//W3C//DTD SVG 1.1//EN" "http://www.w3.org/Graphics/SVG/1.1/DTD/svg11.dtd">
<svg version="1.1" xmlns="http://www.w3.org/2000/svg" xmlns:xlink="http://www.w3.org/1999/xlink" width="16" height="16" viewBox="0 0 16 16">
<path d="M13.426 8c0-0.839 0.517-1.5 1.294-1.954-0.141-0.467-0.326-0.916-0.554-1.338-0.871 0.228-1.576-0.113-2.169-0.706-0.593-0.592-0.774-1.297-0.546-2.169-0.422-0.228-0.87-0.414-1.338-0.553-0.454 0.776-1.276 1.292-2.114 1.292s-1.659-0.516-2.114-1.292c-0.468 0.138-0.915 0.325-1.337 0.553 0.228 0.872 0.047 1.577-0.547 2.169-0.592 0.594-1.297 0.934-2.169 0.706-0.228 0.422-0.414 0.87-0.553 1.338 0.776 0.454 1.292 1.115 1.292 1.954 0 0.838-0.516 1.659-1.292 2.114 0.14 0.467 0.325 0.915 0.553 1.338 0.872-0.228 1.577-0.047 2.169 0.546s0.775 1.298 0.547 2.169c0.422 0.228 0.87 0.414 1.338 0.554 0.454-0.778 1.276-1.294 2.114-1.294s1.659 0.516 2.114 1.294c0.467-0.141 0.915-0.326 1.338-0.554-0.228-0.87-0.047-1.575 0.546-2.169 0.593-0.592 1.298-0.933 2.169-0.706 0.228-0.422 0.414-0.869 0.554-1.338-0.778-0.455-1.295-1.116-1.295-1.954zM8 10.922c-1.614 0-2.922-1.308-2.922-2.922s1.309-2.923 2.922-2.923c1.614 0 2.922 1.31 2.922 2.923s-1.307 2.922-2.922 2.922z"></path>
</svg>
