<?xml version="1.0" encoding="utf-8"?>
<!-- Generated by IcoMoon.io -->
<!DOCTYPE svg PUBLIC "-//W3C//DTD SVG 1.1//EN" "http://www.w3.org/Graphics/SVG/1.1/DTD/svg11.dtd">
<svg version="1.1" xmlns="http://www.w3.org/2000/svg" xmlns:xlink="http://www.w3.org/1999/xlink" width="16" height="16" viewBox="0 0 16 16">
<path d="M2.543 4.798c-0.338-0.28-0.846-0.232-1.126 0.106l-1.022 1.231c-0.28 0.338-0.233 0.846 0.105 1.126l6.31 5.234-3.046-6.683-1.222-1.013zM5.61 2.146l-1.456 0.663c-0.399 0.182-0.578 0.66-0.396 1.059l3.4 7.46 0.17-7.343-0.658-1.443c-0.184-0.4-0.661-0.578-1.061-0.396zM11.369 2.31c0.010-0.44-0.342-0.808-0.781-0.818l-1.6-0.037c-0.439-0.010-0.807 0.342-0.818 0.781l-0.191 8.194 3.352-6.534 0.038-1.586zM15.353 3.070l-1.423-0.73c-0.391-0.2-0.877-0.044-1.078 0.347l-5.113 9.965c-0.201 0.391-0.045 0.877 0.347 1.078l1.423 0.73c0.391 0.201 0.876 0.045 1.077-0.346l5.113-9.965c0.201-0.393 0.045-0.878-0.346-1.078zM10.239 13.034c-0.202 0.394-0.684 0.549-1.077 0.347s-0.548-0.683-0.346-1.077 0.683-0.548 1.077-0.346c0.394 0.201 0.548 0.683 0.346 1.076z"></path>
</svg>
