<?xml version="1.0" encoding="utf-8"?>
<!-- Generated by IcoMoon.io -->
<!DOCTYPE svg PUBLIC "-//W3C//DTD SVG 1.1//EN" "http://www.w3.org/Graphics/SVG/1.1/DTD/svg11.dtd">
<svg version="1.1" xmlns="http://www.w3.org/2000/svg" xmlns:xlink="http://www.w3.org/1999/xlink" width="16" height="16" viewBox="0 0 16 16">
<path d="M4.363 11.638c0 0 3.654-0.502 5.214-2.061s2.061-5.214 2.061-5.214-3.655 0.502-5.214 2.061-2.061 5.214-2.061 5.214zM7.214 7.212c0.654-0.654 1.908-1.12 2.983-1.41-0.289 1.074-0.756 2.336-1.408 2.986-0.434 0.436-1.141 0.436-1.575 0-0.436-0.434-0.436-1.14 0-1.576zM8.001 0.32c-4.242 0-7.681 3.438-7.681 7.68s3.438 7.681 7.681 7.681c4.241 0 7.68-3.438 7.68-7.681s-3.439-7.68-7.68-7.68zM8 14.080c-3.358 0-6.080-2.722-6.080-6.080s2.722-6.080 6.080-6.080c3.358 0 6.081 2.722 6.081 6.080s-2.723 6.080-6.081 6.080z"></path>
</svg>
