<?xml version="1.0" encoding="utf-8"?>
<!-- Generated by IcoMoon.io -->
<!DOCTYPE svg PUBLIC "-//W3C//DTD SVG 1.1//EN" "http://www.w3.org/Graphics/SVG/1.1/DTD/svg11.dtd">
<svg version="1.1" xmlns="http://www.w3.org/2000/svg" xmlns:xlink="http://www.w3.org/1999/xlink" width="16" height="16" viewBox="0 0 16 16">
<path d="M8.656 5.656v-1.313h-1.313v1.313h1.313zM8.656 8.656v-1.313h-1.313v1.313h1.313zM8.656 11.656v-1.313h-1.313v1.313h1.313zM14.656 6.656c-0.719 0-1.313 0.625-1.313 1.344s0.594 1.344 1.313 1.344v2.656c0 0.719-0.594 1.344-1.313 1.344h-10.688c-0.719 0-1.313-0.625-1.313-1.344v-2.656c0.75 0 1.313-0.625 1.313-1.344s-0.594-1.344-1.313-1.344v-2.656c0-0.75 0.594-1.344 1.313-1.344h10.688c0.719 0 1.313 0.594 1.313 1.344v2.656z"></path>
</svg>
