<?xml version="1.0" encoding="utf-8"?>
<!-- Generated by IcoMoon.io -->
<!DOCTYPE svg PUBLIC "-//W3C//DTD SVG 1.1//EN" "http://www.w3.org/Graphics/SVG/1.1/DTD/svg11.dtd">
<svg version="1.1" xmlns="http://www.w3.org/2000/svg" xmlns:xlink="http://www.w3.org/1999/xlink" width="16" height="16" viewBox="0 0 16 16">
<path d="M14.367 3.657l-5.762 3.959c0 0-0.223 0.161-0.223 0.385s0.223 0.383 0.223 0.383l5.762 3.961c0.458 0.304 0.833 0.079 0.833-0.501v-7.687c0-0.582-0.375-0.806-0.833-0.5zM7.106 3.657l-5.762 3.959c0 0-0.223 0.161-0.223 0.385s0.223 0.383 0.223 0.383l5.762 3.961c0.458 0.305 0.833 0.080 0.833-0.5v-7.688c0-0.582-0.375-0.806-0.833-0.5z"></path>
</svg>
