<?xml version="1.0" encoding="utf-8"?>
<!-- Generated by IcoMoon.io -->
<!DOCTYPE svg PUBLIC "-//W3C//DTD SVG 1.1//EN" "http://www.w3.org/Graphics/SVG/1.1/DTD/svg11.dtd">
<svg version="1.1" xmlns="http://www.w3.org/2000/svg" xmlns:xlink="http://www.w3.org/1999/xlink" width="16" height="16" viewBox="0 0 16 16">
<path d="M11.344 11.344v-1c0-1.125-2.219-1.688-3.344-1.688s-3.344 0.563-3.344 1.688v1h6.688zM8 4.5c-0.813 0-1.5 0.688-1.5 1.5s0.688 1.5 1.5 1.5 1.5-0.688 1.5-1.5-0.688-1.5-1.5-1.5zM13.344 2.656c0.719 0 1.313 0.625 1.313 1.344v8c0 0.719-0.594 1.344-1.313 1.344h-10.688c-0.719 0-1.313-0.625-1.313-1.344v-8c0-0.719 0.594-1.344 1.313-1.344h10.688zM2.656 16v-1.344h10.688v1.344h-10.688zM13.344 0v1.344h-10.688v-1.344h10.688z"></path>
</svg>
