<?xml version="1.0" encoding="utf-8"?>
<!-- Generated by IcoMoon.io -->
<!DOCTYPE svg PUBLIC "-//W3C//DTD SVG 1.1//EN" "http://www.w3.org/Graphics/SVG/1.1/DTD/svg11.dtd">
<svg version="1.1" xmlns="http://www.w3.org/2000/svg" xmlns:xlink="http://www.w3.org/1999/xlink" width="16" height="16" viewBox="0 0 16 16">
<path d="M12 2.4h-1.6c-0.442 0-0.8 0.038-0.8 0.48v10.24c0 0.442 0.358 0.48 0.8 0.48h1.6c0.442 0 0.8-0.038 0.8-0.48v-10.24c0-0.442-0.358-0.48-0.8-0.48zM5.6 2.4h-1.6c-0.442 0-0.8 0.038-0.8 0.48v10.24c0 0.442 0.358 0.48 0.8 0.48h1.6c0.442 0 0.8-0.038 0.8-0.48v-10.24c0-0.442-0.358-0.48-0.8-0.48z"></path>
</svg>
