<?xml version="1.0" encoding="utf-8"?>
<!-- Generated by IcoMoon.io -->
<!DOCTYPE svg PUBLIC "-//W3C//DTD SVG 1.1//EN" "http://www.w3.org/Graphics/SVG/1.1/DTD/svg11.dtd">
<svg version="1.1" xmlns="http://www.w3.org/2000/svg" xmlns:xlink="http://www.w3.org/1999/xlink" width="16" height="16" viewBox="0 0 16 16">
<path d="M7.395 7.616l-5.762-3.959c-0.458-0.306-0.833-0.082-0.833 0.5v7.687c0 0.58 0.375 0.805 0.833 0.5l5.762-3.961c0 0 0.223-0.159 0.223-0.382s-0.223-0.385-0.223-0.385zM14.88 8.001c0 0.223-0.223 0.382-0.223 0.382l-5.762 3.961c-0.458 0.305-0.833 0.080-0.833-0.5v-7.687c0-0.582 0.375-0.806 0.833-0.5l5.762 3.959c0 0 0.224 0.161 0.224 0.385z"></path>
</svg>
