<?xml version="1.0" encoding="utf-8"?>
<!-- Generated by IcoMoon.io -->
<!DOCTYPE svg PUBLIC "-//W3C//DTD SVG 1.1//EN" "http://www.w3.org/Graphics/SVG/1.1/DTD/svg11.dtd">
<svg version="1.1" xmlns="http://www.w3.org/2000/svg" xmlns:xlink="http://www.w3.org/1999/xlink" width="16" height="16" viewBox="0 0 16 16">
<path d="M10 12.656c2.563 0 4.656-2.094 4.656-4.656s-2.094-4.656-4.656-4.656-4.656 2.094-4.656 4.656 2.094 4.656 4.656 4.656zM10 2c3.313 0 6 2.688 6 6s-2.688 6-6 6-6-2.688-6-6 2.688-6 6-6zM1.344 8c0 1.875 1.063 3.469 2.656 4.219v1.438c-2.313-0.813-4-3.063-4-5.656s1.688-4.844 4-5.656v1.438c-1.594 0.75-2.656 2.344-2.656 4.219zM10.656 5.344v2h2v1.313h-2v2h-1.313v-2h-2v-1.313h2v-2h1.313z"></path>
</svg>
