<?xml version="1.0" encoding="utf-8"?>
<!-- Generated by IcoMoon.io -->
<!DOCTYPE svg PUBLIC "-//W3C//DTD SVG 1.1//EN" "http://www.w3.org/Graphics/SVG/1.1/DTD/svg11.dtd">
<svg version="1.1" xmlns="http://www.w3.org/2000/svg" xmlns:xlink="http://www.w3.org/1999/xlink" width="16" height="16" viewBox="0 0 16 16">
<path d="M12.656 13.344v-10.688h-1.313v2h-6.688v-2h-1.313v10.688h9.313zM8 1.344c-0.375 0-0.656 0.281-0.656 0.656s0.281 0.656 0.656 0.656 0.656-0.281 0.656-0.656-0.281-0.656-0.656-0.656zM12.656 1.344c0.719 0 1.344 0.594 1.344 1.313v10.688c0 0.719-0.625 1.313-1.344 1.313h-9.313c-0.719 0-1.344-0.594-1.344-1.313v-10.688c0-0.719 0.625-1.313 1.344-1.313h2.781c0.281-0.781 1-1.344 1.875-1.344s1.594 0.563 1.875 1.344h2.781z"></path>
</svg>
