<?xml version="1.0" encoding="utf-8"?>
<!-- Generated by IcoMoon.io -->
<!DOCTYPE svg PUBLIC "-//W3C//DTD SVG 1.1//EN" "http://www.w3.org/Graphics/SVG/1.1/DTD/svg11.dtd">
<svg version="1.1" xmlns="http://www.w3.org/2000/svg" xmlns:xlink="http://www.w3.org/1999/xlink" width="16" height="16" viewBox="0 0 16 16">
<path d="M11.906 9.344c-0.156-0.406-0.25-0.875-0.25-1.344s0.094-0.938 0.25-1.344h1.094l1-1.313-1.313-1.344c-0.875 0.656-1.531 1.563-1.844 2.656-0.125 0.438-0.188 0.875-0.188 1.344s0.063 0.906 0.188 1.344c0.313 1.063 0.969 2 1.844 2.656l1.313-1.344-1-1.313h-1.094zM9.344 12v-0.656c0-1.344-2.656-2.063-4-2.063s-4 0.719-4 2.063v0.656h8zM5.344 4c-1.094 0-2 0.906-2 2s0.906 2 2 2 2-0.906 2-2-0.906-2-2-2zM14.656 2c0.719 0 1.344 0.625 1.344 1.344v9.313c0 0.719-0.625 1.344-1.344 1.344h-13.313c-0.719 0-1.344-0.625-1.344-1.344v-9.313c0-0.719 0.625-1.344 1.344-1.344h13.313z"></path>
</svg>
