<?xml version="1.0" encoding="utf-8"?>
<!-- Generated by IcoMoon.io -->
<!DOCTYPE svg PUBLIC "-//W3C//DTD SVG 1.1//EN" "http://www.w3.org/Graphics/SVG/1.1/DTD/svg11.dtd">
<svg version="1.1" xmlns="http://www.w3.org/2000/svg" xmlns:xlink="http://www.w3.org/1999/xlink" width="16" height="16" viewBox="0 0 16 16">
<path d="M9.795 7.616l-5.762-3.959c-0.458-0.306-0.833-0.082-0.833 0.5v7.687c0 0.58 0.375 0.805 0.833 0.5l5.762-3.961c0 0 0.223-0.159 0.223-0.382s-0.223-0.385-0.223-0.385zM11.2 3.2h0.8c0.442 0 0.8 0.038 0.8 0.48v8.64c0 0.442-0.358 0.48-0.8 0.48h-0.8c-0.442 0-0.8-0.038-0.8-0.48v-8.64c0-0.442 0.358-0.48 0.8-0.48z"></path>
</svg>
