<?xml version="1.0" encoding="utf-8"?>
<!-- Generated by IcoMoon.io -->
<!DOCTYPE svg PUBLIC "-//W3C//DTD SVG 1.1//EN" "http://www.w3.org/Graphics/SVG/1.1/DTD/svg11.dtd">
<svg version="1.1" xmlns="http://www.w3.org/2000/svg" xmlns:xlink="http://www.w3.org/1999/xlink" width="16" height="16" viewBox="0 0 16 16">
<path d="M12.656 2h2v0.656l-4.656 4.688-1.344-1.344zM8 8.344c0.188 0 0.344-0.156 0.344-0.344s-0.156-0.344-0.344-0.344-0.344 0.156-0.344 0.344 0.156 0.344 0.344 0.344zM4 13.344c0.719 0 1.344-0.594 1.344-1.344s-0.625-1.344-1.344-1.344-1.344 0.594-1.344 1.344 0.625 1.344 1.344 1.344zM4 5.344c0.719 0 1.344-0.594 1.344-1.344s-0.625-1.344-1.344-1.344-1.344 0.594-1.344 1.344 0.625 1.344 1.344 1.344zM6.438 5.094l8.219 8.25v0.656h-2l-4.656-4.656-1.563 1.563c0.156 0.344 0.219 0.688 0.219 1.094 0 1.469-1.188 2.656-2.656 2.656s-2.656-1.188-2.656-2.656 1.188-2.656 2.656-2.656c0.406 0 0.75 0.063 1.094 0.219l1.563-1.563-1.563-1.563c-0.344 0.156-0.688 0.219-1.094 0.219-1.469 0-2.656-1.188-2.656-2.656s1.188-2.656 2.656-2.656 2.656 1.188 2.656 2.656c0 0.406-0.063 0.75-0.219 1.094z"></path>
</svg>
