<?xml version="1.0" encoding="utf-8"?>
<!-- Generated by IcoMoon.io -->
<!DOCTYPE svg PUBLIC "-//W3C//DTD SVG 1.1//EN" "http://www.w3.org/Graphics/SVG/1.1/DTD/svg11.dtd">
<svg version="1.1" xmlns="http://www.w3.org/2000/svg" xmlns:xlink="http://www.w3.org/1999/xlink" width="16" height="16" viewBox="0 0 16 16">
<path d="M8.8 0h-6.4c-0.442 0-0.8 0.358-0.8 0.8v9.6c0 0.442 0.358 0.8 0.8 0.8h4v1.6h1.6v-1.6h-1.599v-1.6h1.599v-1.6h-1.6v1.6h-3.2v-8h4.8v3.2h1.6v-4c0-0.442-0.358-0.8-0.8-0.8zM6.4 5.6v0.8h1.6v-1.6h-0.8c-0.442 0-0.8 0.358-0.8 0.8zM9.6 16h1.6v-1.6h-1.6v1.6zM9.6 6.4h1.6v-1.6h-1.6v1.6zM6.4 15.2c0 0.442 0.358 0.8 0.8 0.8h0.8v-1.6h-1.6v0.8zM13.6 4.8h-0.8v1.6h1.6v-0.8c0-0.442-0.358-0.8-0.8-0.8zM12.8 16h0.8c0.442 0 0.8-0.358 0.8-0.8v-0.8h-1.6v1.6zM12.8 9.6h1.6v-1.6h-1.6v1.6zM12.8 12.8h1.6v-1.6h-1.6v1.6z"></path>
</svg>
