<?xml version="1.0" encoding="utf-8"?>
<!-- Generated by IcoMoon.io -->
<!DOCTYPE svg PUBLIC "-//W3C//DTD SVG 1.1//EN" "http://www.w3.org/Graphics/SVG/1.1/DTD/svg11.dtd">
<svg version="1.1" xmlns="http://www.w3.org/2000/svg" xmlns:xlink="http://www.w3.org/1999/xlink" width="16" height="16" viewBox="0 0 16 16">
<path d="M8 13.344c2.938 0 5.344-2.406 5.344-5.344s-2.406-5.344-5.344-5.344-5.344 2.406-5.344 5.344 2.406 5.344 5.344 5.344zM8 1.344c3.688 0 6.656 2.969 6.656 6.656s-2.969 6.656-6.656 6.656-6.656-2.969-6.656-6.656 2.969-6.656 6.656-6.656zM7.906 6.094c-0.961 0-1.25 0.851-1.25 1.813v0.188c0 0.962 0.289 1.813 1.25 1.813 0.587 0 1.094-0.358 1.094-0.938h1.188c0 0.61-0.33 1.069-0.688 1.375-0.403 0.345-0.872 0.563-1.594 0.563-1.706 0-2.563-1.127-2.563-2.813v-0.188c0-0.808 0.227-1.545 0.625-2 0.412-0.471 1.073-0.844 1.938-0.844 0.692 0 1.27 0.238 1.625 0.594 0.344 0.344 0.656 0.875 0.656 1.531h-1.188c0-0.156-0.031-0.281-0.094-0.406s-0.125-0.281-0.219-0.375c-0.169-0.169-0.459-0.313-0.781-0.313z"></path>
</svg>
