<?xml version="1.0" encoding="utf-8"?>
<!-- Generated by IcoMoon.io -->
<!DOCTYPE svg PUBLIC "-//W3C//DTD SVG 1.1//EN" "http://www.w3.org/Graphics/SVG/1.1/DTD/svg11.dtd">
<svg version="1.1" xmlns="http://www.w3.org/2000/svg" xmlns:xlink="http://www.w3.org/1999/xlink" width="16" height="16" viewBox="0 0 16 16">
<path fill="#000" d="M10.067 6.099c0-0.274-0.222-0.496-0.496-0.496h-3.141c-0.274 0-0.496 0.222-0.496 0.496v3.142h0.876v3.72h2.381v-3.72h0.876v-3.142z"></path>
<path fill="#000" d="M9.074 4.115c0 0.593-0.481 1.075-1.075 1.075s-1.075-0.481-1.075-1.075c0-0.593 0.481-1.075 1.075-1.075s1.075 0.481 1.075 1.075z"></path>
<path fill="#000" d="M7.99 0.32c-2.127 0-3.928 0.742-5.402 2.227-1.512 1.536-2.268 3.354-2.268 5.453s0.756 3.904 2.268 5.414c1.512 1.51 3.313 2.265 5.402 2.265 2.115 0 3.947-0.761 5.498-2.285 1.461-1.446 2.192-3.245 2.192-5.395s-0.743-3.968-2.23-5.453c-1.487-1.485-3.307-2.227-5.46-2.227zM8.009 1.702c1.743 0 3.223 0.614 4.441 1.843 1.23 1.216 1.845 2.701 1.845 4.454 0 1.766-0.602 3.232-1.807 4.397-1.269 1.254-2.762 1.882-4.479 1.882s-3.198-0.621-4.441-1.862-1.865-2.714-1.865-4.416c0-1.702 0.628-3.187 1.884-4.454 1.205-1.229 2.678-1.843 4.422-1.843z"></path>
</svg>
