<?xml version="1.0" encoding="utf-8"?>
<!-- Generated by IcoMoon.io -->
<!DOCTYPE svg PUBLIC "-//W3C//DTD SVG 1.1//EN" "http://www.w3.org/Graphics/SVG/1.1/DTD/svg11.dtd">
<svg version="1.1" xmlns="http://www.w3.org/2000/svg" xmlns:xlink="http://www.w3.org/1999/xlink" width="16" height="16" viewBox="0 0 16 16">
<path d="M10.080 2.4c-1.573 0-2.992 0.65-4.010 1.695-0.307-0.062-0.625-0.095-0.95-0.095-2.651 0-4.8 2.149-4.8 4.8s2.149 4.8 4.8 4.8h4.96c3.093 0 5.6-2.507 5.6-5.6s-2.507-5.6-5.6-5.6zM5.12 12.582c-1.010 0-1.96-0.394-2.675-1.108-0.714-0.714-1.107-1.665-1.107-2.674s0.394-1.96 1.108-2.674c0.714-0.714 1.664-1.108 2.674-1.108s1.96 0.394 2.675 1.108l1.499 1.5c0.218 0.218 0.218 0.573 0 0.792s-0.574 0.218-0.792 0l-1.499-1.501c-1.006-1.005-2.759-1.005-3.766 0-0.503 0.504-0.78 1.172-0.78 1.883s0.277 1.379 0.78 1.883c0.628 0.627 1.546 0.862 2.393 0.707 0.259 0.339 0.551 0.652 0.88 0.924-0.438 0.173-0.906 0.268-1.39 0.268zM13.351 11.271c-0.874 0.874-2.036 1.355-3.271 1.355s-2.398-0.482-3.272-1.355l-2.167-2.167c-0.218-0.218-0.218-0.574 0-0.792s0.574-0.218 0.792 0l2.167 2.167c0.662 0.662 1.543 1.027 2.48 1.027s1.817-0.365 2.479-1.027 1.027-1.543 1.027-2.479-0.365-1.817-1.027-2.479-1.542-1.027-2.479-1.027c-0.698 0-1.366 0.204-1.934 0.582-0.305-0.247-0.642-0.455-1.001-0.623 0.828-0.686 1.847-1.079 2.936-1.079 1.235 0 2.397 0.482 3.271 1.355s1.355 2.036 1.355 3.271-0.482 2.398-1.356 3.272z"></path>
</svg>
