<?xml version="1.0" encoding="utf-8"?>
<!-- Generated by IcoMoon.io -->
<!DOCTYPE svg PUBLIC "-//W3C//DTD SVG 1.1//EN" "http://www.w3.org/Graphics/SVG/1.1/DTD/svg11.dtd">
<svg version="1.1" xmlns="http://www.w3.org/2000/svg" xmlns:xlink="http://www.w3.org/1999/xlink" width="16" height="16" viewBox="0 0 16 16">
<path d="M8.8 13.404v1.796h-1.6v-1.714c-1.37-0.080-2.453-0.471-3.393-1.438l1.374-1.392c0.687 0.696 1.618 0.928 2.626 0.928 1.252 0 1.924-0.479 1.924-1.362 0-0.386-0.106-0.711-0.336-0.928-0.214-0.201-0.458-0.31-0.962-0.386l-1.314-0.186c-0.931-0.139-1.618-0.433-2.107-0.913-0.518-0.526-0.778-1.237-0.778-2.166 0-1.724 1.106-2.994 2.966-3.28v-1.564h1.6v1.546c1.106 0.116 1.972 0.496 2.732 1.241l-1.343 1.346c-0.687-0.666-1.511-0.758-2.23-0.758-1.13 0-1.679 0.634-1.679 1.392 0 0.278 0.092 0.573 0.321 0.789 0.214 0.202 0.565 0.371 1.008 0.433l1.282 0.186c0.993 0.139 1.618 0.418 2.077 0.85 0.581 0.557 0.84 1.362 0.84 2.336 0 1.8-1.254 2.93-3.007 3.244z"></path>
</svg>
