<?xml version="1.0" encoding="utf-8"?>
<!-- Generated by IcoMoon.io -->
<!DOCTYPE svg PUBLIC "-//W3C//DTD SVG 1.1//EN" "http://www.w3.org/Graphics/SVG/1.1/DTD/svg11.dtd">
<svg version="1.1" xmlns="http://www.w3.org/2000/svg" xmlns:xlink="http://www.w3.org/1999/xlink" width="16" height="16" viewBox="0 0 16 16">
<path d="M14.667 4.667h-1.333v-0.393c0-0.734-0.597-1.607-1.333-1.607h-10.667c-0.736 0-1.333 0.873-1.333 1.607v6c0 0.736 0.597 1.060 1.333 1.060h0.667v1.607c0 0.736 0.597 1.060 1.333 1.060h11.333c0.736 0 1.333-0.324 1.333-1.060v-6.667c0-0.734-0.597-1.607-1.333-1.607zM2 10h-0.667v-2.667h0.667v2.667zM2.185 5.333h-0.852v-1.333h10.667v0.667h-8.667c-0.491 0-0.917 0.667-1.148 0.667zM3.333 12.667v-6.667h11.333l0.001 6.667h-11.335zM10.667 10.667h3.333v-2.667h-3.333v2.667zM11.333 8.667h2v1.333h-2v-1.333zM5.333 12h2.667v-0.667h-2.667v0.667zM4 8h4.667v-1.333h-4.667v1.333zM8.668 12h0.664v-0.667h-0.664v0.667zM4 12h0.664v-0.667h-0.664v0.667z"></path>
</svg>
