<?xml version="1.0" encoding="utf-8"?>
<!-- Generated by IcoMoon.io -->
<!DOCTYPE svg PUBLIC "-//W3C//DTD SVG 1.1//EN" "http://www.w3.org/Graphics/SVG/1.1/DTD/svg11.dtd">
<svg version="1.1" xmlns="http://www.w3.org/2000/svg" xmlns:xlink="http://www.w3.org/1999/xlink" width="16" height="16" viewBox="0 0 16 16">
<path d="M14.4 2.4h-12.8c-0.881 0-1.6 0.72-1.6 1.6v8c0 0.88 0.719 1.6 1.6 1.6h12.8c0.88 0 1.6-0.72 1.6-1.6v-8c0-0.88-0.72-1.6-1.6-1.6zM14.4 12h-12.8v-4.8h12.8v4.8zM14.4 4.8h-12.8v-0.8h12.8v0.8zM3.2 8.88v0.48h0.48v-0.48h-0.48zM6.080 9.839v0.481h0.96v-0.481h0.48v-0.48h0.48v-0.48h-0.96v0.48h-0.481v0.48h-0.479zM8 10.32v-0.481h-0.481v0.481h0.481zM5.6 10.32v-0.481h-0.96v0.481h0.96zM6.080 9.359h0.48v-0.48h-0.96v0.959h0.48v-0.479zM4.159 9.839h0.481v-0.48h0.48v-0.48h-0.96v0.48h-0.48v0.48h-0.48v0.481h0.959v-0.481z"></path>
</svg>
