<?xml version="1.0" encoding="utf-8"?>
<!-- Generated by IcoMoon.io -->
<!DOCTYPE svg PUBLIC "-//W3C//DTD SVG 1.1//EN" "http://www.w3.org/Graphics/SVG/1.1/DTD/svg11.dtd">
<svg version="1.1" xmlns="http://www.w3.org/2000/svg" xmlns:xlink="http://www.w3.org/1999/xlink" width="16" height="16" viewBox="0 0 16 16">
<path d="M5.344 10.656h8v1.344h-1.344v1.344h-1.344v-1.344h-5.313c-0.75 0-1.344-0.625-1.344-1.344v-5.313h-1.344v-1.344h1.344v-1.344h1.344v8zM10.656 9.344v-4h-4v-1.344h4c0.719 0 1.344 0.594 1.344 1.344v4h-1.344zM8.031 0c4.188 0 7.625 3.25 7.969 7.344h-1c-0.25-2.5-1.781-4.625-3.969-5.656l-0.906 0.875-2.531-2.531c0.156 0 0.281-0.031 0.438-0.031zM4.969 14.313l0.906-0.875 2.531 2.531c-0.156 0-0.281 0.031-0.438 0.031-4.188 0-7.625-3.25-7.969-7.344h1c0.25 2.5 1.781 4.625 3.969 5.656z"></path>
</svg>
