<?xml version="1.0" encoding="utf-8"?>
<!-- Generated by IcoMoon.io -->
<!DOCTYPE svg PUBLIC "-//W3C//DTD SVG 1.1//EN" "http://www.w3.org/Graphics/SVG/1.1/DTD/svg11.dtd">
<svg version="1.1" xmlns="http://www.w3.org/2000/svg" xmlns:xlink="http://www.w3.org/1999/xlink" width="16" height="16" viewBox="0 0 16 16">
<path d="M11.478 11.879c-0.375 0.375-0.983 0.375-1.358 0l-2.121-2.424-2.121 2.423c-0.375 0.375-0.983 0.375-1.358 0s-0.375-0.983 0-1.358l2.206-2.52-2.207-2.522c-0.375-0.375-0.375-0.982 0-1.358s0.982-0.375 1.358 0l2.122 2.425 2.121-2.425c0.375-0.375 0.982-0.375 1.358 0s0.375 0.983 0 1.358l-2.206 2.522 2.206 2.52c0.375 0.375 0.375 0.983 0 1.358z"></path>
</svg>
