<?xml version="1.0" encoding="utf-8"?>
<!-- Generated by IcoMoon.io -->
<!DOCTYPE svg PUBLIC "-//W3C//DTD SVG 1.1//EN" "http://www.w3.org/Graphics/SVG/1.1/DTD/svg11.dtd">
<svg version="1.1" xmlns="http://www.w3.org/2000/svg" xmlns:xlink="http://www.w3.org/1999/xlink" width="16" height="16" viewBox="0 0 16 16">
<path d="M4.413 11.379c-1.81-1.946-1.778-4.995 0.102-6.889 0.77-0.775 1.731-1.238 2.731-1.389l-0.055-1.662c-1.404 0.17-2.762 0.797-3.838 1.881-2.519 2.536-2.55 6.631-0.098 9.225l-1.393 1.402 4.408 0.241-0.012-4.667-1.846 1.858zM9.73 1.812l0.012 4.667 1.846-1.858c1.81 1.947 1.778 4.997-0.102 6.889-0.769 0.775-1.731 1.238-2.731 1.389l0.055 1.661c1.404-0.17 2.762-0.797 3.838-1.88 2.518-2.538 2.549-6.633 0.098-9.225l1.393-1.403-4.408-0.24z"></path>
</svg>
