<?xml version="1.0" encoding="utf-8"?>
<!-- Generated by IcoMoon.io -->
<!DOCTYPE svg PUBLIC "-//W3C//DTD SVG 1.1//EN" "http://www.w3.org/Graphics/SVG/1.1/DTD/svg11.dtd">
<svg version="1.1" xmlns="http://www.w3.org/2000/svg" xmlns:xlink="http://www.w3.org/1999/xlink" width="16" height="16" viewBox="0 0 16 16">
<path d="M13.381 10.113c-0.674 1.090-2.828 1.889-5.381 1.889s-4.706-0.798-5.382-1.889c-0.142-0.232-0.218-0.108-0.218 0.006 0 0.115 0 1.602 0 1.602 0 1.552 2.507 3.16 5.6 3.16s5.6-1.608 5.6-3.159c0 0 0-1.486 0-1.602s-0.077-0.238-0.219-0.006zM13.39 6.020c-0.664 0.964-2.826 1.672-5.39 1.672s-4.726-0.708-5.39-1.672c-0.137-0.198-0.21-0.090-0.21-0.002 0 0.090 0 1.886 0 1.886 0 1.41 2.507 2.551 5.6 2.551s5.6-1.142 5.6-2.551c0 0 0-1.795 0-1.886 0-0.089-0.074-0.197-0.21 0.002zM8 0.8c-3.093 0-5.6 0.944-5.6 2.106v1.008c0 1.233 2.507 2.233 5.6 2.233s5.6-1 5.6-2.233v-1.008c0-1.162-2.507-2.106-5.6-2.106z"></path>
</svg>
