<?xml version="1.0" encoding="utf-8"?>
<!-- Generated by IcoMoon.io -->
<!DOCTYPE svg PUBLIC "-//W3C//DTD SVG 1.1//EN" "http://www.w3.org/Graphics/SVG/1.1/DTD/svg11.dtd">
<svg version="1.1" xmlns="http://www.w3.org/2000/svg" xmlns:xlink="http://www.w3.org/1999/xlink" width="16" height="16" viewBox="0 0 16 16">
<path d="M12.656 13.344v-7.344h-9.313v7.344h9.313zM12.656 2.656c0.719 0 1.344 0.625 1.344 1.344v9.344c0 0.719-0.625 1.313-1.344 1.313h-9.313c-0.75 0-1.344-0.594-1.344-1.313v-9.344c0-0.719 0.594-1.344 1.344-1.344h0.656v-1.313h1.344v1.313h5.313v-1.313h1.344v1.313h0.656zM11.344 7.344v1.313h-1.344v-1.313h1.344zM8.656 7.344v1.313h-1.313v-1.313h1.313zM6 7.344v1.313h-1.344v-1.313h1.344z"></path>
</svg>
