<?xml version="1.0" encoding="utf-8"?>
<!-- Generated by IcoMoon.io -->
<!DOCTYPE svg PUBLIC "-//W3C//DTD SVG 1.1//EN" "http://www.w3.org/Graphics/SVG/1.1/DTD/svg11.dtd">
<svg version="1.1" xmlns="http://www.w3.org/2000/svg" xmlns:xlink="http://www.w3.org/1999/xlink" width="16" height="16" viewBox="0 0 16 16">
<path d="M11.344 12.656v-1.313h1.313v2.656c0 0.719-0.594 1.344-1.313 1.344h-6.688c-0.719 0-1.313-0.625-1.313-1.344v-2.656h1.313v1.313h6.688zM6.656 10.125l-0.938 0.938-3.063-3.063 3.063-3.063 0.938 0.938-2.094 2.125zM10.281 11.063l-0.938-0.938 2.094-2.125-2.094-2.125 0.938-0.938 3.063 3.063zM4.656 3.344v1.313h-1.313v-2.656c0-0.719 0.594-1.344 1.313-1.344l6.688 0.031c0.719 0 1.313 0.594 1.313 1.313v2.656h-1.313v-1.313h-6.688z"></path>
</svg>
