<?xml version="1.0" encoding="utf-8"?>
<!-- Generated by IcoMoon.io -->
<!DOCTYPE svg PUBLIC "-//W3C//DTD SVG 1.1//EN" "http://www.w3.org/Graphics/SVG/1.1/DTD/svg11.dtd">
<svg version="1.1" xmlns="http://www.w3.org/2000/svg" xmlns:xlink="http://www.w3.org/1999/xlink" width="16" height="16" viewBox="0 0 16 16">
<path d="M8 7.344h2.656v4h-2.656v-4zM4 4.656h3.344v3.344h-3.344v-3.344zM8 4.656h2.656v2h-2.656v-2zM4 8.656h3.344v2.688h-3.344v-2.688zM12 12.656v-9.313h-9.344v9.313h9.344zM14.656 6h-1.313v1.344h1.313v1.313h-1.313v1.344h1.313v1.344h-1.313v1.313c0 0.719-0.625 1.344-1.344 1.344h-9.344c-0.719 0-1.313-0.625-1.313-1.344v-9.313c0-0.719 0.594-1.344 1.313-1.344h9.344c0.719 0 1.344 0.625 1.344 1.344v1.313h1.313v1.344z"></path>
</svg>
