<?xml version="1.0" encoding="utf-8"?>
<!-- Generated by IcoMoon.io -->
<!DOCTYPE svg PUBLIC "-//W3C//DTD SVG 1.1//EN" "http://www.w3.org/Graphics/SVG/1.1/DTD/svg11.dtd">
<svg version="1.1" xmlns="http://www.w3.org/2000/svg" xmlns:xlink="http://www.w3.org/1999/xlink" width="16" height="16" viewBox="0 0 16 16">
<path d="M14 12v-5.344h-2.656v5.344h2.656zM14.656 5.344c0.344 0 0.688 0.313 0.688 0.656v6.656c0 0.344-0.344 0.688-0.688 0.688h-4c-0.344 0-0.656-0.344-0.656-0.688v-6.656c0-0.344 0.313-0.656 0.656-0.656h4zM7.344 11.656c0.563 0 1-0.438 1-1s-0.438-1-1-1-1 0.438-1 1 0.438 1 1 1zM8.656 8v1.188c0.406 0.375 0.688 0.875 0.688 1.469s-0.281 1.125-0.688 1.5v1.188h-2.656v-1.188c-0.406-0.375-0.656-0.906-0.656-1.5s0.25-1.094 0.656-1.469v-1.188h2.656zM2 4v8h2.656v1.344h-2.656c-0.719 0-1.344-0.625-1.344-1.344v-8c0-0.719 0.625-1.344 1.344-1.344h12v1.344h-12z"></path>
</svg>
