<?xml version="1.0" encoding="utf-8"?>
<!-- Generated by IcoMoon.io -->
<!DOCTYPE svg PUBLIC "-//W3C//DTD SVG 1.1//EN" "http://www.w3.org/Graphics/SVG/1.1/DTD/svg11.dtd">
<svg version="1.1" xmlns="http://www.w3.org/2000/svg" xmlns:xlink="http://www.w3.org/1999/xlink" width="16" height="16" viewBox="0 0 16 16">
<path d="M13.344 10.344c0.375 0 0.656 0.281 0.656 0.656v2.344c0 0.375-0.281 0.656-0.656 0.656-6.25 0-11.344-5.094-11.344-11.344 0-0.375 0.281-0.656 0.656-0.656h2.344c0.375 0 0.656 0.281 0.656 0.656 0 0.844 0.125 1.625 0.375 2.375 0.063 0.219 0.031 0.5-0.156 0.688l-1.469 1.469c0.969 1.906 2.531 3.438 4.406 4.406l1.469-1.469c0.188-0.188 0.469-0.219 0.688-0.156 0.75 0.25 1.531 0.375 2.375 0.375zM13.344 3.344v-0.688h-0.688v0.688h0.688zM12 2h2v2h-1.344v1.344h-0.656v-3.344zM10 3.344v2h-2v-0.688h1.344v-0.656h-1.344v-2h2v0.656h-1.344v0.688h1.344zM11.344 2v3.344h-0.688v-3.344h0.688z"></path>
</svg>
