<?xml version="1.0" encoding="utf-8"?>
<!-- Generated by IcoMoon.io -->
<!DOCTYPE svg PUBLIC "-//W3C//DTD SVG 1.1//EN" "http://www.w3.org/Graphics/SVG/1.1/DTD/svg11.dtd">
<svg version="1.1" xmlns="http://www.w3.org/2000/svg" xmlns:xlink="http://www.w3.org/1999/xlink" width="16" height="16" viewBox="0 0 16 16">
<path d="M11.605 1.311h-7.211l-4.395 4.355 8 9.022 8-9.022-4.395-4.355zM14.396 6.019l-0.009-0.041h-5.935l2.845-3.073 3.099 3.113zM6.932 11.591l-4.682-4.946h3.083l-0.31 0.149 1.909 4.797zM5.691 6.645h4.616l-2.307 5.769-2.309-5.769zM10.667 6.645h3.082l-4.682 4.946 1.909-4.797-0.309-0.149zM8 5.486l-2.609-2.841h5.217l-2.608 2.841zM4.702 2.931l2.845 3.047h-5.935l-0.008 0.015 3.098-3.063z"></path>
</svg>
