<?xml version="1.0" encoding="utf-8"?>
<!-- Generated by IcoMoon.io -->
<!DOCTYPE svg PUBLIC "-//W3C//DTD SVG 1.1//EN" "http://www.w3.org/Graphics/SVG/1.1/DTD/svg11.dtd">
<svg version="1.1" xmlns="http://www.w3.org/2000/svg" xmlns:xlink="http://www.w3.org/1999/xlink" width="16" height="16" viewBox="0 0 16 16">
<path d="M6.531 5.938l-1.875 9.406h1.406l1.219-5.344 1.375 1.344v4h1.344v-5l-1.406-1.344 0.406-2c0.875 1 2.188 1.656 3.656 1.656v-1.313c-1.281 0-2.313-0.688-2.844-1.625l-0.688-1.063c-0.281-0.406-0.656-0.656-1.125-0.656-0.188 0-0.344 0.063-0.531 0.063l-3.469 1.469v3.125h1.344v-2.25l1.188-0.469zM9 3.656c-0.719 0-1.344-0.594-1.344-1.313s0.625-1.344 1.344-1.344 1.344 0.625 1.344 1.344-0.625 1.313-1.344 1.313z"></path>
</svg>
