<?xml version="1.0" encoding="utf-8"?>
<!-- Generated by IcoMoon.io -->
<!DOCTYPE svg PUBLIC "-//W3C//DTD SVG 1.1//EN" "http://www.w3.org/Graphics/SVG/1.1/DTD/svg11.dtd">
<svg version="1.1" xmlns="http://www.w3.org/2000/svg" xmlns:xlink="http://www.w3.org/1999/xlink" width="16" height="16" viewBox="0 0 16 16">
<path d="M6.594 12.906l-4.656-0.906 0.25-1.344 3.281 0.656 1.063-5.406-1.219 0.469v2.281h-1.313v-3.125l3.469-1.469c0.188 0 0.344-0.063 0.531-0.063 0.469 0 0.844 0.25 1.125 0.656l0.656 1.063c0.531 0.938 1.594 1.594 2.875 1.594v1.344c-1.469 0-2.781-0.656-3.656-1.656l-0.406 2 1.406 1.313v5h-1.344v-4l-1.406-1.313zM9 3.656c-0.719 0-1.344-0.625-1.344-1.344s0.625-1.313 1.344-1.313 1.313 0.594 1.313 1.313-0.594 1.344-1.313 1.344z"></path>
</svg>
