<?xml version="1.0" encoding="utf-8"?>
<!-- Generated by IcoMoon.io -->
<!DOCTYPE svg PUBLIC "-//W3C//DTD SVG 1.1//EN" "http://www.w3.org/Graphics/SVG/1.1/DTD/svg11.dtd">
<svg version="1.1" xmlns="http://www.w3.org/2000/svg" xmlns:xlink="http://www.w3.org/1999/xlink" width="16" height="16" viewBox="0 0 16 16">
<path d="M4 4v2.656l4-1.313 4 1.313v-2.656h-8zM2.625 12.656l-1.25-4.438c-0.149-0.448 0.125-0.739 0.438-0.844l0.844-0.281v-3.094c0-0.719 0.625-1.344 1.344-1.344h2v-2h4v2h2c0.719 0 1.344 0.625 1.344 1.344v3.094l0.844 0.281c0.313 0.104 0.587 0.395 0.438 0.844l-1.25 4.438h-0.031c-1.063 0-2.031-0.563-2.688-1.313-0.656 0.75-1.594 1.313-2.656 1.313s-2-0.563-2.656-1.313c-0.656 0.75-1.625 1.313-2.688 1.313h-0.031zM13.344 14h1.313v1.344h-1.313c-0.906 0-1.844-0.219-2.688-0.656-1.688 0.875-3.625 0.875-5.313 0-0.844 0.438-1.781 0.656-2.688 0.656h-1.313v-1.344h1.313c0.938 0 1.875-0.313 2.688-0.875 1.625 1.125 3.688 1.125 5.313 0 0.813 0.563 1.75 0.875 2.688 0.875z"></path>
</svg>
