<?xml version="1.0" encoding="utf-8"?>
<!-- Generated by IcoMoon.io -->
<!DOCTYPE svg PUBLIC "-//W3C//DTD SVG 1.1//EN" "http://www.w3.org/Graphics/SVG/1.1/DTD/svg11.dtd">
<svg version="1.1" xmlns="http://www.w3.org/2000/svg" xmlns:xlink="http://www.w3.org/1999/xlink" width="16" height="16" viewBox="0 0 16 16">
<path d="M12.656 13.656c1.281 0 2.344-1.031 2.344-2.313s-1.063-2.344-2.344-2.344-2.313 1.063-2.313 2.344 1.031 2.313 2.313 2.313zM12.656 8c1.875 0 3.344 1.469 3.344 3.344s-1.469 3.313-3.344 3.313-3.313-1.438-3.313-3.313 1.438-3.344 3.313-3.344zM7.188 7l1.469 1.531v4.125h-1.313v-3.313l-2.156-1.875c-0.281-0.188-0.375-0.531-0.375-0.938 0-0.344 0.094-0.656 0.375-0.938l1.875-1.875c0.188-0.281 0.531-0.375 0.938-0.375s0.719 0.094 1.063 0.375l1.281 1.281c0.594 0.594 1.375 1 2.375 1v1.344c-1.406 0-2.5-0.531-3.375-1.406l-0.531-0.531zM3.344 13.656c1.281 0 2.313-1.031 2.313-2.313s-1.031-2.344-2.313-2.344-2.344 1.063-2.344 2.344 1.063 2.313 2.344 2.313zM3.344 8c1.875 0 3.313 1.469 3.313 3.344s-1.438 3.313-3.313 3.313-3.344-1.438-3.344-3.313 1.469-3.344 3.344-3.344zM10.344 3.656c-0.719 0-1.344-0.594-1.344-1.313s0.625-1.344 1.344-1.344 1.313 0.625 1.313 1.344-0.594 1.313-1.313 1.313z"></path>
</svg>
