<?xml version="1.0" encoding="utf-8"?>
<!-- Generated by IcoMoon.io -->
<!DOCTYPE svg PUBLIC "-//W3C//DTD SVG 1.1//EN" "http://www.w3.org/Graphics/SVG/1.1/DTD/svg11.dtd">
<svg version="1.1" xmlns="http://www.w3.org/2000/svg" xmlns:xlink="http://www.w3.org/1999/xlink" width="16" height="16" viewBox="0 0 16 16">
<path d="M12 7.344v-3.344h-8v3.344h8zM11 11.344c0.563 0 1-0.438 1-1s-0.438-1-1-1-1 0.438-1 1 0.438 1 1 1zM5 11.344c0.563 0 1-0.438 1-1s-0.438-1-1-1-1 0.438-1 1 0.438 1 1 1zM2.656 10.656v-6.656c0-2.344 2.406-2.656 5.344-2.656s5.344 0.313 5.344 2.656v6.656c0 0.594-0.281 1.125-0.688 1.5v1.188c0 0.375-0.281 0.656-0.656 0.656h-0.656c-0.375 0-0.688-0.281-0.688-0.656v-0.688h-5.313v0.688c0 0.375-0.313 0.656-0.688 0.656h-0.656c-0.375 0-0.656-0.281-0.656-0.656v-1.188c-0.406-0.375-0.688-0.906-0.688-1.5z"></path>
</svg>
