<?xml version="1.0" encoding="utf-8"?>
<!-- Generated by IcoMoon.io -->
<!DOCTYPE svg PUBLIC "-//W3C//DTD SVG 1.1//EN" "http://www.w3.org/Graphics/SVG/1.1/DTD/svg11.dtd">
<svg version="1.1" xmlns="http://www.w3.org/2000/svg" xmlns:xlink="http://www.w3.org/1999/xlink" width="16" height="16" viewBox="0 0 16 16">
<path d="M4.656 6c0.719 0 1.344-0.625 1.344-1.344s-0.625-1.313-1.344-1.313-1.313 0.594-1.313 1.313 0.594 1.344 1.313 1.344zM13.344 2c0.375 0 0.656 0.281 0.656 0.656v4c0 0.375-0.281 0.688-0.656 0.688h-10.688c-0.375 0-0.656-0.313-0.656-0.688v-4c0-0.375 0.281-0.656 0.656-0.656h10.688zM4.656 12.656c0.719 0 1.344-0.594 1.344-1.313s-0.625-1.344-1.344-1.344-1.313 0.625-1.313 1.344 0.594 1.313 1.313 1.313zM13.344 8.656c0.375 0 0.656 0.313 0.656 0.688v4c0 0.375-0.281 0.656-0.656 0.656h-10.688c-0.375 0-0.656-0.281-0.656-0.656v-4c0-0.375 0.281-0.688 0.656-0.688h10.688z"></path>
</svg>
