<?xml version="1.0" encoding="utf-8"?>
<!-- Generated by IcoMoon.io -->
<!DOCTYPE svg PUBLIC "-//W3C//DTD SVG 1.1//EN" "http://www.w3.org/Graphics/SVG/1.1/DTD/svg11.dtd">
<svg version="1.1" xmlns="http://www.w3.org/2000/svg" xmlns:xlink="http://www.w3.org/1999/xlink" width="16" height="16" viewBox="0 0 16 16">
<path d="M4.656 8.656h2.313l-1.344-1.313h-0.969v1.313zM1.5 1.5l13 13-0.875 0.844-1.844-1.875c-1.063 0.75-2.375 1.188-3.781 1.188-3.688 0-6.656-2.969-6.656-6.656 0-1.406 0.438-2.719 1.188-3.781l-1.875-1.844zM11.344 7.344h-2.313l-4.813-4.813c1.063-0.75 2.375-1.188 3.781-1.188 3.688 0 6.656 2.969 6.656 6.656 0 1.406-0.438 2.719-1.188 3.781l-3.094-3.125h0.969v-1.313z"></path>
</svg>
