<?xml version="1.0" encoding="utf-8"?>
<!-- Generated by IcoMoon.io -->
<!DOCTYPE svg PUBLIC "-//W3C//DTD SVG 1.1//EN" "http://www.w3.org/Graphics/SVG/1.1/DTD/svg11.dtd">
<svg version="1.1" xmlns="http://www.w3.org/2000/svg" xmlns:xlink="http://www.w3.org/1999/xlink" width="16" height="16" viewBox="0 0 16 16">
<path d="M15.518 5.932l-5.955-1.597-1.042-3.889c-0.087-0.325-0.436-0.514-0.778-0.423l-7.261 1.946c-0.342 0.091-0.549 0.43-0.462 0.755l2.584 9.641c0.087 0.325 0.435 0.514 0.777 0.422l2.89-0.774-0.394 1.47c-0.087 0.325 0.119 0.664 0.462 0.754l6.488 1.739c0.342 0.092 0.69-0.097 0.778-0.423l2.376-8.867c0.086-0.325-0.12-0.664-0.462-0.754zM1.306 2.905l6.264-1.677 2.318 8.654-6.264 1.677-2.318-8.654zM12.542 14.77l-5.451-1.49 0.429-1.602 3.121-0.838c0.342-0.090 0.55-0.43 0.462-0.754l-1.206-4.502 4.758 1.305-2.112 7.881z"></path>
</svg>
