<?xml version="1.0" encoding="utf-8"?>
<!-- Generated by IcoMoon.io -->
<!DOCTYPE svg PUBLIC "-//W3C//DTD SVG 1.1//EN" "http://www.w3.org/Graphics/SVG/1.1/DTD/svg11.dtd">
<svg version="1.1" xmlns="http://www.w3.org/2000/svg" xmlns:xlink="http://www.w3.org/1999/xlink" width="16" height="16" viewBox="0 0 16 16">
<path d="M12 10v1.344h-1.344v-1.344h1.344zM12 7.344v1.313h-1.344v-1.313h1.344zM13.344 12.656v-6.656h-5.344v1.344h1.344v1.313h-1.344v1.344h1.344v1.344h-1.344v1.313h5.344zM6.656 4.656v-1.313h-1.313v1.313h1.313zM6.656 7.344v-1.344h-1.313v1.344h1.313zM6.656 10v-1.344h-1.313v1.344h1.313zM6.656 12.656v-1.313h-1.313v1.313h1.313zM4 4.656v-1.313h-1.344v1.313h1.344zM4 7.344v-1.344h-1.344v1.344h1.344zM4 10v-1.344h-1.344v1.344h1.344zM4 12.656v-1.313h-1.344v1.313h1.344zM8 4.656h6.656v9.344h-13.313v-12h6.656v2.656z"></path>
</svg>
