<?xml version="1.0" encoding="utf-8"?>
<!-- Generated by IcoMoon.io -->
<!DOCTYPE svg PUBLIC "-//W3C//DTD SVG 1.1//EN" "http://www.w3.org/Graphics/SVG/1.1/DTD/svg11.dtd">
<svg version="1.1" xmlns="http://www.w3.org/2000/svg" xmlns:xlink="http://www.w3.org/1999/xlink" width="16" height="16" viewBox="0 0 16 16">
<path d="M12 5.6h-2.4v-4.8h-3.2v4.8h-2.4l4 4 4-4zM15.47 10.826c-0.168-0.179-1.289-1.378-1.609-1.691-0.212-0.207-0.515-0.334-0.834-0.334h-1.406l2.451 2.395h-2.835c-0.082 0-0.155 0.042-0.192 0.106l-0.653 1.498h-4.787l-0.653-1.498c-0.037-0.065-0.111-0.106-0.192-0.106h-2.835l2.45-2.395h-1.405c-0.318 0-0.621 0.127-0.834 0.334-0.32 0.314-1.441 1.513-1.609 1.691-0.391 0.417-0.606 0.749-0.504 1.159l0.449 2.459c0.102 0.411 0.553 0.749 1.002 0.749h13.050c0.449 0 0.899-0.338 1.002-0.749l0.449-2.459c0.101-0.41-0.114-0.742-0.506-1.159z"></path>
</svg>
