<?xml version="1.0" encoding="utf-8"?>
<!-- Generated by IcoMoon.io -->
<!DOCTYPE svg PUBLIC "-//W3C//DTD SVG 1.1//EN" "http://www.w3.org/Graphics/SVG/1.1/DTD/svg11.dtd">
<svg version="1.1" xmlns="http://www.w3.org/2000/svg" xmlns:xlink="http://www.w3.org/1999/xlink" width="16" height="16" viewBox="0 0 16 16">
<path d="M10 7.333v-7.333h-3.333v7.333h-2.635l4.242 4.243 4.242-4.243zM13.44 4.667h-2.107v1.333h2.107c0.367 0 0.56 0.011 0.56 0.377v5c0 0.552-0.343 1.289-0.893 1.289h-10.212c-0.551 0-0.893-0.737-0.893-1.289v-5c0-0.367 0.193-0.377 0.56-0.377h2.107v-1.333h-2.107c-1.103 0-1.893 0.608-1.893 1.711v7.333c0 1.103 0.791 2.289 1.893 2.289h10.879c1.103 0 1.893-1.186 1.893-2.289v-7.333c0-1.103-0.791-1.711-1.893-1.711zM14 13.711c0 0.367-0.193 0.956-0.56 0.956h-10.879c-0.367 0-0.56-0.589-0.56-0.956v-1.009c0 0.211 0.517 0.631 0.893 0.631h10.212c0.376 0 0.893-0.419 0.893-0.631v1.009z"></path>
</svg>
