<?xml version="1.0" encoding="utf-8"?>
<!-- Generated by IcoMoon.io -->
<!DOCTYPE svg PUBLIC "-//W3C//DTD SVG 1.1//EN" "http://www.w3.org/Graphics/SVG/1.1/DTD/svg11.dtd">
<svg version="1.1" xmlns="http://www.w3.org/2000/svg" xmlns:xlink="http://www.w3.org/1999/xlink" width="16" height="16" viewBox="0 0 16 16">
<path d="M7.652 5.937c-1.086-1.931-2.249-3.506-2.334-3.622-1.753 0.829-3.061 2.444-3.47 4.39 0.165 0.003 2.786 0.034 5.803-0.767zM8.434 8.049c0.082-0.026 0.165-0.051 0.247-0.075-0.158-0.358-0.33-0.716-0.51-1.069-3.237 0.97-6.342 0.899-6.452 0.896-0.002 0.067-0.006 0.133-0.006 0.2 0 1.615 0.61 3.089 1.613 4.202l-0.004-0.005c0 0 1.72-3.051 5.111-4.149zM4.137 12.955v-0.003c-0.046-0.036-0.096-0.069-0.142-0.108 0.085 0.068 0.142 0.111 0.142 0.111zM6.494 1.898c-0.006 0.002-0.012 0.003-0.012 0.003 0.005-0.002 0.011-0.002 0.011-0.002l0.001-0.002zM12.151 3.283c-1.107-0.974-2.559-1.569-4.151-1.569-0.511 0-1.006 0.062-1.482 0.177 0.096 0.128 1.276 1.695 2.35 3.667 2.37-0.887 3.265-2.25 3.282-2.275zM8 15.36c-4.064 0-7.359-3.295-7.359-7.359-0.001-4.066 3.294-7.361 7.359-7.361s7.36 3.295 7.36 7.361c0 4.064-3.294 7.359-7.36 7.359zM9.069 9.029c-3.689 1.286-4.907 3.87-4.932 3.923 1.067 0.833 2.405 1.333 3.862 1.333 0.87 0 1.7-0.177 2.454-0.497-0.093-0.551-0.458-2.477-1.343-4.774-0.013 0.005-0.026 0.010-0.041 0.014zM9.352 6.496c0.147 0.298 0.286 0.603 0.418 0.911 0.047 0.108 0.091 0.218 0.136 0.325 2.17-0.274 4.308 0.19 4.378 0.205-0.015-1.49-0.549-2.858-1.43-3.93-0.014 0.018-1.023 1.474-3.503 2.489zM10.289 8.724c0.825 2.269 1.159 4.114 1.223 4.489 1.411-0.953 2.414-2.464 2.694-4.216-0.125-0.040-1.885-0.598-3.917-0.273z"></path>
</svg>
