<?xml version="1.0" encoding="utf-8"?>
<!-- Generated by IcoMoon.io -->
<!DOCTYPE svg PUBLIC "-//W3C//DTD SVG 1.1//EN" "http://www.w3.org/Graphics/SVG/1.1/DTD/svg11.dtd">
<svg version="1.1" xmlns="http://www.w3.org/2000/svg" xmlns:xlink="http://www.w3.org/1999/xlink" width="16" height="16" viewBox="0 0 16 16">
<path d="M8.208 7.986c0.026-0.010 0.054-0.017 0.082-0.025-0.066-0.148-0.14-0.302-0.223-0.467-1.504 0.446-2.944 0.45-3.201 0.446-0.002 0.020-0.002 0.041-0.002 0.061 0 0.756 0.272 1.482 0.766 2.053 0.165-0.266 1.038-1.569 2.578-2.067zM6.098 10.49c0.551 0.422 1.21 0.646 1.902 0.646 0.414 0 0.815-0.080 1.195-0.236-0.053-0.305-0.236-1.233-0.658-2.338-1.697 0.6-2.338 1.73-2.439 1.928zM10.044 5.622c-0.569-0.489-1.294-0.758-2.044-0.758-0.227 0-0.455 0.025-0.68 0.075 0.164 0.22 0.666 0.917 1.137 1.778 1.026-0.394 1.49-0.963 1.587-1.096zM7.764 6.931c-0.486-0.858-0.993-1.564-1.132-1.753-0.854 0.414-1.482 1.205-1.69 2.126h0.014c0.325 0 1.479-0.026 2.809-0.374zM9.211 8.397c0.372 1.034 0.543 1.894 0.592 2.169 0.682-0.48 1.147-1.217 1.287-2.034-0.139-0.042-0.642-0.177-1.274-0.177-0.206 0-0.41 0.014-0.606 0.042zM8 0.32c-4.242 0-7.68 3.438-7.68 7.68s3.438 7.68 7.68 7.68 7.68-3.438 7.68-7.68-3.438-7.68-7.68-7.68zM8 11.758c-2.074 0-3.759-1.686-3.759-3.758 0-2.074 1.686-3.759 3.759-3.759s3.758 1.686 3.758 3.759c0 2.072-1.686 3.758-3.758 3.758zM8.738 7.259c0.070 0.144 0.134 0.286 0.194 0.425 0.018 0.046 0.038 0.090 0.057 0.136 0.222-0.026 0.458-0.039 0.706-0.039 0.683 0 1.25 0.1 1.441 0.138-0.018-0.68-0.258-1.341-0.682-1.872-0.128 0.165-0.654 0.77-1.715 1.213z"></path>
</svg>
