<?xml version="1.0" encoding="utf-8"?>
<!-- Generated by IcoMoon.io -->
<!DOCTYPE svg PUBLIC "-//W3C//DTD SVG 1.1//EN" "http://www.w3.org/Graphics/SVG/1.1/DTD/svg11.dtd">
<svg version="1.1" xmlns="http://www.w3.org/2000/svg" xmlns:xlink="http://www.w3.org/1999/xlink" width="16" height="16" viewBox="0 0 16 16">
<path d="M14.030 2.111c0.315-0.436 0.37-1.311 0.37-1.311h-12.8c0 0 0.054 0.875 0.37 1.311l5.23 6.689v4.8h-1.6c-1.6 0-1.6 1.6-1.6 1.6h8c0 0 0-1.6-1.6-1.6h-1.6v-4.8l5.23-6.689zM7.52 4.8c0-0.708 0.573-1.28 1.28-1.28s1.28 0.572 1.28 1.28c0 0.706-0.573 1.28-1.28 1.28s-1.28-0.574-1.28-1.28z"></path>
</svg>
