<?xml version="1.0" encoding="utf-8"?>
<!-- Generated by IcoMoon.io -->
<!DOCTYPE svg PUBLIC "-//W3C//DTD SVG 1.1//EN" "http://www.w3.org/Graphics/SVG/1.1/DTD/svg11.dtd">
<svg version="1.1" xmlns="http://www.w3.org/2000/svg" xmlns:xlink="http://www.w3.org/1999/xlink" width="16" height="16" viewBox="0 0 16 16">
<path d="M4.667 12c0 0.368 0.298 0.667 0.667 0.667s0.667-0.298 0.667-0.667c0-0.368-0.298-0.667-0.667-0.667s-0.667 0.298-0.667 0.667zM6.667 12c0 0.368 0.298 0.667 0.667 0.667s0.667-0.298 0.667-0.667c0-0.368-0.298-0.667-0.667-0.667s-0.667 0.298-0.667 0.667zM8.667 12c0 0.368 0.298 0.667 0.667 0.667s0.667-0.298 0.667-0.667c0-0.368-0.298-0.667-0.667-0.667s-0.667 0.298-0.667 0.667zM4 10.333c0 0.184 0.149 0.333 0.333 0.333s0.333-0.149 0.333-0.333c0-0.184-0.149-0.333-0.333-0.333s-0.333 0.149-0.333 0.333zM5.333 10.333c0 0.184 0.149 0.333 0.333 0.333s0.333-0.149 0.333-0.333c0-0.184-0.149-0.333-0.333-0.333s-0.333 0.149-0.333 0.333zM6.667 10.333c0 0.184 0.149 0.333 0.333 0.333s0.333-0.149 0.333-0.333c0-0.184-0.149-0.333-0.333-0.333s-0.333 0.149-0.333 0.333zM8 10.333c0 0.184 0.149 0.333 0.333 0.333s0.333-0.149 0.333-0.333c0-0.184-0.149-0.333-0.333-0.333s-0.333 0.149-0.333 0.333zM9.333 10.333c0 0.184 0.149 0.333 0.333 0.333s0.333-0.149 0.333-0.333c0-0.184-0.149-0.333-0.333-0.333s-0.333 0.149-0.333 0.333zM10 9c0 0.184 0.149 0.333 0.333 0.333s0.333-0.149 0.333-0.333c0-0.184-0.149-0.333-0.333-0.333s-0.333 0.149-0.333 0.333zM8.667 9c0 0.184 0.149 0.333 0.333 0.333s0.333-0.149 0.333-0.333c0-0.184-0.149-0.333-0.333-0.333s-0.333 0.149-0.333 0.333zM7.333 9c0 0.184 0.149 0.333 0.333 0.333s0.333-0.149 0.333-0.333c0-0.184-0.149-0.333-0.333-0.333s-0.333 0.149-0.333 0.333zM6 9c0 0.184 0.149 0.333 0.333 0.333s0.333-0.149 0.333-0.333c0-0.184-0.149-0.333-0.333-0.333s-0.333 0.149-0.333 0.333zM4.667 9c0 0.184 0.149 0.333 0.333 0.333s0.333-0.149 0.333-0.333c0-0.184-0.149-0.333-0.333-0.333s-0.333 0.149-0.333 0.333zM3.333 9c0 0.184 0.149 0.333 0.333 0.333s0.333-0.149 0.333-0.333c0-0.184-0.149-0.333-0.333-0.333s-0.333 0.149-0.333 0.333zM13.064 4.245l0.597-1.193-4.687-2.464-1.641 4.077h-5.333v10.001h1.333v1.333h6.667v-1.333h2v-10.001h-3.333l1.085-2.197 3.312 1.777zM9.333 14.667h-4.667v-0.667h4.667v0.667zM10.667 5.999v7.334h-7.333v-0.667c0.369 0 0.667-0.298 0.667-0.667s-0.298-0.667-0.667-0.667v-5.334h7.333z"></path>
</svg>
