<?xml version="1.0" encoding="utf-8"?>
<!-- Generated by IcoMoon.io -->
<!DOCTYPE svg PUBLIC "-//W3C//DTD SVG 1.1//EN" "http://www.w3.org/Graphics/SVG/1.1/DTD/svg11.dtd">
<svg version="1.1" xmlns="http://www.w3.org/2000/svg" xmlns:xlink="http://www.w3.org/1999/xlink" width="16" height="16" viewBox="0 0 16 16">
<path d="M15.247 8.718l-2.537-6.342c-0.187-0.47-0.642-0.777-1.147-0.777h-7.126c-0.506 0-0.96 0.307-1.147 0.777l-2.537 6.342c-0.23 0.577-0.298 1.206-0.197 1.818l0.472 2.831c0.099 0.596 0.614 1.033 1.218 1.033h11.506c0.604 0 1.119-0.437 1.218-1.033l0.472-2.831c0.103-0.612 0.035-1.241-0.196-1.818zM13.567 12.196c-0.058 0.349-0.359 0.604-0.713 0.604h-9.709c-0.354 0-0.655-0.255-0.713-0.604l-0.292-1.754c-0.074-0.441 0.266-0.842 0.713-0.842h10.294c0.446 0 0.786 0.401 0.713 0.842l-0.293 1.754z"></path>
</svg>
