<?xml version="1.0" encoding="utf-8"?>
<!-- Generated by IcoMoon.io -->
<!DOCTYPE svg PUBLIC "-//W3C//DTD SVG 1.1//EN" "http://www.w3.org/Graphics/SVG/1.1/DTD/svg11.dtd">
<svg version="1.1" xmlns="http://www.w3.org/2000/svg" xmlns:xlink="http://www.w3.org/1999/xlink" width="16" height="16" viewBox="0 0 16 16">
<path d="M4.887 0.722l-4.567 2.844 3.129 2.623 4.551-2.954-3.113-2.513zM10.762 12.794c-0.082 0-0.162-0.026-0.228-0.082l-2.534-2.102-2.534 2.103c-0.066 0.054-0.147 0.082-0.228 0.082-0.068 0-0.136-0.018-0.195-0.058l-1.877-1.226v0.723l4.834 3.045 4.834-3.046v-0.723l-1.877 1.226c-0.059 0.039-0.127 0.058-0.195 0.058zM15.68 3.566l-4.568-2.844-3.112 2.513 4.55 2.954 3.13-2.623zM8 9.033l2.822 2.342 4.513-2.95-2.785-2.236-4.55 2.844zM5.178 11.375l2.822-2.342-4.551-2.844-2.784 2.236 4.513 2.95z"></path>
</svg>
