<?xml version="1.0" encoding="utf-8"?>
<!-- Generated by IcoMoon.io -->
<!DOCTYPE svg PUBLIC "-//W3C//DTD SVG 1.1//EN" "http://www.w3.org/Graphics/SVG/1.1/DTD/svg11.dtd">
<svg version="1.1" xmlns="http://www.w3.org/2000/svg" xmlns:xlink="http://www.w3.org/1999/xlink" width="16" height="16" viewBox="0 0 16 16">
<path d="M8.162 0.449c-0.022-0.172-0.304-0.172-0.325 0-0.706 5.686-4.318 6.858-4.318 10.81 0 2.442 2.051 4.422 4.481 4.422s4.48-1.98 4.48-4.422c0-3.952-3.611-5.124-4.318-10.81zM7.48 6.734c-0.047 0.175-0.098 0.355-0.151 0.542-0.321 1.139-0.685 2.431-0.685 3.925 0 0.81-0.478 1.097-0.925 1.097-0.511 0-0.925-0.418-0.925-0.933 0-1.766 0.85-2.919 1.6-3.936 0.236-0.318 0.458-0.62 0.638-0.92 0.082-0.138 0.304-0.131 0.405 0.005 0.047 0.064 0.063 0.146 0.043 0.22z"></path>
</svg>
