<?xml version="1.0" encoding="utf-8"?>
<!-- Generated by IcoMoon.io -->
<!DOCTYPE svg PUBLIC "-//W3C//DTD SVG 1.1//EN" "http://www.w3.org/Graphics/SVG/1.1/DTD/svg11.dtd">
<svg version="1.1" xmlns="http://www.w3.org/2000/svg" xmlns:xlink="http://www.w3.org/1999/xlink" width="16" height="16" viewBox="0 0 16 16">
<path d="M8.667 4h-4v1.333h4v-1.333zM10.667 6h-6v0.667h6v-0.667zM10.667 7.333h-6v0.667h6v-0.667zM13.333 8.001v-7.334h-11.333v7.355l-1.333-0.689v8.667h14v-8.661l-1.333 0.662zM3.333 2h8.667v6.606l-1.333 0.715v-0.654h-6v0.667h5.977l-2.995 1.605-4.315-2.229v-6.71zM2 14.667v-5.244l9.767 5.244h-9.767zM13.333 13.966l-4.252-2.271 4.252-2.272v4.543z"></path>
</svg>
