<?xml version="1.0" encoding="utf-8"?>
<!-- Generated by IcoMoon.io -->
<!DOCTYPE svg PUBLIC "-//W3C//DTD SVG 1.1//EN" "http://www.w3.org/Graphics/SVG/1.1/DTD/svg11.dtd">
<svg version="1.1" xmlns="http://www.w3.org/2000/svg" xmlns:xlink="http://www.w3.org/1999/xlink" width="16" height="16" viewBox="0 0 16 16">
<path d="M11.686 9.738c0 0.672 0.191 0.94 0.691 0.94 1.114 0 1.824-1.42 1.824-3.782 0-3.61-2.63-5.338-5.914-5.338-3.378 0-6.451 2.266-6.451 6.547 0 4.090 2.688 6.317 6.816 6.317 1.402 0 2.342-0.154 3.782-0.634l0.309 1.286c-1.421 0.462-2.939 0.595-4.11 0.595-5.414 0-8.314-2.976-8.314-7.565 0-4.627 3.361-7.776 7.988-7.776 4.819 0 7.372 2.88 7.372 6.413 0 2.995-0.94 5.28-3.897 5.28-1.345 0-2.227-0.538-2.342-1.729-0.346 1.325-1.267 1.729-2.516 1.729-1.67 0-3.072-1.287-3.072-3.878 0-2.611 1.23-4.224 3.438-4.224 1.171 0 1.901 0.461 2.226 1.19l0.558-1.018h1.613v5.646h0.002zM9.326 7.203c0-1.055-0.788-1.498-1.441-1.498-0.71 0-1.497 0.575-1.497 2.266 0 1.344 0.595 2.093 1.497 2.093 0.634 0 1.441-0.403 1.441-1.517v-1.344z"></path>
</svg>
