<?xml version="1.0" encoding="utf-8"?>
<!-- Generated by IcoMoon.io -->
<!DOCTYPE svg PUBLIC "-//W3C//DTD SVG 1.1//EN" "http://www.w3.org/Graphics/SVG/1.1/DTD/svg11.dtd">
<svg version="1.1" xmlns="http://www.w3.org/2000/svg" xmlns:xlink="http://www.w3.org/1999/xlink" width="16" height="16" viewBox="0 0 16 16">
<path d="M8 0.32c-4.242 0-7.68 3.438-7.68 7.68s3.438 7.68 7.68 7.68c4.241 0 7.68-3.438 7.68-7.681 0-4.241-3.439-7.679-7.68-7.679zM8 14.079c-3.358 0-6.080-2.722-6.080-6.080s2.722-6.079 6.080-6.079c3.358 0 6.081 2.722 6.081 6.080s-2.723 6.079-6.081 6.079zM6.001 7.8c0.662 0 1.199-0.626 1.199-1.4s-0.538-1.4-1.2-1.4-1.2 0.626-1.2 1.4 0.538 1.4 1.201 1.4zM10 7.8c0.663 0 1.2-0.626 1.2-1.4s-0.538-1.4-1.2-1.4-1.2 0.627-1.2 1.4 0.538 1.4 1.2 1.4zM11.473 9.069c-0.29-0.149-0.652-0.034-0.806 0.256-0.027 0.053-0.695 1.274-2.666 1.274-1.961 0-2.633-1.21-2.666-1.274-0.15-0.292-0.506-0.411-0.803-0.263-0.296 0.149-0.416 0.509-0.268 0.806 0.040 0.079 0.998 1.931 3.738 1.931s3.697-1.853 3.736-1.932c0.147-0.294 0.029-0.648-0.264-0.798z"></path>
</svg>
