<?xml version="1.0" encoding="utf-8"?>
<!-- Generated by IcoMoon.io -->
<!DOCTYPE svg PUBLIC "-//W3C//DTD SVG 1.1//EN" "http://www.w3.org/Graphics/SVG/1.1/DTD/svg11.dtd">
<svg version="1.1" xmlns="http://www.w3.org/2000/svg" xmlns:xlink="http://www.w3.org/1999/xlink" width="16" height="16" viewBox="0 0 16 16">
<path d="M8.001 0.32c-4.242 0-7.681 3.438-7.681 7.68s3.438 7.681 7.681 7.681c4.241 0 7.68-3.438 7.68-7.681s-3.44-7.68-7.68-7.68zM8 14.079c-3.358 0-6.080-2.722-6.080-6.080s2.722-6.080 6.080-6.080c3.358 0 6.080 2.722 6.080 6.080s-2.722 6.080-6.080 6.080zM10.001 7.8c0.662 0 1.2-0.626 1.2-1.4s-0.538-1.4-1.2-1.4c-0.662 0-1.2 0.626-1.2 1.4s0.537 1.4 1.2 1.4zM6.001 7.8c0.662 0 1.2-0.626 1.2-1.4s-0.538-1.4-1.2-1.4c-0.662 0-1.2 0.626-1.2 1.4s0.537 1.4 1.2 1.4zM8.002 9c-2.739 0-3.698 1.852-3.738 1.931-0.149 0.297-0.028 0.657 0.268 0.806 0.086 0.042 0.178 0.063 0.268 0.063 0.22 0 0.432-0.121 0.538-0.331 0.006-0.014 0.658-1.269 2.664-1.269 1.97 0 2.638 1.222 2.662 1.268 0.147 0.296 0.508 0.418 0.805 0.269 0.297-0.147 0.417-0.509 0.269-0.805-0.039-0.079-0.997-1.932-3.736-1.932z"></path>
</svg>
