<?xml version="1.0" encoding="utf-8"?>
<!-- Generated by IcoMoon.io -->
<!DOCTYPE svg PUBLIC "-//W3C//DTD SVG 1.1//EN" "http://www.w3.org/Graphics/SVG/1.1/DTD/svg11.dtd">
<svg version="1.1" xmlns="http://www.w3.org/2000/svg" xmlns:xlink="http://www.w3.org/1999/xlink" width="16" height="16" viewBox="0 0 16 16">
<path d="M8 0.32c-4.242 0-7.68 3.438-7.68 7.68s3.438 7.68 7.68 7.68c4.241 0 7.68-3.438 7.68-7.681 0-4.241-3.439-7.679-7.68-7.679zM8 14.079c-3.358 0-6.080-2.722-6.080-6.080s2.722-6.080 6.080-6.080c3.358 0 6.080 2.722 6.080 6.080s-2.722 6.080-6.080 6.080zM10 5.001c-0.662 0-1.2 0.626-1.2 1.399s0.538 1.4 1.2 1.4c0.663 0 1.2-0.626 1.2-1.4s-0.537-1.399-1.2-1.399zM6.001 7.8c0.662 0 1.199-0.626 1.199-1.4s-0.538-1.4-1.2-1.4c-0.662 0-1.2 0.626-1.2 1.4s0.538 1.4 1.201 1.4zM10.4 9.8h-4.8c-0.331 0-0.6 0.269-0.6 0.6s0.269 0.6 0.6 0.6h4.8c0.331 0 0.6-0.269 0.6-0.6s-0.268-0.6-0.6-0.6z"></path>
</svg>
