<?xml version="1.0" encoding="utf-8"?>
<!-- Generated by IcoMoon.io -->
<!DOCTYPE svg PUBLIC "-//W3C//DTD SVG 1.1//EN" "http://www.w3.org/Graphics/SVG/1.1/DTD/svg11.dtd">
<svg version="1.1" xmlns="http://www.w3.org/2000/svg" xmlns:xlink="http://www.w3.org/1999/xlink" width="16" height="16" viewBox="0 0 16 16">
<path d="M14.4 2.4h-7.643c-0.352 0-0.857 0.189-1.122 0.42l-5.437 4.758c-0.265 0.231-0.265 0.611 0 0.842l5.437 4.758c0.265 0.231 0.77 0.422 1.122 0.422h7.643c0.88 0 1.6-0.72 1.6-1.6v-8c0-0.88-0.72-1.6-1.6-1.6zM12.153 11.2l-2.046-2.046-2.045 2.046-1.154-1.154 2.045-2.046-2.045-2.046 1.154-1.154 2.046 2.044 2.044-2.044 1.155 1.154-2.045 2.046 2.046 2.044-1.155 1.156z"></path>
</svg>
