<?xml version="1.0" encoding="utf-8"?>
<!-- Generated by IcoMoon.io -->
<!DOCTYPE svg PUBLIC "-//W3C//DTD SVG 1.1//EN" "http://www.w3.org/Graphics/SVG/1.1/DTD/svg11.dtd">
<svg version="1.1" xmlns="http://www.w3.org/2000/svg" xmlns:xlink="http://www.w3.org/1999/xlink" width="16" height="16" viewBox="0 0 16 16">
<path d="M13.598 3.344l-2.523-1.94c-0.698-0.537-1.708-0.405-2.246 0.292l-6.72 8.718c-0.537 0.697-0.406 1.706 0.292 2.242l2.522 1.94c0.698 0.537 1.708 0.405 2.246-0.292l6.721-8.718c0.537-0.697 0.406-1.706-0.292-2.242zM6.838 13.174l-0.43 0.545c-0.122 0.158-0.308 0.248-0.511 0.248-0.099 0-0.247-0.023-0.388-0.131l-2.522-1.94c-0.134-0.103-0.22-0.254-0.242-0.424s0.022-0.338 0.126-0.471l0.43-0.545c0.122-0.158 0.308-0.249 0.512-0.249 0.099 0 0.247 0.023 0.388 0.131l2.523 1.94c0.134 0.103 0.22 0.254 0.242 0.424 0.021 0.17-0.024 0.338-0.127 0.472z"></path>
</svg>
