<?xml version="1.0" encoding="utf-8"?>
<!-- Generated by IcoMoon.io -->
<!DOCTYPE svg PUBLIC "-//W3C//DTD SVG 1.1//EN" "http://www.w3.org/Graphics/SVG/1.1/DTD/svg11.dtd">
<svg version="1.1" xmlns="http://www.w3.org/2000/svg" xmlns:xlink="http://www.w3.org/1999/xlink" width="16" height="16" viewBox="0 0 16 16">
<path d="M10 12.344c1.094 0 2.063-0.406 2.813-1.063l1.188 1.188c-1.063 0.969-2.469 1.531-4 1.531-2.625 0-4.844-1.688-5.656-4h-2.344v-1.344h2.031c-0.031-0.219-0.031-0.438-0.031-0.656s0-0.438 0.031-0.656h-2.031v-1.344h2.344c0.813-2.313 3.031-4 5.656-4 1.531 0 2.938 0.563 4 1.531l-1.188 1.188c-0.75-0.656-1.75-1.063-2.813-1.063-1.656 0-3.125 0.969-3.844 2.344h3.844v1.344h-4.281c-0.031 0.219-0.063 0.438-0.063 0.656s0.031 0.438 0.063 0.656h4.281v1.344h-3.844c0.719 1.375 2.156 2.344 3.844 2.344z"></path>
</svg>
