<?xml version="1.0" encoding="utf-8"?>
<!-- Generated by IcoMoon.io -->
<!DOCTYPE svg PUBLIC "-//W3C//DTD SVG 1.1//EN" "http://www.w3.org/Graphics/SVG/1.1/DTD/svg11.dtd">
<svg version="1.1" xmlns="http://www.w3.org/2000/svg" xmlns:xlink="http://www.w3.org/1999/xlink" width="16" height="16" viewBox="0 0 16 16">
<path d="M5.344 12l2.656-4.656h-1.344v-3.344l-2.656 5h1.344v3zM12 6.656c0.375 0 0.656-0.281 0.656-0.656s-0.281-0.656-0.656-0.656-0.656 0.281-0.656 0.656 0.281 0.656 0.656 0.656zM13.188 4.813c0.313 0.313 0.469 0.719 0.469 1.188v6.344c0 0.906-0.75 1.656-1.656 1.656s-1.656-0.75-1.656-1.656v-3.344h-1v5h-6.688v-10.656c0-0.719 0.625-1.344 1.344-1.344h4c0.719 0 1.344 0.625 1.344 1.344v4.656h0.656c0.719 0 1.344 0.625 1.344 1.344v3c0 0.375 0.281 0.656 0.656 0.656s0.656-0.281 0.656-0.656v-4.813c-0.219 0.094-0.406 0.125-0.656 0.125-0.906 0-1.656-0.75-1.656-1.656 0-0.719 0.438-1.313 1.063-1.563l-1.406-1.406 0.719-0.688z"></path>
</svg>
