<?xml version="1.0" encoding="utf-8"?>
<!-- Generated by IcoMoon.io -->
<!DOCTYPE svg PUBLIC "-//W3C//DTD SVG 1.1//EN" "http://www.w3.org/Graphics/SVG/1.1/DTD/svg11.dtd">
<svg version="1.1" xmlns="http://www.w3.org/2000/svg" xmlns:xlink="http://www.w3.org/1999/xlink" width="16" height="16" viewBox="0 0 16 16">
<path fill="#000" d="M13.871 3.446c0-0.92-1.386-1.022-1.386-1.022l-3.255-0.205c0 0-0.070-0.886-0.727-1.194-0.658-0.306-1.381-0.213-1.901-0.208s-0.642 0.668-0.642 1.294c0 0.625 0.011 1.347 0.011 1.8 0 0.814-0.358 1.159-1.253 1.159h-1.846c-0.516-0.033-0.918 0.051-0.918 0.469s0.607 3.978 1.441 4.8c0.484 0.477 3.444 0.811 4.067 0.811s0.415-1.841 0.589-1.841c0.174 0 0.363 1.039 1.346 1.282 0.981 0.246 2.291 0.2 2.361 0.898 0.090 0.922 0.174 2.114-0.433 2.198l-1.373 0.054c-0.941-0.067-0.688-1.095-0.273-1.095s0.623-0.015 0.623-0.015l0.052-1.125c0 0-2.154-0.254-2.246 1.198-0.084 1.328 0.144 1.954 0.311 2.090 0.167 0.138 0.457 0.403 3.095 0.403 3.718 0 2.355-10.834 2.355-11.754zM12.352 8.256c-0.146 0.157-0.674-0.256-1.178-0.256s-1.049 0.267-1.177 0.090c-0.128-0.175 0.117-1.592 1.067-1.592s1.434 1.603 1.287 1.758z"></path>
<path fill="#000" d="M4.643 3.333c0-0.183 0.046-2.387 0.046-2.387l-2.804 2.752c0 0 1.938 0 2.318 0s0.439-0.183 0.439-0.365z"></path>
</svg>
