<?xml version="1.0" encoding="utf-8"?>
<!-- Generated by IcoMoon.io -->
<!DOCTYPE svg PUBLIC "-//W3C//DTD SVG 1.1//EN" "http://www.w3.org/Graphics/SVG/1.1/DTD/svg11.dtd">
<svg version="1.1" xmlns="http://www.w3.org/2000/svg" xmlns:xlink="http://www.w3.org/1999/xlink" width="16" height="16" viewBox="0 0 16 16">
<path d="M13.656 7.344c0.906 0 1.688 0.75 1.688 1.656s-0.781 1.656-1.688 1.656h-1v2.688c0 0.719-0.594 1.313-1.313 1.313h-2.531v-1c0-1-0.813-1.781-1.813-1.781s-1.813 0.781-1.813 1.781v1h-2.531c-0.719 0-1.313-0.594-1.313-1.313v-2.531h1c1 0 1.781-0.813 1.781-1.813s-0.781-1.813-1.781-1.813h-1v-2.531c0-0.719 0.594-1.313 1.313-1.313h2.688v-1c0-0.906 0.75-1.688 1.656-1.688s1.656 0.781 1.656 1.688v1h2.688c0.719 0 1.313 0.594 1.313 1.313v2.688h1z"></path>
</svg>
