<?xml version="1.0" encoding="utf-8"?>
<!-- Generated by IcoMoon.io -->
<!DOCTYPE svg PUBLIC "-//W3C//DTD SVG 1.1//EN" "http://www.w3.org/Graphics/SVG/1.1/DTD/svg11.dtd">
<svg version="1.1" xmlns="http://www.w3.org/2000/svg" xmlns:xlink="http://www.w3.org/1999/xlink" width="16" height="16" viewBox="0 0 16 16">
<path d="M10 2.963v-1.333c0-0.736-0.995-1.629-1.732-1.629h-0.535c-0.737 0-1.732 0.893-1.732 1.629v1.333c-0.667 0-1.333 0.6-1.333 1.333v0.667c0 0.489 0 0.915 0.667 1.147v7.223h0.667v2.667h3.999v-2.667h0.667v-7.223c0.667-0.232 0.667-0.657 0.667-1.147v-0.667c0-0.733-0.667-1.333-1.333-1.333zM8.667 14.667h-1.332v-2h1.332v2zM9.333 12h-2.665v-4h2.665v4zM9.333 7.333h-2.665v-1.333h2.665v1.333z"></path>
</svg>
