<?xml version="1.0" encoding="utf-8"?>
<!-- Generated by IcoMoon.io -->
<!DOCTYPE svg PUBLIC "-//W3C//DTD SVG 1.1//EN" "http://www.w3.org/Graphics/SVG/1.1/DTD/svg11.dtd">
<svg version="1.1" xmlns="http://www.w3.org/2000/svg" xmlns:xlink="http://www.w3.org/1999/xlink" width="16" height="16" viewBox="0 0 16 16">
<path d="M13.6 0.8h-11.2c-0.88 0-1.6 0.72-1.6 1.6v11.2c0 0.881 0.72 1.6 1.6 1.6h5.6v-5.6h-1.6v-1.98h1.6v-1.64c0-1.731 0.97-2.947 3.013-2.947l1.442 0.002v2.084h-0.958c-0.795 0-1.098 0.597-1.098 1.15v1.352h2.054l-0.454 1.979h-1.6v5.6h3.2c0.88 0 1.6-0.719 1.6-1.6v-11.2c0-0.88-0.72-1.6-1.6-1.6z"></path>
</svg>
