<?xml version="1.0" encoding="utf-8"?>
<!-- Generated by IcoMoon.io -->
<!DOCTYPE svg PUBLIC "-//W3C//DTD SVG 1.1//EN" "http://www.w3.org/Graphics/SVG/1.1/DTD/svg11.dtd">
<svg version="1.1" xmlns="http://www.w3.org/2000/svg" xmlns:xlink="http://www.w3.org/1999/xlink" width="16" height="16" viewBox="0 0 16 16">
<path d="M8 13.344c2.938 0 5.344-2.406 5.344-5.344 0-0.531-0.094-1.031-0.219-1.5-0.469 0.125-0.969 0.156-1.5 0.156-2.25 0-4.219-1.094-5.438-2.813-0.656 1.594-1.938 2.906-3.5 3.594-0.031 0.188-0.031 0.375-0.031 0.563 0 2.938 2.406 5.344 5.344 5.344zM8 1.344c3.688 0 6.656 2.969 6.656 6.656s-2.969 6.656-6.656 6.656-6.656-2.969-6.656-6.656 2.969-6.656 6.656-6.656zM10 7.844c0.469 0 0.844 0.344 0.844 0.813s-0.375 0.844-0.844 0.844-0.844-0.375-0.844-0.844 0.375-0.813 0.844-0.813zM6 7.844c0.469 0 0.844 0.344 0.844 0.813s-0.375 0.844-0.844 0.844-0.844-0.375-0.844-0.844 0.375-0.813 0.844-0.813z"></path>
</svg>
