<?xml version="1.0" encoding="utf-8"?>
<!-- Generated by IcoMoon.io -->
<!DOCTYPE svg PUBLIC "-//W3C//DTD SVG 1.1//EN" "http://www.w3.org/Graphics/SVG/1.1/DTD/svg11.dtd">
<svg version="1.1" xmlns="http://www.w3.org/2000/svg" xmlns:xlink="http://www.w3.org/1999/xlink" width="16" height="16" viewBox="0 0 16 16">
<path d="M8.063 12.375c3.188-2.875 5.281-4.781 5.281-6.719 0-1.344-1-2.313-2.344-2.313-1.031 0-2.031 0.656-2.375 1.563h-1.25c-0.344-0.906-1.344-1.563-2.375-1.563-1.344 0-2.344 0.969-2.344 2.313 0 1.938 2.094 3.844 5.281 6.719l0.063 0.063zM11 2c2.063 0 3.656 1.594 3.656 3.656 0 2.531-2.25 4.563-5.688 7.688l-0.969 0.875-0.969-0.844c-3.438-3.125-5.688-5.188-5.688-7.719 0-2.063 1.594-3.656 3.656-3.656 1.156 0 2.281 0.563 3 1.406 0.719-0.844 1.844-1.406 3-1.406z"></path>
</svg>
