<?xml version="1.0" encoding="utf-8"?>
<!-- Generated by IcoMoon.io -->
<!DOCTYPE svg PUBLIC "-//W3C//DTD SVG 1.1//EN" "http://www.w3.org/Graphics/SVG/1.1/DTD/svg11.dtd">
<svg version="1.1" xmlns="http://www.w3.org/2000/svg" xmlns:xlink="http://www.w3.org/1999/xlink" width="16" height="16" viewBox="0 0 16 16">
<path d="M3.403 15.654c0.246-0.786 0.616-1.891 1.113-3.49 2.166-0.343 3.062 0.273 4.437-2.183-1.116 0.342-2.462-0.634-2.39-1.057s3.13 0.305 5.133-2.538c-2.524 0.557-3.331-0.669-3.006-0.854 0.751-0.427 2.981-0.178 4.17-1.335 0.613-0.596 0.9-2.045 0.65-2.562-0.299-0.625-2.125-1.557-3.131-1.469s-2.585 3.832-3.054 3.803c-0.467-0.030-0.562-1.678 0.255-3.21-0.862 0.382-2.441 1.567-2.936 2.581-0.922 1.886 0.086 6.213-0.237 6.366s-1.413-1.985-1.738-2.955c-0.444 1.487-0.454 2.977 0.842 4.955-0.489 1.298-0.756 2.793-0.797 3.553-0.019 0.607 0.579 0.738 0.687 0.394z"></path>
</svg>
