<?xml version="1.0" encoding="utf-8"?>
<!-- Generated by IcoMoon.io -->
<!DOCTYPE svg PUBLIC "-//W3C//DTD SVG 1.1//EN" "http://www.w3.org/Graphics/SVG/1.1/DTD/svg11.dtd">
<svg version="1.1" xmlns="http://www.w3.org/2000/svg" xmlns:xlink="http://www.w3.org/1999/xlink" width="16" height="16" viewBox="0 0 16 16">
<path d="M14 7.656v-0.656c0-0.563-0.438-1-1-1h-2.344v4h1v-1.344h0.781l0.563 1.344h1l-0.594-1.406c0.344-0.156 0.594-0.531 0.594-0.938zM8.406 10l1.188-4h-1l-0.688 2.281-0.656-2.281h-1l1.156 4h1zM5.344 9v-2c0-0.563-0.438-1-1-1h-2.344v4h2.344c0.563 0 1-0.438 1-1zM14 2c0.75 0 1.344 0.594 1.344 1.344v9.313c0 0.719-0.594 1.344-1.344 1.344h-12c-0.75 0-1.344-0.625-1.344-1.344v-9.313c0-0.75 0.594-1.344 1.344-1.344h12zM3 7h1.344v2h-1.344v-2zM11.656 7h1.344v0.656h-1.344v-0.656z"></path>
</svg>
