<?xml version="1.0" encoding="utf-8"?>
<!-- Generated by IcoMoon.io -->
<!DOCTYPE svg PUBLIC "-//W3C//DTD SVG 1.1//EN" "http://www.w3.org/Graphics/SVG/1.1/DTD/svg11.dtd">
<svg version="1.1" xmlns="http://www.w3.org/2000/svg" xmlns:xlink="http://www.w3.org/1999/xlink" width="16" height="16" viewBox="0 0 16 16">
<path d="M13.656 9.344v-3.344h-0.813v3h-0.75v-2.344h-0.844v2.344h-0.75v-3h-0.844v3.344c0 0.375 0.313 0.656 0.688 0.656h2.656c0.375 0 0.656-0.281 0.656-0.656zM9 6.844v-0.844h-2.656v4h2.656v-0.844h-1.656v-0.719h1.656v-0.844h-1.656v-0.75h1.656zM5.656 10v-4h-0.813v2.344l-1.688-2.344h-0.813v4h0.813v-2.344l1.719 2.344h0.781zM13.344 2.656c0.75 0 1.313 0.594 1.313 1.344v8c0 0.75-0.563 1.344-1.313 1.344h-10.688c-0.75 0-1.313-0.594-1.313-1.344v-8c0-0.75 0.563-1.344 1.313-1.344h10.688z"></path>
</svg>
