<?xml version="1.0" encoding="utf-8"?>
<!-- Generated by IcoMoon.io -->
<!DOCTYPE svg PUBLIC "-//W3C//DTD SVG 1.1//EN" "http://www.w3.org/Graphics/SVG/1.1/DTD/svg11.dtd">
<svg version="1.1" xmlns="http://www.w3.org/2000/svg" xmlns:xlink="http://www.w3.org/1999/xlink" width="16" height="16" viewBox="0 0 16 16">
<path d="M13.344 10v-4h-0.844v2.344l-1.656-2.344h-0.844v4h0.844v-2.344l1.688 2.344h0.813zM8.344 10v-4h-1v4h1zM6 7.656v-0.656c0-0.563-0.438-1-1-1h-2.344v4h1v-1.344h1.344c0.563 0 1-0.438 1-1zM13.344 2.656c0.75 0 1.313 0.594 1.313 1.344v8c0 0.75-0.563 1.344-1.313 1.344h-10.688c-0.75 0-1.313-0.594-1.313-1.344v-8c0-0.75 0.563-1.344 1.313-1.344h10.688zM3.656 7h1.344v0.656h-1.344v-0.656z"></path>
</svg>
