<?xml version="1.0" encoding="utf-8"?>
<!-- Generated by IcoMoon.io -->
<!DOCTYPE svg PUBLIC "-//W3C//DTD SVG 1.1//EN" "http://www.w3.org/Graphics/SVG/1.1/DTD/svg11.dtd">
<svg version="1.1" xmlns="http://www.w3.org/2000/svg" xmlns:xlink="http://www.w3.org/1999/xlink" width="16" height="16" viewBox="0 0 16 16">
<path d="M4.667 4.667v1.333h4v-1.333h-4zM4.667 7.333h6v-0.667h-6v0.667zM10.667 8h-2v0.667h2v-0.667zM8.667 10h2v-0.667h-2v0.667zM2 1.333v6.667h1.333v-5.333h8.667v11.333h-3.333v1.333h4.667v-14h-11.333zM6.471 11.667c0-0.16-0.024-0.313-0.059-0.462l0.925-0.621-0.594-1.017-0.936 0.625c-0.173-0.152-0.371-0.268-0.589-0.343v-1.182h-1.119v1.187c-0.213 0.075-0.405 0.191-0.575 0.34l-0.933-0.627-0.593 1.017 0.925 0.62c-0.035 0.149-0.059 0.303-0.059 0.463s0.024 0.315 0.059 0.463l-0.923 0.619 0.594 1.017 0.931-0.627c0.169 0.149 0.362 0.264 0.575 0.34v1.187h1.119v-1.181c0.218-0.075 0.417-0.191 0.589-0.343l0.933 0.625 0.595-1.017-0.924-0.62c0.034-0.149 0.059-0.303 0.059-0.463zM4.668 12.867c-0.617 0-1.119-0.538-1.119-1.201s0.502-1.2 1.119-1.2c0.619 0 1.119 0.537 1.119 1.2s-0.501 1.201-1.119 1.201z"></path>
</svg>
