<?xml version="1.0" encoding="utf-8"?>
<!-- Generated by IcoMoon.io -->
<!DOCTYPE svg PUBLIC "-//W3C//DTD SVG 1.1//EN" "http://www.w3.org/Graphics/SVG/1.1/DTD/svg11.dtd">
<svg version="1.1" xmlns="http://www.w3.org/2000/svg" xmlns:xlink="http://www.w3.org/1999/xlink" width="16" height="16" viewBox="0 0 16 16">
<path d="M3.781 13.156l0.938-0.938c0.75 0.563 1.656 0.938 2.625 1.063v1.344c-1.344-0.125-2.563-0.656-3.563-1.469zM8.656 13.281c0.969-0.125 1.875-0.5 2.594-1.063l0.969 0.938c-1 0.813-2.219 1.344-3.563 1.469v-1.344zM12.219 11.281c0.563-0.75 0.938-1.625 1.063-2.594h1.344c-0.125 1.344-0.656 2.531-1.469 3.531zM10 8c0 1.094-0.906 2-2 2s-2-0.906-2-2 0.906-2 2-2 2 0.906 2 2zM2.719 8.656c0.125 0.969 0.5 1.875 1.063 2.594l-0.938 0.969c-0.813-1-1.344-2.219-1.469-3.563h1.344zM3.781 4.719c-0.563 0.75-0.938 1.656-1.063 2.625h-1.344c0.125-1.344 0.656-2.563 1.469-3.563zM13.281 7.344c-0.125-0.969-0.5-1.875-1.063-2.625l0.938-0.938c0.813 1 1.344 2.219 1.469 3.563h-1.344zM12.219 2.844l-0.938 0.938c-0.75-0.563-1.656-0.938-2.625-1.063v-1.344c1.344 0.125 2.563 0.656 3.563 1.469zM7.344 2.719c-0.969 0.125-1.875 0.5-2.625 1.063l-0.938-0.938c1-0.813 2.219-1.344 3.563-1.469v1.344z"></path>
</svg>
