<?xml version="1.0" encoding="utf-8"?>
<!-- Generated by IcoMoon.io -->
<!DOCTYPE svg PUBLIC "-//W3C//DTD SVG 1.1//EN" "http://www.w3.org/Graphics/SVG/1.1/DTD/svg11.dtd">
<svg version="1.1" xmlns="http://www.w3.org/2000/svg" xmlns:xlink="http://www.w3.org/1999/xlink" width="16" height="16" viewBox="0 0 16 16">
<path d="M8 10.656c1.469 0 2.656-1.188 2.656-2.656s-1.188-2.656-2.656-2.656-2.656 1.188-2.656 2.656 1.188 2.656 2.656 2.656zM1.531 11.719c0-1.538 0.98-3.191 2.563-3.719-0.188-0.063-0.375-0.188-0.563-0.281-1.281-0.75-2-2.063-2-3.438 1.188-0.688 2.719-0.75 4 0 0.188 0.094 0.375 0.219 0.531 0.344-0.031-0.219-0.063-0.406-0.063-0.625 0-1.469 0.813-2.781 2-3.469 1.188 0.688 2 2 2 3.469 0 0.219-0.031 0.406-0.063 0.625 0.156-0.125 0.344-0.25 0.531-0.344 1.281-0.75 2.813-0.688 4 0 0 1.375-0.719 2.688-2 3.438-0.188 0.094-0.375 0.219-0.563 0.281 0.188 0.063 0.375 0.188 0.563 0.281 1.281 0.75 2 2.063 2 3.438-1.188 0.688-2.719 0.75-4 0-0.188-0.094-0.375-0.219-0.531-0.344 0.031 0.219 0.063 0.406 0.063 0.625 0 1.469-0.813 2.781-2 3.469-1.188-0.688-2-2-2-3.469 0-0.219 0.031-0.406 0.063-0.625-0.156 0.125-0.344 0.25-0.531 0.344-1.281 0.75-2.813 0.688-4 0z"></path>
</svg>
