<?xml version="1.0" encoding="utf-8"?>
<!-- Generated by IcoMoon.io -->
<!DOCTYPE svg PUBLIC "-//W3C//DTD SVG 1.1//EN" "http://www.w3.org/Graphics/SVG/1.1/DTD/svg11.dtd">
<svg version="1.1" xmlns="http://www.w3.org/2000/svg" xmlns:xlink="http://www.w3.org/1999/xlink" width="16" height="16" viewBox="0 0 16 16">
<path d="M14 11.344v-9.344h-9.344v9.344h9.344zM14 0.656c0.719 0 1.344 0.625 1.344 1.344v9.344c0 0.719-0.625 1.313-1.344 1.313h-9.344c-0.719 0-1.313-0.594-1.313-1.313v-9.344c0-0.719 0.594-1.344 1.313-1.344h9.344zM2 3.344v10.656h10.656v1.344h-10.656c-0.719 0-1.344-0.625-1.344-1.344v-10.656h1.344zM10.625 6.875l2.375 3.125h-7.344l1.844-2.344 1.313 1.563z"></path>
</svg>
