<?xml version="1.0" encoding="utf-8"?>
<!-- Generated by IcoMoon.io -->
<!DOCTYPE svg PUBLIC "-//W3C//DTD SVG 1.1//EN" "http://www.w3.org/Graphics/SVG/1.1/DTD/svg11.dtd">
<svg version="1.1" xmlns="http://www.w3.org/2000/svg" xmlns:xlink="http://www.w3.org/1999/xlink" width="16" height="16" viewBox="0 0 16 16">
<path d="M11.094 10.094l3.219 3.25-0.969 0.969-3.25-3.219c-0.781 0.563-1.719 0.906-2.75 0.906-1.281 0-2.469-0.531-3.313-1.375l-1.375 1.375v-4h4l-1.688 1.688c0.594 0.594 1.469 0.969 2.375 0.969 1.625 0 2.938-1.125 3.25-2.656h1.344c-0.094 0.781-0.406 1.5-0.844 2.094zM7.344 4c-1.625 0-2.969 1.125-3.281 2.656h-1.344c0.313-2.25 2.281-4 4.625-4 1.281 0 2.438 0.531 3.281 1.375l1.375-1.375v4h-4l1.688-1.688c-0.594-0.594-1.438-0.969-2.344-0.969z"></path>
</svg>
