<?xml version="1.0" encoding="utf-8"?>
<!-- Generated by IcoMoon.io -->
<!DOCTYPE svg PUBLIC "-//W3C//DTD SVG 1.1//EN" "http://www.w3.org/Graphics/SVG/1.1/DTD/svg11.dtd">
<svg version="1.1" xmlns="http://www.w3.org/2000/svg" xmlns:xlink="http://www.w3.org/1999/xlink" width="16" height="16" viewBox="0 0 16 16">
<path d="M6 8.656c0-1.094 0.906-2 2-2s2 0.906 2 2-0.906 2-2 2-2-0.906-2-2zM13.344 13.063l-2.563-2.563c0.344-0.531 0.563-1.156 0.563-1.844 0-1.844-1.5-3.313-3.344-3.313s-3.344 1.469-3.344 3.313 1.5 3.344 3.344 3.344c0.688 0 1.313-0.219 1.844-0.563l2.938 2.969c-0.219 0.156-0.469 0.25-0.781 0.25h-8c-0.719 0-1.344-0.594-1.344-1.313l0.031-10.688c0-0.719 0.594-1.313 1.313-1.313h5.344l4 4v7.719z"></path>
</svg>
