<?xml version="1.0" encoding="utf-8"?>
<!-- Generated by IcoMoon.io -->
<!DOCTYPE svg PUBLIC "-//W3C//DTD SVG 1.1//EN" "http://www.w3.org/Graphics/SVG/1.1/DTD/svg11.dtd">
<svg version="1.1" xmlns="http://www.w3.org/2000/svg" xmlns:xlink="http://www.w3.org/1999/xlink" width="16" height="16" viewBox="0 0 16 16">
<path d="M12.665 1.332v0.277c-0.666-0.197-1.179-0.307-1.792-0.307-1.195 0-2.387 0.373-3.508 0.733-1.070 0.343-2.098 0.668-3.083 0.668-0.746 0-1.355-0.195-1.979-0.595l-0.97-0.66v10.251l0.242 0.197c0.844 0.543 1.713 0.807 2.723 0.807 1.195 0 2.338-0.373 3.459-0.733 1.070-0.344 2.138-0.668 3.125-0.668 0.625 0 1.119 0.146 1.785 0.426v4.306h1.333v-14.701h-1.335zM12.667 10.262c-0.667-0.198-1.181-0.294-1.793-0.294-1.195 0-2.387 0.373-3.508 0.732-1.071 0.344-2.034 0.669-3.019 0.669-0.625 0-1.013-0.137-1.68-0.417v-7.212c0.667 0.197 1.052 0.294 1.664 0.294 1.194 0 2.321-0.373 3.443-0.733 1.070-0.344 2.13-0.669 3.116-0.669 0.625 0.001 1.111 0.137 1.777 0.417v7.212z"></path>
</svg>
