<?xml version="1.0" encoding="utf-8"?>
<!-- Generated by IcoMoon.io -->
<!DOCTYPE svg PUBLIC "-//W3C//DTD SVG 1.1//EN" "http://www.w3.org/Graphics/SVG/1.1/DTD/svg11.dtd">
<svg version="1.1" xmlns="http://www.w3.org/2000/svg" xmlns:xlink="http://www.w3.org/1999/xlink" width="16" height="16" viewBox="0 0 16 16">
<path d="M7.344 15.344v-4h1.313v4h-1.313zM3.75 11.313l1.438-1.438 0.938 0.938-1.438 1.438zM9.875 10.813l0.938-0.938 1.438 1.438-0.938 0.938zM8 6c1.094 0 2 0.906 2 2s-0.906 2-2 2-2-0.906-2-2 0.906-2 2-2zM11.344 7.344h4v1.313h-4v-1.313zM12.25 4.688l-1.438 1.438-0.938-0.938 1.438-1.438zM8.656 0.656v4h-1.313v-4h1.313zM6.125 5.188l-0.938 0.938-1.438-1.438 0.938-0.938zM4.656 7.344v1.313h-4v-1.313h4z"></path>
</svg>
