<?xml version="1.0" encoding="utf-8"?>
<!-- Generated by IcoMoon.io -->
<!DOCTYPE svg PUBLIC "-//W3C//DTD SVG 1.1//EN" "http://www.w3.org/Graphics/SVG/1.1/DTD/svg11.dtd">
<svg version="1.1" xmlns="http://www.w3.org/2000/svg" xmlns:xlink="http://www.w3.org/1999/xlink" width="16" height="16" viewBox="0 0 16 16">
<path d="M13.692 2.307c-1.341-1.341-3.023-1.83-3.559-1.294l-2.157 2.157c-0.327 0.328-0.613 1.423-0.482 2.531l-6.529 6.529c-0.387 0.387-0.074 1.328 0.701 2.103s1.717 1.087 2.103 0.702l6.529-6.53c1.109 0.131 2.204-0.154 2.531-0.481l2.157-2.158c0.536-0.536 0.046-2.219-1.294-3.559zM6.513 8.831c-0.298-0.298-0.201-0.877 0.215-1.294s0.997-0.514 1.294-0.216c0.298 0.297 0.201 0.878-0.216 1.294-0.417 0.418-0.996 0.514-1.294 0.216zM11.913 4.086c-1.038-1.038-1.298-2.408-1.206-2.5s1.408 0.222 2.447 1.26c1.038 1.038 1.35 2.357 1.26 2.447s-1.463-0.168-2.501-1.207z"></path>
</svg>
