<?xml version="1.0" encoding="utf-8"?>
<!-- Generated by IcoMoon.io -->
<!DOCTYPE svg PUBLIC "-//W3C//DTD SVG 1.1//EN" "http://www.w3.org/Graphics/SVG/1.1/DTD/svg11.dtd">
<svg version="1.1" xmlns="http://www.w3.org/2000/svg" xmlns:xlink="http://www.w3.org/1999/xlink" width="16" height="16" viewBox="0 0 16 16">
<path d="M4.478 6.833c0-1.31 0.347-2.142 1.511-2.33 0.406-0.080 1.253-0.051 1.791-0.051v2c0 0.019 0.002 0.051 0.007 0.067 0.022 0.081 0.095 0.14 0.182 0.14 0.049 0 0.094-0.025 0.142-0.072l4.989-4.987h-7.063c-2.939 0-4.438 1.692-4.438 4.853v6.63l2.878-2.882v-3.368zM11.52 5.798v3.367c0 1.31-0.347 2.144-1.511 2.33-0.406 0.080-1.253 0.052-1.79 0.052v-2c0-0.018-0.003-0.050-0.007-0.067-0.022-0.080-0.096-0.139-0.182-0.141-0.050 0-0.094 0.026-0.143 0.074l-4.988 4.986 7.064 0.002c2.938 0 4.438-1.692 4.438-4.853v-6.63l-2.88 2.881z"></path>
</svg>
