<?xml version="1.0" encoding="utf-8"?>
<!-- Generated by IcoMoon.io -->
<!DOCTYPE svg PUBLIC "-//W3C//DTD SVG 1.1//EN" "http://www.w3.org/Graphics/SVG/1.1/DTD/svg11.dtd">
<svg version="1.1" xmlns="http://www.w3.org/2000/svg" xmlns:xlink="http://www.w3.org/1999/xlink" width="16" height="16" viewBox="0 0 16 16">
<path d="M1.475 11.911c0.398 0.301 1.275-0.942 1.554-0.732s-0.656 1.41-0.422 1.586c0.234 0.176 1.21-0.991 1.482-0.787s-0.642 1.419-0.35 1.641c0.294 0.222 1.25-0.962 1.482-0.786s-0.618 1.438-0.35 1.64c0.269 0.203 1.185-1.010 1.408-0.842s-0.675 1.394-0.277 1.695c0.398 0.3 4.296-7.171 4.296-7.171l-3.101-2.351c0 0-6.12 5.808-5.722 6.108zM10.418 0.665l-2.69 4.125 3.297 2.487 3.517-3.397c-0.422-1.202-2.752-3.074-4.124-3.215z"></path>
</svg>
