<?xml version="1.0" encoding="utf-8"?>
<!-- Generated by IcoMoon.io -->
<!DOCTYPE svg PUBLIC "-//W3C//DTD SVG 1.1//EN" "http://www.w3.org/Graphics/SVG/1.1/DTD/svg11.dtd">
<svg version="1.1" xmlns="http://www.w3.org/2000/svg" xmlns:xlink="http://www.w3.org/1999/xlink" width="16" height="16" viewBox="0 0 16 16">
<path d="M4.656 14v-1.344h1.344v1.344h-1.344zM7.344 14v-1.344h1.313v1.344h-1.313zM12.656 10v-6.656h-6.656v6.656h6.656zM12.656 2c0.719 0 1.344 0.625 1.344 1.344v6.656c0 0.719-0.625 1.344-1.344 1.344h-6.656c-0.75 0-1.344-0.625-1.344-1.344v-6.656c0-0.719 0.594-1.344 1.344-1.344h6.656zM10 14v-1.344h1.344v1.344h-1.344zM2 6v-1.344h1.344v1.344h-1.344zM3.344 14c-0.75 0-1.344-0.625-1.344-1.344h1.344v1.344zM2 11.344v-1.344h1.344v1.344h-1.344zM2 8.656v-1.313h1.344v1.313h-1.344z"></path>
</svg>
