<?xml version="1.0" encoding="utf-8"?>
<!-- Generated by IcoMoon.io -->
<!DOCTYPE svg PUBLIC "-//W3C//DTD SVG 1.1//EN" "http://www.w3.org/Graphics/SVG/1.1/DTD/svg11.dtd">
<svg version="1.1" xmlns="http://www.w3.org/2000/svg" xmlns:xlink="http://www.w3.org/1999/xlink" width="16" height="16" viewBox="0 0 16 16">
<path d="M13.12 3.2c0-1.061-0.859-1.92-1.92-1.92s-1.92 0.859-1.92 1.92c0 0.769 0.454 1.427 1.107 1.734-0.066 1.267-1.016 1.698-2.668 2.317-0.696 0.262-1.463 0.551-2.119 0.987v-3.297c0.66-0.304 1.12-0.967 1.12-1.741 0-1.061-0.859-1.92-1.92-1.92s-1.92 0.859-1.92 1.92c0 0.774 0.461 1.437 1.12 1.741v6.119c-0.66 0.303-1.12 0.966-1.12 1.74 0 1.061 0.859 1.92 1.92 1.92s1.92-0.86 1.92-1.92c0-0.769-0.454-1.427-1.107-1.734 0.066-1.266 1.017-1.698 2.668-2.317 1.624-0.61 3.633-1.369 3.712-3.805 0.663-0.302 1.127-0.968 1.127-1.745zM4.8 2.092c0.611 0 1.107 0.495 1.107 1.108 0 0.611-0.496 1.108-1.107 1.108s-1.107-0.497-1.107-1.108c0-0.613 0.495-1.108 1.107-1.108zM4.8 13.908c-0.613 0-1.108-0.497-1.108-1.108 0-0.613 0.495-1.108 1.108-1.108 0.611 0 1.107 0.495 1.107 1.108 0 0.611-0.496 1.108-1.107 1.108zM11.2 4.308c-0.613 0-1.108-0.497-1.108-1.108 0-0.613 0.495-1.108 1.108-1.108 0.611 0 1.107 0.495 1.107 1.108 0 0.611-0.496 1.108-1.107 1.108z"></path>
</svg>
