<?xml version="1.0" encoding="utf-8"?>
<!-- Generated by IcoMoon.io -->
<!DOCTYPE svg PUBLIC "-//W3C//DTD SVG 1.1//EN" "http://www.w3.org/Graphics/SVG/1.1/DTD/svg11.dtd">
<svg version="1.1" xmlns="http://www.w3.org/2000/svg" xmlns:xlink="http://www.w3.org/1999/xlink" width="16" height="16" viewBox="0 0 16 16">
<path d="M8.8 11.059v-6.118c0.66-0.304 1.12-0.966 1.12-1.741 0-1.061-0.859-1.92-1.92-1.92s-1.92 0.859-1.92 1.92c0 0.774 0.461 1.437 1.12 1.741v6.119c-0.66 0.303-1.12 0.966-1.12 1.74 0 1.061 0.859 1.92 1.92 1.92s1.92-0.86 1.92-1.92c0-0.774-0.46-1.437-1.12-1.741zM8 2.092c0.611 0 1.107 0.495 1.107 1.108 0 0.611-0.496 1.108-1.107 1.108s-1.107-0.497-1.107-1.108c0-0.613 0.495-1.108 1.107-1.108zM8 13.908c-0.613 0-1.108-0.497-1.108-1.108 0-0.613 0.495-1.108 1.108-1.108 0.611 0 1.107 0.495 1.107 1.108 0 0.611-0.496 1.108-1.107 1.108z"></path>
</svg>
