<?xml version="1.0" encoding="utf-8"?>
<!-- Generated by IcoMoon.io -->
<!DOCTYPE svg PUBLIC "-//W3C//DTD SVG 1.1//EN" "http://www.w3.org/Graphics/SVG/1.1/DTD/svg11.dtd">
<svg version="1.1" xmlns="http://www.w3.org/2000/svg" xmlns:xlink="http://www.w3.org/1999/xlink" width="16" height="16" viewBox="0 0 16 16">
<path d="M11.2 11.68c-0.774 0-1.437 0.461-1.741 1.12h-2.659c-0.662 0-1.2-0.538-1.2-1.2v-3.080c0.365 0.174 0.769 0.28 1.2 0.28h2.659c0.304 0.659 0.966 1.12 1.741 1.12 1.061 0 1.92-0.86 1.92-1.92s-0.859-1.92-1.92-1.92c-0.774 0-1.437 0.461-1.741 1.12h-2.659c-0.662 0-1.2-0.538-1.2-1.2v-1.859c0.66-0.304 1.12-0.967 1.12-1.741 0-1.061-0.859-1.92-1.92-1.92s-1.92 0.859-1.92 1.92c0 0.774 0.461 1.437 1.12 1.741v7.459c0 1.546 1.254 2.8 2.8 2.8h2.659c0.304 0.659 0.966 1.12 1.741 1.12 1.061 0 1.92-0.86 1.92-1.92s-0.859-1.92-1.92-1.92zM11.2 6.892c0.611 0 1.107 0.495 1.107 1.108 0 0.611-0.496 1.108-1.107 1.108-0.613 0-1.108-0.497-1.108-1.108 0.001-0.613 0.496-1.108 1.108-1.108zM4.8 1.292c0.611 0 1.107 0.495 1.107 1.108 0 0.611-0.496 1.108-1.107 1.108s-1.107-0.497-1.107-1.108c0-0.613 0.495-1.108 1.107-1.108zM11.2 14.708c-0.613 0-1.108-0.497-1.108-1.108 0-0.613 0.495-1.108 1.108-1.108 0.611 0 1.107 0.495 1.107 1.108 0 0.611-0.496 1.108-1.107 1.108z"></path>
</svg>
