<?xml version="1.0" encoding="utf-8"?>
<!-- Generated by IcoMoon.io -->
<!DOCTYPE svg PUBLIC "-//W3C//DTD SVG 1.1//EN" "http://www.w3.org/Graphics/SVG/1.1/DTD/svg11.dtd">
<svg version="1.1" xmlns="http://www.w3.org/2000/svg" xmlns:xlink="http://www.w3.org/1999/xlink" width="16" height="16" viewBox="0 0 16 16">
<path d="M14.724 2.239c-0.090-0.352-0.525-0.639-0.968-0.639h-11.512c-0.444 0-0.879 0.287-0.968 0.639l-0.161 0.961h13.769l-0.16-0.961zM15.53 4h-15.060c-0.274 0-0.487 0.235-0.462 0.508l0.738 9.335c0.030 0.315 0.296 0.557 0.613 0.557h13.281c0.318 0 0.582-0.242 0.613-0.557l0.738-9.335c0.026-0.273-0.188-0.508-0.462-0.508zM9.95 6.7c0.414 0 0.75 0.336 0.75 0.75s-0.336 0.75-0.75 0.75-0.75-0.337-0.75-0.751c0-0.414 0.336-0.75 0.75-0.75zM4.4 11.2l1.989-4.571 2.262 3.661 1.939-0.963 1.010 1.874h-7.2z"></path>
</svg>
