<?xml version="1.0" encoding="utf-8"?>
<!-- Generated by IcoMoon.io -->
<!DOCTYPE svg PUBLIC "-//W3C//DTD SVG 1.1//EN" "http://www.w3.org/Graphics/SVG/1.1/DTD/svg11.dtd">
<svg version="1.1" xmlns="http://www.w3.org/2000/svg" xmlns:xlink="http://www.w3.org/1999/xlink" width="16" height="16" viewBox="0 0 16 16">
<path d="M14.724 3.839c-0.089-0.352-0.524-0.639-0.968-0.639h-5.451c-0.443 0-1.064-0.254-1.378-0.566l-0.477-0.47c-0.314-0.311-0.934-0.564-1.377-0.564h-2.604c-0.444 0-0.847 0.358-0.896 0.795l-0.234 2.405h13.545l-0.161-0.961zM15.53 5.6h-15.059c-0.274 0-0.488 0.235-0.462 0.508l0.738 7.735c0.030 0.315 0.295 0.557 0.613 0.557h13.28c0.318 0 0.582-0.242 0.613-0.557l0.738-7.735c0.026-0.273-0.188-0.508-0.462-0.508z"></path>
</svg>
