<?xml version="1.0" encoding="utf-8"?>
<!-- Generated by IcoMoon.io -->
<!DOCTYPE svg PUBLIC "-//W3C//DTD SVG 1.1//EN" "http://www.w3.org/Graphics/SVG/1.1/DTD/svg11.dtd">
<svg version="1.1" xmlns="http://www.w3.org/2000/svg" xmlns:xlink="http://www.w3.org/1999/xlink" width="16" height="16" viewBox="0 0 16 16">
<path d="M9.333 2.667v-0.667c0-0.736-0.597-1.333-1.333-1.333h-2.667c-0.736 0-1.333 0.597-1.333 1.333v0.667h-2.667v2h-0.667v4.667h1.333v-3.333h12v8h-7.333v1.333h8.667v-12.667h-6zM14 4.667h-11.333v-0.667h2.667v-2h2.667v2h6v0.667zM4.965 13.014c0.027-0.112 0.034-0.228 0.034-0.347s-0.016-0.235-0.042-0.347l1.029-0.615-0.592-0.904-0.97 0.618c-0.142-0.108-0.413-0.194-0.413-0.253v-1.165h-1.356v1.165c0 0.059-0.271 0.145-0.413 0.253l-0.97-0.618-0.592 0.904 1.029 0.615c-0.025 0.112-0.042 0.227-0.042 0.347s0.007 0.235 0.034 0.347l-1.036 0.615 0.575 0.905 1.001-0.619c0.143 0.108 0.413 0.194 0.413 0.254v1.164h1.355v-1.164c0-0.060 0.271-0.146 0.413-0.254l1.001 0.619 0.575-0.905-1.035-0.615zM3.333 13.733c-0.612-0.004-1.108-0.479-1.108-1.066s0.496-1.062 1.108-1.066c0.612 0.004 1.108 0.479 1.108 1.066s-0.496 1.062-1.108 1.066z"></path>
</svg>
