<?xml version="1.0" encoding="utf-8"?>
<!-- Generated by IcoMoon.io -->
<!DOCTYPE svg PUBLIC "-//W3C//DTD SVG 1.1//EN" "http://www.w3.org/Graphics/SVG/1.1/DTD/svg11.dtd">
<svg version="1.1" xmlns="http://www.w3.org/2000/svg" xmlns:xlink="http://www.w3.org/1999/xlink" width="16" height="16" viewBox="0 0 16 16">
<path d="M14.724 2.239c-0.090-0.352-0.525-0.639-0.968-0.639h-11.512c-0.444 0-0.879 0.287-0.968 0.639l-0.161 0.961h13.769l-0.16-0.961zM15.53 4h-15.060c-0.274 0-0.487 0.235-0.462 0.508l0.738 9.335c0.030 0.315 0.296 0.557 0.613 0.557h13.281c0.318 0 0.582-0.242 0.613-0.557l0.738-9.335c0.026-0.273-0.188-0.508-0.462-0.508zM9.554 10.017c-0.102 0.212-0.206 0.223-0.162 0 0.117-0.577 0.038-1.815-0.834-1.953v2.635c0 0.539-0.249 1.010-0.909 1.222-0.642 0.205-1.359-0.009-1.526-0.469s0.209-1.021 0.842-1.251c0.354-0.129 0.763-0.162 1.039-0.056v-3.746h0.555c-0.001 1.306 2.254 1.020 0.995 3.617z"></path>
</svg>
