<?xml version="1.0" encoding="utf-8"?>
<!-- Generated by IcoMoon.io -->
<!DOCTYPE svg PUBLIC "-//W3C//DTD SVG 1.1//EN" "http://www.w3.org/Graphics/SVG/1.1/DTD/svg11.dtd">
<svg version="1.1" xmlns="http://www.w3.org/2000/svg" xmlns:xlink="http://www.w3.org/1999/xlink" width="16" height="16" viewBox="0 0 16 16">
<path d="M7.667 2c-3.492 0-6.333 2.841-6.333 6.333s2.841 6.333 6.333 6.333 6.333-2.841 6.333-6.333-2.841-6.333-6.333-6.333zM2.667 8.333c0-2.757 2.243-5 5-5 1.017 0 1.964 0.307 2.755 0.831l-6.923 6.923c-0.524-0.791-0.831-1.737-0.831-2.755zM7.667 13.333c-1.017 0-1.964-0.307-2.755-0.831l6.923-6.923c0.524 0.791 0.831 1.737 0.831 2.755 0 2.757-2.243 5-5 5z"></path>
</svg>
