<?xml version="1.0" encoding="utf-8"?>
<!-- Generated by IcoMoon.io -->
<!DOCTYPE svg PUBLIC "-//W3C//DTD SVG 1.1//EN" "http://www.w3.org/Graphics/SVG/1.1/DTD/svg11.dtd">
<svg version="1.1" xmlns="http://www.w3.org/2000/svg" xmlns:xlink="http://www.w3.org/1999/xlink" width="16" height="16" viewBox="0 0 16 16">
<path d="M0 13.344h16v2.656h-16v-2.656zM12.656 7.656c0 0 1.344 1.469 1.344 2.344 0 0.719-0.625 1.344-1.344 1.344s-1.313-0.625-1.313-1.344c0-0.875 1.313-2.344 1.313-2.344zM3.469 6.656h6.406l-3.219-3.188zM11.031 5.969c0.406 0.406 0.406 1.031 0 1.406l-3.656 3.656c-0.188 0.188-0.469 0.313-0.719 0.313s-0.5-0.125-0.688-0.313l-3.688-3.656c-0.406-0.375-0.406-1 0-1.406l3.438-3.438-1.594-1.594 0.969-0.938z"></path>
</svg>
