<?xml version="1.0" encoding="utf-8"?>
<!-- Generated by IcoMoon.io -->
<!DOCTYPE svg PUBLIC "-//W3C//DTD SVG 1.1//EN" "http://www.w3.org/Graphics/SVG/1.1/DTD/svg11.dtd">
<svg version="1.1" xmlns="http://www.w3.org/2000/svg" xmlns:xlink="http://www.w3.org/1999/xlink" width="16" height="16" viewBox="0 0 16 16">
<path d="M7.125 8.5h1.75l-0.875-2.563zM9.156 9.344h-2.344l-0.469 1.313h-1.094l2.281-6h0.938l2.25 6h-1.063zM12.656 3.344h1.344v-1.344h-1.344v1.344zM14 14v-1.344h-1.344v1.344h1.344zM11.344 12.656v-1.313h1.313v-6.688h-1.313v-1.313h-6.688v1.313h-1.313v6.688h1.313v1.313h6.688zM3.344 14v-1.344h-1.344v1.344h1.344zM2 2v1.344h1.344v-1.344h-1.344zM15.344 4.656h-1.344v6.688h1.344v4h-4v-1.344h-6.688v1.344h-4v-4h1.344v-6.688h-1.344v-4h4v1.344h6.688v-1.344h4v4z"></path>
</svg>
