<?xml version="1.0" encoding="utf-8"?>
<!-- Generated by IcoMoon.io -->
<!DOCTYPE svg PUBLIC "-//W3C//DTD SVG 1.1//EN" "http://www.w3.org/Graphics/SVG/1.1/DTD/svg11.dtd">
<svg version="1.1" xmlns="http://www.w3.org/2000/svg" xmlns:xlink="http://www.w3.org/1999/xlink" width="16" height="16" viewBox="0 0 16 16">
<path d="M9 10.344c0.563 0 1-0.438 1-1s-0.438-1-1-1h-2.344v2h2.344zM6.656 4.344v2h2c0.563 0 1-0.438 1-1s-0.438-1-1-1h-2zM10.406 7.188c0.875 0.406 1.438 1.281 1.438 2.281 0 1.406-1.063 2.531-2.469 2.531h-4.719v-9.344h4.188c1.5 0 2.656 1.188 2.656 2.688 0 0.688-0.438 1.406-1.094 1.844z"></path>
</svg>
