<?xml version="1.0" encoding="utf-8"?>
<!-- Generated by IcoMoon.io -->
<!DOCTYPE svg PUBLIC "-//W3C//DTD SVG 1.1//EN" "http://www.w3.org/Graphics/SVG/1.1/DTD/svg11.dtd">
<svg version="1.1" xmlns="http://www.w3.org/2000/svg" xmlns:xlink="http://www.w3.org/1999/xlink" width="16" height="16" viewBox="0 0 16 16">
<path d="M2.656 8.656c0-2.938 2.406-5.313 5.344-5.313v-2.688l3.344 3.344-3.344 3.344v-2.688c-2.188 0-4 1.813-4 4s1.813 4 4 4 4-1.813 4-4h1.344c0 2.938-2.406 5.344-5.344 5.344s-5.344-2.406-5.344-5.344zM8.875 10.125c0 0.102 0.198 0.219 0.313 0.219 0.063 0 0.156 0 0.219-0.063l0.125-0.156s0.063-0.125 0.063-0.188v-1.344c0 0-0.063-0.125-0.063-0.188 0-0.086-0.257-0.219-0.344-0.219-0.063 0-0.125 0.031-0.188 0.094l-0.125 0.125s-0.063 0.125-0.063 0.188v1.344s0.063 0.125 0.063 0.188zM10.188 9.469c0 0.188 0 0.406-0.063 0.531l-0.188 0.406s-0.219 0.188-0.344 0.188-0.281 0.063-0.406 0.063c-0.316 0-0.505-0.143-0.719-0.25-0.125-0.063-0.125-0.219-0.188-0.406s-0.094-0.344-0.094-0.531v-0.469c0-0.188 0.031-0.406 0.094-0.531l0.188-0.406s0.219-0.188 0.344-0.188 0.25-0.063 0.375-0.063 0.281 0 0.406 0.063 0.219 0.125 0.344 0.188 0.125 0.219 0.188 0.406 0.063 0.344 0.063 0.531v0.469zM6.656 9c0.254 0 0.469-0.155 0.469-0.406v-0.125s-0.063-0.063-0.063-0.125-0.063-0.063-0.125-0.063h-0.344s-0.063 0.063-0.125 0.063-0.063 0.063-0.063 0.125v0.125h-0.688c0-0.309 0.276-0.719 0.563-0.719 0.063 0 0.25-0.063 0.313-0.063 0.271 0 0.551 0.088 0.75 0.188 0.158 0.079 0.25 0.378 0.25 0.594v0.219s-0.063 0.125-0.063 0.188-0.063 0.125-0.125 0.125-0.156 0.094-0.219 0.156c0.125 0.063 0.281 0.125 0.344 0.25s0.125 0.281 0.125 0.406 0 0.281-0.063 0.344-0.125 0.188-0.188 0.25-0.219 0.125-0.344 0.125-0.281 0.063-0.406 0.063-0.25 0-0.313-0.063-0.219-0.063-0.344-0.125c-0.174-0.087-0.281-0.422-0.281-0.656h0.563v0.125s0.063 0.063 0.063 0.125 0.063 0.063 0.125 0.063h0.344s0.063-0.063 0.125-0.063 0.063-0.063 0.063-0.125v-0.344s-0.063-0.063-0.063-0.125-0.063-0.063-0.125-0.063h-0.406v-0.469h0.25z"></path>
</svg>
