<?xml version="1.0" encoding="utf-8"?>
<!-- Generated by IcoMoon.io -->
<!DOCTYPE svg PUBLIC "-//W3C//DTD SVG 1.1//EN" "http://www.w3.org/Graphics/SVG/1.1/DTD/svg11.dtd">
<svg version="1.1" xmlns="http://www.w3.org/2000/svg" xmlns:xlink="http://www.w3.org/1999/xlink" width="16" height="16" viewBox="0 0 16 16">
<path d="M3.936 0.8c-0.406 0-0.736 0.33-0.736 0.736v13.213c0 0.5 0.612 0.741 0.954 0.376l3.577-3.832c0.054-0.059 0.13-0.093 0.211-0.093h2.59c0.389 0 0.724-0.274 0.801-0.656l1.689-8.411c0.138-0.69-0.389-1.333-1.092-1.333h-7.993zM7.070 9.752l-2.27 2.67v-9.747c0-0.151 0.123-0.274 0.274-0.274h5.712c0.274 0 0.478 0.25 0.424 0.518l-0.33 1.644c-0.027 0.138-0.149 0.238-0.29 0.238h-2.968c-0.234 0-0.422 0.189-0.422 0.422v0.976c0 0.111 0.090 0.202 0.202 0.202h2.635c0.245 0 0.429 0.224 0.381 0.465l-0.491 2.446c-0.034 0.168-0.182 0.289-0.354 0.289h-2.174c-0.127 0-0.247 0.055-0.33 0.152z"></path>
</svg>
