<?xml version="1.0" encoding="utf-8"?>
<!-- Generated by IcoMoon.io -->
<!DOCTYPE svg PUBLIC "-//W3C//DTD SVG 1.1//EN" "http://www.w3.org/Graphics/SVG/1.1/DTD/svg11.dtd">
<svg version="1.1" xmlns="http://www.w3.org/2000/svg" xmlns:xlink="http://www.w3.org/1999/xlink" width="16" height="16" viewBox="0 0 16 16">
<path d="M14 13.344v-8.688c0-0.375-0.281-0.656-0.656-0.656h-5.875l0.781 2.688h1.281v-0.688h0.719v0.688h2.406v0.688h-0.844c-0.219 0.844-0.688 1.656-1.281 2.344l1.813 1.781-0.469 0.5-1.813-1.781-0.594 0.594 0.531 1.844-1.344 1.344h4.688c0.375 0 0.656-0.281 0.656-0.656zM9.313 8.094c0.156 0.313 0.406 0.719 0.75 1.125 0.813-0.969 1.031-1.844 1.031-1.844h-2.656l0.219 0.719h0.656zM8.813 8.594l0.406 1.469 0.375-0.344c-0.313-0.344-0.563-0.719-0.781-1.125zM7.406 7.063c0-0.154-0.004-0.353-0.063-0.469h-2.625v1.031h1.469c-0.094 0.406-0.5 1-1.406 1-0.875 0-1.594-0.75-1.594-1.625s0.719-1.625 1.594-1.625c0.5 0 0.813 0.219 1 0.406l0.063 0.031 0.813-0.781-0.063-0.031c-0.5-0.469-1.125-0.719-1.813-0.719-1.5 0-2.719 1.219-2.719 2.719s1.219 2.719 2.719 2.719c1.531 0 2.625-1.094 2.625-2.656zM13.344 3.344c0.719 0 1.313 0.594 1.313 1.313v8.688c0 0.719-0.594 1.313-1.313 1.313h-5.344l-0.656-2h-4.688c-0.719 0-1.313-0.594-1.313-1.313v-8.688c0-0.719 0.594-1.313 1.313-1.313h4l0.594 2h6.094z"></path>
</svg>
