<?xml version="1.0" encoding="utf-8"?>
<!-- Generated by IcoMoon.io -->
<!DOCTYPE svg PUBLIC "-//W3C//DTD SVG 1.1//EN" "http://www.w3.org/Graphics/SVG/1.1/DTD/svg11.dtd">
<svg version="1.1" xmlns="http://www.w3.org/2000/svg" xmlns:xlink="http://www.w3.org/1999/xlink" width="16" height="16" viewBox="0 0 16 16">
<path d="M15.555 7.489c-0.706-3.941-2.283-5.103-3.122-5.103-1.31 0-1.646 0.974-4.433 1.006-2.787-0.033-3.123-1.006-4.433-1.006-0.839 0-2.418 1.162-3.123 5.103-0.402 2.25-0.839 5.608 0.202 6.011 1.295 0.502 1.734-0.753 3.157-1.813 1.444-1.074 2.137-1.327 4.198-1.327s2.754 0.253 4.198 1.327c1.422 1.059 1.862 2.314 3.157 1.813 1.041-0.403 0.604-3.761 0.201-6.011zM4.8 8c-0.884 0-1.6-0.717-1.6-1.6s0.716-1.6 1.6-1.6 1.6 0.716 1.6 1.6c0 0.883-0.717 1.6-1.6 1.6zM10.4 8c-0.442 0-0.8-0.358-0.8-0.8s0.358-0.8 0.8-0.8c0.442 0 0.8 0.358 0.8 0.8s-0.358 0.8-0.8 0.8zM12 6.4c-0.442 0-0.8-0.358-0.8-0.8s0.358-0.8 0.8-0.8c0.442 0 0.8 0.358 0.8 0.8s-0.358 0.8-0.8 0.8z"></path>
</svg>
