<?xml version="1.0" encoding="utf-8"?>
<!-- Generated by IcoMoon.io -->
<!DOCTYPE svg PUBLIC "-//W3C//DTD SVG 1.1//EN" "http://www.w3.org/Graphics/SVG/1.1/DTD/svg11.dtd">
<svg version="1.1" xmlns="http://www.w3.org/2000/svg" xmlns:xlink="http://www.w3.org/1999/xlink" width="16" height="16" viewBox="0 0 16 16">
<path d="M6.502 10.88c-0.551 0.958-0.18 1.744 0.586 2.186s1.633 0.372 2.186-0.586c0.551-0.956 4.038-9.492 3.734-9.667s-5.954 7.11-6.506 8.067zM8 4.8c0.35 0 0.691 0.030 1.025 0.087 0.35-0.439 0.742-0.923 1.124-1.382-0.682-0.197-1.402-0.305-2.149-0.305-4.486 0-8 3.783-8 8.613 0 0.297 0.013 0.594 0.039 0.882 0.039 0.441 0.432 0.764 0.867 0.726 0.441-0.041 0.766-0.428 0.726-0.869-0.022-0.242-0.033-0.492-0.033-0.74 0-3.933 2.811-7.013 6.4-7.013zM13.775 5.8c-0.223 0.6-0.459 1.211-0.667 1.739 0.812 1.176 1.292 2.651 1.292 4.274 0 0.253-0.012 0.508-0.034 0.754-0.040 0.441 0.284 0.83 0.724 0.87 0.024 0.002 0.049 0.003 0.074 0.003 0.409 0 0.758-0.313 0.796-0.728 0.026-0.296 0.041-0.598 0.041-0.9 0-2.363-0.842-4.472-2.225-6.013z"></path>
</svg>
