<?xml version="1.0" encoding="utf-8"?>
<!-- Generated by IcoMoon.io -->
<!DOCTYPE svg PUBLIC "-//W3C//DTD SVG 1.1//EN" "http://www.w3.org/Graphics/SVG/1.1/DTD/svg11.dtd">
<svg version="1.1" xmlns="http://www.w3.org/2000/svg" xmlns:xlink="http://www.w3.org/1999/xlink" width="16" height="16" viewBox="0 0 16 16">
<path d="M9.25 12.375c0.469 0 1.25-0.563 1.438-2.344-1.438 0.375-1.938 1.438-1.938 1.844 0 0.313 0.281 0.5 0.5 0.5zM3.063 4.594l-1.156-1.125c0.156-0.188 0.313-0.375 0.563-0.625 0.156-0.156 0.938-0.844 1.813-0.844 0.594 0 1.688 0.469 1.688 1.906 0 0.906-0.344 1.438-0.875 2.188-0.313 0.438-1 1.625-1.219 2.344-0.25 0.719-0.094 1.281 0.219 1.281 0.281 0 0.594-0.375 0.75-0.563 0.156-0.156 1.156-1.313 1.531-1.813 0.5-0.625 1.781-1.875 3.281-1.875 1.969 0 2.594 1.688 2.688 2.781h1.656v1.656h-1.625c-0.281 3.188-2.063 4.094-3.156 4.094-1.188 0-2.125-0.938-2.125-2.063s1.063-3.156 3.594-3.594c-0.063-0.531-0.094-1.188-1.188-1.188-0.844 0-1.906 1.281-2.719 2.281-0.75 0.906-1.313 1.625-2.031 1.844-1.556 0.491-2.656-0.883-2.656-2.281 0-1.625 1.75-3.938 1.906-4.219 0.188-0.313 0.531-0.875 0.188-1-0.219-0.094-0.656 0.344-1.125 0.813z"></path>
</svg>
