<?xml version="1.0" encoding="utf-8"?>
<!-- Generated by IcoMoon.io -->
<!DOCTYPE svg PUBLIC "-//W3C//DTD SVG 1.1//EN" "http://www.w3.org/Graphics/SVG/1.1/DTD/svg11.dtd">
<svg version="1.1" xmlns="http://www.w3.org/2000/svg" xmlns:xlink="http://www.w3.org/1999/xlink" width="16" height="16" viewBox="0 0 16 16">
<path d="M10.544 9.047c-0.574 0-1.040 0.646-1.040 1.439 0 0.795 0.466 1.441 1.040 1.441s1.040-0.646 1.040-1.441c-0.001-0.794-0.466-1.439-1.040-1.439zM14.165 5.301c0.119-0.292 0.124-1.951-0.508-3.541 0 0-1.449 0.159-3.641 1.664-0.46-0.128-1.238-0.19-2.015-0.19-0.778 0-1.556 0.062-2.016 0.19-2.193-1.505-3.642-1.664-3.642-1.664-0.631 1.59-0.625 3.249-0.507 3.541-0.742 0.806-1.196 1.775-1.196 3.097 0 5.749 4.77 5.841 5.974 5.841 0.274 0 0.814 0.002 1.387 0.002s1.114-0.002 1.386-0.002c1.205 0 5.974-0.092 5.974-5.841 0-1.322-0.453-2.29-1.195-3.097zM8.022 13.532h-0.045c-3.017 0-5.367-0.359-5.367-3.292 0-0.703 0.248-1.354 0.838-1.895 0.982-0.902 2.644-0.425 4.53-0.425 0.008 0 0.016 0 0.023 0s0.014 0 0.022 0c1.886 0 3.549-0.477 4.531 0.425 0.588 0.541 0.836 1.192 0.836 1.895 0 2.933-2.35 3.292-5.367 3.292zM5.457 9.047c-0.574 0-1.040 0.646-1.040 1.439 0 0.795 0.466 1.441 1.040 1.441s1.041-0.646 1.041-1.441c0-0.794-0.466-1.439-1.041-1.439z"></path>
</svg>
