<?xml version="1.0" encoding="utf-8"?>
<!-- Generated by IcoMoon.io -->
<!DOCTYPE svg PUBLIC "-//W3C//DTD SVG 1.1//EN" "http://www.w3.org/Graphics/SVG/1.1/DTD/svg11.dtd">
<svg version="1.1" xmlns="http://www.w3.org/2000/svg" xmlns:xlink="http://www.w3.org/1999/xlink" width="16" height="16" viewBox="0 0 16 16">
<path d="M8.012 7.959c0 0-0.008 0-0.012 0h-0.012c-0.953 0-1.792-0.242-2.289 0.214-0.297 0.274-0.422 0.603-0.422 0.958 0 1.482 1.186 1.664 2.711 1.664h0.023c1.524 0 2.711-0.183 2.711-1.664 0-0.354-0.125-0.685-0.422-0.958-0.498-0.457-1.337-0.214-2.29-0.214zM6.714 9.984c-0.29 0-0.525-0.326-0.525-0.728s0.234-0.726 0.525-0.726c0.29 0 0.526 0.325 0.526 0.726s-0.234 0.728-0.526 0.728zM9.285 9.984c-0.29 0-0.526-0.326-0.526-0.728s0.235-0.726 0.526-0.726c0.29 0 0.525 0.325 0.525 0.726s-0.234 0.728-0.525 0.728zM8 0.32c-4.242 0-7.68 3.438-7.68 7.68s3.438 7.68 7.68 7.68 7.68-3.438 7.68-7.68-3.438-7.68-7.68-7.68zM8.701 11.151c-0.138 0-0.411 0-0.701 0.002-0.29-0.002-0.563-0.002-0.701-0.002-0.608 0-3.018-0.047-3.018-2.951 0-0.667 0.229-1.156 0.604-1.564-0.059-0.147-0.062-0.986 0.256-1.789 0 0 0.733 0.080 1.841 0.841 0.231-0.065 0.625-0.098 1.018-0.098s0.786 0.033 1.018 0.097c1.108-0.761 1.841-0.841 1.841-0.841 0.318 0.803 0.316 1.642 0.256 1.789 0.375 0.408 0.604 0.897 0.604 1.564-0.001 2.906-2.41 2.952-3.018 2.952z"></path>
</svg>
