<?xml version="1.0" encoding="utf-8"?>
<!-- Generated by IcoMoon.io -->
<!DOCTYPE svg PUBLIC "-//W3C//DTD SVG 1.1//EN" "http://www.w3.org/Graphics/SVG/1.1/DTD/svg11.dtd">
<svg version="1.1" xmlns="http://www.w3.org/2000/svg" xmlns:xlink="http://www.w3.org/1999/xlink" width="16" height="16" viewBox="0 0 16 16">
<path d="M8 0.32c-4.236 0-7.681 3.446-7.681 7.68s3.445 7.68 7.681 7.68c4.234 0 7.68-3.446 7.68-7.68s-3.446-7.68-7.68-7.68zM14.55 8c0 1.498-0.509 2.88-1.357 3.984-0.24-0.187-0.495-0.694-0.255-1.218 0.242-0.528 0.306-1.75 0.25-2.226-0.053-0.475-0.3-1.62-0.971-1.631-0.67-0.010-1.13-0.231-1.529-1.026-0.826-1.654 1.551-1.972 0.725-2.887-0.231-0.258-1.426 1.058-1.602-0.695-0.011-0.126 0.108-0.314 0.269-0.509 2.595 0.872 4.47 3.326 4.47 6.21zM7.1 1.514c-0.157 0.306-0.57 0.43-0.822 0.659-0.547 0.495-0.782 0.426-1.077 0.902-0.297 0.475-1.254 1.159-1.254 1.503s0.483 0.749 0.725 0.67c0.242-0.080 0.879-0.075 1.254 0.056 0.375 0.133 3.131 0.266 2.253 2.595-0.278 0.741-1.498 0.616-1.823 1.842-0.049 0.18-0.218 0.949-0.228 1.2-0.020 0.389 0.275 1.854-0.1 1.854-0.377 0-1.39-1.311-1.39-1.549s-0.262-1.070-0.262-1.784c0-0.713-1.214-0.702-1.214-1.65 0-0.854 0.658-1.28 0.51-1.69-0.145-0.408-1.302-0.422-1.784-0.472 0.842-2.185 2.824-3.806 5.213-4.138zM5.939 14.216c0.394-0.208 0.434-0.477 0.79-0.49 0.408-0.018 0.74-0.159 1.2-0.261 0.408-0.089 1.138-0.503 1.781-0.556 0.542-0.044 1.612 0.028 1.9 0.551-1.036 0.689-2.278 1.090-3.611 1.090-0.719 0-1.412-0.119-2.060-0.334z"></path>
</svg>
