<?xml version="1.0" encoding="utf-8"?>
<!-- Generated by IcoMoon.io -->
<!DOCTYPE svg PUBLIC "-//W3C//DTD SVG 1.1//EN" "http://www.w3.org/Graphics/SVG/1.1/DTD/svg11.dtd">
<svg version="1.1" xmlns="http://www.w3.org/2000/svg" xmlns:xlink="http://www.w3.org/1999/xlink" width="16" height="16" viewBox="0 0 16 16">
<path d="M15.969 6.063c0.031 0.031 0.031 0.125 0 0.156l-0.781 1c-0.031 0.031-0.094 0.063-0.125 0.063l-0.469-0.094-0.219 0.688c-0.094 0.156-0.313 0.156-0.406 0l-0.438-0.938-0.719-0.156-1.469 3.5 0.531 4.25c0 0.094-0.063 0.125-0.125 0.125h-0.625c-0.063 0-0.094-0.031-0.125-0.094l-0.625-2.531-0.313-0.531-0.781 3.063c0 0.063-0.063 0.094-0.125 0.094h-0.656c-0.063 0-0.125-0.063-0.125-0.125l0.719-4.219h-4.219l-1.094 2.063 0.25 2.125c0.031 0.094-0.031 0.156-0.125 0.156h-0.625c-0.031 0-0.094 0-0.125-0.063l-0.875-3.188-1.063 1.219 0.188 1.875c0.031 0.094-0.031 0.156-0.125 0.156h-0.688c-0.063 0-0.125-0.031-0.125-0.063l-0.406-1.75 0.656-2.563v-4.5s-0.719-0.281-0.719-0.938h8.563c0 0 1.5 0.031 2.969-1.031 0 0-0.25-0.688 0.188-1.125 0 0 0.875 0.625 1.125 0.781 0.313 0.188 0.531-0.156 0.438-0.438-0.063-0.188-0.281-0.875-1.406-1.313-0.143-0.048-0.475-0.074-0.406-0.281 0-0.063 0.063-0.094 0.125-0.094 1.375 0.188 2.188 1.313 2.406 1.813 0.031 0.063 0.625 0.469 0.563 1.188 0 0.094 0 0.156 0.063 0.219z"></path>
</svg>
