<?xml version="1.0" encoding="utf-8"?>
<!-- Generated by IcoMoon.io -->
<!DOCTYPE svg PUBLIC "-//W3C//DTD SVG 1.1//EN" "http://www.w3.org/Graphics/SVG/1.1/DTD/svg11.dtd">
<svg version="1.1" xmlns="http://www.w3.org/2000/svg" xmlns:xlink="http://www.w3.org/1999/xlink" width="16" height="16" viewBox="0 0 16 16">
<path d="M8 0c-3.8 0-6.88 3.045-6.88 6.8s3.080 6.8 6.88 6.8v2.4c2.694-1.338 6.88-4.244 6.88-9.2 0-3.755-3.080-6.8-6.88-6.8zM7.2 7.793c0 1.062-0.817 1.938-1.856 2.030-0.098 0.009-0.182-0.070-0.182-0.169v-0.682c0-0.085 0.063-0.155 0.147-0.168 0.425-0.061 0.75-0.39 0.838-0.805h-1.561c-0.323 0-0.586-0.262-0.586-0.586v-2.029c0-0.323 0.262-0.586 0.586-0.586h2.029c0.323 0 0.586 0.262 0.586 0.586v2.407zM12 7.793c0 1.062-0.817 1.938-1.856 2.030-0.098 0.009-0.182-0.070-0.182-0.169v-0.682c0-0.085 0.063-0.155 0.147-0.168 0.425-0.062 0.75-0.39 0.838-0.805h-1.561c-0.323 0-0.586-0.262-0.586-0.586v-2.029c0-0.323 0.262-0.586 0.586-0.586h2.029c0.323 0 0.586 0.262 0.586 0.586v2.407z"></path>
</svg>
