<?xml version="1.0" encoding="utf-8"?>
<!-- Generated by IcoMoon.io -->
<!DOCTYPE svg PUBLIC "-//W3C//DTD SVG 1.1//EN" "http://www.w3.org/Graphics/SVG/1.1/DTD/svg11.dtd">
<svg version="1.1" xmlns="http://www.w3.org/2000/svg" xmlns:xlink="http://www.w3.org/1999/xlink" width="16" height="16" viewBox="0 0 16 16">
<path d="M12.656 7.344v-4h-9.313v4h1.313v1.313h1.344v1.344h1.344v-1.344h1.313v1.344h1.344v-1.344h1.344v-1.313h1.313zM11.344 12v-1.344h-1.344v1.344h1.344zM8.656 12v-1.344h-1.313v1.344h1.313zM6 12v-1.344h-1.344v1.344h1.344zM12.656 2c0.719 0 1.344 0.625 1.344 1.344v9.313c0 0.719-0.625 1.344-1.344 1.344h-9.313c-0.719 0-1.344-0.625-1.344-1.344v-9.313c0-0.719 0.625-1.344 1.344-1.344h9.313zM4.656 6h1.344v1.344h-1.344v-1.344zM10 6h1.344v1.344h-1.344v-1.344zM7.344 6h1.313v1.344h1.344v1.313h-1.344v-1.313h-1.313v1.313h-1.344v-1.313h1.344v-1.344zM11.344 8.656v1.344h1.313v-1.344h-1.313zM4.656 8.656h-1.313v1.344h1.313v-1.344z"></path>
</svg>
