<?xml version="1.0" encoding="utf-8"?>
<!-- Generated by IcoMoon.io -->
<!DOCTYPE svg PUBLIC "-//W3C//DTD SVG 1.1//EN" "http://www.w3.org/Graphics/SVG/1.1/DTD/svg11.dtd">
<svg version="1.1" xmlns="http://www.w3.org/2000/svg" xmlns:xlink="http://www.w3.org/1999/xlink" width="16" height="16" viewBox="0 0 16 16">
<path d="M2.642 9.79c0.371 1.503 0.843 2.161 2.418 2.85s2.323 1.44 2.941 1.44c0.617 0 1.318-0.658 2.893-1.347s1.154-0.898 1.526-2.402l-4.418 2.149-5.358-2.69zM15.609 5.869l-6.66-3.73c-0.522-0.292-1.376-0.292-1.898 0l-6.661 3.73c-0.522 0.292-0.522 0.77 0 1.062l6.66 3.73c0.522 0.292 1.376 0.292 1.898 0l4.306-2.411-4.669-1.094c-0.18 0.044-0.378 0.069-0.585 0.069-0.842 0-1.523-0.405-1.523-0.905 0-0.502 0.682-0.906 1.523-0.906 0.653 0 1.208 0.246 1.424 0.587l4.946 1.623 1.239-0.694c0.521-0.291 0.521-0.77 0-1.062zM13.574 12.936c-0.052 0.308 1.026 0.814 1.129-0.086 0.463-4.058-0.333-5.225-0.333-5.225l-1.116 0.625c0-0.001 0.946 0.9 0.32 4.686z"></path>
</svg>
