<?xml version="1.0" encoding="utf-8"?>
<!-- Generated by IcoMoon.io -->
<!DOCTYPE svg PUBLIC "-//W3C//DTD SVG 1.1//EN" "http://www.w3.org/Graphics/SVG/1.1/DTD/svg11.dtd">
<svg version="1.1" xmlns="http://www.w3.org/2000/svg" xmlns:xlink="http://www.w3.org/1999/xlink" width="16" height="16" viewBox="0 0 16 16">
<path d="M6.656 2.656c0.719 0 1.344 0.625 1.344 1.344s-0.625 1.344-1.344 1.344-1.313-0.625-1.313-1.344 0.594-1.344 1.313-1.344zM9.344 5.344c0.719 0 1.313 0.594 1.313 1.313s-0.594 1.344-1.313 1.344-1.344-0.625-1.344-1.344 0.625-1.313 1.344-1.313zM12 8c0.719 0 1.344 0.625 1.344 1.344s-0.625 1.313-1.344 1.313-1.344-0.594-1.344-1.313 0.625-1.344 1.344-1.344zM9.344 10.656c0.719 0 1.313 0.625 1.313 1.344s-0.594 1.344-1.313 1.344-1.344-0.625-1.344-1.344 0.625-1.344 1.344-1.344zM12 5.344c-0.719 0-1.344-0.625-1.344-1.344s0.625-1.344 1.344-1.344 1.344 0.625 1.344 1.344-0.625 1.344-1.344 1.344zM4 10.656c0.719 0 1.344 0.625 1.344 1.344s-0.625 1.344-1.344 1.344-1.344-0.625-1.344-1.344 0.625-1.344 1.344-1.344zM4 5.344c0.719 0 1.344 0.594 1.344 1.313s-0.625 1.344-1.344 1.344-1.344-0.625-1.344-1.344 0.625-1.313 1.344-1.313zM6.656 8c0.719 0 1.344 0.625 1.344 1.344s-0.625 1.313-1.344 1.313-1.313-0.594-1.313-1.313 0.594-1.344 1.313-1.344z"></path>
</svg>
