<?xml version="1.0" encoding="utf-8"?>
<!-- Generated by IcoMoon.io -->
<!DOCTYPE svg PUBLIC "-//W3C//DTD SVG 1.1//EN" "http://www.w3.org/Graphics/SVG/1.1/DTD/svg11.dtd">
<svg version="1.1" xmlns="http://www.w3.org/2000/svg" xmlns:xlink="http://www.w3.org/1999/xlink" width="16" height="16" viewBox="0 0 16 16">
<path d="M15.332 14.668h-1.332v-0.668h-0.668v0.668h-1.33v-0.668h-0.668v0.668h-1.332v-0.668h-0.668v0.668h-1.332v-0.668h-0.668v0.668h-1.332v-0.668h-0.668v0.668h-2.934l3.513-2.111 1.739-5.081 2.583 4.539 5.005-8.339-1.143-0.687-3.831 6.384-2.917-5.127-2.539 7.419-3.477 2.089v-13.754h-1.332v16h16v-2h-0.668zM15.332 0h0.668v0.668h-0.668zM13.332 0h0.668v0.668h-0.668zM11.334 0h0.668v0.668h-0.668zM9.334 0h0.668v0.668h-0.668zM7.334 0h0.668v0.668h-0.668zM5.334 0h0.668v0.668h-0.668zM3.334 0h0.668v0.668h-0.668zM1.334 0h0.668v0.668h-0.668zM15.332 2h0.668v0.668h-0.668zM13.332 2h0.668v0.668h-0.668zM11.334 2h0.668v0.668h-0.668zM9.334 2h0.668v0.668h-0.668zM7.334 2h0.668v0.668h-0.668zM5.334 2h0.668v0.668h-0.668zM3.334 2h0.668v0.668h-0.668zM1.334 2h0.668v0.668h-0.668zM15.332 3.998h0.668v0.668h-0.668zM11.334 3.998h0.668v0.668h-0.668zM9.334 3.998h0.668v0.668h-0.668zM5.334 3.998h0.668v0.668h-0.668zM3.334 3.998h0.668v0.668h-0.668zM1.334 3.998h0.668v0.668h-0.668zM15.332 5.998h0.668v0.668h-0.668zM9.334 5.998h0.668v0.668h-0.668zM5.334 5.998h0.668v0.668h-0.668zM3.334 5.998h0.668v0.668h-0.668zM1.334 5.998h0.668v0.668h-0.668zM15.332 7.999h0.668v0.668h-0.668zM13.332 7.999h0.668v0.668h-0.668zM3.334 7.999h0.668v0.668h-0.668zM1.334 7.999h0.668v0.668h-0.668zM15.332 9.999h0.668v0.668h-0.668zM13.332 9.999h0.668v0.668h-0.668zM7.334 9.999h0.668v0.668h-0.668zM3.334 9.999h0.668v0.668h-0.668zM1.334 9.999h0.668v0.668h-0.668zM15.332 11.997h0.668v0.668h-0.668zM13.332 11.997h0.668v0.668h-0.668zM11.334 11.997h0.668v0.668h-0.668zM7.334 11.997h0.668v0.668h-0.668zM1.334 11.997h0.668v0.668h-0.668z"></path>
</svg>
