<?xml version="1.0" encoding="utf-8"?>
<!-- Generated by IcoMoon.io -->
<!DOCTYPE svg PUBLIC "-//W3C//DTD SVG 1.1//EN" "http://www.w3.org/Graphics/SVG/1.1/DTD/svg11.dtd">
<svg version="1.1" xmlns="http://www.w3.org/2000/svg" xmlns:xlink="http://www.w3.org/1999/xlink" width="16" height="16" viewBox="0 0 16 16">
<path d="M0.667 1.333v14h13.987v-14h-13.987zM13.321 6h-3.331v-3.333h3.331v3.333zM13.321 10h-3.331v-3.333h3.331v3.333zM13.321 14h-3.331v-3.333h3.331v3.333zM1.999 10.667h3.331v3.333h-3.331v-3.333zM1.999 6.667h3.331v3.333h-3.331v-3.333zM1.999 2.667h3.331v3.333h-3.331v-3.333zM9.325 6h-3.33v-3.333h3.331v3.333zM9.325 10h-3.33v-3.333h3.331v3.333zM5.995 10.667h3.331v3.333h-3.331v-3.333z"></path>
</svg>
