<?xml version="1.0" encoding="utf-8"?>
<!-- Generated by IcoMoon.io -->
<!DOCTYPE svg PUBLIC "-//W3C//DTD SVG 1.1//EN" "http://www.w3.org/Graphics/SVG/1.1/DTD/svg11.dtd">
<svg version="1.1" xmlns="http://www.w3.org/2000/svg" xmlns:xlink="http://www.w3.org/1999/xlink" width="16" height="16" viewBox="0 0 16 16">
<path d="M6.4 3.2h-2.4c-0.442 0-0.8 0.358-0.8 0.8v2.4c0 0.442 0.358 0.8 0.8 0.8h2.4c0.442 0 0.8-0.358 0.8-0.8v-2.4c0-0.442-0.358-0.8-0.8-0.8zM12 3.2h-2.4c-0.442 0-0.8 0.358-0.8 0.8v2.4c0 0.442 0.358 0.8 0.8 0.8h2.4c0.442 0 0.8-0.358 0.8-0.8v-2.4c0-0.442-0.358-0.8-0.8-0.8zM6.4 8.8h-2.4c-0.442 0-0.8 0.358-0.8 0.8v2.4c0 0.442 0.358 0.8 0.8 0.8h2.4c0.442 0 0.8-0.358 0.8-0.8v-2.4c0-0.442-0.358-0.8-0.8-0.8zM12 8.8h-2.4c-0.442 0-0.8 0.358-0.8 0.8v2.4c0 0.442 0.358 0.8 0.8 0.8h2.4c0.442 0 0.8-0.358 0.8-0.8v-2.4c0-0.442-0.358-0.8-0.8-0.8z"></path>
</svg>
