<?xml version="1.0" encoding="utf-8"?>
<!-- Generated by IcoMoon.io -->
<!DOCTYPE svg PUBLIC "-//W3C//DTD SVG 1.1//EN" "http://www.w3.org/Graphics/SVG/1.1/DTD/svg11.dtd">
<svg version="1.1" xmlns="http://www.w3.org/2000/svg" xmlns:xlink="http://www.w3.org/1999/xlink" width="16" height="16" viewBox="0 0 16 16">
<path d="M10.656 13.344h0.969l-0.969-0.969v0.969zM9.344 13.344v-2.313l-0.375-0.375h-2.313v2.688h2.688zM5.344 9.344v-2.313l-0.375-0.375h-2.313v2.688h2.688zM5.344 13.344v-2.688h-2.688v2.688h2.688zM2.656 4.375v0.969h0.969zM6.656 8.375v0.969h0.969zM0.844 0.844l14.313 14.313-0.844 0.844-1.344-1.344h-10.313c-0.719 0-1.313-0.594-1.313-1.313v-10.313l-1.344-1.344zM10.656 2.656v2.688h2.688v-2.688h-2.688zM5.344 2.656h-0.969l-1.344-1.313h10.313c0.719 0 1.313 0.594 1.313 1.313v10.313l-1.313-1.344v-0.969h-0.969l-1.344-1.313h2.313v-2.688h-2.688v2.313l-1.313-1.344v-0.969h-0.969l-1.344-1.313h2.313v-2.688h-2.688v2.313l-1.313-1.344v-0.969z"></path>
</svg>
