<?xml version="1.0" encoding="utf-8"?>
<!-- Generated by IcoMoon.io -->
<!DOCTYPE svg PUBLIC "-//W3C//DTD SVG 1.1//EN" "http://www.w3.org/Graphics/SVG/1.1/DTD/svg11.dtd">
<svg version="1.1" xmlns="http://www.w3.org/2000/svg" xmlns:xlink="http://www.w3.org/1999/xlink" width="16" height="16" viewBox="0 0 16 16">
<path d="M13.344 5.344v-2.688h-2.688v2.688h2.688zM13.344 9.344v-2.688h-2.688v2.688h2.688zM13.344 13.344v-2.688h-2.688v2.688h2.688zM9.344 5.344v-2.688h-2.688v2.688h2.688zM9.344 9.344v-2.688h-2.688v2.688h2.688zM9.344 13.344v-2.688h-2.688v2.688h2.688zM5.344 5.344v-2.688h-2.688v2.688h2.688zM5.344 9.344v-2.688h-2.688v2.688h2.688zM5.344 13.344v-2.688h-2.688v2.688h2.688zM13.344 1.344c0.719 0 1.313 0.594 1.313 1.313v10.688c0 0.719-0.594 1.313-1.313 1.313h-10.688c-0.719 0-1.313-0.594-1.313-1.313v-10.688c0-0.719 0.594-1.313 1.313-1.313h10.688z"></path>
</svg>
