<?xml version="1.0" encoding="utf-8"?>
<!-- Generated by IcoMoon.io -->
<!DOCTYPE svg PUBLIC "-//W3C//DTD SVG 1.1//EN" "http://www.w3.org/Graphics/SVG/1.1/DTD/svg11.dtd">
<svg version="1.1" xmlns="http://www.w3.org/2000/svg" xmlns:xlink="http://www.w3.org/1999/xlink" width="16" height="16" viewBox="0 0 16 16">
<path d="M8 0.959c-3.889 0-7.040 3.152-7.040 7.041 0 3.887 3.151 7.041 7.041 7.041 3.888 0 7.040-3.153 7.040-7.041s-3.152-7.041-7.041-7.041zM10.83 8.27c-0.381-0.533-0.77-1.056-1.198-1.551-0.401-0.467-0.827-0.913-1.291-1.316-0.462-0.403-0.966-0.786-1.52-1.053-0.372-0.18-0.755-0.314-1.151-0.429-0.045-0.012-0.166-0.067-0.202-0.012-0.022 0.034-0.005 0.098-0.002 0.136 0.011 0.082 0.021 0.164 0.031 0.246 0.118 0.982 0.163 2.020-0.142 2.975-0.163 0.514-0.462 0.984-0.86 1.349-0.33 0.303-0.802 0.608-1.27 0.586-0.086-0.003-0.174-0.018-0.259-0.047-0.501-0.169-0.53-0.709-0.534-1.154-0.003-0.478 0.054-0.956 0.173-1.42 0.036-0.142 0.081-0.282 0.128-0.422 0.548-1.589 1.816-2.882 3.407-3.446 0.595-0.211 1.226-0.318 1.858-0.318 1.861 0 3.631 0.956 4.654 2.51 0.256 0.39 0.462 0.813 0.613 1.253h-0.002c0.049 0.139 0.094 0.28 0.13 0.422 0.117 0.464 0.176 0.942 0.173 1.42-0.006 0.9-0.296 1.894-1.426 1.417-0.534-0.226-0.979-0.682-1.31-1.146z"></path>
</svg>
