<?xml version="1.0" encoding="utf-8"?>
<!-- Generated by IcoMoon.io -->
<!DOCTYPE svg PUBLIC "-//W3C//DTD SVG 1.1//EN" "http://www.w3.org/Graphics/SVG/1.1/DTD/svg11.dtd">
<svg version="1.1" xmlns="http://www.w3.org/2000/svg" xmlns:xlink="http://www.w3.org/1999/xlink" width="16" height="16" viewBox="0 0 16 16">
<path d="M10.656 11.656c0.906 0 1.688-0.75 1.688-1.656s-0.781-1.656-1.688-1.656-1.656 0.75-1.656 1.656 0.75 1.656 1.656 1.656zM6.344 5.344c0 0.906 0.75 1.656 1.656 1.656s1.656-0.75 1.656-1.656-0.75-1.688-1.656-1.688-1.656 0.781-1.656 1.688zM5.344 11.656c0.906 0 1.656-0.75 1.656-1.656s-0.75-1.656-1.656-1.656-1.688 0.75-1.688 1.656 0.781 1.656 1.688 1.656zM8 1.344c3.688 0 6.656 2.969 6.656 6.656s-2.969 6.656-6.656 6.656-6.656-2.969-6.656-6.656 2.969-6.656 6.656-6.656z"></path>
</svg>
