<?xml version="1.0" encoding="utf-8"?>
<!-- Generated by IcoMoon.io -->
<!DOCTYPE svg PUBLIC "-//W3C//DTD SVG 1.1//EN" "http://www.w3.org/Graphics/SVG/1.1/DTD/svg11.dtd">
<svg version="1.1" xmlns="http://www.w3.org/2000/svg" xmlns:xlink="http://www.w3.org/1999/xlink" width="16" height="16" viewBox="0 0 16 16">
<path d="M8.656 8.656c1.344 0 4 0.656 4 2v1.344h-8v-1.344c0-1.344 2.656-2 4-2zM13.094 8.781c1.344 0.219 2.906 0.844 2.906 1.875v1.344h-2v-1.344c0-0.781-0.344-1.375-0.906-1.875zM8.656 7.344c-1.094 0-2-0.906-2-2s0.906-2 2-2 2 0.906 2 2-0.906 2-2 2zM12 7.344c-0.219 0-0.406-0.031-0.594-0.094 0.375-0.531 0.594-1.188 0.594-1.906s-0.219-1.375-0.594-1.906c0.188-0.063 0.375-0.094 0.594-0.094 1.094 0 2 0.906 2 2s-0.906 2-2 2zM5.344 6.656v1.344h-2v2h-1.344v-2h-2v-1.344h2v-2h1.344v2h2z"></path>
</svg>
