<?xml version="1.0" encoding="utf-8"?>
<!-- Generated by IcoMoon.io -->
<!DOCTYPE svg PUBLIC "-//W3C//DTD SVG 1.1//EN" "http://www.w3.org/Graphics/SVG/1.1/DTD/svg11.dtd">
<svg version="1.1" xmlns="http://www.w3.org/2000/svg" xmlns:xlink="http://www.w3.org/1999/xlink" width="16" height="16" viewBox="0 0 16 16">
<path d="M8 0.32c-4.242 0-7.681 3.438-7.681 7.68s3.438 7.681 7.681 7.681c4.241 0 7.68-3.438 7.68-7.681s-3.439-7.68-7.68-7.68zM8.8 14.020v-3.62h-1.6v3.62c-2.717-0.357-4.864-2.503-5.222-5.22h3.622v-1.6h-3.622c0.358-2.717 2.505-4.863 5.222-5.22v3.62h1.6v-3.62c2.715 0.358 4.862 2.504 5.22 5.22h-3.62v1.6h3.62c-0.358 2.715-2.505 4.862-5.22 5.22z"></path>
</svg>
