<?xml version="1.0" encoding="utf-8"?>
<!-- Generated by IcoMoon.io -->
<!DOCTYPE svg PUBLIC "-//W3C//DTD SVG 1.1//EN" "http://www.w3.org/Graphics/SVG/1.1/DTD/svg11.dtd">
<svg version="1.1" xmlns="http://www.w3.org/2000/svg" xmlns:xlink="http://www.w3.org/1999/xlink" width="16" height="16" viewBox="0 0 16 16">
<path d="M14.339 13.852c-0.046 0.139-0.154 0.294-0.333 0.346-0.129 0.038-4.39 1.272-4.522 1.306-0.375 0.1-0.636 0.026-0.807-0.125-0.261-0.23-3.274-2.28-7.076-2.474-0.406-0.020-0.207-1.561 0.954-1.561 0.796 0 3.123 0.578 3.404 0.297 0.217-0.218 0.315-1.503-0.59-3.746v0l-1.82-4.51c-0.173-0.428 0.035-0.914 0.462-1.087s0.916 0.034 1.087 0.462c0 0 1.433 3.55 1.589 3.935 0.154 0.384 0.345 0.53 0.552 0.45 0.185-0.070 0.223-0.194 0.111-0.567l-1.637-4.822c-0.149-0.437 0.085-0.91 0.522-1.059s0.913 0.085 1.060 0.522l1.557 4.586c0.138 0.403 0.283 0.614 0.514 0.517 0.138-0.058 0.129-0.27 0.092-0.455l-1.093-4.377c-0.112-0.449 0.161-0.902 0.609-1.014s0.9 0.16 1.013 0.609l1.008 4.034c0.147 0.593 0.282 0.806 0.517 0.748 0.239-0.058 0.228-0.255 0.195-0.418-0.076-0.38-0.698-3.462-0.698-3.462-0.082-0.412 0.184-0.812 0.595-0.894s0.811 0.184 0.893 0.594l0.758 3.769 0.001 0.001c0 0 0 0 0 0.001l0.454 2.26c0.099 0.426 0.213 0.828 0.36 1.222 0.868 2.311 0.415 4.451 0.267 4.914z"></path>
</svg>
