<?xml version="1.0" encoding="utf-8"?>
<!-- Generated by IcoMoon.io -->
<!DOCTYPE svg PUBLIC "-//W3C//DTD SVG 1.1//EN" "http://www.w3.org/Graphics/SVG/1.1/DTD/svg11.dtd">
<svg version="1.1" xmlns="http://www.w3.org/2000/svg" xmlns:xlink="http://www.w3.org/1999/xlink" width="16" height="16" viewBox="0 0 16 16">
<path d="M11.344 10.656c1.469 0 2.656-1.188 2.656-2.656s-1.188-2.656-2.656-2.656-2.688 1.188-2.688 2.656 1.219 2.656 2.688 2.656zM11.344 4c2.219 0 4 1.781 4 4s-1.781 4-4 4-4-1.781-4-4 1.781-4 4-4zM3.344 5.344c1.469 0 2.656 1.188 2.656 2.656s-1.188 2.656-2.656 2.656-2.688-1.188-2.688-2.656 1.219-2.656 2.688-2.656z"></path>
</svg>
