<?xml version="1.0" encoding="utf-8"?>
<!-- Generated by IcoMoon.io -->
<!DOCTYPE svg PUBLIC "-//W3C//DTD SVG 1.1//EN" "http://www.w3.org/Graphics/SVG/1.1/DTD/svg11.dtd">
<svg version="1.1" xmlns="http://www.w3.org/2000/svg" xmlns:xlink="http://www.w3.org/1999/xlink" width="16" height="16" viewBox="0 0 16 16">
<path d="M13.857 2.129c-4.027-0.573-8.047-0.574-12.084 0.001-1.043 0.156-1.773 1.143-1.773 2.202v7.333c0 1.059 0.605 2.047 1.655 2.204 2.014 0.287 3.944 0.431 5.979 0.431s4.271-0.145 6.289-0.432c1.045-0.157 2.077-1.145 2.077-2.203v-7.332c0-1.059-1.093-2.047-2.143-2.205zM1.333 4.333c0-0.403 0.119-0.825 0.509-0.884 1.761-0.25 3.457-0.383 5.219-0.408l-2.613 4.637h-3.116v-3.345zM14.667 11.665c0 0.403-0.605 0.825-0.997 0.883-3.903 0.555-7.806 0.554-11.699 0.001-0.397-0.059-0.637-0.48-0.637-0.884v-2.653h3.907l1.181-1.839 0.566 4.787 3.428-2.948h4.251v2.653zM14.667 7.679h-4.725l-1.905 1.875-0.727-6.517c0.109-0.001 0.215-0.006 0.325-0.006 1.972 0 4.145 0.141 6.092 0.417 0.397 0.060 0.941 0.481 0.941 0.884v3.347zM10.668 4.665h0.664v0.668h-0.664zM12 4.665h0.668v0.668h-0.668z"></path>
</svg>
