<?xml version="1.0" encoding="utf-8"?>
<!-- Generated by IcoMoon.io -->
<!DOCTYPE svg PUBLIC "-//W3C//DTD SVG 1.1//EN" "http://www.w3.org/Graphics/SVG/1.1/DTD/svg11.dtd">
<svg version="1.1" xmlns="http://www.w3.org/2000/svg" xmlns:xlink="http://www.w3.org/1999/xlink" width="16" height="16" viewBox="0 0 16 16">
<path d="M11.094 13.563l2.438-2.438-2.438-2.406-2.406 2.438zM9.344 7.344c-0.375 0-0.688 0.281-0.688 0.656s0.313 0.656 0.688 0.656 0.656-0.281 0.656-0.656-0.281-0.656-0.656-0.656zM8 10c0.375 0 0.656-0.281 0.656-0.656s-0.281-0.688-0.656-0.688-0.656 0.313-0.656 0.688 0.281 0.656 0.656 0.656zM6.656 8.656c0.375 0 0.688-0.281 0.688-0.656s-0.313-0.656-0.688-0.656-0.656 0.281-0.656 0.656 0.281 0.656 0.656 0.656zM4.875 7.313l2.406-2.438-2.406-2.406-2.438 2.438zM8 6c-0.375 0-0.656 0.281-0.656 0.656s0.281 0.688 0.656 0.688 0.656-0.313 0.656-0.688-0.281-0.656-0.656-0.656zM11.813 8l2.656 2.656c0.25 0.25 0.25 0.688 0 0.938l-2.875 2.906c-0.125 0.125-0.281 0.188-0.469 0.188s-0.375-0.063-0.5-0.188l-2.625-2.656-2.656 2.656c-0.25 0.25-0.688 0.25-0.938 0l-2.906-2.906c-0.25-0.25-0.25-0.688 0-0.938l2.656-2.656-2.656-2.625c-0.25-0.25-0.25-0.719 0-0.969l2.906-2.875c0.125-0.125 0.313-0.188 0.469-0.188 0.188 0 0.344 0.063 0.469 0.188l2.656 2.656 2.625-2.656c0.25-0.25 0.719-0.25 0.969 0l2.875 2.875c0.25 0.25 0.25 0.719 0 0.969z"></path>
</svg>
