<?xml version="1.0" encoding="utf-8"?>
<!-- Generated by IcoMoon.io -->
<!DOCTYPE svg PUBLIC "-//W3C//DTD SVG 1.1//EN" "http://www.w3.org/Graphics/SVG/1.1/DTD/svg11.dtd">
<svg version="1.1" xmlns="http://www.w3.org/2000/svg" xmlns:xlink="http://www.w3.org/1999/xlink" width="16" height="16" viewBox="0 0 16 16">
<path d="M8 13.103l-0.023 0.029-5.31-6.798c-0.242-0.305-0.667-0.674-0.667-1.512 0-1.471 1.197-2.667 2.667-2.667s3.333 1.196 3.333 2.667v-2.209c-0.717-1.079-1.943-1.791-3.333-1.791-2.206 0-4 1.794-4 4 0 1.371 0.667 2 0.839 2.446l6.495 7.881v-2.046zM8 13.103l0.023 0.029 5.31-6.798c0.242-0.305 0.667-0.674 0.667-1.512 0-1.471-1.197-2.667-2.667-2.667s-3.333 1.196-3.333 2.667v-2.209c0.717-1.079 1.944-1.791 3.333-1.791 2.206 0 4 1.794 4 4 0 1.371-0.667 2-0.839 2.446l-6.495 7.881v-2.046z"></path>
</svg>
