<?xml version="1.0" encoding="utf-8"?>
<!-- Generated by IcoMoon.io -->
<!DOCTYPE svg PUBLIC "-//W3C//DTD SVG 1.1//EN" "http://www.w3.org/Graphics/SVG/1.1/DTD/svg11.dtd">
<svg version="1.1" xmlns="http://www.w3.org/2000/svg" xmlns:xlink="http://www.w3.org/1999/xlink" width="16" height="16" viewBox="0 0 16 16">
<path d="M13.752 3.325c-1.338-1.228-3.506-1.228-4.844 0l-0.908 0.833-0.909-0.833c-1.338-1.228-3.506-1.228-4.843 0-1.505 1.381-1.505 3.615 0 4.996l5.752 5.279 5.752-5.279c1.504-1.381 1.504-3.616 0-4.996zM12.899 7.5l-4.899 4.572-4.9-4.572c-0.494-0.454-0.685-1.046-0.685-1.675s0.11-1.146 0.605-1.599c0.436-0.401 1.022-0.622 1.65-0.622s1.214 0.381 1.65 0.782l1.68 1.46 1.679-1.461c0.437-0.402 1.022-0.782 1.65-0.782s1.214 0.221 1.65 0.622c0.494 0.453 0.604 0.97 0.604 1.599s-0.19 1.222-0.685 1.676z"></path>
</svg>
