<?xml version="1.0" encoding="utf-8"?>
<!-- Generated by IcoMoon.io -->
<!DOCTYPE svg PUBLIC "-//W3C//DTD SVG 1.1//EN" "http://www.w3.org/Graphics/SVG/1.1/DTD/svg11.dtd">
<svg version="1.1" xmlns="http://www.w3.org/2000/svg" xmlns:xlink="http://www.w3.org/1999/xlink" width="16" height="16" viewBox="0 0 16 16">
<path d="M7.656 6c0-0.906 0.781-1.656 1.688-1.656s1.656 0.75 1.656 1.656-0.75 1.656-1.656 1.656-1.688-0.75-1.688-1.656zM5.094 1.75c-1.094 1.094-1.75 2.594-1.75 4.25s0.656 3.156 1.75 4.25l-0.938 0.938c-1.313-1.313-2.156-3.156-2.156-5.188s0.844-3.875 2.156-5.188zM11.344 13.344c0.719 0 1.313-0.625 1.313-1.344h1.344c0 1.469-1.188 2.656-2.656 2.656-0.375 0-0.75-0.063-1.094-0.219-0.906-0.469-1.438-1.156-1.844-2.375-0.219-0.656-0.594-0.969-1.125-1.375-0.594-0.438-1.313-1-1.906-2.094-0.469-0.844-0.719-1.75-0.719-2.594 0-2.625 2.063-4.656 4.688-4.656s4.656 2.031 4.656 4.656h-1.344c0-1.875-1.438-3.344-3.313-3.344s-3.344 1.469-3.344 3.344c0 0.625 0.188 1.344 0.531 1.969 0.469 0.875 1.031 1.281 1.563 1.688 0.625 0.469 1.25 0.969 1.594 2 0.344 1 0.656 1.313 1.125 1.563 0.125 0.063 0.344 0.125 0.531 0.125z"></path>
</svg>
