<?xml version="1.0" encoding="utf-8"?>
<!-- Generated by IcoMoon.io -->
<!DOCTYPE svg PUBLIC "-//W3C//DTD SVG 1.1//EN" "http://www.w3.org/Graphics/SVG/1.1/DTD/svg11.dtd">
<svg version="1.1" xmlns="http://www.w3.org/2000/svg" xmlns:xlink="http://www.w3.org/1999/xlink" width="16" height="16" viewBox="0 0 16 16">
<path d="M8 4c1.469 0 2.656 1.188 2.656 2.656 0 1.656-2 1.844-2 3.344h-1.313c0-2.156 2-2 2-3.344 0-0.719-0.625-1.313-1.344-1.313s-1.344 0.594-1.344 1.313h-1.313c0-1.469 1.188-2.656 2.656-2.656zM8 13.344c2.938 0 5.344-2.406 5.344-5.344s-2.406-5.344-5.344-5.344-5.344 2.406-5.344 5.344 2.406 5.344 5.344 5.344zM8 1.344c3.688 0 6.656 2.969 6.656 6.656s-2.969 6.656-6.656 6.656-6.656-2.969-6.656-6.656 2.969-6.656 6.656-6.656zM7.344 12v-1.344h1.313v1.344h-1.313z"></path>
</svg>
