<?xml version="1.0" encoding="utf-8"?>
<!-- Generated by IcoMoon.io -->
<!DOCTYPE svg PUBLIC "-//W3C//DTD SVG 1.1//EN" "http://www.w3.org/Graphics/SVG/1.1/DTD/svg11.dtd">
<svg version="1.1" xmlns="http://www.w3.org/2000/svg" xmlns:xlink="http://www.w3.org/1999/xlink" width="16" height="16" viewBox="0 0 16 16">
<path d="M10.031 7.5c0.375-0.375 0.625-0.906 0.625-1.5 0-1.469-1.188-2.656-2.656-2.656s-2.656 1.188-2.656 2.656h1.313c0-0.719 0.625-1.344 1.344-1.344s1.344 0.625 1.344 1.344c0 0.375-0.156 0.688-0.406 0.938l-0.813 0.844c-0.469 0.5-0.781 1.156-0.781 1.875v0.344h1.313c0-1 0.313-1.375 0.781-1.875zM8.656 12.656v-1.313h-1.313v1.313h1.313zM8 1.344c3.688 0 6.656 2.969 6.656 6.656s-2.969 6.656-6.656 6.656-6.656-2.969-6.656-6.656 2.969-6.656 6.656-6.656z"></path>
</svg>
