<?xml version="1.0" encoding="utf-8"?>
<!-- Generated by IcoMoon.io -->
<!DOCTYPE svg PUBLIC "-//W3C//DTD SVG 1.1//EN" "http://www.w3.org/Graphics/SVG/1.1/DTD/svg11.dtd">
<svg version="1.1" xmlns="http://www.w3.org/2000/svg" xmlns:xlink="http://www.w3.org/1999/xlink" width="16" height="16" viewBox="0 0 16 16">
<path d="M11.272 1.786c-0.912-0.658-2.058-0.986-3.437-0.986-1.049 0-1.934 0.231-2.654 0.694-1.142 0.725-1.748 1.956-1.822 3.692h2.646c0-0.506 0.148-0.992 0.442-1.462 0.295-0.469 0.796-0.703 1.502-0.703 0.718 0 1.214 0.19 1.483 0.57 0.271 0.382 0.406 0.803 0.406 1.266 0 0.403-0.202 0.772-0.446 1.106-0.134 0.195-0.31 0.375-0.529 0.539 0 0-1.434 0.92-2.064 1.659-0.365 0.428-0.398 1.070-0.43 1.99-0.002 0.066 0.023 0.202 0.252 0.202s1.853 0 2.057 0c0.205 0 0.247-0.151 0.25-0.219 0.014-0.334 0.051-0.506 0.113-0.7 0.115-0.366 0.43-0.684 0.783-0.959l0.728-0.502c0.658-0.513 1.182-0.933 1.414-1.262 0.395-0.541 0.674-1.208 0.674-2-0.001-1.292-0.457-2.266-1.369-2.925zM7.793 11.939c-0.911-0.028-1.663 0.603-1.692 1.592-0.028 0.987 0.686 1.641 1.598 1.667 0.951 0.028 1.683-0.582 1.713-1.57 0.027-0.989-0.667-1.661-1.619-1.689z"></path>
</svg>
