<?xml version="1.0" encoding="utf-8"?>
<!-- Generated by IcoMoon.io -->
<!DOCTYPE svg PUBLIC "-//W3C//DTD SVG 1.1//EN" "http://www.w3.org/Graphics/SVG/1.1/DTD/svg11.dtd">
<svg version="1.1" xmlns="http://www.w3.org/2000/svg" xmlns:xlink="http://www.w3.org/1999/xlink" width="16" height="16" viewBox="0 0 16 16">
<path d="M8 0.32c-4.242 0-7.68 3.438-7.68 7.68s3.438 7.68 7.68 7.68c4.241 0 7.68-3.438 7.68-7.681 0-4.241-3.439-7.679-7.68-7.679zM7.879 12.479h-0.041c-0.626-0.018-1.067-0.48-1.049-1.097 0.018-0.606 0.47-1.047 1.074-1.047l0.037 0.002c0.643 0.018 1.080 0.475 1.062 1.11-0.018 0.608-0.462 1.033-1.083 1.033zM10.512 7.254c-0.147 0.208-0.47 0.469-0.878 0.786l-0.45 0.31c-0.246 0.192-0.395 0.374-0.45 0.55-0.045 0.139-0.066 0.177-0.070 0.461v0.072h-1.716l0.005-0.146c0.022-0.595 0.036-0.947 0.283-1.238 0.388-0.454 1.244-1.006 1.28-1.030 0.123-0.092 0.226-0.197 0.303-0.31 0.18-0.249 0.259-0.444 0.259-0.634 0-0.267-0.078-0.514-0.234-0.733-0.15-0.213-0.436-0.318-0.849-0.318-0.41 0-0.69 0.13-0.858 0.397-0.173 0.273-0.26 0.56-0.26 0.854v0.074h-1.769l0.003-0.077c0.046-1.082 0.433-1.862 1.148-2.318 0.45-0.289 1.011-0.435 1.665-0.435 0.854 0 1.578 0.208 2.146 0.618 0.577 0.415 0.869 1.038 0.869 1.849-0.001 0.454-0.144 0.88-0.427 1.268z"></path>
</svg>
