<?xml version="1.0" encoding="utf-8"?>
<!-- Generated by IcoMoon.io -->
<!DOCTYPE svg PUBLIC "-//W3C//DTD SVG 1.1//EN" "http://www.w3.org/Graphics/SVG/1.1/DTD/svg11.dtd">
<svg version="1.1" xmlns="http://www.w3.org/2000/svg" xmlns:xlink="http://www.w3.org/1999/xlink" width="16" height="16" viewBox="0 0 16 16">
<path d="M9.781 3.906c0.688 0.656 0.969 1.563 0.844 2.469l-0.031 0.281h-1.281l0.094-0.375c0.096-0.541-0.106-1.106-0.5-1.5-0.688-0.688-1-1.594-0.875-2.5l0.031-0.281h1.281l-0.063 0.406c-0.094 0.531 0.063 1.063 0.438 1.469zM12.438 3.906c0.688 0.656 1 1.563 0.875 2.469l-0.063 0.281h-1.25l0.063-0.375c0.094-0.531-0.063-1.063-0.438-1.469l-0.063-0.031c-0.688-0.688-1-1.594-0.875-2.5l0.063-0.281h1.25l-0.063 0.406c-0.094 0.531 0.063 1.063 0.438 1.469zM12.656 13.344v-4h-1.313v4h1.313zM10 13.344v-4h-1.344v4h1.344zM7.344 13.344v-4h-1.344v4h1.344zM4.656 13.344v-4h-1.313v4h1.313zM7.438 8h7.219v5.344c0 0.719-0.594 1.313-1.313 1.313h-10.688c-0.719 0-1.313-0.594-1.313-1.313v-5.344h2v-0.5c0-0.813 0.688-1.5 1.5-1.5 0.481 0 0.88 0.255 1.125 0.5l0.906 1.031c0.156 0.188 0.344 0.313 0.563 0.469zM3.344 4c0-0.75 0.563-1.344 1.313-1.344s1.344 0.594 1.344 1.344-0.594 1.344-1.344 1.344-1.313-0.594-1.313-1.344z"></path>
</svg>
