<?xml version="1.0" encoding="utf-8"?>
<!-- Generated by IcoMoon.io -->
<!DOCTYPE svg PUBLIC "-//W3C//DTD SVG 1.1//EN" "http://www.w3.org/Graphics/SVG/1.1/DTD/svg11.dtd">
<svg version="1.1" xmlns="http://www.w3.org/2000/svg" xmlns:xlink="http://www.w3.org/1999/xlink" width="16" height="16" viewBox="0 0 16 16">
<path d="M12.48 3.661c0-1.711 0-1.878 0-1.878 0-0.631-2.006-1.782-4.48-1.782s-4.48 1.151-4.48 1.782c0 0 0 0.167 0 1.878 0 1.713 3.102 3.126 3.102 4.339 0 1.211-3.102 2.625-3.102 4.338s0 1.88 0 1.88c0 0.63 2.006 1.782 4.48 1.782s4.48-1.152 4.48-1.783c0 0 0-0.167 0-1.88s-3.102-3.126-3.102-4.338c0-1.212 3.102-2.626 3.102-4.338zM4.753 1.862c0.557-0.351 1.6-0.866 3.291-0.866s3.205 0.866 3.205 0.866c0.114 0.069 0.558 0.306 0.254 0.487-0.67 0.398-1.982 0.816-3.502 0.816s-2.787-0.461-3.459-0.859c-0.305-0.18 0.212-0.444 0.212-0.444zM8.401 8c0 0.954 0.797 1.569 1.641 2.389 0.617 0.598 1.461 1.418 1.461 1.948v1.062c-0.776-0.386-3.098-0.764-3.098-2.003 0-0.626-0.81-0.626-0.81 0 0 1.239-2.322 1.617-3.098 2.003v-1.062c0-0.53 0.845-1.35 1.461-1.948 0.844-0.82 1.641-1.434 1.641-2.389s-0.797-1.569-1.641-2.389c-0.617-0.6-1.461-1.42-1.461-1.95l-0.037-0.798c0.821 0.442 2.122 0.862 3.54 0.862s2.725-0.42 3.546-0.862l-0.044 0.798c0 0.53-0.845 1.35-1.461 1.95-0.843 0.82-1.641 1.434-1.641 2.389z"></path>
</svg>
