<?xml version="1.0" encoding="utf-8"?>
<!-- Generated by IcoMoon.io -->
<!DOCTYPE svg PUBLIC "-//W3C//DTD SVG 1.1//EN" "http://www.w3.org/Graphics/SVG/1.1/DTD/svg11.dtd">
<svg version="1.1" xmlns="http://www.w3.org/2000/svg" xmlns:xlink="http://www.w3.org/1999/xlink" width="16" height="16" viewBox="0 0 16 16">
<path d="M14.344 7.656v-0.656h-1.344v0.656h1.344zM14.344 6c0.531 0 1 0.469 1 1v0.656c0 0.531-0.469 1-1 1h-1.344v1.344h-1v-4h2.344zM8.344 7v-1h3v1h-1v3h-1v-3h-1zM4.656 7v-1h3v1h-1v3h-1v-3h-1zM3 7.344v-1.344h1v4h-1v-1.656h-1.344v1.656h-1v-4h1v1.344h1.344z"></path>
</svg>
