<?xml version="1.0" encoding="utf-8"?>
<!-- Generated by IcoMoon.io -->
<!DOCTYPE svg PUBLIC "-//W3C//DTD SVG 1.1//EN" "http://www.w3.org/Graphics/SVG/1.1/DTD/svg11.dtd">
<svg version="1.1" xmlns="http://www.w3.org/2000/svg" xmlns:xlink="http://www.w3.org/1999/xlink" width="16" height="16" viewBox="0 0 16 16">
<path d="M8.727 4c1.507 0 2.734 1.278 2.734 2.849 0 0.109-0.010 0.232-0.030 0.387 0 0-0.13 1.010-0.165 1.275s0.149 0.52 0.422 0.522c0.274 0.002 1.32 0.008 1.32 0.008 0.766 0.005 1.391 0.668 1.391 1.478 0 0.816-0.628 1.48-1.4 1.48h-9.666c-0.956 0-1.734-0.818-1.734-1.822 0-0.73 0.415-1.388 1.058-1.676 0 0 0.337-0.15 0.521-0.233s0.406-0.345 0.413-0.62c0.006-0.275 0.013-0.571 0.013-0.571 0.010-0.428 0.337-0.776 0.728-0.776 0.026 0 0.075 0.005 0.166 0.028 0 0 0.619 0.158 0.831 0.211s0.485-0.053 0.584-0.247c0.099-0.194 0.402-0.785 0.402-0.785 0.478-0.93 1.402-1.509 2.411-1.509zM8.727 2.4c-1.665 0-3.109 0.966-3.834 2.379-0.18-0.046-0.366-0.077-0.559-0.077-1.27 0-2.298 1.043-2.328 2.339-1.179 0.527-2.006 1.731-2.006 3.136 0 1.89 1.492 3.422 3.334 3.422h9.666c1.657 0 3-1.379 3-3.080 0-1.694-1.334-3.068-2.982-3.078 0.025-0.194 0.042-0.391 0.042-0.593 0.001-2.457-1.939-4.449-4.333-4.449v0z"></path>
</svg>
