<?xml version="1.0" encoding="utf-8"?>
<!-- Generated by IcoMoon.io -->
<!DOCTYPE svg PUBLIC "-//W3C//DTD SVG 1.1//EN" "http://www.w3.org/Graphics/SVG/1.1/DTD/svg11.dtd">
<svg version="1.1" xmlns="http://www.w3.org/2000/svg" xmlns:xlink="http://www.w3.org/1999/xlink" width="16" height="16" viewBox="0 0 16 16">
<path d="M0 2v12h16v-12h-16zM14.667 12.667h-13.333v-9.333h13.333v9.333zM9.667 8.296c0.735 0 1.333-0.597 1.333-1.333s-0.598-1.333-1.333-1.333-1.333 0.597-1.333 1.333 0.598 1.333 1.333 1.333zM9 6.296h1.333v1.333h-1.333v-1.333zM14 4h-12v8h12v-8zM2.667 8.643l4.033 1.152-4.033 0.712v-1.864zM13.333 11.333h-10.667v-0.15l10.667-1.882v2.032zM13.333 8.635l-5.333 0.995-5.333-1.653v-3.31h10.667v3.968z"></path>
</svg>
