<?xml version="1.0" encoding="utf-8"?>
<!-- Generated by IcoMoon.io -->
<!DOCTYPE svg PUBLIC "-//W3C//DTD SVG 1.1//EN" "http://www.w3.org/Graphics/SVG/1.1/DTD/svg11.dtd">
<svg version="1.1" xmlns="http://www.w3.org/2000/svg" xmlns:xlink="http://www.w3.org/1999/xlink" width="16" height="16" viewBox="0 0 16 16">
<path d="M15.2 1.6h-14.4c-0.442 0-0.8 0.358-0.8 0.8v11.2c0 0.442 0.358 0.8 0.8 0.8h14.4c0.442 0 0.8-0.358 0.8-0.8v-11.2c0-0.442-0.358-0.8-0.8-0.8zM14.4 12.8h-12.8v-9.6h12.8v9.6zM11.452 8.702l-2.585 1.284-3.016-4.881-2.651 6.095h9.6l-1.348-2.498zM10.6 7.2c0.552 0 1-0.448 1-1s-0.448-1-1-1-1 0.448-1 1 0.448 1 1 1z"></path>
</svg>
