<?xml version="1.0" encoding="utf-8"?>
<!-- Generated by IcoMoon.io -->
<!DOCTYPE svg PUBLIC "-//W3C//DTD SVG 1.1//EN" "http://www.w3.org/Graphics/SVG/1.1/DTD/svg11.dtd">
<svg version="1.1" xmlns="http://www.w3.org/2000/svg" xmlns:xlink="http://www.w3.org/1999/xlink" width="16" height="16" viewBox="0 0 16 16">
<path d="M13.344 12v-8h-10.688v8h10.688zM13.344 2.656c0.719 0 1.313 0.625 1.313 1.344v8c0 0.719-0.594 1.344-1.313 1.344h-10.688c-0.719 0-1.313-0.625-1.313-1.344v-8c0-0.719 0.594-1.344 1.313-1.344h10.688zM8 6.656v1.344h-1.344v-1.344h1.344zM5.344 6.656v1.344h-1.344v-1.344h1.344zM10.656 9.344v1.313h-1.313v-1.313h1.313zM10.656 6.656v1.344h-1.313v-1.344h1.313z"></path>
</svg>
