<?xml version="1.0" encoding="utf-8"?>
<!-- Generated by IcoMoon.io -->
<!DOCTYPE svg PUBLIC "-//W3C//DTD SVG 1.1//EN" "http://www.w3.org/Graphics/SVG/1.1/DTD/svg11.dtd">
<svg version="1.1" xmlns="http://www.w3.org/2000/svg" xmlns:xlink="http://www.w3.org/1999/xlink" width="16" height="16" viewBox="0 0 16 16">
<path d="M14.4 2.4h-12.8c-0.442 0-0.8 0.358-0.8 0.8v9.6c0 0.442 0.358 0.8 0.8 0.8h12.8c0.442 0 0.8-0.358 0.8-0.8v-9.6c0-0.442-0.358-0.8-0.8-0.8zM10.6 5.2c0.552 0 1 0.448 1 1s-0.448 1-1 1-1-0.448-1-1 0.448-1 1-1zM3.2 11.2l2.651-6.095 3.015 4.882 2.585-1.284 1.349 2.498h-9.6z"></path>
</svg>
