<?xml version="1.0" encoding="utf-8"?>
<!-- Generated by IcoMoon.io -->
<!DOCTYPE svg PUBLIC "-//W3C//DTD SVG 1.1//EN" "http://www.w3.org/Graphics/SVG/1.1/DTD/svg11.dtd">
<svg version="1.1" xmlns="http://www.w3.org/2000/svg" xmlns:xlink="http://www.w3.org/1999/xlink" width="16" height="16" viewBox="0 0 16 16">
<path d="M14 12.344v-7.688c-0.719-0.219-1.531-0.313-2.344-0.313-1.125 0-2.75 0.438-3.656 1v7.656c0.906-0.563 2.531-1 3.656-1 0.813 0 1.625 0.125 2.344 0.344zM11.656 3c1.381 0 2.836 0.345 3.688 1v9.719c0 0.156-0.188 0.344-0.344 0.344-0.063 0-0.094 0-0.156-0.031-0.938-0.5-2.094-0.688-3.188-0.688-1.125 0-2.75 0.438-3.656 1-0.969-0.719-2.344-1-3.656-1-0.969 0-2.281 0.281-3.188 0.719-0.063 0-0.094 0.031-0.156 0.031-0.156 0-0.344-0.156-0.344-0.313v-9.781c0.969-0.719 2.375-1 3.688-1s2.688 0.281 3.656 1c0.969-0.719 2.344-1 3.656-1z"></path>
</svg>
