<?xml version="1.0" encoding="utf-8"?>
<!-- Generated by IcoMoon.io -->
<!DOCTYPE svg PUBLIC "-//W3C//DTD SVG 1.1//EN" "http://www.w3.org/Graphics/SVG/1.1/DTD/svg11.dtd">
<svg version="1.1" xmlns="http://www.w3.org/2000/svg" xmlns:xlink="http://www.w3.org/1999/xlink" width="16" height="16" viewBox="0 0 16 16">
<path d="M7.969 6h2.031l-1.656 1.188 0.625 1.938-1.625-1.219-1.656 1.219 0.625-1.938-1.656-1.188h2.031l0.656-2zM13.344 1.344c0.719 0 1.313 0.563 1.313 1.313v3.344h-1.313v-3.344h-12v8h8.656v1.344h-1.344v1.344h1.344v1.313h-5.344v-1.313h1.344v-1.344h-4.656c-0.75 0-1.344-0.625-1.344-1.344v-8c0-0.75 0.594-1.313 1.344-1.313h12zM15.344 13.344v-4.688h-3.344v4.688h3.344zM15.344 7.344c0.375 0 0.656 0.281 0.656 0.656v6c0 0.375-0.281 0.656-0.656 0.656h-3.344c-0.375 0-0.656-0.281-0.656-0.656v-6c0-0.375 0.281-0.656 0.656-0.656h3.344z"></path>
</svg>
