<?xml version="1.0" encoding="utf-8"?>
<!-- Generated by IcoMoon.io -->
<!DOCTYPE svg PUBLIC "-//W3C//DTD SVG 1.1//EN" "http://www.w3.org/Graphics/SVG/1.1/DTD/svg11.dtd">
<svg version="1.1" xmlns="http://www.w3.org/2000/svg" xmlns:xlink="http://www.w3.org/1999/xlink" width="16" height="16" viewBox="0 0 16 16">
<path d="M15.402 7.634c-0.31-0.333-1.812-1.817-2.498-2.494-0.21-0.207-0.511-0.339-0.826-0.339h-8.157c-0.315 0-0.616 0.132-0.826 0.339-0.686 0.678-2.187 2.161-2.498 2.494-0.388 0.417-0.578 0.722-0.499 1.159s0.373 2.123 0.445 2.459c0.070 0.335 0.547 0.748 0.992 0.748h12.93c0.445 0 0.922-0.413 0.993-0.748s0.366-2.022 0.445-2.459-0.111-0.743-0.5-1.159zM11.211 8.002c-0.081 0-0.154 0.042-0.19 0.106l-0.648 1.491h-4.746l-0.647-1.491c-0.036-0.065-0.11-0.106-0.19-0.106h-2.811l1.618-1.602h8.808l1.618 1.602h-2.811z"></path>
</svg>
