<?xml version="1.0" encoding="utf-8"?>
<!-- Generated by IcoMoon.io -->
<!DOCTYPE svg PUBLIC "-//W3C//DTD SVG 1.1//EN" "http://www.w3.org/Graphics/SVG/1.1/DTD/svg11.dtd">
<svg version="1.1" xmlns="http://www.w3.org/2000/svg" xmlns:xlink="http://www.w3.org/1999/xlink" width="16" height="16" viewBox="0 0 16 16">
<path d="M12.722 4.48c-1.663 0-3.486 0.926-4.722 2.333-1.236-1.406-3.060-2.333-4.723-2.333-1.584 0-3.277 0.925-3.277 3.52s1.693 3.518 3.277 3.52v0c1.663 0 3.486-0.926 4.722-2.333 1.235 1.406 3.058 2.333 4.722 2.333 1.585 0 3.279-0.925 3.279-3.52s-1.694-3.52-3.278-3.52zM3.277 10.113c-1.21 0-1.837-0.711-1.837-2.113s0.627-2.113 1.837-2.113c1.338 0 2.891 0.869 3.846 2.113-0.954 1.244-2.507 2.113-3.846 2.113zM12.722 10.113c-1.338 0-2.891-0.869-3.846-2.113 0.954-1.244 2.508-2.113 3.846-2.113 1.21 0 1.838 0.711 1.838 2.113s-0.629 2.113-1.838 2.113z"></path>
</svg>
