<?xml version="1.0" encoding="utf-8"?>
<!-- Generated by IcoMoon.io -->
<!DOCTYPE svg PUBLIC "-//W3C//DTD SVG 1.1//EN" "http://www.w3.org/Graphics/SVG/1.1/DTD/svg11.dtd">
<svg version="1.1" xmlns="http://www.w3.org/2000/svg" xmlns:xlink="http://www.w3.org/1999/xlink" width="16" height="16" viewBox="0 0 16 16">
<path d="M8 0.32c-4.242 0-7.681 3.438-7.681 7.68s3.438 7.681 7.681 7.681c4.241 0 7.68-3.438 7.68-7.681s-3.439-7.68-7.68-7.68zM8.717 3.093c0.749 0 0.969 0.434 0.969 0.931 0 0.62-0.496 1.194-1.343 1.194-0.709 0-1.046-0.356-1.026-0.946 0-0.497 0.415-1.179 1.4-1.179zM6.798 12.6c-0.512 0-0.886-0.311-0.528-1.675l0.586-2.42c0.102-0.387 0.118-0.542 0-0.542-0.153 0-0.818 0.267-1.21 0.531l-0.255-0.418c1.244-1.039 2.674-1.649 3.286-1.649 0.512 0 0.597 0.605 0.342 1.536l-0.672 2.544c-0.119 0.45-0.068 0.605 0.051 0.605 0.154 0 0.656-0.186 1.15-0.575l0.29 0.389c-1.21 1.21-2.53 1.675-3.041 1.675z"></path>
</svg>
