<?xml version="1.0" encoding="utf-8"?>
<!-- Generated by IcoMoon.io -->
<!DOCTYPE svg PUBLIC "-//W3C//DTD SVG 1.1//EN" "http://www.w3.org/Graphics/SVG/1.1/DTD/svg11.dtd">
<svg version="1.1" xmlns="http://www.w3.org/2000/svg" xmlns:xlink="http://www.w3.org/1999/xlink" width="16" height="16" viewBox="0 0 16 16">
<path d="M13.6 0.8h-11.2c-0.88 0-1.6 0.72-1.6 1.6v11.2c0 0.881 0.72 1.6 1.6 1.6h11.2c0.88 0 1.6-0.719 1.6-1.6v-11.2c0-0.88-0.72-1.6-1.6-1.6zM7.987 12.418c2.447 0 4.43-1.985 4.43-4.431 0-0.27-0.034-0.531-0.082-0.787h1.265v5.773c0 0.306-0.248 0.552-0.554 0.552h-10.091c-0.306 0-0.554-0.246-0.554-0.552v-5.773h1.239c-0.049 0.256-0.083 0.517-0.083 0.787 0 2.447 1.985 4.431 4.431 4.431zM5.218 7.987c0-1.53 1.24-2.769 2.77-2.769s2.77 1.239 2.77 2.769-1.241 2.77-2.77 2.77c-1.53 0-2.77-1.24-2.77-2.77zM13.046 4.8h-1.292c-0.306 0-0.554-0.25-0.554-0.554v-1.294c0-0.306 0.248-0.553 0.553-0.553h1.292c0.307 0 0.555 0.247 0.555 0.553v1.293c0 0.305-0.248 0.554-0.554 0.554z"></path>
</svg>
