<?xml version="1.0" encoding="utf-8"?>
<!-- Generated by IcoMoon.io -->
<!DOCTYPE svg PUBLIC "-//W3C//DTD SVG 1.1//EN" "http://www.w3.org/Graphics/SVG/1.1/DTD/svg11.dtd">
<svg version="1.1" xmlns="http://www.w3.org/2000/svg" xmlns:xlink="http://www.w3.org/1999/xlink" width="16" height="16" viewBox="0 0 16 16">
<path d="M10.4 8c0 1.326-1.074 2.4-2.4 2.4s-2.4-1.074-2.4-2.4c0-0.137 0.014-0.27 0.039-0.4h-0.839v3.198c0 0.222 0.18 0.402 0.402 0.402h5.596c0.222 0 0.402-0.18 0.402-0.402v-3.198h-0.839c0.025 0.13 0.039 0.263 0.039 0.4zM8 9.6c0.883 0 1.6-0.717 1.6-1.6s-0.717-1.6-1.6-1.6-1.6 0.717-1.6 1.6 0.717 1.6 1.6 1.6zM9.92 6.32h0.959c0.133 0 0.241-0.108 0.241-0.24v-0.959c0-0.133-0.108-0.241-0.241-0.241h-0.959c-0.133 0-0.241 0.108-0.241 0.241v0.959c0.001 0.132 0.109 0.24 0.241 0.24zM8 0.32c-4.242 0-7.68 3.438-7.68 7.68s3.438 7.68 7.68 7.68c4.242 0 7.68-3.438 7.68-7.68s-3.438-7.68-7.68-7.68zM12 11.111c0 0.489-0.4 0.889-0.889 0.889h-6.222c-0.489 0-0.889-0.4-0.889-0.889v-6.222c0-0.489 0.4-0.889 0.889-0.889h6.222c0.489 0 0.889 0.4 0.889 0.889v6.222z"></path>
</svg>
