<?xml version="1.0" encoding="utf-8"?>
<!-- Generated by IcoMoon.io -->
<!DOCTYPE svg PUBLIC "-//W3C//DTD SVG 1.1//EN" "http://www.w3.org/Graphics/SVG/1.1/DTD/svg11.dtd">
<svg version="1.1" xmlns="http://www.w3.org/2000/svg" xmlns:xlink="http://www.w3.org/1999/xlink" width="16" height="16" viewBox="0 0 16 16">
<path d="M8 3.406l-1.531 1.5-0.938-0.938 2.469-2.469 3.781 3.781c1.625 1.625 1.969 4.031 1.063 6l-4.844-4.813v-3.063zM8 13.063v-3.219l-3.188-3.188c-0.531 0.688-0.813 1.531-0.813 2.406 0 2.15 1.85 4 4 4zM13.781 13.906l0.219 0.25-0.844 0.844-1.813-1.813c-0.969 0.781-2.156 1.188-3.344 1.188-1.375 0-2.75-0.531-3.781-1.563-1.938-1.969-2.063-5.031-0.375-7.125l-1.844-1.844 0.844-0.844c3.64 3.64 7.261 7.302 10.938 10.906z"></path>
</svg>
