<?xml version="1.0" encoding="utf-8"?>
<!-- Generated by IcoMoon.io -->
<!DOCTYPE svg PUBLIC "-//W3C//DTD SVG 1.1//EN" "http://www.w3.org/Graphics/SVG/1.1/DTD/svg11.dtd">
<svg version="1.1" xmlns="http://www.w3.org/2000/svg" xmlns:xlink="http://www.w3.org/1999/xlink" width="16" height="16" viewBox="0 0 16 16">
<path d="M14.88 3.2h-13.76c-0.617 0-1.12 0.503-1.12 1.12v7.36c0 0.615 0.503 1.12 1.119 1.12h13.76c0.616 0 1.12-0.505 1.12-1.12v-7.36c0.001-0.617-0.504-1.12-1.119-1.12zM8.8 4.8h1.6v1.6h-1.6v-1.6zM11.2 7.2v1.6h-1.6v-1.6h1.6zM6.4 4.8h1.6v1.6h-1.6v-1.6zM8.8 7.2v1.6h-1.6v-1.6h1.6zM4 4.8h1.6v1.6h-1.6v-1.6zM6.4 7.2v1.6h-1.6v-1.6h1.6zM1.6 4.8h1.6v1.6h-1.6v-1.6zM4 7.2v1.6h-1.6v-1.6h1.6zM3.2 11.2h-1.6v-1.6h1.6v1.6zM12 11.2h-8v-1.6h8v1.6zM14.4 11.2h-1.6v-1.6h1.6v1.6zM12 8.8v-1.6h1.6v1.6h-1.6zM14.4 6.4h-3.2v-1.6h3.2v1.6z"></path>
</svg>
