<?xml version="1.0" encoding="utf-8"?>
<!-- Generated by IcoMoon.io -->
<!DOCTYPE svg PUBLIC "-//W3C//DTD SVG 1.1//EN" "http://www.w3.org/Graphics/SVG/1.1/DTD/svg11.dtd">
<svg version="1.1" xmlns="http://www.w3.org/2000/svg" xmlns:xlink="http://www.w3.org/1999/xlink" width="16" height="16" viewBox="0 0 16 16">
<path d="M12.656 6.656v-1.313h-1.313v1.313h1.313zM12.656 8.656v-1.313h-1.313v1.313h1.313zM10.656 6.656v-1.313h-1.313v1.313h1.313zM10.656 8.656v-1.313h-1.313v1.313h1.313zM10.656 11.344v-1.344h-5.313v1.344h5.313zM4.656 6.656v-1.313h-1.313v1.313h1.313zM4.656 8.656v-1.313h-1.313v1.313h1.313zM5.344 7.344v1.313h1.313v-1.313h-1.313zM5.344 5.344v1.313h1.313v-1.313h-1.313zM7.344 7.344v1.313h1.313v-1.313h-1.313zM7.344 5.344v1.313h1.313v-1.313h-1.313zM13.344 3.344c0.719 0 1.313 0.594 1.313 1.313v6.688c0 0.719-0.594 1.313-1.313 1.313h-10.688c-0.719 0-1.313-0.594-1.313-1.313v-6.688c0-0.719 0.594-1.313 1.313-1.313h10.688z"></path>
</svg>
