<?xml version="1.0" encoding="utf-8"?>
<!-- Generated by IcoMoon.io -->
<!DOCTYPE svg PUBLIC "-//W3C//DTD SVG 1.1//EN" "http://www.w3.org/Graphics/SVG/1.1/DTD/svg11.dtd">
<svg version="1.1" xmlns="http://www.w3.org/2000/svg" xmlns:xlink="http://www.w3.org/1999/xlink" width="16" height="16" viewBox="0 0 16 16">
<path d="M8 15.344l-2.656-2.688h5.313zM12.656 5.344v-1.344h-1.313v1.344h1.313zM12.656 7.344v-1.344h-1.313v1.344h1.313zM10.656 5.344v-1.344h-1.313v1.344h1.313zM10.656 7.344v-1.344h-1.313v1.344h1.313zM10.656 10v-1.344h-5.313v1.344h5.313zM4.656 5.344v-1.344h-1.313v1.344h1.313zM4.656 7.344v-1.344h-1.313v1.344h1.313zM5.344 6v1.344h1.313v-1.344h-1.313zM5.344 4v1.344h1.313v-1.344h-1.313zM7.344 6v1.344h1.313v-1.344h-1.313zM7.344 4v1.344h1.313v-1.344h-1.313zM13.344 2c0.719 0 1.313 0.625 1.313 1.344v6.656c0 0.719-0.594 1.344-1.313 1.344h-10.688c-0.719 0-1.313-0.625-1.313-1.344v-6.656c0-0.719 0.594-1.344 1.313-1.344h10.688z"></path>
</svg>
