<?xml version="1.0" encoding="utf-8"?>
<!-- Generated by IcoMoon.io -->
<!DOCTYPE svg PUBLIC "-//W3C//DTD SVG 1.1//EN" "http://www.w3.org/Graphics/SVG/1.1/DTD/svg11.dtd">
<svg version="1.1" xmlns="http://www.w3.org/2000/svg" xmlns:xlink="http://www.w3.org/1999/xlink" width="16" height="16" viewBox="0 0 16 16">
<path d="M13.146 12c-1.636-4.086-3.546-5.162-3.546-7.2v-2.4h0.4c0.221 0 0.4-0.179 0.4-0.4v-0.8c0-0.221-0.179-0.4-0.4-0.4h-4c-0.221 0-0.4 0.179-0.4 0.4v0.8c0 0.221 0.179 0.4 0.4 0.4h0.4v2.4c0 2.038-1.91 3.114-3.546 7.2-0.521 1.3-1.858 3.2 5.146 3.2s5.666-1.9 5.146-3.2zM11.852 13.401c-0.562 0.168-1.679 0.359-3.852 0.359s-3.29-0.191-3.852-0.359c-0.199-0.059-0.277-0.29-0.206-0.502 0.176-0.536 0.508-1.462 1.129-2.497 1.517-2.527 3.090 0.398 4.4 0.398s0.95-1.249 1.459-0.398c0.619 1.035 0.953 1.961 1.129 2.497 0.070 0.212-0.007 0.442-0.206 0.502z"></path>
</svg>
