<?xml version="1.0" encoding="utf-8"?>
<!-- Generated by IcoMoon.io -->
<!DOCTYPE svg PUBLIC "-//W3C//DTD SVG 1.1//EN" "http://www.w3.org/Graphics/SVG/1.1/DTD/svg11.dtd">
<svg version="1.1" xmlns="http://www.w3.org/2000/svg" xmlns:xlink="http://www.w3.org/1999/xlink" width="16" height="16" viewBox="0 0 16 16">
<path d="M13.998 11.161c0 0-4.657-4.674-4.666-5.161v-0.668h1.336v-4h-6.001v4h1.333l0.003 0.668c-0.009 0.487-4.666 5.161-4.666 5.161-0.878 0.985-0.694 1.791-0.538 2.155s0.753 1.351 1.185 1.351h11.368c0.432 0 1.028-0.986 1.184-1.35s0.341-1.17-0.537-2.155zM13.311 12.791c-0.059 0.136-0.208 0.379-0.333 0.542h-10.62c-0.125-0.163-0.275-0.406-0.333-0.542-0.096-0.223 0.128-0.536 0.285-0.717 5.009-5.028 5.016-5.479 5.026-6.073v-1.999l-1.338-0.001 0.002-1.332h3.332l0.002 1.332h-1.334l-0.001 2.023c0.010 0.571 0.017 1.023 5.026 6.051 0.157 0.181 0.38 0.495 0.285 0.717zM8 8h-0.668l-4 4v0.668h8.668v-0.668l-4-4zM6.668 10l0.664-1.332h0.668l0.668 1.332h-2z"></path>
</svg>
