<?xml version="1.0" encoding="utf-8"?>
<!-- Generated by IcoMoon.io -->
<!DOCTYPE svg PUBLIC "-//W3C//DTD SVG 1.1//EN" "http://www.w3.org/Graphics/SVG/1.1/DTD/svg11.dtd">
<svg version="1.1" xmlns="http://www.w3.org/2000/svg" xmlns:xlink="http://www.w3.org/1999/xlink" width="16" height="16" viewBox="0 0 16 16">
<path d="M3.922 0.2c-1.123-0.222-2.23 0.5-2.455 1.618-0.884 4.364-0.884 7.998 0 12.363 0.198 0.98 1.070 1.658 2.044 1.658 0.136 0 0.274-0.013 0.412-0.040 1.13-0.223 1.863-1.31 1.637-2.429-0.782-3.866-0.782-6.878 0-10.744 0.226-1.117-0.508-2.204-1.638-2.427zM13.6 1.6h-6.851c0.058 0.374 0.065 0.761-0.014 1.152-0.749 3.776-0.749 6.718 0 10.496 0.078 0.392 0.072 0.778 0.014 1.152h6.851c0.88 0 1.6-0.72 1.6-1.6v-9.6c0-0.88-0.719-1.6-1.6-1.6zM9.6 11.6c-0.662 0-1.2-0.538-1.2-1.2s0.538-1.2 1.2-1.2 1.2 0.538 1.2 1.2-0.538 1.2-1.2 1.2zM13.6 7.2h-5.6v-3.2h5.6v3.2z"></path>
</svg>
