<?xml version="1.0" encoding="utf-8"?>
<!-- Generated by IcoMoon.io -->
<!DOCTYPE svg PUBLIC "-//W3C//DTD SVG 1.1//EN" "http://www.w3.org/Graphics/SVG/1.1/DTD/svg11.dtd">
<svg version="1.1" xmlns="http://www.w3.org/2000/svg" xmlns:xlink="http://www.w3.org/1999/xlink" width="16" height="16" viewBox="0 0 16 16">
<path d="M10.906 9.344h2.25c0.094-0.438 0.188-0.875 0.188-1.344s-0.094-0.906-0.188-1.344h-2.25c0.063 0.438 0.094 0.875 0.094 1.344s-0.031 0.906-0.094 1.344zM9.719 13.031c1.219-0.406 2.281-1.281 2.906-2.375h-1.969c-0.219 0.844-0.531 1.625-0.938 2.375zM9.563 9.344c0.063-0.438 0.094-0.875 0.094-1.344s-0.031-0.906-0.094-1.344h-3.125c-0.063 0.438-0.094 0.875-0.094 1.344s0.031 0.906 0.094 1.344h3.125zM8 13.313c0.563-0.813 1-1.688 1.281-2.656h-2.563c0.281 0.969 0.719 1.844 1.281 2.656zM5.344 5.344c0.219-0.844 0.531-1.625 0.938-2.375-1.219 0.406-2.281 1.281-2.906 2.375h1.969zM3.375 10.656c0.625 1.094 1.688 1.969 2.906 2.375-0.406-0.75-0.719-1.531-0.938-2.375h-1.969zM2.844 9.344h2.25c-0.063-0.438-0.094-0.875-0.094-1.344s0.031-0.906 0.094-1.344h-2.25c-0.094 0.438-0.188 0.875-0.188 1.344s0.094 0.906 0.188 1.344zM8 2.688c-0.563 0.813-1 1.688-1.281 2.656h2.563c-0.281-0.969-0.719-1.844-1.281-2.656zM12.625 5.344c-0.625-1.094-1.688-1.969-2.906-2.375 0.406 0.75 0.719 1.531 0.938 2.375h1.969zM8 1.344c3.688 0 6.656 2.969 6.656 6.656s-2.969 6.656-6.656 6.656-6.656-2.969-6.656-6.656 2.969-6.656 6.656-6.656z"></path>
</svg>
