<?xml version="1.0" encoding="utf-8"?>
<!-- Generated by IcoMoon.io -->
<!DOCTYPE svg PUBLIC "-//W3C//DTD SVG 1.1//EN" "http://www.w3.org/Graphics/SVG/1.1/DTD/svg11.dtd">
<svg version="1.1" xmlns="http://www.w3.org/2000/svg" xmlns:xlink="http://www.w3.org/1999/xlink" width="16" height="16" viewBox="0 0 16 16">
<path d="M15.802 8.727c-0.499-1.366-1.893-2.181-3.729-2.181-0.072 0-0.141 0.002-0.21 0.005l-0.013-1.65c0 0 2.728-0.47 2.82-0.486s0.106-0.095 0.087-0.185c-0.018-0.089-0.134-0.706-0.15-0.781-0.022-0.105-0.082-0.102-0.166-0.087s-2.6 0.369-2.6 0.369-0.010-1.562-0.010-1.662c-0.001-0.1-0.055-0.126-0.155-0.125s-0.736 0.011-0.82 0.013c-0.084 0.002-0.131 0.039-0.13 0.118s0.026 1.846 0.026 1.846-2.449 0.422-2.515 0.434c-0.067 0.011-0.136 0.042-0.121 0.114s0.152 0.875 0.166 0.938c0.014 0.064 0.058 0.103 0.15 0.086 0.092-0.015 2.339-0.403 2.339-0.403l0.028 1.614c-0.862 0.225-1.441 0.659-1.805 1.042-0.614 0.646-0.966 1.51-0.966 2.37 0 1.269 0.777 2.023 1.862 2.156 2.53 0.31 4.095-2.448 4.615-3.772 0.878 1.205 0.205 3.483-1.675 4.784-0.034 0.023-0.078 0.103-0.026 0.166s0.433 0.53 0.495 0.605c0.064 0.077 0.165 0.047 0.205 0.018 2.008-1.384 2.929-3.612 2.295-5.346zM9.894 11.278c-0.773-0.097-0.755-0.731-0.755-1.162 0-0.618 0.262-1.264 0.701-1.725 0.268-0.283 0.6-0.497 0.983-0.639l0.066 3.422c-0.308 0.105-0.639 0.148-0.994 0.105zM11.835 10.835l0.037-3.287c0.067-0.003 0.133-0.008 0.202-0.008 0.618 0 1.195 0.116 1.508 0.289s-0.818 2.17-1.746 3.006zM4.675 4.701c-0.024-0.075-0.082-0.116-0.157-0.116h-1.56c-0.074 0-0.132 0.041-0.155 0.115-0.33 1.039-2.784 8.792-2.797 8.833s-0.009 0.061 0.050 0.061h1.386c0.060 0 0.079-0.018 0.091-0.058 0.012-0.041 0.806-2.654 0.806-2.654h2.797c0 0 0.794 2.614 0.806 2.654s0.031 0.058 0.090 0.058h1.387c0.058 0 0.062-0.020 0.050-0.061-0.011-0.040-2.466-7.793-2.795-8.832zM2.581 9.755l1.158-4.2 1.158 4.2h-2.315z"></path>
</svg>
