<?xml version="1.0" encoding="utf-8"?>
<!-- Generated by IcoMoon.io -->
<!DOCTYPE svg PUBLIC "-//W3C//DTD SVG 1.1//EN" "http://www.w3.org/Graphics/SVG/1.1/DTD/svg11.dtd">
<svg version="1.1" xmlns="http://www.w3.org/2000/svg" xmlns:xlink="http://www.w3.org/1999/xlink" width="16" height="16" viewBox="0 0 16 16">
<path d="M15.803 12.505c-0.198-0.297-1.403-2.105-1.403-2.105v-7.2c0-0.882-0.72-1.6-1.6-1.6h-9.6c-0.881 0-1.6 0.718-1.6 1.6v7.2c0 0-1.206 1.808-1.403 2.105-0.197 0.295-0.197 0.466-0.197 0.695v0.4c0 0.4 0.4 0.8 0.799 0.8h14.402c0.399 0 0.799-0.4 0.799-0.8v-0.4c0-0.23 0-0.4-0.197-0.695zM5.6 12.8l0.48-0.8h3.84l0.48 0.8h-4.8zM12.8 9.6h-9.6v-6.4h9.6v6.4z"></path>
</svg>
