<?xml version="1.0" encoding="utf-8"?>
<!-- Generated by IcoMoon.io -->
<!DOCTYPE svg PUBLIC "-//W3C//DTD SVG 1.1//EN" "http://www.w3.org/Graphics/SVG/1.1/DTD/svg11.dtd">
<svg version="1.1" xmlns="http://www.w3.org/2000/svg" xmlns:xlink="http://www.w3.org/1999/xlink" width="16" height="16" viewBox="0 0 16 16">
<path d="M8 12.656c0.375 0 0.656-0.281 0.656-0.656s-0.281-0.656-0.656-0.656-0.656 0.281-0.656 0.656 0.281 0.656 0.656 0.656zM2.656 3.344v7.313h10.688v-7.313h-10.688zM13.344 12h2.656c0 0.719-0.625 1.344-1.344 1.344h-13.313c-0.719 0-1.344-0.625-1.344-1.344h2.656c-0.719 0-1.313-0.625-1.313-1.344v-7.313c0-0.719 0.594-1.344 1.313-1.344h10.688c0.719 0 1.313 0.625 1.313 1.344v7.313c0 0.719-0.594 1.344-1.313 1.344z"></path>
</svg>
