<?xml version="1.0" encoding="utf-8"?>
<!-- Generated by IcoMoon.io -->
<!DOCTYPE svg PUBLIC "-//W3C//DTD SVG 1.1//EN" "http://www.w3.org/Graphics/SVG/1.1/DTD/svg11.dtd">
<svg version="1.1" xmlns="http://www.w3.org/2000/svg" xmlns:xlink="http://www.w3.org/1999/xlink" width="16" height="16" viewBox="0 0 16 16">
<path d="M8 0.32c-4.242 0-7.68 3.438-7.68 7.68s3.438 7.68 7.68 7.68 7.68-3.438 7.68-7.68-3.438-7.68-7.68-7.68zM10.115 10.264c-1.602 0-2.158-0.728-2.453-1.634l-0.297-0.933c-0.222-0.681-0.401-1.174-1.215-1.174-0.565 0-1.301 0.37-1.301 1.518 0 0.895 0.616 1.456 1.254 1.456 0.542 0 0.867-0.305 1.037-0.458l0.283 0.81c-0.193 0.139-0.587 0.414-1.366 0.414-1.077 0-2.1-0.766-2.1-2.184 0-1.475 1.066-2.344 2.164-2.344 1.232 0 1.69 0.448 2.080 1.662l0.306 0.933c0.222 0.682 0.692 1.177 1.627 1.177 0.63 0 0.963-0.141 0.963-0.486 0-0.27-0.158-0.467-0.63-0.578l-0.63-0.15c-0.769-0.186-1.074-0.587-1.074-1.223 0-1.017 0.814-1.334 1.649-1.334 0.945 0 1.518 0.346 1.592 1.186l-0.926 0.111c-0.037-0.4-0.278-0.569-0.722-0.569-0.407 0-0.657 0.187-0.657 0.505 0 0.28 0.12 0.447 0.528 0.541l0.592 0.131c0.796 0.186 1.222 0.578 1.222 1.334-0.001 0.935-0.779 1.29-1.928 1.29z"></path>
</svg>
