<?xml version="1.0" encoding="utf-8"?>
<!-- Generated by IcoMoon.io -->
<!DOCTYPE svg PUBLIC "-//W3C//DTD SVG 1.1//EN" "http://www.w3.org/Graphics/SVG/1.1/DTD/svg11.dtd">
<svg version="1.1" xmlns="http://www.w3.org/2000/svg" xmlns:xlink="http://www.w3.org/1999/xlink" width="16" height="16" viewBox="0 0 16 16">
<path d="M6.859 11.661c-0.382 0.278-1.164 0.819-2.705 0.819-2.129 0-4.154-1.514-4.154-4.324 0-2.918 2.11-4.636 4.283-4.636 2.438 0 3.346 0.886 4.115 3.287l0.605 1.847c0.441 1.35 1.37 2.328 3.221 2.328 1.246 0 1.906-0.277 1.906-0.959 0-0.536-0.311-0.925-1.246-1.147l-1.247-0.295c-1.52-0.369-2.125-1.164-2.125-2.42 0-2.013 1.613-2.641 3.262-2.641 1.87 0 3.006 0.683 3.152 2.346l-1.833 0.222c-0.074-0.794-0.55-1.126-1.43-1.126-0.806 0-1.302 0.369-1.302 0.997 0 0.554 0.239 0.887 1.046 1.072l1.173 0.259c1.576 0.369 2.42 1.146 2.42 2.642 0 1.847-1.539 2.549-3.813 2.549-3.17 0-4.27-1.441-4.856-3.233l-0.587-1.847c-0.439-1.35-0.792-2.322-2.405-2.322-1.118 0-2.575 0.733-2.575 3.005 0 1.774 1.218 2.883 2.483 2.883 1.072 0 1.717-0.603 2.051-0.905l0.561 1.599z"></path>
</svg>
