<?xml version="1.0" encoding="utf-8"?>
<!-- Generated by IcoMoon.io -->
<!DOCTYPE svg PUBLIC "-//W3C//DTD SVG 1.1//EN" "http://www.w3.org/Graphics/SVG/1.1/DTD/svg11.dtd">
<svg version="1.1" xmlns="http://www.w3.org/2000/svg" xmlns:xlink="http://www.w3.org/1999/xlink" width="16" height="16" viewBox="0 0 16 16">
<path d="M7.398 9.281c0.36 0.25 0.84 0.25 1.2 0l7.27-4.225c0.189-0.131 0.168-0.414-0.038-0.517l-7.364-2.83c-0.294-0.146-0.642-0.146-0.936 0l-7.364 2.83c-0.206 0.102-0.227 0.386-0.038 0.517l7.27 4.225zM15.83 8.649l-1.989-0.986-4.58 2.662c-0.375 0.247-0.811 0.377-1.263 0.377s-0.888-0.13-1.263-0.377l-4.577-2.663-1.992 0.987c-0.206 0.102-0.227 0.386-0.038 0.517l7.27 5.047c0.36 0.25 0.84 0.25 1.2 0l7.27-5.047c0.189-0.13 0.168-0.414-0.038-0.516z"></path>
</svg>
