<?xml version="1.0" encoding="utf-8"?>
<!-- Generated by IcoMoon.io -->
<!DOCTYPE svg PUBLIC "-//W3C//DTD SVG 1.1//EN" "http://www.w3.org/Graphics/SVG/1.1/DTD/svg11.dtd">
<svg version="1.1" xmlns="http://www.w3.org/2000/svg" xmlns:xlink="http://www.w3.org/1999/xlink" width="16" height="16" viewBox="0 0 16 16">
<path d="M9.344 14c0-2.594 2.063-4.656 4.656-4.656v1.313c-1.844 0-3.344 1.5-3.344 3.344h-1.313zM12 14c0-1.094 0.906-2 2-2v2h-2zM6.656 14c0-4.031 3.313-7.344 7.344-7.344v1.344c-3.313 0-6 2.688-6 6h-1.344zM6.656 2c0 2.594-2.063 4.656-4.656 4.656v-1.313c1.844 0 3.344-1.5 3.344-3.344h1.313zM9.344 2c0 4.031-3.281 7.344-7.344 7.344v-1.344c3.313 0 6-2.688 6-6h1.344zM4 2c0 1.094-0.906 2-2 2v-2h2z"></path>
</svg>
