<?xml version="1.0" encoding="utf-8"?>
<!-- Generated by IcoMoon.io -->
<!DOCTYPE svg PUBLIC "-//W3C//DTD SVG 1.1//EN" "http://www.w3.org/Graphics/SVG/1.1/DTD/svg11.dtd">
<svg version="1.1" xmlns="http://www.w3.org/2000/svg" xmlns:xlink="http://www.w3.org/1999/xlink" width="16" height="16" viewBox="0 0 16 16">
<path d="M10.25 7.719c1.094-0.656 2.375-1.063 3.75-1.063v1.344c-1 0-1.938 0.25-2.781 0.688zM13.281 10.75l-1.063-1.063c0.531-0.219 1.156-0.344 1.781-0.344v1.313c-0.25 0-0.5 0.031-0.719 0.094zM9.344 2c0 1.375-0.406 2.656-1.063 3.75l-0.969-0.969c0.438-0.844 0.688-1.781 0.688-2.781h1.344zM2 2.844l0.844-0.844 11.156 11.156-0.844 0.844-1.906-1.906c-0.375 0.531-0.594 1.188-0.594 1.906h-1.313c0-1.063 0.375-2.063 0.969-2.844l-0.969-0.938c-0.844 1.031-1.344 2.344-1.344 3.781h-1.344c0-1.813 0.656-3.469 1.75-4.75l-1.656-1.656c-1.281 1.094-2.938 1.75-4.75 1.75v-1.344c1.438 0 2.781-0.5 3.813-1.344l-0.969-0.969c-0.781 0.594-1.781 0.969-2.844 0.969v-1.313c0.719 0 1.375-0.219 1.906-0.594zM6.656 2c0 0.625-0.125 1.25-0.344 1.781l-1.063-1.063c0.063-0.219 0.094-0.469 0.094-0.719h1.313z"></path>
</svg>
