<?xml version="1.0" encoding="utf-8"?>
<!-- Generated by IcoMoon.io -->
<!DOCTYPE svg PUBLIC "-//W3C//DTD SVG 1.1//EN" "http://www.w3.org/Graphics/SVG/1.1/DTD/svg11.dtd">
<svg version="1.1" xmlns="http://www.w3.org/2000/svg" xmlns:xlink="http://www.w3.org/1999/xlink" width="16" height="16" viewBox="0 0 16 16">
<path d="M13.43 2.57c-2.999-2.999-7.862-2.999-10.86 0-3 3-3 7.862-0.002 10.861 3 3 7.862 3 10.862 0 2.998-2.999 2.998-7.862-0.001-10.861zM5.398 10.602c-1.438-1.438-1.438-3.767 0-5.204 1.436-1.437 3.767-1.437 5.205 0s1.436 3.767 0 5.204c-1.438 1.438-3.767 1.438-5.205 0zM12.278 10.303c0.774-1.439 0.775-3.167 0-4.607l1.426-0.768c1.031 1.913 1.031 4.232 0.002 6.142l-1.428-0.767zM11.071 2.295l-0.769 1.427c-1.439-0.774-3.167-0.774-4.605 0l-0.769-1.426c1.912-1.030 4.23-1.030 6.142-0.001zM2.296 4.928l1.427 0.769c-0.774 1.438-0.774 3.166-0.001 4.605l-1.427 0.769c-1.030-1.911-1.030-4.23 0.001-6.142zM4.927 13.703l0.769-1.426c1.439 0.775 3.168 0.775 4.607 0l0.769 1.428c-1.914 1.030-4.232 1.030-6.145-0.002z"></path>
</svg>
