<?xml version="1.0" encoding="utf-8"?>
<!-- Generated by IcoMoon.io -->
<!DOCTYPE svg PUBLIC "-//W3C//DTD SVG 1.1//EN" "http://www.w3.org/Graphics/SVG/1.1/DTD/svg11.dtd">
<svg version="1.1" xmlns="http://www.w3.org/2000/svg" xmlns:xlink="http://www.w3.org/1999/xlink" width="16" height="16" viewBox="0 0 16 16">
<path d="M9.906 8.719c0.906-0.625 1.438-1.625 1.438-2.719 0-1.844-1.5-3.344-3.344-3.344s-3.344 1.5-3.344 3.344c0 1.094 0.531 2.094 1.438 2.719l0.563 0.406v1.531h2.688v-1.531zM8 1.344c2.563 0 4.656 2.094 4.656 4.656 0 1.594-0.781 2.969-2 3.813v1.531c0 0.375-0.281 0.656-0.656 0.656h-4c-0.375 0-0.656-0.281-0.656-0.656v-1.531c-1.219-0.844-2-2.219-2-3.813 0-2.563 2.094-4.656 4.656-4.656zM6 14v-0.656h4v0.656c0 0.375-0.281 0.656-0.656 0.656h-2.688c-0.375 0-0.656-0.281-0.656-0.656z"></path>
</svg>
