<?xml version="1.0" encoding="utf-8"?>
<!-- Generated by IcoMoon.io -->
<!DOCTYPE svg PUBLIC "-//W3C//DTD SVG 1.1//EN" "http://www.w3.org/Graphics/SVG/1.1/DTD/svg11.dtd">
<svg version="1.1" xmlns="http://www.w3.org/2000/svg" xmlns:xlink="http://www.w3.org/1999/xlink" width="16" height="16" viewBox="0 0 16 16">
<path d="M8 5.438c-1.42 0-2.56 1.141-2.56 2.561 0 1.418 1.14 2.559 2.56 2.559s2.559-1.141 2.559-2.559c0-1.42-1.14-2.561-2.559-2.561zM8 9.638c-0.906 0-1.641-0.733-1.641-1.639s0.734-1.641 1.641-1.641c0.906 0 1.64 0.734 1.64 1.641s-0.735 1.639-1.64 1.639zM12 4c-0.25-0.25-0.706-0.198-1.018 0.114s-0.362 0.767-0.113 1.018 0.706 0.2 1.018-0.113c0.312-0.312 0.362-0.769 0.113-1.018zM4.114 10.983c-0.313 0.312-0.363 0.767-0.114 1.017s0.706 0.2 1.018-0.113c0.313-0.313 0.363-0.769 0.114-1.018s-0.706-0.198-1.018 0.114zM4 4c-0.25 0.25-0.199 0.706 0.113 1.018s0.769 0.362 1.018 0.113 0.199-0.706-0.114-1.018c-0.311-0.311-0.768-0.362-1.018-0.113zM10.982 11.886c0.312 0.313 0.768 0.364 1.018 0.114s0.199-0.706-0.114-1.019c-0.313-0.313-0.768-0.362-1.018-0.113s-0.198 0.706 0.114 1.018zM8 3.998c0.353 0 0.64-0.358 0.64-0.8s-0.287-0.798-0.64-0.798c-0.354 0-0.641 0.356-0.641 0.798s0.286 0.8 0.641 0.8zM8 13.6c0.353 0 0.64-0.358 0.64-0.8s-0.286-0.798-0.639-0.798c-0.354 0-0.641 0.356-0.641 0.798s0.286 0.8 0.64 0.8zM4 8c0-0.353-0.36-0.64-0.802-0.64s-0.798 0.287-0.798 0.64c0 0.354 0.355 0.64 0.798 0.64s0.802-0.286 0.802-0.64zM13.6 8c0-0.353-0.358-0.64-0.801-0.64s-0.799 0.287-0.799 0.64c0 0.354 0.357 0.64 0.799 0.64s0.801-0.286 0.801-0.64z"></path>
</svg>
