<?xml version="1.0" encoding="utf-8"?>
<!-- Generated by IcoMoon.io -->
<!DOCTYPE svg PUBLIC "-//W3C//DTD SVG 1.1//EN" "http://www.w3.org/Graphics/SVG/1.1/DTD/svg11.dtd">
<svg version="1.1" xmlns="http://www.w3.org/2000/svg" xmlns:xlink="http://www.w3.org/1999/xlink" width="16" height="16" viewBox="0 0 16 16">
<path d="M2 2.656h12v2.688h-12v-2.688zM8.656 8v-1.344h5.344v1.344h-5.344zM2 8v-1.344h5.344v1.344h-5.344zM12.656 13.344v-1.344h1.344v1.344h-1.344zM10 13.344v-1.344h1.344v1.344h-1.344zM7.344 13.344v-1.344h1.313v1.344h-1.313zM4.656 13.344v-1.344h1.344v1.344h-1.344zM2 13.344v-1.344h1.344v1.344h-1.344zM10.656 10.656v-1.313h3.344v1.313h-3.344zM6.344 10.656v-1.313h3.313v1.313h-3.313zM2 10.656v-1.313h3.344v1.313h-3.344z"></path>
</svg>
