<?xml version="1.0" encoding="utf-8"?>
<!-- Generated by IcoMoon.io -->
<!DOCTYPE svg PUBLIC "-//W3C//DTD SVG 1.1//EN" "http://www.w3.org/Graphics/SVG/1.1/DTD/svg11.dtd">
<svg version="1.1" xmlns="http://www.w3.org/2000/svg" xmlns:xlink="http://www.w3.org/1999/xlink" width="16" height="16" viewBox="0 0 16 16">
<path d="M13 6.344c0.906 0 1.656 0.75 1.656 1.656s-0.75 1.656-1.656 1.656c-0.688 0-1.281-0.406-1.531-1h-1.938c-0.25 0.594-0.844 1-1.531 1s-1.281-0.406-1.531-1h-1.938c-0.25 0.594-0.844 1-1.531 1-0.906 0-1.656-0.75-1.656-1.656s0.75-1.656 1.656-1.656c0.688 0 1.281 0.406 1.531 1h1.938c0.25-0.594 0.844-1 1.531-1s1.281 0.406 1.531 1h1.938c0.25-0.594 0.844-1 1.531-1z"></path>
</svg>
