<?xml version="1.0" encoding="utf-8"?>
<!-- Generated by IcoMoon.io -->
<!DOCTYPE svg PUBLIC "-//W3C//DTD SVG 1.1//EN" "http://www.w3.org/Graphics/SVG/1.1/DTD/svg11.dtd">
<svg version="1.1" xmlns="http://www.w3.org/2000/svg" xmlns:xlink="http://www.w3.org/1999/xlink" width="16" height="16" viewBox="0 0 16 16">
<path d="M11.344 4.656c1.844 0 3.313 1.5 3.313 3.344s-1.469 3.344-3.313 3.344h-2.688v-1.281h2.688c1.125 0 2.063-0.938 2.063-2.063s-0.938-2.063-2.063-2.063h-2.688v-1.281h2.688zM5.344 8.656v-1.313h5.313v1.313h-5.313zM2.594 8c0 1.125 0.938 2.063 2.063 2.063h2.688v1.281h-2.688c-1.844 0-3.313-1.5-3.313-3.344s1.469-3.344 3.313-3.344h2.688v1.281h-2.688c-1.125 0-2.063 0.938-2.063 2.063z"></path>
</svg>
