<?xml version="1.0" encoding="utf-8"?>
<!-- Generated by IcoMoon.io -->
<!DOCTYPE svg PUBLIC "-//W3C//DTD SVG 1.1//EN" "http://www.w3.org/Graphics/SVG/1.1/DTD/svg11.dtd">
<svg version="1.1" xmlns="http://www.w3.org/2000/svg" xmlns:xlink="http://www.w3.org/1999/xlink" width="16" height="16" viewBox="0 0 16 16">
<path d="M10.656 4c0.75 0 1.344 0.594 1.344 1.344h0.875c0-1.219-1-2.219-2.219-2.219v0.875zM8 12.656c1.844 0 3.344-1.469 3.344-3.313s-1.5-3.344-3.344-3.344-3.344 1.5-3.344 3.344 1.5 3.313 3.344 3.313zM11.344 6h3.313v7.344c0 0.719-0.594 1.313-1.313 1.313h-10.688c-0.719 0-1.313-0.594-1.313-1.313v-8c0-0.719 0.594-1.344 1.313-1.344h2.125l1.219-1.344h4v2c0.75 0 1.344 0.594 1.344 1.344zM10.656 2.219v-0.875c2.219 0 4 1.781 4 4h-0.875c0-1.719-1.406-3.125-3.125-3.125zM5.875 9.344c0-1.188 0.938-2.156 2.125-2.156s2.125 0.969 2.125 2.156-0.938 2.125-2.125 2.125-2.125-0.938-2.125-2.125z"></path>
</svg>
