<?xml version="1.0" encoding="utf-8"?>
<!-- Generated by IcoMoon.io -->
<!DOCTYPE svg PUBLIC "-//W3C//DTD SVG 1.1//EN" "http://www.w3.org/Graphics/SVG/1.1/DTD/svg11.dtd">
<svg version="1.1" xmlns="http://www.w3.org/2000/svg" xmlns:xlink="http://www.w3.org/1999/xlink" width="16" height="16" viewBox="0 0 16 16">
<path d="M8 0.32c-4.242 0-7.68 3.438-7.68 7.68s3.438 7.68 7.68 7.68 7.68-3.438 7.68-7.68-3.438-7.68-7.68-7.68zM6.12 11.183h-1.555v-5.005h1.555v5.005zM5.333 5.564c-0.491 0-0.809-0.348-0.809-0.778 0-0.439 0.327-0.777 0.829-0.777s0.809 0.338 0.818 0.777c0 0.43-0.317 0.778-0.838 0.778zM11.8 11.183h-1.555v-2.774c0-0.646-0.226-1.084-0.788-1.084-0.43 0-0.685 0.297-0.798 0.582-0.042 0.102-0.052 0.246-0.052 0.389v2.886h-1.556v-3.408c0-0.625-0.020-1.147-0.041-1.597h1.351l0.071 0.695h0.031c0.205-0.326 0.706-0.808 1.546-0.808 1.023 0 1.79 0.686 1.79 2.159v2.959z"></path>
</svg>
