<?xml version="1.0" encoding="utf-8"?>
<!-- Generated by IcoMoon.io -->
<!DOCTYPE svg PUBLIC "-//W3C//DTD SVG 1.1//EN" "http://www.w3.org/Graphics/SVG/1.1/DTD/svg11.dtd">
<svg version="1.1" xmlns="http://www.w3.org/2000/svg" xmlns:xlink="http://www.w3.org/1999/xlink" width="16" height="16" viewBox="0 0 16 16">
<path fill="#000" d="M4 2.4c0 0.85-0.568 1.581-1.601 1.581-0.972 0-1.599-0.69-1.599-1.539 0-0.872 0.608-1.642 1.6-1.642s1.581 0.728 1.6 1.6zM0.8 15.2v-10.4h3.2v10.4h-3.2z"></path>
<path fill="#000" d="M5.6 8.355c0-1.236-0.041-2.269-0.082-3.161h2.875l0.142 1.378h0.061c0.405-0.649 1.397-1.6 3.058-1.6 2.026 0 3.546 1.356 3.546 4.274v5.954h-3.2v-5.489c0-1.275-0.486-2.248-1.6-2.248-0.85 0-1.275 0.688-1.498 1.255-0.082 0.203-0.102 0.486-0.102 0.77v5.711h-3.2v-6.845z"></path>
</svg>
