<?xml version="1.0" encoding="utf-8"?>
<!-- Generated by IcoMoon.io -->
<!DOCTYPE svg PUBLIC "-//W3C//DTD SVG 1.1//EN" "http://www.w3.org/Graphics/SVG/1.1/DTD/svg11.dtd">
<svg version="1.1" xmlns="http://www.w3.org/2000/svg" xmlns:xlink="http://www.w3.org/1999/xlink" width="16" height="16" viewBox="0 0 16 16">
<path d="M6.287 11.753l-0.648 0.644c-0.561 0.556-1.474 0.556-2.036 0-0.269-0.267-0.417-0.623-0.417-1.002s0.149-0.733 0.417-1.002l2.384-2.364c0.494-0.49 1.423-1.212 2.101-0.54 0.311 0.309 0.813 0.307 1.122-0.004 0.308-0.311 0.306-0.814-0.005-1.122-1.15-1.142-2.853-0.931-4.335 0.54l-2.384 2.365c-0.572 0.567-0.886 1.323-0.886 2.126 0 0.805 0.315 1.559 0.886 2.126 0.589 0.584 1.362 0.877 2.135 0.877s1.547-0.292 2.135-0.877l0.649-0.644c0.311-0.308 0.313-0.81 0.004-1.12s-0.811-0.312-1.122-0.005zM13.513 2.566c-1.238-1.227-2.967-1.294-4.111-0.158l-0.807 0.802c-0.311 0.309-0.314 0.81-0.005 1.121s0.81 0.313 1.122 0.004l0.808-0.801c0.592-0.589 1.369-0.345 1.877 0.158 0.269 0.268 0.418 0.623 0.418 1.002s-0.149 0.734-0.418 1.001l-2.544 2.523c-1.163 1.153-1.709 0.613-1.942 0.382-0.311-0.309-0.813-0.306-1.121 0.004s-0.307 0.814 0.004 1.121c0.534 0.53 1.144 0.792 1.782 0.792 0.782 0 1.608-0.394 2.394-1.174l2.544-2.522c0.57-0.568 0.886-1.323 0.886-2.126s-0.316-1.559-0.887-2.127z"></path>
</svg>
