<?xml version="1.0" encoding="utf-8"?>
<!-- Generated by IcoMoon.io -->
<!DOCTYPE svg PUBLIC "-//W3C//DTD SVG 1.1//EN" "http://www.w3.org/Graphics/SVG/1.1/DTD/svg11.dtd">
<svg version="1.1" xmlns="http://www.w3.org/2000/svg" xmlns:xlink="http://www.w3.org/1999/xlink" width="16" height="16" viewBox="0 0 16 16">
<path d="M11.52 7.2h-4.64c-0.442 0-0.48 0.358-0.48 0.8s0.038 0.8 0.48 0.8h4.64c0.442 0 0.48-0.358 0.48-0.8s-0.038-0.8-0.48-0.8zM13.12 11.2h-6.24c-0.442 0-0.48 0.358-0.48 0.8s0.038 0.8 0.48 0.8h6.24c0.442 0 0.48-0.358 0.48-0.8s-0.038-0.8-0.48-0.8zM6.88 4.8h6.24c0.442 0 0.48-0.358 0.48-0.8s-0.038-0.8-0.48-0.8h-6.24c-0.442 0-0.48 0.358-0.48 0.8s0.038 0.8 0.48 0.8zM4.32 7.2h-1.44c-0.442 0-0.48 0.358-0.48 0.8s0.038 0.8 0.48 0.8h1.44c0.442 0 0.48-0.358 0.48-0.8s-0.038-0.8-0.48-0.8zM4.32 11.2h-1.44c-0.442 0-0.48 0.358-0.48 0.8s0.038 0.8 0.48 0.8h1.44c0.442 0 0.48-0.358 0.48-0.8s-0.038-0.8-0.48-0.8zM4.32 3.2h-1.44c-0.442 0-0.48 0.358-0.48 0.8s0.038 0.8 0.48 0.8h1.44c0.442 0 0.48-0.358 0.48-0.8s-0.038-0.8-0.48-0.8z"></path>
</svg>
