<?xml version="1.0" encoding="utf-8"?>
<!-- Generated by IcoMoon.io -->
<!DOCTYPE svg PUBLIC "-//W3C//DTD SVG 1.1//EN" "http://www.w3.org/Graphics/SVG/1.1/DTD/svg11.dtd">
<svg version="1.1" xmlns="http://www.w3.org/2000/svg" xmlns:xlink="http://www.w3.org/1999/xlink" width="16" height="16" viewBox="0 0 16 16">
<path d="M6.003 2v12.667h7.993v-5.333h1.997v-7.333h-9.99zM12.663 13.333h-5.328v-2h5.328v2zM12.663 10.667h-5.328v-2h5.328v2zM14.661 8h-7.326v-2h7.326v2zM14.661 5.333h-7.326v-2h7.326v2zM0.007 14.667h4.663v-12.667h-4.663v12.667zM1.339 3.333h1.999v2h-1.999v-2zM1.339 6h1.999v2h-1.999v-2zM1.339 8.667h1.999v2h-1.999v-2zM1.339 11.333h1.999v2h-1.999v-2z"></path>
</svg>
