<?xml version="1.0" encoding="utf-8"?>
<!-- Generated by IcoMoon.io -->
<!DOCTYPE svg PUBLIC "-//W3C//DTD SVG 1.1//EN" "http://www.w3.org/Graphics/SVG/1.1/DTD/svg11.dtd">
<svg version="1.1" xmlns="http://www.w3.org/2000/svg" xmlns:xlink="http://www.w3.org/1999/xlink" width="16" height="16" viewBox="0 0 16 16">
<path d="M8 3.656c-0.906 0-1.656 0.781-1.656 1.688s0.75 1.656 1.656 1.656 1.656-0.75 1.656-1.656-0.75-1.688-1.656-1.688zM3.719 6.844c0-0.656 0.406-1.219 0.969-1.5-0.563-0.281-0.969-0.844-0.969-1.5 0-0.906 0.781-1.688 1.688-1.688 0.344 0 0.656 0.125 0.938 0.313v-0.125c0-0.906 0.75-1.688 1.656-1.688s1.656 0.781 1.656 1.688v0.125c0.281-0.188 0.594-0.313 0.938-0.313 0.906 0 1.688 0.781 1.688 1.688 0 0.656-0.406 1.219-0.969 1.5 0.563 0.281 0.969 0.844 0.969 1.5 0 0.906-0.781 1.656-1.688 1.656-0.344 0-0.656-0.094-0.938-0.281v0.125c0 0.906-0.75 1.656-1.656 1.656s-1.656-0.75-1.656-1.656v-0.125c-0.281 0.188-0.594 0.281-0.938 0.281-0.906 0-1.688-0.75-1.688-1.656zM8 14.656c-3.313 0-6-2.688-6-6 3.313 0 6 2.688 6 6zM8 14.656c0-3.313 2.688-6 6-6 0 3.313-2.688 6-6 6z"></path>
</svg>
