<?xml version="1.0" encoding="utf-8"?>
<!-- Generated by IcoMoon.io -->
<!DOCTYPE svg PUBLIC "-//W3C//DTD SVG 1.1//EN" "http://www.w3.org/Graphics/SVG/1.1/DTD/svg11.dtd">
<svg version="1.1" xmlns="http://www.w3.org/2000/svg" xmlns:xlink="http://www.w3.org/1999/xlink" width="16" height="16" viewBox="0 0 16 16">
<path d="M15.494 14.482l-1.094-3.282h-1.2l0.666 3.2h-11.733l0.666-3.2h-1.2l-1.094 3.282c-0.278 0.835 0.214 1.518 1.094 1.518h12.8c0.88 0 1.372-0.683 1.094-1.518zM12 4c0-2.209-1.79-4-4-4s-4 1.791-4 4c0 3.82 4 8 4 8s4-4.18 4-8zM5.84 4.048c0-1.193 0.966-2.159 2.16-2.159s2.16 0.966 2.16 2.159c0 1.194-0.967 2.16-2.16 2.16s-2.16-0.967-2.16-2.16z"></path>
</svg>
