<?xml version="1.0" encoding="utf-8"?>
<!-- Generated by IcoMoon.io -->
<!DOCTYPE svg PUBLIC "-//W3C//DTD SVG 1.1//EN" "http://www.w3.org/Graphics/SVG/1.1/DTD/svg11.dtd">
<svg version="1.1" xmlns="http://www.w3.org/2000/svg" xmlns:xlink="http://www.w3.org/1999/xlink" width="16" height="16" viewBox="0 0 16 16">
<path d="M8 13.344c2.219 0 4-1.781 4-4s-1.781-4-4-4-4 1.781-4 4 1.781 4 4 4zM4.656 2.656c-0.375 0-0.656 0.313-0.656 0.688s0.281 0.656 0.656 0.656 0.688-0.281 0.688-0.656-0.313-0.688-0.688-0.688zM6.656 2.656c-0.375 0-0.656 0.313-0.656 0.688s0.281 0.656 0.656 0.656 0.688-0.281 0.688-0.656-0.313-0.688-0.688-0.688zM12 1.344c0.75 0 1.344 0.563 1.344 1.313v10.688c0 0.75-0.594 1.313-1.344 1.313h-8c-0.75 0-1.344-0.563-1.344-1.313v-10.688c0-0.75 0.594-1.313 1.344-1.313h8zM6.125 11.219l3.75-3.781c1.031 1.031 1.031 2.75 0 3.781s-2.719 1.031-3.75 0z"></path>
</svg>
