<?xml version="1.0" encoding="utf-8"?>
<!-- Generated by IcoMoon.io -->
<!DOCTYPE svg PUBLIC "-//W3C//DTD SVG 1.1//EN" "http://www.w3.org/Graphics/SVG/1.1/DTD/svg11.dtd">
<svg version="1.1" xmlns="http://www.w3.org/2000/svg" xmlns:xlink="http://www.w3.org/1999/xlink" width="16" height="16" viewBox="0 0 16 16">
<path d="M10.844 11.688l-6.531-6.531c-0.594 0.781-0.969 1.781-0.969 2.844 0 2.594 2.063 4.656 4.656 4.656 1.063 0 2.063-0.375 2.844-0.969zM2 2.844l0.844-0.844 11.156 11.156-0.844 0.844-1.375-1.375c-0.875 0.719-1.938 1.219-3.125 1.344v1.375h-1.313v-1.375c-2.781-0.313-5-2.531-5.313-5.313h-1.375v-1.313h1.375c0.125-1.188 0.625-2.25 1.344-3.125zM13.969 7.344h1.375v1.313h-1.375c-0.094 0.75-0.313 1.5-0.656 2.125l-1-1c0.219-0.531 0.344-1.156 0.344-1.781 0-2.594-2.063-4.656-4.656-4.656-0.625 0-1.25 0.125-1.781 0.344l-1-1c0.656-0.344 1.375-0.563 2.125-0.656v-1.375h1.313v1.375c2.781 0.313 5 2.531 5.313 5.313z"></path>
</svg>
