<?xml version="1.0" encoding="utf-8"?>
<!-- Generated by IcoMoon.io -->
<!DOCTYPE svg PUBLIC "-//W3C//DTD SVG 1.1//EN" "http://www.w3.org/Graphics/SVG/1.1/DTD/svg11.dtd">
<svg version="1.1" xmlns="http://www.w3.org/2000/svg" xmlns:xlink="http://www.w3.org/1999/xlink" width="16" height="16" viewBox="0 0 16 16">
<path d="M13.344 12v-8h-10.688v8h10.688zM13.344 2.656c0.75 0 1.313 0.594 1.313 1.344v8c0 0.75-0.563 1.344-1.313 1.344h-10.688c-0.75 0-1.313-0.594-1.313-1.344v-8c0-0.75 0.563-1.344 1.313-1.344h10.688zM7.344 11.344v-0.688h-1.344v-1.313h2.656v-0.688h-2c-0.375 0-0.656-0.281-0.656-0.656v-2c0-0.375 0.281-0.656 0.656-0.656h0.688v-0.688h1.313v0.688h1.344v1.313h-2.656v0.688h2c0.375 0 0.656 0.281 0.656 0.656v2c0 0.375-0.281 0.656-0.656 0.656h-0.688v0.688h-1.313z"></path>
</svg>
