<?xml version="1.0" encoding="utf-8"?>
<!-- Generated by IcoMoon.io -->
<!DOCTYPE svg PUBLIC "-//W3C//DTD SVG 1.1//EN" "http://www.w3.org/Graphics/SVG/1.1/DTD/svg11.dtd">
<svg version="1.1" xmlns="http://www.w3.org/2000/svg" xmlns:xlink="http://www.w3.org/1999/xlink" width="16" height="16" viewBox="0 0 16 16">
<path d="M8 10c0.719 0 1.344-0.625 1.344-1.344s-0.625-1.313-1.344-1.313-1.344 0.594-1.344 1.313 0.625 1.344 1.344 1.344zM4.656 4.656c0 0.719 0.625 1.344 1.344 1.344s1.344-0.625 1.344-1.344-0.625-1.313-1.344-1.313-1.344 0.594-1.344 1.313zM8 1.344c2.375 0 4.531 1.031 6 2.656l-6 10.656-6-10.656c1.469-1.625 3.625-2.656 6-2.656z"></path>
</svg>
