<?xml version="1.0" encoding="utf-8"?>
<!-- Generated by IcoMoon.io -->
<!DOCTYPE svg PUBLIC "-//W3C//DTD SVG 1.1//EN" "http://www.w3.org/Graphics/SVG/1.1/DTD/svg11.dtd">
<svg version="1.1" xmlns="http://www.w3.org/2000/svg" xmlns:xlink="http://www.w3.org/1999/xlink" width="16" height="16" viewBox="0 0 16 16">
<path d="M12 12.344c0.563 0 1-0.438 1-1s-0.438-1-1-1-1 0.438-1 1 0.438 1 1 1zM13 6.344h-1.656v1.656h2.969zM4 12.344c0.563 0 1-0.438 1-1s-0.438-1-1-1-1 0.438-1 1 0.438 1 1 1zM13.344 5.344l2 2.656v3.344h-1.344c0 1.094-0.906 2-2 2s-2-0.906-2-2h-4c0 1.094-0.906 2-2 2s-2-0.906-2-2h-1.344v-7.344c0-0.719 0.625-1.344 1.344-1.344h9.344v2.688h2z"></path>
</svg>
