<?xml version="1.0" encoding="utf-8"?>
<!-- Generated by IcoMoon.io -->
<!DOCTYPE svg PUBLIC "-//W3C//DTD SVG 1.1//EN" "http://www.w3.org/Graphics/SVG/1.1/DTD/svg11.dtd">
<svg version="1.1" xmlns="http://www.w3.org/2000/svg" xmlns:xlink="http://www.w3.org/1999/xlink" width="16" height="16" viewBox="0 0 16 16">
<path d="M8 8.656c1.844 0 3.344-1.469 3.344-3.313h-1.344c0 1.094-0.906 2-2 2s-2-0.906-2-2h-1.344c0 1.844 1.5 3.313 3.344 3.313zM8 2c-1.094 0-2 0.906-2 2h4c0-1.094-0.906-2-2-2zM12.656 4c0.719 0 1.344 0.625 1.344 1.344v8c0 0.719-0.625 1.313-1.344 1.313h-9.313c-0.719 0-1.344-0.594-1.344-1.313v-8c0-0.719 0.625-1.344 1.344-1.344h1.313c0-1.844 1.5-3.344 3.344-3.344s3.344 1.5 3.344 3.344h1.313z"></path>
</svg>
