<?xml version="1.0" encoding="utf-8"?>
<!-- Generated by IcoMoon.io -->
<!DOCTYPE svg PUBLIC "-//W3C//DTD SVG 1.1//EN" "http://www.w3.org/Graphics/SVG/1.1/DTD/svg11.dtd">
<svg version="1.1" xmlns="http://www.w3.org/2000/svg" xmlns:xlink="http://www.w3.org/1999/xlink" width="16" height="16" viewBox="0 0 16 16">
<path d="M12.656 10v-1.344h-1.313v1.344h1.313zM12.656 12.656v-1.313h-1.313v1.313h1.313zM8.656 4.656v-1.313h-1.313v1.313h1.313zM8.656 7.344v-1.344h-1.313v1.344h1.313zM8.656 10v-1.344h-1.313v1.344h1.313zM8.656 12.656v-1.313h-1.313v1.313h1.313zM4.656 7.344v-1.344h-1.313v1.344h1.313zM4.656 10v-1.344h-1.313v1.344h1.313zM4.656 12.656v-1.313h-1.313v1.313h1.313zM10 7.344h4v6.656h-12v-9.344h4v-1.313l2-2 2 2v4z"></path>
</svg>
