<?xml version="1.0" encoding="utf-8"?>
<!-- Generated by IcoMoon.io -->
<!DOCTYPE svg PUBLIC "-//W3C//DTD SVG 1.1//EN" "http://www.w3.org/Graphics/SVG/1.1/DTD/svg11.dtd">
<svg version="1.1" xmlns="http://www.w3.org/2000/svg" xmlns:xlink="http://www.w3.org/1999/xlink" width="16" height="16" viewBox="0 0 16 16">
<path d="M7.813 7.656c1.849 1.828 3.696 3.658 5.531 5.5l-0.844 0.844-2.25-2.219c-1.125 1.656-2.25 2.875-2.25 2.875s-4.656-5.156-4.656-8.656c0-0.344 0.063-0.688 0.125-1.031l-2.125-2.125 0.844-0.844 5.563 5.563zM8 4.344c-0.5 0-0.906 0.219-1.219 0.563l-2.156-2.125c0.844-0.875 2.063-1.438 3.375-1.438 2.594 0 4.656 2.063 4.656 4.656 0 1.125-0.469 2.406-1.125 3.656l-2.406-2.438c0.344-0.313 0.531-0.719 0.531-1.219 0-0.906-0.75-1.656-1.656-1.656z"></path>
</svg>
