<?xml version="1.0" encoding="utf-8"?>
<!-- Generated by IcoMoon.io -->
<!DOCTYPE svg PUBLIC "-//W3C//DTD SVG 1.1//EN" "http://www.w3.org/Graphics/SVG/1.1/DTD/svg11.dtd">
<svg version="1.1" xmlns="http://www.w3.org/2000/svg" xmlns:xlink="http://www.w3.org/1999/xlink" width="16" height="16" viewBox="0 0 16 16">
<path d="M10.375 11.188l-0.719-2.719 2.188-1.813-2.813-0.156-1.031-2.625-1.031 2.625-2.844 0.156 2.219 1.813-0.719 2.719 2.375-1.531zM13.344 8c0 0.719 0.594 1.344 1.313 1.344v2.656c0 0.719-0.594 1.344-1.313 1.344h-10.688c-0.719 0-1.313-0.625-1.313-1.344v-2.656c0.75 0 1.313-0.625 1.313-1.344s-0.594-1.344-1.313-1.344v-2.656c0-0.719 0.594-1.344 1.313-1.344h10.688c0.719 0 1.313 0.625 1.313 1.344v2.656c-0.719 0-1.313 0.625-1.313 1.344z"></path>
</svg>
