<?xml version="1.0" encoding="utf-8"?>
<!-- Generated by IcoMoon.io -->
<!DOCTYPE svg PUBLIC "-//W3C//DTD SVG 1.1//EN" "http://www.w3.org/Graphics/SVG/1.1/DTD/svg11.dtd">
<svg version="1.1" xmlns="http://www.w3.org/2000/svg" xmlns:xlink="http://www.w3.org/1999/xlink" width="16" height="16" viewBox="0 0 16 16">
<path d="M3.344 7.344h9.313l-1-3h-7.313zM11.656 10.656c0.563 0 1-0.438 1-1s-0.438-1-1-1-1 0.438-1 1 0.438 1 1 1zM4.344 10.656c0.563 0 1-0.438 1-1s-0.438-1-1-1-1 0.438-1 1 0.438 1 1 1zM12.625 4l1.375 4v5.344c0 0.375-0.281 0.656-0.656 0.656h-0.688c-0.375 0-0.656-0.281-0.656-0.656v-0.688h-8v0.688c0 0.375-0.281 0.656-0.656 0.656h-0.688c-0.375 0-0.656-0.281-0.656-0.656v-5.344l1.375-4c0.125-0.406 0.531-0.656 0.969-0.656h1.656v-1.344h4v1.344h1.656c0.438 0 0.844 0.25 0.969 0.656z"></path>
</svg>
