<?xml version="1.0" encoding="utf-8"?>
<!-- Generated by IcoMoon.io -->
<!DOCTYPE svg PUBLIC "-//W3C//DTD SVG 1.1//EN" "http://www.w3.org/Graphics/SVG/1.1/DTD/svg11.dtd">
<svg version="1.1" xmlns="http://www.w3.org/2000/svg" xmlns:xlink="http://www.w3.org/1999/xlink" width="16" height="16" viewBox="0 0 16 16">
<path d="M12.667 6v-2c0-1.333-1.333-3.333-4.667-3.333s-4.667 2-4.667 3.333v2h-1.333v7.333c0 1.103 0.897 2 2 2h8c1.103 0 2-0.897 2-2v-7.333h-1.333zM4.667 3.333c0 0 0.667-1.333 3.333-1.333s3.333 1.333 3.333 1.333v2.667h-6.667v-2.667zM12.667 13.333c0 0.367-0.299 0.667-0.667 0.667h-8c-0.368 0-0.667-0.299-0.667-0.667v-6h9.333v6zM7.333 11.149v1.518h1.333v-1.518c0.397-0.231 0.667-0.656 0.667-1.149 0-0.736-0.597-1.333-1.333-1.333s-1.333 0.597-1.333 1.333c0 0.492 0.269 0.917 0.667 1.149z"></path>
</svg>
