<?xml version="1.0" encoding="utf-8"?>
<!-- Generated by IcoMoon.io -->
<!DOCTYPE svg PUBLIC "-//W3C//DTD SVG 1.1//EN" "http://www.w3.org/Graphics/SVG/1.1/DTD/svg11.dtd">
<svg version="1.1" xmlns="http://www.w3.org/2000/svg" xmlns:xlink="http://www.w3.org/1999/xlink" width="16" height="16" viewBox="0 0 16 16">
<path d="M12.64 6.4h-1.44v-1.92c0-2.318-1.068-3.68-3.2-3.68s-3.2 1.362-3.2 3.68v0.32h1.6v-0.641c0-1.156 0.638-1.759 1.6-1.759s1.6 0.603 1.6 1.759v2.241h-6.4c-0.442 0-0.8 0.517-0.8 0.959v6.241c0 0.439 0.342 0.911 0.761 1.046l0.958 0.31c0.419 0.134 1.122 0.245 1.562 0.245h4.64c0.439 0 1.142-0.111 1.561-0.246l0.957-0.31c0.419-0.134 0.762-0.606 0.762-1.045v-6.241c0-0.442-0.518-0.959-0.96-0.959z"></path>
</svg>
