<?xml version="1.0" encoding="utf-8"?>
<!-- Generated by IcoMoon.io -->
<!DOCTYPE svg PUBLIC "-//W3C//DTD SVG 1.1//EN" "http://www.w3.org/Graphics/SVG/1.1/DTD/svg11.dtd">
<svg version="1.1" xmlns="http://www.w3.org/2000/svg" xmlns:xlink="http://www.w3.org/1999/xlink" width="16" height="16" viewBox="0 0 16 16">
<path d="M10.063 5.344v-1.344c0-1.125-0.938-2.063-2.063-2.063s-2.063 0.938-2.063 2.063v1.344h4.125zM8 11.344c0.719 0 1.344-0.625 1.344-1.344s-0.625-1.344-1.344-1.344-1.344 0.625-1.344 1.344 0.625 1.344 1.344 1.344zM12 5.344c0.719 0 1.344 0.594 1.344 1.313v6.688c0 0.719-0.625 1.313-1.344 1.313h-8c-0.719 0-1.344-0.594-1.344-1.313v-6.688c0-0.719 0.625-1.313 1.344-1.313h0.656v-1.344c0-1.844 1.5-3.344 3.344-3.344s3.344 1.5 3.344 3.344v1.344h0.656z"></path>
</svg>
