<?xml version="1.0" encoding="utf-8"?>
<!-- Generated by IcoMoon.io -->
<!DOCTYPE svg PUBLIC "-//W3C//DTD SVG 1.1//EN" "http://www.w3.org/Graphics/SVG/1.1/DTD/svg11.dtd">
<svg version="1.1" xmlns="http://www.w3.org/2000/svg" xmlns:xlink="http://www.w3.org/1999/xlink" width="16" height="16" viewBox="0 0 16 16">
<path d="M11.5 10.188c0.313-0.313 0.5-0.719 0.5-1.188 0-0.906-0.75-1.656-1.656-1.656-0.469 0-0.875 0.156-1.188 0.469l-0.5 0.5-0.469-0.5c-0.313-0.313-0.719-0.469-1.188-0.469-0.906 0-1.656 0.75-1.656 1.656 0 0.469 0.156 0.875 0.469 1.188l2.844 2.844zM3.656 4.656c0.563 0 1-0.438 1-1s-0.438-1-1-1-1 0.438-1 1 0.438 1 1 1zM14.281 7.719c0.25 0.25 0.375 0.563 0.375 0.938s-0.125 0.688-0.375 0.938l-4.688 4.688c-0.25 0.25-0.563 0.375-0.938 0.375s-0.688-0.125-0.938-0.375l-6-6c-0.25-0.25-0.375-0.563-0.375-0.938v-4.688c0-0.719 0.594-1.313 1.313-1.313h4.688c0.375 0 0.688 0.125 0.938 0.375z"></path>
</svg>
