<?xml version="1.0" encoding="utf-8"?>
<!-- Generated by IcoMoon.io -->
<!DOCTYPE svg PUBLIC "-//W3C//DTD SVG 1.1//EN" "http://www.w3.org/Graphics/SVG/1.1/DTD/svg11.dtd">
<svg version="1.1" xmlns="http://www.w3.org/2000/svg" xmlns:xlink="http://www.w3.org/1999/xlink" width="16" height="16" viewBox="0 0 16 16">
<path d="M14.036 12.374l-3.023-3.023c0.456-0.748 0.718-1.628 0.718-2.568 0-2.734-2.369-5.102-5.102-5.102s-4.949 2.215-4.949 4.949c0 2.733 2.369 5.102 5.102 5.102 0.91 0 1.76-0.247 2.492-0.675l3.039 3.041c0.298 0.297 0.78 0.297 1.077 0l0.754-0.754c0.297-0.297 0.189-0.672-0.108-0.969zM3.203 6.63c0-1.893 1.534-3.426 3.426-3.426s3.579 1.686 3.579 3.579c0 1.892-1.534 3.426-3.426 3.426s-3.578-1.687-3.578-3.579z"></path>
</svg>
