<?xml version="1.0" encoding="utf-8"?>
<!-- Generated by IcoMoon.io -->
<!DOCTYPE svg PUBLIC "-//W3C//DTD SVG 1.1//EN" "http://www.w3.org/Graphics/SVG/1.1/DTD/svg11.dtd">
<svg version="1.1" xmlns="http://www.w3.org/2000/svg" xmlns:xlink="http://www.w3.org/1999/xlink" width="16" height="16" viewBox="0 0 16 16">
<path d="M9.732 14.288c-0.022 0.247 0.174 0.467 0.436 0.489l3.188 0.261c0.263 0.022 0.497-0.162 0.52-0.41l0.249-2.63-4.144-0.341-0.249 2.63zM1.875 11.999l0.25 2.63c0.022 0.247 0.257 0.431 0.52 0.41l3.188-0.261c0.262-0.022 0.458-0.242 0.437-0.489l-0.25-2.63-4.145 0.34zM1.465 7.666l0.257 2.713 4.145-0.341-0.258-2.71c-0.006-0.066-0.009-0.133-0.009-0.2 0-1.244 1.077-2.256 2.4-2.256s2.4 1.013 2.4 2.256c0 0.067-0.003 0.134-0.010 0.2l-0.257 2.71 4.145 0.341 0.257-2.713c0.017-0.18 0.024-0.359 0.024-0.538 0.001-3.402-2.942-6.169-6.559-6.169s-6.56 2.767-6.56 6.169c0 0.178 0.009 0.358 0.025 0.538z"></path>
</svg>
