<?xml version="1.0" encoding="utf-8"?>
<!-- Generated by IcoMoon.io -->
<!DOCTYPE svg PUBLIC "-//W3C//DTD SVG 1.1//EN" "http://www.w3.org/Graphics/SVG/1.1/DTD/svg11.dtd">
<svg version="1.1" xmlns="http://www.w3.org/2000/svg" xmlns:xlink="http://www.w3.org/1999/xlink" width="16" height="16" viewBox="0 0 16 16">
<path d="M8 3.2c0.883 0 1.6-0.717 1.6-1.6s-0.717-1.6-1.6-1.6-1.6 0.716-1.6 1.6c0 0.883 0.717 1.6 1.6 1.6zM12.782 9.266c-0.308-1.42-0.846-3.75-1.634-4.715-0.766-0.938-2.308-0.978-3.149-0.978v0c-0.841 0-2.383 0.039-3.149 0.978-0.787 0.965-1.326 3.295-1.634 4.715-0.17 0.786 0.923 1.075 1.209 0.284 0.425-1.178 0.753-2.168 1.471-2.989 0.378 2.326-1.016 6.373-1.098 8.638 0 0.442 0.358 0.8 0.8 0.8 0.341 0 0.632-0.213 0.747-0.514 0.366-1.27 1.653-4.802 1.653-4.802v0 0c0 0 1.287 3.533 1.653 4.802 0.115 0.301 0.406 0.514 0.747 0.514 0.442 0 0.8-0.358 0.8-0.8-0.082-2.266-1.475-6.313-1.098-8.638 0.718 0.821 1.046 1.81 1.471 2.989 0.285 0.79 1.379 0.502 1.209-0.285z"></path>
</svg>
