<?xml version="1.0" encoding="utf-8"?>
<!-- Generated by IcoMoon.io -->
<!DOCTYPE svg PUBLIC "-//W3C//DTD SVG 1.1//EN" "http://www.w3.org/Graphics/SVG/1.1/DTD/svg11.dtd">
<svg version="1.1" xmlns="http://www.w3.org/2000/svg" xmlns:xlink="http://www.w3.org/1999/xlink" width="16" height="16" viewBox="0 0 16 16">
<path d="M10.279 0.387l-4.801 2.66-5.478-3.047v12.202l5.623 3.048 4.533-2.672 5.178 2.852v-12.181l-5.055-2.862zM14 8.156l-3.333-1.708v-4.185l3.333 1.785v4.108zM6 4.203l3.333-1.905v4.181l-3.333 1.905v-4.181zM6 9.153l3.333-1.905v4.183l-3.333 1.903v-4.181zM4.667 4.203v4.157l-3.333-2.005v-4.057l3.333 1.905zM1.333 7.133l3.333 2.005v4.195l-3.333-1.903v-4.297zM10.667 11.417v-4.219l3.333 1.708v4.297l-3.333-1.785z"></path>
</svg>
