<?xml version="1.0" encoding="utf-8"?>
<!-- Generated by IcoMoon.io -->
<!DOCTYPE svg PUBLIC "-//W3C//DTD SVG 1.1//EN" "http://www.w3.org/Graphics/SVG/1.1/DTD/svg11.dtd">
<svg version="1.1" xmlns="http://www.w3.org/2000/svg" xmlns:xlink="http://www.w3.org/1999/xlink" width="16" height="16" viewBox="0 0 16 16">
<path d="M15.665 4.672c-0.034-0.375-0.37-0.642-0.736-0.584-1.394 0.222-4.661 1.512-6.929 1.512s-5.535-1.29-6.929-1.512c-0.366-0.058-0.701 0.208-0.736 0.583-0.114 1.226-0.335 4.489-0.335 4.983 0 0.664 2.778 2.186 4.8 2.186 1.962 0 2.36-2.186 3.2-2.186s1.238 2.186 3.2 2.186c2.022 0 4.8-1.522 4.8-2.186 0-0.494-0.222-3.758-0.335-4.982zM6.128 8.576c-0.282 0.254-1.068 0.856-2.025 0.668s-1.535-1.058-1.733-1.406c-0.048-0.085-0.033-0.192 0.035-0.254 0.282-0.254 1.068-0.856 2.026-0.668s1.535 1.058 1.733 1.406c0.047 0.085 0.032 0.192-0.036 0.254zM13.63 7.838c-0.197 0.349-0.775 1.218-1.733 1.406s-1.743-0.414-2.025-0.668c-0.069-0.062-0.083-0.169-0.036-0.254 0.197-0.349 0.775-1.218 1.733-1.406s1.743 0.414 2.025 0.668c0.069 0.062 0.084 0.169 0.036 0.254z"></path>
</svg>
