<?xml version="1.0" encoding="utf-8"?>
<!-- Generated by IcoMoon.io -->
<!DOCTYPE svg PUBLIC "-//W3C//DTD SVG 1.1//EN" "http://www.w3.org/Graphics/SVG/1.1/DTD/svg11.dtd">
<svg version="1.1" xmlns="http://www.w3.org/2000/svg" xmlns:xlink="http://www.w3.org/1999/xlink" width="16" height="16" viewBox="0 0 16 16">
<path d="M2 9.333h0.667v-0.667h-0.667v0.667zM2.667 2.667h-0.667v0.667h0.667v-0.667zM2.667 14.667h-0.667v0.667h-1.333v0.667h3.333v-0.667h-1.333v-0.667zM2 5.333h0.667v-0.667h-0.667v0.667zM2 7.333h0.667v-0.667h-0.667v0.667zM6 0v16h8.667v-16h-8.667zM11.333 14.667h-4v-13.333h4v13.333zM13.333 14.667h-1.333v-1.333h1.333v1.333zM13.333 12.667h-1.333v-1.333h1.333v1.333zM13.333 10.667h-1.333v-1.333h1.333v1.333zM13.333 8.667h-1.333v-1.333h1.333v1.333zM13.333 6.667h-1.333v-1.333h1.333v1.333zM13.333 4.667h-1.333v-1.333h1.333v1.333zM13.333 2.667h-1.333v-1.333h1.333v1.333zM0.667 0.667h1.333v0.667h0.667v-0.667h1.333v-0.667h-3.333v0.667zM2 13.333h0.667v-0.667h-0.667v0.667zM2 11.333h0.667v-0.667h-0.667v0.667z"></path>
</svg>
