<?xml version="1.0" encoding="utf-8"?>
<!-- Generated by IcoMoon.io -->
<!DOCTYPE svg PUBLIC "-//W3C//DTD SVG 1.1//EN" "http://www.w3.org/Graphics/SVG/1.1/DTD/svg11.dtd">
<svg version="1.1" xmlns="http://www.w3.org/2000/svg" xmlns:xlink="http://www.w3.org/1999/xlink" width="16" height="16" viewBox="0 0 16 16">
<path d="M8 8c0.422 0 0.821 0.083 1.203 0.205l-4.862-7.292c-0.047-0.070-0.126-0.113-0.21-0.113h-2.845c-0.094 0-0.15 0.105-0.098 0.183l4.985 7.478c0.55-0.285 1.165-0.461 1.826-0.461zM14.714 0.8h-2.845c-0.085 0-0.163 0.042-0.21 0.113l-3.058 4.587 1.6 2.4 4.611-6.917c0.052-0.078-0.004-0.183-0.098-0.183zM8 8.8c-1.767 0-3.2 1.433-3.2 3.2s1.433 3.2 3.2 3.2 3.2-1.433 3.2-3.2c0-1.767-1.433-3.2-3.2-3.2zM9.69 12.094c0.050 0.051 0.042 0.126-0.018 0.166s-0.076 0.122-0.039 0.183c0.038 0.061 0.014 0.132-0.052 0.159s-0.1 0.104-0.076 0.171-0.014 0.132-0.083 0.145-0.119 0.081-0.11 0.151-0.041 0.126-0.112 0.124c-0.071-0.002-0.134 0.054-0.139 0.125s-0.066 0.115-0.135 0.098-0.142 0.025-0.162 0.094-0.089 0.099-0.153 0.068c-0.064-0.031-0.144-0.005-0.178 0.058s-0.107 0.078-0.164 0.034-0.14-0.035-0.186 0.019-0.121 0.054-0.167 0-0.13-0.063-0.186-0.019-0.13 0.028-0.164-0.034-0.114-0.089-0.178-0.058c-0.064 0.031-0.133 0-0.153-0.068s-0.093-0.11-0.162-0.094-0.13-0.027-0.135-0.098-0.067-0.127-0.138-0.126c-0.071 0.002-0.122-0.054-0.112-0.124s-0.040-0.138-0.11-0.151-0.108-0.078-0.083-0.145-0.010-0.144-0.076-0.171-0.089-0.098-0.052-0.159c0.038-0.061 0.020-0.143-0.039-0.183s-0.066-0.115-0.018-0.166c0.050-0.051 0.050-0.135 0-0.187s-0.042-0.126 0.018-0.166 0.076-0.122 0.039-0.183c-0.038-0.061-0.014-0.132 0.052-0.159s0.1-0.104 0.076-0.171 0.014-0.132 0.083-0.145 0.119-0.081 0.11-0.151 0.041-0.126 0.112-0.124c0.071 0.002 0.134-0.054 0.139-0.125s0.066-0.115 0.135-0.098 0.142-0.025 0.162-0.094 0.089-0.099 0.153-0.068c0.064 0.031 0.144 0.005 0.178-0.058s0.107-0.078 0.164-0.034 0.14 0.035 0.186-0.019 0.121-0.054 0.167 0 0.13 0.063 0.186 0.019 0.13-0.028 0.164 0.034 0.114 0.089 0.178 0.058c0.064-0.031 0.133 0 0.153 0.068s0.093 0.11 0.162 0.094 0.13 0.027 0.135 0.098 0.068 0.127 0.139 0.125c0.071-0.002 0.122 0.054 0.112 0.124s0.040 0.138 0.11 0.151 0.108 0.078 0.083 0.145 0.010 0.144 0.076 0.171 0.089 0.098 0.052 0.159c-0.038 0.061-0.020 0.143 0.039 0.183s0.066 0.115 0.018 0.166-0.050 0.137-0.001 0.188z"></path>
</svg>
