<?xml version="1.0" encoding="utf-8"?>
<!-- Generated by IcoMoon.io -->
<!DOCTYPE svg PUBLIC "-//W3C//DTD SVG 1.1//EN" "http://www.w3.org/Graphics/SVG/1.1/DTD/svg11.dtd">
<svg version="1.1" xmlns="http://www.w3.org/2000/svg" xmlns:xlink="http://www.w3.org/1999/xlink" width="16" height="16" viewBox="0 0 16 16">
<path d="M13.778 5.624c-1.267-2.949-3.306-5.192-4.337-4.774-1.751 0.713 1.043 4.131-7.558 7.626-0.743 0.303-0.931 1.51-0.62 2.234 0.31 0.722 1.326 1.441 2.070 1.139 0.129-0.053 0.601-0.205 0.601-0.205 0.53 0.713 1.086 0.29 1.283 0.742 0.237 0.544 0.751 1.726 0.926 2.128s0.572 0.774 0.86 0.664c0.287-0.11 1.266-0.482 1.64-0.623s0.463-0.477 0.349-0.739c-0.123-0.284-0.629-0.367-0.774-0.698-0.144-0.33-0.615-1.39-0.75-1.725-0.184-0.454 0.207-0.825 0.776-0.883 3.915-0.41 4.647 2.010 5.98 1.467 1.030-0.42 0.82-3.407-0.446-6.354zM13.338 10.405c-0.23 0.092-1.77-1.122-2.754-3.414-0.985-2.29-0.861-4.384-0.632-4.478 0.229-0.092 1.732 1.374 2.716 3.664s0.899 4.134 0.67 4.227z"></path>
</svg>
