<?xml version="1.0" encoding="utf-8"?>
<!-- Generated by IcoMoon.io -->
<!DOCTYPE svg PUBLIC "-//W3C//DTD SVG 1.1//EN" "http://www.w3.org/Graphics/SVG/1.1/DTD/svg11.dtd">
<svg version="1.1" xmlns="http://www.w3.org/2000/svg" xmlns:xlink="http://www.w3.org/1999/xlink" width="16" height="16" viewBox="0 0 16 16">
<path d="M8 0c-4.418 0-8 3.582-8 8s3.582 8 8 8 8-3.582 8-8-3.582-8-8-8zM8 14.667c-3.676 0-6.667-2.991-6.667-6.667s2.991-6.667 6.667-6.667 6.667 2.991 6.667 6.667-2.991 6.667-6.667 6.667zM4.739 3.779c0 0-0.002 0.002-0.003 0.002s0 0.001 0 0.001c-0.001 0.001-0.002 0.002-0.003 0.002s-0.001 0.001-0.001 0.001-0.003 0.003-0.005 0.003c-0.001 0.001-0.001 0.001-0.001 0.001-0.001 0.001-0.002 0.001-0.003 0.002l-0.001 0.001c-0.001 0.001-0.001 0.001-0.002 0.002-0.001 0-0.002 0.001-0.003 0.001s-0.001 0.001-0.001 0.001-0.002 0.001-0.003 0.003c0 0-0.001 0.001-0.001 0.001-0.001 0-0.002 0.001-0.003 0.001s-0.001 0.001-0.001 0.001l-0.002 0.002c-0.001 0.001-0.001 0.001-0.001 0.001-0.002 0.001-0.003 0.003-0.005 0.003v0.001c-0.001 0.001-0.003 0.001-0.003 0.003 0 0-0.001 0-0.001 0-0.001 0.001-0.002 0.002-0.003 0.003s-0.001 0.001-0.001 0.001c-0.003 0.001-0.005 0.003-0.007 0.005-0.001 0.001-0.001 0.001-0.001 0.001-0.001 0.001-0.003 0.002-0.003 0.003v0c-0.005 0.003-0.009 0.007-0.013 0.009v0.001c-0.071 0.058-0.142 0.117-0.211 0.178-0.004 0.003-0.008 0.007-0.011 0.010h-0.001c-0.001 0.001-0.002 0.003-0.003 0.004h-0.001c-0.003 0.002-0.005 0.004-0.007 0.007h-0.001c-0.001 0.001-0.002 0.003-0.003 0.003s-0.001 0.001-0.001 0.001c-0.001 0.001-0.002 0.002-0.003 0.003v0.001c-0.001 0-0.003 0.001-0.004 0.003 0 0-0.001 0-0.001 0.001l-0.003 0.003c-0.001 0.001-0.001 0.001-0.001 0.001-0.001 0.001-0.003 0.002-0.003 0.002-0.001 0.001-0.001 0.001-0.001 0.001-0.001 0.001-0.003 0.002-0.004 0.003 0 0 0 0-0.001 0.001l-0.003 0.003c-0.001 0.001-0.001 0.001-0.001 0.001-0.001 0.001-0.002 0.002-0.003 0.003 0 0.001-0.001 0.001-0.001 0.001l-0.003 0.003c0 0-0.001 0.001-0.001 0.001s-0.001 0.001-0.003 0.002c0 0-0.001 0.001-0.001 0.002s-0.001 0.001-0.002 0.001-0.001 0.001-0.002 0.001-0.001 0.001-0.001 0.002c-0.001 0.001-0.002 0.002-0.003 0.002-0.001 0.001-0.001 0.001-0.003 0.003 0 0-0.001 0.001-0.001 0.001l-0.001 0.001c-0.001 0.001-0.002 0.001-0.003 0.002s-0.001 0.001-0.001 0.001l-0.007 0.008h-0.001c-0.001 0.001-0.001 0.002-0.003 0.003 0 0 0 0-0.001 0.001s-0.001 0.001-0.001 0.001l0.455 0.488c0.141-0.131 0.293-0.257 0.45-0.37l-0.391-0.54c-0.047 0.033-0.094 0.069-0.141 0.105zM3.57 6.527l-0.633-0.21c-0.040 0.121-0.075 0.242-0.107 0.366-0.001 0.006-0.003 0.011-0.004 0.016h-0.001c0 0.001-0.001 0.003-0.001 0.004l-0.004 0.015c-0.001 0.001-0.001 0.003-0.001 0.004 0 0 0 0 0 0.001-0.001 0.005-0.003 0.010-0.004 0.015v0.001c0 0.001-0.001 0.003-0.001 0.003v0.001c-0.001 0.004-0.002 0.008-0.003 0.012 0 0.001-0.001 0.003-0.001 0.004s-0.001 0.003-0.001 0.004v0.001c-0.001 0.003-0.002 0.007-0.003 0.011 0 0 0 0 0 0.001s-0.001 0.002-0.001 0.003c0 0.001 0 0.001-0.001 0.001 0 0.001-0.001 0.003-0.001 0.003v0.001c-0.001 0.004-0.002 0.007-0.003 0.011 0 0.001 0 0.001 0 0.001-0.001 0.001-0.001 0.003-0.001 0.004-0.001 0.005-0.002 0.011-0.003 0.015v0.001c-0.001 0.001-0.001 0.002-0.001 0.003v0.001c-0.001 0.005-0.002 0.011-0.003 0.015v0.001c0 0.001 0 0.002-0.001 0.003-0.001 0.004-0.001 0.008-0.003 0.012 0 0.001-0.001 0.003-0.001 0.004 0 0 0 0.001 0 0.001s-0.001 0.002-0.001 0.003l-0.001 0.001c-0.001 0.005-0.002 0.011-0.003 0.015s-0.002 0.011-0.003 0.016c-0.001 0.001-0.001 0.003-0.001 0.004-0.005 0.021-0.009 0.043-0.014 0.065l0.654 0.129c0.039-0.19 0.089-0.38 0.149-0.563zM8 3.333c0.053 0 0.106 0.001 0.159 0.003l0.022-0.667c-0.045-0.001-0.089-0.002-0.135-0.003h-0.001c-0.001 0-0.003 0-0.003 0h-0.013c0 0 0 0-0.001 0h-0.005c-0.001 0-0.001 0-0.001 0h-0.011c0 0-0.001 0-0.001 0h-0.003c0 0-0.001 0-0.001 0h-0.011c0 0-0.001 0-0.001 0h-0.005c0 0-0.002 0-0.003 0 0 0-0.001 0-0.001 0h-0.003c0 0-0.001 0-0.001 0h-0.005c-0.001 0-0.001 0-0.001 0h-0.036c0 0-0.001 0-0.001 0h-0.005c-0.002 0-0.003 0-0.005 0.001h-0.005c0 0-0.001 0-0.001 0h-0.003c-0.001 0-0.001 0-0.001 0h-0.004c-0.001 0-0.001 0-0.001 0-0.004 0-0.007 0.001-0.011 0.001-0.001 0-0.001 0-0.001 0h-0.005c-0.001 0-0.001 0-0.001 0h-0.021c0 0 0 0-0.001 0h-0.005c-0.005 0-0.011 0.001-0.015 0.001-0.002 0-0.004 0-0.005 0.001h-0.027c-0.148 0.005-0.295 0.016-0.44 0.033-0.005 0.001-0.010 0.001-0.015 0.003h-0.005c-0.001 0-0.003 0.001-0.003 0.001-0.001 0-0.002 0-0.003 0.001h-0.003c-0.001 0-0.001 0-0.001 0-0.002 0-0.004 0.001-0.005 0.001s-0.001 0.001-0.002 0.001h-0.005l-0.002 0.001h-0.002l0.083 0.661c0.193-0.024 0.389-0.036 0.583-0.036zM2.91 9.597v0.001c0.001 0.003 0.002 0.006 0.003 0.009 0.001 0.002 0.001 0.003 0.001 0.005h0.001c0.066 0.208 0.144 0.411 0.234 0.607l0.606-0.277c-0.081-0.177-0.151-0.359-0.208-0.544l-0.637 0.199zM13.117 6.489c-0.053-0.18-0.115-0.357-0.187-0.528v-0.001c-0.001-0.001-0.001-0.002-0.001-0.002l-0.001-0.002c-0.001-0.003-0.003-0.007-0.005-0.011v0c-0.001-0.001-0.001-0.002-0.001-0.003l-0.001-0.001c-0.001-0.001-0.001-0.002-0.001-0.003 0 0 0-0.001-0.001-0.001s-0.001-0.003-0.002-0.005c0-0.001-0.001-0.001-0.001-0.002s-0.001-0.001-0.001-0.002-0.001-0.002-0.001-0.002-0.001-0.001-0.001-0.003c-0.001-0.001-0.001-0.001-0.001-0.003l-0.003-0.005c0-0.001 0-0.001 0-0.001-0.001-0.001-0.001-0.003-0.002-0.003s0-0.001 0-0.002c-0.001-0.001-0.001-0.001-0.001-0.003-0.001 0-0.001-0.001-0.001-0.001l-0.002-0.004v0.001c-0.001-0.001-0.001-0.003-0.002-0.005l-0.001-0.001c0-0.001-0.001-0.002-0.001-0.003s0-0.001 0-0.001c-0.001-0.001-0.001-0.003-0.002-0.004l-0.007-0.015c-0.001-0.004-0.003-0.007-0.004-0.010l-0.611 0.267c0.078 0.177 0.145 0.361 0.2 0.547l0.64-0.188zM12.563 8.987c-0.041 0.189-0.095 0.378-0.158 0.561l0.629 0.221c0.014-0.039 0.027-0.079 0.041-0.12l0.017-0.055c0.047-0.153 0.089-0.308 0.123-0.466l-0.652-0.141zM11.139 3.688c0 0 0-0.001 0 0-0.003-0.003-0.006-0.005-0.009-0.007h-0.001c-0.001-0.001-0.001-0.001-0.002-0.001s-0.001-0.001-0.001-0.001c-0.001-0.001-0.002-0.001-0.002-0.001-0.001-0.001-0.003-0.003-0.003-0.003-0.001-0.001-0.001-0.001-0.002-0.001-0.001-0.001-0.001-0.001-0.003-0.002 0-0.001-0.001-0.001-0.001-0.001s-0.002-0.001-0.003-0.002c0 0-0.001 0-0.001-0.001s-0.003-0.002-0.004-0.003-0.003-0.002-0.004-0.003h-0.001c-0.001-0.001-0.002-0.002-0.003-0.003l-0.001-0.001c-0.125-0.089-0.252-0.173-0.384-0.25l-0.339 0.573c0.166 0.099 0.329 0.209 0.482 0.328l0.409-0.527c-0.041-0.031-0.081-0.062-0.123-0.093-0.001 0-0.001-0.001-0.003-0.001zM6.769 5.499c0 0-0.989 3.963-0.698 5.029s1.391 1.693 2.457 1.401c1.066-0.291 1.693-1.391 1.402-2.457s-3.161-3.973-3.161-3.973zM8.351 11.286c-0.709 0.195-1.443-0.224-1.637-0.934s0.223-1.443 0.934-1.638c0.71-0.194 1.443 0.224 1.637 0.935 0.195 0.709-0.223 1.443-0.935 1.637z"></path>
</svg>
