<?xml version="1.0" encoding="utf-8"?>
<!-- Generated by IcoMoon.io -->
<!DOCTYPE svg PUBLIC "-//W3C//DTD SVG 1.1//EN" "http://www.w3.org/Graphics/SVG/1.1/DTD/svg11.dtd">
<svg version="1.1" xmlns="http://www.w3.org/2000/svg" xmlns:xlink="http://www.w3.org/1999/xlink" width="16" height="16" viewBox="0 0 16 16">
<path d="M13.119 6.114v2.206c0 1.789-1.314 3.703-4.319 3.967v2.113h2.080c0.176 0 0.32 0.144 0.32 0.32v0.96c0 0.177-0.145 0.32-0.32 0.32h-5.76c-0.176 0-0.32-0.144-0.32-0.32v-0.96c0-0.176 0.144-0.32 0.319-0.32h2.081v-2.113c-3.006-0.264-4.32-2.178-4.32-3.967v-2.206c0-0.177 0.144-0.32 0.32-0.32h0.48c0.176 0 0.32 0.144 0.32 0.32v2.206c0 1.069 0.842 2.88 4 2.88s4-1.811 4-2.88v-2.206c0-0.177 0.144-0.32 0.319-0.32h0.481c0.176-0.001 0.319 0.143 0.319 0.32zM8 9.6c1.877 0 2.4-0.772 2.4-1.28v-2.526h-4.8v2.526c0 0.508 0.522 1.28 2.4 1.28zM10.4 1.28c0-0.51-0.523-1.28-2.4-1.28-1.878 0-2.4 0.77-2.4 1.28v3.394h4.8v-3.394z"></path>
</svg>
