<?xml version="1.0" encoding="utf-8"?>
<!-- Generated by IcoMoon.io -->
<!DOCTYPE svg PUBLIC "-//W3C//DTD SVG 1.1//EN" "http://www.w3.org/Graphics/SVG/1.1/DTD/svg11.dtd">
<svg version="1.1" xmlns="http://www.w3.org/2000/svg" xmlns:xlink="http://www.w3.org/1999/xlink" width="16" height="16" viewBox="0 0 16 16">
<path d="M2.844 2l11.156 11.156-0.844 0.844-2.781-2.781c-0.5 0.313-1.125 0.5-1.719 0.594v2.188h-1.313v-2.188c-2.188-0.313-4-2.188-4-4.469h1.125c0 2 1.688 3.375 3.531 3.375 0.531 0 1.063-0.125 1.531-0.344l-1.094-1.094c-0.125 0.031-0.281 0.063-0.438 0.063-1.094 0-2-0.906-2-2v-0.5l-4-4zM10 7.438l-4-3.969v-0.125c0-1.094 0.906-2 2-2s2 0.906 2 2v4.094zM12.656 7.344c0 0.781-0.219 1.531-0.594 2.188l-0.813-0.844c0.188-0.406 0.281-0.844 0.281-1.344h1.125z"></path>
</svg>
