<?xml version="1.0" encoding="utf-8"?>
<!-- Generated by IcoMoon.io -->
<!DOCTYPE svg PUBLIC "-//W3C//DTD SVG 1.1//EN" "http://www.w3.org/Graphics/SVG/1.1/DTD/svg11.dtd">
<svg version="1.1" xmlns="http://www.w3.org/2000/svg" xmlns:xlink="http://www.w3.org/1999/xlink" width="16" height="16" viewBox="0 0 16 16">
<path d="M9.333 0.667h-3.333c-1.104 0-2 0.895-2 2v6c0 1.105 0.896 2 2 2h3.333c1.104 0 2-0.895 2-2v-6c0-1.105-0.896-2-2-2zM10 4v0.667h-1.333v0.667h1.333v0.667h-1.333v0.667h1.333v0.667h-1.333v0.667h1.333v0.667c0 0.367 0.048 0.667-0.319 0.667h-4.028c-0.367 0-0.319-0.299-0.319-0.667v-0.667h1.333v-0.667h-1.333v-0.667h1.333v-0.667h-1.333v-0.667h1.333v-0.667h-1.333v-0.667h1.333v-0.667h-1.333v-0.667c0-0.367-0.048-0.667 0.319-0.667h4.027c0.368 0 0.32 0.299 0.32 0.667v0.667h-1.333v0.667h1.333zM12.667 8v-1.333h-0.667v3.333c0 0.747-0.486 1.333-1.55 1.333h-5.567c-1.064 0-1.55-0.586-1.55-1.333v-3.333h-0.667v1.333h-0.667v1.333h0.667v0.667c0 1.495 0.405 2 2.217 2h1.117v2h-1.333v1.333h6v-1.333h-1.333v-2h1.117c1.811 0 2.217-0.505 2.217-2v-0.667h0.667v-1.333h-0.667z"></path>
</svg>
