<?xml version="1.0" encoding="utf-8"?>
<!-- Generated by IcoMoon.io -->
<!DOCTYPE svg PUBLIC "-//W3C//DTD SVG 1.1//EN" "http://www.w3.org/Graphics/SVG/1.1/DTD/svg11.dtd">
<svg version="1.1" xmlns="http://www.w3.org/2000/svg" xmlns:xlink="http://www.w3.org/1999/xlink" width="16" height="16" viewBox="0 0 16 16">
<path d="M14 2h-12c-1.103 0-2 0.897-2 2v7.333c0 1.103 0.897 2 2 2h0.667l0.667 1.333h0.667l0.667-1.333h6.667l0.667 1.333h0.667l0.667-1.333h0.667c1.103 0 2-0.897 2-2v-7.333c0-1.103-0.897-2-2-2zM14.667 11.333c0 0.368-0.299 0.667-0.667 0.667h-12c-0.367 0-0.667-0.299-0.667-0.667v-7.333c0-0.367 0.299-0.667 0.667-0.667h12c0.367 0 0.667 0.299 0.667 0.667v7.333zM2 11.333h10v-7.333h-10v7.333zM2.667 4.667h8.667v6h-8.667v-6zM12.667 4.667h0.667v0.667h-0.667zM13.333 5.333h0.667v0.667h-0.667zM12.667 6h0.667v0.667h-0.667zM13.333 6.667h0.667v0.667h-0.667zM12.667 8.667h1.333v0.667h-1.333zM12.667 10h1.333v0.667h-1.333z"></path>
</svg>
