<?xml version="1.0" encoding="utf-8"?>
<!-- Generated by IcoMoon.io -->
<!DOCTYPE svg PUBLIC "-//W3C//DTD SVG 1.1//EN" "http://www.w3.org/Graphics/SVG/1.1/DTD/svg11.dtd">
<svg version="1.1" xmlns="http://www.w3.org/2000/svg" xmlns:xlink="http://www.w3.org/1999/xlink" width="16" height="16" viewBox="0 0 16 16">
<path d="M2.667 9.839l0.667-0.667v-2.505h-0.667v1.333h-0.667v1.333h0.667v0.505zM12.667 8v-1.333h-0.667v3.333c0 0.747-1.296 1.333-2.36 1.333h-3.275l-1.333 0.667h0.968v2h-1.333v1.333h6v-1.333h-1.333v-2h0.307c1.811 0 3.027-0.505 3.027-2v-0.667h0.667v-1.333h-0.667zM8.667 4v-0.667h-0.667v0.667h0.667zM5.333 6.667h1.333v-0.667h-1.333v-0.667h1.333v-0.667h-1.333v-0.667h1.333v-0.667h-1.333v-0.667c0-0.367-0.164-0.667 0.204-0.667h3.333c0.32 0 0.575 0.231 0.639 0.533l1.003-1.003c-0.361-0.521-0.962-0.863-1.642-0.863h-3.333c-1.103 0-1.537 0.897-1.537 2v5.839l1.333-1.333v-0.505zM8.871 9.333h-1.172l-1.333 1.333h2.505c1.103 0 2.463-0.897 2.463-2v-2.505l-1.333 1.333v1.172c0 0.367-0.762 0.667-1.129 0.667zM11.704 2.264l-9.333 9.333 0.667 1.333 9.333-9.333-0.667-1.333z"></path>
</svg>
