<?xml version="1.0" encoding="utf-8"?>
<!-- Generated by IcoMoon.io -->
<!DOCTYPE svg PUBLIC "-//W3C//DTD SVG 1.1//EN" "http://www.w3.org/Graphics/SVG/1.1/DTD/svg11.dtd">
<svg version="1.1" xmlns="http://www.w3.org/2000/svg" xmlns:xlink="http://www.w3.org/1999/xlink" width="16" height="16" viewBox="0 0 16 16">
<path d="M7.637 13.806h0.764v1.714c5.208-0.547 7.986-5.714 7.537-9.353-0.451-3.64-4.361-6.154-8.755-5.616-4.394 0.539-7.574 3.926-7.125 7.567 0.41 3.31 3.682 5.69 7.579 5.687zM12.555 10.288h-1.465v-3.962c0-0.159-0.014-0.31-0.042-0.446-0.023-0.118-0.067-0.218-0.131-0.305-0.061-0.080-0.15-0.146-0.264-0.195-0.122-0.053-0.29-0.080-0.498-0.080-0.43 0-0.766 0.113-1.001 0.333-0.233 0.218-0.346 0.506-0.346 0.88v3.775h-1.464v-3.962c0-0.164-0.015-0.316-0.047-0.451-0.027-0.12-0.073-0.222-0.138-0.31-0.062-0.082-0.143-0.142-0.251-0.19-0.115-0.050-0.272-0.075-0.464-0.075-0.25 0-0.464 0.047-0.636 0.139-0.178 0.094-0.324 0.208-0.433 0.338-0.11 0.131-0.191 0.267-0.239 0.405-0.050 0.138-0.074 0.248-0.074 0.331v3.775h-1.466v-6.157h1.406v0.48c0.459-0.406 1.045-0.613 1.745-0.613 0.408 0 0.785 0.082 1.119 0.244 0.245 0.118 0.443 0.292 0.59 0.522 0.185-0.198 0.403-0.361 0.651-0.487 0.363-0.185 0.766-0.278 1.199-0.278 0.322 0 0.618 0.034 0.882 0.102 0.274 0.069 0.515 0.18 0.716 0.33 0.206 0.154 0.368 0.356 0.482 0.6 0.113 0.241 0.17 0.528 0.17 0.856v4.402z"></path>
</svg>
