<?xml version="1.0" encoding="utf-8"?>
<!-- Generated by IcoMoon.io -->
<!DOCTYPE svg PUBLIC "-//W3C//DTD SVG 1.1//EN" "http://www.w3.org/Graphics/SVG/1.1/DTD/svg11.dtd">
<svg version="1.1" xmlns="http://www.w3.org/2000/svg" xmlns:xlink="http://www.w3.org/1999/xlink" width="16" height="16" viewBox="0 0 16 16">
<path d="M3.563 2.719l9.719 9.75-0.844 0.844-1.469-1.5c-0.406 0.375-1 0.625-1.625 0.75v1.438h-2v-1.438c-1.281-0.281-2.375-1.094-2.469-2.563h1.469c0.063 0.781 0.625 1.406 2 1.406 0.906 0 1.375-0.313 1.594-0.625l-2.344-2.313c-1.563-0.469-2.594-1.25-2.594-2.625l-2.281-2.281zM8.344 4.594c-0.406 0-0.75 0.063-1.031 0.188l-0.969-0.969c0.313-0.156 0.656-0.281 1-0.375v-1.438h2v1.469c1.406 0.344 2.094 1.375 2.125 2.531h-1.469c-0.031-0.844-0.469-1.406-1.656-1.406z"></path>
</svg>
