<?xml version="1.0" encoding="utf-8"?>
<!-- Generated by IcoMoon.io -->
<!DOCTYPE svg PUBLIC "-//W3C//DTD SVG 1.1//EN" "http://www.w3.org/Graphics/SVG/1.1/DTD/svg11.dtd">
<svg version="1.1" xmlns="http://www.w3.org/2000/svg" xmlns:xlink="http://www.w3.org/1999/xlink" width="16" height="16" viewBox="0 0 16 16">
<path d="M8.938 12.063c1.156-0.219 2.094-0.875 2.094-2.094 0-1.688-1.469-2.281-2.813-2.625s-1.75-0.719-1.75-1.281c0-0.625 0.594-1.094 1.594-1.094 1.063 0 1.438 0.5 1.469 1.25h1.313c-0.031-1.031-0.656-1.938-1.906-2.25v-1.313h-1.781v1.313c-1.156 0.25-2.063 0.969-2.063 2.125 0 1.375 1.125 2.031 2.781 2.438 1.5 0.344 1.781 0.875 1.781 1.438 0 0.406-0.281 1.063-1.594 1.063-1.219 0-1.719-0.563-1.781-1.25h-1.313c0.063 1.281 1.063 2 2.188 2.25v1.313h1.781v-1.281zM8 1.344c3.688 0 6.656 2.969 6.656 6.656s-2.969 6.656-6.656 6.656-6.656-2.969-6.656-6.656 2.969-6.656 6.656-6.656z"></path>
</svg>
