<?xml version="1.0" encoding="utf-8"?>
<!-- Generated by IcoMoon.io -->
<!DOCTYPE svg PUBLIC "-//W3C//DTD SVG 1.1//EN" "http://www.w3.org/Graphics/SVG/1.1/DTD/svg11.dtd">
<svg version="1.1" xmlns="http://www.w3.org/2000/svg" xmlns:xlink="http://www.w3.org/1999/xlink" width="16" height="16" viewBox="0 0 16 16">
<path d="M13.344 12.656v-8h-5.344v0.688c1.875 0 3.344 1.438 3.344 3.313s-1.469 3.344-3.344 3.344v-1.188c-1.188 0-2.125-0.969-2.125-2.156s0.938-2.125 2.125-2.125v4.281c1.188 0 2.125-0.969 2.125-2.156s-0.938-2.125-2.125-2.125v-1.188c-1.875 0-3.344 1.438-3.344 3.313s1.469 3.344 3.344 3.344v0.656h5.344zM13.344 3.344c0.719 0 1.313 0.594 1.313 1.313v8c0 0.719-0.594 1.344-1.313 1.344h-10.688c-0.719 0-1.313-0.625-1.313-1.344v-8c0-0.719 0.594-1.313 1.313-1.313h2.156l1.188-1.344h4l1.188 1.344h2.156z"></path>
</svg>
