<?xml version="1.0" encoding="utf-8"?>
<!-- Generated by IcoMoon.io -->
<!DOCTYPE svg PUBLIC "-//W3C//DTD SVG 1.1//EN" "http://www.w3.org/Graphics/SVG/1.1/DTD/svg11.dtd">
<svg version="1.1" xmlns="http://www.w3.org/2000/svg" xmlns:xlink="http://www.w3.org/1999/xlink" width="16" height="16" viewBox="0 0 16 16">
<path d="M12.322 11.522l-2.102-6.028c-0.578-1.658-2.373-2.576-4.074-2.122l-1.581-3.068c-0.143-0.277-0.478-0.383-0.75-0.237s-0.375 0.491-0.231 0.769l1.543 2.994c-1.23 0.816-1.869 2.363-1.463 3.819l1.711 6.157c0.482 1.73 2.464 2.611 4.457 2.002 1.967-0.69 3.080-2.59 2.49-4.285zM7.119 7.138c-0.584 0.192-1.209-0.138-1.396-0.737s0.134-1.238 0.718-1.43c0.584-0.192 1.21 0.138 1.397 0.736s-0.134 1.239-0.718 1.431z"></path>
</svg>
