<?xml version="1.0" encoding="utf-8"?>
<!-- Generated by IcoMoon.io -->
<!DOCTYPE svg PUBLIC "-//W3C//DTD SVG 1.1//EN" "http://www.w3.org/Graphics/SVG/1.1/DTD/svg11.dtd">
<svg version="1.1" xmlns="http://www.w3.org/2000/svg" xmlns:xlink="http://www.w3.org/1999/xlink" width="16" height="16" viewBox="0 0 16 16">
<path d="M10.656 6.656l-2.656 2.688-2.656-2.688h1.313v-2h2.688v2h1.313zM12.656 10v-6.656h-9.344v6.656h2.688c0 1.094 0.906 2 2 2s2-0.906 2-2h2.656zM12.656 2c0.719 0 1.344 0.625 1.344 1.344v9.313c0 0.719-0.625 1.344-1.344 1.344h-9.344c-0.75 0-1.313-0.625-1.313-1.344v-9.313c0-0.719 0.563-1.344 1.313-1.344h9.344z"></path>
</svg>
