<?xml version="1.0" encoding="utf-8"?>
<!-- Generated by IcoMoon.io -->
<!DOCTYPE svg PUBLIC "-//W3C//DTD SVG 1.1//EN" "http://www.w3.org/Graphics/SVG/1.1/DTD/svg11.dtd">
<svg version="1.1" xmlns="http://www.w3.org/2000/svg" xmlns:xlink="http://www.w3.org/1999/xlink" width="16" height="16" viewBox="0 0 16 16">
<path d="M11.281 7.969l1.375-0.625-1.375-0.625-0.625-1.375-0.625 1.375-1.375 0.625 1.375 0.625 0.625 1.375zM7.5 10.156l1.844-0.813-1.844-0.844-0.844-1.844-0.813 1.844-1.844 0.844 1.844 0.813 0.813 1.844zM12 2.656h2.656v9.344c0 0.719-0.594 1.344-1.313 1.344h-10.688c-0.719 0-1.313-0.625-1.313-1.344v-8c0-0.719 0.594-1.344 1.313-1.344h0.688l1.313 2h2l-1.313-2h1.313l1.344 2h2l-1.344-2h1.344l1.344 2h2z"></path>
</svg>
