<?xml version="1.0" encoding="utf-8"?>
<!-- Generated by IcoMoon.io -->
<!DOCTYPE svg PUBLIC "-//W3C//DTD SVG 1.1//EN" "http://www.w3.org/Graphics/SVG/1.1/DTD/svg11.dtd">
<svg version="1.1" xmlns="http://www.w3.org/2000/svg" xmlns:xlink="http://www.w3.org/1999/xlink" width="16" height="16" viewBox="0 0 16 16">
<path d="M10.661 5.333v6h0.667v-6h-0.667zM3.995 1.333v2.667h-2.667v9.333h2.667v0.667c0 0.367 0.328 0.667 0.694 0.667h9.306v-13.333h-10zM4.661 10.667h-0.667v-4h0.667v4zM12.661 12h-0.667v0.667h0.667v0.667h-7.333v-0.667h0.667v-0.667h-0.667v-6h-2v5.333h1.333v0.667h-2v-6.667h2.667v-0.667h7.333v7.333zM12.661 4h-7.333v-1.333h7.333v1.333zM11.328 12.667h-0.667v-0.667h0.667v0.667zM9.995 12.667h-0.667v-0.667h0.667v0.667zM8.661 12.667h-0.667v-0.667h0.667v0.667zM7.328 12.667h-0.667v-0.667h0.667v0.667zM9.328 5.333v6h0.667v-6h-0.667z"></path>
</svg>
