<?xml version="1.0" encoding="utf-8"?>
<!-- Generated by IcoMoon.io -->
<!DOCTYPE svg PUBLIC "-//W3C//DTD SVG 1.1//EN" "http://www.w3.org/Graphics/SVG/1.1/DTD/svg11.dtd">
<svg version="1.1" xmlns="http://www.w3.org/2000/svg" xmlns:xlink="http://www.w3.org/1999/xlink" width="16" height="16" viewBox="0 0 16 16">
<path d="M14.656 4.625l-2.031 2.281c0.719 1.156 1.219 2.563 1.375 4.094h-1.344c-0.125-1.094-0.469-2.125-0.969-3.031l-2.688 3.031-2.656-2.688-4 4-1-1 5-5 2.656 2.688 1.906-2.188c-1.125-1.313-2.688-2.156-4.5-2.156-1.563 0-3 0.625-4.125 1.625l-0.938-0.938c1.375-1.219 3.125-2 5.063-2 2.156 0 4.031 0.938 5.406 2.469l1.906-2.125z"></path>
</svg>
