<?xml version="1.0" encoding="utf-8"?>
<!-- Generated by IcoMoon.io -->
<!DOCTYPE svg PUBLIC "-//W3C//DTD SVG 1.1//EN" "http://www.w3.org/Graphics/SVG/1.1/DTD/svg11.dtd">
<svg version="1.1" xmlns="http://www.w3.org/2000/svg" xmlns:xlink="http://www.w3.org/1999/xlink" width="16" height="16" viewBox="0 0 16 16">
<path d="M9.333 8.828v4.505l-2.253-2.253-0.919 0.919h0.35l2.667 3.333c0.667 0 1.488 0 1.488 0v-7.839l-1.333 1.333zM3.345 10.103c-0.003-0.035-0.011-0.067-0.011-0.103v-3.833c0-0.367 0.143-0.833 0.512-0.833h2.155v2.115l0.667-0.667v-1.448l2.667-2.667v1.448l1.333-1.333v-2.115c-0.667 0-0.821 0-1.488 0l-2.667 3.333h-2.667c-1.103 0-1.845 1.064-1.845 2.167v3.833c0 0.424 0.111 0.815 0.309 1.139l1.036-1.036zM2.276 14.471l-0.943-0.943 12.333-12.333 0.943 0.943-12.333 12.333z"></path>
</svg>
