<?xml version="1.0" encoding="utf-8"?>
<!-- Generated by IcoMoon.io -->
<!DOCTYPE svg PUBLIC "-//W3C//DTD SVG 1.1//EN" "http://www.w3.org/Graphics/SVG/1.1/DTD/svg11.dtd">
<svg version="1.1" xmlns="http://www.w3.org/2000/svg" xmlns:xlink="http://www.w3.org/1999/xlink" width="16" height="16" viewBox="0 0 16 16">
<path d="M8 12.656c2.594 0 4.656-2.063 4.656-4.656s-2.063-4.656-4.656-4.656-4.656 2.063-4.656 4.656 2.063 4.656 4.656 4.656zM13.969 7.344h1.375v1.313h-1.375c-0.313 2.781-2.531 5-5.313 5.313v1.375h-1.313v-1.375c-2.781-0.313-5-2.531-5.313-5.313h-1.375v-1.313h1.375c0.313-2.781 2.531-5 5.313-5.313v-1.375h1.313v1.375c2.781 0.313 5 2.531 5.313 5.313zM8 5.344c1.469 0 2.656 1.188 2.656 2.656s-1.188 2.656-2.656 2.656-2.656-1.188-2.656-2.656 1.188-2.656 2.656-2.656z"></path>
</svg>
