<?xml version="1.0" encoding="utf-8"?>
<!-- Generated by IcoMoon.io -->
<!DOCTYPE svg PUBLIC "-//W3C//DTD SVG 1.1//EN" "http://www.w3.org/Graphics/SVG/1.1/DTD/svg11.dtd">
<svg version="1.1" xmlns="http://www.w3.org/2000/svg" xmlns:xlink="http://www.w3.org/1999/xlink" width="16" height="16" viewBox="0 0 16 16">
<path d="M3 7.344c-0.563 0-1-0.438-1-1s0.438-1 1-1 1 0.438 1 1-0.438 1-1 1zM14.781 6.125c0 2.406-1.813 4.344-4.125 4.625v2.594h2v1.313h-10.656v-3.313h-0.656v-2.688c0-0.375 0.281-0.656 0.656-0.656h2c0.375 0 0.656 0.281 0.656 0.656v2.688h-0.656v2h5.344v-2.625c-2.219-0.375-3.906-2.281-3.906-4.594 0-2.594 2.094-4.688 4.688-4.688s4.656 2.094 4.656 4.688z"></path>
</svg>
