<?xml version="1.0" encoding="utf-8"?>
<!-- Generated by IcoMoon.io -->
<!DOCTYPE svg PUBLIC "-//W3C//DTD SVG 1.1//EN" "http://www.w3.org/Graphics/SVG/1.1/DTD/svg11.dtd">
<svg version="1.1" xmlns="http://www.w3.org/2000/svg" xmlns:xlink="http://www.w3.org/1999/xlink" width="16" height="16" viewBox="0 0 16 16">
<path d="M4.219 5.532c0.16 0 0.315 0.023 0.461 0.069 0.552-0.618 1.164-1.182 1.826-1.68-0.028-0.117-0.043-0.239-0.043-0.364 0-0.174 0.029-0.341 0.082-0.497-0.743-0.531-1.55-0.978-2.409-1.323-0.804 0.497-1.506 1.145-2.066 1.905 0.415 0.736 0.909 1.422 1.47 2.046 0.205-0.099 0.434-0.155 0.678-0.155zM2.653 7.098c0-0.22 0.046-0.43 0.127-0.618-0.502-0.554-0.958-1.149-1.356-1.783-0.5 0.994-0.784 2.116-0.784 3.305 0 1.375 0.379 2.662 1.036 3.764 0.235-1.323 0.681-2.575 1.296-3.722-0.2-0.262-0.319-0.591-0.319-0.946zM8.029 1.991c0.414 0 0.788 0.161 1.069 0.423 0.817-0.351 1.677-0.622 2.572-0.794-1.081-0.623-2.334-0.981-3.67-0.981-0.911 0-1.783 0.167-2.589 0.47 0.639 0.316 1.249 0.684 1.822 1.1 0.234-0.139 0.505-0.219 0.796-0.219zM10.37 9.366c0.098-0.203 0.236-0.383 0.407-0.525-0.462-1.422-1.194-2.723-2.138-3.842-0.187 0.080-0.394 0.123-0.611 0.123-0.34 0-0.653-0.11-0.91-0.292-0.568 0.431-1.094 0.914-1.571 1.442 0.15 0.239 0.238 0.522 0.238 0.825 0 0.162-0.025 0.32-0.072 0.469 1.374 0.917 2.955 1.547 4.657 1.8zM12.401 11.481c0.021 0.297 0.033 0.595 0.033 0.897 0 0.531-0.034 1.054-0.098 1.569 1.248-0.911 2.198-2.206 2.678-3.711-0.568 0.138-1.15 0.236-1.745 0.292-0.138 0.43-0.458 0.775-0.868 0.954zM10.003 10.419c-1.818-0.302-3.502-0.995-4.968-1.987-0.238 0.146-0.518 0.231-0.817 0.231-0.111 0-0.218-0.011-0.322-0.033-0.702 1.33-1.15 2.814-1.279 4.387 0.701 0.752 1.555 1.358 2.516 1.764 1.194-1.834 2.861-3.351 4.87-4.362zM12.941 2.545c-1.18 0.114-2.306 0.411-3.354 0.854 0.005 0.053 0.008 0.105 0.008 0.158 0 0.247-0.059 0.48-0.161 0.687 1.049 1.231 1.862 2.664 2.375 4.233 0.638 0.013 1.182 0.402 1.416 0.956 0.709-0.072 1.398-0.208 2.062-0.403 0.048-0.336 0.074-0.68 0.074-1.030-0.001-2.163-0.934-4.109-2.42-5.455zM10.791 11.255c-1.875 0.878-3.443 2.231-4.578 3.885 0.572 0.143 1.17 0.22 1.787 0.22 1.11 0 2.162-0.247 3.106-0.687 0.152-0.742 0.232-1.51 0.232-2.295 0-0.284-0.013-0.566-0.034-0.844-0.189-0.061-0.362-0.154-0.512-0.278z"></path>
</svg>
