<?xml version="1.0" encoding="utf-8"?>
<!-- Generated by IcoMoon.io -->
<!DOCTYPE svg PUBLIC "-//W3C//DTD SVG 1.1//EN" "http://www.w3.org/Graphics/SVG/1.1/DTD/svg11.dtd">
<svg version="1.1" xmlns="http://www.w3.org/2000/svg" xmlns:xlink="http://www.w3.org/1999/xlink" width="16" height="16" viewBox="0 0 16 16">
<path d="M14 10.656v-1c0-0.563-0.438-1-1-1s-1 0.438-1 1v1h2zM14.656 10.656c0.375 0 0.688 0.313 0.688 0.688v2.656c0 0.375-0.313 0.656-0.688 0.656h-3.313c-0.375 0-0.688-0.281-0.688-0.656v-2.656c0-0.375 0.313-0.688 0.688-0.688v-1c0-0.906 0.75-1.656 1.656-1.656s1.656 0.75 1.656 1.656v1zM13 6.656c-1.656 0-3 1.344-3 3v0.188c-0.406 0.375-0.656 0.906-0.656 1.5v2h-8.688l12.688-12.688v6.031c-0.125 0-0.219-0.031-0.344-0.031z"></path>
</svg>
