<?xml version="1.0" encoding="utf-8"?>
<!-- Generated by IcoMoon.io -->
<!DOCTYPE svg PUBLIC "-//W3C//DTD SVG 1.1//EN" "http://www.w3.org/Graphics/SVG/1.1/DTD/svg11.dtd">
<svg version="1.1" xmlns="http://www.w3.org/2000/svg" xmlns:xlink="http://www.w3.org/1999/xlink" width="16" height="16" viewBox="0 0 16 16">
<path d="M3.344 8.656c1.344-1.344 3.125-1.969 4.875-1.906l-0.875 1.906c-0.969 0.125-1.938 0.594-2.688 1.344zM11.344 10c-0.25-0.25-0.531-0.469-0.813-0.656l0.375-1.938c0.625 0.313 1.219 0.719 1.75 1.25zM14 7.344c-0.813-0.813-1.75-1.438-2.75-1.844l0.344-1.875c1.375 0.5 2.656 1.281 3.75 2.375zM0.656 6c2.5-2.5 5.938-3.438 9.156-2.875l-0.781 1.781c-2.5-0.313-5.125 0.531-7.031 2.438zM10.594 3.344c0.188 0 0.344 0.125 0.344 0.313l-1.625 8.594v0.031c-0.125 0.594-0.688 1.063-1.313 1.063-0.75 0-1.344-0.594-1.344-1.344 0-0.219 0.063-0.469 0.156-0.656l3.469-7.75c0.049-0.147 0.143-0.25 0.313-0.25z"></path>
</svg>
