<?xml version="1.0" encoding="utf-8"?>
<!-- Generated by IcoMoon.io -->
<!DOCTYPE svg PUBLIC "-//W3C//DTD SVG 1.1//EN" "http://www.w3.org/Graphics/SVG/1.1/DTD/svg11.dtd">
<svg version="1.1" xmlns="http://www.w3.org/2000/svg" xmlns:xlink="http://www.w3.org/1999/xlink" width="16" height="16" viewBox="0 0 16 16">
<path d="M14.539 1.461c-0.882-0.882-1.666-0.622-1.666-0.622l-6.911 6.906-1.162 3.455 3.454-1.163 6.907-6.91c0 0 0.259-0.784-0.622-1.666zM8.484 9.284l-0.377 0.376-1.178 0.4c-0.083-0.192-0.187-0.382-0.398-0.592s-0.4-0.315-0.592-0.398l0.4-1.178 0.377-0.376c0 0 0.621-0.071 1.23 0.538s0.539 1.23 0.539 1.23zM12.8 13.6h-10.4v-10.4h4l1.6-1.6h-5.6c-0.88 0-1.6 0.72-1.6 1.6v10.4c0 0.88 0.72 1.6 1.6 1.6h10.4c0.88 0 1.6-0.72 1.6-1.6v-5.6l-1.6 1.6v4z"></path>
</svg>
