<?xml version="1.0" encoding="utf-8"?>
<!-- Generated by IcoMoon.io -->
<!DOCTYPE svg PUBLIC "-//W3C//DTD SVG 1.1//EN" "http://www.w3.org/Graphics/SVG/1.1/DTD/svg11.dtd">
<svg version="1.1" xmlns="http://www.w3.org/2000/svg" xmlns:xlink="http://www.w3.org/1999/xlink" width="16" height="16" viewBox="0 0 16 16">
<path d="M14.952 9.875l-1.382-1.23c-0.4-0.356-0.4-0.939 0-1.295l1.382-1.231c0.4-0.356 0.294-0.687-0.237-0.739l-1.832-0.174c-0.53-0.050-0.816-0.506-0.633-1.013l0.972-2.706c0.182-0.508-0.041-0.692-0.495-0.411l-2.161 1.336c-0.454 0.283-1.042 0.128-1.305-0.341l-0.782-1.397c-0.263-0.47-0.698-0.472-0.966-0.006l-0.727 1.264c-0.27 0.468-0.886 0.666-1.37 0.445l-1.28-0.587c-0.486-0.224-0.858 0.034-0.83 0.573l0.069 1.292c0.030 0.539-0.369 1.094-0.883 1.233l-1.236 0.331c-0.514 0.139-0.608 0.544-0.208 0.9l1.382 1.231c0.4 0.356 0.4 0.939 0 1.295l-1.382 1.231c-0.4 0.356-0.294 0.702 0.234 0.766l1.676 0.203c0.529 0.064 0.823 0.536 0.654 1.049l-0.859 2.606c-0.169 0.513 0.072 0.711 0.534 0.444l1.97-1.141c0.462-0.267 1.085-0.12 1.383 0.326l0.818 1.231c0.298 0.447 0.745 0.423 0.992-0.054l0.719-1.386c0.248-0.478 0.842-0.674 1.318-0.434l1.387 0.694c0.478 0.238 0.846-0.008 0.817-0.546l-0.070-1.294c-0.028-0.539 0.369-1.092 0.885-1.231l1.234-0.333c0.515-0.139 0.61-0.544 0.21-0.9zM8.8 11.2h-1.6v-1.6h1.6v1.6zM8.8 8.8h-1.6v-4h1.6v4z"></path>
</svg>
