<?xml version="1.0" encoding="utf-8"?>
<!-- Generated by IcoMoon.io -->
<!DOCTYPE svg PUBLIC "-//W3C//DTD SVG 1.1//EN" "http://www.w3.org/Graphics/SVG/1.1/DTD/svg11.dtd">
<svg version="1.1" xmlns="http://www.w3.org/2000/svg" xmlns:xlink="http://www.w3.org/1999/xlink" width="16" height="16" viewBox="0 0 16 16">
<path d="M11.2 4h-3.2v1.6h3.2v-1.6zM11.2 6.4h-3.2v0.8h3.2v-0.8zM7.2 4h-2.4v3.2h2.4v-3.2zM7.2 8.8h4v-0.8h-4v0.8zM9.6 10.4h1.6v-0.8h-1.6v0.8zM11.2 11.2h-6.4v0.8h6.4v-0.8zM8.8 9.6h-4v0.8h4v-0.8zM6.4 8h-1.6v0.8h1.6v-0.8zM13.6 0.8h-11.2c-0.442 0-0.8 0.358-0.8 0.8v12.8c0 0.442 0.358 0.8 0.8 0.8h11.2c0.442 0 0.8-0.358 0.8-0.8v-12.8c0-0.442-0.358-0.8-0.8-0.8zM12.8 13.6h-9.6v-11.2h9.6v11.2z"></path>
</svg>
