<?xml version="1.0" encoding="utf-8"?>
<!-- Generated by IcoMoon.io -->
<!DOCTYPE svg PUBLIC "-//W3C//DTD SVG 1.1//EN" "http://www.w3.org/Graphics/SVG/1.1/DTD/svg11.dtd">
<svg version="1.1" xmlns="http://www.w3.org/2000/svg" xmlns:xlink="http://www.w3.org/1999/xlink" width="16" height="16" viewBox="0 0 16 16">
<path d="M4 10.667h8v-4h-8v4zM4.667 7.333h6.667v2.667h-6.667v-2.667zM4 5.333h8v0.667h-8zM4 11.333h3.333v0.667h-3.333zM4 12.667h2v0.667h-2zM6.69 12.706h0.667v0.667h-0.667zM8.667 11.333h3.333v0.667h-3.333zM8.667 12.667h3.333v0.667h-3.333zM13.333 2.667v-0.627c0-0.773-0.665-1.373-2.31-1.373h-8c-1.103 0-1.69 0.936-1.69 2.039v11.333c0 1.103 0.587 1.961 1.69 1.961h9.333c1.103 0 0.977 0 2.31 0v-13.333h-1.333zM13.333 14.667h-10.31c-0.367 0-0.357-0.261-0.357-0.627v-11.333c0-0.367-0.011-0.706 0.357-0.706h8.977v0.667h-8v1.333h9.333v10.667z"></path>
</svg>
