<?xml version="1.0" encoding="utf-8"?>
<!-- Generated by IcoMoon.io -->
<!DOCTYPE svg PUBLIC "-//W3C//DTD SVG 1.1//EN" "http://www.w3.org/Graphics/SVG/1.1/DTD/svg11.dtd">
<svg version="1.1" xmlns="http://www.w3.org/2000/svg" xmlns:xlink="http://www.w3.org/1999/xlink" width="16" height="16" viewBox="0 0 16 16">
<path d="M7.344 12.344l2.656-2.688-2.656-2.656-0.688 0.656 2 2-2 2zM6.656 3.344v1.313h2.688v-1.313h-2.688zM9.344 2c0.729 0 1.313 0.609 1.313 1.344v1.313h2.688c0.719 0 1.313 0.625 1.313 1.344v7.344c0 0.719-0.594 1.313-1.313 1.313h-10.688c-0.719 0-1.313-0.594-1.313-1.313v-7.344c0-0.719 0.594-1.344 1.313-1.344h2.688v-1.313c0-0.719 0.594-1.344 1.313-1.344h2.688z"></path>
</svg>
