<?xml version="1.0" encoding="utf-8"?>
<!-- Generated by IcoMoon.io -->
<!DOCTYPE svg PUBLIC "-//W3C//DTD SVG 1.1//EN" "http://www.w3.org/Graphics/SVG/1.1/DTD/svg11.dtd">
<svg version="1.1" xmlns="http://www.w3.org/2000/svg" xmlns:xlink="http://www.w3.org/1999/xlink" width="16" height="16" viewBox="0 0 16 16">
<path d="M12 4v8h-8v-8h2.656v1.344h-1.313v5.313h5.313v-5.313h-2v1.5c0.406 0.219 0.688 0.656 0.688 1.156 0 0.719-0.625 1.344-1.344 1.344s-1.344-0.625-1.344-1.344c0-0.5 0.281-0.938 0.688-1.156v-1.5c0-0.719 0.594-1.344 1.313-1.344h3.344zM13.344 13.344v-10.688h-10.688v10.688h10.688zM13.344 1.344c0.719 0 1.313 0.594 1.313 1.313v10.688c0 0.719-0.594 1.313-1.313 1.313h-10.688c-0.719 0-1.313-0.594-1.313-1.313v-10.688c0-0.719 0.594-1.313 1.313-1.313h10.688z"></path>
</svg>
