<?xml version="1.0" encoding="utf-8"?>
<!-- Generated by IcoMoon.io -->
<!DOCTYPE svg PUBLIC "-//W3C//DTD SVG 1.1//EN" "http://www.w3.org/Graphics/SVG/1.1/DTD/svg11.dtd">
<svg version="1.1" xmlns="http://www.w3.org/2000/svg" xmlns:xlink="http://www.w3.org/1999/xlink" width="16" height="16" viewBox="0 0 16 16">
<path d="M5.938 4v0.813l-1.219-1.219c0.188-1.656 1.563-2.938 3.281-2.938 1.844 0 3.344 1.5 3.344 3.344v1.344h0.656c0.719 0 1.344 0.594 1.344 1.313v5.563l-6.906-6.875h3.625v-1.344c0-1.125-0.938-2.063-2.063-2.063s-2.063 0.938-2.063 2.063zM14 14.531l-0.813 0.813-0.75-0.75c-0.125 0.031-0.281 0.063-0.438 0.063h-8c-0.719 0-1.344-0.594-1.344-1.313v-6.688c0-0.5 0.313-0.938 0.719-1.156l-1.375-1.344 0.813-0.813z"></path>
</svg>
