<?xml version="1.0" encoding="utf-8"?>
<!-- Generated by IcoMoon.io -->
<!DOCTYPE svg PUBLIC "-//W3C//DTD SVG 1.1//EN" "http://www.w3.org/Graphics/SVG/1.1/DTD/svg11.dtd">
<svg version="1.1" xmlns="http://www.w3.org/2000/svg" xmlns:xlink="http://www.w3.org/1999/xlink" width="16" height="16" viewBox="0 0 16 16">
<path d="M12.219 11.281c0.719-0.906 1.125-2.063 1.125-3.281 0-2.938-2.406-5.344-5.344-5.344-1.219 0-2.375 0.406-3.281 1.125zM8 13.344c1.219 0 2.375-0.406 3.281-1.125l-7.5-7.5c-0.719 0.906-1.125 2.063-1.125 3.281 0 2.938 2.406 5.344 5.344 5.344zM8 1.344c3.688 0 6.656 2.969 6.656 6.656s-2.969 6.656-6.656 6.656-6.656-2.969-6.656-6.656 2.969-6.656 6.656-6.656z"></path>
</svg>
