<?xml version="1.0" encoding="utf-8"?>
<!-- Generated by IcoMoon.io -->
<!DOCTYPE svg PUBLIC "-//W3C//DTD SVG 1.1//EN" "http://www.w3.org/Graphics/SVG/1.1/DTD/svg11.dtd">
<svg version="1.1" xmlns="http://www.w3.org/2000/svg" xmlns:xlink="http://www.w3.org/1999/xlink" width="16" height="16" viewBox="0 0 16 16">
<path d="M12 6.704v6.896h-9.6v-9.6h6.896c-0.058-0.258-0.096-0.524-0.096-0.8s0.038-0.542 0.096-0.8h-6.896c-0.882 0-1.6 0.72-1.6 1.6v9.6c0 0.88 0.72 1.6 1.6 1.6h9.6c0.88 0 1.6-0.72 1.6-1.6v-6.896c-0.258 0.058-0.524 0.096-0.8 0.096s-0.542-0.038-0.8-0.096zM12.8 0.8c-1.326 0-2.4 1.074-2.4 2.4s1.074 2.4 2.4 2.4 2.4-1.074 2.4-2.4-1.074-2.4-2.4-2.4z"></path>
</svg>
