<?xml version="1.0" encoding="utf-8"?>
<!-- Generated by IcoMoon.io -->
<!DOCTYPE svg PUBLIC "-//W3C//DTD SVG 1.1//EN" "http://www.w3.org/Graphics/SVG/1.1/DTD/svg11.dtd">
<svg version="1.1" xmlns="http://www.w3.org/2000/svg" xmlns:xlink="http://www.w3.org/1999/xlink" width="16" height="16" viewBox="0 0 16 16">
<path d="M9.656 6.531v-1.188h-3.313v1.188h1.844l-1.844 2.281v1.188h3.313v-1.188h-1.844zM12 10.656l1.344 1.344v0.656h-10.688v-0.656l1.344-1.344v-3.313c0-2.031 1.094-3.75 3-4.219v-0.469c0-0.563 0.438-1 1-1s1 0.438 1 1v0.469c1.906 0.469 3 2.188 3 4.219v3.313zM8 14.656c-0.75 0-1.344-0.594-1.344-1.313h2.688c0 0.719-0.625 1.313-1.344 1.313z"></path>
</svg>
