<?xml version="1.0" encoding="utf-8"?>
<!-- Generated by IcoMoon.io -->
<!DOCTYPE svg PUBLIC "-//W3C//DTD SVG 1.1//EN" "http://www.w3.org/Graphics/SVG/1.1/DTD/svg11.dtd">
<svg version="1.1" xmlns="http://www.w3.org/2000/svg" xmlns:xlink="http://www.w3.org/1999/xlink" width="16" height="16" viewBox="0 0 16 16">
<path d="M8 14.656c-0.75 0-1.344-0.594-1.344-1.313h2.656c0 0.776-0.582 1.313-1.313 1.313zM12 7.344v3.313l1.344 1.344v0.656h-10.688v-0.656l1.344-1.344v-3.313c0-2.063 1.094-3.75 3-4.219v-0.469c0-0.563 0.438-1 1-1s1 0.438 1 1v0.469c1.906 0.469 3 2.188 3 4.219zM13.313 7c-0.094-1.781-1-3.313-2.344-4.281l0.938-0.938c1.594 1.219 2.656 3.094 2.75 5.219h-1.344zM5.063 2.719c-1.375 0.969-2.281 2.5-2.375 4.281h-1.344c0.094-2.125 1.156-4 2.75-5.219z"></path>
</svg>
