<?xml version="1.0" encoding="utf-8"?>
<!-- Generated by IcoMoon.io -->
<!DOCTYPE svg PUBLIC "-//W3C//DTD SVG 1.1//EN" "http://www.w3.org/Graphics/SVG/1.1/DTD/svg11.dtd">
<svg version="1.1" xmlns="http://www.w3.org/2000/svg" xmlns:xlink="http://www.w3.org/1999/xlink" width="16" height="16" viewBox="0 0 16 16">
<path d="M12 9.781l-5.969-6.281c0.156-0.063 0.313-0.156 0.469-0.219h0.031l0.188-0.094c0.094-0.031 0.188-0.031 0.281-0.063v-0.469c0-0.563 0.438-1 1-1s1 0.438 1 1v0.469c1.906 0.469 3 2.156 3 4.219v2.438zM8 14.656c-0.75 0-1.344-0.563-1.344-1.313h2.688c0 0.75-0.594 1.313-1.344 1.313zM5.219 4.094c2.926 3.022 5.865 6.031 8.781 9.063l-0.844 0.844-1.344-1.344h-9.156v-0.656l1.344-1.344v-3.344c0-0.844 0.188-1.625 0.531-2.281l-1.875-1.844 0.844-0.875z"></path>
</svg>
