<?xml version="1.0" encoding="utf-8"?>
<!-- Generated by IcoMoon.io -->
<!DOCTYPE svg PUBLIC "-//W3C//DTD SVG 1.1//EN" "http://www.w3.org/Graphics/SVG/1.1/DTD/svg11.dtd">
<svg version="1.1" xmlns="http://www.w3.org/2000/svg" xmlns:xlink="http://www.w3.org/1999/xlink" width="16" height="16" viewBox="0 0 16 16">
<path d="M10.88 2.4h-5.28v-2.4h-1.6v14.88c0 0.616 0.503 1.12 1.118 1.12h5.762c0.615 0 1.12-0.505 1.12-1.12v-11.359c0-0.618-0.505-1.121-1.12-1.121zM6.4 12c-0.553 0-1-0.358-1-0.8s0.447-0.8 1-0.8 1 0.358 1 0.8-0.447 0.8-1 0.8zM7.4 13.6c0 0.442-0.447 0.8-1 0.8s-1-0.358-1-0.8 0.447-0.8 1-0.8 1 0.358 1 0.8zM5.6 8.8v-4.8h4.8v4.8h-4.8zM9.6 12c-0.553 0-1-0.358-1-0.8s0.447-0.8 1-0.8 1 0.358 1 0.8-0.447 0.8-1 0.8zM10.6 13.6c0 0.442-0.447 0.8-1 0.8s-1-0.358-1-0.8 0.447-0.8 1-0.8 1 0.358 1 0.8z"></path>
</svg>
