<?xml version="1.0" encoding="utf-8"?>
<!-- Generated by IcoMoon.io -->
<!DOCTYPE svg PUBLIC "-//W3C//DTD SVG 1.1//EN" "http://www.w3.org/Graphics/SVG/1.1/DTD/svg11.dtd">
<svg version="1.1" xmlns="http://www.w3.org/2000/svg" xmlns:xlink="http://www.w3.org/1999/xlink" width="16" height="16" viewBox="0 0 16 16">
<path d="M13.805 9.802c-0.077-0.534-0.489-0.95-1.019-1.074-2.062-0.483-2.578-1.67-2.666-2.987-0.366-0.068-1.016-0.142-2.12-0.142s-1.754 0.074-2.12 0.142c-0.087 1.317-0.604 2.504-2.666 2.987-0.53 0.125-0.942 0.54-1.019 1.074l-0.398 2.754c-0.14 0.97 0.572 1.844 1.562 1.844h9.28c0.99 0 1.702-0.874 1.562-1.844l-0.398-2.754zM8 12.394c-1.116 0-2.021-0.896-2.021-2s0.905-2 2.021-2 2.021 0.896 2.021 2-0.906 2-2.021 2zM15.96 4.8c-0.019-1.2-3.074-3.199-7.96-3.2-4.887 0.001-7.942 2-7.96 3.2s0.017 2.762 2.028 2.502c2.353-0.305 2.208-1.126 2.208-2.301 0-0.819 1.914-1.017 3.724-1.017s3.723 0.198 3.724 1.017c0 1.174-0.145 1.996 2.208 2.301 2.010 0.26 2.046-1.302 2.028-2.502z"></path>
</svg>
