<?xml version="1.0" encoding="utf-8"?>
<!-- Generated by IcoMoon.io -->
<!DOCTYPE svg PUBLIC "-//W3C//DTD SVG 1.1//EN" "http://www.w3.org/Graphics/SVG/1.1/DTD/svg11.dtd">
<svg version="1.1" xmlns="http://www.w3.org/2000/svg" xmlns:xlink="http://www.w3.org/1999/xlink" width="16" height="16" viewBox="0 0 16 16">
<path d="M5.143 7.878c0.39-1.569 1.799-2.715 3.473-2.715 0.989 0 1.915 0.404 2.586 1.106 0.283-0.091 0.614-0.162 0.909-0.168v-0.104c0-1.986-1.476-3.596-3.296-3.596-1.301 0-2.416 0.83-2.952 2.025-0.395-0.267-0.857-0.428-1.355-0.428-1.428 0-2.585 1.262-2.585 2.818 0 0.168 0.019 0.331 0.046 0.49-1.102 0.109-1.964 1.235-1.964 2.464 0 0.013 0.003 0.023 0.003 0.036-0.001 0.011-0.007 0.022-0.007 0.034 0 0.492 0.171 0.942 0.449 1.305 0.394 0.53 1.010 0.856 1.712 0.856h1.009c-0.197-0.39-0.318-0.826-0.318-1.292-0.001-1.39 0.984-2.554 2.292-2.83zM14.311 9.422c-0.020 0-0.040 0.006-0.060 0.006 0.006-0.059 0.018-0.117 0.018-0.178 0-1.178-0.954-2.131-2.132-2.131-0.469 0-0.898 0.155-1.251 0.413-0.437-0.812-1.283-1.37-2.27-1.37-1.43 0-2.59 1.159-2.59 2.59 0 0.018 0.005 0.034 0.006 0.053-0.094-0.014-0.189-0.029-0.287-0.029-1.068 0-1.932 0.865-1.932 1.932 0 0.134 0.014 0.264 0.039 0.39 0.182 0.969 1.030 1.702 2.053 1.702h8.565v-0.015c0.858-0.082 1.531-0.795 1.531-1.674 0-0.933-0.756-1.69-1.689-1.69z"></path>
</svg>
