<?xml version="1.0" encoding="utf-8"?>
<!-- Generated by IcoMoon.io -->
<!DOCTYPE svg PUBLIC "-//W3C//DTD SVG 1.1//EN" "http://www.w3.org/Graphics/SVG/1.1/DTD/svg11.dtd">
<svg version="1.1" xmlns="http://www.w3.org/2000/svg" xmlns:xlink="http://www.w3.org/1999/xlink" width="16" height="16" viewBox="0 0 16 16">
<path d="M8.476 4.157l0.357 1.097c0.295-0.253 0.668-0.479 1.153-0.636 0.472-0.154 0.889-0.24 1.266-0.29l-0.344-1.058c-0.381 0.055-0.801 0.144-1.264 0.294s-0.844 0.36-1.167 0.593zM9.218 6.441l0.357 1.097c0.295-0.253 0.668-0.479 1.153-0.636 0.472-0.154 0.889-0.24 1.266-0.29l-0.344-1.058c-0.381 0.055-0.801 0.144-1.264 0.294s-0.843 0.359-1.167 0.593zM9.96 8.724l0.357 1.097c0.295-0.253 0.668-0.479 1.153-0.636 0.472-0.154 0.889-0.24 1.266-0.29l-0.344-1.058c-0.381 0.055-0.801 0.144-1.264 0.294s-0.844 0.36-1.167 0.593zM4.31 10.462l0.344 1.058c0.334-0.181 0.722-0.356 1.194-0.509 0.485-0.158 0.919-0.194 1.306-0.162l-0.357-1.097c-0.399 0.002-0.83 0.056-1.292 0.206-0.463 0.15-0.855 0.325-1.195 0.504zM2.826 5.894l0.344 1.058c0.334-0.181 0.722-0.355 1.194-0.509 0.485-0.158 0.919-0.194 1.306-0.162l-0.356-1.098c-0.399 0.002-0.83 0.056-1.293 0.206s-0.855 0.325-1.195 0.504zM3.568 8.178l0.344 1.058c0.334-0.181 0.722-0.356 1.194-0.509 0.485-0.158 0.919-0.194 1.306-0.162l-0.356-1.098c-0.399 0.002-0.83 0.056-1.292 0.206-0.463 0.15-0.856 0.326-1.196 0.505zM8.851 1.128c-1.378 0.448-2.098 1.402-2.442 2.047-0.658-0.32-1.8-0.668-3.178-0.22-2.018 0.656-3.175 2.102-3.175 2.102l3.276 10.070c0.101 0.31 0.517 0.382 0.702 0.114 0.399-0.575 1.168-1.326 2.606-1.794 1.374-0.446 2.375 0.043 2.924 0.462 0.218 0.166 0.53 0.048 0.61-0.214 0.202-0.662 0.726-1.632 2.088-2.074 1.439-0.468 2.503-0.311 3.165-0.080 0.308 0.107 0.6-0.194 0.5-0.503l-3.27-10.075c0 0-1.786-0.49-3.804 0.166zM8.761 12.205c-0.655-0.195-1.521-0.286-2.513 0.035-1.001 0.325-1.702 0.759-2.159 1.123l-2.596-7.986c0.286-0.286 0.95-0.834 2.13-1.217 1.111-0.361 2.022-0.052 2.623 0.302l2.515 7.742zM14.276 10.054c-0.585-0.026-1.407 0.035-2.408 0.361-0.992 0.322-1.638 0.906-2.054 1.448l-2.515-7.742c0.277-0.64 0.832-1.426 1.944-1.786 1.179-0.383 2.038-0.33 2.438-0.267l2.595 7.986z"></path>
</svg>
