<?xml version="1.0" encoding="utf-8"?>
<!-- Generated by IcoMoon.io -->
<!DOCTYPE svg PUBLIC "-//W3C//DTD SVG 1.1//EN" "http://www.w3.org/Graphics/SVG/1.1/DTD/svg11.dtd">
<svg version="1.1" xmlns="http://www.w3.org/2000/svg" xmlns:xlink="http://www.w3.org/1999/xlink" width="16" height="16" viewBox="0 0 16 16">
<path d="M11.188 12.125l0.938-0.938-1.938-1.938c0.281-0.469 0.469-1 0.469-1.594 0-1.656-1.344-3-3-3s-3 1.344-3 3 1.344 3 3 3c0.594 0 1.125-0.188 1.594-0.469zM13.344 2.656c0.719 0 1.313 0.625 1.313 1.344v8c0 0.719-0.594 1.344-1.313 1.344h-10.688c-0.719 0-1.313-0.625-1.313-1.344v-8c0-0.719 0.594-1.344 1.313-1.344h10.688zM7.656 6c0.906 0 1.688 0.75 1.688 1.656s-0.781 1.688-1.688 1.688-1.656-0.781-1.656-1.688 0.75-1.656 1.656-1.656z"></path>
</svg>
