<?xml version="1.0" encoding="utf-8"?>
<!-- Generated by IcoMoon.io -->
<!DOCTYPE svg PUBLIC "-//W3C//DTD SVG 1.1//EN" "http://www.w3.org/Graphics/SVG/1.1/DTD/svg11.dtd">
<svg version="1.1" xmlns="http://www.w3.org/2000/svg" xmlns:xlink="http://www.w3.org/1999/xlink" width="16" height="16" viewBox="0 0 16 16">
<path d="M12.656 2c0.719 0 1.344 0.625 1.344 1.344v4h-3.344l0.688-2.688-2.688 0.688v-3.344h4zM11.344 11.344l-0.688-2.688h3.344v4c0 0.719-0.625 1.344-1.344 1.344h-4v-3.344zM5.344 8.656l-0.688 2.688 2.688-0.688v3.344h-4c-0.719 0-1.344-0.625-1.344-1.344v-4h3.344zM2 3.344c0-0.719 0.625-1.344 1.344-1.344h4v3.344l-2.688-0.688 0.688 2.688h-3.344v-4z"></path>
</svg>
