<?xml version="1.0" encoding="utf-8"?>
<!-- Generated by IcoMoon.io -->
<!DOCTYPE svg PUBLIC "-//W3C//DTD SVG 1.1//EN" "http://www.w3.org/Graphics/SVG/1.1/DTD/svg11.dtd">
<svg version="1.1" xmlns="http://www.w3.org/2000/svg" xmlns:xlink="http://www.w3.org/1999/xlink" width="16" height="16" viewBox="0 0 16 16">
<path d="M11.656 8c0.563 0 1-0.438 1-1s-0.438-1-1-1-1 0.438-1 1 0.438 1 1 1zM9.656 5.344c0.563 0 1-0.438 1-1s-0.438-1-1-1-1 0.438-1 1 0.438 1 1 1zM6.344 5.344c0.563 0 1-0.438 1-1s-0.438-1-1-1-1 0.438-1 1 0.438 1 1 1zM4.344 8c0.563 0 1-0.438 1-1s-0.438-1-1-1-1 0.438-1 1 0.438 1 1 1zM8 2c3.313 0 6 2.406 6 5.344 0 1.844-1.5 3.313-3.344 3.313h-1.156c-0.563 0-1 0.438-1 1 0 0.25 0.094 0.469 0.25 0.656s0.25 0.438 0.25 0.688c0 0.563-0.438 1-1 1-3.313 0-6-2.688-6-6s2.688-6 6-6z"></path>
</svg>
