<?xml version="1.0" encoding="utf-8"?>
<!-- Generated by IcoMoon.io -->
<!DOCTYPE svg PUBLIC "-//W3C//DTD SVG 1.1//EN" "http://www.w3.org/Graphics/SVG/1.1/DTD/svg11.dtd">
<svg version="1.1" xmlns="http://www.w3.org/2000/svg" xmlns:xlink="http://www.w3.org/1999/xlink" width="16" height="16" viewBox="0 0 16 16">
<path d="M12.592 2.086c-2.822-0.949-5.653-0.769-8.576 1.019-2.282 1.394-3.774 4.861-3.282 7.346 0.582 2.937 3.481 4.796 7.394 3.721 4.22-1.159 5.239-3.637 5.103-4.267s-2.132-1.322-1.374-2.798c0.95-1.85 2.503-0.919 3.186-1.298 0.684-0.378 0.431-2.754-2.45-3.722zM9.675 10.651c-0.638 0.174-1.298-0.205-1.474-0.847-0.177-0.644 0.198-1.305 0.837-1.479s1.298 0.203 1.474 0.847c0.176 0.642-0.198 1.305-0.837 1.479z"></path>
</svg>
