<?xml version="1.0" encoding="utf-8"?>
<!-- Generated by IcoMoon.io -->
<!DOCTYPE svg PUBLIC "-//W3C//DTD SVG 1.1//EN" "http://www.w3.org/Graphics/SVG/1.1/DTD/svg11.dtd">
<svg version="1.1" xmlns="http://www.w3.org/2000/svg" xmlns:xlink="http://www.w3.org/1999/xlink" width="16" height="16" viewBox="0 0 16 16">
<path d="M15.344 3.656v9.688c0 1.469-1.219 2.656-2.688 2.656h-4.844c-0.719 0-1.406-0.281-1.906-0.781l-5.25-5.344s0.844-0.813 0.875-0.813c0.156-0.125 0.344-0.188 0.531-0.188 0.156 0 0.281 0.031 0.406 0.094 0.031 0 2.875 1.625 2.875 1.625v-7.938c0-0.563 0.438-1 1-1s1 0.438 1 1v4.688h0.656v-6.344c0-0.563 0.438-1 1-1s1 0.438 1 1v6.344h0.656v-5.688c0-0.563 0.438-1 1-1s1 0.438 1 1v5.688h0.688v-3.688c0-0.563 0.438-1 1-1s1 0.438 1 1z"></path>
</svg>
