<?xml version="1.0" encoding="utf-8"?>
<!-- Generated by IcoMoon.io -->
<!DOCTYPE svg PUBLIC "-//W3C//DTD SVG 1.1//EN" "http://www.w3.org/Graphics/SVG/1.1/DTD/svg11.dtd">
<svg version="1.1" xmlns="http://www.w3.org/2000/svg" xmlns:xlink="http://www.w3.org/1999/xlink" width="16" height="16" viewBox="0 0 16 16">
<path d="M8 2.656c1.813 0 3.5 0.188 5.313 0.5l0.594 0.094 0.188 0.594c0.375 1.375 0.563 2.781 0.563 4.156s-0.188 2.781-0.563 4.156l-0.188 0.594-0.594 0.094c-1.813 0.313-3.5 0.5-5.313 0.5s-3.5-0.188-5.313-0.5l-0.594-0.094-0.188-0.594c-0.375-1.375-0.563-2.781-0.563-4.156s0.188-2.781 0.563-4.156l0.188-0.594 0.594-0.094c1.813-0.313 3.5-0.5 5.313-0.5zM8 4c-1.625 0-3.156 0.156-4.875 0.438-0.313 1.188-0.469 2.375-0.469 3.563s0.156 2.375 0.469 3.563c1.719 0.281 3.25 0.438 4.875 0.438s3.156-0.156 4.875-0.438c0.313-1.188 0.469-2.375 0.469-3.563s-0.156-2.375-0.469-3.563c-1.719-0.281-3.25-0.438-4.875-0.438z"></path>
</svg>
