<?xml version="1.0" encoding="utf-8"?>
<!-- Generated by IcoMoon.io -->
<!DOCTYPE svg PUBLIC "-//W3C//DTD SVG 1.1//EN" "http://www.w3.org/Graphics/SVG/1.1/DTD/svg11.dtd">
<svg version="1.1" xmlns="http://www.w3.org/2000/svg" xmlns:xlink="http://www.w3.org/1999/xlink" width="16" height="16" viewBox="0 0 16 16">
<path d="M4.375 13.344h7.25c-0.5-1.719-0.75-3.531-0.75-5.344s0.25-3.625 0.75-5.344h-7.25c0.5 1.719 0.75 3.531 0.75 5.344s-0.25 3.625-0.75 5.344zM13.281 14.094c0.031 0.063 0.063 0.125 0.063 0.188 0 0.219-0.188 0.375-0.438 0.375h-9.813c-0.281 0-0.438-0.156-0.438-0.375 0-0.063 0.031-0.125 0.063-0.188 0.719-1.969 1.094-4.031 1.094-6.094s-0.375-4.125-1.094-6.094c-0.031-0.063-0.063-0.125-0.063-0.188 0-0.219 0.156-0.375 0.438-0.375h9.813c0.281 0 0.438 0.156 0.438 0.375 0 0.063-0.031 0.125-0.063 0.188-0.719 1.969-1.094 4.031-1.094 6.094s0.375 4.125 1.094 6.094z"></path>
</svg>
