<?xml version="1.0" encoding="utf-8"?>
<!-- Generated by IcoMoon.io -->
<!DOCTYPE svg PUBLIC "-//W3C//DTD SVG 1.1//EN" "http://www.w3.org/Graphics/SVG/1.1/DTD/svg11.dtd">
<svg version="1.1" xmlns="http://www.w3.org/2000/svg" xmlns:xlink="http://www.w3.org/1999/xlink" width="16" height="16" viewBox="0 0 16 16">
<path d="M14.281 2.656c0.219 0 0.375 0.156 0.375 0.438v9.813c0 0.281-0.156 0.438-0.375 0.438-0.063 0-0.125-0.031-0.188-0.063-1.969-0.719-4.031-1.094-6.094-1.094s-4.125 0.375-6.094 1.094c-0.063 0.031-0.125 0.063-0.188 0.063-0.219 0-0.375-0.188-0.375-0.438v-9.813c0-0.281 0.156-0.438 0.375-0.438 0.063 0 0.125 0.031 0.188 0.063 1.969 0.719 4.031 1.094 6.094 1.094s4.125-0.375 6.094-1.094c0.063-0.031 0.125-0.063 0.188-0.063zM13.344 4.375c-1.719 0.531-3.531 0.75-5.344 0.75s-3.625-0.25-5.344-0.75v7.25c1.719-0.5 3.531-0.75 5.344-0.75s3.625 0.25 5.344 0.75v-7.25z"></path>
</svg>
