<?xml version="1.0" encoding="utf-8"?>
<!-- Generated by IcoMoon.io -->
<!DOCTYPE svg PUBLIC "-//W3C//DTD SVG 1.1//EN" "http://www.w3.org/Graphics/SVG/1.1/DTD/svg11.dtd">
<svg version="1.1" xmlns="http://www.w3.org/2000/svg" xmlns:xlink="http://www.w3.org/1999/xlink" width="16" height="16" viewBox="0 0 16 16">
<path d="M14.912 2.107c-0.275 0.097-13.857 4.883-14.125 4.978-0.227 0.080-0.278 0.276-0.008 0.383 0.321 0.129 3.037 1.217 3.037 1.217v0l1.8 0.721c0 0 8.67-6.366 8.787-6.453 0.118-0.086 0.254 0.076 0.169 0.169s-6.297 6.81-6.297 6.81v0.002l-0.362 0.402 0.479 0.258c0 0 3.72 2.003 3.986 2.146 0.233 0.125 0.534 0.022 0.602-0.267 0.079-0.341 2.276-9.809 2.325-10.020 0.063-0.274-0.118-0.442-0.393-0.345zM5.6 13.73c0 0.197 0.111 0.252 0.265 0.113 0.201-0.183 2.28-2.049 2.28-2.049l-2.545-1.315v3.251z"></path>
</svg>
