<?xml version="1.0" encoding="utf-8"?>
<!-- Generated by IcoMoon.io -->
<!DOCTYPE svg PUBLIC "-//W3C//DTD SVG 1.1//EN" "http://www.w3.org/Graphics/SVG/1.1/DTD/svg11.dtd">
<svg version="1.1" xmlns="http://www.w3.org/2000/svg" xmlns:xlink="http://www.w3.org/1999/xlink" width="16" height="16" viewBox="0 0 16 16">
<path d="M14.113 3.138l-1.885-1.885c-1.3-1.299-3.415-1.299-4.714 0l-6.6 6.599 0.943 0.943 6.6-6.599c0.78-0.78 2.049-0.78 2.828 0l1.886 1.886c0.78 0.779 0.78 2.048 0 2.828l-6.599 6.599c-0.85 0.85-1.795 1.033-2.049 0.78l-0.309-0.308-1.503-1.503c-0.117-0.117-0.021-0.746 0.324-1.091l6.598-6.598c0.077-0.077 0.708 0.236 1.179 0.707v0c-0.206 0.206-0.158 0.159-0.235 0.236l-4.788 4.787 0.943 0.943 4.788-4.787c0.57-0.569 1.279-1.079 0.236-2.121v0c-1.042-1.043-2.091-1.68-3.064-0.707l-6.6 6.598c-0.779 0.78-1.082 2.217-0.323 2.977l1.030 1.031 0.781 0.78c0.884 0.884 2.612 0.541 3.933-0.78l6.599-6.599c1.3-1.3 1.3-3.415 0.001-4.715z"></path>
</svg>
