<?xml version="1.0" encoding="utf-8"?>
<!-- Generated by IcoMoon.io -->
<!DOCTYPE svg PUBLIC "-//W3C//DTD SVG 1.1//EN" "http://www.w3.org/Graphics/SVG/1.1/DTD/svg11.dtd">
<svg version="1.1" xmlns="http://www.w3.org/2000/svg" xmlns:xlink="http://www.w3.org/1999/xlink" width="16" height="16" viewBox="0 0 16 16">
<path d="M8 11.344c1.844 0 3.344-1.5 3.344-3.344 0-0.219-0.031-0.438-0.063-0.656h-1.406c0.063 0.219 0.125 0.438 0.125 0.656 0 1.094-0.906 2-2 2h-2.656c0.625 0.813 1.563 1.344 2.656 1.344zM8 4.656c-1.844 0-3.344 1.5-3.344 3.344 0 0.219 0.031 0.438 0.063 0.656h1.406c-0.063-0.219-0.125-0.438-0.125-0.656 0-1.094 0.906-2 2-2h2.656c-0.625-0.813-1.563-1.344-2.656-1.344zM13.344 2.656c0.719 0 1.313 0.625 1.313 1.344v8c0 0.719-0.594 1.344-1.313 1.344h-10.688c-0.719 0-1.313-0.625-1.313-1.344v-8c0-0.719 0.594-1.344 1.313-1.344h2.125l1.219-1.313h4l1.219 1.313h2.125z"></path>
</svg>
