<?xml version="1.0" encoding="utf-8"?>
<!-- Generated by IcoMoon.io -->
<!DOCTYPE svg PUBLIC "-//W3C//DTD SVG 1.1//EN" "http://www.w3.org/Graphics/SVG/1.1/DTD/svg11.dtd">
<svg version="1.1" xmlns="http://www.w3.org/2000/svg" xmlns:xlink="http://www.w3.org/1999/xlink" width="16" height="16" viewBox="0 0 16 16">
<path d="M6.331 8.542h1.327c2.883 0 4.519-1.298 5.040-3.968 0.017-0.088 0.032-0.173 0.045-0.258 0.029-0.181 0.043-0.343 0.050-0.499 0.005-0.107 0.008-0.17 0.007-0.23-0.006-0.313-0.062-0.578-0.173-0.831-0.103-0.237-0.259-0.47-0.49-0.734-0.682-0.776-1.871-1.222-3.291-1.222h-4.522c-0.318 0-0.59 0.232-0.639 0.546l-0.816 5.257-1.015 6.548c-0.037 0.236 0.146 0.449 0.384 0.449h2.218l0.679-4.034c0.094-0.592 0.598-1.024 1.198-1.024zM13.614 4.872c-0.634 3.017-2.686 4.618-5.956 4.618h-1.326c-0.131 0-0.242 0.094-0.262 0.226l-0.884 5.485h2.326c0.278 0 0.516-0.202 0.559-0.478l0.023-0.12 0.444-2.811 0.029-0.155c0.043-0.275 0.281-0.478 0.559-0.478h0.352c2.28 0 4.065-0.926 4.586-3.605 0.214-1.104 0.106-2.027-0.45-2.682z"></path>
</svg>
