<?xml version="1.0" encoding="utf-8"?>
<!-- Generated by IcoMoon.io -->
<!DOCTYPE svg PUBLIC "-//W3C//DTD SVG 1.1//EN" "http://www.w3.org/Graphics/SVG/1.1/DTD/svg11.dtd">
<svg version="1.1" xmlns="http://www.w3.org/2000/svg" xmlns:xlink="http://www.w3.org/1999/xlink" width="16" height="16" viewBox="0 0 16 16">
<path d="M11.752 2.129c-1.515-1.103-2.594-1.079-3.003-1.013-0.115 0.018-0.212 0.085-0.28 0.178l-5.506 7.598c-0.222 0.306-0.35 0.669-0.37 1.046l-0.237 4.499c-0.017 0.324 0.306 0.558 0.608 0.442l4.205-1.608c0.354-0.136 0.662-0.372 0.885-0.679l5.504-7.595c0.071-0.098 0.1-0.218 0.080-0.338-0.067-0.421-0.39-1.442-1.886-2.53zM7.182 12.372l-1.634 0.631c-0.064 0.025-0.135 0.005-0.177-0.050-0.21-0.268-0.461-0.534-0.86-0.824s-0.729-0.446-1.048-0.565c-0.064-0.024-0.105-0.085-0.101-0.154l0.098-1.749 0.439-0.604c0 0 0.983-0.135 2.266 0.798 1.282 0.933 1.457 1.91 1.457 1.91l-0.44 0.605z"></path>
</svg>
