<?xml version="1.0" encoding="utf-8"?>
<!-- Generated by IcoMoon.io -->
<!DOCTYPE svg PUBLIC "-//W3C//DTD SVG 1.1//EN" "http://www.w3.org/Graphics/SVG/1.1/DTD/svg11.dtd">
<svg version="1.1" xmlns="http://www.w3.org/2000/svg" xmlns:xlink="http://www.w3.org/1999/xlink" width="16" height="16" viewBox="0 0 16 16">
<path d="M11 4.344c-0.719 0-1.344 0.594-1.344 1.313s0.625 1.344 1.344 1.344 1.344-0.625 1.344-1.344-0.625-1.313-1.344-1.313zM11 8c-1.281 0-2.344-1.063-2.344-2.344s1.063-2.313 2.344-2.313 2.344 1.031 2.344 2.313-1.063 2.344-2.344 2.344zM5 4.344c-0.719 0-1.344 0.594-1.344 1.313s0.625 1.344 1.344 1.344 1.344-0.625 1.344-1.344-0.625-1.313-1.344-1.313zM5 8c-1.281 0-2.344-1.063-2.344-2.344s1.063-2.313 2.344-2.313 2.344 1.031 2.344 2.313-1.063 2.344-2.344 2.344zM14.344 11.656v-0.813c0-0.375-1.719-1.188-3.344-1.188-0.719 0-1.406 0.188-2 0.375 0.219 0.25 0.344 0.5 0.344 0.813v0.813h5zM8.344 11.656v-0.813c0-0.375-1.719-1.188-3.344-1.188s-3.344 0.813-3.344 1.188v0.813h6.688zM11 8.656c1.438 0 4.344 0.75 4.344 2.188v1.813h-14.688v-1.813c0-1.438 2.906-2.188 4.344-2.188 0.813 0 2.031 0.25 3 0.688 0.969-0.438 2.188-0.688 3-0.688z"></path>
</svg>
