<?xml version="1.0" encoding="utf-8"?>
<!-- Generated by IcoMoon.io -->
<!DOCTYPE svg PUBLIC "-//W3C//DTD SVG 1.1//EN" "http://www.w3.org/Graphics/SVG/1.1/DTD/svg11.dtd">
<svg version="1.1" xmlns="http://www.w3.org/2000/svg" xmlns:xlink="http://www.w3.org/1999/xlink" width="16" height="16" viewBox="0 0 16 16">
<path d="M10.656 8.656c1.563 0 4.688 0.781 4.688 2.344v1.656h-4v-1.656c0-1-0.531-1.75-1.313-2.313 0.219-0.031 0.438-0.031 0.625-0.031zM5.344 8.656c1.563 0 4.656 0.781 4.656 2.344v1.656h-9.344v-1.656c0-1.563 3.125-2.344 4.688-2.344zM5.344 7.344c-1.094 0-2-0.906-2-2s0.906-2 2-2 1.969 0.906 1.969 2-0.875 2-1.969 2zM10.656 7.344c-1.094 0-2-0.906-2-2s0.906-2 2-2 2 0.906 2 2-0.906 2-2 2z"></path>
</svg>
