<?xml version="1.0" encoding="utf-8"?>
<!-- Generated by IcoMoon.io -->
<!DOCTYPE svg PUBLIC "-//W3C//DTD SVG 1.1//EN" "http://www.w3.org/Graphics/SVG/1.1/DTD/svg11.dtd">
<svg version="1.1" xmlns="http://www.w3.org/2000/svg" xmlns:xlink="http://www.w3.org/1999/xlink" width="16" height="16" viewBox="0 0 16 16">
<path d="M12.656 13.656c0.563 0 1-0.438 1-1s-0.438-1-1-1-1 0.438-1 1 0.438 1 1 1zM15.125 13l0.719 0.531c0.063 0.063 0.063 0.156 0.031 0.219l-0.656 1.156c-0.031 0.063-0.156 0.125-0.219 0.094l-0.813-0.344c-0.156 0.125-0.375 0.219-0.563 0.313l-0.125 0.906c0 0.094-0.094 0.125-0.188 0.125h-1.313c-0.094 0-0.188-0.031-0.188-0.125l-0.125-0.906c-0.219-0.094-0.375-0.188-0.563-0.313l-0.813 0.344c-0.094 0.031-0.188-0.031-0.219-0.094l-0.656-1.156c-0.031-0.063-0.031-0.156 0.031-0.219l0.719-0.531c0-0.094-0.031-0.219-0.031-0.344s0.031-0.219 0.031-0.313l-0.719-0.563c-0.063-0.063-0.063-0.156-0.031-0.219l0.656-1.156c0.031-0.063 0.156-0.094 0.219-0.063l0.813 0.344c0.188-0.125 0.375-0.25 0.563-0.344l0.125-0.875c0-0.094 0.094-0.125 0.188-0.125h1.313c0.094 0 0.188 0.031 0.188 0.125l0.125 0.875c0.219 0.094 0.375 0.219 0.563 0.344l0.813-0.344c0.094-0.031 0.188 0 0.219 0.063l0.656 1.156c0.031 0.063 0.031 0.156-0.031 0.219l-0.719 0.563c0.031 0.094 0.031 0.188 0.031 0.313s-0.031 0.25-0.031 0.344zM12.656 7.656c-2.75 0-5 2.25-5 5 0 0.219 0.031 0.469 0.063 0.688h-7.719l13.344-13.344-0.031 7.719c-0.219-0.031-0.438-0.063-0.656-0.063z"></path>
</svg>
