<?xml version="1.0" encoding="utf-8"?>
<!-- Generated by IcoMoon.io -->
<!DOCTYPE svg PUBLIC "-//W3C//DTD SVG 1.1//EN" "http://www.w3.org/Graphics/SVG/1.1/DTD/svg11.dtd">
<svg version="1.1" xmlns="http://www.w3.org/2000/svg" xmlns:xlink="http://www.w3.org/1999/xlink" width="16" height="16" viewBox="0 0 16 16">
<path d="M9.344 8.656v-2.656c0-0.719-0.625-1.344-1.344-1.344s-1.344 0.625-1.344 1.344v2.656c0 0.719 0.625 1.344 1.344 1.344s1.344-0.625 1.344-1.344zM13.344 3.344c0.719 0 1.313 0.594 1.313 1.313v8c0 0.719-0.594 1.344-1.313 1.344h-4.688v-1.406c1.875-0.313 3.344-1.969 3.344-3.938h-1.344c0 1.469-1.188 2.688-2.656 2.688s-2.656-1.219-2.656-2.688h-1.344c0 1.969 1.469 3.625 3.344 3.938v1.406h-4.688c-0.719 0-1.313-0.625-1.313-1.344v-8c0-0.719 0.594-1.313 1.313-1.313h2.125l1.219-1.344h4l1.219 1.344h2.125z"></path>
</svg>
