<?xml version="1.0" encoding="utf-8"?>
<!-- Generated by IcoMoon.io -->
<!DOCTYPE svg PUBLIC "-//W3C//DTD SVG 1.1//EN" "http://www.w3.org/Graphics/SVG/1.1/DTD/svg11.dtd">
<svg version="1.1" xmlns="http://www.w3.org/2000/svg" xmlns:xlink="http://www.w3.org/1999/xlink" width="16" height="16" viewBox="0 0 16 16">
<path d="M8 9.344c1.125 0 2.094-0.563 2.656-1.438 0-0.875-1.781-1.375-2.656-1.375s-2.656 0.5-2.656 1.375c0.563 0.875 1.531 1.438 2.656 1.438zM8 2.656c-0.719 0-1.344 0.625-1.344 1.344 0 0.75 0.625 1.344 1.344 1.344s1.344-0.594 1.344-1.344c0-0.719-0.625-1.344-1.344-1.344zM8 1.344c2.563 0 4.656 2.094 4.656 4.656 0 3.5-4.656 8.656-4.656 8.656s-4.656-5.156-4.656-8.656c0-2.563 2.094-4.656 4.656-4.656z"></path>
</svg>
