<?xml version="1.0" encoding="utf-8"?>
<!-- Generated by IcoMoon.io -->
<!DOCTYPE svg PUBLIC "-//W3C//DTD SVG 1.1//EN" "http://www.w3.org/Graphics/SVG/1.1/DTD/svg11.dtd">
<svg version="1.1" xmlns="http://www.w3.org/2000/svg" xmlns:xlink="http://www.w3.org/1999/xlink" width="16" height="16" viewBox="0 0 16 16">
<path d="M12 10.656v-0.594c0-1.344-2.656-2.063-4-2.063s-4 0.719-4 2.063v0.594h8zM8 3.531c-1 0-1.813 0.813-1.813 1.813s0.813 1.781 1.813 1.781 1.813-0.781 1.813-1.781-0.813-1.813-1.813-1.813zM12.656 1.344c0.719 0 1.344 0.594 1.344 1.313v9.344c0 0.719-0.625 1.344-1.344 1.344h-2.656l-2 2-2-2h-2.656c-0.75 0-1.344-0.625-1.344-1.344v-9.344c0-0.719 0.594-1.313 1.344-1.313h9.313z"></path>
</svg>
