<?xml version="1.0" encoding="utf-8"?>
<!-- Generated by IcoMoon.io -->
<!DOCTYPE svg PUBLIC "-//W3C//DTD SVG 1.1//EN" "http://www.w3.org/Graphics/SVG/1.1/DTD/svg11.dtd">
<svg version="1.1" xmlns="http://www.w3.org/2000/svg" xmlns:xlink="http://www.w3.org/1999/xlink" width="16" height="16" viewBox="0 0 16 16">
<path d="M8 8.656c1.781 0 5.344 0.906 5.344 2.688v2h-10.688v-2c0-1.781 3.563-2.688 5.344-2.688zM8 2.656c1.469 0 2.656 1.219 2.656 2.688s-1.188 2.656-2.656 2.656-2.656-1.188-2.656-2.656 1.188-2.688 2.656-2.688zM8 9.938c-1.969 0-4.063 0.969-4.063 1.406v0.719h8.125v-0.719c0-0.438-2.094-1.406-4.063-1.406zM8 3.938c-0.781 0-1.406 0.625-1.406 1.406s0.625 1.375 1.406 1.375 1.406-0.594 1.406-1.375-0.625-1.406-1.406-1.406z"></path>
</svg>
