<?xml version="1.0" encoding="utf-8"?>
<!-- Generated by IcoMoon.io -->
<!DOCTYPE svg PUBLIC "-//W3C//DTD SVG 1.1//EN" "http://www.w3.org/Graphics/SVG/1.1/DTD/svg11.dtd">
<svg version="1.1" xmlns="http://www.w3.org/2000/svg" xmlns:xlink="http://www.w3.org/1999/xlink" width="16" height="16" viewBox="0 0 16 16">
<path d="M11.563 9.906c0.875 0.875 1.969 1.813 1.75 3.188-0.188 0.688-0.688 1.375-1.563 1.563-0.5 0.094-2.031-0.281-3.688-0.281h-0.125c-1.656 0-3.188 0.375-3.688 0.281-0.875-0.188-1.375-0.875-1.563-1.563-0.188-1.344 0.875-2.313 1.75-3.188 0.594-0.688 1.063-1.25 1.656-1.938 0.313-0.375 0.688-0.719 1.156-0.875 0.063-0.031 0.156-0.063 0.219-0.063 0.188-0.031 0.344-0.031 0.531-0.031s0.375 0 0.531 0.031c0.063 0 0.156 0.031 0.219 0.063 0.469 0.156 0.844 0.5 1.156 0.875 0.594 0.688 1.063 1.25 1.656 1.938zM11.344 6.344c0-0.906 0.75-1.688 1.656-1.688s1.656 0.781 1.656 1.688-0.75 1.656-1.656 1.656-1.656-0.75-1.656-1.656zM8.344 3.656c0-0.906 0.75-1.656 1.656-1.656s1.656 0.75 1.656 1.656-0.75 1.688-1.656 1.688-1.656-0.781-1.656-1.688zM4.344 3.656c0-0.906 0.75-1.656 1.656-1.656s1.656 0.75 1.656 1.656-0.75 1.688-1.656 1.688-1.656-0.781-1.656-1.688zM1.344 6.344c0-0.906 0.75-1.688 1.656-1.688s1.656 0.781 1.656 1.688-0.75 1.656-1.656 1.656-1.656-0.75-1.656-1.656z"></path>
</svg>
