<?xml version="1.0" encoding="utf-8"?>
<!-- Generated by IcoMoon.io -->
<!DOCTYPE svg PUBLIC "-//W3C//DTD SVG 1.1//EN" "http://www.w3.org/Graphics/SVG/1.1/DTD/svg11.dtd">
<svg version="1.1" xmlns="http://www.w3.org/2000/svg" xmlns:xlink="http://www.w3.org/1999/xlink" width="16" height="16" viewBox="0 0 16 16">
<path d="M12.656 0.656c0.719 0 1.344 0.625 1.344 1.344v12c0 0.719-0.625 1.344-1.344 1.344h-6.656c-0.719 0-1.344-0.625-1.344-1.344v-2h1.344v1.344h6.656v-10.688h-6.656v1.344h-1.344v-2c0-0.719 0.625-1.344 1.344-1.344h6.656zM8.656 5.469l-2.656 2.656 2.656 2.688-0.656 0.656-2.656-2.656-2.688 2.656-0.656-0.656 2.656-2.688-2.656-2.656 0.656-0.656 2.688 2.656 2.656-2.656z"></path>
</svg>
