<?xml version="1.0" encoding="utf-8"?>
<!-- Generated by IcoMoon.io -->
<!DOCTYPE svg PUBLIC "-//W3C//DTD SVG 1.1//EN" "http://www.w3.org/Graphics/SVG/1.1/DTD/svg11.dtd">
<svg version="1.1" xmlns="http://www.w3.org/2000/svg" xmlns:xlink="http://www.w3.org/1999/xlink" width="16" height="16" viewBox="0 0 16 16">
<path d="M15.813 11.125c0.125 0.125 0.188 0.281 0.188 0.469s-0.063 0.344-0.188 0.469l-1.656 1.656c-0.125 0.125-0.281 0.188-0.469 0.188s-0.344-0.063-0.469-0.188c-0.531-0.5-1.125-0.938-1.781-1.25-0.219-0.094-0.375-0.344-0.375-0.594v-2.063c-0.969-0.313-2-0.469-3.063-0.469s-2.094 0.156-3.063 0.469v2.063c0 0.281-0.156 0.531-0.375 0.625-0.656 0.313-1.25 0.719-1.781 1.219-0.125 0.125-0.281 0.188-0.469 0.188s-0.344-0.063-0.469-0.188l-1.656-1.656c-0.125-0.125-0.188-0.281-0.188-0.469s0.063-0.344 0.188-0.469c2.031-1.938 4.781-3.125 7.813-3.125s5.781 1.188 7.813 3.125zM4.344 3.656v2.344h-1v-4h4v1h-2.344l3 3 4-4 0.656 0.656-4.656 4.688z"></path>
</svg>
