<?xml version="1.0" encoding="utf-8"?>
<!-- Generated by IcoMoon.io -->
<!DOCTYPE svg PUBLIC "-//W3C//DTD SVG 1.1//EN" "http://www.w3.org/Graphics/SVG/1.1/DTD/svg11.dtd">
<svg version="1.1" xmlns="http://www.w3.org/2000/svg" xmlns:xlink="http://www.w3.org/1999/xlink" width="16" height="16" viewBox="0 0 16 16">
<path d="M12.813 2.656v-0.313c0-0.625-0.531-1.156-1.156-1.156s-1.125 0.531-1.125 1.156v0.313h2.281zM13.344 2.656c0.375 0 0.656 0.313 0.656 0.688v2.656c0 0.375-0.281 0.656-0.656 0.656h-3.344c-0.375 0-0.656-0.281-0.656-0.656v-2.656c0-0.375 0.281-0.688 0.656-0.688v-0.313c0-0.906 0.75-1.688 1.656-1.688s1.688 0.781 1.688 1.688v0.313zM13.344 10.344c0.375 0 0.656 0.281 0.656 0.656v2.344c0 0.375-0.281 0.656-0.656 0.656-6.25 0-11.344-5.094-11.344-11.344 0-0.375 0.281-0.656 0.656-0.656h2.344c0.375 0 0.656 0.281 0.656 0.656 0 0.844 0.125 1.625 0.375 2.375 0.063 0.219 0.031 0.5-0.156 0.688l-1.469 1.469c0.969 1.906 2.531 3.438 4.406 4.406l1.469-1.469c0.188-0.188 0.469-0.219 0.688-0.156 0.75 0.25 1.531 0.375 2.375 0.375z"></path>
</svg>
