<?xml version="1.0" encoding="utf-8"?>
<!-- Generated by IcoMoon.io -->
<!DOCTYPE svg PUBLIC "-//W3C//DTD SVG 1.1//EN" "http://www.w3.org/Graphics/SVG/1.1/DTD/svg11.dtd">
<svg version="1.1" xmlns="http://www.w3.org/2000/svg" xmlns:xlink="http://www.w3.org/1999/xlink" width="16" height="16" viewBox="0 0 16 16">
<path d="M14 6h-4.667v1.333h4.667v5.333h-4.667c0 0.733-0.667 1.333-0.667 1.333h5.333c0.733 0 1.333-0.6 1.333-1.333v-5.333c0-0.733-0.6-1.333-1.333-1.333zM6.667 2h-5.333c-0.733 0-1.333 0.6-1.333 1.333v9.333c0 0.733 0.6 1.333 1.333 1.333h5.333c0.733 0 1.333-0.6 1.333-1.333v-9.333c0-0.733-0.6-1.333-1.333-1.333zM4.667 13.333h-1.333v-1.333h1.333v1.333zM6.667 11.333h-5.333v-8h5.333v8z"></path>
</svg>
