<?xml version="1.0" encoding="utf-8"?>
<!-- Generated by IcoMoon.io -->
<!DOCTYPE svg PUBLIC "-//W3C//DTD SVG 1.1//EN" "http://www.w3.org/Graphics/SVG/1.1/DTD/svg11.dtd">
<svg version="1.1" xmlns="http://www.w3.org/2000/svg" xmlns:xlink="http://www.w3.org/1999/xlink" width="16" height="16" viewBox="0 0 16 16">
<path d="M6.344 7.344v-1c0-0.531-0.469-0.875-1-0.875s-1 0.344-1 0.875v1h2zM7.188 7.344c0.406 0 0.813 0.375 0.813 0.844v2.344c0 0.406-0.406 0.813-0.875 0.813h-3.656c-0.406 0-0.813-0.406-0.813-0.875v-2.344c0-0.406 0.406-0.781 0.813-0.781v-1c0-0.938 0.938-1.688 1.875-1.688s1.844 0.75 1.844 1.688v1zM12.656 0.656c0.719 0 1.344 0.625 1.344 1.344v12c0 0.719-0.625 1.344-1.344 1.344h-6.656c-0.719 0-1.344-0.625-1.344-1.344v-2h1.344v1.344h6.656v-10.688h-6.656v1.344h-1.344v-2c0-0.719 0.625-1.344 1.344-1.344h6.656z"></path>
</svg>
