<?xml version="1.0" encoding="utf-8"?>
<!-- Generated by IcoMoon.io -->
<!DOCTYPE svg PUBLIC "-//W3C//DTD SVG 1.1//EN" "http://www.w3.org/Graphics/SVG/1.1/DTD/svg11.dtd">
<svg version="1.1" xmlns="http://www.w3.org/2000/svg" xmlns:xlink="http://www.w3.org/1999/xlink" width="16" height="16" viewBox="0 0 16 16">
<path d="M13.344 10.344c0.375 0 0.656 0.281 0.656 0.656v2.344c0 0.375-0.281 0.656-0.656 0.656-6.25 0-11.344-5.094-11.344-11.344 0-0.375 0.281-0.656 0.656-0.656h2.344c0.375 0 0.656 0.281 0.656 0.656 0 0.844 0.125 1.625 0.375 2.375 0.063 0.219 0.031 0.5-0.156 0.688l-1.469 1.469c0.969 1.906 2.531 3.438 4.406 4.406l1.469-1.469c0.188-0.188 0.469-0.219 0.688-0.156 0.75 0.25 1.531 0.375 2.375 0.375zM12 4.813v1.25l0.625-0.625zM12 1.938v1.25l0.625-0.625zM9.813 6.344l-0.469-0.469 1.844-1.875-1.844-1.875 0.469-0.469 1.531 1.531v-2.531h0.313l1.906 1.906-1.438 1.438 1.438 1.438-1.906 1.906h-0.313v-2.531z"></path>
</svg>
