<?xml version="1.0" encoding="utf-8"?>
<!-- Generated by IcoMoon.io -->
<!DOCTYPE svg PUBLIC "-//W3C//DTD SVG 1.1//EN" "http://www.w3.org/Graphics/SVG/1.1/DTD/svg11.dtd">
<svg version="1.1" xmlns="http://www.w3.org/2000/svg" xmlns:xlink="http://www.w3.org/1999/xlink" width="16" height="16" viewBox="0 0 16 16">
<path d="M9.344 13.344v-10.688h-6.688v10.688h6.688zM9.344 0.656c0.719 0 1.313 0.625 1.313 1.344v12c0 0.719-0.594 1.344-1.313 1.344h-6.688c-0.719 0-1.313-0.625-1.313-1.344v-12c0-0.719 0.594-1.344 1.313-1.344h6.688zM12 6.531c0.813 0.875 0.813 2.063 0 2.875l-0.656-0.688c0.344-0.469 0.344-1.063 0-1.531zM13.406 5.125c1.656 1.594 1.656 4.156 0 5.688l-0.688-0.688c1.188-1.281 1.188-3.125 0-4.313z"></path>
</svg>
