<?xml version="1.0" encoding="utf-8"?>
<!-- Generated by IcoMoon.io -->
<!DOCTYPE svg PUBLIC "-//W3C//DTD SVG 1.1//EN" "http://www.w3.org/Graphics/SVG/1.1/DTD/svg11.dtd">
<svg version="1.1" xmlns="http://www.w3.org/2000/svg" xmlns:xlink="http://www.w3.org/1999/xlink" width="16" height="16" viewBox="0 0 16 16">
<path d="M12.656 0.656c0.719 0 1.344 0.625 1.344 1.344v12c0 0.719-0.625 1.344-1.344 1.344h-6.656c-0.719 0-1.344-0.625-1.344-1.344v-2h1.344v1.344h6.656v-10.688h-6.656v1.344h-1.344v-2c0-0.719 0.625-1.344 1.344-1.344h6.656zM5.344 9.344c0.719 0 1.313-0.625 1.313-1.344s-0.594-1.344-1.313-1.344-1.344 0.625-1.344 1.344 0.625 1.344 1.344 1.344zM7.875 8.344l0.719 0.594c0.063 0.063 0.125 0.125 0.063 0.188l-0.656 1.156c-0.063 0.063-0.125 0.063-0.188 0.063l-0.875-0.344c-0.188 0.125-0.406 0.281-0.594 0.344l-0.156 0.844c-0.063 0.063-0.125 0.156-0.188 0.156h-1.344c-0.063 0-0.188-0.094-0.125-0.156l-0.125-0.844c-0.188-0.063-0.406-0.219-0.594-0.344l-0.938 0.281c-0.063 0.063-0.156-0.031-0.219-0.094l-0.656-1.125c0-0.063 0-0.125 0.063-0.25l0.75-0.531v-0.688l-0.75-0.531c-0.063-0.063-0.125-0.125-0.063-0.188l0.656-1.156c0.063-0.063 0.156-0.063 0.219-0.063l0.844 0.344c0.188-0.125 0.438-0.281 0.625-0.344l0.125-0.844c0.063-0.063 0.125-0.156 0.188-0.156h1.344c0.125 0 0.188 0.094 0.188 0.156l0.156 0.844c0.188 0.063 0.406 0.219 0.594 0.344l0.875-0.281c0.063-0.063 0.125 0.031 0.188 0.094l0.656 1.125c0 0.063 0 0.125-0.063 0.188l-0.719 0.531v0.688z"></path>
</svg>
