<?xml version="1.0" encoding="utf-8"?>
<!-- Generated by IcoMoon.io -->
<!DOCTYPE svg PUBLIC "-//W3C//DTD SVG 1.1//EN" "http://www.w3.org/Graphics/SVG/1.1/DTD/svg11.dtd">
<svg version="1.1" xmlns="http://www.w3.org/2000/svg" xmlns:xlink="http://www.w3.org/1999/xlink" width="16" height="16" viewBox="0 0 16 16">
<path d="M15.344 5.344c0.375 0 0.656 0.281 0.656 0.656v6.656c0 0.375-0.281 0.688-0.656 0.688h-0.125l-2-2h1.438v-4.688h-2.656v3.469l-1.344-1.344v-2.781c0-0.375 0.313-0.656 0.688-0.656h4zM2.656 4.188v7.156h7.156zM1.281 1.094c4.316 4.32 8.625 8.646 12.938 12.969l-0.844 0.844-1.563-1.563h-11.813v-2h1.344v-7.344c0-0.313 0.125-0.625 0.313-0.844l-1.219-1.219zM14.656 4h-8.781l-1.344-1.344h10.125v1.344z"></path>
</svg>
