<?xml version="1.0" encoding="utf-8"?>
<!-- Generated by IcoMoon.io -->
<!DOCTYPE svg PUBLIC "-//W3C//DTD SVG 1.1//EN" "http://www.w3.org/Graphics/SVG/1.1/DTD/svg11.dtd">
<svg version="1.1" xmlns="http://www.w3.org/2000/svg" xmlns:xlink="http://www.w3.org/1999/xlink" width="16" height="16" viewBox="0 0 16 16">
<path d="M8 11.344c1.844 0 3.344-1.5 3.344-3.344s-1.5-3.344-3.344-3.344-3.344 1.5-3.344 3.344 1.5 3.344 3.344 3.344zM6 1.344h4l1.219 1.313h2.125c0.719 0 1.313 0.625 1.313 1.344v8c0 0.719-0.594 1.344-1.313 1.344h-10.688c-0.719 0-1.313-0.625-1.313-1.344v-8c0-0.719 0.594-1.344 1.313-1.344h2.125zM5.875 8c0-1.188 0.938-2.125 2.125-2.125s2.125 0.938 2.125 2.125-0.938 2.125-2.125 2.125-2.125-0.938-2.125-2.125z"></path>
</svg>
