<?xml version="1.0" encoding="utf-8"?>
<!-- Generated by IcoMoon.io -->
<!DOCTYPE svg PUBLIC "-//W3C//DTD SVG 1.1//EN" "http://www.w3.org/Graphics/SVG/1.1/DTD/svg11.dtd">
<svg version="1.1" xmlns="http://www.w3.org/2000/svg" xmlns:xlink="http://www.w3.org/1999/xlink" width="16" height="16" viewBox="0 0 16 16">
<path d="M4.656 2v1.344h-1.313v-1.344h1.313zM7.344 2v1.344h-1.344v-1.344h1.344zM2 7.344v1.313h-1.344v-1.313h1.344zM2 2v1.344h-1.344c0-0.656 0.688-1.344 1.344-1.344zM12.656 12.656v1.344h-1.313v-1.344h1.313zM12.656 2v1.344h-1.313v-1.344h1.313zM10 12.656v1.344h-1.344v-1.344h1.344zM2 4.656v1.344h-1.344v-1.344h1.344zM2 14c-0.719 0-1.344-0.625-1.344-1.344v-2.656h6.688v4h-5.344zM14 2c0.656 0 1.344 0.688 1.344 1.344h-1.344v-1.344zM15.344 4.656v1.344h-1.344v-1.344h1.344zM10 2v1.344h-1.344v-1.344h1.344zM15.344 12.656c0 0.656-0.688 1.344-1.344 1.344v-1.344h1.344zM15.344 7.344v1.313h-1.344v-1.313h1.344zM15.344 10v1.344h-1.344v-1.344h1.344z"></path>
</svg>
