<?xml version="1.0" encoding="utf-8"?>
<!-- Generated by IcoMoon.io -->
<!DOCTYPE svg PUBLIC "-//W3C//DTD SVG 1.1//EN" "http://www.w3.org/Graphics/SVG/1.1/DTD/svg11.dtd">
<svg version="1.1" xmlns="http://www.w3.org/2000/svg" xmlns:xlink="http://www.w3.org/1999/xlink" width="16" height="16" viewBox="0 0 16 16">
<path d="M2 12.656h6.656l-2.125-2.844-1.656 2.156-1.219-1.438zM0.656 7.344h9.344v6.656h-8c-0.719 0-1.344-0.625-1.344-1.344v-5.313zM3.344 2h1.313v1.344h-1.313v-1.344zM6 2h1.344v1.344h-1.344v-1.344zM2 2v1.344h-1.344c0-0.656 0.688-1.344 1.344-1.344zM11.344 12.656h1.313v1.344h-1.313v-1.344zM11.344 2h1.313v1.344h-1.313v-1.344zM0.656 4.656h1.344v1.344h-1.344v-1.344zM14 2c0.656 0 1.344 0.688 1.344 1.344h-1.344v-1.344zM14 4.656h1.344v1.344h-1.344v-1.344zM8.656 2h1.344v1.344h-1.344v-1.344zM15.344 12.656c0 0.656-0.688 1.344-1.344 1.344v-1.344h1.344zM14 7.344h1.344v1.313h-1.344v-1.313zM14 10h1.344v1.344h-1.344v-1.344z"></path>
</svg>
