<?xml version="1.0" encoding="utf-8"?>
<!-- Generated by IcoMoon.io -->
<!DOCTYPE svg PUBLIC "-//W3C//DTD SVG 1.1//EN" "http://www.w3.org/Graphics/SVG/1.1/DTD/svg11.dtd">
<svg version="1.1" xmlns="http://www.w3.org/2000/svg" xmlns:xlink="http://www.w3.org/1999/xlink" width="16" height="16" viewBox="0 0 16 16">
<path d="M8.844 7.156l1.813 0.844-1.813 0.844-0.844 1.813-0.844-1.813-1.813-0.844 1.813-0.844 0.844-1.813zM11.344 6.656l-0.625-1.375-1.375-0.625 1.375-0.625 0.625-1.375 0.625 1.375 1.375 0.625-1.375 0.625zM12.688 6.656h1.313v6c0 0.719-0.594 1.344-1.313 1.344h-9.344c-0.719 0-1.344-0.625-1.344-1.344v-9.313c0-0.719 0.625-1.344 1.344-1.344h6v1.344h-6v9.313h9.344v-6z"></path>
</svg>
