<?xml version="1.0" encoding="utf-8"?>
<!-- Generated by IcoMoon.io -->
<!DOCTYPE svg PUBLIC "-//W3C//DTD SVG 1.1//EN" "http://www.w3.org/Graphics/SVG/1.1/DTD/svg11.dtd">
<svg version="1.1" xmlns="http://www.w3.org/2000/svg" xmlns:xlink="http://www.w3.org/1999/xlink" width="16" height="16" viewBox="0 0 16 16">
<path d="M4.646 1.458c-2.471 1.27-4.006 3.777-4.006 6.558 0 0.506 0.064 1.020 0.177 1.534l6.359-5.791c-0.678-0.617-2.461-2.239-2.53-2.302zM11.034 1.301c-0.96-0.436-1.981-0.661-3.035-0.661-0.747 0-1.484 0.125-2.199 0.353l5.234 4.761v-4.453zM12.154 1.95v8.494h2.788c0.274-0.786 0.418-1.603 0.418-2.428 0.001-2.426-1.218-4.698-3.206-6.066zM1.17 10.743c0.539 1.354 1.486 2.52 2.694 3.347v-5.8l-1.636 1.489c-0.558 0.507-1.024 0.933-1.058 0.964zM4.984 14.74c0.748 0.338 1.53 0.546 2.336 0.62h1.351c2.415-0.225 4.582-1.654 5.759-3.795h-9.446v3.175z"></path>
</svg>
