<?xml version="1.0" encoding="utf-8"?>
<!-- Generated by IcoMoon.io -->
<!DOCTYPE svg PUBLIC "-//W3C//DTD SVG 1.1//EN" "http://www.w3.org/Graphics/SVG/1.1/DTD/svg11.dtd">
<svg version="1.1" xmlns="http://www.w3.org/2000/svg" xmlns:xlink="http://www.w3.org/1999/xlink" width="16" height="16" viewBox="0 0 16 16">
<path d="M9.344 7.656v-2h0.656v2h-0.656zM2.656 4v9.344h9.344v1.313h-9.344c-0.719 0-1.313-0.594-1.313-1.313v-9.344h1.313zM6 6.344v-0.688h0.656v0.688h-0.656zM13.656 5.656v-1h-2v4h1v-1.313h1v-1h-1v-0.688h1zM11 7.656v-2c0-0.563-0.438-1-1-1h-1.656v4h1.656c0.563 0 1-0.438 1-1zM7.656 6.344v-0.688c0-0.563-0.438-1-1-1h-1.656v4h1v-1.313h0.656c0.563 0 1-0.438 1-1zM13.344 1.344c0.719 0 1.313 0.594 1.313 1.313v8c0 0.719-0.594 1.344-1.313 1.344h-8c-0.719 0-1.344-0.625-1.344-1.344v-8c0-0.719 0.625-1.313 1.344-1.313h8z"></path>
</svg>
