<?xml version="1.0" encoding="utf-8"?>
<!-- Generated by IcoMoon.io -->
<!DOCTYPE svg PUBLIC "-//W3C//DTD SVG 1.1//EN" "http://www.w3.org/Graphics/SVG/1.1/DTD/svg11.dtd">
<svg version="1.1" xmlns="http://www.w3.org/2000/svg" xmlns:xlink="http://www.w3.org/1999/xlink" width="16" height="16" viewBox="0 0 16 16">
<path d="M3.819 12.23l-1.684 2.6 0.179 0.85 0.848-0.182 1.683-2.598c-0.179-0.096-0.357-0.198-0.529-0.312-0.174-0.113-0.341-0.234-0.498-0.358zM10.949 11.322c0.011-0.023 0.018-0.049 0.029-0.074 0.042-0.094 0.080-0.187 0.11-0.286 0.005-0.018 0.007-0.035 0.013-0.051 0.031-0.109 0.058-0.216 0.078-0.326 0-0.006 0-0.010 0-0.017 0.156-0.935-0.116-1.978-0.738-2.921l0.888-1.371c1.023 0.13 1.908-0.127 2.334-0.786 0.738-1.138-0.16-3.034-2.004-4.234-1.846-1.202-3.938-1.252-4.675-0.115-0.427 0.659-0.302 1.574 0.234 2.458l-0.89 1.371c-1.111-0.186-2.173-0.013-2.962 0.512-0.005 0.002-0.010 0.003-0.014 0.006-0.092 0.062-0.182 0.131-0.266 0.203-0.014 0.011-0.030 0.022-0.041 0.033-0.078 0.067-0.149 0.142-0.217 0.218-0.016 0.019-0.038 0.036-0.054 0.056-0.085 0.097-0.163 0.199-0.232 0.308-1.107 1.706-0.162 4.289 2.106 5.767 2.27 1.478 5.008 1.291 6.113-0.415 0.070-0.108 0.134-0.221 0.186-0.337zM10.297 3.355c-0.71-0.462-1.056-1.19-0.772-1.629 0.283-0.438 1.089-0.418 1.797 0.044 0.711 0.462 1.054 1.191 0.772 1.629s-1.086 0.418-1.797-0.044z"></path>
</svg>
