<?xml version="1.0" encoding="utf-8"?>
<!-- Generated by IcoMoon.io -->
<!DOCTYPE svg PUBLIC "-//W3C//DTD SVG 1.1//EN" "http://www.w3.org/Graphics/SVG/1.1/DTD/svg11.dtd">
<svg version="1.1" xmlns="http://www.w3.org/2000/svg" xmlns:xlink="http://www.w3.org/1999/xlink" width="16" height="16" viewBox="0 0 16 16">
<path d="M6.894 10.582c-0.421 2.203-0.934 4.315-2.454 5.418-0.469-3.33 0.689-5.83 1.227-8.484-0.918-1.544 0.11-4.65 2.044-3.884 2.38 0.941-2.061 5.738 0.92 6.338 3.113 0.625 4.383-5.4 2.453-7.359-2.788-2.83-8.117-0.066-7.461 3.986 0.159 0.99 1.182 1.29 0.409 2.658-1.785-0.395-2.318-1.803-2.249-3.68 0.11-3.072 2.759-5.222 5.417-5.52 3.361-0.377 6.515 1.234 6.951 4.395 0.49 3.569-1.517 7.434-5.111 7.156-0.974-0.076-1.382-0.559-2.146-1.023z"></path>
</svg>
