<?xml version="1.0" encoding="utf-8"?>
<!-- Generated by IcoMoon.io -->
<!DOCTYPE svg PUBLIC "-//W3C//DTD SVG 1.1//EN" "http://www.w3.org/Graphics/SVG/1.1/DTD/svg11.dtd">
<svg version="1.1" xmlns="http://www.w3.org/2000/svg" xmlns:xlink="http://www.w3.org/1999/xlink" width="16" height="16" viewBox="0 0 16 16">
<path d="M8 0.32c-4.242 0-7.68 3.438-7.68 7.68s3.438 7.68 7.68 7.68 7.68-3.438 7.68-7.68-3.438-7.68-7.68-7.68zM8.526 9.82c-0.493-0.038-0.699-0.282-1.085-0.515-0.212 1.113-0.471 2.18-1.239 2.738-0.238-1.683 0.347-2.946 0.619-4.287-0.463-0.78 0.055-2.349 1.033-1.963 1.202 0.477-1.042 2.9 0.465 3.203 1.573 0.315 2.215-2.73 1.24-3.718-1.41-1.43-4.102-0.033-3.77 2.014 0.080 0.5 0.598 0.652 0.206 1.342-0.902-0.2-1.171-0.911-1.136-1.859 0.055-1.552 1.394-2.639 2.737-2.789 1.698-0.189 3.292 0.623 3.513 2.222 0.247 1.803-0.767 3.754-2.582 3.614z"></path>
</svg>
