<?xml version="1.0" encoding="utf-8"?>
<!-- Generated by IcoMoon.io -->
<!DOCTYPE svg PUBLIC "-//W3C//DTD SVG 1.1//EN" "http://www.w3.org/Graphics/SVG/1.1/DTD/svg11.dtd">
<svg version="1.1" xmlns="http://www.w3.org/2000/svg" xmlns:xlink="http://www.w3.org/1999/xlink" width="16" height="16" viewBox="0 0 16 16">
<path d="M9.344 3.656c0-0.906 0.75-1.656 1.656-1.656s1.656 0.75 1.656 1.656-0.75 1.688-1.656 1.688-1.656-0.781-1.656-1.688zM5.781 8c-0.375 0-0.531-0.094-0.781-0.25-0.125-0.094-0.281-0.156-0.5-0.25l2.156-2.156-0.656-0.688c-0.75-0.75-1.438-1-2.656-1v-1.656c1.656 0 2.625 0.313 3.656 1.344l4.281 4.25c-0.094 0.063-0.188 0.125-0.281 0.156-0.25 0.156-0.406 0.25-0.781 0.25s-0.5-0.094-0.75-0.25c-0.313-0.188-0.719-0.406-1.469-0.406s-1.156 0.219-1.469 0.406c-0.25 0.156-0.375 0.25-0.75 0.25zM14.656 11c-0.75 0-1.125-0.25-1.438-0.438-0.25-0.156-0.406-0.219-0.781-0.219s-0.5 0.063-0.75 0.219c-0.313 0.188-0.719 0.438-1.469 0.438s-1.125-0.25-1.438-0.438c-0.25-0.156-0.406-0.219-0.781-0.219s-0.5 0.063-0.75 0.219c-0.313 0.188-0.719 0.438-1.469 0.438s-1.125-0.25-1.438-0.438c-0.25-0.156-0.406-0.219-0.781-0.219s-0.5 0.063-0.75 0.219c-0.313 0.188-0.719 0.438-1.469 0.438v-1.344c0.375 0 0.5-0.063 0.75-0.219 0.313-0.188 0.719-0.438 1.469-0.438s1.125 0.25 1.438 0.438c0.25 0.156 0.406 0.219 0.781 0.219s0.5-0.063 0.75-0.219c0.313-0.188 0.719-0.438 1.469-0.438s1.125 0.25 1.438 0.438c0.25 0.156 0.406 0.219 0.781 0.219s0.5-0.063 0.75-0.219c0.313-0.188 0.719-0.438 1.469-0.438s1.125 0.25 1.438 0.438c0.25 0.156 0.406 0.219 0.781 0.219v1.344zM14.656 14c-0.75 0-1.125-0.25-1.438-0.438-0.25-0.156-0.406-0.219-0.781-0.219s-0.5 0.063-0.75 0.219c-0.313 0.188-0.719 0.438-1.469 0.438s-1.125-0.25-1.438-0.438c-0.25-0.156-0.406-0.219-0.781-0.219s-0.5 0.063-0.75 0.219c-0.313 0.188-0.719 0.438-1.469 0.438s-1.156-0.25-1.469-0.438c-0.25-0.156-0.375-0.219-0.75-0.219s-0.531 0.063-0.781 0.219c-0.313 0.188-0.688 0.438-1.438 0.438v-1.344c0.375 0 0.5-0.063 0.75-0.219 0.313-0.188 0.719-0.438 1.469-0.438s1.125 0.25 1.438 0.438c0.25 0.156 0.406 0.219 0.781 0.219s0.5-0.063 0.75-0.219c0.313-0.188 0.719-0.438 1.469-0.438s1.156 0.25 1.469 0.438c0.25 0.156 0.375 0.219 0.75 0.219s0.531-0.063 0.781-0.219c0.313-0.188 0.688-0.438 1.438-0.438s1.156 0.25 1.469 0.438c0.25 0.156 0.375 0.219 0.75 0.219v1.344z"></path>
</svg>
