<?xml version="1.0" encoding="utf-8"?>
<!-- Generated by IcoMoon.io -->
<!DOCTYPE svg PUBLIC "-//W3C//DTD SVG 1.1//EN" "http://www.w3.org/Graphics/SVG/1.1/DTD/svg11.dtd">
<svg version="1.1" xmlns="http://www.w3.org/2000/svg" xmlns:xlink="http://www.w3.org/1999/xlink" width="16" height="16" viewBox="0 0 16 16">
<path d="M2.188 1.656l0.656 0.688 11.156 11.156-0.844 0.844-5-5.031h-0.031l-0.125 0.031c-0.719 0-1.344-0.625-1.344-1.344l0.031-0.125-1.063-1.063c-0.188 0.375-0.281 0.75-0.281 1.188 0 1 0.531 1.844 1.313 2.313l-0.656 1.156c-1.188-0.688-2-2-2-3.469 0-0.813 0.219-1.531 0.625-2.156l-0.938-0.969c-0.625 0.875-1.031 1.938-1.031 3.125 0 1.969 1.063 3.688 2.656 4.625l-0.656 1.156c-2-1.156-3.313-3.313-3.313-5.781 0-1.531 0.5-2.969 1.375-4.094l-1.375-1.406zM8 2.656c-0.906 0-1.75 0.219-2.5 0.625l-0.969-0.969c1-0.625 2.188-0.969 3.469-0.969 3.688 0 6.656 2.969 6.656 6.656 0 1.281-0.344 2.469-0.969 3.469l-1-0.969c0.406-0.75 0.656-1.594 0.656-2.5 0-2.938-2.406-5.344-5.344-5.344zM11.719 9.5l-1.094-1.094c0.031-0.125 0.031-0.281 0.031-0.406 0-1.469-1.188-2.656-2.656-2.656-0.125 0-0.281 0-0.406 0.031l-1.094-1.094c0.469-0.188 0.969-0.281 1.5-0.281 2.219 0 4 1.781 4 4 0 0.531-0.094 1.031-0.281 1.5z"></path>
</svg>
