<?xml version="1.0" encoding="utf-8"?>
<!-- Generated by IcoMoon.io -->
<!DOCTYPE svg PUBLIC "-//W3C//DTD SVG 1.1//EN" "http://www.w3.org/Graphics/SVG/1.1/DTD/svg11.dtd">
<svg version="1.1" xmlns="http://www.w3.org/2000/svg" xmlns:xlink="http://www.w3.org/1999/xlink" width="16" height="16" viewBox="0 0 16 16">
<path d="M12.656 12.656v-9.313h-9.313v9.313h9.313zM12.656 2c0.719 0 1.344 0.625 1.344 1.344v9.313c0 0.719-0.625 1.344-1.344 1.344h-9.313c-0.719 0-1.344-0.625-1.344-1.344v-9.313c0-0.719 0.625-1.344 1.344-1.344h9.313zM11 10.844v0.5h-6v-0.5c0-1 2-1.5 3-1.5s3 0.5 3 1.5zM8 8.156c-0.813 0-1.5-0.688-1.5-1.5s0.688-1.5 1.5-1.5 1.5 0.688 1.5 1.5-0.688 1.5-1.5 1.5z"></path>
</svg>
