<?xml version="1.0" encoding="utf-8"?>
<!-- Generated by IcoMoon.io -->
<!DOCTYPE svg PUBLIC "-//W3C//DTD SVG 1.1//EN" "http://www.w3.org/Graphics/SVG/1.1/DTD/svg11.dtd">
<svg version="1.1" xmlns="http://www.w3.org/2000/svg" xmlns:xlink="http://www.w3.org/1999/xlink" width="16" height="16" viewBox="0 0 16 16">
<path d="M0 11.2v1.198c0 0.222 0.18 0.402 0.402 0.402h0.798c0.221 0 0.401-0.18 0.401-0.402v-1.198c0-0.767 0.641-1.818 1.6-2.223v-1.684c-1.853 0.429-3.2 2.283-3.2 3.907zM9.652 3.761l-2.024 1.518c-0.278 0.208-0.615 0.321-0.962 0.321h-1.862c-0.444 0-0.804 0.36-0.804 0.804v3.193c0 0.443 0.36 0.803 0.804 0.803h1.862c0.347 0 0.685 0.113 0.962 0.321l2.025 1.518c0.485 0.364 1.075 0.561 1.682 0.561h1.466v-9.6h-1.466c-0.606 0-1.197 0.197-1.682 0.561zM13.6 4.8v1.6h2.4v-1.6h-2.4zM13.6 11.2h2.4v-1.6h-2.4v1.6z"></path>
</svg>
