<?xml version="1.0" encoding="utf-8"?>
<!-- Generated by IcoMoon.io -->
<!DOCTYPE svg PUBLIC "-//W3C//DTD SVG 1.1//EN" "http://www.w3.org/Graphics/SVG/1.1/DTD/svg11.dtd">
<svg version="1.1" xmlns="http://www.w3.org/2000/svg" xmlns:xlink="http://www.w3.org/1999/xlink" width="16" height="16" viewBox="0 0 16 16">
<path d="M15.51 0.324c-0.089-0.251-0.363-0.384-0.615-0.297s-0.385 0.364-0.298 0.616c0.743 2.136-0.732 3.731-1.857 4.586l-0.454-0.651c-0.153-0.218-0.494-0.4-0.76-0.403l-2.55 0.011c-0.266-0.005-0.66 0.117-0.878 0.27l-7.515 5.27c-0.364 0.256-0.452 0.758-0.198 1.123l3.415 4.886c0.256 0.364 0.665 0.32 1.030 0.066l7.515-5.27c0.216-0.153 0.466-0.482 0.554-0.734l0.798-2.516c0.088-0.251 0.034-0.634-0.118-0.853l-0.277-0.397c1.51-1.158 3.078-3.203 2.208-5.706zM12.014 7.81c-0.582 0.408-1.385 0.266-1.792-0.317-0.409-0.584-0.266-1.387 0.316-1.797 0.462-0.324 1.062-0.301 1.494 0.014-0.218 0.131-0.367 0.208-0.395 0.22-0.241 0.114-0.344 0.403-0.23 0.644 0.083 0.175 0.257 0.278 0.438 0.278 0.069 0 0.139-0.016 0.206-0.047 0.155-0.074 0.322-0.161 0.495-0.264 0.078 0.475-0.111 0.974-0.531 1.269z"></path>
</svg>
