<?xml version="1.0" encoding="utf-8"?>
<!-- Generated by IcoMoon.io -->
<!DOCTYPE svg PUBLIC "-//W3C//DTD SVG 1.1//EN" "http://www.w3.org/Graphics/SVG/1.1/DTD/svg11.dtd">
<svg version="1.1" xmlns="http://www.w3.org/2000/svg" xmlns:xlink="http://www.w3.org/1999/xlink" width="16" height="16" viewBox="0 0 16 16">
<path d="M10.26 8.522c0.094-0.206 0.356-0.398 0.582-0.423s0.431-0.232 0.457-0.458c0.027-0.224 0.218-0.486 0.423-0.582s0.338-0.354 0.295-0.576c-0.046-0.222 0.054-0.53 0.221-0.683 0.167-0.155 0.213-0.442 0.102-0.641-0.111-0.197-0.111-0.521 0-0.718 0.111-0.199 0.066-0.486-0.102-0.641s-0.266-0.462-0.221-0.683c0.043-0.222-0.089-0.482-0.295-0.578-0.205-0.095-0.396-0.356-0.423-0.582-0.026-0.224-0.232-0.43-0.457-0.458s-0.487-0.218-0.582-0.422c-0.096-0.206-0.355-0.338-0.578-0.293-0.222 0.044-0.53-0.056-0.683-0.222-0.154-0.168-0.442-0.213-0.64-0.102s-0.522 0.111-0.718 0c-0.198-0.113-0.485-0.068-0.641 0.1-0.153 0.166-0.46 0.266-0.683 0.222-0.222-0.045-0.482 0.087-0.576 0.294-0.095 0.205-0.357 0.396-0.582 0.422-0.226 0.028-0.431 0.234-0.458 0.458s-0.217 0.486-0.423 0.581c-0.205 0.095-0.338 0.355-0.293 0.578s-0.056 0.53-0.222 0.683-0.213 0.442-0.102 0.641c0.111 0.197 0.111 0.521 0 0.718-0.111 0.198-0.066 0.486 0.102 0.642 0.167 0.152 0.266 0.46 0.222 0.683-0.045 0.222 0.088 0.482 0.293 0.576 0.206 0.095 0.396 0.358 0.422 0.582 0.027 0.226 0.232 0.432 0.458 0.458s0.487 0.218 0.582 0.423c0.094 0.205 0.354 0.337 0.576 0.293s0.53 0.055 0.683 0.222c0.155 0.166 0.442 0.213 0.641 0.102 0.197-0.111 0.521-0.111 0.718 0s0.486 0.065 0.64-0.102c0.154-0.168 0.461-0.266 0.683-0.222s0.483-0.087 0.578-0.292zM8 7.519c-1.502 0-2.72-1.218-2.72-2.719 0-1.502 1.218-2.721 2.72-2.721s2.72 1.218 2.72 2.721c0 1.501-1.218 2.719-2.72 2.719zM4.78 9.127l-0.994 5.639 2.502-0.371 2.225 1.205 0.99-5.617c-0.478 0.138-0.982 0.217-1.504 0.217-1.207 0-2.319-0.402-3.219-1.073zM11.169 9.166c-0.249 0.181-0.514 0.341-0.792 0.478l-0.598 3.389 2.695-1.462-1.305-2.404z"></path>
</svg>
