<?xml version="1.0" encoding="utf-8"?>
<!-- Generated by IcoMoon.io -->
<!DOCTYPE svg PUBLIC "-//W3C//DTD SVG 1.1//EN" "http://www.w3.org/Graphics/SVG/1.1/DTD/svg11.dtd">
<svg version="1.1" xmlns="http://www.w3.org/2000/svg" xmlns:xlink="http://www.w3.org/1999/xlink" width="16" height="16" viewBox="0 0 16 16">
<path d="M1.201 4.8h13.6c0.456 0 0.382-0.486 0.154-0.566s-2.754-1.034-3.195-1.034h-0.56v-2.4h-6.4v2.4h-0.559c-0.44 0-2.967 0.955-3.194 1.034s-0.302 0.566 0.154 0.566zM15.2 5.6h-14.4c-0.44 0-0.8 0.36-0.8 0.8v4c0 0.441 0.36 0.8 0.8 0.8h1.826l-0.706 4h12.159l-0.706-4h1.826c0.441 0 0.8-0.359 0.8-0.8v-4c0-0.44-0.359-0.8-0.8-0.8zM3.682 13.6l0.958-5.602h6.719l0.959 5.602h-8.637z"></path>
</svg>
