<?xml version="1.0" encoding="utf-8"?>
<!-- Generated by IcoMoon.io -->
<!DOCTYPE svg PUBLIC "-//W3C//DTD SVG 1.1//EN" "http://www.w3.org/Graphics/SVG/1.1/DTD/svg11.dtd">
<svg version="1.1" xmlns="http://www.w3.org/2000/svg" xmlns:xlink="http://www.w3.org/1999/xlink" width="16" height="16" viewBox="0 0 16 16">
<path d="M14.667 6h-1.333v-5.333h-10.667v5.333h-1.333c-0.733 0-1.333 0.6-1.333 1.333v6.667c0 0.733 0.45 1.333 1 1.333h1.667v0.667h10.667v-0.667h1.667c0.55 0 1-0.6 1-1.333v-6.667c0-0.733-0.6-1.333-1.333-1.333zM2.667 14.667h-0.667v-3.333h0.667v3.333zM12 14.667h-8v-3.333h1.333v0.667h5.333v-0.667h1.333v3.333zM12 6h-8v-4h8v4zM14 14.667h-0.667v-3.333h0.667v3.333zM14.667 8h-1.333v-0.667h1.333v0.667zM5.333 13.333h5.333v-0.667h-5.333v0.667z"></path>
</svg>
