<?xml version="1.0" encoding="utf-8"?>
<!-- Generated by IcoMoon.io -->
<!DOCTYPE svg PUBLIC "-//W3C//DTD SVG 1.1//EN" "http://www.w3.org/Graphics/SVG/1.1/DTD/svg11.dtd">
<svg version="1.1" xmlns="http://www.w3.org/2000/svg" xmlns:xlink="http://www.w3.org/1999/xlink" width="16" height="16" viewBox="0 0 16 16">
<path d="M7.974 6.554l-3.974 3.846h2.4v4.8h3.2v-4.8h2.4l-4.026-3.846zM14.4 0.8h-12.8c-0.88 0-1.6 0.72-1.6 1.6v9.6c0 0.88 0.72 1.6 1.6 1.6h3.2v-1.6h-3.2v-7.2h12.8v7.2h-3.2v1.6h3.2c0.88 0 1.6-0.72 1.6-1.6v-9.6c0-0.88-0.72-1.6-1.6-1.6zM2 3.4c-0.331 0-0.6-0.269-0.6-0.6s0.269-0.6 0.6-0.6c0.331 0 0.6 0.269 0.6 0.6s-0.269 0.6-0.6 0.6zM3.6 3.4c-0.331 0-0.6-0.269-0.6-0.6s0.269-0.6 0.6-0.6c0.331 0 0.6 0.269 0.6 0.6s-0.269 0.6-0.6 0.6zM14.4 3.2h-9.6v-0.8h9.615l-0.015 0.8z"></path>
</svg>
