<?xml version="1.0" encoding="utf-8"?>
<!-- Generated by IcoMoon.io -->
<!DOCTYPE svg PUBLIC "-//W3C//DTD SVG 1.1//EN" "http://www.w3.org/Graphics/SVG/1.1/DTD/svg11.dtd">
<svg version="1.1" xmlns="http://www.w3.org/2000/svg" xmlns:xlink="http://www.w3.org/1999/xlink" width="16" height="16" viewBox="0 0 16 16">
<path d="M11.938 11.594c0.875-0.938 1.406-2.219 1.406-3.594 0-2.219-1.375-4.156-3.344-4.938v0.281c0 0.719-0.625 1.313-1.344 1.313h-1.313v1.344c0 0.375-0.313 0.656-0.688 0.656h-1.313v1.344h4c0.375 0 0.656 0.281 0.656 0.656v2h0.656c0.594 0 1.094 0.406 1.281 0.938zM7.344 13.281v-1.281c-0.719 0-1.344-0.625-1.344-1.344v-0.656l-3.188-3.188c-0.094 0.375-0.156 0.781-0.156 1.188 0 2.719 2.063 4.969 4.688 5.281zM8 1.344c3.688 0 6.656 2.969 6.656 6.656s-2.969 6.656-6.656 6.656-6.656-2.969-6.656-6.656 2.969-6.656 6.656-6.656z"></path>
</svg>
