<?xml version="1.0" encoding="utf-8"?>
<!-- Generated by IcoMoon.io -->
<!DOCTYPE svg PUBLIC "-//W3C//DTD SVG 1.1//EN" "http://www.w3.org/Graphics/SVG/1.1/DTD/svg11.dtd">
<svg version="1.1" xmlns="http://www.w3.org/2000/svg" xmlns:xlink="http://www.w3.org/1999/xlink" width="16" height="16" viewBox="0 0 16 16">
<path d="M6.679 7.406c-0.127-0.095-0.26-0.174-0.398-0.234-0.139-0.062-0.277-0.094-0.415-0.094-0.255 0-0.457 0.097-0.606 0.289-0.15 0.194-0.225 0.41-0.225 0.65 0 0.262 0.077 0.477 0.23 0.644s0.364 0.251 0.633 0.251c0.138 0 0.276-0.028 0.415-0.083s0.27-0.123 0.393-0.207c0.124-0.083 0.241-0.178 0.35-0.283s0.207-0.21 0.294-0.311c-0.087-0.093-0.19-0.197-0.306-0.31s-0.238-0.217-0.366-0.311zM10.102 7.078c-0.146 0-0.286 0.031-0.42 0.094-0.134 0.061-0.262 0.139-0.382 0.234s-0.234 0.198-0.344 0.311-0.209 0.217-0.294 0.311c0.094 0.11 0.196 0.218 0.306 0.322 0.11 0.106 0.225 0.2 0.35 0.284 0.122 0.083 0.251 0.15 0.386 0.202s0.279 0.077 0.431 0.077c0.27 0 0.476-0.087 0.622-0.262s0.218-0.389 0.218-0.644c0-0.254-0.079-0.474-0.234-0.654-0.156-0.182-0.369-0.274-0.638-0.274zM8 0.32c-4.242 0-7.68 3.438-7.68 7.68s3.438 7.68 7.68 7.68 7.68-3.438 7.68-7.68-3.438-7.68-7.68-7.68zM11.868 8.77c-0.086 0.247-0.21 0.464-0.37 0.649-0.16 0.186-0.358 0.331-0.594 0.437s-0.5 0.158-0.791 0.158c-0.226 0-0.437-0.034-0.633-0.103s-0.381-0.16-0.551-0.274c-0.171-0.113-0.333-0.243-0.486-0.392-0.152-0.15-0.298-0.304-0.437-0.464-0.152 0.16-0.302 0.314-0.447 0.464s-0.3 0.28-0.465 0.392c-0.163 0.114-0.342 0.204-0.534 0.274s-0.409 0.103-0.65 0.103c-0.298 0-0.563-0.052-0.797-0.158s-0.434-0.247-0.6-0.426c-0.167-0.179-0.294-0.391-0.382-0.638-0.086-0.247-0.13-0.513-0.13-0.796s0.042-0.547 0.126-0.791 0.206-0.454 0.366-0.634c0.16-0.179 0.356-0.319 0.59-0.426 0.232-0.105 0.494-0.158 0.786-0.158 0.24 0 0.46 0.036 0.66 0.11 0.2 0.072 0.385 0.169 0.556 0.289s0.332 0.258 0.482 0.414 0.296 0.322 0.442 0.497c0.139-0.167 0.283-0.331 0.431-0.49 0.15-0.161 0.31-0.301 0.482-0.42 0.17-0.12 0.356-0.217 0.556-0.289 0.2-0.074 0.417-0.11 0.648-0.11 0.292 0 0.554 0.050 0.787 0.153 0.233 0.102 0.429 0.241 0.589 0.419s0.283 0.386 0.37 0.627c0.088 0.241 0.131 0.502 0.131 0.786s-0.043 0.55-0.132 0.797z"></path>
</svg>
