<?xml version="1.0" encoding="utf-8"?>
<!-- Generated by IcoMoon.io -->
<!DOCTYPE svg PUBLIC "-//W3C//DTD SVG 1.1//EN" "http://www.w3.org/Graphics/SVG/1.1/DTD/svg11.dtd">
<svg version="1.1" xmlns="http://www.w3.org/2000/svg" xmlns:xlink="http://www.w3.org/1999/xlink" width="16" height="16" viewBox="0 0 16 16">
<path d="M5.118 11.82c0.385-0.139 0.742-0.32 1.070-0.546s0.638-0.486 0.928-0.786c0.29-0.298 0.589-0.607 0.894-0.927 0.277 0.32 0.568 0.629 0.874 0.927s0.63 0.56 0.971 0.786c0.342 0.226 0.71 0.407 1.103 0.546 0.392 0.138 0.814 0.207 1.266 0.207 0.582 0 1.11-0.106 1.582-0.317s0.87-0.502 1.19-0.874c0.319-0.371 0.568-0.804 0.742-1.298s0.262-1.025 0.262-1.593-0.087-1.091-0.262-1.571c-0.174-0.482-0.422-0.898-0.742-1.255s-0.714-0.636-1.178-0.84c-0.466-0.205-0.99-0.306-1.573-0.306-0.465 0-0.898 0.074-1.298 0.218s-0.771 0.338-1.113 0.578c-0.342 0.24-0.662 0.52-0.961 0.841-0.298 0.319-0.586 0.648-0.862 0.982-0.291-0.35-0.586-0.68-0.883-0.994s-0.618-0.59-0.961-0.83-0.713-0.433-1.113-0.578c-0.4-0.146-0.841-0.218-1.32-0.218-0.582 0-1.108 0.106-1.572 0.317-0.467 0.211-0.858 0.494-1.179 0.851s-0.565 0.779-0.731 1.266c-0.167 0.487-0.25 1.014-0.25 1.581 0 0.568 0.086 1.099 0.261 1.594s0.43 0.92 0.764 1.278c0.335 0.357 0.735 0.641 1.2 0.851 0.467 0.211 0.997 0.317 1.594 0.317 0.48 0 0.914-0.069 1.299-0.207zM2.531 9.32c-0.306-0.334-0.458-0.764-0.458-1.287 0-0.48 0.149-0.914 0.449-1.299 0.298-0.384 0.701-0.578 1.212-0.578 0.276 0 0.551 0.062 0.828 0.186s0.542 0.28 0.798 0.47c0.254 0.19 0.498 0.397 0.73 0.622 0.233 0.226 0.437 0.434 0.612 0.622-0.175 0.204-0.371 0.412-0.59 0.621-0.218 0.213-0.45 0.402-0.698 0.568-0.249 0.168-0.51 0.306-0.786 0.415s-0.553 0.164-0.829 0.164c-0.54 0-0.962-0.167-1.267-0.502zM11.405 9.67c-0.269-0.102-0.528-0.237-0.774-0.404-0.249-0.167-0.482-0.356-0.699-0.567-0.218-0.211-0.422-0.426-0.611-0.645 0.174-0.189 0.37-0.396 0.589-0.622 0.218-0.225 0.448-0.432 0.687-0.621s0.495-0.346 0.764-0.47c0.27-0.123 0.55-0.186 0.841-0.186 0.538 0 0.963 0.182 1.277 0.546 0.314 0.363 0.47 0.8 0.47 1.31s-0.146 0.938-0.437 1.286c-0.291 0.35-0.706 0.524-1.244 0.524-0.305-0.001-0.593-0.051-0.862-0.153z"></path>
</svg>
