<?xml version="1.0" encoding="utf-8"?>
<!-- Generated by IcoMoon.io -->
<!DOCTYPE svg PUBLIC "-//W3C//DTD SVG 1.1//EN" "http://www.w3.org/Graphics/SVG/1.1/DTD/svg11.dtd">
<svg version="1.1" xmlns="http://www.w3.org/2000/svg" xmlns:xlink="http://www.w3.org/1999/xlink" width="16" height="16" viewBox="0 0 16 16">
<path d="M13.604 10.414c-0.623-0.438-1.401-0.408-1.843 0.222-0.442 0.628-3.534 4.506-8.601 2.895 0.191 0.167 0.392 0.325 0.604 0.474 3.322 2.341 7.914 1.542 10.253-1.78 0.444-0.63 0.21-1.371-0.413-1.81zM3.828 9.921c-0.323-0.697-2.135-5.314 1.792-8.897-0.24 0.083-0.478 0.177-0.712 0.286-3.687 1.708-5.293 6.082-3.585 9.77 0.322 0.697 1.082 0.867 1.774 0.547s1.053-1.010 0.73-1.706zM8.661 0.658c-0.765-0.069-1.291 0.503-1.36 1.262s0.348 1.417 1.113 1.486 5.67 0.808 6.808 6.002c0.050-0.249 0.085-0.502 0.109-0.759 0.364-4.049-2.622-7.626-6.67-7.99zM5.513 8.424c-0.211 0.495-0.245 0.97-0.075 1.058 0.117 0.061 0.299-0.078 0.47-0.333 0.068 0.278 0.236 0.53 0.476 0.731-0.251 0.092-0.416 0.244-0.416 0.415 0 0.283 0.445 0.511 0.993 0.511 0.494 0 0.904-0.186 0.98-0.43 0.020 0 0.098 0 0.118 0 0.076 0.244 0.486 0.43 0.981 0.43 0.549 0 0.993-0.228 0.993-0.511 0-0.172-0.164-0.323-0.416-0.415 0.239-0.202 0.408-0.453 0.475-0.731 0.171 0.254 0.354 0.394 0.471 0.333 0.169-0.087 0.136-0.562-0.076-1.058-0.166-0.39-0.39-0.678-0.562-0.741 0.003-0.025 0.003-0.050 0.003-0.075 0-0.152-0.042-0.29-0.114-0.403 0.002-0.010 0.002-0.018 0.002-0.026 0-0.070-0.017-0.134-0.045-0.19-0.043-1.014-0.703-1.819-1.771-1.819s-1.729 0.805-1.772 1.818c-0.028 0.056-0.046 0.12-0.046 0.19 0 0.008 0.001 0.017 0.002 0.026-0.070 0.114-0.113 0.253-0.113 0.404 0 0.025 0.001 0.050 0.003 0.075-0.17 0.062-0.396 0.35-0.562 0.741z"></path>
</svg>
