<?xml version="1.0" encoding="utf-8"?>
<!-- Generated by IcoMoon.io -->
<!DOCTYPE svg PUBLIC "-//W3C//DTD SVG 1.1//EN" "http://www.w3.org/Graphics/SVG/1.1/DTD/svg11.dtd">
<svg version="1.1" xmlns="http://www.w3.org/2000/svg" xmlns:xlink="http://www.w3.org/1999/xlink" width="16" height="16" viewBox="0 0 16 16">
<path d="M16 12l-3 3-1-1 2-2-2-2 1-1zM8.656 6.656h2v1.344h-2v2h-1.313v-2h-2v-1.344h2v-2h1.313v2zM14 2c0.719 0 1.344 0.594 1.344 1.344v5.313h-1.344v-5.313h-12v8h10v1.313h-1.344v1.344h-5.313v-1.344h-3.344c-0.75 0-1.344-0.594-1.344-1.313v-8c0-0.75 0.594-1.344 1.344-1.344h12z"></path>
</svg>
