<?xml version="1.0" encoding="utf-8"?>
<!-- Generated by IcoMoon.io -->
<!DOCTYPE svg PUBLIC "-//W3C//DTD SVG 1.1//EN" "http://www.w3.org/Graphics/SVG/1.1/DTD/svg11.dtd">
<svg version="1.1" xmlns="http://www.w3.org/2000/svg" xmlns:xlink="http://www.w3.org/1999/xlink" width="16" height="16" viewBox="0 0 16 16">
<path d="M13.6 6.4h-9.583l7.179-4.212-0.796-1.388-9.011 5.257c-0.365 0.213-0.589 0.602-0.589 1.025v6.518c0 0.884 0.716 1.6 1.6 1.6h11.2c0.884 0 1.6-0.716 1.6-1.6v-5.6c0-0.884-0.716-1.6-1.6-1.6zM12.4 13.6c-0.662 0-1.2-0.538-1.2-1.2s0.538-1.2 1.2-1.2 1.2 0.538 1.2 1.2c0 0.662-0.538 1.2-1.2 1.2zM13.6 9.6h-11.2v-1.6h11.2v1.6z"></path>
</svg>
