<?xml version="1.0" encoding="utf-8"?>
<!-- Generated by IcoMoon.io -->
<!DOCTYPE svg PUBLIC "-//W3C//DTD SVG 1.1//EN" "http://www.w3.org/Graphics/SVG/1.1/DTD/svg11.dtd">
<svg version="1.1" xmlns="http://www.w3.org/2000/svg" xmlns:xlink="http://www.w3.org/1999/xlink" width="16" height="16" viewBox="0 0 16 16">
<path d="M13.344 8v-2.656h-10.688v2.656h8v-1.344h1.344v1.344h1.344zM4.656 13.344c1.094 0 2-0.906 2-2s-0.906-2-2-2-2 0.906-2 2 0.906 2 2 2zM2.156 4.094l8.438-3.438 0.438 1.125-5.5 2.219h7.813c0.75 0 1.313 0.594 1.313 1.344v8c0 0.719-0.563 1.313-1.313 1.313h-10.688c-0.75 0-1.313-0.594-1.313-1.313v-8c0-0.563 0.313-1.063 0.813-1.25z"></path>
</svg>
