<?xml version="1.0" encoding="utf-8"?>
<!-- Generated by IcoMoon.io -->
<!DOCTYPE svg PUBLIC "-//W3C//DTD SVG 1.1//EN" "http://www.w3.org/Graphics/SVG/1.1/DTD/svg11.dtd">
<svg version="1.1" xmlns="http://www.w3.org/2000/svg" xmlns:xlink="http://www.w3.org/1999/xlink" width="16" height="16" viewBox="0 0 16 16">
<path d="M12.962 8.001c0 3.446-2.758 6.239-6.161 6.239s-6.162-2.794-6.162-6.239c0-3.447 2.758-6.241 6.161-6.241 0.489 0 0.963 0.061 1.419 0.17v3.553c-0.722-0.264-1.608-0.225-2.442 0.178-1.508 0.728-2.273 2.366-1.708 3.656 0.564 1.292 2.246 1.75 3.753 1.022 1.039-0.502 1.954-1.71 1.954-3.223v-4.579c0.13 0.072 0.256 0.15 0.38 0.231 1.171 0.736 2.91 1.722 4.942 1.825 0.792 0.039-0.311 2.033-2.19 2.589 0.035 0.267 0.054 0.541 0.054 0.819z"></path>
</svg>
