<?xml version="1.0" encoding="utf-8"?>
<!-- Generated by IcoMoon.io -->
<!DOCTYPE svg PUBLIC "-//W3C//DTD SVG 1.1//EN" "http://www.w3.org/Graphics/SVG/1.1/DTD/svg11.dtd">
<svg version="1.1" xmlns="http://www.w3.org/2000/svg" xmlns:xlink="http://www.w3.org/1999/xlink" width="16" height="16" viewBox="0 0 16 16">
<path d="M8 0.32c-4.242 0-7.68 3.438-7.68 7.68s3.438 7.68 7.68 7.68 7.68-3.438 7.68-7.68-3.438-7.68-7.68-7.68zM10.722 7.586c0.018 0.136 0.027 0.274 0.027 0.414 0 1.741-1.394 3.153-3.114 3.153-1.718 0-3.113-1.413-3.113-3.153 0-1.742 1.394-3.154 3.113-3.154 0.247 0 0.486 0.031 0.717 0.086v1.796c-0.363-0.133-0.812-0.114-1.233 0.089-0.762 0.369-1.148 1.195-0.863 1.849s1.134 0.885 1.897 0.516c0.525-0.253 0.987-0.862 0.987-1.628v-2.314c0.066 0.036 0.13 0.077 0.192 0.117 0.591 0.372 1.47 0.869 2.497 0.922 0.401 0.021-0.158 1.027-1.107 1.308z"></path>
</svg>
