<?xml version="1.0" encoding="utf-8"?>
<!-- Generated by IcoMoon.io -->
<!DOCTYPE svg PUBLIC "-//W3C//DTD SVG 1.1//EN" "http://www.w3.org/Graphics/SVG/1.1/DTD/svg11.dtd">
<svg version="1.1" xmlns="http://www.w3.org/2000/svg" xmlns:xlink="http://www.w3.org/1999/xlink" width="16" height="16" viewBox="0 0 16 16">
<path d="M8.344 11.344v-0.5c0-1-2-1.5-3-1.5s-3 0.5-3 1.5v0.5h6zM5.344 5.156c-0.813 0-1.5 0.688-1.5 1.5s0.688 1.5 1.5 1.5 1.5-0.688 1.5-1.5-0.688-1.5-1.5-1.5zM9.344 3.344c0.375 0 0.656 0.281 0.656 0.656v8c0 0.375-0.281 0.656-0.656 0.656h-8c-0.375 0-0.688-0.281-0.688-0.656v-8c0-0.375 0.313-0.656 0.688-0.656h8zM11.344 12.656v-9.313h1.313v9.313h-1.313zM14 3.344h1.344v9.313h-1.344v-9.313z"></path>
</svg>
