<?xml version="1.0" encoding="utf-8"?>
<!-- Generated by IcoMoon.io -->
<!DOCTYPE svg PUBLIC "-//W3C//DTD SVG 1.1//EN" "http://www.w3.org/Graphics/SVG/1.1/DTD/svg11.dtd">
<svg version="1.1" xmlns="http://www.w3.org/2000/svg" xmlns:xlink="http://www.w3.org/1999/xlink" width="16" height="16" viewBox="0 0 16 16">
<path d="M13.375 1.344c2.594 2.688 2.594 6.719 0 9.313l-1.094-1.063c1.844-2.125 1.844-5.188 0-7.188zM11.188 3.563c1.344 1.469 1.344 3.5 0 4.844l-1.125-1.125c0.563-0.781 0.563-1.813 0-2.594zM6 10c1.781 0 5.344 0.875 5.344 2.656v1.344h-10.688v-1.344c0-1.781 3.563-2.656 5.344-2.656zM3.344 6c0-1.469 1.188-2.656 2.656-2.656s2.656 1.188 2.656 2.656-1.188 2.656-2.656 2.656-2.656-1.188-2.656-2.656z"></path>
</svg>
