<?xml version="1.0" encoding="utf-8"?>
<!-- Generated by IcoMoon.io -->
<!DOCTYPE svg PUBLIC "-//W3C//DTD SVG 1.1//EN" "http://www.w3.org/Graphics/SVG/1.1/DTD/svg11.dtd">
<svg version="1.1" xmlns="http://www.w3.org/2000/svg" xmlns:xlink="http://www.w3.org/1999/xlink" width="16" height="16" viewBox="0 0 16 16">
<path d="M13.344 9.344v-4h-3.406l1.406 1.875-1.094 0.781c-0.751-1.020-1.51-2.032-2.25-3.063-0.74 1.031-1.499 2.043-2.25 3.063l-1.094-0.781 1.406-1.875h-3.406v4h10.688zM13.344 12.656v-1.313h-10.688v1.313h10.688zM6 2.656c-0.375 0-0.656 0.313-0.656 0.688s0.281 0.656 0.656 0.656 0.656-0.281 0.656-0.656-0.281-0.688-0.656-0.688zM10 2.656c-0.375 0-0.656 0.313-0.656 0.688s0.281 0.656 0.656 0.656 0.656-0.281 0.656-0.656-0.281-0.688-0.656-0.688zM13.344 4c0.75 0 1.313 0.594 1.313 1.344v7.313c0 0.75-0.563 1.344-1.313 1.344h-10.688c-0.75 0-1.313-0.594-1.313-1.344v-7.313c0-0.75 0.563-1.344 1.313-1.344h1.469c-0.063-0.219-0.125-0.438-0.125-0.656 0-1.094 0.906-2 2-2 0.688 0 1.281 0.344 1.656 0.875l0.344 0.469 0.344-0.469c0.375-0.531 0.969-0.875 1.656-0.875 1.094 0 2 0.906 2 2 0 0.219-0.063 0.438-0.125 0.656h1.469z"></path>
</svg>
