<?xml version="1.0" encoding="utf-8"?>
<!-- Generated by IcoMoon.io -->
<!DOCTYPE svg PUBLIC "-//W3C//DTD SVG 1.1//EN" "http://www.w3.org/Graphics/SVG/1.1/DTD/svg11.dtd">
<svg version="1.1" xmlns="http://www.w3.org/2000/svg" xmlns:xlink="http://www.w3.org/1999/xlink" width="16" height="16" viewBox="0 0 16 16">
<path d="M3.657 7.523c0.298-1.782 2.14-3.725 4.319-3.725 1.261 0 2.387 0.579 3.175 1.471l1.060-0.707c-1.035-1.23-2.571-2.027-4.281-2.027-2.833 0-5.176 1.969-5.531 4.745l-2.398-0.463 2.361 3.491 3.492-2.359-2.196-0.425zM13.639 5.693l-3.492 2.359 2.195 0.425c-0.297 1.782-2.14 3.726-4.319 3.725-1.261 0-2.387-0.579-3.175-1.471l-1.059 0.707c1.035 1.23 2.571 2.027 4.281 2.027 2.833 0 5.176-1.969 5.531-4.745l2.399 0.463-2.361-3.491z"></path>
</svg>
