<?xml version="1.0" encoding="utf-8"?>
<!-- Generated by IcoMoon.io -->
<!DOCTYPE svg PUBLIC "-//W3C//DTD SVG 1.1//EN" "http://www.w3.org/Graphics/SVG/1.1/DTD/svg11.dtd">
<svg version="1.1" xmlns="http://www.w3.org/2000/svg" xmlns:xlink="http://www.w3.org/1999/xlink" width="16" height="16" viewBox="0 0 16 16">
<path d="M4.656 12c0.719 0 1.344 0.625 1.344 1.344s-0.625 1.313-1.344 1.313-1.313-0.594-1.313-1.313 0.594-1.344 1.313-1.344zM10.375 8.656l-6-6h8.969c0.375 0 0.656 0.313 0.656 0.688 0 0.125-0.031 0.219-0.094 0.313l-2.375 4.313c-0.219 0.406-0.656 0.688-1.156 0.688zM4.938 10h3.375l-1.344-1.344h-1.563l-0.594 1.094-0.031 0.094c0 0.094 0.063 0.156 0.156 0.156zM15.156 15.156l-0.844 0.844-1.906-1.906c-0.25 0.344-0.625 0.563-1.063 0.563-0.719 0-1.344-0.594-1.344-1.313 0-0.438 0.219-0.844 0.563-1.094l-0.938-0.906h-4.969c-0.719 0-1.313-0.625-1.313-1.344 0-0.219 0.063-0.438 0.156-0.625l0.906-1.656-1.469-3.094-2.938-2.938 0.844-0.844z"></path>
</svg>
