<?xml version="1.0" encoding="utf-8"?>
<!-- Generated by IcoMoon.io -->
<!DOCTYPE svg PUBLIC "-//W3C//DTD SVG 1.1//EN" "http://www.w3.org/Graphics/SVG/1.1/DTD/svg11.dtd">
<svg version="1.1" xmlns="http://www.w3.org/2000/svg" xmlns:xlink="http://www.w3.org/1999/xlink" width="16" height="16" viewBox="0 0 16 16">
<path d="M6.774 0.692c-3.481 0.583-6.134 3.61-6.134 7.257 0 1.813 0.656 3.47 1.743 4.753 2.577-1.247 4.378-4.069 4.391-7.353v-4.657zM8.002 9.806c-0.458 1.898-1.828 3.52-3.534 4.598 1.048 0.575 2.253 0.903 3.533 0.903 1.282 0 2.486-0.328 3.534-0.903-1.706-1.078-3.075-2.7-3.533-4.598zM9.228 5.314c0 3.298 1.805 6.134 4.39 7.387 1.086-1.282 1.742-2.941 1.742-4.753 0-3.647-2.652-6.672-6.132-7.256v4.622z"></path>
</svg>
