<?xml version="1.0" encoding="utf-8"?>
<!-- Generated by IcoMoon.io -->
<!DOCTYPE svg PUBLIC "-//W3C//DTD SVG 1.1//EN" "http://www.w3.org/Graphics/SVG/1.1/DTD/svg11.dtd">
<svg version="1.1" xmlns="http://www.w3.org/2000/svg" xmlns:xlink="http://www.w3.org/1999/xlink" width="16" height="16" viewBox="0 0 16 16">
<path d="M8.813 10.125c0 0.102 0.198 0.219 0.313 0.219 0.063 0 0.156 0 0.219-0.063l0.125-0.156s0.063-0.125 0.063-0.188v-1.344c0 0-0.063-0.125-0.063-0.188 0-0.086-0.257-0.219-0.344-0.219-0.063 0-0.125 0.031-0.188 0.094l-0.125 0.125s-0.094 0.125-0.094 0.188v1.344s0.094 0.125 0.094 0.188zM10.125 9.469c0 0.188 0 0.406-0.063 0.531l-0.188 0.406s-0.219 0.188-0.344 0.188-0.281 0.063-0.406 0.063-0.281 0-0.406-0.063-0.188-0.125-0.313-0.188c-0.211-0.105-0.281-0.617-0.281-0.938v-0.469c0-0.188 0-0.406 0.063-0.531l0.219-0.406s0.188-0.188 0.313-0.188 0.281-0.063 0.406-0.063 0.281 0 0.406 0.063 0.219 0.125 0.344 0.188 0.125 0.219 0.188 0.406 0.063 0.344 0.063 0.531v0.469zM7.281 10.656h-0.625v-2.188l-0.656 0.188v-0.469l1.188-0.375h0.094v2.844zM8 3.344c2.938 0 5.344 2.375 5.344 5.313s-2.406 5.344-5.344 5.344-5.344-2.406-5.344-5.344h1.344c0 2.188 1.813 4 4 4s4-1.813 4-4-1.813-4-4-4v2.688l-3.344-3.344 3.344-3.344v2.688z"></path>
</svg>
