<?xml version="1.0" encoding="utf-8"?>
<!-- Generated by IcoMoon.io -->
<!DOCTYPE svg PUBLIC "-//W3C//DTD SVG 1.1//EN" "http://www.w3.org/Graphics/SVG/1.1/DTD/svg11.dtd">
<svg version="1.1" xmlns="http://www.w3.org/2000/svg" xmlns:xlink="http://www.w3.org/1999/xlink" width="16" height="16" viewBox="0 0 16 16">
<path d="M7.875 9.063c-0.056 0.022-0.219 0.075-0.219 0.125 0 0.063-0.063 0.094-0.063 0.094h-0.469l0.156-1.469h1.594v0.469h-1.156l-0.063 0.594s0.063 0 0.063-0.063 0.094-0.031 0.094-0.094 0.063 0 0.125 0h0.125c0.125 0 0.281 0.031 0.344 0.094s0.188 0.125 0.25 0.188c0.139 0.139 0.281 0.426 0.281 0.719 0 0.125 0 0.281-0.063 0.344s-0.094 0.219-0.219 0.344-0.188 0.125-0.25 0.188-0.281 0.063-0.406 0.063-0.281 0-0.344-0.063-0.188-0.063-0.313-0.125c-0.175-0.087-0.281-0.352-0.281-0.594h0.531c0 0.231 0.165 0.313 0.406 0.313 0.063 0 0.125 0 0.188-0.063l0.156-0.125s0.063-0.125 0.063-0.188v-0.406l-0.063-0.125-0.156-0.156s-0.125-0.063-0.188-0.063h-0.125zM8 3.344c2.938 0 5.344 2.375 5.344 5.313s-2.406 5.344-5.344 5.344-5.344-2.406-5.344-5.344h1.344c0 2.188 1.813 4 4 4s4-1.813 4-4-1.813-4-4-4v2.688l-3.344-3.344 3.344-3.344v2.688z"></path>
</svg>
