<?xml version="1.0" encoding="utf-8"?>
<!-- Generated by IcoMoon.io -->
<!DOCTYPE svg PUBLIC "-//W3C//DTD SVG 1.1//EN" "http://www.w3.org/Graphics/SVG/1.1/DTD/svg11.dtd">
<svg version="1.1" xmlns="http://www.w3.org/2000/svg" xmlns:xlink="http://www.w3.org/1999/xlink" width="16" height="16" viewBox="0 0 16 16">
<path d="M8 5.344h1v2.813l2.344 1.406-0.5 0.813-2.844-1.719v-3.313zM8.656 2c3.313 0 6 2.688 6 6s-2.688 6-6 6c-1.656 0-3.125-0.656-4.219-1.75l0.938-0.969c0.844 0.844 2 1.375 3.281 1.375 2.594 0 4.688-2.063 4.688-4.656s-2.094-4.656-4.688-4.656-4.656 2.063-4.656 4.656h2l-2.688 2.688-0.063-0.094-2.594-2.594h2c0-3.313 2.688-6 6-6z"></path>
</svg>
