<?xml version="1.0" encoding="utf-8"?>
<!-- Generated by IcoMoon.io -->
<!DOCTYPE svg PUBLIC "-//W3C//DTD SVG 1.1//EN" "http://www.w3.org/Graphics/SVG/1.1/DTD/svg11.dtd">
<svg version="1.1" xmlns="http://www.w3.org/2000/svg" xmlns:xlink="http://www.w3.org/1999/xlink" width="16" height="16" viewBox="0 0 16 16">
<path d="M8 12c1.844 0 3.344-1.5 3.344-3.344s-1.5-3.313-3.344-3.313c-1.188 0-2.219 0.625-2.813 1.531l-0.844-0.875v2.656h2.656l-1.063-1.063c0.375-0.75 1.156-1.25 2.063-1.25 1.281 0 2.344 1.031 2.344 2.313s-1.063 2.344-2.344 2.344c-0.781 0-1.5-0.406-1.906-1h-1.156c0.5 1.188 1.688 2 3.063 2zM9.344 1.344l4 4v8c0 0.719-0.625 1.313-1.344 1.313h-8c-0.719 0-1.344-0.594-1.344-1.313l0.031-10.688c0-0.719 0.594-1.313 1.313-1.313h5.344z"></path>
</svg>
