<?xml version="1.0" encoding="utf-8"?>
<!-- Generated by IcoMoon.io -->
<!DOCTYPE svg PUBLIC "-//W3C//DTD SVG 1.1//EN" "http://www.w3.org/Graphics/SVG/1.1/DTD/svg11.dtd">
<svg version="1.1" xmlns="http://www.w3.org/2000/svg" xmlns:xlink="http://www.w3.org/1999/xlink" width="16" height="16" viewBox="0 0 16 16">
<path d="M9.546 10.455c0 0 5.647-4.075 5.021-8.739-0.014-0.102-0.047-0.17-0.090-0.214s-0.11-0.078-0.21-0.092c-4.558-0.641-8.539 5.138-8.539 5.138-3.454-0.414-3.203 0.275-4.779 4.061-0.302 0.722 0.187 0.97 0.723 0.767 0.536-0.202 1.718-0.649 1.718-0.649l2.072 2.118c0 0-0.437 1.211-0.634 1.759s0.044 1.049 0.75 0.741c3.699-1.613 4.373-1.355 3.968-4.89zM10.354 5.722c-0.478-0.49-0.478-1.283 0-1.774 0.478-0.489 1.254-0.489 1.733 0s0.478 1.282 0 1.774c-0.479 0.489-1.255 0.489-1.733 0z"></path>
</svg>
