<?xml version="1.0" encoding="utf-8"?>
<!-- Generated by IcoMoon.io -->
<!DOCTYPE svg PUBLIC "-//W3C//DTD SVG 1.1//EN" "http://www.w3.org/Graphics/SVG/1.1/DTD/svg11.dtd">
<svg version="1.1" xmlns="http://www.w3.org/2000/svg" xmlns:xlink="http://www.w3.org/1999/xlink" width="16" height="16" viewBox="0 0 16 16">
<path d="M11.25 10.313c0.375-0.5 0.594-1.063 0.688-1.656h1.344c-0.125 0.938-0.469 1.813-1.063 2.594zM8.656 11.938c0.594-0.094 1.156-0.313 1.656-0.688l0.969 0.969c-0.781 0.594-1.688 0.938-2.625 1.063v-1.344zM13.281 7.344h-1.344c-0.094-0.594-0.313-1.156-0.688-1.656l0.969-0.938c0.594 0.781 0.938 1.656 1.063 2.594zM10.375 3.688l-3.031 2.969v-2.594c-1.906 0.313-3.344 1.969-3.344 3.938s1.438 3.625 3.344 3.938v1.344c-2.625-0.313-4.688-2.563-4.688-5.281s2.063-4.969 4.688-5.281v-2.063z"></path>
</svg>
