<?xml version="1.0" encoding="utf-8"?>
<!-- Generated by IcoMoon.io -->
<!DOCTYPE svg PUBLIC "-//W3C//DTD SVG 1.1//EN" "http://www.w3.org/Graphics/SVG/1.1/DTD/svg11.dtd">
<svg version="1.1" xmlns="http://www.w3.org/2000/svg" xmlns:xlink="http://www.w3.org/1999/xlink" width="16" height="16" viewBox="0 0 16 16">
<path d="M8.656 2.719c2.625 0.313 4.688 2.563 4.688 5.281s-2.063 4.969-4.688 5.281v-1.344c1.906-0.313 3.344-1.969 3.344-3.938s-1.438-3.625-3.344-3.938v2.594l-3.031-2.969 3.031-3.031v2.063zM4.719 12.219l0.969-0.969c0.5 0.375 1.063 0.594 1.656 0.688v1.344c-0.938-0.125-1.844-0.469-2.625-1.063zM4.063 8.656c0.094 0.594 0.313 1.156 0.656 1.656l-0.938 0.938c-0.594-0.781-0.938-1.656-1.063-2.594h1.344zM4.75 5.688c-0.344 0.5-0.594 1.063-0.688 1.656h-1.344c0.125-0.938 0.5-1.813 1.094-2.594z"></path>
</svg>
