<?xml version="1.0" encoding="utf-8"?>
<!-- Generated by IcoMoon.io -->
<!DOCTYPE svg PUBLIC "-//W3C//DTD SVG 1.1//EN" "http://www.w3.org/Graphics/SVG/1.1/DTD/svg11.dtd">
<svg version="1.1" xmlns="http://www.w3.org/2000/svg" xmlns:xlink="http://www.w3.org/1999/xlink" width="16" height="16" viewBox="0 0 16 16">
<path d="M12.906 4.438c2.344 2.344 2.344 6.125 0 8.469-1.156 1.188-2.719 1.75-4.25 1.75-1 0-1.969-0.25-2.875-0.75l1-0.969c0.594 0.281 1.219 0.406 1.875 0.406 1.188 0 2.406-0.469 3.313-1.375 1.813-1.813 1.813-4.781 0-6.594-0.906-0.906-2.125-1.375-3.313-1.375v2.156l-2.813-2.813 2.813-2.844v2.156c1.531 0 3.094 0.594 4.25 1.781zM2.469 8.594l2.438 2.438 2.438-2.438-2.438-2.438zM4.906 4.281l4.313 4.313-4.313 4.313-4.344-4.313z"></path>
</svg>
