<?xml version="1.0" encoding="utf-8"?>
<!-- Generated by IcoMoon.io -->
<!DOCTYPE svg PUBLIC "-//W3C//DTD SVG 1.1//EN" "http://www.w3.org/Graphics/SVG/1.1/DTD/svg11.dtd">
<svg version="1.1" xmlns="http://www.w3.org/2000/svg" xmlns:xlink="http://www.w3.org/1999/xlink" width="16" height="16" viewBox="0 0 16 16">
<path d="M14 5.344v3.313h-1.344v-3.313c0-1.094-0.906-2-2-2h-3.313v-1.344h3.313c1.844 0 3.344 1.5 3.344 3.344zM2 14v-1.344h1.344v1.344h-1.344zM4.656 14v-1.344h1.344v1.344h-1.344zM7.344 14v-1.344h1.313v1.344h-1.313zM4.656 3.344v-1.344h1.344v1.344h-1.344zM2 3.344v-1.344h1.344v1.344h-1.344zM2 6v-1.344h1.344v1.344h-1.344zM2 11.344v-1.344h1.344v1.344h-1.344zM2 8.656v-1.313h1.344v1.313h-1.344zM12.656 11.344v-1.344h1.344v1.344h-1.344zM12.656 12.656h1.344v1.344h-1.344v-1.344z"></path>
</svg>
