<?xml version="1.0" encoding="utf-8"?>
<!-- Generated by IcoMoon.io -->
<!DOCTYPE svg PUBLIC "-//W3C//DTD SVG 1.1//EN" "http://www.w3.org/Graphics/SVG/1.1/DTD/svg11.dtd">
<svg version="1.1" xmlns="http://www.w3.org/2000/svg" xmlns:xlink="http://www.w3.org/1999/xlink" width="16" height="16" viewBox="0 0 16 16">
<path d="M10 12v-1.344h-1.344v1.344h1.344zM7.656 12v-1.344h-1.313v1.344h1.313zM5.344 12v-1.344h-1.344v1.344h1.344zM12.656 8.656c0.719 0 1.344 0.625 1.344 1.344v2.656c0 0.719-0.625 1.344-1.344 1.344h-9.313c-0.719 0-1.344-0.625-1.344-1.344v-2.656c0-0.719 0.625-1.344 1.344-1.344h6.656v-2.656h1.344v2.656h1.313zM12.875 4.469l-0.531 0.531c-0.469-0.469-1.094-0.656-1.688-0.656s-1.188 0.188-1.656 0.656l-0.531-0.531c0.594-0.594 1.375-0.938 2.188-0.938s1.625 0.344 2.219 0.938zM13.469 3.938c-0.813-0.719-1.813-1.125-2.813-1.125s-1.969 0.406-2.781 1.125l-0.531-0.531c0.938-0.938 2.125-1.406 3.313-1.406s2.406 0.469 3.344 1.406z"></path>
</svg>
