<?xml version="1.0" encoding="utf-8"?>
<!-- Generated by IcoMoon.io -->
<!DOCTYPE svg PUBLIC "-//W3C//DTD SVG 1.1//EN" "http://www.w3.org/Graphics/SVG/1.1/DTD/svg11.dtd">
<svg version="1.1" xmlns="http://www.w3.org/2000/svg" xmlns:xlink="http://www.w3.org/1999/xlink" width="16" height="16" viewBox="0 0 16 16">
<path d="M14 14l-2 2-2-2v-1l-4.719-4.719c-0.219 0.031-0.438 0.031-0.625 0.031v-1.438c1.094 0.031 2.406-0.563 3.125-1.344l0.938-1.031c0.238-0.238 0.63-0.5 1.094-0.5h0.031c0.813 0 1.5 0.688 1.5 1.5v3.844c0 0.563-0.25 1.063-0.625 1.438l-2.375-2.375v-1.531c-0.406 0.344-0.969 0.688-1.531 0.938l4.188 4.188h1zM10 0.656c0.719 0 1.344 0.625 1.344 1.344s-0.625 1.344-1.344 1.344-1.344-0.625-1.344-1.344 0.625-1.344 1.344-1.344zM5.656 9.656l1.688 1.688h-1.344l-2.344 2.313-1-1z"></path>
</svg>
