<?xml version="1.0" encoding="utf-8"?>
<!-- Generated by IcoMoon.io -->
<!DOCTYPE svg PUBLIC "-//W3C//DTD SVG 1.1//EN" "http://www.w3.org/Graphics/SVG/1.1/DTD/svg11.dtd">
<svg version="1.1" xmlns="http://www.w3.org/2000/svg" xmlns:xlink="http://www.w3.org/1999/xlink" width="16" height="16" viewBox="0 0 16 16">
<path d="M11.399 0.35l-11.049 11.050c-0.467 0.467-0.467 1.23 0.002 1.699l2.548 2.55c0.467 0.467 1.233 0.469 1.699 0.002l11.050-11.050c0.467-0.468 0.467-1.233 0-1.7l-2.549-2.55c-0.47-0.469-1.234-0.466-1.702 0zM3.143 12.25l-0.607 0.607-1.517-1.518 0.607-0.607 1.517 1.518zM5.572 12.25l-0.607 0.607-2.732-2.732 0.607-0.608 2.732 2.733zM5.572 9.821l-0.607 0.607-1.518-1.517 0.608-0.608 1.518 1.518zM6.786 8.606l-0.607 0.607-1.517-1.517 0.607-0.608 1.517 1.518zM9.214 8.606l-0.607 0.607-2.731-2.731 0.607-0.607 2.731 2.731zM9.214 6.178l-0.607 0.607-1.517-1.517 0.607-0.607 1.517 1.517zM10.429 4.965l-0.607 0.607-1.518-1.518 0.607-0.607 1.518 1.518zM12.858 4.965l-0.608 0.607-2.731-2.732 0.607-0.608 2.732 2.733zM12.857 2.537l-0.607 0.607-1.517-1.518 0.607-0.606 1.517 1.518z"></path>
</svg>
