<?xml version="1.0" encoding="utf-8"?>
<!-- Generated by IcoMoon.io -->
<!DOCTYPE svg PUBLIC "-//W3C//DTD SVG 1.1//EN" "http://www.w3.org/Graphics/SVG/1.1/DTD/svg11.dtd">
<svg version="1.1" xmlns="http://www.w3.org/2000/svg" xmlns:xlink="http://www.w3.org/1999/xlink" width="16" height="16" viewBox="0 0 16 16">
<path d="M11.344 1.344l2 2-2 2v-1.344h-5.344v-1.344h5.344v-1.313zM12 9.344v-2h-2.656v2h2.656zM7.344 13.344c0.375 0 0.656-0.313 0.656-0.688s-0.281-0.656-0.656-0.656-0.688 0.281-0.688 0.656 0.313 0.688 0.688 0.688zM13.344 11.344h1.313v1.313h-5.313c0 1.094-0.906 2-2 2s-2-0.906-2-2h-1.344c-0.719 0-1.344-0.594-1.344-1.313v-2h4.688v-2h-2.688v1.313l-2-2 2-2v1.344h7.344c0.719 0 1.344 0.625 1.344 1.344v4z"></path>
</svg>
