<?xml version="1.0" encoding="utf-8"?>
<!-- Generated by IcoMoon.io -->
<!DOCTYPE svg PUBLIC "-//W3C//DTD SVG 1.1//EN" "http://www.w3.org/Graphics/SVG/1.1/DTD/svg11.dtd">
<svg version="1.1" xmlns="http://www.w3.org/2000/svg" xmlns:xlink="http://www.w3.org/1999/xlink" width="16" height="16" viewBox="0 0 16 16">
<path d="M6.704 4.472c0-1.63-1.322-2.952-2.952-2.952s-2.952 1.322-2.952 2.952c0 1.63 1.322 2.952 2.952 2.952 0.768 0 1.461-0.301 1.986-0.781l1.462 1.35 0.010 0.007-0.003 0.002-1.469 1.354c-0.525-0.48-1.218-0.781-1.986-0.781-1.63 0-2.952 1.322-2.952 2.952s1.322 2.952 2.952 2.952 2.952-1.322 2.952-2.952c0-0.238-0.035-0.466-0.089-0.686l2.275-1.593 3.302 2.452c1.77 1.239 3.008-0.53 3.008-0.53l-8.585-6.012c0.053-0.221 0.089-0.449 0.089-0.686zM3.752 5.912c-0.795 0-1.44-0.645-1.44-1.44s0.645-1.44 1.44-1.44 1.44 0.645 1.44 1.44-0.645 1.44-1.44 1.44zM3.752 12.968c-0.795 0-1.44-0.645-1.44-1.44s0.645-1.44 1.44-1.44 1.44 0.645 1.44 1.44-0.645 1.44-1.44 1.44zM15.2 4.83c0 0-1.238-1.77-3.008-0.53l-2.564 1.788 1.883 1.318 3.689-2.576z"></path>
</svg>
