<?xml version="1.0" encoding="utf-8"?>
<!-- Generated by IcoMoon.io -->
<!DOCTYPE svg PUBLIC "-//W3C//DTD SVG 1.1//EN" "http://www.w3.org/Graphics/SVG/1.1/DTD/svg11.dtd">
<svg version="1.1" xmlns="http://www.w3.org/2000/svg" xmlns:xlink="http://www.w3.org/1999/xlink" width="16" height="16" viewBox="0 0 16 16">
<path d="M11.188 1.656v0.344h2.281v-0.344c0-0.625-0.5-1.125-1.125-1.125s-1.156 0.5-1.156 1.125zM10.656 6c-0.375 0-0.656-0.281-0.656-0.656v-2.688c0-0.375 0.281-0.656 0.656-0.656v-0.344c0-0.906 0.781-1.656 1.688-1.656s1.656 0.75 1.656 1.656v0.344c0.375 0 0.656 0.281 0.656 0.656v2.688c0 0.375-0.281 0.656-0.656 0.656h-3.344zM5.656 13.656l0.875-0.875 2.531 2.531-0.438 0.031c-4.188 0-7.625-3.25-7.969-7.344h1c0.25 2.5 1.813 4.625 4 5.656zM15.5 8.5c0.406 0.375 0.406 1.031 0 1.438l-4.25 4.219c-0.375 0.406-1 0.406-1.406 0l-8-8c-0.406-0.375-0.406-1 0-1.406l4.219-4.25c0.375-0.406 1.031-0.406 1.438 0l1.625 1.625-0.938 0.938-1.406-1.375-3.781 3.75 7.563 7.563 3.75-3.781-1.469-1.469 0.938-0.938z"></path>
</svg>
