<?xml version="1.0" encoding="utf-8"?>
<!-- Generated by IcoMoon.io -->
<!DOCTYPE svg PUBLIC "-//W3C//DTD SVG 1.1//EN" "http://www.w3.org/Graphics/SVG/1.1/DTD/svg11.dtd">
<svg version="1.1" xmlns="http://www.w3.org/2000/svg" xmlns:xlink="http://www.w3.org/1999/xlink" width="16" height="16" viewBox="0 0 16 16">
<path d="M7.188 6.656v0.688h1.625v-0.688c0-0.438-0.375-0.781-0.813-0.781s-0.813 0.344-0.813 0.781zM6.656 10.656c-0.375 0-0.656-0.281-0.656-0.656v-2c0-0.375 0.281-0.656 0.656-0.656v-0.688c0-0.719 0.594-1.313 1.344-1.313 0.719 0 1.344 0.563 1.344 1.313v0.688c0.375 0 0.656 0.281 0.656 0.656v2c0 0.375-0.281 0.656-0.656 0.656h-2.688zM12.656 11.344v-6.688h-9.313v6.688h9.313zM14 3.344c0.719 0 1.344 0.594 1.344 1.313v6.688c0 0.719-0.625 1.313-1.344 1.313h-12c-0.719 0-1.344-0.594-1.344-1.313v-6.688c0-0.719 0.625-1.313 1.344-1.313h12z"></path>
</svg>
