<?xml version="1.0" encoding="utf-8"?>
<!-- Generated by IcoMoon.io -->
<!DOCTYPE svg PUBLIC "-//W3C//DTD SVG 1.1//EN" "http://www.w3.org/Graphics/SVG/1.1/DTD/svg11.dtd">
<svg version="1.1" xmlns="http://www.w3.org/2000/svg" xmlns:xlink="http://www.w3.org/1999/xlink" width="16" height="16" viewBox="0 0 16 16">
<path d="M3.714 14.627c0 0.179-0.058 0.394-0.118 0.573h4.59c0.262-0.302 0.41-0.665 0.41-1.074 0-1.108-1.315-1.723-4.193-3.074l-0.405-0.189c-1.418-0.674-2.469-1.268-3.198-1.975v3.518c0.141-0.019 0.287-0.034 0.446-0.034 2.401 0.001 2.468 2.231 2.468 2.254zM13.6 0.8h-2.99c1.398 0.942 1.974 2.274 1.974 3.314 0 1.755-1.469 2.324-2.182 2.324l-0.217 0.002c-1.637 0-2.472-0.998-2.483-2.966-0.097-0.077-0.55-0.362-1.878-0.362-1.568 0-2.218 1.234-2.218 1.895 0 0.778 0.434 1.644 3.587 2.706 5.389 1.803 5.389 4.204 5.389 6.322v0.021c0 0.35-0.025 0.739-0.094 1.145h1.112c0.88 0 1.6-0.719 1.6-1.6v-11.2c0-0.88-0.72-1.6-1.6-1.6z"></path>
</svg>
