<?xml version="1.0" encoding="utf-8"?>
<!-- Generated by IcoMoon.io -->
<!DOCTYPE svg PUBLIC "-//W3C//DTD SVG 1.1//EN" "http://www.w3.org/Graphics/SVG/1.1/DTD/svg11.dtd">
<svg version="1.1" xmlns="http://www.w3.org/2000/svg" xmlns:xlink="http://www.w3.org/1999/xlink" width="16" height="16" viewBox="0 0 16 16">
<path d="M8 11.656c-1.563 0-2.875-0.938-3.406-2.313h6.813c-0.531 1.375-1.844 2.313-3.406 2.313zM5.906 6.625l-0.688 0.719-0.719-0.719 1.406-1.406 1.438 1.406-0.719 0.719zM8.656 6.625l1.438-1.406 1.406 1.406-0.719 0.719-0.688-0.719-0.719 0.719zM8 13.344c2.938 0 5.344-2.406 5.344-5.344s-2.406-5.344-5.344-5.344-5.344 2.406-5.344 5.344 2.406 5.344 5.344 5.344zM8 1.344c3.688 0 6.656 2.969 6.656 6.656s-2.969 6.656-6.656 6.656-6.656-2.969-6.656-6.656 2.969-6.656 6.656-6.656z"></path>
</svg>
