<?xml version="1.0" encoding="utf-8"?>
<!-- Generated by IcoMoon.io -->
<!DOCTYPE svg PUBLIC "-//W3C//DTD SVG 1.1//EN" "http://www.w3.org/Graphics/SVG/1.1/DTD/svg11.dtd">
<svg version="1.1" xmlns="http://www.w3.org/2000/svg" xmlns:xlink="http://www.w3.org/1999/xlink" width="16" height="16" viewBox="0 0 16 16">
<path d="M8 2c3.313 0 6 2.688 6 6s-2.688 6-6 6c-1.375 0-2.656-0.469-3.656-1.25l0.938-0.938c0.781 0.531 1.719 0.844 2.719 0.844 2.594 0 4.656-2.063 4.656-4.656s-2.063-4.656-4.656-4.656-4.656 2.063-4.656 4.656h2l-2.688 2.656-2.656-2.656h2c0-3.313 2.688-6 6-6zM9.344 8c0 0.719-0.625 1.344-1.344 1.344s-1.344-0.625-1.344-1.344 0.625-1.344 1.344-1.344 1.344 0.625 1.344 1.344z"></path>
</svg>
