<?xml version="1.0" encoding="utf-8"?>
<!-- Generated by IcoMoon.io -->
<!DOCTYPE svg PUBLIC "-//W3C//DTD SVG 1.1//EN" "http://www.w3.org/Graphics/SVG/1.1/DTD/svg11.dtd">
<svg version="1.1" xmlns="http://www.w3.org/2000/svg" xmlns:xlink="http://www.w3.org/1999/xlink" width="16" height="16" viewBox="0 0 16 16">
<path d="M8 10.344c1.281 0 2.344-1.063 2.344-2.344s-1.063-2.344-2.344-2.344-2.344 1.063-2.344 2.344 1.063 2.344 2.344 2.344zM12.969 8.656l1.406 1.094c0.125 0.094 0.156 0.281 0.063 0.438l-1.344 2.313c-0.094 0.156-0.25 0.188-0.406 0.125l-1.656-0.656c-0.344 0.25-0.719 0.5-1.125 0.656l-0.25 1.75c-0.031 0.156-0.156 0.281-0.313 0.281h-2.688c-0.156 0-0.281-0.125-0.313-0.281l-0.25-1.75c-0.406-0.156-0.781-0.375-1.125-0.656l-1.656 0.656c-0.156 0.063-0.313 0.031-0.406-0.125l-1.344-2.313c-0.094-0.156-0.063-0.344 0.063-0.438l1.406-1.094c-0.031-0.219-0.031-0.438-0.031-0.656s0-0.438 0.031-0.656l-1.406-1.094c-0.125-0.094-0.156-0.281-0.063-0.438l1.344-2.313c0.094-0.156 0.25-0.188 0.406-0.125l1.656 0.656c0.344-0.25 0.719-0.5 1.125-0.656l0.25-1.75c0.031-0.156 0.156-0.281 0.313-0.281h2.688c0.156 0 0.281 0.125 0.313 0.281l0.25 1.75c0.406 0.156 0.781 0.375 1.125 0.656l1.656-0.656c0.156-0.063 0.313-0.031 0.406 0.125l1.344 2.313c0.094 0.156 0.063 0.344-0.063 0.438l-1.406 1.094c0.031 0.219 0.031 0.438 0.031 0.656s0 0.438-0.031 0.656z"></path>
</svg>
