<?xml version="1.0" encoding="utf-8"?>
<!-- Generated by IcoMoon.io -->
<!DOCTYPE svg PUBLIC "-//W3C//DTD SVG 1.1//EN" "http://www.w3.org/Graphics/SVG/1.1/DTD/svg11.dtd">
<svg version="1.1" xmlns="http://www.w3.org/2000/svg" xmlns:xlink="http://www.w3.org/1999/xlink" width="16" height="16" viewBox="0 0 16 16">
<path d="M6.665 5.665c1.359 0 2.468 1.021 2.633 2.335h2.344c-0.022-0.315-0.065-0.623-0.141-0.919l1.894-1.093-1.334-2.311-1.891 1.092c-0.597-0.587-1.34-1.021-2.17-1.251v-2.185h-2.668v2.185c-0.83 0.229-1.574 0.664-2.171 1.251l-1.891-1.091-1.334 2.311 1.893 1.093c-0.103 0.401-0.165 0.819-0.165 1.252s0.061 0.851 0.165 1.252l-1.893 1.093 1.334 2.31 1.89-1.091c0.597 0.587 1.341 1.021 2.171 1.251v2.185h2.668v-4.703c-0.394 0.229-0.846 0.371-1.335 0.371-1.473 0-2.667-1.194-2.667-2.667s1.194-2.667 2.667-2.667zM15.332 12c0-0.247-0.044-0.481-0.107-0.708l1.238-0.715-0.666-1.153-1.229 0.709c-0.334-0.34-0.76-0.583-1.235-0.707v-1.426h-1.332v1.426c-0.477 0.123-0.903 0.366-1.237 0.707l-1.227-0.709-0.666 1.153 1.235 0.713c-0.063 0.228-0.108 0.463-0.108 0.71s0.045 0.483 0.108 0.71l-1.235 0.713 0.666 1.153 1.227-0.709c0.335 0.341 0.761 0.584 1.237 0.707v1.426h1.332v-1.427c0.475-0.124 0.901-0.367 1.235-0.707l1.23 0.71 0.666-1.153-1.238-0.715c0.063-0.227 0.107-0.461 0.107-0.708zM12.664 13.332c-0.736 0-1.332-0.597-1.332-1.332s0.597-1.332 1.332-1.332 1.332 0.597 1.332 1.332-0.596 1.332-1.332 1.332z"></path>
</svg>
