<?xml version="1.0" encoding="utf-8"?>
<!-- Generated by IcoMoon.io -->
<!DOCTYPE svg PUBLIC "-//W3C//DTD SVG 1.1//EN" "http://www.w3.org/Graphics/SVG/1.1/DTD/svg11.dtd">
<svg version="1.1" xmlns="http://www.w3.org/2000/svg" xmlns:xlink="http://www.w3.org/1999/xlink" width="16" height="16" viewBox="0 0 16 16">
<path d="M11.344 10.656v-1.313h4v1.313c0 0.875-0.563 1.594-1.344 1.875v2.813h-1.344v-2.813c-0.781-0.281-1.313-1-1.313-1.875zM8.656 1.344v2.656h1.344v4h-4v-4h1.344v-2.656c0-0.375 0.281-0.688 0.656-0.688s0.656 0.313 0.656 0.688zM14 4h1.344v4h-4v-4h1.313v-2.656c0-0.375 0.313-0.688 0.688-0.688s0.656 0.313 0.656 0.688v2.656zM0.656 10.656v-1.313h4v1.313c0 0.875-0.531 1.594-1.313 1.875v2.813h-1.344v-2.813c-0.781-0.281-1.344-1-1.344-1.875zM6 10.656v-1.313h4v1.313c0 0.875-0.563 1.594-1.344 1.875v2.813h-1.313v-2.813c-0.781-0.281-1.344-1-1.344-1.875zM3.344 1.344v2.656h1.313v4h-4v-4h1.344v-2.656c0-0.375 0.281-0.688 0.656-0.688s0.688 0.313 0.688 0.688z"></path>
</svg>
