<?xml version="1.0" encoding="utf-8"?>
<!-- Generated by IcoMoon.io -->
<!DOCTYPE svg PUBLIC "-//W3C//DTD SVG 1.1//EN" "http://www.w3.org/Graphics/SVG/1.1/DTD/svg11.dtd">
<svg version="1.1" xmlns="http://www.w3.org/2000/svg" xmlns:xlink="http://www.w3.org/1999/xlink" width="16" height="16" viewBox="0 0 16 16">
<path d="M10 16v-1.344h1.344v1.344h-1.344zM11.031 2.969c1.375 0.969 2.313 2.563 2.313 4.375 0 2.938-2.406 5.313-5.344 5.313s-5.344-2.375-5.344-5.313c0-1.813 0.938-3.406 2.313-4.375l0.938 0.938c-1.156 0.719-1.906 2-1.906 3.438 0 2.219 1.781 4 4 4s4-1.781 4-4c0-1.438-0.781-2.719-1.938-3.406zM8.656 1.344v6.656h-1.313v-6.656h1.313zM7.344 16v-1.344h1.313v1.344h-1.313zM4.656 16v-1.344h1.344v1.344h-1.344z"></path>
</svg>
