<?xml version="1.0" encoding="utf-8"?>
<!-- Generated by IcoMoon.io -->
<!DOCTYPE svg PUBLIC "-//W3C//DTD SVG 1.1//EN" "http://www.w3.org/Graphics/SVG/1.1/DTD/svg11.dtd">
<svg version="1.1" xmlns="http://www.w3.org/2000/svg" xmlns:xlink="http://www.w3.org/1999/xlink" width="16" height="16" viewBox="0 0 16 16">
<path d="M14 12.688v-9.375h-12v9.375h12zM14 2c0.719 0 1.344 0.625 1.344 1.344v9.313c0 0.719-0.625 1.344-1.344 1.344h-12c-0.719 0-1.344-0.625-1.344-1.344v-9.313c0-0.719 0.625-1.344 1.344-1.344h12zM9.344 10.656l-1.344 1.688-1.344-1.688h2.688zM4 6.656v2.688l-1.656-1.344zM12 6.656l1.656 1.344-1.656 1.344v-2.688zM8 3.656l1.344 1.688h-2.688z"></path>
</svg>
