<?xml version="1.0" encoding="utf-8"?>
<!-- Generated by IcoMoon.io -->
<!DOCTYPE svg PUBLIC "-//W3C//DTD SVG 1.1//EN" "http://www.w3.org/Graphics/SVG/1.1/DTD/svg11.dtd">
<svg version="1.1" xmlns="http://www.w3.org/2000/svg" xmlns:xlink="http://www.w3.org/1999/xlink" width="16" height="16" viewBox="0 0 16 16">
<path d="M8 0c2.031 0 3.875 0.813 5.188 2.156l-0.938 0.938c-1.094-1.094-2.594-1.75-4.25-1.75s-3.156 0.656-4.25 1.75l-0.938-0.938c1.313-1.313 3.156-2.156 5.188-2.156zM4.688 4.031c0.844-0.844 2.031-1.375 3.313-1.375s2.469 0.531 3.313 1.375l-0.938 0.938c-0.594-0.594-1.469-0.969-2.375-0.969s-1.781 0.375-2.375 0.969zM8 10c0.719 0 1.344-0.625 1.344-1.344s-0.625-1.313-1.344-1.313-1.344 0.594-1.344 1.313 0.625 1.344 1.344 1.344zM10 6c0.375 0 0.656 0.281 0.656 0.656v8c0 0.375-0.281 0.688-0.656 0.688h-4c-0.375 0-0.656-0.313-0.656-0.688v-8c0-0.375 0.281-0.656 0.656-0.656h4z"></path>
</svg>
