<?xml version="1.0" encoding="utf-8"?>
<!-- Generated by IcoMoon.io -->
<!DOCTYPE svg PUBLIC "-//W3C//DTD SVG 1.1//EN" "http://www.w3.org/Graphics/SVG/1.1/DTD/svg11.dtd">
<svg version="1.1" xmlns="http://www.w3.org/2000/svg" xmlns:xlink="http://www.w3.org/1999/xlink" width="16" height="16" viewBox="0 0 16 16">
<path d="M14 12.688v-9.375h-12v9.375h12zM14 2c0.719 0 1.344 0.625 1.344 1.344v9.313c0 0.719-0.625 1.344-1.344 1.344h-12c-0.719 0-1.344-0.625-1.344-1.344v-9.313c0-0.719 0.625-1.344 1.344-1.344h12zM6 10.656c-1.094 0-2-0.906-2-2 0-1.031 0.781-1.875 1.781-1.969h0.125c0.375-0.781 1.156-1.344 2.094-1.344 1.188 0 2.156 0.875 2.313 2h0.031c0.906 0 1.656 0.75 1.656 1.656s-0.75 1.656-1.656 1.656h-4.344z"></path>
</svg>
