<?xml version="1.0" encoding="utf-8"?>
<!-- Generated by IcoMoon.io -->
<!DOCTYPE svg PUBLIC "-//W3C//DTD SVG 1.1//EN" "http://www.w3.org/Graphics/SVG/1.1/DTD/svg11.dtd">
<svg version="1.1" xmlns="http://www.w3.org/2000/svg" xmlns:xlink="http://www.w3.org/1999/xlink" width="16" height="16" viewBox="0 0 16 16">
<path d="M11.5 8c0-0.156 0-0.313-0.031-0.469l1-0.75c0.094-0.063 0.094-0.219 0.031-0.313l-0.938-1.625c-0.063-0.094-0.188-0.125-0.281-0.094l-1.156 0.469c-0.25-0.188-0.5-0.344-0.781-0.469l-0.188-1.219c-0.031-0.094-0.094-0.188-0.219-0.188h-1.875c-0.125 0-0.188 0.063-0.219 0.188l-0.188 1.25c-0.281 0.125-0.531 0.25-0.781 0.438l-1.156-0.469c-0.094-0.031-0.219 0.031-0.281 0.125l-0.938 1.594c-0.063 0.094-0.063 0.25 0.031 0.313l1 0.75c-0.031 0.156-0.031 0.313-0.031 0.469s0 0.313 0.031 0.469l-1 0.75c-0.094 0.063-0.094 0.219-0.031 0.313l0.938 1.625c0.063 0.094 0.188 0.125 0.281 0.094l1.156-0.469c0.25 0.188 0.5 0.344 0.781 0.469l0.188 1.219c0.031 0.094 0.094 0.188 0.219 0.188h1.875c0.125 0 0.188-0.063 0.219-0.188l0.188-1.25c0.281-0.125 0.531-0.25 0.781-0.438l1.156 0.469c0.094 0.031 0.219-0.031 0.281-0.125l0.938-1.594c0.063-0.094 0.063-0.25-0.031-0.313l-1-0.75c0.031-0.156 0.031-0.313 0.031-0.469zM12.656 2c0.75 0 1.344 0.625 1.344 1.344v9.313c0 0.719-0.594 1.344-1.344 1.344h-9.313c-0.75 0-1.344-0.625-1.344-1.344v-9.313c0-0.719 0.594-1.344 1.344-1.344h9.313zM8 6.656c0.719 0 1.344 0.625 1.344 1.344s-0.625 1.344-1.344 1.344-1.344-0.625-1.344-1.344 0.625-1.344 1.344-1.344z"></path>
</svg>
