<?xml version="1.0" encoding="utf-8"?>
<!-- Generated by IcoMoon.io -->
<!DOCTYPE svg PUBLIC "-//W3C//DTD SVG 1.1//EN" "http://www.w3.org/Graphics/SVG/1.1/DTD/svg11.dtd">
<svg version="1.1" xmlns="http://www.w3.org/2000/svg" xmlns:xlink="http://www.w3.org/1999/xlink" width="16" height="16" viewBox="0 0 16 16">
<path d="M10.344 10c0.563 0 1 0.438 1 1s-0.438 1-1 1-1-0.438-1-1 0.438-1 1-1zM11.656 6.656c0.563 0 1 0.438 1 1s-0.438 1-1 1-1-0.438-1-1 0.438-1 1-1zM8 14c3.313 0 6-2.688 6-6s-2.688-6-6-6-6 2.688-6 6 2.688 6 6 6zM8 0.656c4.031 0 7.344 3.313 7.344 7.344s-3.313 7.344-7.344 7.344-7.344-3.313-7.344-7.344 3.313-7.344 7.344-7.344zM5.656 10c0.563 0 1 0.438 1 1s-0.438 1-1 1-1-0.438-1-1 0.438-1 1-1zM10 4.344c0 0.563-0.438 1-1 1h-2c-0.563 0-1-0.438-1-1s0.438-1 1-1h2c0.563 0 1 0.438 1 1zM5.344 7.656c0 0.563-0.438 1-1 1s-1-0.438-1-1 0.438-1 1-1 1 0.438 1 1z"></path>
</svg>
