<?xml version="1.0" encoding="utf-8"?>
<!-- Generated by IcoMoon.io -->
<!DOCTYPE svg PUBLIC "-//W3C//DTD SVG 1.1//EN" "http://www.w3.org/Graphics/SVG/1.1/DTD/svg11.dtd">
<svg version="1.1" xmlns="http://www.w3.org/2000/svg" xmlns:xlink="http://www.w3.org/1999/xlink" width="16" height="16" viewBox="0 0 16 16">
<path d="M12.656 6.656c0 2.281-1.813 4.188-4 4.5v2.188h-1.313v-2.188c-2.188-0.313-4-2.219-4-4.5h1.125c0 2 1.688 3.406 3.531 3.406s3.531-1.406 3.531-3.406h1.125zM10 16v-1.344h1.344v1.344h-1.344zM7.344 16v-1.344h1.313v1.344h-1.313zM8 8.656c-1.094 0-2-0.906-2-2v-4c0-1.094 0.906-2 2-2s2 0.906 2 2v4c0 1.094-0.906 2-2 2zM4.656 16v-1.344h1.344v1.344h-1.344z"></path>
</svg>
