<?xml version="1.0" encoding="utf-8"?>
<!-- Generated by IcoMoon.io -->
<!DOCTYPE svg PUBLIC "-//W3C//DTD SVG 1.1//EN" "http://www.w3.org/Graphics/SVG/1.1/DTD/svg11.dtd">
<svg version="1.1" xmlns="http://www.w3.org/2000/svg" xmlns:xlink="http://www.w3.org/1999/xlink" width="16" height="16" viewBox="0 0 16 16">
<path d="M13.333 10.667c-0.8 0-1.511 0.361-2 0.921l-4.883-2.441c0.133-0.359 0.216-0.742 0.216-1.147s-0.083-0.788-0.216-1.147l4.883-2.441c0.489 0.56 1.2 0.921 2 0.921 1.471 0 2.667-1.197 2.667-2.667s-1.196-2.667-2.667-2.667-2.667 1.197-2.667 2.667c0 0.191 0.022 0.377 0.061 0.557l-4.98 2.49c0.002 0.002 0.003 0.005 0.005 0.006-0.608-0.645-1.464-1.053-2.419-1.053-1.838 0-3.333 1.495-3.333 3.333s1.495 3.333 3.333 3.333c0.955 0 1.811-0.409 2.419-1.053-0.002 0.001-0.003 0.004-0.005 0.006l4.98 2.49c-0.039 0.18-0.061 0.366-0.061 0.557 0 1.47 1.196 2.667 2.667 2.667s2.667-1.197 2.667-2.667-1.196-2.667-2.667-2.667zM13.333 1.333c0.735 0 1.333 0.597 1.333 1.333s-0.598 1.333-1.333 1.333-1.333-0.597-1.333-1.333 0.598-1.333 1.333-1.333zM3.333 10c-1.103 0-2-0.897-2-2s0.897-2 2-2 2 0.897 2 2-0.897 2-2 2zM13.333 14.667c-0.735 0-1.333-0.597-1.333-1.333s0.598-1.333 1.333-1.333 1.333 0.597 1.333 1.333-0.598 1.333-1.333 1.333z"></path>
</svg>
