<?xml version="1.0" encoding="utf-8"?>
<!-- Generated by IcoMoon.io -->
<!DOCTYPE svg PUBLIC "-//W3C//DTD SVG 1.1//EN" "http://www.w3.org/Graphics/SVG/1.1/DTD/svg11.dtd">
<svg version="1.1" xmlns="http://www.w3.org/2000/svg" xmlns:xlink="http://www.w3.org/1999/xlink" width="16" height="16" viewBox="0 0 16 16">
<path d="M12 10.754c-0.506 0-0.963 0.197-1.31 0.514l-4.75-2.77c0.037-0.15 0.060-0.307 0.060-0.467s-0.023-0.316-0.060-0.466l4.7-2.743c0.357 0.334 0.834 0.54 1.36 0.54 1.103 0 2-0.897 2-2s-0.897-2-2-2-2 0.897-2 2c0 0.16 0.023 0.317 0.060 0.466l-4.7 2.743c-0.357-0.333-0.834-0.54-1.36-0.54-1.103 0-2 0.897-2 2s0.897 2 2 2c0.526 0 1.003-0.206 1.36-0.54l4.75 2.77c-0.034 0.14-0.054 0.286-0.054 0.437 0 1.074 0.87 1.943 1.943 1.943s1.943-0.87 1.943-1.943-0.87-1.943-1.943-1.943z"></path>
</svg>
