<?xml version="1.0" encoding="utf-8"?>
<!-- Generated by IcoMoon.io -->
<!DOCTYPE svg PUBLIC "-//W3C//DTD SVG 1.1//EN" "http://www.w3.org/Graphics/SVG/1.1/DTD/svg11.dtd">
<svg version="1.1" xmlns="http://www.w3.org/2000/svg" xmlns:xlink="http://www.w3.org/1999/xlink" width="16" height="16" viewBox="0 0 16 16">
<path d="M12 10.719c1.063 0 1.938 0.875 1.938 1.938s-0.875 1.969-1.938 1.969-1.938-0.906-1.938-1.969c0-0.156 0-0.313 0.031-0.438l-4.719-2.75c-0.375 0.344-0.844 0.531-1.375 0.531-1.094 0-2-0.906-2-2s0.906-2 2-2c0.531 0 1 0.188 1.375 0.531l4.688-2.719c-0.031-0.156-0.063-0.313-0.063-0.469 0-1.094 0.906-2 2-2s2 0.906 2 2-0.906 2-2 2c-0.531 0-1-0.219-1.375-0.563l-4.688 2.75c0.031 0.156 0.063 0.313 0.063 0.469s-0.031 0.313-0.063 0.469l4.75 2.75c0.344-0.313 0.813-0.5 1.313-0.5z"></path>
</svg>
