<?xml version="1.0" encoding="utf-8"?>
<!-- Generated by IcoMoon.io -->
<!DOCTYPE svg PUBLIC "-//W3C//DTD SVG 1.1//EN" "http://www.w3.org/Graphics/SVG/1.1/DTD/svg11.dtd">
<svg version="1.1" xmlns="http://www.w3.org/2000/svg" xmlns:xlink="http://www.w3.org/1999/xlink" width="16" height="16" viewBox="0 0 16 16">
<path d="M5.44 8c0 1.414 1.146 2.561 2.56 2.561s2.559-1.146 2.559-2.561c0-1.414-1.145-2.56-2.559-2.56s-2.56 1.146-2.56 2.56zM3.623 7.040c0.439-2.013 2.231-3.52 4.377-3.52 1.237 0 2.356 0.502 3.167 1.312 0.375 0.375 0.983 0.375 1.358 0s0.375-0.983 0-1.358c-1.158-1.158-2.758-1.874-4.525-1.874-2.866 0-5.291 1.883-6.106 4.481h-1.894v1.919h2.559c0.799 0 0.996-0.65 1.064-0.96zM13.44 8c-0.799 0-0.996 0.651-1.063 0.959-0.439 2.013-2.231 3.52-4.377 3.52-1.238 0-2.357-0.502-3.167-1.313-0.375-0.375-0.983-0.375-1.358 0s-0.374 0.983 0 1.358c1.158 1.159 2.758 1.876 4.526 1.876 2.866 0 5.29-1.885 6.106-4.48h1.894v-1.92h-2.56z"></path>
</svg>
