<?xml version="1.0" encoding="utf-8"?>
<!-- Generated by IcoMoon.io -->
<!DOCTYPE svg PUBLIC "-//W3C//DTD SVG 1.1//EN" "http://www.w3.org/Graphics/SVG/1.1/DTD/svg11.dtd">
<svg version="1.1" xmlns="http://www.w3.org/2000/svg" xmlns:xlink="http://www.w3.org/1999/xlink" width="16" height="16" viewBox="0 0 16 16">
<path d="M10.4 13.6c0 0.883 0.715 1.6 1.6 1.6 0.883 0 1.6-0.717 1.6-1.6 0-0.885-0.717-1.6-1.6-1.6-0.885 0-1.6 0.715-1.6 1.6zM2.4 13.6c0 0.883 0.716 1.6 1.6 1.6 0.882 0 1.6-0.717 1.6-1.6 0-0.885-0.718-1.6-1.6-1.6-0.884 0-1.6 0.715-1.6 1.6zM5.238 9.738l8.854-2.53c0.169-0.049 0.308-0.231 0.308-0.408v-4.4h-11.2v-1.28c0-0.176-0.145-0.32-0.319-0.32h-2.562c-0.175 0-0.319 0.144-0.319 0.32v1.28h1.6l1.528 7.166 0.072 0.754v1.319c0 0.175 0.144 0.32 0.32 0.32h10.56c0.176 0 0.32-0.146 0.32-0.32v-1.239h-8.998c-0.92 0-0.939-0.441-0.164-0.662z"></path>
</svg>
