<?xml version="1.0" encoding="utf-8"?>
<!-- Generated by IcoMoon.io -->
<!DOCTYPE svg PUBLIC "-//W3C//DTD SVG 1.1//EN" "http://www.w3.org/Graphics/SVG/1.1/DTD/svg11.dtd">
<svg version="1.1" xmlns="http://www.w3.org/2000/svg" xmlns:xlink="http://www.w3.org/1999/xlink" width="16" height="16" viewBox="0 0 16 16">
<path d="M8 11.344c0.719 0 1.344-0.625 1.344-1.344s-0.625-1.344-1.344-1.344-1.344 0.625-1.344 1.344 0.625 1.344 1.344 1.344zM6 6h4l-2-2.938zM11.469 6h3.188c0.375 0 0.688 0.281 0.688 0.656-0.541 2.157-1.152 4.244-1.719 6.375-0.156 0.563-0.656 0.969-1.281 0.969h-8.688c-0.625 0-1.125-0.406-1.281-0.969l-1.688-6.188c-0.031-0.063-0.031-0.125-0.031-0.188 0-0.375 0.313-0.656 0.688-0.656h3.188l2.906-4.375c0.125-0.188 0.344-0.281 0.563-0.281s0.438 0.094 0.563 0.281z"></path>
</svg>
