<?xml version="1.0" encoding="utf-8"?>
<!-- Generated by IcoMoon.io -->
<!DOCTYPE svg PUBLIC "-//W3C//DTD SVG 1.1//EN" "http://www.w3.org/Graphics/SVG/1.1/DTD/svg11.dtd">
<svg version="1.1" xmlns="http://www.w3.org/2000/svg" xmlns:xlink="http://www.w3.org/1999/xlink" width="16" height="16" viewBox="0 0 16 16">
<path d="M11.344 12c0.719 0 1.313 0.625 1.313 1.344s-0.594 1.313-1.313 1.313-1.344-0.594-1.344-1.313 0.625-1.344 1.344-1.344zM0.656 1.344h2.188l0.625 1.313h9.875c0.375 0 0.656 0.313 0.656 0.688 0 0.125-0.031 0.219-0.094 0.313l-2.375 4.313c-0.219 0.406-0.656 0.688-1.156 0.688h-4.969l-0.594 1.094-0.031 0.094c0 0.094 0.063 0.156 0.156 0.156h7.719v1.344h-8c-0.719 0-1.313-0.625-1.313-1.344 0-0.219 0.063-0.438 0.156-0.625l0.906-1.656-2.406-5.063h-1.344v-1.313zM4.656 12c0.719 0 1.344 0.625 1.344 1.344s-0.625 1.313-1.344 1.313-1.313-0.594-1.313-1.313 0.594-1.344 1.313-1.344z"></path>
</svg>
