<?xml version="1.0" encoding="utf-8"?>
<!-- Generated by IcoMoon.io -->
<!DOCTYPE svg PUBLIC "-//W3C//DTD SVG 1.1//EN" "http://www.w3.org/Graphics/SVG/1.1/DTD/svg11.dtd">
<svg version="1.1" xmlns="http://www.w3.org/2000/svg" xmlns:xlink="http://www.w3.org/1999/xlink" width="16" height="16" viewBox="0 0 16 16">
<path d="M14.497 2.617c-0.236-0.205-1.525-1.385-1.766-1.593-0.239-0.207-0.605-0.224-0.882-0.224h-7.699c-0.276 0-0.642 0.017-0.882 0.224s-1.53 1.389-1.766 1.593c-0.238 0.205-0.434 0.514-0.371 0.954 0.063 0.441 1.512 10.929 1.55 11.178s0.254 0.446 0.518 0.451h9.6c0.264-0.006 0.482-0.202 0.518-0.452s1.486-10.738 1.55-11.178c0.062-0.438-0.134-0.748-0.372-0.953zM8 9.578c-2.598 0-3.154-3.677-3.27-4.434h1.47c0.221 1.105 0.723 2.995 1.8 2.995s1.58-1.89 1.8-2.995h1.47c-0.116 0.758-0.672 4.434-3.27 4.434zM2.536 3.205l1.464-1.605h8l1.464 1.605h-10.928z"></path>
</svg>
