<?xml version="1.0" encoding="utf-8"?>
<!-- Generated by IcoMoon.io -->
<!DOCTYPE svg PUBLIC "-//W3C//DTD SVG 1.1//EN" "http://www.w3.org/Graphics/SVG/1.1/DTD/svg11.dtd">
<svg version="1.1" xmlns="http://www.w3.org/2000/svg" xmlns:xlink="http://www.w3.org/1999/xlink" width="16" height="16" viewBox="0 0 16 16">
<path d="M4.898 5.8l0.633-4.2h-3.291l-1.375 3.6c-0.042 0.128-0.065 0.261-0.065 0.4 0 0.883 0.92 1.6 2.057 1.6 1.048 0 1.914-0.611 2.042-1.4zM8 7.2c1.136 0 2.057-0.717 2.057-1.6 0-0.033-0.002-0.066-0.004-0.097l-0.407-3.903h-3.291l-0.408 3.9c-0.002 0.033-0.003 0.066-0.003 0.1 0 0.883 0.921 1.6 2.057 1.6zM12 8.037v3.163h-8v-3.158c-0.35 0.126-0.736 0.198-1.143 0.198-0.156 0-0.307-0.018-0.457-0.039v5.079c0 0.616 0.503 1.12 1.118 1.12h8.962c0.616 0 1.12-0.505 1.12-1.12v-5.078c-0.15 0.020-0.301 0.039-0.457 0.039-0.405-0.001-0.792-0.074-1.143-0.204zM15.136 5.2l-1.377-3.6h-3.29l0.632 4.194c0.123 0.792 0.99 1.406 2.042 1.406 1.136 0 2.057-0.717 2.057-1.6 0-0.139-0.022-0.272-0.064-0.4z"></path>
</svg>
