<?xml version="1.0" encoding="utf-8"?>
<!-- Generated by IcoMoon.io -->
<!DOCTYPE svg PUBLIC "-//W3C//DTD SVG 1.1//EN" "http://www.w3.org/Graphics/SVG/1.1/DTD/svg11.dtd">
<svg version="1.1" xmlns="http://www.w3.org/2000/svg" xmlns:xlink="http://www.w3.org/1999/xlink" width="16" height="16" viewBox="0 0 16 16">
<path d="M14.719 5.6h-4.006l-1.45 1.45c-0.362 0.362-0.845 0.562-1.357 0.562-0.514 0-0.995-0.2-1.358-0.562-0.362-0.362-0.562-0.843-0.562-1.356 0-0.031 0.008-0.062 0.009-0.093h-4.715c-0.266 0-0.48 0.214-0.48 0.48v1.92h14.4v-1.92c0-0.266-0.216-0.48-0.481-0.48zM8.614 6.399l4.044-4.044c0.188-0.187 0.19-0.49 0.002-0.679l-0.736-0.736c-0.187-0.187-0.491-0.186-0.68 0l-4.044 4.045c-0.39 0.39-0.39 1.024 0 1.414s1.023 0.39 1.414 0zM3.058 13.817c0.078 0.321 0.412 0.583 0.742 0.583h8.4c0.33 0 0.664-0.262 0.742-0.583l1.218-5.017h-12.32l1.218 5.017z"></path>
</svg>
