<?xml version="1.0" encoding="utf-8"?>
<!-- Generated by IcoMoon.io -->
<!DOCTYPE svg PUBLIC "-//W3C//DTD SVG 1.1//EN" "http://www.w3.org/Graphics/SVG/1.1/DTD/svg11.dtd">
<svg version="1.1" xmlns="http://www.w3.org/2000/svg" xmlns:xlink="http://www.w3.org/1999/xlink" width="16" height="16" viewBox="0 0 16 16">
<path d="M8 10l3.656-2.656-3.656-2v4.656zM8 2v1.344h2.656v-1.344h-2.656zM12 3.344h3.344v7.313c0 0.75-0.594 1.344-1.344 1.344h-9.344c-0.75 0-1.313-0.594-1.313-1.344v-7.313h3.313v-1.344c0-0.75 0.594-1.344 1.344-1.344h2.656c0.75 0 1.344 0.594 1.344 1.344v1.344zM2 6v7.344h10.656c0 0.75-0.563 1.313-1.313 1.313h-9.344c-0.75 0-1.344-0.563-1.344-1.313v-7.344h1.344z"></path>
</svg>
