<?xml version="1.0" encoding="utf-8"?>
<!-- Generated by IcoMoon.io -->
<!DOCTYPE svg PUBLIC "-//W3C//DTD SVG 1.1//EN" "http://www.w3.org/Graphics/SVG/1.1/DTD/svg11.dtd">
<svg version="1.1" xmlns="http://www.w3.org/2000/svg" xmlns:xlink="http://www.w3.org/1999/xlink" width="16" height="16" viewBox="0 0 16 16">
<path d="M0.667 2v11.333h6v1.333h8.667v-12.667h-14.667zM7.333 12h-5.333v-0.667h5.333v0.667zM14 13.333h-6v-0.667h6v0.667zM14 4h-0.667v0.667h0.667v7.333h-6v-4h-0.667v2.667h-5.333v-3.365c0.495-0.038 1.815-0.241 1.815-1.325l-1.815 1.21v-3.853h12v0.667zM13.815 7.31l-2-1.333c0 1.333 2 1.333 2 1.333zM12.667 4h-0.667v0.667h0.667v-0.667zM11.333 4h-0.667v0.667h0.667v-0.667zM10 4h-0.667v0.667h0.667v-0.667zM8.667 4h-0.667v0.667h0.667v-0.667zM7.333 4h-0.667v0.667h0.667v-0.667zM6 4h-0.667v0.667h0.667v-0.667zM4.667 4h-0.667v0.667h0.667v-0.667zM3.333 4h-0.667v0.667h0.667v-0.667z"></path>
</svg>
