<?xml version="1.0" encoding="utf-8"?>
<!-- Generated by IcoMoon.io -->
<!DOCTYPE svg PUBLIC "-//W3C//DTD SVG 1.1//EN" "http://www.w3.org/Graphics/SVG/1.1/DTD/svg11.dtd">
<svg version="1.1" xmlns="http://www.w3.org/2000/svg" xmlns:xlink="http://www.w3.org/1999/xlink" width="16" height="16" viewBox="0 0 16 16">
<path d="M12.074 5.355h0.736v2.29l3.19-3.219-3.19-3.22v1.91h-0.736c-2.955 0-4.621 2.19-6.091 4.122-1.322 1.738-2.464 3.239-4.309 3.239h-1.674v2.239h1.674c2.955 0 4.621-2.189 6.091-4.122 1.322-1.738 2.464-3.238 4.309-3.238zM4.328 6.766c0.126-0.162 0.253-0.33 0.382-0.498 0.312-0.411 0.643-0.844 1.002-1.277-1.058-0.987-2.332-1.715-4.037-1.715h-1.674v2.239h1.674c1.062 0 1.89 0.498 2.654 1.251zM12.81 10.635h-0.736c-1.126 0-1.99-0.561-2.793-1.39-0.080 0.105-0.161 0.211-0.242 0.318-0.353 0.464-0.732 0.961-1.151 1.454 1.085 1.059 2.4 1.859 4.186 1.859h0.736v1.918l3.191-3.22-3.19-3.22v2.281z"></path>
</svg>
