<?xml version="1.0" encoding="utf-8"?>
<!-- Generated by IcoMoon.io -->
<!DOCTYPE svg PUBLIC "-//W3C//DTD SVG 1.1//EN" "http://www.w3.org/Graphics/SVG/1.1/DTD/svg11.dtd">
<svg version="1.1" xmlns="http://www.w3.org/2000/svg" xmlns:xlink="http://www.w3.org/1999/xlink" width="16" height="16" viewBox="0 0 16 16">
<path d="M8 11.2c-0.875 0-1.585 0.715-1.585 1.6 0 0.883 0.71 1.6 1.585 1.6s1.584-0.717 1.584-1.6c0-0.884-0.709-1.6-1.584-1.6zM4.64 9.406l1.12 1.131c1.237-1.25 3.243-1.25 4.481 0l1.119-1.131c-1.855-1.874-4.865-1.874-6.72 0zM2.4 7.142l1.12 1.131c2.474-2.498 6.485-2.498 8.959 0l1.121-1.131c-3.092-3.123-8.108-3.123-11.2 0zM0.159 4.88l1.12 1.131c3.711-3.749 9.729-3.749 13.441 0l1.12-1.131c-4.33-4.374-11.35-4.374-15.681 0z"></path>
</svg>
