<?xml version="1.0" encoding="utf-8"?>
<!-- Generated by IcoMoon.io -->
<!DOCTYPE svg PUBLIC "-//W3C//DTD SVG 1.1//EN" "http://www.w3.org/Graphics/SVG/1.1/DTD/svg11.dtd">
<svg version="1.1" xmlns="http://www.w3.org/2000/svg" xmlns:xlink="http://www.w3.org/1999/xlink" width="16" height="16" viewBox="0 0 16 16">
<path d="M10.344 9.656v1.75l-2.344 2.938-7.719-9.688c0.281-0.188 3.25-2.656 7.719-2.656s7.438 2.469 7.719 2.656l-1.375 1.75c-0.188-0.063-0.406-0.063-0.688-0.063-1.875 0-3.313 1.438-3.313 3.313zM14.656 10.656v-1c0-0.531-0.469-1-1-1s-1 0.469-1 1v1h2zM15.344 10.656c0.344 0 0.656 0.344 0.656 0.688v2.656c0 0.344-0.313 0.656-0.656 0.656h-3.344c-0.344 0-0.656-0.313-0.656-0.656v-2.656c0-0.344 0.313-0.688 0.656-0.688v-1c0-0.938 0.719-1.656 1.656-1.656s1.688 0.719 1.688 1.656v1z"></path>
</svg>
