<?xml version="1.0" encoding="utf-8"?>
<!-- Generated by IcoMoon.io -->
<!DOCTYPE svg PUBLIC "-//W3C//DTD SVG 1.1//EN" "http://www.w3.org/Graphics/SVG/1.1/DTD/svg11.dtd">
<svg version="1.1" xmlns="http://www.w3.org/2000/svg" xmlns:xlink="http://www.w3.org/1999/xlink" width="16" height="16" viewBox="0 0 16 16">
<path d="M11.344 10v-2.656h-1.344v2.656h1.344zM8.656 8.656v-1.313h-1.313v1.313h1.313zM8.656 12.656v-2.656h-1.313v2.656h1.313zM6 10v-2.656h-1.344v2.656h1.344zM11.344 12.656v-1.313h-1.344v1.313h1.344zM6 12.656v-1.313h-1.344v1.313h1.344zM13.313 2.656l0.031 10.688c0 0.719-0.625 1.313-1.344 1.313h-8c-0.719 0-1.344-0.594-1.344-1.313v-8l4-4h5.344c0.719 0 1.313 0.594 1.313 1.313z"></path>
</svg>
