<?xml version="1.0" encoding="utf-8"?>
<!-- Generated by IcoMoon.io -->
<!DOCTYPE svg PUBLIC "-//W3C//DTD SVG 1.1//EN" "http://www.w3.org/Graphics/SVG/1.1/DTD/svg11.dtd">
<svg version="1.1" xmlns="http://www.w3.org/2000/svg" xmlns:xlink="http://www.w3.org/1999/xlink" width="16" height="16" viewBox="0 0 16 16">
<path d="M11.75 8.054c-0.219-0.067-0.37-0.114-0.255-0.406 0.249-0.638 0.275-1.187 0.006-1.58-0.506-0.736-1.891-0.697-3.478-0.020 0-0.002-0.498 0.222-0.371-0.182 0.245-0.798 0.207-1.466-0.173-1.852-0.861-0.878-3.15 0.033-5.114 2.031-1.471 1.497-2.325 3.082-2.325 4.454 0 2.625 3.306 4.38 6.54 4.38 4.239 0 7.060-2.667 7.060-4.658 0-1.204-0.995-1.886-1.89-2.168zM6.589 13.703c-2.58 0.256-4.809-0.918-4.976-2.62s1.789-3.292 4.37-3.55c2.581-0.256 4.809 0.917 4.976 2.62 0.167 1.705-1.789 3.294-4.37 3.55zM15.96 5.918c-0.001-2.65-2.149-4.797-4.8-4.797-0.31 0-0.559 0.25-0.559 0.559s0.25 0.559 0.559 0.559c2.033 0 3.681 1.649 3.681 3.682 0 0.31 0.25 0.559 0.56 0.559s0.559-0.25 0.559-0.56v-0.002zM13.735 5.836c-0.255-1.25-1.241-2.234-2.49-2.49-0.302-0.062-0.598 0.133-0.661 0.436-0.062 0.302 0.133 0.598 0.436 0.661 0.813 0.166 1.453 0.806 1.619 1.618 0.062 0.303 0.358 0.497 0.661 0.436 0.302-0.062 0.498-0.359 0.435-0.661zM5.266 9.202c-1.040 0.21-1.742 1.082-1.567 1.947 0.174 0.867 1.158 1.4 2.198 1.19s1.741-1.082 1.567-1.947c-0.174-0.866-1.159-1.4-2.198-1.19z"></path>
</svg>
