<?xml version="1.0" encoding="utf-8"?>
<!-- Generated by IcoMoon.io -->
<!DOCTYPE svg PUBLIC "-//W3C//DTD SVG 1.1//EN" "http://www.w3.org/Graphics/SVG/1.1/DTD/svg11.dtd">
<svg version="1.1" xmlns="http://www.w3.org/2000/svg" xmlns:xlink="http://www.w3.org/1999/xlink" width="16" height="16" viewBox="0 0 16 16">
<path d="M14.937 9.63c0.106-0.498 0.162-1.018 0.162-1.55 0-3.989-3.144-7.223-7.022-7.223-0.409 0-0.81 0.038-1.2 0.106-0.628-0.406-1.37-0.642-2.166-0.642-2.249 0-4.072 1.875-4.072 4.19 0 0.772 0.205 1.497 0.559 2.118-0.093 0.469-0.142 0.955-0.142 1.452 0 3.989 3.144 7.223 7.020 7.223 0.441 0 0.87-0.041 1.286-0.12 0.574 0.317 1.228 0.497 1.925 0.497 2.249 0 4.072-1.875 4.072-4.189 0.001-0.67-0.152-1.301-0.422-1.862zM11.679 11.533c-0.325 0.472-0.805 0.847-1.426 1.113-0.615 0.264-1.354 0.397-2.194 0.397-1.008 0-1.854-0.182-2.514-0.542-0.472-0.262-0.861-0.617-1.156-1.054-0.298-0.444-0.449-0.883-0.449-1.306 0-0.264 0.098-0.494 0.292-0.682 0.192-0.186 0.439-0.282 0.733-0.282 0.241 0 0.45 0.075 0.618 0.222 0.162 0.141 0.3 0.35 0.411 0.618 0.125 0.294 0.261 0.541 0.404 0.736 0.138 0.187 0.336 0.346 0.588 0.469 0.254 0.123 0.598 0.186 1.020 0.186 0.58 0 1.056-0.126 1.414-0.378 0.35-0.247 0.52-0.541 0.52-0.902 0-0.286-0.089-0.51-0.272-0.686-0.19-0.182-0.444-0.326-0.749-0.425-0.319-0.102-0.753-0.213-1.289-0.328-0.728-0.161-1.346-0.351-1.839-0.566-0.504-0.22-0.91-0.526-1.206-0.91-0.3-0.386-0.454-0.874-0.454-1.446 0-0.546 0.16-1.038 0.477-1.462 0.314-0.42 0.772-0.748 1.362-0.974 0.582-0.222 1.277-0.334 2.061-0.334 0.626 0 1.178 0.075 1.638 0.222 0.462 0.149 0.853 0.349 1.159 0.595 0.31 0.249 0.539 0.514 0.683 0.789 0.146 0.28 0.22 0.556 0.22 0.825 0 0.258-0.097 0.492-0.289 0.697-0.192 0.206-0.434 0.31-0.72 0.31-0.259 0-0.464-0.066-0.605-0.194-0.131-0.118-0.269-0.306-0.419-0.574-0.175-0.342-0.387-0.613-0.63-0.802-0.236-0.186-0.63-0.28-1.173-0.28-0.503 0-0.913 0.105-1.215 0.31-0.294 0.199-0.436 0.426-0.436 0.693 0 0.166 0.046 0.303 0.141 0.42 0.1 0.126 0.241 0.236 0.418 0.328 0.184 0.096 0.374 0.171 0.564 0.226 0.195 0.056 0.523 0.138 0.972 0.246 0.569 0.125 1.090 0.266 1.551 0.417 0.468 0.154 0.872 0.344 1.202 0.564 0.336 0.226 0.603 0.516 0.791 0.861 0.19 0.347 0.286 0.775 0.286 1.272 0.001 0.596-0.165 1.138-0.49 1.613z"></path>
</svg>
