<?xml version="1.0" encoding="utf-8"?>
<!-- Generated by IcoMoon.io -->
<!DOCTYPE svg PUBLIC "-//W3C//DTD SVG 1.1//EN" "http://www.w3.org/Graphics/SVG/1.1/DTD/svg11.dtd">
<svg version="1.1" xmlns="http://www.w3.org/2000/svg" xmlns:xlink="http://www.w3.org/1999/xlink" width="16" height="16" viewBox="0 0 16 16">
<path d="M9.731 7.882c-0.184-0.123-0.411-0.23-0.673-0.316-0.258-0.086-0.55-0.164-0.87-0.234-0.251-0.059-0.434-0.106-0.543-0.138-0.106-0.030-0.213-0.072-0.317-0.126-0.099-0.051-0.178-0.113-0.234-0.183-0.052-0.066-0.078-0.144-0.078-0.236 0-0.15 0.080-0.277 0.244-0.387 0.17-0.114 0.399-0.172 0.681-0.172 0.304 0 0.525 0.051 0.657 0.154 0.136 0.106 0.254 0.258 0.352 0.45 0.085 0.15 0.161 0.254 0.235 0.32 0.079 0.072 0.193 0.11 0.338 0.11 0.161 0 0.296-0.058 0.404-0.174 0.107-0.114 0.162-0.246 0.162-0.39 0-0.15-0.042-0.306-0.123-0.461s-0.21-0.303-0.382-0.442c-0.172-0.139-0.39-0.25-0.649-0.333-0.258-0.083-0.567-0.125-0.918-0.125-0.44 0-0.828 0.062-1.154 0.187-0.33 0.126-0.587 0.31-0.763 0.546-0.178 0.238-0.267 0.513-0.267 0.818 0 0.32 0.086 0.592 0.254 0.81 0.166 0.214 0.394 0.386 0.675 0.51 0.277 0.12 0.622 0.226 1.031 0.317 0.299 0.064 0.542 0.126 0.721 0.184 0.171 0.054 0.313 0.134 0.42 0.238 0.102 0.098 0.151 0.223 0.151 0.385 0 0.202-0.095 0.366-0.29 0.505-0.201 0.141-0.467 0.211-0.792 0.211-0.237 0-0.428-0.034-0.571-0.105-0.142-0.069-0.252-0.156-0.33-0.261-0.081-0.11-0.156-0.249-0.226-0.413-0.062-0.151-0.141-0.267-0.231-0.347-0.094-0.083-0.211-0.123-0.346-0.123-0.166 0-0.303 0.053-0.411 0.156-0.109 0.106-0.164 0.234-0.164 0.383 0 0.236 0.085 0.483 0.252 0.73 0.166 0.247 0.383 0.446 0.648 0.592 0.37 0.202 0.843 0.303 1.408 0.303 0.47 0 0.883-0.075 1.229-0.222 0.348-0.149 0.617-0.359 0.798-0.623 0.182-0.266 0.275-0.57 0.275-0.903 0-0.278-0.054-0.518-0.16-0.713s-0.256-0.354-0.444-0.481zM8 0.32c-4.242 0-7.68 3.438-7.68 7.68s3.438 7.68 7.68 7.68 7.68-3.438 7.68-7.68-3.438-7.68-7.68-7.68zM9.841 12.3c-0.39 0-0.757-0.1-1.078-0.278-0.233 0.046-0.474 0.069-0.72 0.069-2.17 0-3.931-1.813-3.931-4.046 0-0.28 0.028-0.552 0.080-0.814-0.199-0.347-0.314-0.752-0.314-1.185 0-1.295 1.021-2.347 2.281-2.347 0.446 0 0.861 0.133 1.213 0.361 0.218-0.039 0.443-0.059 0.671-0.059 2.172 0 3.932 1.811 3.932 4.046 0 0.297-0.031 0.587-0.090 0.867 0.151 0.314 0.237 0.667 0.237 1.042-0.001 1.294-1.021 2.345-2.28 2.345z"></path>
</svg>
