<?xml version="1.0" encoding="utf-8"?>
<!-- Generated by IcoMoon.io -->
<!DOCTYPE svg PUBLIC "-//W3C//DTD SVG 1.1//EN" "http://www.w3.org/Graphics/SVG/1.1/DTD/svg11.dtd">
<svg version="1.1" xmlns="http://www.w3.org/2000/svg" xmlns:xlink="http://www.w3.org/1999/xlink" width="16" height="16" viewBox="0 0 16 16">
<path d="M10.4 5.664c1.105 0 2-0.895 2-2s-0.895-2-2-2-2 0.895-2 2 0.896 2 2 2zM15.076 4.754c-2.864 2.044-4.183 1.686-5.476 1.646-0.894-0.046-1.2 0.238-1.2 0.864l0.001 4.8c0 4 6.737 2.744 4.132-3.959 1.337-0.767 2.461-1.947 3.101-2.73 0.329-0.486-0.022-0.996-0.558-0.621zM5.6 1.664c-1.105 0-2 0.895-2 2s0.895 2 2 2 2-0.895 2-2-0.896-2-2-2zM6.4 6.4c-1.293 0.041-2.612 0.398-5.476-1.646-0.535-0.375-0.886 0.134-0.558 0.62 0.64 0.783 1.764 1.962 3.101 2.73-2.605 6.703 4.132 7.959 4.132 3.959l0.001-4.8c0-0.625-0.306-0.909-1.2-0.863z"></path>
</svg>
