<?xml version="1.0" encoding="utf-8"?>
<!-- Generated by IcoMoon.io -->
<!DOCTYPE svg PUBLIC "-//W3C//DTD SVG 1.1//EN" "http://www.w3.org/Graphics/SVG/1.1/DTD/svg11.dtd">
<svg version="1.1" xmlns="http://www.w3.org/2000/svg" xmlns:xlink="http://www.w3.org/1999/xlink" width="16" height="16" viewBox="0 0 16 16">
<path d="M8.018 12.826c-2.006 0-3.402-1.244-3.402-1.244l-1.186 2.69c0.818 0.438 1.674 0.749 2.167 0.913l-1.274 0.305c-0.597 0.142-1.197-0.226-1.34-0.823l-2.472-10.342c-0.143-0.597 0.225-1.197 0.822-1.341l2.973-0.711c-0.728 0.823-1.010 1.802-0.939 2.92 0.111 1.754 1.79 3.103 3.787 3.858 3.761 1.421 2.869 3.776 0.864 3.776zM15.489 11.675l-2.473-10.342c-0.142-0.597-0.742-0.966-1.34-0.822l-2.13 0.51c0.543 0.084 1.619 0.32 2.804 0.942l-0.927 2.57c0 0-0.772-0.862-2.842-0.967-1.968-0.1-3.062 2.030 0.775 3.284 2.939 0.961 3.878 2.813 3.83 4.526-0.025 0.89-0.337 1.614-0.698 2.161l2.18-0.522c0.597-0.142 0.965-0.742 0.822-1.341z"></path>
</svg>
