<?xml version="1.0" encoding="utf-8"?>
<!-- Generated by IcoMoon.io -->
<!DOCTYPE svg PUBLIC "-//W3C//DTD SVG 1.1//EN" "http://www.w3.org/Graphics/SVG/1.1/DTD/svg11.dtd">
<svg version="1.1" xmlns="http://www.w3.org/2000/svg" xmlns:xlink="http://www.w3.org/1999/xlink" width="16" height="16" viewBox="0 0 16 16">
<path d="M11.344 10.625l-1.969-1.969h1.969v1.969zM9.656 5.813c-1.219 0-2.219-1.031-2.219-2.25s1-2.219 2.219-2.219v1c-0.688 0-1.219 0.469-1.219 1.156s0.531 1.344 1.219 1.344h1.031c1.25 0 2.313 0.906 2.313 2.094v1.063h-1v-0.844c0-0.875-0.625-1.344-1.313-1.344h-1.031zM12.563 3.25c1.25 0.594 2.094 1.875 2.094 3.375v1.375h-1v-1.375c0-1.5-1.156-2.719-2.656-2.719v-1c0.688 0 1.219-0.563 1.219-1.25h1c0 0.625-0.25 1.188-0.656 1.594zM12 8.656h1v2h-1v-2zM13.656 8.656h1v2h-1v-2zM1.344 4l0.813-0.844 11.344 11.344-0.844 0.844-4.656-4.688h-6.656v-2h4.656z"></path>
</svg>
