<?xml version="1.0" encoding="utf-8"?>
<!-- Generated by IcoMoon.io -->
<!DOCTYPE svg PUBLIC "-//W3C//DTD SVG 1.1//EN" "http://www.w3.org/Graphics/SVG/1.1/DTD/svg11.dtd">
<svg version="1.1" xmlns="http://www.w3.org/2000/svg" xmlns:xlink="http://www.w3.org/1999/xlink" width="16" height="16" viewBox="0 0 16 16">
<path d="M10.688 6.813c1.25 0 2.313 0.875 2.313 2.094v1.094h-1v-0.875c0-0.875-0.625-1.344-1.313-1.344h-1.031c-1.219 0-2.219-1.031-2.219-2.25s1-2.219 2.219-2.219v1c-0.688 0-1.219 0.469-1.219 1.156s0.531 1.344 1.219 1.344h1.031zM12.563 5.156c1.25 0.594 2.094 1.875 2.094 3.344v1.5h-1v-1.5c0-1.5-1.156-2.688-2.656-2.688v-1c0.688 0 1.219-0.563 1.219-1.25s-0.531-1.219-1.219-1.219v-1c1.219 0 2.219 1 2.219 2.219 0 0.625-0.25 1.188-0.656 1.594zM12 10.656h1v2h-1v-2zM13.656 10.656h1v2h-1v-2zM1.344 10.656h10v2h-10v-2z"></path>
</svg>
