<?xml version="1.0" encoding="utf-8"?>
<!-- Generated by IcoMoon.io -->
<!DOCTYPE svg PUBLIC "-//W3C//DTD SVG 1.1//EN" "http://www.w3.org/Graphics/SVG/1.1/DTD/svg11.dtd">
<svg version="1.1" xmlns="http://www.w3.org/2000/svg" xmlns:xlink="http://www.w3.org/1999/xlink" width="16" height="16" viewBox="0 0 16 16">
<path d="M4 1.28c0-0.442-0.358-0.48-0.8-0.48s-0.8 0.038-0.8 0.48v6.72h1.6v-6.72zM2.4 14.72c0 0.441 0.358 0.48 0.8 0.48s0.8-0.039 0.8-0.48v-2.72h-1.6v2.72zM5.119 8.8h-3.84c-0.442 0-0.479 0.358-0.479 0.8v0.8c0 0.442 0.037 0.8 0.479 0.8h3.841c0.44 0 0.48-0.358 0.48-0.8v-0.8c0-0.442-0.040-0.8-0.481-0.8zM14.719 9.6h-3.841c-0.442 0-0.478 0.358-0.478 0.8v0.8c0 0.442 0.037 0.8 0.479 0.8h3.841c0.44 0 0.48-0.358 0.48-0.8v-0.8c0-0.442-0.040-0.8-0.481-0.8zM10.4 5.6c0-0.442-0.040-0.8-0.481-0.8h-3.84c-0.442 0-0.479 0.358-0.479 0.8v0.8c0 0.442 0.037 0.8 0.479 0.8h3.841c0.44 0 0.48-0.358 0.48-0.8v-0.8zM8.8 1.28c0-0.442-0.358-0.48-0.8-0.48s-0.8 0.038-0.8 0.48v2.72h1.6v-2.72zM7.2 14.72c0 0.441 0.358 0.48 0.8 0.48s0.8-0.039 0.8-0.48v-6.72h-1.6v6.72zM13.6 1.28c0-0.442-0.358-0.48-0.8-0.48s-0.8 0.038-0.8 0.48v7.52h1.6v-7.52zM12 14.72c0 0.441 0.358 0.48 0.8 0.48s0.8-0.039 0.8-0.48v-1.92h-1.6v1.92z"></path>
</svg>
