<?xml version="1.0" encoding="utf-8"?>
<!-- Generated by IcoMoon.io -->
<!DOCTYPE svg PUBLIC "-//W3C//DTD SVG 1.1//EN" "http://www.w3.org/Graphics/SVG/1.1/DTD/svg11.dtd">
<svg version="1.1" xmlns="http://www.w3.org/2000/svg" xmlns:xlink="http://www.w3.org/1999/xlink" width="16" height="16" viewBox="0 0 16 16">
<path d="M4.25 3.653c-0.898 0.895-4.822 6.492-1.431 9.882 3.389 3.39 8.984-0.534 9.883-1.431 0.897-0.895-0.268-3.516-2.602-5.85-2.335-2.335-4.953-3.501-5.85-2.601zM11.661 11.325c-0.266 0.262-2.316-0.366-4.291-2.342-1.974-1.975-2.605-4.026-2.339-4.29 0.262-0.266 2.315 0.366 4.288 2.341 1.977 1.974 2.606 4.026 2.342 4.292zM12.347 4.786l1.523-1.525c0.313-0.313 0.313-0.818 0-1.131s-0.818-0.313-1.131 0l-1.523 1.525c-0.313 0.313-0.313 0.819 0 1.131s0.818 0.312 1.131 0zM8.899 3.040c0.386 0.214 0.873 0.076 1.088-0.31l0.87-1.541c0.214-0.386 0.076-0.873-0.31-1.088s-0.873-0.076-1.088 0.31l-0.87 1.541c-0.214 0.387-0.075 0.874 0.31 1.088zM15.898 5.453c-0.214-0.386-0.702-0.526-1.088-0.31l-1.552 0.849c-0.386 0.214-0.526 0.702-0.31 1.088s0.702 0.526 1.088 0.31l1.552-0.849c0.386-0.215 0.526-0.702 0.31-1.088z"></path>
</svg>
