<?xml version="1.0" encoding="utf-8"?>
<!-- Generated by IcoMoon.io -->
<!DOCTYPE svg PUBLIC "-//W3C//DTD SVG 1.1//EN" "http://www.w3.org/Graphics/SVG/1.1/DTD/svg11.dtd">
<svg version="1.1" xmlns="http://www.w3.org/2000/svg" xmlns:xlink="http://www.w3.org/1999/xlink" width="16" height="16" viewBox="0 0 16 16">
<path d="M11.361 7.355c1.111 1.506 1.454 2.814 1.247 3.022-0.208 0.206-1.514-0.136-3.022-1.247l-4.421 4.422c3.349 1.47 7.702-1.614 8.484-2.397 0.74-0.738 0.078-2.647-1.485-4.603l-0.803 0.804zM6.934 6.353c-0.879-1.326-1.145-2.418-0.955-2.608 0.186-0.187 1.28 0.077 2.606 0.958l0.818-0.82c-1.811-1.339-3.516-1.867-4.206-1.175-0.742 0.741-3.558 4.702-2.585 7.966l4.322-4.32zM14.817 1.182c-0.312-0.313-0.818-0.313-1.131 0l-12.503 12.504c-0.313 0.313-0.313 0.819 0 1.131s0.818 0.313 1.131 0l12.503-12.504c0.313-0.313 0.313-0.819 0-1.131z"></path>
</svg>
