<?xml version="1.0" encoding="utf-8"?>
<!-- Generated by IcoMoon.io -->
<!DOCTYPE svg PUBLIC "-//W3C//DTD SVG 1.1//EN" "http://www.w3.org/Graphics/SVG/1.1/DTD/svg11.dtd">
<svg version="1.1" xmlns="http://www.w3.org/2000/svg" xmlns:xlink="http://www.w3.org/1999/xlink" width="16" height="16" viewBox="0 0 16 16">
<path d="M0.538 10.444l0.262-1.121-0.262-1.158c-0.007-0.034-0.074-0.061-0.153-0.061-0.082 0-0.147 0.026-0.153 0.061l-0.232 1.158 0.231 1.12c0.006 0.036 0.072 0.061 0.153 0.061s0.146-0.024 0.154-0.060zM2.178 11.066l0.222-1.731-0.222-2.678c-0.007-0.067-0.091-0.122-0.191-0.122-0.102 0-0.186 0.054-0.19 0.122l-0.197 2.678 0.197 1.731c0.005 0.069 0.089 0.122 0.19 0.122 0.1 0 0.184-0.053 0.191-0.122zM3.814 11.038l0.186-1.702-0.186-3.566c-0.005-0.085-0.103-0.15-0.226-0.15s-0.22 0.066-0.225 0.15l-0.164 3.566 0.164 1.703c0.005 0.082 0.103 0.149 0.225 0.149s0.221-0.066 0.226-0.15zM5.448 11.013l0.152-1.677-0.152-3.592c-0.004-0.098-0.117-0.177-0.256-0.177-0.141 0-0.253 0.078-0.257 0.177l-0.135 3.592 0.136 1.677c0.003 0.098 0.116 0.177 0.256 0.177s0.252-0.077 0.256-0.177zM7.080 10.99l0.12-1.653-0.12-4.119c-0.003-0.114-0.131-0.204-0.286-0.204s-0.283 0.092-0.286 0.205l-0.108 4.117 0.108 1.654c0.002 0.113 0.13 0.205 0.286 0.205s0.283-0.090 0.286-0.205zM8.222 11.197c0.006 0 5.68 0.003 5.716 0.003 1.139 0 2.062-0.894 2.062-1.995s-0.923-1.994-2.062-1.994c-0.282 0-0.551 0.056-0.797 0.154-0.164-1.797-1.722-3.206-3.623-3.206-0.465 0-0.918 0.089-1.318 0.238-0.157 0.059-0.198 0.118-0.199 0.236v6.328c0.002 0.122 0.099 0.223 0.222 0.236z"></path>
</svg>
