<?xml version="1.0" encoding="utf-8"?>
<!-- Generated by IcoMoon.io -->
<!DOCTYPE svg PUBLIC "-//W3C//DTD SVG 1.1//EN" "http://www.w3.org/Graphics/SVG/1.1/DTD/svg11.dtd">
<svg version="1.1" xmlns="http://www.w3.org/2000/svg" xmlns:xlink="http://www.w3.org/1999/xlink" width="16" height="16" viewBox="0 0 16 16">
<path d="M10.313 6.406c-0.844 0.469-1.625 1.063-2.313 1.781-0.688-0.719-1.469-1.313-2.313-1.781 0.156-1.844 0.906-3.625 2.344-5.063 1.406 1.406 2.156 3.188 2.281 5.063zM1.344 6.656c2.974 0 5.367 1.694 6.656 3.656 1.291-1.964 3.683-3.656 6.656-3.656 0 3.531-2.219 6.531-5.344 7.656-0.438 0.156-0.844 0.25-1.313 0.344-0.469-0.063-0.906-0.188-1.313-0.344-3.125-1.125-5.344-4.125-5.344-7.656z"></path>
</svg>
