<?xml version="1.0" encoding="utf-8"?>
<!-- Generated by IcoMoon.io -->
<!DOCTYPE svg PUBLIC "-//W3C//DTD SVG 1.1//EN" "http://www.w3.org/Graphics/SVG/1.1/DTD/svg11.dtd">
<svg version="1.1" xmlns="http://www.w3.org/2000/svg" xmlns:xlink="http://www.w3.org/1999/xlink" width="16" height="16" viewBox="0 0 16 16">
<path d="M10 13.344v-5.344h-4v5.344h4zM9.906 6.688c0.406 0 0.75 0.344 0.75 0.75v6.469c0 0.406-0.344 0.75-0.75 0.75h-3.813c-0.406 0-0.75-0.344-0.75-0.75v-6.469c0-0.406 0.344-0.781 0.75-0.781zM8 0.656c2 0 3.844 0.844 5.156 2.156l-0.938 0.938c-1.094-1.094-2.563-1.75-4.219-1.75s-3.125 0.656-4.219 1.75l-0.938-0.938c1.313-1.313 3.156-2.156 5.156-2.156zM4.656 4.719c0.844-0.844 2.031-1.375 3.344-1.375s2.5 0.531 3.344 1.375l-0.969 0.938c-0.594-0.594-1.438-0.969-2.375-0.969s-1.781 0.375-2.375 0.969z"></path>
</svg>
