<?xml version="1.0" encoding="utf-8"?>
<!-- Generated by IcoMoon.io -->
<!DOCTYPE svg PUBLIC "-//W3C//DTD SVG 1.1//EN" "http://www.w3.org/Graphics/SVG/1.1/DTD/svg11.dtd">
<svg version="1.1" xmlns="http://www.w3.org/2000/svg" xmlns:xlink="http://www.w3.org/1999/xlink" width="16" height="16" viewBox="0 0 16 16">
<path d="M4 3.344v10.656h6.656v1.344h-6.656c-0.75 0-1.344-0.625-1.344-1.344v-10.656h1.344zM7.656 8.344c0-0.906 0.781-1.688 1.688-1.688s1.656 0.781 1.656 1.688-0.75 1.656-1.656 1.656-1.688-0.75-1.688-1.656zM9.344 11c1.469 0 2.656-1.188 2.656-2.656s-1.188-2.688-2.656-2.688-2.688 1.219-2.688 2.688 1.219 2.656 2.688 2.656zM9.344 2c-0.719 0-1.344 0.594-1.344 1.344s0.625 1.313 1.344 1.313 1.313-0.563 1.313-1.313-0.594-1.344-1.313-1.344zM12.125 0.656c0.656 0 1.219 0.563 1.219 1.219v9.594c0 0.656-0.563 1.188-1.219 1.188h-5.594c-0.656 0-1.188-0.531-1.188-1.188v-9.594c0-0.656 0.531-1.219 1.188-1.219h5.594z"></path>
</svg>
