<?xml version="1.0" encoding="utf-8"?>
<!-- Generated by IcoMoon.io -->
<!DOCTYPE svg PUBLIC "-//W3C//DTD SVG 1.1//EN" "http://www.w3.org/Graphics/SVG/1.1/DTD/svg11.dtd">
<svg version="1.1" xmlns="http://www.w3.org/2000/svg" xmlns:xlink="http://www.w3.org/1999/xlink" width="16" height="16" viewBox="0 0 16 16">
<path d="M8 8c1.094 0 2 0.906 2 2s-0.906 2-2 2-2-0.906-2-2 0.906-2 2-2zM8 13.344c1.844 0 3.344-1.5 3.344-3.344s-1.5-3.344-3.344-3.344-3.344 1.5-3.344 3.344 1.5 3.344 3.344 3.344zM8 2.656c-0.75 0-1.344 0.625-1.344 1.344s0.594 1.344 1.344 1.344c0.719 0 1.344-0.625 1.344-1.344s-0.625-1.344-1.344-1.344zM11.344 1.344c0.719 0 1.313 0.594 1.313 1.313v10.688c0 0.719-0.594 1.313-1.313 1.313h-6.688c-0.719 0-1.313-0.594-1.313-1.313v-10.688c0-0.719 0.594-1.313 1.313-1.313h6.688z"></path>
</svg>
