<?xml version="1.0" encoding="utf-8"?>
<!-- Generated by IcoMoon.io -->
<!DOCTYPE svg PUBLIC "-//W3C//DTD SVG 1.1//EN" "http://www.w3.org/Graphics/SVG/1.1/DTD/svg11.dtd">
<svg version="1.1" xmlns="http://www.w3.org/2000/svg" xmlns:xlink="http://www.w3.org/1999/xlink" width="16" height="16" viewBox="0 0 16 16">
<path d="M4.8 10.8l3.2 2 3.2-2v-6.8h-6.4v6.8zM3.6 8c0-0.884-0.717-1.6-1.6-1.6s-1.6 0.716-1.6 1.6c0 0.884 0.717 1.6 1.6 1.6s1.6-0.716 1.6-1.6zM14 6.4c-0.883 0-1.6 0.716-1.6 1.6s0.717 1.6 1.6 1.6 1.6-0.716 1.6-1.6c0-0.884-0.717-1.6-1.6-1.6zM3.588 4.959c1.004-1.452 2.654-2.319 4.412-2.319 1.726 0 3.358 0.845 4.365 2.258 0.359 0.503 1.058 0.621 1.562 0.263s0.622-1.058 0.263-1.562c-1.426-2.003-3.74-3.199-6.19-3.199-2.494 0-4.832 1.228-6.254 3.286-0.351 0.509-0.224 1.206 0.284 1.558 0.51 0.35 1.206 0.223 1.558-0.285zM12.365 11.102c-1.006 1.414-2.638 2.258-4.365 2.258-1.758 0-3.408-0.867-4.412-2.319-0.351-0.509-1.049-0.635-1.558-0.285-0.509 0.352-0.636 1.050-0.284 1.558 1.422 2.058 3.76 3.286 6.254 3.286 2.45 0 4.764-1.196 6.19-3.199 0.358-0.504 0.241-1.203-0.263-1.562-0.503-0.358-1.202-0.24-1.562 0.263z"></path>
</svg>
