<?xml version="1.0" encoding="utf-8"?>
<!-- Generated by IcoMoon.io -->
<!DOCTYPE svg PUBLIC "-//W3C//DTD SVG 1.1//EN" "http://www.w3.org/Graphics/SVG/1.1/DTD/svg11.dtd">
<svg version="1.1" xmlns="http://www.w3.org/2000/svg" xmlns:xlink="http://www.w3.org/1999/xlink" width="16" height="16" viewBox="0 0 16 16">
<path d="M8 0.32c-4.242 0-7.68 3.438-7.68 7.68s3.438 7.68 7.68 7.68 7.68-3.438 7.68-7.68-3.438-7.68-7.68-7.68zM10.371 11.070c-0.118 0-0.2-0.045-0.287-0.098-0.81-0.49-1.814-0.748-2.902-0.748-0.555 0-1.154 0.066-1.781 0.194l-0.076 0.019c-0.080 0.019-0.161 0.040-0.223 0.040-0.252 0-0.45-0.196-0.45-0.447 0-0.254 0.144-0.434 0.383-0.48 0.747-0.17 1.451-0.253 2.15-0.253 1.264 0 2.395 0.292 3.361 0.872 0.166 0.097 0.27 0.208 0.27 0.455s-0.199 0.446-0.445 0.446zM10.994 9.323c-0.142 0-0.234-0.054-0.316-0.102-1.46-0.867-3.638-1.154-5.428-0.678-0.030 0.009-0.056 0.017-0.082 0.025-0.067 0.022-0.131 0.042-0.219 0.042-0.294 0-0.534-0.241-0.534-0.538 0-0.286 0.149-0.486 0.419-0.562 0.69-0.189 1.339-0.314 2.272-0.314 1.509 0 2.971 0.378 4.117 1.064 0.209 0.118 0.303 0.282 0.303 0.526 0 0.296-0.239 0.535-0.533 0.535zM11.7 7.333c-0.133 0-0.215-0.031-0.337-0.098-0.991-0.595-2.537-0.949-4.139-0.949-0.834 0-1.592 0.092-2.254 0.27-0.022 0.006-0.044 0.012-0.066 0.019-0.070 0.021-0.158 0.046-0.25 0.046-0.351 0-0.626-0.278-0.626-0.634 0-0.309 0.174-0.545 0.463-0.63 0.798-0.236 1.718-0.354 2.732-0.354 1.825 0 3.562 0.405 4.766 1.113 0.227 0.128 0.338 0.323 0.338 0.594 0 0.349-0.276 0.623-0.627 0.623z"></path>
</svg>
