<?xml version="1.0" encoding="utf-8"?>
<!-- Generated by IcoMoon.io -->
<!DOCTYPE svg PUBLIC "-//W3C//DTD SVG 1.1//EN" "http://www.w3.org/Graphics/SVG/1.1/DTD/svg11.dtd">
<svg version="1.1" xmlns="http://www.w3.org/2000/svg" xmlns:xlink="http://www.w3.org/1999/xlink" width="16" height="16" viewBox="0 0 16 16">
<path d="M8 0.96c-3.889 0-7.040 3.15-7.040 7.040 0 3.887 3.151 7.040 7.040 7.040s7.039-3.152 7.039-7.040c0-3.889-3.149-7.040-7.039-7.040zM10.782 11.602c-0.138 0-0.235-0.053-0.337-0.114-0.951-0.577-2.13-0.879-3.406-0.879-0.651 0-1.354 0.078-2.088 0.228l-0.090 0.022c-0.093 0.022-0.188 0.047-0.261 0.047-0.297 0-0.529-0.23-0.529-0.525 0-0.298 0.168-0.51 0.45-0.562 0.877-0.2 1.702-0.298 2.522-0.298 1.484 0 2.81 0.344 3.945 1.023 0.194 0.114 0.317 0.245 0.317 0.534s-0.234 0.523-0.522 0.523zM11.513 9.553c-0.166 0-0.274-0.063-0.37-0.119-1.714-1.017-4.266-1.354-6.369-0.794-0.035 0.010-0.067 0.020-0.096 0.030-0.079 0.025-0.153 0.050-0.257 0.050-0.346 0-0.626-0.282-0.626-0.63 0-0.335 0.175-0.57 0.491-0.659 0.81-0.222 1.571-0.37 2.666-0.37 1.77 0 3.486 0.444 4.83 1.249 0.245 0.14 0.356 0.331 0.356 0.617 0 0.347-0.281 0.628-0.626 0.628zM12.342 7.217c-0.156 0-0.252-0.038-0.396-0.115-1.162-0.698-2.976-1.113-4.855-1.113-0.979 0-1.869 0.108-2.645 0.318-0.026 0.006-0.051 0.014-0.078 0.022-0.082 0.025-0.186 0.054-0.292 0.054-0.413 0-0.735-0.326-0.735-0.743 0-0.362 0.203-0.639 0.544-0.74 0.937-0.277 2.015-0.417 3.205-0.417 2.142 0 4.181 0.476 5.593 1.305 0.266 0.151 0.396 0.38 0.396 0.698 0 0.41-0.323 0.732-0.736 0.732z"></path>
</svg>
