<?xml version="1.0" encoding="utf-8"?>
<!-- Generated by IcoMoon.io -->
<!DOCTYPE svg PUBLIC "-//W3C//DTD SVG 1.1//EN" "http://www.w3.org/Graphics/SVG/1.1/DTD/svg11.dtd">
<svg version="1.1" xmlns="http://www.w3.org/2000/svg" xmlns:xlink="http://www.w3.org/1999/xlink" width="16" height="16" viewBox="0 0 16 16">
<path d="M12.243 15.682c-0.253 0.001-0.518-0.071-0.789-0.215l-2.584-1.358c-0.432-0.228-1.307-0.228-1.74 0l-2.583 1.358c-0.647 0.34-1.294 0.259-1.663-0.177-0.178-0.211-0.367-0.594-0.26-1.219l0.493-2.877c0.087-0.507-0.17-1.295-0.538-1.655l-2.091-2.037c-0.438-0.429-0.603-0.937-0.454-1.397s0.583-0.774 1.19-0.862l2.888-0.42c0.509-0.074 1.181-0.561 1.407-1.022l1.293-2.619c0.271-0.549 0.704-0.864 1.188-0.864s0.917 0.315 1.187 0.865l1.293 2.619c0.227 0.461 0.899 0.948 1.407 1.022l2.888 0.42c0.607 0.088 1.041 0.403 1.19 0.862s-0.016 0.969-0.455 1.397l-2.091 2.037c-0.368 0.359-0.625 1.149-0.538 1.655l0.493 2.877c0.107 0.625-0.082 1.008-0.26 1.217-0.211 0.253-0.522 0.393-0.871 0.393zM8 12.597c0.553 0 1.083 0.119 1.49 0.333l2.569 1.35-0.49-2.861c-0.162-0.945 0.234-2.164 0.921-2.835l2.079-2.025-2.871-0.418c-0.951-0.138-1.987-0.891-2.411-1.751l-1.285-2.602-1.285 2.602c-0.424 0.861-1.461 1.613-2.411 1.751l-2.871 0.418 2.079 2.025c0.687 0.671 1.083 1.889 0.921 2.835l-0.49 2.861 2.568-1.35c0.408-0.215 0.937-0.333 1.491-0.333z"></path>
</svg>
