<?xml version="1.0" encoding="utf-8"?>
<!-- Generated by IcoMoon.io -->
<!DOCTYPE svg PUBLIC "-//W3C//DTD SVG 1.1//EN" "http://www.w3.org/Graphics/SVG/1.1/DTD/svg11.dtd">
<svg version="1.1" xmlns="http://www.w3.org/2000/svg" xmlns:xlink="http://www.w3.org/1999/xlink" width="16" height="16" viewBox="0 0 16 16">
<path d="M4.656 10c0.625-0.875 1.406-1.375 2.438-1.625l-1.063-1.063c-0.781 0.75-1.156 1.688-1.375 2.688zM1.594 1.156l13.156 13.156-0.844 0.844-1.813-1.813h-12.094v-1.344h2.656c-0.75 0-1.313-0.594-1.313-1.313v-6.688c0-0.406 0.156-0.719 0.438-0.969l-1.031-1.031zM14.656 10.688c0 0.5-0.281 0.938-0.688 1.156l-3.688-3.688 1.063-1-2.688-2.469v1.406c-0.125 0.031-0.219 0.031-0.344 0.063l-3.5-3.469h8.531c0.719 0 1.313 0.563 1.313 1.313v6.688zM14.156 12h1.844v1.344h-0.531z"></path>
</svg>
