<?xml version="1.0" encoding="utf-8"?>
<!-- Generated by IcoMoon.io -->
<!DOCTYPE svg PUBLIC "-//W3C//DTD SVG 1.1//EN" "http://www.w3.org/Graphics/SVG/1.1/DTD/svg11.dtd">
<svg version="1.1" xmlns="http://www.w3.org/2000/svg" xmlns:xlink="http://www.w3.org/1999/xlink" width="16" height="16" viewBox="0 0 16 16">
<path d="M8.667 2.7v-0.7h0.333c0.184 0 0.333-0.149 0.333-0.333v-1.333c0-0.184-0.149-0.333-0.333-0.333h-2c-0.184 0-0.333 0.149-0.333 0.333v1.333c0 0.184 0.149 0.333 0.333 0.333h0.333v0.703c-0.601 0.061-1.178 0.203-1.722 0.413l-0.698-0.674-1.218-1.217-2.345 2.345 1.514 1.514c-0.956 1.153-1.531 2.634-1.531 4.25 0 3.682 2.985 6.667 6.667 6.667s6.667-2.985 6.667-6.667c0-3.457-2.631-6.299-6-6.633zM7.333 0.667h1.333v0.667h-1.333v-0.667zM2.293 3.569l1.403-1.403 0.778 0.777-1.403 1.403-0.778-0.777zM8 14.667c-2.941 0-5.333-2.393-5.333-5.333s2.393-5.333 5.333-5.333 5.333 2.393 5.333 5.333-2.393 5.333-5.333 5.333zM7.471 6.306c-0.261-0.261-0.682-0.261-0.943 0s-0.261 0.682 0 0.943l1.309 1.31-1.752 2.448c-0.181 0.321-0.067 0.727 0.254 0.907 0.103 0.059 0.215 0.086 0.326 0.086 0.233 0 0.459-0.123 0.581-0.34l2-2.889c0.147-0.261 0.102-0.587-0.109-0.798l-1.667-1.667z"></path>
</svg>
