<?xml version="1.0" encoding="utf-8"?>
<!-- Generated by IcoMoon.io -->
<!DOCTYPE svg PUBLIC "-//W3C//DTD SVG 1.1//EN" "http://www.w3.org/Graphics/SVG/1.1/DTD/svg11.dtd">
<svg version="1.1" xmlns="http://www.w3.org/2000/svg" xmlns:xlink="http://www.w3.org/1999/xlink" width="16" height="16" viewBox="0 0 16 16">
<path d="M5.901 5.396c-0.358 0.22 0.958 3.394 1.278 3.91 0.28 0.455 0.874 0.594 1.326 0.315 0.454-0.282 0.596-0.875 0.316-1.328-0.318-0.518-2.564-3.118-2.921-2.898zM5.633 1.922c0.742-0.258 1.538-0.402 2.367-0.402s1.625 0.143 2.367 0.402c0.263 0.091 0.612-0.092 0.458-0.489-0.113-0.288-0.222-0.57-0.266-0.684-0.105-0.271-0.48-0.495-0.643-0.532-0.618-0.139-1.258-0.217-1.916-0.217s-1.298 0.078-1.917 0.217c-0.163 0.037-0.538 0.261-0.642 0.532-0.044 0.114-0.154 0.396-0.266 0.684-0.154 0.397 0.194 0.581 0.458 0.489zM15.278 2.549c-0.154-0.184-0.317-0.364-0.49-0.538s-0.353-0.336-0.536-0.49c-0.122-0.103-0.482-0.187-0.71 0.041s-1.318 1.318-1.318 1.318c0.322 0.23 0.634 0.484 0.924 0.773s0.542 0.602 0.773 0.924c0 0 1.090-1.090 1.318-1.318 0.229-0.229 0.145-0.588 0.041-0.71zM8 2.32c-3.58 0-6.481 2.901-6.481 6.48s2.901 6.481 6.481 6.481c3.578 0 6.48-2.901 6.48-6.481 0-3.578-2.902-6.48-6.48-6.48zM8 13.681c-2.694 0-4.88-2.185-4.88-4.88s2.185-4.88 4.88-4.88c2.695 0 4.881 2.185 4.881 4.88s-2.186 4.88-4.881 4.88z"></path>
</svg>
