<?xml version="1.0" encoding="utf-8"?>
<!-- Generated by IcoMoon.io -->
<!DOCTYPE svg PUBLIC "-//W3C//DTD SVG 1.1//EN" "http://www.w3.org/Graphics/SVG/1.1/DTD/svg11.dtd">
<svg version="1.1" xmlns="http://www.w3.org/2000/svg" xmlns:xlink="http://www.w3.org/1999/xlink" width="16" height="16" viewBox="0 0 16 16">
<path d="M7.656 4c0 1.188 0.5 2.281 1.281 3.063l-6.531 6.531c-0.25-0.25-0.406-0.563-0.406-0.938v-9.313c0-0.719 0.625-1.344 1.344-1.344h4.813c-0.313 0.594-0.5 1.281-0.5 2zM8.656 4c0-1.844 1.5-3.344 3.344-3.344s3.344 1.5 3.344 3.344-1.5 3.344-3.344 3.344-3.344-1.5-3.344-3.344zM8.375 9.563c1-0.75 2.281-1.219 3.625-1.219 0.688 0 1.375 0.125 2 0.344v3.969c0 0.719-0.625 1.344-1.344 1.344h-4.656v-3.656c0-0.313 0.156-0.594 0.375-0.781z"></path>
</svg>
