<?xml version="1.0" encoding="utf-8"?>
<!-- Generated by IcoMoon.io -->
<!DOCTYPE svg PUBLIC "-//W3C//DTD SVG 1.1//EN" "http://www.w3.org/Graphics/SVG/1.1/DTD/svg11.dtd">
<svg version="1.1" xmlns="http://www.w3.org/2000/svg" xmlns:xlink="http://www.w3.org/1999/xlink" width="16" height="16" viewBox="0 0 16 16">
<path d="M6.25 8.75c0 1.191 0.755 1.688 1.938 1.688 0.817 0 1.531-0.333 1.531-1.125 0-0.747-0.396-0.917-0.938-1.188-0.094-0.031-0.25-0.094-0.375-0.125h-6.406v-1.344h12v1.344h-2.594c0.031 0.063 0.094 0.156 0.125 0.219 0.125 0.313 0.219 0.688 0.219 1.094 0 1.445-0.943 2.171-2.094 2.5-0.438 0.125-0.906 0.188-1.438 0.188-0.313 0-0.656-0.031-0.969-0.094-0.685-0.137-1.269-0.327-1.75-0.688-0.714-0.535-1.219-1.247-1.219-2.469h1.969zM9.719 5c0-0.962-0.613-1.406-1.594-1.406-0.705 0-1.238 0.227-1.469 0.688-0.063 0.125-0.094 0.281-0.094 0.438 0 0.313 0.188 0.594 0.5 0.813 0.25 0.156 0.5 0.313 0.938 0.469h-3.063c-0.031-0.063-0.094-0.094-0.125-0.156-0.188-0.313-0.25-0.688-0.25-1.125 0-0.898 0.467-1.542 1-1.969 0.642-0.449 1.494-0.75 2.594-0.75 1.096 0 2.004 0.313 2.594 0.844 0.549 0.494 0.969 1.186 0.969 2.156h-2z"></path>
</svg>
