<?xml version="1.0" encoding="utf-8"?>
<!-- Generated by IcoMoon.io -->
<!DOCTYPE svg PUBLIC "-//W3C//DTD SVG 1.1//EN" "http://www.w3.org/Graphics/SVG/1.1/DTD/svg11.dtd">
<svg version="1.1" xmlns="http://www.w3.org/2000/svg" xmlns:xlink="http://www.w3.org/1999/xlink" width="16" height="16" viewBox="0 0 16 16">
<path d="M8.841 6.447l1.092 0.528 1.647-0.528v-0.955c0-1.97-1.606-3.572-3.58-3.572s-3.58 1.602-3.58 3.572v5.016c0 0.462-0.378 0.839-0.841 0.839s-0.841-0.377-0.841-0.839v-2.1h-2.738v2.1c0 1.969 1.606 3.572 3.58 3.572s3.579-1.603 3.579-3.572v-5.016c0-0.462 0.378-0.839 0.842-0.839s0.841 0.377 0.841 0.839v0.955zM13.261 8.408v2.1c0 0.462-0.377 0.839-0.841 0.839s-0.841-0.377-0.841-0.839v-2.142l-1.647 0.526-1.092-0.526v2.142c0 1.969 1.606 3.572 3.58 3.572s3.58-1.603 3.58-3.572v-2.1h-2.739z"></path>
</svg>
