<?xml version="1.0" encoding="utf-8"?>
<!-- Generated by IcoMoon.io -->
<!DOCTYPE svg PUBLIC "-//W3C//DTD SVG 1.1//EN" "http://www.w3.org/Graphics/SVG/1.1/DTD/svg11.dtd">
<svg version="1.1" xmlns="http://www.w3.org/2000/svg" xmlns:xlink="http://www.w3.org/1999/xlink" width="16" height="16" viewBox="0 0 16 16">
<path d="M8 0.32c-4.242 0-7.68 3.438-7.68 7.68s3.438 7.68 7.68 7.68 7.68-3.438 7.68-7.68-3.438-7.68-7.68-7.68zM8 6.228c-0.234 0-0.425 0.19-0.425 0.423v2.534c0 0.995-0.812 1.805-1.809 1.805s-1.809-0.81-1.809-1.805v-1.061h1.383v1.061c0 0.234 0.19 0.423 0.425 0.423s0.425-0.189 0.425-0.423v-2.534c0.002-0.995 0.812-1.804 1.81-1.804s1.809 0.81 1.809 1.805v0.482l-0.832 0.267-0.552-0.267v-0.483c0-0.233-0.19-0.423-0.425-0.423zM12.042 9.186c0 0.995-0.812 1.805-1.809 1.805s-1.81-0.81-1.81-1.805v-1.083l0.552 0.267 0.832-0.267v1.083c0 0.234 0.19 0.423 0.425 0.423s0.424-0.189 0.424-0.423v-1.061h1.385v1.061z"></path>
</svg>
