<?xml version="1.0" encoding="utf-8"?>
<!-- Generated by IcoMoon.io -->
<!DOCTYPE svg PUBLIC "-//W3C//DTD SVG 1.1//EN" "http://www.w3.org/Graphics/SVG/1.1/DTD/svg11.dtd">
<svg version="1.1" xmlns="http://www.w3.org/2000/svg" xmlns:xlink="http://www.w3.org/1999/xlink" width="16" height="16" viewBox="0 0 16 16">
<path d="M3.906 13.156v-4.219l2.313 5.563h-0.969c-0.719 0-1.344-0.625-1.344-1.344zM5.25 5.844c0.375 0 0.656-0.313 0.656-0.688s-0.281-0.656-0.656-0.656-0.656 0.281-0.656 0.656 0.281 0.688 0.656 0.688zM14.688 10.625c0.281 0.688-0.031 1.469-0.719 1.75l-4.906 2.031c-0.156 0.063-0.344 0.094-0.531 0.094-0.531 0-1-0.313-1.219-0.813l-3.313-8c-0.063-0.188-0.094-0.344-0.094-0.531 0-0.5 0.313-0.969 0.813-1.188l4.938-2.031c0.188-0.063 0.344-0.094 0.531-0.094 0.5 0 0.969 0.313 1.188 0.813zM1.688 13.094c-0.688-0.281-1-1.031-0.719-1.719l1.625-3.906v6z"></path>
</svg>
