<?xml version="1.0" encoding="utf-8"?>
<!-- Generated by IcoMoon.io -->
<!DOCTYPE svg PUBLIC "-//W3C//DTD SVG 1.1//EN" "http://www.w3.org/Graphics/SVG/1.1/DTD/svg11.dtd">
<svg version="1.1" xmlns="http://www.w3.org/2000/svg" xmlns:xlink="http://www.w3.org/1999/xlink" width="16" height="16" viewBox="0 0 16 16">
<path d="M12 10.594v-4.594c0-1.75-1.781-2-4-2-2 0-4 0.25-4 2v4.594c0 0.969 0.781 1.75 1.75 1.75l-0.75 0.75v0.25h1.125l1-1h1.875l1 1h1v-0.25l-0.75-0.75c0.969 0 1.75-0.781 1.75-1.75zM11.875 1.875c1.781 0.688 2.781 2.156 2.781 4.031v8.75h-13.313v-8.75c0-1.875 1-3.344 2.781-4.031 1.188-0.469 2.625-0.531 3.875-0.531s2.688 0.063 3.875 0.531zM4.688 6h6.656v3.344h-6.656v-3.344zM5 10.656c0-0.375 0.281-0.656 0.656-0.656s0.688 0.281 0.688 0.656-0.313 0.688-0.688 0.688-0.656-0.313-0.656-0.688zM9.656 10.656c0-0.375 0.313-0.656 0.688-0.656s0.656 0.281 0.656 0.656-0.281 0.688-0.656 0.688-0.688-0.313-0.688-0.688z"></path>
</svg>
