<?xml version="1.0" encoding="utf-8"?>
<!-- Generated by IcoMoon.io -->
<!DOCTYPE svg PUBLIC "-//W3C//DTD SVG 1.1//EN" "http://www.w3.org/Graphics/SVG/1.1/DTD/svg11.dtd">
<svg version="1.1" xmlns="http://www.w3.org/2000/svg" xmlns:xlink="http://www.w3.org/1999/xlink" width="16" height="16" viewBox="0 0 16 16">
<path d="M14.4 3.2h-0.8v12h0.8c0.88 0 1.6-0.72 1.6-1.6v-8.8c0-0.88-0.72-1.6-1.6-1.6zM0 4.8v8.8c0 0.88 0.719 1.6 1.6 1.6h0.8v-12h-0.8c-0.881 0-1.6 0.72-1.6 1.6zM10.8 1.525c-0.545-0.253-1.511-0.725-2.815-0.725-1.306 0-2.24 0.472-2.785 0.725v1.675h-2v12h9.6v-12h-2v-1.675zM9.6 3.2h-3.2v-1.069c0.427-0.184 0.862-0.372 1.585-0.372s1.189 0.187 1.615 0.372v1.069z"></path>
</svg>
