<?xml version="1.0" encoding="utf-8"?>
<!-- Generated by IcoMoon.io -->
<!DOCTYPE svg PUBLIC "-//W3C//DTD SVG 1.1//EN" "http://www.w3.org/Graphics/SVG/1.1/DTD/svg11.dtd">
<svg version="1.1" xmlns="http://www.w3.org/2000/svg" xmlns:xlink="http://www.w3.org/1999/xlink" width="16" height="16" viewBox="0 0 16 16">
<path d="M15.991 8l-1.772-2.041 0.246-2.701-2.621-0.598-1.374-2.335-2.469 1.075-2.471-1.075-1.373 2.335-2.622 0.599 0.245 2.701-1.771 2.041 1.771 2.041-0.245 2.702 2.623 0.597 1.374 2.335 2.469-1.074 2.469 1.073 1.373-2.333 2.623-0.597-0.246-2.703 1.771-2.040zM11.013 12.189l-1.075 1.829-1.937-0.841-1.937 0.842-1.077-1.829-2.057-0.471 0.193-2.117-1.39-1.601 1.39-1.599-0.193-2.119 2.059-0.471 1.074-1.828 1.938 0.841 1.937-0.842 1.075 1.828 2.057 0.471-0.193 2.117 1.39 1.601-1.39 1.601 0.193 2.119-2.057 0.469zM8 3.747c-2.323 0-4.213 1.908-4.213 4.253s1.89 4.253 4.213 4.253 4.213-1.907 4.213-4.253c0-2.345-1.89-4.253-4.213-4.253zM8 11.598c-1.965 0-3.565-1.614-3.565-3.598s1.599-3.598 3.565-3.598c1.965 0 3.565 1.614 3.565 3.598s-1.6 3.598-3.565 3.598z"></path>
</svg>
