<?xml version="1.0" encoding="utf-8"?>
<!-- Generated by IcoMoon.io -->
<!DOCTYPE svg PUBLIC "-//W3C//DTD SVG 1.1//EN" "http://www.w3.org/Graphics/SVG/1.1/DTD/svg11.dtd">
<svg version="1.1" xmlns="http://www.w3.org/2000/svg" xmlns:xlink="http://www.w3.org/1999/xlink" width="16" height="16" viewBox="0 0 16 16">
<path d="M6 8.656c0.438 0 1 0.063 1.594 0.188-1.375 0.75-1.594 1.75-1.594 2.313v1.5h-4.656v-1.656c0-1.563 3.094-2.344 4.656-2.344zM11 9.344c1.219 0 3.656 0.594 3.656 1.813v1.5h-7.313v-1.5c0-1.219 2.438-1.813 3.656-1.813zM6 7.344c-1.094 0-2-0.906-2-2s0.906-2 2-2 2 0.906 2 2-0.906 2-2 2zM11 8c-0.906 0-1.656-0.75-1.656-1.656s0.75-1.688 1.656-1.688 1.656 0.781 1.656 1.688-0.75 1.656-1.656 1.656z"></path>
</svg>
