<?xml version="1.0" encoding="utf-8"?>
<!-- Generated by IcoMoon.io -->
<!DOCTYPE svg PUBLIC "-//W3C//DTD SVG 1.1//EN" "http://www.w3.org/Graphics/SVG/1.1/DTD/svg11.dtd">
<svg version="1.1" xmlns="http://www.w3.org/2000/svg" xmlns:xlink="http://www.w3.org/1999/xlink" width="16" height="16" viewBox="0 0 16 16">
<path d="M13.657 2.344c-1.448-1.448-3.448-2.344-5.657-2.344-2.208 0-4.208 0.896-5.656 2.344s-2.344 3.448-2.344 5.656c0 2.209 0.896 4.209 2.344 5.657 1.448 1.447 3.448 2.343 5.656 2.343 2.209 0 4.209-0.896 5.657-2.343 1.447-1.448 2.343-3.448 2.343-5.657 0-2.208-0.896-4.208-2.343-5.656zM10.667 8c0 0.736-0.299 1.403-0.781 1.885s-1.149 0.781-1.885 0.781c-0.735 0-1.401-0.299-1.884-0.781s-0.783-1.149-0.783-1.885c0-0.735 0.299-1.401 0.783-1.884s1.149-0.783 1.884-0.783c0.736 0 1.403 0.299 1.885 0.783s0.781 1.149 0.781 1.884zM1.333 8c0-1.837 0.747-3.504 1.955-4.712l1.884 1.884c-0.724 0.724-1.172 1.724-1.172 2.828s0.448 2.104 1.172 2.828l-1.884 1.884c-1.207-1.207-1.955-2.873-1.955-4.712zM12.712 12.712l-1.884-1.884c0.724-0.724 1.172-1.724 1.172-2.828s-0.448-2.104-1.172-2.828l1.884-1.884c1.207 1.208 1.955 2.875 1.955 4.712 0 1.839-0.747 3.505-1.955 4.712z"></path>
</svg>
