<?xml version="1.0" encoding="utf-8"?>
<!-- Generated by IcoMoon.io -->
<!DOCTYPE svg PUBLIC "-//W3C//DTD SVG 1.1//EN" "http://www.w3.org/Graphics/SVG/1.1/DTD/svg11.dtd">
<svg version="1.1" xmlns="http://www.w3.org/2000/svg" xmlns:xlink="http://www.w3.org/1999/xlink" width="16" height="16" viewBox="0 0 16 16">
<path d="M8 6.656c0.719 0 1.344 0.625 1.344 1.344s-0.625 1.344-1.344 1.344-1.344-0.625-1.344-1.344 0.625-1.344 1.344-1.344zM11.781 11.781c1.031-1.031 1.563-2.406 1.563-3.781s-0.531-2.75-1.563-3.781l-0.969 0.969c0.781 0.781 1.188 1.781 1.188 2.813s-0.375 2.063-1.156 2.844zM8 10.656c1.469 0 2.656-1.188 2.656-2.656s-1.188-2.656-2.656-2.656-2.656 1.188-2.656 2.656 1.188 2.656 2.656 2.656zM5.188 10.813c-0.781-0.781-1.188-1.781-1.188-2.813s0.375-2.063 1.156-2.844l-0.938-0.938c-1.031 1.031-1.563 2.406-1.563 3.781s0.531 2.75 1.563 3.781zM13.344 2.656c0.719 0 1.313 0.625 1.313 1.344v8c0 0.719-0.594 1.344-1.313 1.344h-10.688c-0.719 0-1.313-0.625-1.313-1.344v-8c0-0.719 0.594-1.344 1.313-1.344h10.688z"></path>
</svg>
