<?xml version="1.0" encoding="utf-8"?>
<!-- Generated by IcoMoon.io -->
<!DOCTYPE svg PUBLIC "-//W3C//DTD SVG 1.1//EN" "http://www.w3.org/Graphics/SVG/1.1/DTD/svg11.dtd">
<svg version="1.1" xmlns="http://www.w3.org/2000/svg" xmlns:xlink="http://www.w3.org/1999/xlink" width="16" height="16" viewBox="0 0 16 16">
<path d="M12 2.656l2.656 2.688h-2v4.656c0 1.469-1.188 2.656-2.656 2.656s-2.656-1.188-2.656-2.656v-4.656c0-0.719-0.625-1.344-1.344-1.344s-1.344 0.625-1.344 1.344v4.656h2l-2.656 2.656-2.656-2.656h2v-4.656c0-1.469 1.188-2.688 2.656-2.688s2.656 1.219 2.656 2.688v4.656c0 0.719 0.625 1.344 1.344 1.344s1.344-0.625 1.344-1.344v-4.656h-2z"></path>
</svg>
