<?xml version="1.0" encoding="utf-8"?>
<!-- Generated by IcoMoon.io -->
<!DOCTYPE svg PUBLIC "-//W3C//DTD SVG 1.1//EN" "http://www.w3.org/Graphics/SVG/1.1/DTD/svg11.dtd">
<svg version="1.1" xmlns="http://www.w3.org/2000/svg" xmlns:xlink="http://www.w3.org/1999/xlink" width="16" height="16" viewBox="0 0 16 16">
<path d="M8.229 15.057c-1.143-0.186-2.186-0.486-2.942-0.738-0.037-0.012-0.625-0.226-0.806-0.296-0.222-0.086-0.338-0.345-0.254-0.568 0.069-0.18 0.303-0.759 0.319-0.795 0.32-0.736 0.8-1.722 1.436-2.703 0.023 0.962 0.238 1.919 0.633 2.805 0.384 0.862 0.935 1.645 1.613 2.296zM8.138 5.622c-2.233-4.551-7.192-4.389-7.974-2.354-0.601 1.562 2.028 5.282 8.078 2.595 0.002-0.001 0.002-0.001 0.003-0.002-0.021-0.038-0.091-0.198-0.106-0.239zM9.248 5.444c0.001 0 0.002-0.001 0.002-0.001 3.417-1.518 2.939-4.153 2.055-4.491-1.19-0.455-3.352 1.299-2.118 4.358 0.012 0.022 0.053 0.112 0.061 0.134zM15.53 8.776c-0.517-1.16-1.466-1.991-2.57-2.387-0.111-0.040-0.225-0.058-0.338-0.058-0.574 0-1.126 0.476-1.178 1.070-0.087 0.991 0.11 2.001 0.544 2.974 0.428 0.959 1.035 1.77 1.816 2.366 0.203 0.155 0.452 0.228 0.7 0.228 0.447 0 0.894-0.237 1.071-0.661 0.457-1.090 0.478-2.362-0.045-3.532zM12.938 13.871c-0.956-0.73-1.714-1.711-2.252-2.917-0.546-1.223-0.769-2.46-0.662-3.677 0.030-0.338 0.129-0.665 0.288-0.963-0.028 0.007-0.089 0.022-0.091 0.022-0.502 0.126-0.99 0.343-1.422 0.627-0.627 0.411-1.18 1.022-1.418 1.742-0.064 0.194-0.113 0.408-0.129 0.612-0.076 0.974 0.082 1.981 0.509 2.936 0.413 0.924 1.028 1.694 1.77 2.282 0.453 0.358 1.269 0.584 1.936 0.584 0.626 0 1.245-0.186 1.8-0.468 0.174-0.088 0.556-0.326 0.581-0.343-0.332-0.085-0.643-0.234-0.91-0.438z"></path>
</svg>
