<?xml version="1.0" encoding="utf-8"?>
<!-- Generated by IcoMoon.io -->
<!DOCTYPE svg PUBLIC "-//W3C//DTD SVG 1.1//EN" "http://www.w3.org/Graphics/SVG/1.1/DTD/svg11.dtd">
<svg version="1.1" xmlns="http://www.w3.org/2000/svg" xmlns:xlink="http://www.w3.org/1999/xlink" width="16" height="16" viewBox="0 0 16 16">
<path d="M7.667 9.333c0.55 0 1-0.6 1-1.333v-5.333c0-0.733-0.45-1.333-1-1.333s-1 0.6-1 1.333v5.333c0 0.733 0.45 1.333 1 1.333zM10 3.125v1.463c1.583 0.839 2.667 2.499 2.667 4.412 0 2.757-2.243 5-5 5s-5-2.243-5-5c0-1.913 1.083-3.573 2.667-4.412v-1.463c-2.339 0.931-4 3.208-4 5.875 0 3.492 2.841 6.333 6.333 6.333s6.333-2.841 6.333-6.333c0-2.667-1.661-4.944-4-5.875z"></path>
</svg>
