<?xml version="1.0" encoding="utf-8"?>
<!-- Generated by IcoMoon.io -->
<!DOCTYPE svg PUBLIC "-//W3C//DTD SVG 1.1//EN" "http://www.w3.org/Graphics/SVG/1.1/DTD/svg11.dtd">
<svg version="1.1" xmlns="http://www.w3.org/2000/svg" xmlns:xlink="http://www.w3.org/1999/xlink" width="16" height="16" viewBox="0 0 16 16">
<path d="M7.344 8.656v-4h1.313v4h-1.313zM14 2.656l-1.563 1.594c0.969 0.969 1.563 2.281 1.563 3.75 0 2.5-1.688 4.563-4 5.156v-1.375c1.563-0.531 2.656-2.031 2.656-3.781 0-1.094-0.438-2.094-1.156-2.813l-1.5 1.469v-4h4zM7.344 11.344v-1.344h1.313v1.344h-1.313zM2 8c0-2.5 1.688-4.563 4-5.156v1.375c-1.563 0.531-2.656 2.031-2.656 3.781 0 1.094 0.438 2.094 1.156 2.813l1.5-1.469v4h-4l1.563-1.594c-0.969-0.969-1.563-2.281-1.563-3.75z"></path>
</svg>
