<?xml version="1.0" encoding="utf-8"?>
<!-- Generated by IcoMoon.io -->
<!DOCTYPE svg PUBLIC "-//W3C//DTD SVG 1.1//EN" "http://www.w3.org/Graphics/SVG/1.1/DTD/svg11.dtd">
<svg version="1.1" xmlns="http://www.w3.org/2000/svg" xmlns:xlink="http://www.w3.org/1999/xlink" width="16" height="16" viewBox="0 0 16 16">
<path d="M8 12v-2l2.656 2.656-2.656 2.688v-2c-2.938 0-5.344-2.406-5.344-5.344 0-1.031 0.313-2.031 0.844-2.844l0.969 0.969c-0.313 0.563-0.469 1.188-0.469 1.875 0 2.219 1.781 4 4 4zM8 2.656c2.938 0 5.344 2.406 5.344 5.344 0 1.031-0.313 2.031-0.844 2.844l-0.969-0.969c0.313-0.563 0.469-1.188 0.469-1.875 0-2.219-1.781-4-4-4v2l-2.656-2.656 2.656-2.688v2z"></path>
</svg>
