<?xml version="1.0" encoding="utf-8"?>
<!-- Generated by IcoMoon.io -->
<!DOCTYPE svg PUBLIC "-//W3C//DTD SVG 1.1//EN" "http://www.w3.org/Graphics/SVG/1.1/DTD/svg11.dtd">
<svg version="1.1" xmlns="http://www.w3.org/2000/svg" xmlns:xlink="http://www.w3.org/1999/xlink" width="16" height="16" viewBox="0 0 16 16">
<path d="M13.344 2.656l-1.594 1.594c0.969 0.969 1.594 2.281 1.594 3.75 0 1.031-0.313 2-0.813 2.813l-1-0.969c0.281-0.563 0.469-1.188 0.469-1.844 0-1.094-0.469-2.094-1.188-2.813l-1.469 1.469v-4h4zM1.906 3.594l0.844-0.844 10.469 10.5-0.844 0.844-1.563-1.563c-0.469 0.281-0.969 0.5-1.5 0.625v-1.375c0.188-0.063 0.375-0.156 0.531-0.25l-5.375-5.375c-0.281 0.563-0.469 1.188-0.469 1.844 0 1.094 0.469 2.094 1.188 2.813l1.469-1.469v4h-4l1.594-1.594c-0.969-0.969-1.594-2.281-1.594-3.75 0-1.031 0.313-2 0.813-2.813zM6.656 4.219c-0.188 0.063-0.344 0.156-0.5 0.25l-0.969-1c0.469-0.281 0.938-0.5 1.469-0.625v1.375z"></path>
</svg>
