<?xml version="1.0" encoding="utf-8"?>
<!-- Generated by IcoMoon.io -->
<!DOCTYPE svg PUBLIC "-//W3C//DTD SVG 1.1//EN" "http://www.w3.org/Graphics/SVG/1.1/DTD/svg11.dtd">
<svg version="1.1" xmlns="http://www.w3.org/2000/svg" xmlns:xlink="http://www.w3.org/1999/xlink" width="16" height="16" viewBox="0 0 16 16">
<path d="M13.068 3.403l0.943 0.943 0.943-0.943-2.357-2.357-0.943 0.943 0.943 0.943-1.415 1.415-2.829-2.829-0.943 0.943 0.943 0.943-7.070 7.071 1.616 1.617-1.852 2.862 2.862-1.851 1.616 1.616 7.072-7.071 0.943 0.943 0.943-0.943-2.829-2.828 1.415-1.415zM11.653 6.704l-1.415 1.414-1.414-1.415-0.471 0.471 1.414 1.415-0.943 0.943-1.414-1.415-0.471 0.471 1.414 1.415-0.943 0.943-1.414-1.415-0.471 0.471 1.414 1.415-1.414 1.414-2.357-2.357 6.127-6.128 2.358 2.357z"></path>
</svg>
