<?xml version="1.0" encoding="utf-8"?>
<!-- Generated by IcoMoon.io -->
<!DOCTYPE svg PUBLIC "-//W3C//DTD SVG 1.1//EN" "http://www.w3.org/Graphics/SVG/1.1/DTD/svg11.dtd">
<svg version="1.1" xmlns="http://www.w3.org/2000/svg" xmlns:xlink="http://www.w3.org/1999/xlink" width="16" height="16" viewBox="0 0 16 16">
<path d="M11.344 14v-1.344h1.313v1.344h-1.313zM8.656 14v-1.344h1.344v1.344h-1.344zM14 8.656v-1.313h1.344v1.313h-1.344zM14 14v-1.344h1.344c0 0.719-0.625 1.344-1.344 1.344zM3.344 3.344v-1.344h1.313v1.344h-1.313zM3.344 14v-1.344h1.313v1.344h-1.313zM6 3.344v-1.344h1.344v1.344h-1.344zM14 11.344v-1.344h1.344v1.344h-1.344zM14 2c0.719 0 1.344 0.625 1.344 1.344v2.656h-6.688v-4h5.344zM2 14c-0.719 0-1.344-0.625-1.344-1.344h1.344v1.344zM0.656 11.344v-1.344h1.344v1.344h-1.344zM6 14v-1.344h1.344v1.344h-1.344zM0.656 3.344c0-0.719 0.625-1.344 1.344-1.344v1.344h-1.344zM0.656 8.656v-1.313h1.344v1.313h-1.344zM0.656 6v-1.344h1.344v1.344h-1.344z"></path>
</svg>
