<?xml version="1.0" encoding="utf-8"?>
<!-- Generated by IcoMoon.io -->
<!DOCTYPE svg PUBLIC "-//W3C//DTD SVG 1.1//EN" "http://www.w3.org/Graphics/SVG/1.1/DTD/svg11.dtd">
<svg version="1.1" xmlns="http://www.w3.org/2000/svg" xmlns:xlink="http://www.w3.org/1999/xlink" width="16" height="16" viewBox="0 0 16 16">
<path d="M12.8 0h-9.6c-0.88 0-1.6 0.719-1.6 1.6v12.8c0 0.88 0.72 1.6 1.6 1.6h9.6c0.881 0 1.6-0.72 1.6-1.6v-12.8c0-0.881-0.719-1.6-1.6-1.6zM8 15.2c-0.552 0-1-0.358-1-0.8s0.448-0.8 1-0.8c0.551 0 1 0.358 1 0.8s-0.449 0.8-1 0.8zM12.8 12.8h-9.6v-11.2h9.6v11.2z"></path>
</svg>
