<?xml version="1.0" encoding="utf-8"?>
<!-- Generated by IcoMoon.io -->
<!DOCTYPE svg PUBLIC "-//W3C//DTD SVG 1.1//EN" "http://www.w3.org/Graphics/SVG/1.1/DTD/svg11.dtd">
<svg version="1.1" xmlns="http://www.w3.org/2000/svg" xmlns:xlink="http://www.w3.org/1999/xlink" width="16" height="16" viewBox="0 0 16 16">
<path d="M11.344 0.688c0.719 0 1.313 0.594 1.313 1.313v11.344c0 0.719-0.594 1.313-1.313 1.313h-1.406c-0.063-0.938-0.281-1.813-0.625-2.656h2.031v-8.656h-6.688v4c-0.438-0.188-0.844-0.344-1.313-0.438v-4.906c0-0.719 0.594-1.344 1.313-1.344zM1.344 8c4.063 0 7.313 3.281 7.313 7.344h-1.313c0-3.313-2.688-6-6-6v-1.344zM1.344 13.344c1.094 0 2 0.906 2 2h-2v-2zM1.344 10.656c2.594 0 4.656 2.094 4.656 4.688h-1.344c0-1.844-1.469-3.344-3.313-3.344v-1.344z"></path>
</svg>
