<?xml version="1.0" encoding="utf-8"?>
<!-- Generated by IcoMoon.io -->
<!DOCTYPE svg PUBLIC "-//W3C//DTD SVG 1.1//EN" "http://www.w3.org/Graphics/SVG/1.1/DTD/svg11.dtd">
<svg version="1.1" xmlns="http://www.w3.org/2000/svg" xmlns:xlink="http://www.w3.org/1999/xlink" width="16" height="16" viewBox="0 0 16 16">
<path d="M12.4 8.8h-8.8c-0.22 0-0.4 0.18-0.4 0.4v0.8c0 0.221 0.18 0.4 0.4 0.4h8.8c0.221 0 0.4-0.179 0.4-0.4v-0.8c0-0.22-0.179-0.4-0.4-0.4zM12.4 5.6h-8.8c-0.22 0-0.4 0.18-0.4 0.4v0.8c0 0.221 0.18 0.4 0.4 0.4h8.8c0.221 0 0.4-0.179 0.4-0.4v-0.8c0-0.22-0.179-0.4-0.4-0.4zM8.4 12h-4.8c-0.22 0-0.4 0.18-0.4 0.4v0.8c0 0.221 0.18 0.4 0.4 0.4h4.8c0.221 0 0.4-0.179 0.4-0.4v-0.8c0-0.22-0.179-0.4-0.4-0.4zM12.4 2.4h-8.8c-0.22 0-0.4 0.18-0.4 0.4v0.8c0 0.221 0.18 0.4 0.4 0.4h8.8c0.221 0 0.4-0.179 0.4-0.4v-0.8c0-0.22-0.179-0.4-0.4-0.4z"></path>
</svg>
