<?xml version="1.0" encoding="utf-8"?>
<!-- Generated by IcoMoon.io -->
<!DOCTYPE svg PUBLIC "-//W3C//DTD SVG 1.1//EN" "http://www.w3.org/Graphics/SVG/1.1/DTD/svg11.dtd">
<svg version="1.1" xmlns="http://www.w3.org/2000/svg" xmlns:xlink="http://www.w3.org/1999/xlink" width="16" height="16" viewBox="0 0 16 16">
<path d="M10.4 8.098v-7.298c0-0.442-0.358-0.8-0.8-0.8h-3.361c-0.442 0-0.639 0.358-0.639 0.8v7.298c-1.155 0.775-1.92 2.086-1.92 3.582 0 2.386 1.934 4.32 4.32 4.32s4.32-1.934 4.32-4.32c0-1.495-0.765-2.806-1.92-3.582zM8 14.32c-1.458 0-2.64-1.182-2.64-2.64 0-1.178 0.776-2.162 1.84-2.503v-5.977h1.6v5.977c1.064 0.341 1.84 1.326 1.84 2.503 0 1.458-1.182 2.64-2.64 2.64z"></path>
</svg>
