<?xml version="1.0" encoding="utf-8"?>
<!-- Generated by IcoMoon.io -->
<!DOCTYPE svg PUBLIC "-//W3C//DTD SVG 1.1//EN" "http://www.w3.org/Graphics/SVG/1.1/DTD/svg11.dtd">
<svg version="1.1" xmlns="http://www.w3.org/2000/svg" xmlns:xlink="http://www.w3.org/1999/xlink" width="16" height="16" viewBox="0 0 16 16">
<path d="M15 6.656c0.563 0 1 0.438 1 1v4.344c0 0.281-0.094 0.531-0.281 0.719l-3.313 3.281-0.531-0.531c-0.125-0.125-0.219-0.313-0.219-0.531 0.155-0.762 0.313-1.521 0.469-2.281h-3.469c-0.375 0-0.656-0.281-0.656-0.656v-0.844c0-0.125 0.031-0.219 0.063-0.344l1.531-3.531c0.156-0.344 0.5-0.625 0.906-0.625h4.5zM8 4v0.844c0 0.125-0.031 0.219-0.063 0.344l-1.531 3.531c-0.156 0.344-0.5 0.625-0.906 0.625h-4.5c-0.563 0-1-0.438-1-1v-4.344c0-0.281 0.094-0.531 0.281-0.719l3.313-3.281 0.531 0.531c0.125 0.125 0.219 0.313 0.219 0.531-0.155 0.762-0.313 1.521-0.469 2.281h3.469c0.375 0 0.656 0.281 0.656 0.656z"></path>
</svg>
