<?xml version="1.0" encoding="utf-8"?>
<!-- Generated by IcoMoon.io -->
<!DOCTYPE svg PUBLIC "-//W3C//DTD SVG 1.1//EN" "http://www.w3.org/Graphics/SVG/1.1/DTD/svg11.dtd">
<svg version="1.1" xmlns="http://www.w3.org/2000/svg" xmlns:xlink="http://www.w3.org/1999/xlink" width="16" height="16" viewBox="0 0 16 16">
<path d="M5.082 10.11c0.106 0.285-2.831 2.907-1.118 5.033 0.401 0.497 1.761-2.38 3.692-3.682 1.065-0.719 3.544-2.249 3.544-3.094v-5.474c0-1.017-3.931-2.094-6.918-2.094-1.095 0-2.682 6.861-2.682 7.951 0 1.094 3.377 1.074 3.482 1.359zM12 10.034c0.526 0 2.4-0.32 2.4-2.498v-3.878c0-2.177-1.874-2.417-2.4-2.417s0.8 0.458 0.8 1.808v5.098c0 1.414-1.326 1.887-0.8 1.887z"></path>
</svg>
