<?xml version="1.0" encoding="utf-8"?>
<!-- Generated by IcoMoon.io -->
<!DOCTYPE svg PUBLIC "-//W3C//DTD SVG 1.1//EN" "http://www.w3.org/Graphics/SVG/1.1/DTD/svg11.dtd">
<svg version="1.1" xmlns="http://www.w3.org/2000/svg" xmlns:xlink="http://www.w3.org/1999/xlink" width="16" height="16" viewBox="0 0 16 16">
<path d="M15.344 6.656l-0.031 0.063h0.031v1.281c0 0.188-0.031 0.344-0.094 0.5l-2.031 4.688c-0.188 0.469-0.656 0.813-1.219 0.813h-6c-0.719 0-1.344-0.625-1.344-1.344v-6.656c0-0.375 0.156-0.688 0.406-0.938l4.375-4.406 0.719 0.719c0.188 0.188 0.281 0.406 0.281 0.688v0.219l-0.656 3.063h4.219c0.719 0 1.344 0.594 1.344 1.313zM0.656 14v-8h2.688v8h-2.688z"></path>
</svg>
