<?xml version="1.0" encoding="utf-8"?>
<!-- Generated by IcoMoon.io -->
<!DOCTYPE svg PUBLIC "-//W3C//DTD SVG 1.1//EN" "http://www.w3.org/Graphics/SVG/1.1/DTD/svg11.dtd">
<svg version="1.1" xmlns="http://www.w3.org/2000/svg" xmlns:xlink="http://www.w3.org/1999/xlink" width="16" height="16" viewBox="0 0 16 16">
<path d="M10.918 5.89c-0.106-0.284 2.831-2.907 1.118-5.033-0.401-0.497-1.761 2.38-3.692 3.682-1.066 0.718-3.545 2.248-3.545 3.094v5.474c0 1.017 3.931 2.094 6.918 2.094 1.095 0 2.682-6.861 2.682-7.95 0-1.094-3.377-1.075-3.482-1.36zM4 5.966c-0.526 0-2.4 0.32-2.4 2.498v3.878c0 2.177 1.874 2.417 2.4 2.417s-0.8-0.458-0.8-1.808v-5.098c0-1.414 1.326-1.887 0.8-1.887z"></path>
</svg>
