<?xml version="1.0" encoding="utf-8"?>
<!-- Generated by IcoMoon.io -->
<!DOCTYPE svg PUBLIC "-//W3C//DTD SVG 1.1//EN" "http://www.w3.org/Graphics/SVG/1.1/DTD/svg11.dtd">
<svg version="1.1" xmlns="http://www.w3.org/2000/svg" xmlns:xlink="http://www.w3.org/1999/xlink" width="16" height="16" viewBox="0 0 16 16">
<path d="M12.17 5.313c-0.221 0-0.437 0.018-0.647 0.053-0.525-1.716-2.151-2.966-4.076-2.966-2.351 0-4.256 1.862-4.256 4.159 0 0.206 0.016 0.408 0.046 0.605-0.114-0.013-0.227-0.022-0.343-0.022-1.598 0-2.894 1.267-2.894 2.828 0 1.562 1.295 2.83 2.894 2.83h9.277c2.114 0 3.83-1.677 3.83-3.744 0-2.069-1.715-3.743-3.83-3.743zM9.097 8.761c-0.395 0.562-2.091 2.311-2.163 2.384-0.083 0.103-0.313 0.275-0.53 0.133-0.063-0.041-0.138-0.122-0.138-0.283 0-0.154 0.070-0.313 0.078-0.33l0.826-1.83c-0.154-0.062-0.422-0.169-0.628-0.259l-0.054-0.023c-0.21-0.089-0.47-0.2-0.47-0.486 0-0.138 0.065-0.298 0.199-0.487 0.396-0.564 2.091-2.311 2.164-2.386 0.082-0.102 0.312-0.274 0.53-0.133 0.062 0.041 0.137 0.123 0.137 0.283 0 0.154-0.070 0.313-0.078 0.331l-0.827 1.828c0.156 0.062 0.422 0.17 0.63 0.259l0.054 0.023c0.21 0.089 0.47 0.2 0.47 0.487 0 0.138-0.066 0.297-0.2 0.487z"></path>
</svg>
