<?xml version="1.0" encoding="utf-8"?>
<!-- Generated by IcoMoon.io -->
<!DOCTYPE svg PUBLIC "-//W3C//DTD SVG 1.1//EN" "http://www.w3.org/Graphics/SVG/1.1/DTD/svg11.dtd">
<svg version="1.1" xmlns="http://www.w3.org/2000/svg" xmlns:xlink="http://www.w3.org/1999/xlink" width="16" height="16" viewBox="0 0 16 16">
<path d="M3.925 9.233l2.841 2.842 5.214-5.214-2.842-2.841-5.213 5.213zM15.283 5.331l-1.209-1.21c-0.231 0.125-0.494 0.197-0.775 0.197-0.894 0-1.619-0.725-1.619-1.618 0-0.282 0.071-0.546 0.197-0.775l-1.209-1.21c-0.315-0.314-0.83-0.314-1.146 0l-8.808 8.808c-0.314 0.314-0.314 0.83 0 1.146l1.21 1.208c0.231-0.125 0.494-0.197 0.776-0.197 0.894 0 1.618 0.725 1.618 1.62 0 0.28-0.071 0.544-0.197 0.775l1.21 1.208c0.315 0.315 0.83 0.315 1.146 0l8.806-8.806c0.315-0.316 0.315-0.831 0-1.146zM6.766 13.375l-4.141-4.142 6.514-6.513 4.141 4.141-6.514 6.514z"></path>
</svg>
