<?xml version="1.0" encoding="utf-8"?>
<!-- Generated by IcoMoon.io -->
<!DOCTYPE svg PUBLIC "-//W3C//DTD SVG 1.1//EN" "http://www.w3.org/Graphics/SVG/1.1/DTD/svg11.dtd">
<svg version="1.1" xmlns="http://www.w3.org/2000/svg" xmlns:xlink="http://www.w3.org/1999/xlink" width="16" height="16" viewBox="0 0 16 16">
<path d="M8 13.344c0.844 0 1.656-0.25 2.344-0.656l-6.375-6.375c-0.406 0.688-0.625 1.5-0.625 2.344 0 2.594 2.063 4.688 4.656 4.688zM2 2.656l11.844 11.844-0.844 0.844-1.688-1.688c-0.969 0.625-2.094 1-3.313 1-3.313 0-6-2.688-6-6 0-1.219 0.375-2.375 1-3.313l-1.844-1.844zM7.344 6.281v-0.938h1.313v2.281zM10 0.656v1.344h-4v-1.344h4zM12.688 3.031l0.938 0.938-0.938 0.969c0.813 1.031 1.313 2.313 1.313 3.719 0 1.219-0.375 2.375-1 3.313l-0.969-0.969c0.406-0.688 0.625-1.5 0.625-2.344 0-2.594-2.063-4.656-4.656-4.656-0.844 0-1.625 0.219-2.313 0.625l-1-0.969c0.938-0.625 2.094-1 3.313-1 1.406 0 2.719 0.5 3.75 1.313z"></path>
</svg>
