<?xml version="1.0" encoding="utf-8"?>
<!-- Generated by IcoMoon.io -->
<!DOCTYPE svg PUBLIC "-//W3C//DTD SVG 1.1//EN" "http://www.w3.org/Graphics/SVG/1.1/DTD/svg11.dtd">
<svg version="1.1" xmlns="http://www.w3.org/2000/svg" xmlns:xlink="http://www.w3.org/1999/xlink" width="16" height="16" viewBox="0 0 16 16">
<path d="M8 13.344c2.938 0 5.344-2.406 5.344-5.344s-2.406-5.344-5.344-5.344-5.344 2.406-5.344 5.344 2.406 5.344 5.344 5.344zM8 1.344c3.688 0 6.656 2.969 6.656 6.656s-2.969 6.656-6.656 6.656-6.656-2.969-6.656-6.656 2.969-6.656 6.656-6.656zM10.813 5.188c1.563 1.563 1.594 4.063 0.031 5.625s-4.094 1.563-5.656 0l2.813-2.813v-4c1.031 0 2.031 0.406 2.813 1.188z"></path>
</svg>
