<?xml version="1.0" encoding="utf-8"?>
<!-- Generated by IcoMoon.io -->
<!DOCTYPE svg PUBLIC "-//W3C//DTD SVG 1.1//EN" "http://www.w3.org/Graphics/SVG/1.1/DTD/svg11.dtd">
<svg version="1.1" xmlns="http://www.w3.org/2000/svg" xmlns:xlink="http://www.w3.org/1999/xlink" width="16" height="16" viewBox="0 0 16 16">
<path d="M8 13.344c2.594 0 4.656-2.094 4.656-4.688s-2.063-4.656-4.656-4.656-4.656 2.063-4.656 4.656 2.063 4.688 4.656 4.688zM12.688 4.938c0.813 1.031 1.313 2.313 1.313 3.719 0 3.313-2.688 6-6 6s-6-2.688-6-6 2.688-6 6-6c1.406 0 2.719 0.531 3.75 1.344l0.938-0.969c0.344 0.281 0.656 0.594 0.938 0.938zM7.344 9.344v-4h1.313v4h-1.313zM10 0.656v1.344h-4v-1.344h4z"></path>
</svg>
