<?xml version="1.0" encoding="utf-8"?>
<!-- Generated by IcoMoon.io -->
<!DOCTYPE svg PUBLIC "-//W3C//DTD SVG 1.1//EN" "http://www.w3.org/Graphics/SVG/1.1/DTD/svg11.dtd">
<svg version="1.1" xmlns="http://www.w3.org/2000/svg" xmlns:xlink="http://www.w3.org/1999/xlink" width="16" height="16" viewBox="0 0 16 16">
<path d="M15.344 5.344c0 0.719-0.625 1.313-1.344 1.313-0.125 0-0.25 0-0.344-0.031l-2.375 2.375c0.031 0.094 0.063 0.219 0.063 0.344 0 0.719-0.625 1.313-1.344 1.313s-1.344-0.594-1.344-1.313c0-0.125 0.031-0.25 0.063-0.344l-1.719-1.719c-0.094 0.031-0.219 0.063-0.344 0.063s-0.25-0.031-0.344-0.063l-3.031 3.031c0.031 0.094 0.063 0.219 0.063 0.344 0 0.719-0.625 1.344-1.344 1.344s-1.344-0.625-1.344-1.344 0.625-1.313 1.344-1.313c0.125 0 0.25 0 0.344 0.031l3.031-3.031c-0.031-0.094-0.031-0.219-0.031-0.344 0-0.719 0.594-1.344 1.313-1.344s1.344 0.625 1.344 1.344c0 0.125 0 0.25-0.031 0.344l1.688 1.688c0.094-0.031 0.219-0.031 0.344-0.031s0.25 0 0.344 0.031l2.375-2.344c-0.031-0.094-0.063-0.219-0.063-0.344 0-0.719 0.625-1.344 1.344-1.344s1.344 0.625 1.344 1.344z"></path>
</svg>
