<?xml version="1.0" encoding="utf-8"?>
<!-- Generated by IcoMoon.io -->
<!DOCTYPE svg PUBLIC "-//W3C//DTD SVG 1.1//EN" "http://www.w3.org/Graphics/SVG/1.1/DTD/svg11.dtd">
<svg version="1.1" xmlns="http://www.w3.org/2000/svg" xmlns:xlink="http://www.w3.org/1999/xlink" width="16" height="16" viewBox="0 0 16 16">
<path d="M2 8c0 1.75 1.094 3.25 2.656 3.781v1.375c-2.313-0.594-4-2.656-4-5.156s1.688-4.563 4-5.156v1.375c-1.563 0.531-2.656 2.031-2.656 3.781zM10 12c2.219 0 4-1.781 4-4s-1.781-4-4-4-4 1.781-4 4 1.781 4 4 4zM10 2.656c2.938 0 5.344 2.406 5.344 5.344s-2.406 5.344-5.344 5.344-5.344-2.406-5.344-5.344 2.406-5.344 5.344-5.344z"></path>
</svg>
