<?xml version="1.0" encoding="utf-8"?>
<!-- Generated by IcoMoon.io -->
<!DOCTYPE svg PUBLIC "-//W3C//DTD SVG 1.1//EN" "http://www.w3.org/Graphics/SVG/1.1/DTD/svg11.dtd">
<svg version="1.1" xmlns="http://www.w3.org/2000/svg" xmlns:xlink="http://www.w3.org/1999/xlink" width="16" height="16" viewBox="0 0 16 16">
<path d="M13.156 9.344c0.063-0.219 0.094-0.469 0.125-0.688h-4.625v0.688h4.5zM12.156 11.344c0.156-0.219 0.344-0.469 0.469-0.688h-3.969v0.688h3.5zM8.656 13.281c0.688-0.094 1.344-0.313 1.938-0.625h-1.938v0.625zM8.656 6.656v0.688h4.625c-0.031-0.219-0.063-0.469-0.125-0.688h-4.5zM8.656 4.656v0.688h3.969c-0.125-0.219-0.313-0.469-0.469-0.688h-3.5zM8.656 2.719v0.625h1.938c-0.594-0.313-1.25-0.531-1.938-0.625zM7.344 13.281v-10.563c-2.625 0.313-4.688 2.563-4.688 5.281s2.063 4.969 4.688 5.281zM8 1.344c3.688 0 6.656 2.969 6.656 6.656s-2.969 6.656-6.656 6.656-6.656-2.969-6.656-6.656 2.969-6.656 6.656-6.656z"></path>
</svg>
