<?xml version="1.0" encoding="utf-8"?>
<!-- Generated by IcoMoon.io -->
<!DOCTYPE svg PUBLIC "-//W3C//DTD SVG 1.1//EN" "http://www.w3.org/Graphics/SVG/1.1/DTD/svg11.dtd">
<svg version="1.1" xmlns="http://www.w3.org/2000/svg" xmlns:xlink="http://www.w3.org/1999/xlink" width="16" height="16" viewBox="0 0 16 16">
<path d="M12.563 10.594c0.344 0.156 0.594 0.5 0.594 0.906v0.125l-0.5 3.531c-0.063 0.5-0.469 0.844-0.969 0.844h-4.531c-0.281 0-0.5-0.094-0.688-0.281l-3.313-3.313 0.531-0.531c0.125-0.125 0.313-0.219 0.531-0.219 0.063 0 0.094 0.031 0.156 0.031l2.281 0.469v-7.156c0-0.563 0.438-1 1-1s1 0.438 1 1v4h0.531c0.125 0 0.219 0.031 0.344 0.063zM6 7.5c-0.813-0.531-1.344-1.469-1.344-2.5 0-1.656 1.344-3 3-3s3 1.344 3 3c0 1.031-0.5 1.969-1.313 2.5v-2.5c0-0.906-0.781-1.656-1.688-1.656s-1.656 0.75-1.656 1.656v2.5z"></path>
</svg>
