<?xml version="1.0" encoding="utf-8"?>
<!-- Generated by IcoMoon.io -->
<!DOCTYPE svg PUBLIC "-//W3C//DTD SVG 1.1//EN" "http://www.w3.org/Graphics/SVG/1.1/DTD/svg11.dtd">
<svg version="1.1" xmlns="http://www.w3.org/2000/svg" xmlns:xlink="http://www.w3.org/1999/xlink" width="16" height="16" viewBox="0 0 16 16">
<path d="M12.719 3.281c1.219 1.219 1.938 2.875 1.938 4.719 0 3.688-2.969 6.656-6.656 6.656s-6.656-2.969-6.656-6.656 2.969-6.656 6.656-6.656h0.656v5.5c0.406 0.219 0.688 0.656 0.688 1.156 0 0.719-0.625 1.344-1.344 1.344s-1.344-0.625-1.344-1.344c0-0.5 0.281-0.938 0.688-1.156v-1.406c-1.156 0.313-2 1.313-2 2.563 0 1.469 1.188 2.656 2.656 2.656s2.656-1.188 2.656-2.656c0-0.719-0.313-1.375-0.781-1.875l0.938-0.938c0.719 0.719 1.188 1.719 1.188 2.813 0 2.219-1.781 4-4 4s-4-1.781-4-4c0-1.969 1.438-3.625 3.344-3.938v-1.344c-2.625 0.313-4.688 2.563-4.688 5.281 0 2.938 2.406 5.344 5.344 5.344s5.344-2.406 5.344-5.344c0-1.469-0.594-2.813-1.563-3.781z"></path>
</svg>
