<?xml version="1.0" encoding="utf-8"?>
<!-- Generated by IcoMoon.io -->
<!DOCTYPE svg PUBLIC "-//W3C//DTD SVG 1.1//EN" "http://www.w3.org/Graphics/SVG/1.1/DTD/svg11.dtd">
<svg version="1.1" xmlns="http://www.w3.org/2000/svg" xmlns:xlink="http://www.w3.org/1999/xlink" width="16" height="16" viewBox="0 0 16 16">
<path d="M8 6c0.75 0 1.344-0.625 1.344-1.344 0-0.75-0.625-1.313-1.344-1.313-0.75 0-1.344 0.563-1.344 1.313 0 0.719 0.594 1.344 1.344 1.344zM8 9.344c0.75 0 1.344-0.625 1.344-1.344s-0.625-1.344-1.344-1.344c-0.75 0-1.344 0.625-1.344 1.344s0.594 1.344 1.344 1.344zM8 12.656c0.75 0 1.344-0.594 1.344-1.313s-0.625-1.344-1.344-1.344c-0.75 0-1.344 0.625-1.344 1.344s0.594 1.313 1.344 1.313zM13.344 6.656c0 1.25-0.844 2.281-2 2.594v0.75h2c0 1.25-0.844 2.25-2 2.563v0.781c0 0.375-0.313 0.656-0.688 0.656h-5.313c-0.375 0-0.688-0.281-0.688-0.656v-0.781c-1.156-0.313-2-1.313-2-2.563h2v-0.75c-1.156-0.313-2-1.344-2-2.594h2v-0.75c-1.156-0.313-2-1.313-2-2.563h2v-0.688c0-0.375 0.313-0.656 0.688-0.656h5.313c0.375 0 0.688 0.281 0.688 0.656v0.688h2c0 1.25-0.844 2.25-2 2.563v0.75h2z"></path>
</svg>
