<?xml version="1.0" encoding="utf-8"?>
<!-- Generated by IcoMoon.io -->
<!DOCTYPE svg PUBLIC "-//W3C//DTD SVG 1.1//EN" "http://www.w3.org/Graphics/SVG/1.1/DTD/svg11.dtd">
<svg version="1.1" xmlns="http://www.w3.org/2000/svg" xmlns:xlink="http://www.w3.org/1999/xlink" width="16" height="16" viewBox="0 0 16 16">
<path d="M11 11.344c0.563 0 1-0.438 1-1s-0.438-1-1-1-1 0.438-1 1 0.438 1 1 1zM8.656 6.656h3.344v-2.656h-3.344v2.656zM7.344 6.656v-2.656h-3.344v2.656h3.344zM5 11.344c0.563 0 1-0.438 1-1s-0.438-1-1-1-1 0.438-1 1 0.438 1 1 1zM8 1.344c2.938 0 5.344 0.313 5.344 2.656v6.344c0 1.281-1.063 2.313-2.344 2.313l1 1v0.344h-1.344l-1.313-1.344h-2.531l-1.313 1.344h-1.5v-0.344l1-1c-1.281 0-2.344-1.031-2.344-2.313v-6.344c0-2.344 2.688-2.656 5.344-2.656z"></path>
</svg>
