<?xml version="1.0" encoding="utf-8"?>
<!-- Generated by IcoMoon.io -->
<!DOCTYPE svg PUBLIC "-//W3C//DTD SVG 1.1//EN" "http://www.w3.org/Graphics/SVG/1.1/DTD/svg11.dtd">
<svg version="1.1" xmlns="http://www.w3.org/2000/svg" xmlns:xlink="http://www.w3.org/1999/xlink" width="16" height="16" viewBox="0 0 16 16">
<path d="M11.344 9.344v-3.344h-6.688v3.344h6.688zM8 12.344c0.563 0 1-0.438 1-1s-0.438-1-1-1-1 0.438-1 1 0.438 1 1 1zM12.656 11.281c0 1.125-0.594 2.063-1.719 2.063h0.063l1 1v0.313h-1.344l-1.313-1.313h-2.531l-1.313 1.313h-1.5v-0.313l1.063-1.063c-0.938-0.219-1.719-1.031-1.719-2v-5.625c0-1.844 1.875-2.25 3.969-2.313l0.531-1h-3.188v-1h6.688v1h-2.188l-0.5 1c2.281 0.063 4 0.438 4 2.313v5.625z"></path>
</svg>
