<?xml version="1.0" encoding="utf-8"?>
<!-- Generated by IcoMoon.io -->
<!DOCTYPE svg PUBLIC "-//W3C//DTD SVG 1.1//EN" "http://www.w3.org/Graphics/SVG/1.1/DTD/svg11.dtd">
<svg version="1.1" xmlns="http://www.w3.org/2000/svg" xmlns:xlink="http://www.w3.org/1999/xlink" width="16" height="16" viewBox="0 0 16 16">
<path d="M3.844 5.938l-1.844 9.406h1.406l1.156-5.344 1.438 1.344v4h1.344v-5.031l-1.375-1.375 0.406-2c0.875 1.063 2.156 1.719 3.625 1.719v-1.313c-1.219 0-2.313-0.688-2.906-1.656l-0.625-1.063c-0.219-0.406-0.656-0.625-1.125-0.625-0.156 0-0.344 0.031-0.5 0.094l-3.5 1.438v3.125h1.313v-2.219l1.188-0.5zM6.344 3.656c-0.719 0-1.344-0.594-1.344-1.313s0.625-1.344 1.344-1.344 1.313 0.625 1.313 1.344-0.594 1.313-1.313 1.313zM13 13.156v-1.156l1.656 1.656-1.656 1.688v-1.188h-3.656v-1h3.656zM11 10.344h3.656v1h-3.656v1.156l-1.656-1.656 1.656-1.688v1.188z"></path>
</svg>
