<?xml version="1.0" encoding="utf-8"?>
<!-- Generated by IcoMoon.io -->
<!DOCTYPE svg PUBLIC "-//W3C//DTD SVG 1.1//EN" "http://www.w3.org/Graphics/SVG/1.1/DTD/svg11.dtd">
<svg version="1.1" xmlns="http://www.w3.org/2000/svg" xmlns:xlink="http://www.w3.org/1999/xlink" width="16" height="16" viewBox="0 0 16 16">
<path d="M10.594 11.344h2.156l-1.094-2.906zM12.344 6.656l3 8h-1.344l-0.75-2h-3.156l-0.75 2h-1.344l3-8h1.344zM8.594 10.031l-0.531 1.375-2.063-2.063-3.344 3.313-0.938-0.938 3.406-3.344c-0.844-0.938-1.5-1.938-2-3.031h1.344c0.406 0.781 0.906 1.531 1.531 2.219 0.969-1.063 1.688-2.281 2.125-3.563h-7.469v-1.344h4.688v-1.313h1.313v1.313h4.688v1.344h-1.969c-0.5 1.563-1.313 3.063-2.469 4.344l-0.031 0.031z"></path>
</svg>
