<?xml version="1.0" encoding="utf-8"?>
<!-- Generated by IcoMoon.io -->
<!DOCTYPE svg PUBLIC "-//W3C//DTD SVG 1.1//EN" "http://www.w3.org/Graphics/SVG/1.1/DTD/svg11.dtd">
<svg version="1.1" xmlns="http://www.w3.org/2000/svg" xmlns:xlink="http://www.w3.org/1999/xlink" width="16" height="16" viewBox="0 0 16 16">
<path d="M2.711 5.69l0.881 8.726c0.049 0.369 1.83 1.582 4.408 1.583 2.58-0.002 4.361-1.214 4.409-1.583l0.882-8.726c-1.347 0.754-3.361 1.11-5.29 1.11-1.928 0-3.942-0.356-5.289-1.11zM10.534 1.208l-0.687-0.761c-0.266-0.378-0.554-0.447-1.114-0.447h-1.465c-0.56 0-0.849 0.069-1.114 0.447l-0.687 0.761c-2.056 0.359-3.547 1.312-3.547 2.015v0.136c0 1.238 2.722 2.241 6.080 2.241s6.081-1.003 6.081-2.241v-0.136c0-0.703-1.49-1.656-3.546-2.015zM9.656 3.472l-0.856-1.072h-1.6l-0.854 1.072h-1.36c0 0 1.49-1.777 1.689-2.018 0.152-0.184 0.307-0.254 0.509-0.254h1.634c0.202 0 0.358 0.070 0.51 0.254 0.198 0.241 1.689 2.018 1.689 2.018h-1.36z"></path>
</svg>
