<?xml version="1.0" encoding="utf-8"?>
<!-- Generated by IcoMoon.io -->
<!DOCTYPE svg PUBLIC "-//W3C//DTD SVG 1.1//EN" "http://www.w3.org/Graphics/SVG/1.1/DTD/svg11.dtd">
<svg version="1.1" xmlns="http://www.w3.org/2000/svg" xmlns:xlink="http://www.w3.org/1999/xlink" width="16" height="16" viewBox="0 0 16 16">
<path d="M16 8c0-1.089-0.606-2.093-1.625-2.898-0.002-0.001-0.003-0.001-0.004-0.002-0.29-2.858-3.030-5.1-6.371-5.1s-6.082 2.242-6.371 5.1c-0.001 0.002-0.002 0.002-0.004 0.002-1.018 0.805-1.625 1.809-1.625 2.898 0 2.49 3.158 4.535 7.2 4.776 0 0.27 0 0.546 0 0.824 0 0.8-1.457 1.529-1.457 1.529-0.079 0.039-0.118 0.138-0.087 0.222 0 0 0.244 0.65 0.744 0.65s0.899-0.4 1.899-0.4 1.951 0.346 1.951 0.346c0.082 0.030 0.201 0.004 0.263-0.058l0.574-0.574c0.062-0.062 0.046-0.138-0.037-0.17 0 0-1.45-0.544-1.45-1.544 0-0.25 0-0.565 0-0.897 3.651-0.444 6.399-2.381 6.399-4.703zM1.6 8c0-0.815 0.614-1.556 1.618-2.121-0.008-0.093-0.018-0.186-0.018-0.279 0-2.21 2.15-4 4.8-4s4.8 1.79 4.8 4c0 0.094-0.010 0.186-0.017 0.279 1.002 0.565 1.617 1.306 1.617 2.121 0 1.491-2.041 2.739-4.799 3.095 0-0.321 0-0.534 0-0.534 0-0.088 0.052-0.21 0.116-0.27l1.466-1.381c0.064-0.061 0.117-0.182 0.117-0.27v-0.681c0-0.088-0.062-0.124-0.138-0.079l-1.423 0.838c-0.077 0.045-0.138 0.010-0.138-0.079v-2.879c0-0.088-0.068-0.138-0.152-0.11l-2.097 0.699c-0.083 0.028-0.151 0.122-0.151 0.21v2.080c0 0.088-0.063 0.126-0.142 0.086l-1.618-0.851c-0.078-0.041-0.192-0.024-0.254 0.038l-0.274 0.274c-0.062 0.062-0.058 0.161 0.007 0.218l2.16 1.889c0.066 0.058 0.12 0.178 0.12 0.266 0 0 0 0.238 0 0.612-3.156-0.196-5.601-1.539-5.601-3.171z"></path>
</svg>
