<?xml version="1.0" encoding="utf-8"?>
<!-- Generated by IcoMoon.io -->
<!DOCTYPE svg PUBLIC "-//W3C//DTD SVG 1.1//EN" "http://www.w3.org/Graphics/SVG/1.1/DTD/svg11.dtd">
<svg version="1.1" xmlns="http://www.w3.org/2000/svg" xmlns:xlink="http://www.w3.org/1999/xlink" width="16" height="16" viewBox="0 0 16 16">
<path d="M12.48 14.557c-0.622 0.297-1.184 0.505-1.687 0.625-0.504 0.118-1.049 0.178-1.634 0.178-0.665 0-1.253-0.086-1.764-0.254-0.511-0.17-0.946-0.413-1.308-0.726-0.361-0.316-0.611-0.65-0.75-1.003s-0.209-0.869-0.209-1.541v-5.164h-1.607v-2.083c0.571-0.187 1.061-0.456 1.468-0.808 0.408-0.35 0.734-0.772 0.982-1.264 0.246-0.49 0.415-1.117 0.509-1.876h2.068v3.722h3.451v2.31h-3.451v3.775c0 0.853 0.045 1.402 0.134 1.644s0.255 0.436 0.498 0.58c0.322 0.195 0.69 0.294 1.105 0.294 0.736 0 1.469-0.242 2.197-0.726v2.319z"></path>
</svg>
