<?xml version="1.0" encoding="utf-8"?>
<!-- Generated by IcoMoon.io -->
<!DOCTYPE svg PUBLIC "-//W3C//DTD SVG 1.1//EN" "http://www.w3.org/Graphics/SVG/1.1/DTD/svg11.dtd">
<svg version="1.1" xmlns="http://www.w3.org/2000/svg" xmlns:xlink="http://www.w3.org/1999/xlink" width="16" height="16" viewBox="0 0 16 16">
<path d="M8 0.32c-4.242 0-7.68 3.438-7.68 7.68s3.438 7.68 7.68 7.68 7.68-3.438 7.68-7.68-3.438-7.68-7.68-7.68zM10.062 11.313c-0.314 0.15-0.598 0.254-0.853 0.316-0.254 0.059-0.53 0.090-0.825 0.090-0.336 0-0.633-0.044-0.891-0.13s-0.478-0.208-0.661-0.367c-0.182-0.158-0.309-0.328-0.379-0.506-0.070-0.18-0.106-0.439-0.106-0.778v-2.61h-0.813v-1.051c0.287-0.095 0.536-0.231 0.742-0.41 0.206-0.177 0.371-0.389 0.495-0.638s0.21-0.566 0.258-0.948h1.046v1.88h1.744v1.166h-1.744v1.908c0 0.431 0.022 0.708 0.068 0.83 0.045 0.123 0.129 0.22 0.252 0.294 0.163 0.098 0.35 0.148 0.558 0.148 0.373 0 0.742-0.123 1.11-0.369v1.174z"></path>
</svg>
