<?xml version="1.0" encoding="utf-8"?>
<!-- Generated by IcoMoon.io -->
<!DOCTYPE svg PUBLIC "-//W3C//DTD SVG 1.1//EN" "http://www.w3.org/Graphics/SVG/1.1/DTD/svg11.dtd">
<svg version="1.1" xmlns="http://www.w3.org/2000/svg" xmlns:xlink="http://www.w3.org/1999/xlink" width="16" height="16" viewBox="0 0 16 16">
<path d="M13.853 4.997c0.006 0.13 0.009 0.261 0.009 0.39 0 3.992-3.038 8.594-8.592 8.594-1.706 0-3.293-0.5-4.63-1.358 0.237 0.028 0.477 0.042 0.72 0.042 1.416 0 2.718-0.483 3.75-1.292-1.321-0.025-2.437-0.897-2.821-2.097 0.184 0.034 0.374 0.053 0.568 0.053 0.276 0 0.543-0.036 0.796-0.105-1.382-0.278-2.422-1.498-2.422-2.962 0-0.013 0-0.025 0-0.038 0.407 0.226 0.874 0.362 1.368 0.378-0.81-0.542-1.344-1.466-1.344-2.514 0-0.553 0.149-1.072 0.41-1.518 1.489 1.828 3.715 3.030 6.225 3.156-0.051-0.222-0.078-0.451-0.078-0.689 0-1.667 1.351-3.018 3.019-3.018 0.869 0 1.654 0.366 2.205 0.953 0.687-0.136 1.334-0.387 1.918-0.733-0.226 0.705-0.705 1.297-1.328 1.67 0.611-0.074 1.192-0.234 1.734-0.475-0.405 0.606-0.917 1.138-1.507 1.562z"></path>
</svg>
