<?xml version="1.0" encoding="utf-8"?>
<!-- Generated by IcoMoon.io -->
<!DOCTYPE svg PUBLIC "-//W3C//DTD SVG 1.1//EN" "http://www.w3.org/Graphics/SVG/1.1/DTD/svg11.dtd">
<svg version="1.1" xmlns="http://www.w3.org/2000/svg" xmlns:xlink="http://www.w3.org/1999/xlink" width="16" height="16" viewBox="0 0 16 16">
<path d="M8 0.32c-4.242 0-7.68 3.438-7.68 7.68s3.438 7.68 7.68 7.68 7.68-3.438 7.68-7.68-3.438-7.68-7.68-7.68zM11.124 6.611c0.003 0.066 0.004 0.131 0.004 0.195 0 2-1.521 4.305-4.303 4.305-0.854 0-1.65-0.25-2.318-0.68 0.118 0.014 0.238 0.020 0.361 0.020 0.709 0 1.361-0.241 1.878-0.647-0.662-0.013-1.22-0.45-1.413-1.050 0.092 0.017 0.186 0.026 0.284 0.026 0.138 0 0.272-0.018 0.398-0.053-0.692-0.139-1.214-0.75-1.214-1.483v-0.018c0.204 0.113 0.438 0.182 0.686 0.19-0.406-0.272-0.673-0.734-0.673-1.26 0-0.277 0.074-0.538 0.205-0.761 0.746 0.915 1.86 1.517 3.118 1.582-0.026-0.111-0.039-0.226-0.039-0.346 0-0.834 0.677-1.513 1.513-1.513 0.434 0 0.828 0.184 1.104 0.478 0.345-0.069 0.668-0.194 0.96-0.367-0.113 0.353-0.352 0.65-0.665 0.838 0.306-0.038 0.598-0.118 0.869-0.239-0.202 0.303-0.459 0.57-0.754 0.783z"></path>
</svg>
