<?xml version="1.0" encoding="utf-8"?>
<!-- Generated by IcoMoon.io -->
<!DOCTYPE svg PUBLIC "-//W3C//DTD SVG 1.1//EN" "http://www.w3.org/Graphics/SVG/1.1/DTD/svg11.dtd">
<svg version="1.1" xmlns="http://www.w3.org/2000/svg" xmlns:xlink="http://www.w3.org/1999/xlink" width="16" height="16" viewBox="0 0 16 16">
<path d="M13.333 2v-1.333h-4v1.333h1.333v12h-1.333v1.333h4v-1.333h-1.333v-12zM9.333 3.561c0-0.069-0.13-0.153-0.213-0.212-0.367-0.274-0.773-0.453-1.224-0.535s-0.977-0.125-1.582-0.125c-0.439 0-0.889 0.069-1.35 0.211s-0.853 0.311-1.177 0.514c-0.375 0.237-0.679 0.508-0.913 0.81s-0.351 0.62-0.351 0.951c0 0.317 0.085 0.603 0.254 0.859s0.434 0.383 0.794 0.383c0.403 0 0.719-0.104 0.946-0.314 0.227-0.208 0.341-0.439 0.341-0.691 0-0.237-0.035-0.497-0.103-0.778-0.069-0.281-0.103-0.493-0.103-0.637 0.115-0.123 0.315-0.239 0.6-0.351s0.593-0.167 0.924-0.167c0.483 0 0.855 0.099 1.119 0.297s0.467 0.431 0.611 0.697c0.129 0.238 0.095 0.777 0.095 0.777v1.59c0 0.187-0.905 0.447-1.896 0.778s-1.594 0.558-1.919 0.681c-0.259 0.101-0.508 0.237-0.804 0.405-0.295 0.17-0.52 0.362-0.701 0.579-0.231 0.259-0.397 0.551-0.512 0.875s-0.169 0.691-0.169 1.103c0 0.793 0.259 1.434 0.775 1.924s1.173 0.735 1.973 0.735c0.757 0 1.403-0.297 1.94-0.57 0.538-0.275 1.041-0.683 1.509-1.349h0.065c0.094 0.667 0.303 1.047 0.637 1.311l0.435 0.023v-9.772zM8.175 11.485c-0.267 0.339-0.595 0.633-0.983 0.883-0.389 0.249-0.84 0.374-1.351 0.374-0.483 0-0.881-0.141-1.194-0.423-0.314-0.281-0.47-0.721-0.47-1.32 0-0.462 0.104-0.862 0.314-1.197 0.208-0.337 0.493-0.627 0.853-0.872 0.397-0.261 0.825-0.477 1.287-0.651s0.932-0.332 1.545-0.511v3.718z"></path>
</svg>
