<?xml version="1.0" encoding="utf-8"?>
<!-- Generated by IcoMoon.io -->
<!DOCTYPE svg PUBLIC "-//W3C//DTD SVG 1.1//EN" "http://www.w3.org/Graphics/SVG/1.1/DTD/svg11.dtd">
<svg version="1.1" xmlns="http://www.w3.org/2000/svg" xmlns:xlink="http://www.w3.org/1999/xlink" width="16" height="16" viewBox="0 0 16 16">
<path d="M12.8 3.2h-9.6c-0.881 0-1.6 0.72-1.6 1.6v5.6c0 0.88 0.719 1.6 1.6 1.6h3.2l3.2 2.4v-2.4h3.2c0.88 0 1.6-0.72 1.6-1.6v-5.6c0-0.88-0.72-1.6-1.6-1.6zM4.8 8.48c-0.486 0-0.88-0.394-0.88-0.88s0.394-0.88 0.88-0.88 0.88 0.394 0.88 0.88c0 0.486-0.394 0.88-0.88 0.88zM8 8.48c-0.486 0-0.88-0.394-0.88-0.88s0.394-0.88 0.88-0.88 0.88 0.394 0.88 0.88c0 0.486-0.394 0.88-0.88 0.88zM11.2 8.48c-0.486 0-0.88-0.394-0.88-0.88s0.394-0.88 0.88-0.88 0.88 0.394 0.88 0.88c0 0.486-0.394 0.88-0.88 0.88z"></path>
</svg>
