<?xml version="1.0" encoding="utf-8"?>
<!-- Generated by IcoMoon.io -->
<!DOCTYPE svg PUBLIC "-//W3C//DTD SVG 1.1//EN" "http://www.w3.org/Graphics/SVG/1.1/DTD/svg11.dtd">
<svg version="1.1" xmlns="http://www.w3.org/2000/svg" xmlns:xlink="http://www.w3.org/1999/xlink" width="16" height="16" viewBox="0 0 16 16">
<path d="M13.6 2.4c-0.883 0-1.6 0.716-1.6 1.6s0.717 1.6 1.6 1.6 1.6-0.716 1.6-1.6c0-0.884-0.717-1.6-1.6-1.6zM10 3.2h-8.8c-0.221 0-0.4 0.179-0.4 0.4v0.8c0 0.221 0.179 0.4 0.4 0.4h8.8c0.221 0 0.4-0.179 0.4-0.4v-0.8c0-0.221-0.179-0.4-0.4-0.4zM10 7.2h-8.8c-0.221 0-0.4 0.179-0.4 0.4v0.8c0 0.221 0.179 0.4 0.4 0.4h8.8c0.221 0 0.4-0.179 0.4-0.4v-0.8c0-0.221-0.179-0.4-0.4-0.4zM10 11.2h-8.8c-0.221 0-0.4 0.179-0.4 0.4v0.8c0 0.221 0.179 0.4 0.4 0.4h8.8c0.221 0 0.4-0.179 0.4-0.4v-0.8c0-0.221-0.179-0.4-0.4-0.4z"></path>
</svg>
