<?xml version="1.0" encoding="utf-8"?>
<!-- Generated by IcoMoon.io -->
<!DOCTYPE svg PUBLIC "-//W3C//DTD SVG 1.1//EN" "http://www.w3.org/Graphics/SVG/1.1/DTD/svg11.dtd">
<svg version="1.1" xmlns="http://www.w3.org/2000/svg" xmlns:xlink="http://www.w3.org/1999/xlink" width="16" height="16" viewBox="0 0 16 16">
<path d="M0.8 11.794l3.956-0.567-0.565 3.974 4.77-4.788-3.255-3.543-4.906 4.925zM14.931 4.417c0.313-0.314 0.4-0.756 0-1.135l-2.261-2.271c-0.223-0.246-0.817-0.314-1.13 0l-3.013 3.024 3.254 3.543 3.149-3.161zM14.965 12.234l-11.201-11.2c-0.313-0.313-0.818-0.313-1.131 0s-0.313 0.818 0 1.131l11.201 11.2c0.157 0.157 0.362 0.234 0.566 0.234s0.41-0.078 0.566-0.234c0.313-0.312 0.313-0.818 0-1.131z"></path>
</svg>
