<?xml version="1.0" encoding="utf-8"?>
<!-- Generated by IcoMoon.io -->
<!DOCTYPE svg PUBLIC "-//W3C//DTD SVG 1.1//EN" "http://www.w3.org/Graphics/SVG/1.1/DTD/svg11.dtd">
<svg version="1.1" xmlns="http://www.w3.org/2000/svg" xmlns:xlink="http://www.w3.org/1999/xlink" width="16" height="16" viewBox="0 0 16 16">
<path d="M5.333 0.667v2.667h-4.667v10h4.091l1.123 2.667h7.333l1.452-1.333v-14h-9.333zM2 12v-5.5l2.197 5.5h-2.197zM5 11.333l-2.667-6.667h2.667v6.667zM13.333 14l-0.786 0.667h-5.881v-12.667h6.667v12zM7.333 3.333h3.333v0.667h-3.333zM7.333 7.333h3.333v0.667h-3.333zM7.333 8.667h3.333v0.667h-3.333zM7.333 10h3.333v0.667h-3.333zM7.333 11.333h3.333v0.667h-3.333zM7.333 12.667h3.333v0.667h-3.333zM11.335 3.333h1.332v0.668h-1.332zM11.335 4.667h0.666v0.668h-0.666zM9.999 4.667h0.666v0.668h-0.666zM9.335 4.667h-2.001v0.668h2.001zM12.001 7.333h0.664v0.668h-0.664zM12.001 8.666h0.664v0.668h-0.664zM12.001 10h0.664v0.668h-0.664zM12.001 11.333h0.664v0.668h-0.664z"></path>
</svg>
