<?xml version="1.0" encoding="utf-8"?>
<!-- Generated by IcoMoon.io -->
<!DOCTYPE svg PUBLIC "-//W3C//DTD SVG 1.1//EN" "http://www.w3.org/Graphics/SVG/1.1/DTD/svg11.dtd">
<svg version="1.1" xmlns="http://www.w3.org/2000/svg" xmlns:xlink="http://www.w3.org/1999/xlink" width="16" height="16" viewBox="0 0 16 16">
<path d="M12.143 2.667h-2.107l-1.067-1.333h-0.97v-0.667h-0.667v0.667h-0.702l-0.889 1.333h-2.932c-1.103 0-2.143 0.603-2.143 1.706v8c0 1.103 1.333 2.294 2 2.294v1.333h2v-1.333h5.333v1.333h2v-1.333c1.333 0 2-1.191 2-2.294v-8c0-1.103-0.754-1.706-1.857-1.706zM6.988 2h1.661l0.533 0.667h-2.639l0.445-0.667zM12.667 12.373c0 0.367-0.156 0.961-0.523 0.961h-9.333c-0.368 0-0.81-0.593-0.81-0.961v-8c0-0.368 0.442-0.373 0.81-0.373h9.333c0.367 0 0.523 0.005 0.523 0.373v8zM2.667 10.667h9.333v-5.333h-9.333v5.333zM3.333 6h8v4h-8v-4zM6.666 12.667h1.332v-1.333h-1.332v1.333z"></path>
</svg>
