<?xml version="1.0" encoding="utf-8"?>
<!-- Generated by IcoMoon.io -->
<!DOCTYPE svg PUBLIC "-//W3C//DTD SVG 1.1//EN" "http://www.w3.org/Graphics/SVG/1.1/DTD/svg11.dtd">
<svg version="1.1" xmlns="http://www.w3.org/2000/svg" xmlns:xlink="http://www.w3.org/1999/xlink" width="16" height="16" viewBox="0 0 16 16">
<path d="M14.429 8h-1.095v-6.667h-11.333v6.667h-0.905c-0.733 0-1.095 0.6-1.095 1.333v1.333c0 0.733 0.362 1.333 1.095 1.333h0.905v3.333h4v-3.333h1.333v3.333h5.333v-3.333h1.762c0.733 0 1.571-0.6 1.571-1.333v-1.333c0-0.733-0.839-1.333-1.571-1.333zM4.667 14h-1.333v-2h1.333v2zM9.333 14h-0.667v-2h0.667v2zM11.333 14h-0.667v-2h0.667v2zM12 8h-8.667v-5.333h8.667v5.333zM13.512 11.058c-0.561 0-1.015-0.455-1.015-1.016s0.455-1.016 1.015-1.016 1.017 0.455 1.017 1.016-0.456 1.016-1.017 1.016zM4.667 4.667h4v1.333h-4zM4.667 6.667h6v0.667h-6zM0.667 3.333h0.667v3.333h-0.667zM14 4.667h0.667v2h-0.667z"></path>
</svg>
