<?xml version="1.0" encoding="utf-8"?>
<!-- Generated by IcoMoon.io -->
<!DOCTYPE svg PUBLIC "-//W3C//DTD SVG 1.1//EN" "http://www.w3.org/Graphics/SVG/1.1/DTD/svg11.dtd">
<svg version="1.1" xmlns="http://www.w3.org/2000/svg" xmlns:xlink="http://www.w3.org/1999/xlink" width="16" height="16" viewBox="0 0 16 16">
<path d="M8.344 5.344v2.813l2.313 1.406-0.469 0.813-2.844-1.719v-3.313h1zM14 6.75h-4.531l1.844-1.875c-1.813-1.813-4.781-1.875-6.594-0.063s-1.813 4.688 0 6.5 4.781 1.813 6.594 0c0.906-0.906 1.344-1.938 1.344-3.25h1.344c0 1.313-0.563 3.031-1.75 4.188-2.344 2.313-6.156 2.313-8.5 0s-2.344-6.063 0-8.375 6.094-2.313 8.438 0l1.813-1.875v4.75z"></path>
</svg>
