<?xml version="1.0" encoding="utf-8"?>
<!-- Generated by IcoMoon.io -->
<!DOCTYPE svg PUBLIC "-//W3C//DTD SVG 1.1//EN" "http://www.w3.org/Graphics/SVG/1.1/DTD/svg11.dtd">
<svg version="1.1" xmlns="http://www.w3.org/2000/svg" xmlns:xlink="http://www.w3.org/1999/xlink" width="16" height="16" viewBox="0 0 16 16">
<path d="M12.17 5.311c-0.221 0-0.437 0.020-0.647 0.054-0.525-1.716-2.15-2.966-4.076-2.966-2.351 0-4.256 1.862-4.256 4.159 0 0.205 0.016 0.406 0.046 0.605-0.113-0.014-0.226-0.022-0.343-0.022-1.598 0-2.894 1.266-2.894 2.828s1.295 2.83 2.894 2.83h3.506v-3.2h-2l3.6-4 3.6 4h-2v3.2h2.57c2.114 0 3.83-1.677 3.83-3.744 0-2.069-1.715-3.745-3.83-3.745z"></path>
</svg>
