<?xml version="1.0" encoding="utf-8"?>
<!-- Generated by IcoMoon.io -->
<!DOCTYPE svg PUBLIC "-//W3C//DTD SVG 1.1//EN" "http://www.w3.org/Graphics/SVG/1.1/DTD/svg11.dtd">
<svg version="1.1" xmlns="http://www.w3.org/2000/svg" xmlns:xlink="http://www.w3.org/1999/xlink" width="16" height="16" viewBox="0 0 16 16">
<path d="M10 4.656h2.656v2.688h-0.656v1.313c0 0.75-0.594 1.344-1.344 1.344h-2v2.031c0.469 0.25 0.813 0.75 0.813 1.313 0 0.813-0.656 1.469-1.469 1.469s-1.469-0.656-1.469-1.469c0-0.563 0.344-1.063 0.813-1.313v-2.031h-2c-0.75 0-1.344-0.594-1.344-1.344v-1.375c-0.469-0.25-0.813-0.719-0.813-1.281 0-0.813 0.656-1.469 1.469-1.469s1.469 0.656 1.469 1.469c0 0.563-0.313 1.031-0.781 1.281v1.375h2v-5.313h-1.344l2-2.688 2 2.688h-1.344v5.313h2v-1.313h-0.656v-2.688z"></path>
</svg>
