<?xml version="1.0" encoding="utf-8"?>
<!-- Generated by IcoMoon.io -->
<!DOCTYPE svg PUBLIC "-//W3C//DTD SVG 1.1//EN" "http://www.w3.org/Graphics/SVG/1.1/DTD/svg11.dtd">
<svg version="1.1" xmlns="http://www.w3.org/2000/svg" xmlns:xlink="http://www.w3.org/1999/xlink" width="16" height="16" viewBox="0 0 16 16">
<path d="M15.725 13.307c-0.973-2.239-3.227-3.54-4.864-4.096 1.003-0.819 1.595-2.365 1.595-4.389 0-2.69-2.249-3.401-3.438-3.401-0.191 0-0.411 0.021-0.643 0.063-0.639-0.574-1.483-0.817-2.155-0.817-1.243 0-3.091 0.815-3.091 3.058 0 1.785 0.521 3.153 1.406 3.889-1.392 0.364-3.288 1.263-4.259 3.499l-0.275 0.633 0.642 0.253c0.057 0.023 0.847 0.325 2.041 0.593-0.137 0.232-0.265 0.466-0.374 0.715l-0.275 0.633 0.642 0.253c0.119 0.046 2.934 1.141 6.341 1.141s6.223-1.095 6.341-1.141l0.641-0.253-0.275-0.633zM11.123 4.823c0 2.287-0.807 3.708-2.105 3.708s-2.105-1.421-2.105-3.708c0-1.947 1.757-2.064 2.101-2.068 0.351 0.004 2.108 0.121 2.108 2.068zM6.219 2c0.067 0 0.334 0.011 0.639 0.11-0.713 0.513-1.278 1.364-1.278 2.713 0 0.733 0.079 1.401 0.225 1.997-0.981-0.313-1.344-1.743-1.344-3.095 0-1.621 1.468-1.721 1.758-1.725zM6.219 8.697c0.008 0 0.193 0.004 0.484 0.041 0.291 0.359 0.633 0.636 1.018 0.826-1.049 0.21-2.544 0.711-3.756 1.91-0.873-0.141-1.621-0.329-2.123-0.48 1.431-2.253 4.249-2.297 4.377-2.297zM9.017 14c-2.184 0-4.378-0.5-5.381-0.809 0.158-0.458 0.657-1.063 0.831-1.271 1.862-1.803 4.523-1.841 4.548-1.841 0.005 0 0.486 0.007 1.17 0.144 1.188 0.3 3.033 1.397 3.983 2.967-1.002 0.309-2.963 0.811-5.151 0.811z"></path>
</svg>
