<?xml version="1.0" encoding="utf-8"?>
<!-- Generated by IcoMoon.io -->
<!DOCTYPE svg PUBLIC "-//W3C//DTD SVG 1.1//EN" "http://www.w3.org/Graphics/SVG/1.1/DTD/svg11.dtd">
<svg version="1.1" xmlns="http://www.w3.org/2000/svg" xmlns:xlink="http://www.w3.org/1999/xlink" width="16" height="16" viewBox="0 0 16 16">
<path d="M15.784 13.327c-1.118-2.672-3.276-3.915-4.949-4.493 0.747-1.025 1.155-2.528 1.171-4.367 0.027-3.104-2.532-3.947-3.889-3.959s-3.931 0.787-3.959 3.891c-0.016 1.838 0.367 3.347 1.095 4.386-1.682 0.547-3.863 1.755-5.027 4.405l-0.275 0.625 0.633 0.26c0.138 0.055 3.417 1.38 7.401 1.415s7.287-1.231 7.426-1.285l0.637-0.248-0.265-0.631zM8.102 1.842c0.266 0.005 2.593 0.119 2.571 2.614-0.017 1.997-0.561 3.516-1.488 4.167l-1.147 0.805-1.131-0.825c-0.917-0.668-1.433-2.196-1.415-4.193 0.022-2.496 2.351-2.568 2.609-2.569zM7.998 14.158c-2.697-0.023-5.099-0.698-6.227-1.071 1.22-2.137 3.287-2.971 4.875-3.291l1.393-0.281 1.387 0.304c1.582 0.349 3.635 1.219 4.818 3.376-1.133 0.355-3.54 0.987-6.245 0.963z"></path>
</svg>
