<?xml version="1.0" encoding="utf-8"?>
<!-- Generated by IcoMoon.io -->
<!DOCTYPE svg PUBLIC "-//W3C//DTD SVG 1.1//EN" "http://www.w3.org/Graphics/SVG/1.1/DTD/svg11.dtd">
<svg version="1.1" xmlns="http://www.w3.org/2000/svg" xmlns:xlink="http://www.w3.org/1999/xlink" width="16" height="16" viewBox="0 0 16 16">
<path d="M10 9.575c0 0-4.121 0-5.667 3.607 0 0 2.581 1.030 5.667 1.030s5.667-1.030 5.667-1.030c-1.545-3.607-5.667-3.607-5.667-3.607zM10 9.061c1.545 0 2.575-1.545 2.575-4.122s-2.575-2.576-2.575-2.576-2.575 0-2.575 2.576 1.030 4.122 2.575 4.122zM5 7.303c0.508 0 0.944-0.211 1.29-0.59-0.128-0.518-0.199-1.11-0.199-1.774 0-0.99 0.381-1.597 0.849-1.972-0.511-1.177-1.941-1.179-1.941-1.179s-2.121 0-2.121 2.121c0 2.121 0.849 3.394 2.121 3.394zM7 8.966l-0.072-0.839c-1.039-0.397-1.928-0.4-1.928-0.4s-3.394 0-4.667 2.97c0 0 1.641 0.654 3.763 0.813 1.849-1.935 2.903-2.545 2.903-2.545z"></path>
</svg>
