<?xml version="1.0" encoding="utf-8"?>
<!-- Generated by IcoMoon.io -->
<!DOCTYPE svg PUBLIC "-//W3C//DTD SVG 1.1//EN" "http://www.w3.org/Graphics/SVG/1.1/DTD/svg11.dtd">
<svg version="1.1" xmlns="http://www.w3.org/2000/svg" xmlns:xlink="http://www.w3.org/1999/xlink" width="16" height="16" viewBox="0 0 16 16">
<path d="M12.791 15.303c0-1.797-1.75-2.711-3.454-3.446-1.698-0.731-2.241-1.347-2.241-2.667 0-0.791 0.518-0.534 0.746-1.985 0.096-0.602 0.554-0.010 0.642-1.383 0-0.547-0.25-0.683-0.25-0.683s0.127-0.81 0.177-1.434c0.051-0.654-0.318-2.048-1.841-2.476-0.266-0.273-0.446-0.706 0.374-1.139-1.792-0.083-2.209 0.854-3.163 1.544-0.812 0.605-1.031 1.562-0.992 2.072 0.052 0.624 0.178 1.434 0.178 1.434s-0.251 0.136-0.251 0.683c0.088 1.374 0.547 0.782 0.642 1.383 0.227 1.451 0.746 1.194 0.746 1.985 0 1.32-0.17 1.768-1.869 2.499-1.705 0.734-2.235 1.91-2.226 3.613 0.002 0.51-0.009 0.697-0.009 0.697h12.8c0 0-0.009-0.187-0.009-0.697zM14.822 10.692c-0.908-0.366-1.284-0.802-1.284-1.653 0-0.513 0.334-0.346 0.482-1.282 0.062-0.387 0.358-0.006 0.414-0.892 0-0.353-0.162-0.441-0.162-0.441s0.082-0.525 0.114-0.927c0.040-0.502-0.291-1.798-1.814-1.798s-1.854 1.296-1.815 1.798c0.034 0.402 0.115 0.927 0.115 0.927s-0.162 0.087-0.162 0.441c0.057 0.886 0.353 0.505 0.414 0.892 0.147 0.938 0.482 0.77 0.482 1.282 0 0.851-0.35 1.25-1.447 1.722-0.055 0.023-0.096 0.054-0.146 0.082 1.312 0.57 3.381 1.553 3.87 3.558h2.116c0 0 0-1.525 0-1.854 0-0.8-0.218-1.467-1.178-1.854z"></path>
</svg>
