<?xml version="1.0" encoding="utf-8"?>
<!-- Generated by IcoMoon.io -->
<!DOCTYPE svg PUBLIC "-//W3C//DTD SVG 1.1//EN" "http://www.w3.org/Graphics/SVG/1.1/DTD/svg11.dtd">
<svg version="1.1" xmlns="http://www.w3.org/2000/svg" xmlns:xlink="http://www.w3.org/1999/xlink" width="16" height="16" viewBox="0 0 16 16">
<path d="M15.2 2.4h-14.4c-0.442 0-0.8 0.358-0.8 0.8v9.6c0 0.442 0.358 0.8 0.8 0.8h14.4c0.442 0 0.8-0.358 0.8-0.8v-9.6c0-0.442-0.358-0.8-0.8-0.8zM10.4 5.6h3.2v0.8h-3.2v-0.8zM8.8 11.842c-0.103-0.082-0.234-0.161-0.423-0.242-0.944-0.406-2.369-1.008-2.369-1.741 0-0.441 0.287-0.297 0.414-1.103 0.053-0.334 0.308-0.006 0.356-0.769 0-0.304-0.139-0.38-0.139-0.38s0.070-0.45 0.098-0.797c0.029-0.362-0.177-1.44-1.022-1.678-0.149-0.15-0.249-0.089 0.206-0.33-0.995-0.047-1.227 0.474-1.757 0.857-0.451 0.336-0.574 0.868-0.551 1.151 0.030 0.346 0.1 0.797 0.1 0.797s-0.14 0.075-0.14 0.379c0.049 0.763 0.304 0.434 0.356 0.769 0.126 0.806 0.415 0.662 0.415 1.103 0 0.733-1.425 1.334-2.369 1.741-0.162 0.070-0.279 0.138-0.377 0.208v-7.808h7.2v7.842zM14.4 8.8h-4v-0.8h4v0.8z"></path>
</svg>
