<?xml version="1.0" encoding="utf-8"?>
<!-- Generated by IcoMoon.io -->
<!DOCTYPE svg PUBLIC "-//W3C//DTD SVG 1.1//EN" "http://www.w3.org/Graphics/SVG/1.1/DTD/svg11.dtd">
<svg version="1.1" xmlns="http://www.w3.org/2000/svg" xmlns:xlink="http://www.w3.org/1999/xlink" width="16" height="16" viewBox="0 0 16 16">
<path d="M7.333 5.333h-4.667v5.333h4.667v-5.333zM6.667 9.667c0-0.552-0.746-0.999-1.667-0.999s-1.667 0.447-1.667 0.999v-3.667h3.333v3.667zM4 7.668c0 0.552 0.448 1 1 1s1-0.448 1-1c0-0.552-0.448-1-1-1s-1 0.448-1 1zM14.619 2.667h-13.333c-0.737 0-1.286 0.538-1.286 1.273v8c0 0.737 0.549 1.393 1.286 1.393h13.333c0.736 0 1.381-0.656 1.381-1.393v-8c0-0.735-0.645-1.273-1.381-1.273zM14.667 12h-13.333v-8h13.333v8zM8.667 5.333h4.667v1.333h-4.667zM8.667 7.333h4.667v0.667h-4.667zM8.667 8.667h4.667v0.667h-4.667zM8.667 10h2v0.667h-2zM11.332 10h0.668v0.668h-0.668z"></path>
</svg>
