<?xml version="1.0" encoding="utf-8"?>
<!-- Generated by IcoMoon.io -->
<!DOCTYPE svg PUBLIC "-//W3C//DTD SVG 1.1//EN" "http://www.w3.org/Graphics/SVG/1.1/DTD/svg11.dtd">
<svg version="1.1" xmlns="http://www.w3.org/2000/svg" xmlns:xlink="http://www.w3.org/1999/xlink" width="16" height="16" viewBox="0 0 16 16">
<path d="M10.656 12.656v-9.313h-5.313v9.313h5.313zM11 2c0.563 0 1 0.438 1 1v10c0 0.563-0.438 1-1 1h-6c-0.563 0-1-0.438-1-1v-10c0-0.563 0.438-1 1-1h6zM12.656 11.344v-6.688h1.344v6.688h-1.344zM14.656 6h1.344v4h-1.344v-4zM2 11.344v-6.688h1.344v6.688h-1.344zM0 10v-4h1.344v4h-1.344z"></path>
</svg>
