<?xml version="1.0" encoding="utf-8"?>
<!-- Generated by IcoMoon.io -->
<!DOCTYPE svg PUBLIC "-//W3C//DTD SVG 1.1//EN" "http://www.w3.org/Graphics/SVG/1.1/DTD/svg11.dtd">
<svg version="1.1" xmlns="http://www.w3.org/2000/svg" xmlns:xlink="http://www.w3.org/1999/xlink" width="16" height="16" viewBox="0 0 16 16">
<path d="M13 8c0.563 0 1-0.438 1-1s-0.438-1-1-1-1 0.438-1 1 0.438 1 1 1zM10.344 10c0.563 0 1-0.438 1-1s-0.438-1-1-1-1 0.438-1 1 0.438 1 1 1zM7.344 8.656v-1.313h-2v-2h-1.344v2h-2v1.313h2v2h1.344v-2h2zM14 4c0.719 0 1.344 0.625 1.344 1.344v5.313c0 0.719-0.625 1.344-1.344 1.344h-12c-0.719 0-1.344-0.625-1.344-1.344v-5.313c0-0.719 0.625-1.344 1.344-1.344h12z"></path>
</svg>
