<?xml version="1.0" encoding="utf-8"?>
<!-- Generated by IcoMoon.io -->
<!DOCTYPE svg PUBLIC "-//W3C//DTD SVG 1.1//EN" "http://www.w3.org/Graphics/SVG/1.1/DTD/svg11.dtd">
<svg version="1.1" xmlns="http://www.w3.org/2000/svg" xmlns:xlink="http://www.w3.org/1999/xlink" width="16" height="16" viewBox="0 0 16 16">
<path d="M8.656 3.344c0.375 0 0.688 0.281 0.688 0.656v8c0 0.375-0.313 0.656-0.688 0.656h-2c-0.375 0-0.656-0.281-0.656-0.656v-8c0-0.375 0.281-0.656 0.656-0.656h2zM13.344 3.344c0.375 0 0.656 0.281 0.656 0.656v8c0 0.375-0.281 0.656-0.656 0.656h-2c-0.375 0-0.688-0.281-0.688-0.656v-8c0-0.375 0.313-0.656 0.688-0.656h2zM4 3.344c0.375 0 0.656 0.281 0.656 0.656v8c0 0.375-0.281 0.656-0.656 0.656h-2c-0.375 0-0.656-0.281-0.656-0.656v-8c0-0.375 0.281-0.656 0.656-0.656h2z"></path>
</svg>
