<?xml version="1.0" encoding="utf-8"?>
<!-- Generated by IcoMoon.io -->
<!DOCTYPE svg PUBLIC "-//W3C//DTD SVG 1.1//EN" "http://www.w3.org/Graphics/SVG/1.1/DTD/svg11.dtd">
<svg version="1.1" xmlns="http://www.w3.org/2000/svg" xmlns:xlink="http://www.w3.org/1999/xlink" width="16" height="16" viewBox="0 0 16 16">
<path d="M13.344 2c0.375 0 0.656 0.281 0.656 0.656v4c0 0.375-0.281 0.688-0.656 0.688h-11.344c-0.375 0-0.656-0.313-0.656-0.688v-4c0-0.375 0.281-0.656 0.656-0.656h11.344zM13.344 8.656c0.375 0 0.656 0.313 0.656 0.688v4c0 0.375-0.281 0.656-0.656 0.656h-11.344c-0.375 0-0.656-0.281-0.656-0.656v-4c0-0.375 0.281-0.688 0.656-0.688h11.344z"></path>
</svg>
