<?xml version="1.0" encoding="utf-8"?>
<!-- Generated by IcoMoon.io -->
<!DOCTYPE svg PUBLIC "-//W3C//DTD SVG 1.1//EN" "http://www.w3.org/Graphics/SVG/1.1/DTD/svg11.dtd">
<svg version="1.1" xmlns="http://www.w3.org/2000/svg" xmlns:xlink="http://www.w3.org/1999/xlink" width="16" height="16" viewBox="0 0 16 16">
<path d="M15.128 4.672c-0.805 4.618-5.3 8.528-6.652 9.422-1.352 0.892-2.586-0.358-3.034-1.305-0.513-1.078-2.047-6.925-2.45-7.409s-1.608 0.484-1.608 0.484l-0.585-0.781c0 0 2.449-2.98 4.313-3.353 1.976-0.394 1.973 3.091 2.448 5.026 0.459 1.874 0.769 2.944 1.17 2.944s1.17-1.044 2.010-2.644c0.842-1.603-0.036-3.018-1.681-2.011 0.658-4.022 6.873-4.989 6.068-0.373z"></path>
</svg>
