<?xml version="1.0" encoding="utf-8"?>
<!-- Generated by IcoMoon.io -->
<!DOCTYPE svg PUBLIC "-//W3C//DTD SVG 1.1//EN" "http://www.w3.org/Graphics/SVG/1.1/DTD/svg11.dtd">
<svg version="1.1" xmlns="http://www.w3.org/2000/svg" xmlns:xlink="http://www.w3.org/1999/xlink" width="16" height="16" viewBox="0 0 16 16">
<path d="M8 0.32c-4.242 0-7.68 3.438-7.68 7.68s3.438 7.68 7.68 7.68 7.68-3.438 7.68-7.68-3.438-7.68-7.68-7.68zM11.521 6.52c-0.406 2.333-2.678 4.31-3.361 4.761-0.683 0.45-1.307-0.182-1.533-0.659-0.259-0.546-1.034-3.498-1.238-3.744s-0.813 0.246-0.813 0.246l-0.295-0.395c0 0 1.238-1.506 2.179-1.694 0.998-0.2 0.997 1.561 1.237 2.539 0.233 0.946 0.389 1.487 0.591 1.487s0.591-0.526 1.015-1.336c0.426-0.81-0.018-1.525-0.849-1.016 0.332-2.032 3.472-2.522 3.066-0.189z"></path>
</svg>
