<?xml version="1.0" encoding="utf-8"?>
<!-- Generated by IcoMoon.io -->
<!DOCTYPE svg PUBLIC "-//W3C//DTD SVG 1.1//EN" "http://www.w3.org/Graphics/SVG/1.1/DTD/svg11.dtd">
<svg version="1.1" xmlns="http://www.w3.org/2000/svg" xmlns:xlink="http://www.w3.org/1999/xlink" width="16" height="16" viewBox="0 0 16 16">
<path d="M8 0.32c-4.242 0-7.68 3.438-7.68 7.68s3.438 7.68 7.68 7.68 7.68-3.438 7.68-7.68-3.438-7.68-7.68-7.68zM9.526 5.481c-0.296 0-0.506 0.282-0.506 0.822 0 1.102 0.7 1.737 1.609 1.737 0.161 0 0.342-0.019 0.526-0.062v0.858c-0.302 0.069-0.606 0.097-0.859 0.098-0.604 1.273-1.69 2.361-2.052 2.566-0.232 0.13-0.449 0.138-0.702-0.014-0.447-0.266-2.134-1.652-2.698-6.006h1.224c0.31 2.614 1.060 3.953 1.89 4.957 0.457-0.457 0.897-1.066 1.242-1.754-0.82-0.418-1.318-1.33-1.318-2.394 0-1.076 0.62-1.89 1.682-1.89 1.030 0 1.593 0.642 1.593 1.745 0 0.411-0.087 0.878-0.251 1.238-0.766 0.15-1.044-0.338-1.044-0.338 0.056-0.189 0.134-0.508 0.134-0.798 0.001-0.512-0.187-0.765-0.469-0.765z"></path>
</svg>
