<?xml version="1.0" encoding="utf-8"?>
<!-- Generated by IcoMoon.io -->
<!DOCTYPE svg PUBLIC "-//W3C//DTD SVG 1.1//EN" "http://www.w3.org/Graphics/SVG/1.1/DTD/svg11.dtd">
<svg version="1.1" xmlns="http://www.w3.org/2000/svg" xmlns:xlink="http://www.w3.org/1999/xlink" width="16" height="16" viewBox="0 0 16 16">
<path d="M13.962 7.961c-0.35 0.081-0.69 0.116-0.995 0.116-1.716 0-3.038-1.197-3.038-3.282 0-1.022 0.394-1.553 0.954-1.553 0.531 0 0.886 0.477 0.886 1.444 0 0.55-0.147 1.152-0.256 1.51 0 0 0.528 0.922 1.975 0.639 0.308-0.682 0.474-1.565 0.474-2.339 0-2.084-1.064-3.295-3.010-3.295-2.003 0-3.174 1.538-3.174 3.569 0 2.010 0.94 3.734 2.49 4.521-0.652 1.303-1.482 2.452-2.346 3.317-1.569-1.897-2.987-4.427-3.57-9.365h-2.312c1.068 8.223 4.255 10.842 5.098 11.345 0.477 0.286 0.886 0.273 1.323 0.027 0.684-0.388 2.738-2.443 3.878-4.849 0.478-0.002 1.051-0.055 1.624-0.185v-1.62z"></path>
</svg>
