<?xml version="1.0" encoding="utf-8"?>
<!-- Generated by IcoMoon.io -->
<!DOCTYPE svg PUBLIC "-//W3C//DTD SVG 1.1//EN" "http://www.w3.org/Graphics/SVG/1.1/DTD/svg11.dtd">
<svg version="1.1" xmlns="http://www.w3.org/2000/svg" xmlns:xlink="http://www.w3.org/1999/xlink" width="16" height="16" viewBox="0 0 16 16">
<path d="M7.906 6h0.094c1.094 0 2 0.906 2 2v0.125zM5.031 6.531c-0.219 0.438-0.375 0.938-0.375 1.469 0 1.844 1.5 3.344 3.344 3.344 0.531 0 1.031-0.156 1.469-0.375l-1.031-1.031c-0.125 0.031-0.281 0.063-0.438 0.063-1.094 0-2-0.906-2-2 0-0.156 0.031-0.313 0.063-0.438zM1.344 2.844l0.844-0.844 11.813 11.813-0.844 0.844c-0.749-0.74-1.504-1.475-2.25-2.219-0.906 0.375-1.875 0.563-2.906 0.563-3.344 0-6.188-2.063-7.344-5 0.531-1.313 1.406-2.438 2.5-3.313-0.61-0.609-1.208-1.23-1.813-1.844zM8 4.656c-0.438 0-0.844 0.094-1.219 0.25l-1.438-1.438c0.813-0.313 1.719-0.469 2.656-0.469 3.344 0 6.156 2.063 7.313 5-0.5 1.25-1.281 2.313-2.281 3.156l-1.938-1.938c0.156-0.375 0.25-0.781 0.25-1.219 0-1.844-1.5-3.344-3.344-3.344z"></path>
</svg>
