<?xml version="1.0" encoding="utf-8"?>
<!-- Generated by IcoMoon.io -->
<!DOCTYPE svg PUBLIC "-//W3C//DTD SVG 1.1//EN" "http://www.w3.org/Graphics/SVG/1.1/DTD/svg11.dtd">
<svg version="1.1" xmlns="http://www.w3.org/2000/svg" xmlns:xlink="http://www.w3.org/1999/xlink" width="16" height="16" viewBox="0 0 16 16">
<path d="M8 6c1.094 0 2 0.906 2 2s-0.906 2-2 2-2-0.906-2-2 0.906-2 2-2zM8 11.344c1.844 0 3.344-1.5 3.344-3.344s-1.5-3.344-3.344-3.344-3.344 1.5-3.344 3.344 1.5 3.344 3.344 3.344zM8 3c3.344 0 6.188 2.063 7.344 5-1.156 2.938-4 5-7.344 5s-6.188-2.063-7.344-5c1.156-2.938 4-5 7.344-5z"></path>
</svg>
