<?xml version="1.0" encoding="utf-8"?>
<!-- Generated by IcoMoon.io -->
<!DOCTYPE svg PUBLIC "-//W3C//DTD SVG 1.1//EN" "http://www.w3.org/Graphics/SVG/1.1/DTD/svg11.dtd">
<svg version="1.1" xmlns="http://www.w3.org/2000/svg" xmlns:xlink="http://www.w3.org/1999/xlink" width="16" height="16" viewBox="0 0 16 16">
<path d="M15.2 13.6v-11.2c0-0.88-0.722-1.6-1.604-1.6h-11.192c-0.92 0-1.604 0.682-1.604 1.6v11.2c0 0.918 0.684 1.6 1.604 1.6h11.192c0.882 0 1.604-0.719 1.604-1.6zM12.147 9.286c0 0 0.906 0.894 1.129 1.308 0.006 0.009 0.009 0.017 0.011 0.020 0.090 0.152 0.114 0.272 0.068 0.36-0.075 0.146-0.331 0.22-0.418 0.226 0 0-1.554 0-1.599 0-0.112 0-0.344-0.029-0.626-0.223-0.216-0.15-0.43-0.399-0.638-0.642-0.31-0.36-0.579-0.672-0.85-0.672-0.034 0-0.069 0.006-0.101 0.017-0.206 0.066-0.466 0.358-0.466 1.138 0 0.244-0.192 0.383-0.328 0.383 0 0-0.698 0-0.733 0-0.25 0-1.55-0.087-2.701-1.302-1.413-1.488-2.682-4.473-2.693-4.499-0.080-0.193 0.086-0.298 0.266-0.298h1.616c0.217 0 0.286 0.131 0.336 0.249 0.056 0.134 0.267 0.673 0.613 1.279 0.562 0.986 0.909 1.388 1.185 1.388 0.051 0 0.101-0.014 0.147-0.039 0.361-0.199 0.294-1.486 0.278-1.751 0-0.050-0.001-0.575-0.185-0.827-0.133-0.182-0.358-0.252-0.494-0.278 0.036-0.052 0.114-0.133 0.213-0.181 0.247-0.123 0.693-0.141 1.136-0.141h0.246c0.481 0.006 0.606 0.038 0.779 0.082 0.351 0.084 0.358 0.312 0.327 1.088-0.009 0.221-0.018 0.471-0.018 0.765 0 0.063-0.002 0.133-0.002 0.205-0.011 0.397-0.024 0.846 0.256 1.030 0.037 0.022 0.078 0.035 0.121 0.035 0.098 0 0.39 0 1.181-1.358 0.348-0.599 0.616-1.306 0.634-1.359 0.016-0.029 0.063-0.114 0.118-0.146 0.045-0.026 0.102-0.031 0.133-0.031h1.9c0.208 0 0.349 0.031 0.375 0.11 0.046 0.127-0.009 0.515-0.877 1.688-0.147 0.194-0.274 0.364-0.386 0.512-0.787 1.030-0.787 1.083 0.046 1.866z"></path>
</svg>
