<?xml version="1.0" encoding="utf-8"?>
<!-- Generated by IcoMoon.io -->
<!DOCTYPE svg PUBLIC "-//W3C//DTD SVG 1.1//EN" "http://www.w3.org/Graphics/SVG/1.1/DTD/svg11.dtd">
<svg version="1.1" xmlns="http://www.w3.org/2000/svg" xmlns:xlink="http://www.w3.org/1999/xlink" width="16" height="16" viewBox="0 0 16 16">
<path d="M8 0.32c-4.242 0-7.68 3.438-7.68 7.68s3.438 7.68 7.68 7.68 7.68-3.438 7.68-7.68-3.438-7.68-7.68-7.68zM10.954 8.985c0 0 0.679 0.67 0.846 0.982 0.005 0.006 0.007 0.013 0.009 0.016 0.068 0.114 0.084 0.203 0.050 0.27-0.056 0.11-0.248 0.165-0.314 0.17 0 0-1.166 0-1.2 0-0.083 0-0.258-0.022-0.469-0.167-0.162-0.114-0.322-0.3-0.478-0.482-0.233-0.27-0.434-0.504-0.638-0.504-0.026 0-0.052 0.004-0.076 0.012-0.154 0.050-0.35 0.269-0.35 0.853 0 0.182-0.144 0.287-0.246 0.287 0 0-0.524 0-0.55 0-0.187 0-1.162-0.066-2.026-0.977-1.058-1.116-2.010-3.354-2.018-3.375-0.060-0.145 0.064-0.222 0.199-0.222h1.212c0.162 0 0.214 0.098 0.251 0.186 0.043 0.102 0.202 0.506 0.462 0.96 0.422 0.741 0.68 1.042 0.887 1.042 0.039 0 0.075-0.010 0.111-0.029 0.27-0.15 0.22-1.114 0.208-1.314 0-0.038-0.001-0.431-0.139-0.62-0.099-0.137-0.268-0.189-0.37-0.208 0.026-0.039 0.086-0.099 0.159-0.135 0.186-0.093 0.52-0.106 0.852-0.106h0.185c0.36 0.005 0.453 0.028 0.583 0.061 0.264 0.063 0.27 0.234 0.246 0.817-0.007 0.166-0.014 0.353-0.014 0.574 0 0.048-0.002 0.099-0.002 0.154-0.008 0.297-0.018 0.634 0.192 0.772 0.027 0.017 0.058 0.026 0.091 0.026 0.073 0 0.292 0 0.886-1.018 0.26-0.45 0.462-0.98 0.476-1.019 0.012-0.021 0.047-0.085 0.089-0.11 0.033-0.019 0.077-0.023 0.099-0.023h1.425c0.155 0 0.262 0.023 0.282 0.083 0.035 0.095-0.006 0.386-0.657 1.266-0.11 0.146-0.206 0.273-0.29 0.383-0.59 0.773-0.59 0.812 0.037 1.398z"></path>
</svg>
