<?xml version="1.0" encoding="utf-8"?>
<!-- Generated by IcoMoon.io -->
<!DOCTYPE svg PUBLIC "-//W3C//DTD SVG 1.1//EN" "http://www.w3.org/Graphics/SVG/1.1/DTD/svg11.dtd">
<svg version="1.1" xmlns="http://www.w3.org/2000/svg" xmlns:xlink="http://www.w3.org/1999/xlink" width="16" height="16" viewBox="0 0 16 16">
<path d="M14.242 9.838c0 0 1.294 1.278 1.614 1.869 0.009 0.013 0.013 0.022 0.014 0.028 0.13 0.218 0.162 0.39 0.098 0.516-0.108 0.209-0.474 0.314-0.598 0.322 0 0-2.222 0-2.286 0-0.159 0-0.49-0.042-0.894-0.32-0.308-0.215-0.614-0.57-0.911-0.916-0.443-0.514-0.826-0.961-1.214-0.961-0.050 0-0.098 0.008-0.144 0.024-0.294 0.093-0.666 0.511-0.666 1.626 0 0.349-0.275 0.547-0.468 0.547 0 0-0.998 0-1.047 0-0.357 0-2.214-0.125-3.862-1.862-2.018-2.126-3.831-6.392-3.849-6.43-0.113-0.276 0.124-0.426 0.38-0.426h2.309c0.31 0 0.41 0.187 0.481 0.355 0.082 0.193 0.384 0.964 0.88 1.83 0.803 1.41 1.297 1.983 1.691 1.983 0.074 0 0.145-0.018 0.211-0.056 0.515-0.283 0.419-2.123 0.395-2.502 0-0.074-0.001-0.822-0.265-1.183-0.189-0.259-0.51-0.36-0.705-0.397 0.052-0.075 0.162-0.19 0.304-0.258 0.353-0.176 0.99-0.202 1.623-0.202h0.351c0.686 0.010 0.864 0.054 1.114 0.117 0.502 0.12 0.512 0.446 0.468 1.554-0.013 0.317-0.026 0.674-0.026 1.094 0 0.090-0.004 0.19-0.004 0.291-0.015 0.569-0.035 1.21 0.366 1.473 0.051 0.032 0.111 0.050 0.174 0.050 0.139 0 0.556 0 1.686-1.94 0.496-0.857 0.88-1.867 0.906-1.943 0.022-0.042 0.090-0.162 0.171-0.21 0.062-0.038 0.146-0.045 0.189-0.045h2.716c0.296 0 0.497 0.045 0.536 0.157 0.066 0.182-0.013 0.736-1.253 2.413-0.209 0.279-0.392 0.521-0.553 0.732-1.124 1.475-1.124 1.55 0.066 2.67z"></path>
</svg>
