<?xml version="1.0" encoding="utf-8"?>
<!-- Generated by IcoMoon.io -->
<!DOCTYPE svg PUBLIC "-//W3C//DTD SVG 1.1//EN" "http://www.w3.org/Graphics/SVG/1.1/DTD/svg11.dtd">
<svg version="1.1" xmlns="http://www.w3.org/2000/svg" xmlns:xlink="http://www.w3.org/1999/xlink" width="16" height="16" viewBox="0 0 16 16">
<path d="M12.344 10c1.281 0 2.313-1.063 2.313-2.344s-1.031-2.313-2.313-2.313-2.344 1.031-2.344 2.313 1.063 2.344 2.344 2.344zM3.656 10c1.281 0 2.344-1.063 2.344-2.344s-1.063-2.313-2.344-2.313-2.313 1.031-2.313 2.313 1.031 2.344 2.313 2.344zM12.344 4c2.031 0 3.656 1.625 3.656 3.656s-1.625 3.688-3.656 3.688h-8.688c-2.031 0-3.656-1.656-3.656-3.688s1.625-3.656 3.656-3.656 3.688 1.625 3.688 3.656c0 0.875-0.313 1.719-0.844 2.344h3c-0.531-0.625-0.844-1.469-0.844-2.344 0-2.031 1.656-3.656 3.688-3.656z"></path>
</svg>
