<?xml version="1.0" encoding="utf-8"?>
<!-- Generated by IcoMoon.io -->
<!DOCTYPE svg PUBLIC "-//W3C//DTD SVG 1.1//EN" "http://www.w3.org/Graphics/SVG/1.1/DTD/svg11.dtd">
<svg version="1.1" xmlns="http://www.w3.org/2000/svg" xmlns:xlink="http://www.w3.org/1999/xlink" width="16" height="16" viewBox="0 0 16 16">
<path d="M12.32 4.641c-2.033 0-3.681 1.647-3.681 3.68 0 0.772 0.238 1.487 0.645 2.080h-2.569c0.406-0.592 0.644-1.308 0.644-2.080 0-2.033-1.647-3.68-3.68-3.68s-3.68 1.647-3.68 3.68c0.001 2.032 1.648 3.679 3.681 3.679h8.64c2.032 0 3.68-1.647 3.68-3.68s-1.648-3.679-3.68-3.679zM1.6 8.32c0-1.149 0.931-2.080 2.080-2.080s2.080 0.931 2.080 2.080c0 1.149-0.931 2.080-2.080 2.080s-2.080-0.931-2.080-2.080zM12.32 10.4c-1.15 0-2.081-0.931-2.081-2.080s0.931-2.080 2.081-2.080c1.148 0 2.080 0.931 2.080 2.080s-0.931 2.080-2.080 2.080z"></path>
</svg>
