<?xml version="1.0" encoding="utf-8"?>
<!-- Generated by IcoMoon.io -->
<!DOCTYPE svg PUBLIC "-//W3C//DTD SVG 1.1//EN" "http://www.w3.org/Graphics/SVG/1.1/DTD/svg11.dtd">
<svg version="1.1" xmlns="http://www.w3.org/2000/svg" xmlns:xlink="http://www.w3.org/1999/xlink" width="16" height="16" viewBox="0 0 16 16">
<path d="M8 2.656v2.813l-1.406-1.406zM2.844 2l11.156 11.156-0.844 0.844-1.375-1.375c-0.719 0.563-1.531 1-2.438 1.219v-1.375c0.563-0.156 1.063-0.438 1.5-0.781l-2.844-2.844v4.5l-3.344-3.344h-2.656v-4h3.156l-3.156-3.156zM12.656 8c0-2.125-1.375-3.906-3.313-4.469v-1.375c2.688 0.594 4.656 3 4.656 5.844 0 1-0.25 1.969-0.688 2.781l-1-1.031c0.219-0.531 0.344-1.125 0.344-1.75zM11 8c0 0.156 0 0.281-0.031 0.406l-1.625-1.625v-1.469c1 0.5 1.656 1.5 1.656 2.688z"></path>
</svg>
