<?xml version="1.0" encoding="utf-8"?>
<!-- Generated by IcoMoon.io -->
<!DOCTYPE svg PUBLIC "-//W3C//DTD SVG 1.1//EN" "http://www.w3.org/Graphics/SVG/1.1/DTD/svg11.dtd">
<svg version="1.1" xmlns="http://www.w3.org/2000/svg" xmlns:xlink="http://www.w3.org/1999/xlink" width="16" height="16" viewBox="0 0 16 16">
<path d="M7.845 0.667l-2.667 3.333h-2.667c-1.103 0-1.845 1.064-1.845 2.167v3.833c0 1.103 0.742 2 1.845 2h2.667l2.667 3.333c0.667 0 1.488 0 1.488 0v-14.667c-0.667 0-0.821 0-1.488 0zM4.667 10.667h-2.155c-0.369 0-0.512-0.299-0.512-0.667v-3.833c0-0.367 0.143-0.833 0.512-0.833h2.155v5.333zM8 13.333l-2.667-2.667v-5.333l2.667-2.667v10.667zM11.333 7.333h4v1.333h-4z"></path>
</svg>
