<?xml version="1.0" encoding="utf-8"?>
<!-- Generated by IcoMoon.io -->
<!DOCTYPE svg PUBLIC "-//W3C//DTD SVG 1.1//EN" "http://www.w3.org/Graphics/SVG/1.1/DTD/svg11.dtd">
<svg version="1.1" xmlns="http://www.w3.org/2000/svg" xmlns:xlink="http://www.w3.org/1999/xlink" width="16" height="16" viewBox="0 0 16 16">
<path d="M6.656 13.969v-1.313c-0.719 0-1.313-0.594-1.313-1.313v-0.688l-3.219-3.188c-0.094 0.375-0.125 0.781-0.125 1.188 0 2.719 2.031 5 4.656 5.313zM12.625 8h1.344c0.031 0.219 0.031 0.438 0.031 0.656 0 3.688-2.969 6.688-6.656 6.688s-6.688-3-6.688-6.688 3-6.656 6.688-6.656c0.688 0 1.375 0.125 2 0.313v1.688c0 0.719-0.625 1.344-1.344 1.344h-1.344v1.313c0 0.375-0.281 0.688-0.656 0.688h-1.344v1.313h4c0.375 0 0.688 0.313 0.688 0.688v2h0.656c0.594 0 1.094 0.375 1.281 0.906 0.875-0.938 1.375-2.219 1.375-3.594 0-0.219 0-0.438-0.031-0.656zM14.125 2.656v-0.313c0-0.625-0.5-1.156-1.125-1.156s-1.125 0.531-1.125 1.156v0.313h2.25zM14.656 2.656c0.375 0 0.688 0.313 0.688 0.688v2.656c0 0.375-0.313 0.656-0.688 0.656h-3.313c-0.375 0-0.688-0.281-0.688-0.656v-2.656c0-0.375 0.313-0.688 0.688-0.688v-0.313c0-0.906 0.75-1.688 1.656-1.688s1.656 0.781 1.656 1.688v0.313z"></path>
</svg>
