<?xml version="1.0" encoding="utf-8"?>
<!-- Generated by IcoMoon.io -->
<!DOCTYPE svg PUBLIC "-//W3C//DTD SVG 1.1//EN" "http://www.w3.org/Graphics/SVG/1.1/DTD/svg11.dtd">
<svg version="1.1" xmlns="http://www.w3.org/2000/svg" xmlns:xlink="http://www.w3.org/1999/xlink" width="16" height="16" viewBox="0 0 16 16">
<path d="M2.656 8.656v4.688h4.688v1.313h-4.688c-0.719 0-1.313-0.594-1.313-1.313v-4.688h1.313zM13.344 13.344v-4.688h1.313v4.688c0 0.719-0.594 1.313-1.313 1.313h-4.688v-1.313h4.688zM13.344 1.344c0.719 0 1.313 0.594 1.313 1.313v4.688h-1.313v-4.688h-4.688v-1.313h4.688zM11.344 5.656c0 0.563-0.438 1-1 1s-1-0.438-1-1 0.438-1 1-1 1 0.438 1 1zM6.656 8.656l2 2.469 1.344-1.781 2 2.656h-8zM2.656 2.656v4.688h-1.313v-4.688c0-0.719 0.594-1.313 1.313-1.313h4.688v1.313h-4.688z"></path>
</svg>
