<?xml version="1.0" encoding="utf-8"?>
<!-- Generated by IcoMoon.io -->
<!DOCTYPE svg PUBLIC "-//W3C//DTD SVG 1.1//EN" "http://www.w3.org/Graphics/SVG/1.1/DTD/svg11.dtd">
<svg version="1.1" xmlns="http://www.w3.org/2000/svg" xmlns:xlink="http://www.w3.org/1999/xlink" width="16" height="16" viewBox="0 0 16 16">
<path d="M12.8 4.8h-10v-0.4l8.8-0.704v0.704h1.2v-1.2c0-0.88-0.713-1.498-1.583-1.374l-8.033 1.147c-0.871 0.125-1.584 0.946-1.584 1.826v8c0 0.883 0.716 1.6 1.6 1.6h9.6c0.883 0 1.6-0.717 1.6-1.6v-6.4c0-0.883-0.717-1.6-1.6-1.6zM11.6 10.405c-0.662 0-1.2-0.538-1.2-1.2s0.538-1.2 1.2-1.2 1.2 0.538 1.2 1.2-0.538 1.2-1.2 1.2z"></path>
</svg>
