<?xml version="1.0" encoding="utf-8"?>
<!-- Generated by IcoMoon.io -->
<!DOCTYPE svg PUBLIC "-//W3C//DTD SVG 1.1//EN" "http://www.w3.org/Graphics/SVG/1.1/DTD/svg11.dtd">
<svg version="1.1" xmlns="http://www.w3.org/2000/svg" xmlns:xlink="http://www.w3.org/1999/xlink" width="16" height="16" viewBox="0 0 16 16">
<path d="M7.906 7.274c-0.409 3.292-2.497 3.878-2.497 6.166 0 1.413 1.186 2.559 2.591 2.559s2.59-1.147 2.59-2.559c0-2.289-2.088-2.874-2.497-6.166-0.013-0.098-0.175-0.098-0.188 0zM3.106 0.074c-0.409 3.292-2.497 3.877-2.497 6.166 0 1.412 1.186 2.559 2.59 2.559s2.59-1.147 2.59-2.559c0-2.289-2.088-2.874-2.497-6.166-0.012-0.098-0.175-0.098-0.187 0zM12.706 0.074c-0.409 3.292-2.497 3.878-2.497 6.166 0 1.412 1.186 2.559 2.59 2.559s2.59-1.147 2.59-2.559c0-2.289-2.088-2.874-2.497-6.166-0.013-0.098-0.175-0.098-0.187 0z"></path>
</svg>
