<?xml version="1.0" encoding="utf-8"?>
<!-- Generated by IcoMoon.io -->
<!DOCTYPE svg PUBLIC "-//W3C//DTD SVG 1.1//EN" "http://www.w3.org/Graphics/SVG/1.1/DTD/svg11.dtd">
<svg version="1.1" xmlns="http://www.w3.org/2000/svg" xmlns:xlink="http://www.w3.org/1999/xlink" width="16" height="16" viewBox="0 0 16 16">
<path d="M6.875 10.656h1.25l-2.125-6h-1.344l-2.125 6h1.281l0.469-1.313h2.125zM14.656 4.656h1.219l-1.375 6h-1.156l-1-4.063-1 4.063h-1.188l-0.063-0.281c-0.875 1.75-2.656 2.969-4.75 2.969-2.938 0-5.344-2.406-5.344-5.344s2.406-5.344 5.344-5.344c1.688 0 3.188 0.781 4.156 2h0.5l0.813 4.219 1-4.219h1.063l1 4.219zM4.563 8.438l0.781-2.438 0.75 2.438h-1.531z"></path>
</svg>
