<?xml version="1.0" encoding="utf-8"?>
<!-- Generated by IcoMoon.io -->
<!DOCTYPE svg PUBLIC "-//W3C//DTD SVG 1.1//EN" "http://www.w3.org/Graphics/SVG/1.1/DTD/svg11.dtd">
<svg version="1.1" xmlns="http://www.w3.org/2000/svg" xmlns:xlink="http://www.w3.org/1999/xlink" width="16" height="16" viewBox="0 0 16 16">
<path d="M11.5 12.094l0.938-0.906 1.188 1.188-0.938 0.938zM13.344 7h2v1.344h-2v-1.344zM10 4.219c1.188 0.688 2 1.969 2 3.438 0 2.219-1.781 4-4 4s-4-1.781-4-4c0-1.469 0.813-2.75 2-3.438v-3.219h4v3.219zM2.656 7v1.344h-2v-1.344h2zM7.344 14.969v-1.969h1.313v1.969h-1.313zM2.375 12.375l1.188-1.219 0.938 0.938-1.188 1.219z"></path>
</svg>
