<?xml version="1.0" encoding="utf-8"?>
<!-- Generated by IcoMoon.io -->
<!DOCTYPE svg PUBLIC "-//W3C//DTD SVG 1.1//EN" "http://www.w3.org/Graphics/SVG/1.1/DTD/svg11.dtd">
<svg version="1.1" xmlns="http://www.w3.org/2000/svg" xmlns:xlink="http://www.w3.org/1999/xlink" width="16" height="16" viewBox="0 0 16 16">
<path d="M2.375 12.375l1.188-1.219 0.938 0.938-1.188 1.219zM7.344 14.969v-1.969h1.313v1.969h-1.313zM8 3.656c2.219 0 4 1.781 4 4s-1.781 4-4 4-4-1.781-4-4 1.781-4 4-4zM13.344 7h2v1.344h-2v-1.344zM11.5 12.094l0.938-0.906 1.188 1.188-0.938 0.938zM13.625 2.969l-1.188 1.188-0.938-0.938 1.188-1.188zM8.656 0.375v1.969h-1.313v-1.969h1.313zM2.656 7v1.344h-2v-1.344h2zM4.5 3.219l-0.938 0.938-1.188-1.188 0.938-0.938z"></path>
</svg>
