<?xml version="1.0" encoding="utf-8"?>
<!-- Generated by IcoMoon.io -->
<!DOCTYPE svg PUBLIC "-//W3C//DTD SVG 1.1//EN" "http://www.w3.org/Graphics/SVG/1.1/DTD/svg11.dtd">
<svg version="1.1" xmlns="http://www.w3.org/2000/svg" xmlns:xlink="http://www.w3.org/1999/xlink" width="16" height="16" viewBox="0 0 16 16">
<path d="M11 4c-0.75 0-1.344-0.594-1.344-1.344s0.594-1.313 1.344-1.313 1.344 0.563 1.344 1.313-0.594 1.344-1.344 1.344zM5 4c-0.75 0-1.344-0.594-1.344-1.344s0.594-1.313 1.344-1.313 1.344 0.563 1.344 1.313-0.594 1.344-1.344 1.344zM12 14.656h-2v-4h-2l1.688-5.063c0.188-0.531 0.719-0.938 1.281-0.938h0.063c0.563 0 1.094 0.406 1.281 0.938l1.688 5.063h-2v4zM3.656 14.656v-5h-1v-3.656c0-0.719 0.625-1.344 1.344-1.344h2c0.719 0 1.344 0.625 1.344 1.344v3.656h-1v5h-2.688z"></path>
</svg>
