<?xml version="1.0" encoding="utf-8"?>
<!-- Generated by IcoMoon.io -->
<!DOCTYPE svg PUBLIC "-//W3C//DTD SVG 1.1//EN" "http://www.w3.org/Graphics/SVG/1.1/DTD/svg11.dtd">
<svg version="1.1" xmlns="http://www.w3.org/2000/svg" xmlns:xlink="http://www.w3.org/1999/xlink" width="16" height="16" viewBox="0 0 16 16">
<path d="M12 3.344c0.719 0 1.344 0.594 1.344 1.313v1.438c-0.781 0.281-1.344 1-1.344 1.875v1.375h-8v-1.375c0-0.875-0.563-1.594-1.344-1.875v-1.438c0-0.719 0.625-1.313 1.344-1.313h8zM14 6.656c0.719 0 1.344 0.625 1.344 1.344v3.344c0 0.719-0.625 1.313-1.344 1.313h-12c-0.719 0-1.344-0.594-1.344-1.313v-3.344c0-0.719 0.625-1.344 1.344-1.344s1.344 0.625 1.344 1.344v2h9.313v-2c0-0.719 0.625-1.344 1.344-1.344z"></path>
</svg>
