<?xml version="1.0" encoding="utf-8"?>
<!-- Generated by IcoMoon.io -->
<!DOCTYPE svg PUBLIC "-//W3C//DTD SVG 1.1//EN" "http://www.w3.org/Graphics/SVG/1.1/DTD/svg11.dtd">
<svg version="1.1" xmlns="http://www.w3.org/2000/svg" xmlns:xlink="http://www.w3.org/1999/xlink" width="16" height="16" viewBox="0 0 16 16">
<path d="M7.813 12.656c1.781 0 3.188-1.406 3.188-3.188 0-0.938-0.125-1.813-0.375-2.688-0.688 0.906-1.906 1.469-3.094 1.719s-1.875 0.969-1.875 2.063c0 1.156 0.969 2.094 2.156 2.094zM9 0.438c2.594 2.094 4.344 5.313 4.344 8.906 0 2.938-2.406 5.313-5.344 5.313s-5.344-2.375-5.344-5.313c0-2.25 0.813-4.344 2.156-5.938v0.25c0 1.375 1.031 2.469 2.406 2.469s2.281-1.094 2.281-2.469c0-1.438-0.5-3.219-0.5-3.219z"></path>
</svg>
