<?xml version="1.0" encoding="utf-8"?>
<!-- Generated by IcoMoon.io -->
<!DOCTYPE svg PUBLIC "-//W3C//DTD SVG 1.1//EN" "http://www.w3.org/Graphics/SVG/1.1/DTD/svg11.dtd">
<svg version="1.1" xmlns="http://www.w3.org/2000/svg" xmlns:xlink="http://www.w3.org/1999/xlink" width="16" height="16" viewBox="0 0 16 16">
<path d="M4.656 8.612l0.944 0.944c0.615-0.615 1.463-0.996 2.4-0.996s1.785 0.381 2.4 0.996l0.944-0.944c-0.856-0.856-2.038-1.385-3.344-1.385s-2.488 0.529-3.344 1.385zM8 4.185c-2.146 0-4.089 0.87-5.495 2.276l0.945 0.945c1.165-1.166 2.775-1.888 4.549-1.888s3.384 0.722 4.549 1.888l0.945-0.945c-1.406-1.406-3.349-2.276-5.495-2.276zM8 10c-0.552 0-1 0.448-1 1s0.448 1 1 1 1-0.448 1-1-0.448-1-1-1z"></path>
</svg>
