<?xml version="1.0" encoding="utf-8"?>
<!-- Generated by IcoMoon.io -->
<!DOCTYPE svg PUBLIC "-//W3C//DTD SVG 1.1//EN" "http://www.w3.org/Graphics/SVG/1.1/DTD/svg11.dtd">
<svg version="1.1" xmlns="http://www.w3.org/2000/svg" xmlns:xlink="http://www.w3.org/1999/xlink" width="16" height="16" viewBox="0 0 16 16">
<path d="M8 2c3.688 0 6.656 2.969 6.656 6.656 0 2.469-1.313 4.625-3.313 5.781l-0.688-1.156c1.594-0.938 2.688-2.656 2.688-4.625 0-2.938-2.406-5.313-5.344-5.313s-5.344 2.375-5.344 5.313c0 1.969 1.063 3.688 2.656 4.625l-0.656 1.156c-2-1.156-3.313-3.313-3.313-5.781 0-3.688 2.969-6.656 6.656-6.656zM12 8.656c0 1.469-0.813 2.781-2 3.469l-0.656-1.156c0.781-0.469 1.313-1.313 1.313-2.313 0-1.469-1.188-2.656-2.656-2.656s-2.656 1.188-2.656 2.656c0 1 0.531 1.844 1.313 2.313l-0.656 1.156c-1.188-0.688-2-2-2-3.469 0-2.219 1.781-4 4-4s4 1.781 4 4zM8 7.344c0.719 0 1.344 0.594 1.344 1.313s-0.625 1.344-1.344 1.344-1.344-0.625-1.344-1.344 0.625-1.313 1.344-1.313z"></path>
</svg>
