<?xml version="1.0" encoding="utf-8"?>
<!-- Generated by IcoMoon.io -->
<!DOCTYPE svg PUBLIC "-//W3C//DTD SVG 1.1//EN" "http://www.w3.org/Graphics/SVG/1.1/DTD/svg11.dtd">
<svg version="1.1" xmlns="http://www.w3.org/2000/svg" xmlns:xlink="http://www.w3.org/1999/xlink" width="16" height="16" viewBox="0 0 16 16">
<path d="M14.656 10.656v-1c0-0.563-0.438-1-1-1s-1 0.438-1 1v1h2zM15.344 10.656c0.375 0 0.656 0.313 0.656 0.688v2.656c0 0.375-0.281 0.656-0.656 0.656h-3.344c-0.375 0-0.656-0.281-0.656-0.656v-2.656c0-0.375 0.281-0.688 0.656-0.688v-1c0-0.906 0.75-1.656 1.656-1.656s1.688 0.75 1.688 1.656v1zM13.656 6.344c-1.844 0-3.313 1.469-3.313 3.313v1.906l-2.344 3.094-8-10.656c2.219-1.688 5-2.656 8-2.656s5.781 0.969 8 2.656l-1.781 2.375c-0.188-0.031-0.375-0.031-0.563-0.031z"></path>
</svg>
