<?xml version="1.0" encoding="utf-8"?>
<!-- Generated by IcoMoon.io -->
<!DOCTYPE svg PUBLIC "-//W3C//DTD SVG 1.1//EN" "http://www.w3.org/Graphics/SVG/1.1/DTD/svg11.dtd">
<svg version="1.1" xmlns="http://www.w3.org/2000/svg" xmlns:xlink="http://www.w3.org/1999/xlink" width="16" height="16" viewBox="0 0 16 16">
<path d="M8 0.32c-4.242 0-7.68 3.438-7.68 7.68s3.438 7.68 7.68 7.68 7.68-3.438 7.68-7.68-3.438-7.68-7.68-7.68zM6.45 9.2c0 0-0.069 0.138-0.122 0.247-0.057 0.11-0.189 0.153-0.278 0.153h-1.131c-0.2 0-0.191-0.153-0.142-0.253 0.050-0.1 0.074-0.147 0.074-0.147l0.9-1.8-0.5-1c0 0-0.023-0.048-0.074-0.148-0.049-0.1-0.058-0.252 0.142-0.252h1.131c0.089 0 0.221 0.042 0.278 0.152 0.054 0.11 0.122 0.248 0.122 0.248l0.5 1-0.9 1.8zM11.224 4.652c-0.050 0.1-0.074 0.148-0.074 0.148l-2 4 1.2 2.4c0 0 0.023 0.047 0.074 0.147s0.058 0.253-0.142 0.253h-1.131c-0.090 0-0.22-0.042-0.276-0.153s-0.124-0.247-0.124-0.247l-1.2-2.4 2-4c0 0 0.069-0.138 0.124-0.248s0.186-0.152 0.276-0.152h1.131c0.2 0 0.191 0.152 0.142 0.252z"></path>
</svg>
