<?xml version="1.0" encoding="utf-8"?>
<!-- Generated by IcoMoon.io -->
<!DOCTYPE svg PUBLIC "-//W3C//DTD SVG 1.1//EN" "http://www.w3.org/Graphics/SVG/1.1/DTD/svg11.dtd">
<svg version="1.1" xmlns="http://www.w3.org/2000/svg" xmlns:xlink="http://www.w3.org/1999/xlink" width="16" height="16" viewBox="0 0 16 16">
<path d="M14.162 0.8h-2.262c-0.178 0-0.442 0.084-0.552 0.305s-0.248 0.495-0.248 0.495l-4 8 2.4 4.8c0 0 0.138 0.275 0.248 0.495s0.374 0.305 0.552 0.305h2.262c0.4 0 0.384-0.305 0.284-0.505s-0.146-0.295-0.146-0.295l-2.4-4.8 4-8c0 0 0.047-0.095 0.147-0.295s0.115-0.505-0.285-0.505zM5.452 4.305c-0.11-0.221-0.374-0.305-0.552-0.305h-2.262c-0.4 0-0.384 0.305-0.284 0.505s0.146 0.295 0.146 0.295l1 2-1.8 3.6c0 0-0.047 0.095-0.147 0.295s-0.115 0.505 0.285 0.505h2.262c0.178 0 0.442-0.085 0.553-0.305s0.247-0.495 0.247-0.495l1.8-3.6-1-2c0 0-0.138-0.275-0.248-0.495z"></path>
</svg>
