<?xml version="1.0" encoding="utf-8"?>
<!-- Generated by IcoMoon.io -->
<!DOCTYPE svg PUBLIC "-//W3C//DTD SVG 1.1//EN" "http://www.w3.org/Graphics/SVG/1.1/DTD/svg11.dtd">
<svg version="1.1" xmlns="http://www.w3.org/2000/svg" xmlns:xlink="http://www.w3.org/1999/xlink" width="16" height="16" viewBox="0 0 16 16">
<path d="M10.030 9.977l3.618 1.173c0 0 0.518 0.095 0.512 0.442-0.003 0.244-0.158 0.522-0.158 0.522l-1.528 2.205c0 0-0.273 0.229-0.549 0.229s-0.593-0.43-0.593-0.43l-1.934-3.258c0 0-0.218-0.475 0.040-0.737 0.236-0.24 0.59-0.145 0.59-0.145zM9.256 8.48c0.185 0.317 0.696 0.225 0.696 0.225l3.61-1.065c0 0 0.492-0.202 0.562-0.471 0.069-0.27-0.082-0.594-0.082-0.594l-1.726-2.051c0 0-0.15-0.259-0.46-0.286-0.342-0.030-0.553 0.389-0.553 0.389l-2.040 3.24c0.001-0.001-0.179 0.322-0.009 0.614zM7.55 7.217c0.425-0.106 0.493-0.729 0.493-0.729l-0.029-5.188c0 0-0.064-0.64-0.349-0.814-0.447-0.274-0.579-0.131-0.707-0.112l-2.998 1.124c0 0-0.294 0.098-0.446 0.346-0.218 0.35 0.222 0.863 0.222 0.863l3.115 4.286c0 0 0.308 0.321 0.699 0.223zM6.81 9.316c0.010-0.4-0.476-0.641-0.476-0.641l-3.222-1.642c0 0-0.478-0.198-0.71-0.060-0.177 0.106-0.334 0.298-0.35 0.466l-0.21 2.607c0 0-0.031 0.452 0.085 0.658 0.164 0.291 0.705 0.089 0.705 0.089l3.762-0.839c0.146-0.099 0.402-0.109 0.416-0.638zM7.746 10.723c-0.323-0.167-0.71 0.179-0.71 0.179l-2.518 2.798c0 0-0.314 0.428-0.234 0.69 0.075 0.246 0.2 0.369 0.376 0.455l2.53 0.806c0 0 0.306 0.064 0.539-0.004 0.33-0.097 0.269-0.618 0.269-0.618l0.057-3.789c0 0.001-0.013-0.364-0.308-0.518z"></path>
</svg>
