<?xml version="1.0" encoding="utf-8"?>
<!-- Generated by IcoMoon.io -->
<!DOCTYPE svg PUBLIC "-//W3C//DTD SVG 1.1//EN" "http://www.w3.org/Graphics/SVG/1.1/DTD/svg11.dtd">
<svg version="1.1" xmlns="http://www.w3.org/2000/svg" xmlns:xlink="http://www.w3.org/1999/xlink" width="16" height="16" viewBox="0 0 16 16">
<path d="M9.282 7.866l-1.797-0.838c-0.157-0.073-0.286 0.009-0.286 0.182v1.579c0 0.174 0.129 0.255 0.286 0.182l1.796-0.838c0.158-0.074 0.158-0.194 0.001-0.267zM8 0.32c-4.242 0-7.68 3.438-7.68 7.68s3.438 7.68 7.68 7.68 7.68-3.438 7.68-7.68-3.438-7.68-7.68-7.68zM8 11.12c-3.931 0-4-0.354-4-3.12s0.069-3.12 4-3.12 4 0.354 4 3.12-0.069 3.12-4 3.12z"></path>
</svg>
