<?xml version="1.0" encoding="utf-8"?>
<!-- Generated by IcoMoon.io -->
<!DOCTYPE svg PUBLIC "-//W3C//DTD SVG 1.1//EN" "http://www.w3.org/Graphics/SVG/1.1/DTD/svg11.dtd">
<svg version="1.1" xmlns="http://www.w3.org/2000/svg" xmlns:xlink="http://www.w3.org/1999/xlink" width="16" height="16" viewBox="0 0 16 16">
<path d="M11.344 9.344l3.313 3.313-0.969 1-3.344-3.344v-0.5l-0.188-0.188c-0.75 0.656-1.75 1.031-2.813 1.031-0.813 0-1.563-0.219-2.219-0.594l1-0.969c0.375 0.156 0.781 0.25 1.219 0.25 1.656 0 3-1.344 3-3s-1.344-3-3-3-3 1.344-3 3h2.313l-2.75 2.656-2.563-2.656h1.656c0-2.344 1.938-4.344 4.344-4.344s4.344 1.938 4.344 4.344c0 1.094-0.406 2.063-1.063 2.813l0.188 0.188h0.531z"></path>
</svg>
