<?xml version="1.0" encoding="utf-8"?>
<!-- Generated by IcoMoon.io -->
<!DOCTYPE svg PUBLIC "-//W3C//DTD SVG 1.1//EN" "http://www.w3.org/Graphics/SVG/1.1/DTD/svg11.dtd">
<svg version="1.1" xmlns="http://www.w3.org/2000/svg" xmlns:xlink="http://www.w3.org/1999/xlink" width="16" height="16" viewBox="0 0 16 16">
<path d="M0.529 14.112l0.943 0.943 2.923-2.923-0.918-0.967-2.948 2.948zM9.417 0.667c-3.267 0-5.917 2.649-5.917 5.917 0 1.279 0.411 2.46 1.101 3.429l1.113 1.173c1.014 0.818 2.297 1.315 3.702 1.315 3.267 0 5.917-2.649 5.917-5.917s-2.649-5.917-5.917-5.917zM9.417 11.167c-2.527 0-4.583-2.056-4.583-4.583s2.056-4.583 4.583-4.583 4.583 2.056 4.583 4.583-2.056 4.583-4.583 4.583zM7.332 6.001h4v1.333h-4z"></path>
</svg>
